<svg xmlns="http://www.w3.org/2000/svg" xmlns:xlink="http://www.w3.org/1999/xlink" width="500" zoomAndPan="magnify" viewBox="0 0 375 374.999991" height="500" preserveAspectRatio="xMidYMid meet" version="1.0"><defs><clipPath id="05c2ada0dd"><path d="M 12 12 L 363 12 L 363 363 L 12 363 Z M 12 12 " clip-rule="nonzero"/></clipPath><clipPath id="254a127613"><path d="M 98.167969 -30.34375 L 405.367188 98.175781 L 276.84375 405.375 L -30.355469 276.851562 Z M 98.167969 -30.34375 " clip-rule="nonzero"/></clipPath><clipPath id="470047b6ef"><path d="M 98.167969 -30.34375 L 405.367188 98.175781 L 276.84375 405.375 L -30.355469 276.851562 Z M 98.167969 -30.34375 " clip-rule="nonzero"/></clipPath></defs><g clip-path="url(#05c2ada0dd)"><g clip-path="url(#254a127613)"><g clip-path="url(#470047b6ef)"><path fill="#398ad7" d="M 315.023438 77.53125 L 299.539062 132.199219 C 297.804688 138.3125 300.484375 144.820312 306.015625 147.949219 L 355.488281 175.890625 C 364.847656 181.179688 364.816406 194.671875 355.429688 199.914062 L 305.824219 227.621094 C 300.273438 230.71875 297.566406 237.214844 299.269531 243.335938 L 314.492188 298.078125 C 317.371094 308.433594 307.808594 317.953125 297.464844 315.023438 L 242.796875 299.535156 C 236.683594 297.804688 230.175781 300.480469 227.050781 306.015625 L 199.105469 355.484375 C 193.816406 364.847656 180.324219 364.8125 175.082031 355.429688 L 147.378906 305.824219 C 144.277344 300.273438 137.785156 297.5625 131.660156 299.265625 L 76.917969 314.488281 C 66.5625 317.371094 57.042969 307.804688 59.972656 297.460938 L 75.460938 242.796875 C 77.195312 236.679688 74.515625 230.171875 68.980469 227.046875 L 19.511719 199.101562 C 10.152344 193.8125 10.183594 180.320312 19.570312 175.078125 L 69.175781 147.375 C 74.722656 144.273438 77.433594 137.78125 75.730469 131.65625 L 60.507812 76.917969 C 57.625 66.558594 67.191406 57.042969 77.535156 59.972656 L 132.199219 75.457031 C 138.316406 77.191406 144.824219 74.511719 147.949219 68.980469 L 175.894531 19.507812 C 181.179688 10.148438 194.675781 10.179688 199.917969 19.566406 L 227.621094 69.171875 C 230.722656 74.722656 237.214844 77.429688 243.339844 75.726562 L 298.078125 60.503906 C 308.4375 57.625 317.953125 67.1875 315.023438 77.53125 Z M 315.023438 77.53125 " fill-opacity="1" fill-rule="nonzero"/></g></g></g></svg>