<svg xmlns="http://www.w3.org/2000/svg" xmlns:xlink="http://www.w3.org/1999/xlink" width="500" zoomAndPan="magnify" viewBox="0 0 375 374.999991" height="500" preserveAspectRatio="xMidYMid meet" version="1.0"><defs><clipPath id="5aa5c7d37c"><path d="M 25 25 L 256 25 L 256 256 L 25 256 Z M 25 25 " clip-rule="nonzero"/></clipPath><clipPath id="4e7d372558"><path d="M 81.960938 -2.253906 L 283.515625 82.070312 L 199.191406 283.625 L -2.363281 199.300781 Z M 81.960938 -2.253906 " clip-rule="nonzero"/></clipPath><clipPath id="60d8ce286a"><path d="M 81.960938 -2.253906 L 283.515625 82.070312 L 199.191406 283.625 L -2.363281 199.300781 Z M 81.960938 -2.253906 " clip-rule="nonzero"/></clipPath><clipPath id="8a0e3efa21"><path d="M 64 64 L 217 64 L 217 217 L 64 217 Z M 64 64 " clip-rule="nonzero"/></clipPath><clipPath id="b53d233635"><path d="M 101.746094 46 L 234.773438 101.652344 L 179.117188 234.679688 L 46.089844 179.027344 Z M 101.746094 46 " clip-rule="nonzero"/></clipPath><clipPath id="9e65521a6a"><path d="M 101.746094 46 L 234.773438 101.652344 L 179.117188 234.679688 L 46.089844 179.027344 Z M 101.746094 46 " clip-rule="nonzero"/></clipPath><clipPath id="4d03d91746"><rect x="0" width="281" y="0" height="281"/></clipPath></defs><g transform="matrix(1, 0, 0, 1, 47, 47)"><g clip-path="url(#4d03d91746)"><g clip-path="url(#5aa5c7d37c)"><g clip-path="url(#4e7d372558)"><g clip-path="url(#60d8ce286a)"><path fill="#ffef42" d="M 224.0625 68.4375 L 213.914062 104.257812 C 212.777344 108.265625 214.53125 112.53125 218.160156 114.578125 L 250.578125 132.890625 C 256.710938 136.355469 256.6875 145.195312 250.539062 148.632812 L 218.03125 166.785156 C 214.394531 168.816406 212.621094 173.074219 213.738281 177.085938 L 223.710938 212.957031 C 225.601562 219.742188 219.332031 225.980469 212.554688 224.058594 L 176.734375 213.910156 C 172.726562 212.777344 168.460938 214.53125 166.414062 218.15625 L 148.101562 250.574219 C 144.636719 256.707031 135.792969 256.6875 132.359375 250.535156 L 114.207031 218.03125 C 112.175781 214.394531 107.917969 212.621094 103.90625 213.734375 L 68.035156 223.710938 C 61.25 225.597656 55.011719 219.332031 56.933594 212.554688 L 67.078125 176.730469 C 68.214844 172.722656 66.460938 168.460938 62.835938 166.410156 L 30.417969 148.101562 C 24.285156 144.632812 24.304688 135.792969 30.457031 132.359375 L 62.960938 114.203125 C 66.597656 112.171875 68.371094 107.917969 67.257812 103.902344 L 57.28125 68.035156 C 55.394531 61.246094 61.660156 55.011719 68.4375 56.929688 L 104.257812 67.078125 C 108.265625 68.214844 112.53125 66.460938 114.578125 62.832031 L 132.890625 30.414062 C 136.355469 24.28125 145.199219 24.304688 148.632812 30.453125 L 166.789062 62.957031 C 168.820312 66.59375 173.074219 68.371094 177.085938 67.253906 L 212.957031 57.277344 C 219.742188 55.390625 225.980469 61.660156 224.0625 68.4375 Z M 224.0625 68.4375 " fill-opacity="1" fill-rule="nonzero"/></g></g></g><g clip-path="url(#8a0e3efa21)"><g clip-path="url(#b53d233635)"><g clip-path="url(#9e65521a6a)"><path fill="#ffffeb" d="M 195.8125 92.792969 L 189.097656 116.507812 C 188.34375 119.160156 189.503906 121.984375 191.90625 123.339844 L 213.367188 135.460938 C 217.425781 137.753906 217.410156 143.605469 213.339844 145.882812 L 191.824219 157.898438 C 189.414062 159.242188 188.242188 162.058594 188.980469 164.71875 L 195.582031 188.460938 C 196.832031 192.953125 192.683594 197.082031 188.195312 195.8125 L 164.484375 189.09375 C 161.832031 188.34375 159.007812 189.503906 157.652344 191.90625 L 145.53125 213.363281 C 143.238281 217.425781 137.382812 217.410156 135.109375 213.339844 L 123.089844 191.820312 C 121.746094 189.414062 118.929688 188.238281 116.273438 188.976562 L 92.527344 195.582031 C 88.035156 196.832031 83.90625 192.683594 85.179688 188.195312 L 91.894531 164.480469 C 92.648438 161.828125 91.484375 159.007812 89.085938 157.648438 L 67.625 145.527344 C 63.566406 143.234375 63.578125 137.382812 67.652344 135.109375 L 89.167969 123.089844 C 91.578125 121.746094 92.75 118.929688 92.011719 116.273438 L 85.410156 92.527344 C 84.160156 88.035156 88.308594 83.90625 92.792969 85.175781 L 116.507812 91.894531 C 119.160156 92.644531 121.984375 91.484375 123.339844 89.085938 L 135.460938 67.625 C 137.753906 63.5625 143.609375 63.578125 145.882812 67.648438 L 157.898438 89.167969 C 159.246094 91.574219 162.0625 92.75 164.71875 92.011719 L 188.460938 85.40625 C 192.957031 84.160156 197.085938 88.308594 195.8125 92.792969 Z M 195.8125 92.792969 " fill-opacity="1" fill-rule="nonzero"/></g></g></g></g></g></svg>