<svg xmlns="http://www.w3.org/2000/svg" xmlns:xlink="http://www.w3.org/1999/xlink" width="500" zoomAndPan="magnify" viewBox="0 0 375 374.999991" height="500" preserveAspectRatio="xMidYMid meet" version="1.0"><defs><clipPath id="a84d192ee4"><path d="M 72 72 L 303 72 L 303 303 L 72 303 Z M 72 72 " clip-rule="nonzero"/></clipPath><clipPath id="8fe6a6fe74"><path d="M 128.957031 44.746094 L 330.296875 128.980469 L 246.0625 330.320312 L 44.726562 246.085938 Z M 128.957031 44.746094 " clip-rule="nonzero"/></clipPath><clipPath id="0dfec6ea66"><path d="M 128.957031 44.746094 L 330.296875 128.980469 L 246.0625 330.320312 L 44.726562 246.085938 Z M 128.957031 44.746094 " clip-rule="nonzero"/></clipPath><clipPath id="d6a0e8cdee"><path d="M 111 111 L 264 111 L 264 264 L 111 264 Z M 111 111 " clip-rule="nonzero"/></clipPath><clipPath id="513621d2f0"><path d="M 148.746094 93 L 282.28125 148.863281 L 226.414062 282.398438 L 92.878906 226.53125 Z M 148.746094 93 " clip-rule="nonzero"/></clipPath><clipPath id="4aadfa7502"><path d="M 148.746094 93 L 282.28125 148.863281 L 226.414062 282.398438 L 92.878906 226.53125 Z M 148.746094 93 " clip-rule="nonzero"/></clipPath></defs><rect x="-37.5" width="450" fill="#ffffff" y="-37.499999" height="449.999989" fill-opacity="1"/><rect x="-37.5" width="450" fill="#ffffff" y="-37.499999" height="449.999989" fill-opacity="1"/><g clip-path="url(#a84d192ee4)"><g clip-path="url(#8fe6a6fe74)"><g clip-path="url(#0dfec6ea66)"><path fill="#ffef42" d="M 271.058594 115.4375 L 260.914062 151.257812 C 259.777344 155.265625 261.53125 159.53125 265.15625 161.578125 L 297.574219 179.890625 C 303.707031 183.355469 303.6875 192.195312 297.535156 195.632812 L 265.03125 213.785156 C 261.394531 215.816406 259.621094 220.070312 260.734375 224.085938 L 270.710938 259.953125 C 272.597656 266.742188 266.332031 272.980469 259.554688 271.058594 L 223.730469 260.910156 C 219.722656 259.773438 215.460938 261.53125 213.410156 265.15625 L 195.101562 297.574219 C 191.636719 303.707031 182.792969 303.683594 179.359375 297.535156 L 161.207031 265.03125 C 159.171875 261.394531 154.917969 259.617188 150.90625 260.734375 L 115.035156 270.710938 C 108.25 272.597656 102.011719 266.328125 103.929688 259.550781 L 114.078125 223.730469 C 115.214844 219.722656 113.460938 215.457031 109.835938 213.410156 L 77.417969 195.097656 C 71.285156 191.632812 71.304688 182.792969 77.457031 179.359375 L 109.960938 161.203125 C 113.597656 159.171875 115.371094 154.917969 114.253906 150.902344 L 104.28125 115.035156 C 102.394531 108.246094 108.660156 102.007812 115.4375 103.929688 L 151.257812 114.078125 C 155.265625 115.214844 159.53125 113.457031 161.578125 109.832031 L 179.890625 77.414062 C 183.355469 71.28125 192.199219 71.304688 195.632812 77.453125 L 213.785156 109.957031 C 215.816406 113.59375 220.074219 115.371094 224.085938 114.253906 L 259.957031 104.277344 C 266.742188 102.390625 272.980469 108.660156 271.058594 115.4375 Z M 271.058594 115.4375 " fill-opacity="1" fill-rule="nonzero"/></g></g></g><g clip-path="url(#d6a0e8cdee)"><g clip-path="url(#513621d2f0)"><g clip-path="url(#4aadfa7502)"><path fill="#9ac0df" d="M 242.820312 139.796875 L 236.101562 163.507812 C 235.351562 166.164062 236.511719 168.984375 238.914062 170.34375 L 260.375 182.464844 C 264.433594 184.757812 264.417969 190.609375 260.347656 192.886719 L 238.828125 204.902344 C 236.421875 206.25 235.246094 209.066406 235.984375 211.722656 L 242.589844 235.46875 C 243.839844 239.960938 239.6875 244.089844 235.203125 242.820312 L 211.488281 236.101562 C 208.835938 235.347656 206.011719 236.511719 204.65625 238.910156 L 192.535156 260.371094 C 190.242188 264.433594 184.386719 264.417969 182.113281 260.347656 L 170.09375 238.828125 C 168.75 236.421875 165.933594 235.246094 163.277344 235.984375 L 139.53125 242.585938 C 135.035156 243.835938 130.90625 239.6875 132.179688 235.203125 L 138.898438 211.488281 C 139.648438 208.832031 138.488281 206.011719 136.085938 204.65625 L 114.625 192.53125 C 110.566406 190.238281 110.578125 184.386719 114.652344 182.113281 L 136.171875 170.09375 C 138.578125 168.75 139.753906 165.929688 139.011719 163.273438 L 132.410156 139.527344 C 131.160156 135.035156 135.308594 130.90625 139.796875 132.175781 L 163.511719 138.894531 C 166.164062 139.648438 168.984375 138.484375 170.34375 136.085938 L 182.464844 114.625 C 184.757812 110.5625 190.613281 110.578125 192.886719 114.648438 L 204.902344 136.167969 C 206.25 138.574219 209.066406 139.75 211.722656 139.011719 L 235.46875 132.410156 C 239.960938 131.160156 244.089844 135.308594 242.820312 139.796875 Z M 242.820312 139.796875 " fill-opacity="1" fill-rule="nonzero"/></g></g></g></svg>