<svg xmlns="http://www.w3.org/2000/svg" xmlns:xlink="http://www.w3.org/1999/xlink" width="6912" zoomAndPan="magnify" viewBox="0 0 5184 2592.000001" height="3456" preserveAspectRatio="xMidYMid meet" version="1.0"><defs><g/><clipPath id="008e681c28"><rect x="0" width="4762" y="0" height="1427"/></clipPath><clipPath id="3da1a75e54"><rect x="0" width="1414" y="0" height="1504"/></clipPath></defs><g transform="matrix(1, 0, 0, 1, 207, 902)"><g clip-path="url(#008e681c28)"><g fill="#ffef42" fill-opacity="1"><g transform="translate(285.556286, 1130.622283)"><g><path d="M 400.441406 -994.304688 C 461.46875 -1003.378906 519.542969 -996.058594 574.664062 -972.347656 C 626.488281 -950.050781 670.28125 -916.808594 706.050781 -872.617188 C 743.390625 -826.480469 766.410156 -774.160156 775.109375 -715.652344 C 784.0625 -655.410156 777.238281 -597.859375 754.628906 -543.007812 C 732.824219 -490.09375 699.902344 -445.75 655.867188 -409.984375 C 610.363281 -373.019531 557.585938 -350.074219 497.542969 -341.148438 C 452.890625 -334.511719 410.464844 -335.773438 370.261719 -344.9375 C 366.289062 -345.84375 363.144531 -346.375 360.828125 -346.53125 C 361.394531 -346.496094 362.65625 -346.621094 364.613281 -346.914062 C 377.890625 -348.886719 390.445312 -353.449219 402.273438 -360.597656 C 413.816406 -367.574219 423.453125 -376.28125 431.1875 -386.714844 C 438.921875 -397.148438 444.445312 -408.902344 447.761719 -421.972656 C 451.164062 -435.375 451.875 -448.710938 449.902344 -461.988281 C 447.671875 -476.992188 442.355469 -491.03125 433.953125 -504.105469 C 425.996094 -516.484375 416.15625 -526.617188 404.433594 -534.507812 C 394.027344 -541.507812 382.550781 -546.394531 370.003906 -549.164062 C 357.960938 -551.820312 346.074219 -552.277344 334.34375 -550.53125 C 332.382812 -550.242188 331.140625 -549.996094 330.613281 -549.792969 C 332.78125 -550.617188 335.636719 -552.042969 339.171875 -554.066406 C 374.972656 -574.527344 415.195312 -588.078125 459.84375 -594.714844 C 521.363281 -603.863281 579.878906 -596.179688 635.398438 -571.671875 C 687.003906 -548.886719 730.605469 -515.257812 766.199219 -470.777344 C 803.300781 -424.410156 826.289062 -371.394531 835.160156 -311.722656 C 843.898438 -252.925781 836.964844 -196.101562 814.359375 -141.246094 C 792.925781 -89.238281 760.769531 -45.128906 717.894531 -8.90625 C 672.058594 29.8125 618.625 53.710938 557.59375 62.785156 L 400.148438 86.191406 C 327.535156 96.984375 256.929688 92.621094 188.328125 73.101562 C 122.089844 54.25 61.46875 23.789062 6.472656 -18.285156 C -48.332031 -60.210938 -93.636719 -110.585938 -129.441406 -169.40625 C -165.980469 -229.429688 -189.5 -294.75 -199.996094 -365.371094 C -210.867188 -438.488281 -207.269531 -509.246094 -189.203125 -577.644531 C -171.402344 -645.019531 -141.769531 -706.386719 -100.304688 -761.742188 C -59.140625 -816.6875 -9.132812 -862.339844 49.714844 -898.699219 C 109.316406 -935.523438 174.902344 -959.757812 246.472656 -971.402344 Z M 442.820312 -709.246094 L 292.75 -686.953125 C 258.847656 -681.433594 228.328125 -670.292969 201.1875 -653.527344 C 173.300781 -636.296875 149.6875 -614.773438 130.347656 -588.957031 C 111.3125 -563.546875 97.671875 -535.242188 89.433594 -504.042969 C 81.460938 -473.863281 80.003906 -441.765625 85.0625 -407.746094 C 89.84375 -375.574219 100.398438 -346.074219 116.726562 -319.253906 C 133.789062 -291.226562 155.40625 -267.199219 181.578125 -247.175781 C 207.5625 -227.300781 236.105469 -212.9375 267.207031 -204.085938 C 295.953125 -195.902344 326.140625 -194.164062 357.769531 -198.867188 L 515.214844 -222.273438 C 522.230469 -223.316406 527.800781 -225.578125 531.917969 -229.058594 C 539 -235.042969 544.332031 -242.375 547.910156 -251.058594 C 550.316406 -256.894531 551.046875 -262.988281 550.101562 -269.34375 C 548.855469 -277.71875 545.882812 -284.84375 541.183594 -290.714844 C 534.976562 -298.472656 527.585938 -304.242188 519.011719 -308.027344 C 514.347656 -310.085938 508.753906 -310.628906 502.222656 -309.660156 C 493.304688 -308.332031 486.628906 -306.402344 482.191406 -303.867188 C 446.394531 -283.402344 411.238281 -270.605469 376.722656 -265.476562 C 353.40625 -262.007812 330.472656 -262.765625 307.914062 -267.742188 C 284.84375 -272.832031 263.378906 -282.058594 243.523438 -295.421875 C 222.34375 -309.675781 205.007812 -327.296875 191.519531 -348.285156 C 177.582031 -369.96875 168.691406 -393.746094 164.84375 -419.609375 C 161.148438 -444.46875 162.34375 -468.882812 168.425781 -492.855469 C 174.425781 -516.496094 184.835938 -538.316406 199.65625 -558.316406 C 214.476562 -578.3125 232.324219 -594.621094 253.199219 -607.238281 C 274.367188 -620.03125 297.378906 -628.273438 322.238281 -631.96875 C 356.75 -637.101562 394.109375 -635.085938 434.3125 -625.921875 C 439.296875 -624.785156 446.246094 -624.878906 455.164062 -626.207031 C 463.164062 -627.394531 469.5 -629.886719 474.167969 -633.675781 C 480.304688 -638.664062 484.976562 -645.042969 488.183594 -652.820312 C 490.585938 -658.65625 491.210938 -665.472656 490.050781 -673.277344 C 489.0625 -679.917969 486.390625 -685.929688 482.039062 -691.308594 C 476.113281 -698.628906 469.023438 -704.066406 460.773438 -707.613281 C 455.820312 -709.746094 449.835938 -710.289062 442.820312 -709.246094 Z M 442.820312 -709.246094 "/></g></g></g><g fill="#ffef42" fill-opacity="1"><g transform="translate(1005.860136, 1027.859836)"><g/></g></g><g fill="#ffef42" fill-opacity="1"><g transform="translate(1260.903391, 1000.460772)"><g/></g></g><g fill="#ffef42" fill-opacity="1"><g transform="translate(1516.488087, 978.638734)"><g/></g></g><g fill="#ffef42" fill-opacity="1"><g transform="translate(1766.719327, 956.980282)"><g><path d="M 34.609375 114.625 C -17.355469 90.535156 -59.566406 55.621094 -92.023438 9.890625 C -124.3125 -35.605469 -143.328125 -86.0625 -149.078125 -141.480469 C -154.894531 -197.550781 -146.167969 -251.417969 -122.902344 -303.082031 L 75.957031 -746.945312 C 102.617188 -807.0625 142.730469 -853.617188 196.304688 -886.617188 C 246.347656 -917.441406 300.457031 -933.742188 358.636719 -935.515625 C 417.484375 -937.308594 472.847656 -923.894531 524.734375 -895.277344 C 579.671875 -864.976562 622.199219 -819.839844 652.308594 -759.867188 L 870.597656 -322.347656 C 896.976562 -272.074219 907.933594 -217.964844 903.472656 -160.011719 C 899.277344 -105.546875 882.515625 -55.371094 853.183594 -9.484375 C 822.535156 38.457031 780.832031 75.585938 728.070312 101.902344 C 676.050781 127.144531 622.011719 137.972656 565.957031 134.382812 C 509.585938 130.777344 458.113281 113.53125 411.539062 82.644531 C 365.34375 52.011719 329.292969 11.351562 303.378906 -39.335938 L 200.609375 -245.300781 L 197.671875 -253.582031 C 203.941406 -235.914062 213.414062 -220.109375 226.089844 -206.171875 C 241.289062 -189.460938 259.449219 -177.117188 280.574219 -169.132812 C 308.710938 -158.503906 337.042969 -157.046875 365.570312 -164.765625 C 382.859375 -169.441406 398.695312 -177.226562 413.082031 -188.117188 C 431.261719 -201.882812 445.253906 -219.0625 455.0625 -239.65625 C 463.195312 -256.738281 467.667969 -274.671875 468.480469 -293.457031 C 468.992188 -305.261719 467.996094 -316.835938 465.5 -328.183594 L 324.773438 -297.210938 L 464.179688 -333.667969 L 508.851562 -162.859375 L 457.1875 -45.019531 C 432.269531 8.777344 396.945312 51.902344 351.214844 84.359375 C 305.71875 116.648438 255.261719 135.664062 199.839844 141.414062 C 144.769531 147.128906 91.03125 138.792969 38.621094 116.410156 L 36.601562 115.546875 Z M 155.820312 -146.835938 L 95.214844 -16.105469 L 151.808594 -148.621094 C 158.441406 -145.789062 164.539062 -144.660156 170.101562 -145.238281 C 175.316406 -145.777344 180.089844 -147.585938 184.421875 -150.660156 C 188.515625 -153.566406 191.457031 -156.925781 193.246094 -160.734375 L 224.804688 -232.710938 L 356.773438 -174.851562 L 217.367188 -138.394531 L 184.652344 -263.484375 L 184.046875 -266.238281 C 176.5625 -300.25 180.167969 -332.691406 194.863281 -363.558594 C 205.199219 -385.261719 219.953125 -403.371094 239.125 -417.882812 C 254.503906 -429.527344 271.5625 -437.882812 290.308594 -442.953125 C 321.75 -451.460938 352.460938 -450.050781 382.4375 -438.722656 C 404.484375 -430.390625 423.433594 -417.511719 439.285156 -400.082031 C 452.617188 -385.425781 462.613281 -368.71875 469.269531 -349.957031 L 333.46875 -301.769531 L 462.40625 -366.101562 L 559.984375 -170.515625 C 562.976562 -164.664062 566.582031 -160.339844 570.808594 -157.535156 C 574.648438 -154.988281 579.167969 -153.550781 584.359375 -153.21875 C 589.867188 -152.867188 594.894531 -153.789062 599.4375 -155.988281 C 604.679688 -158.601562 608.320312 -161.503906 610.363281 -164.699219 C 613.71875 -169.949219 615.640625 -175.761719 616.132812 -182.140625 C 616.355469 -185.035156 615.21875 -188.882812 612.722656 -193.6875 L 394.761719 -630.546875 C 391.386719 -637.273438 388.3125 -641.402344 385.546875 -642.929688 C 379.722656 -646.140625 373.679688 -647.648438 367.417969 -647.457031 C 360.488281 -647.246094 353.832031 -645.175781 347.449219 -641.242188 C 344.597656 -639.484375 341.765625 -635.441406 338.957031 -629.113281 L 139.871094 -184.746094 C 137.867188 -180.292969 137.101562 -175.785156 137.574219 -171.21875 C 138.113281 -166.007812 139.921875 -161.234375 142.996094 -156.902344 C 145.902344 -152.808594 150.175781 -149.453125 155.820312 -146.835938 Z M 155.820312 -146.835938 "/></g></g></g><g fill="#ffef42" fill-opacity="1"><g transform="translate(2373.957315, 941.891741)"><g><path d="M 542.742188 -908.027344 C 602.363281 -906.285156 656.519531 -889.746094 705.214844 -858.417969 C 751.902344 -828.382812 788.585938 -789.128906 815.261719 -740.652344 C 842.832031 -690.546875 855.765625 -636.3125 854.058594 -577.945312 C 852.367188 -520.214844 836.445312 -467.476562 806.28125 -419.734375 C 777.554688 -374.261719 739.761719 -337.9375 692.90625 -310.765625 C 642.804688 -281.707031 587.625 -268.0625 527.363281 -269.824219 L 531.578125 -413.859375 L 675.628906 -410.261719 L 669.246094 -154.558594 C 667.519531 -95.566406 651.136719 -41.628906 620.101562 7.253906 C 590.289062 54.210938 551.292969 91.265625 503.109375 118.417969 C 452.667969 146.84375 398 160.195312 339.113281 158.472656 C 280.640625 156.761719 227.148438 140.09375 178.644531 108.464844 C 132.410156 78.320312 96.027344 38.796875 69.492188 -10.105469 C 42.214844 -60.382812 29.421875 -114.550781 31.121094 -172.613281 L 38.601562 -428.28125 L 182.636719 -424.070312 L 178.421875 -280.035156 C 119.214844 -281.765625 65.359375 -298.445312 16.855469 -330.074219 C -29.046875 -360.003906 -65.082031 -398.644531 -91.253906 -445.996094 C -118.574219 -495.421875 -131.386719 -549 -129.699219 -606.730469 C -128.007812 -664.570312 -112.367188 -717.542969 -82.78125 -765.65625 C -53.785156 -812.808594 -15.230469 -850.132812 32.878906 -877.636719 C 83.148438 -906.371094 137.886719 -919.875 197.09375 -918.140625 Z M 534.3125 -619.960938 L 188.664062 -630.074219 C 183.492188 -630.226562 179.238281 -629.347656 175.898438 -627.4375 C 170.394531 -624.292969 165.996094 -620.042969 162.707031 -614.691406 C 160.003906 -610.300781 158.558594 -604.835938 158.367188 -598.300781 C 158.21875 -593.121094 159.085938 -588.820312 160.972656 -585.410156 C 164.003906 -579.925781 168.433594 -575.28125 174.261719 -571.480469 C 177.484375 -569.378906 181.679688 -568.253906 186.851562 -568.101562 L 330.882812 -563.886719 L 319.1875 -164.183594 C 319.003906 -157.867188 320.207031 -152.324219 322.796875 -147.546875 C 326.136719 -141.394531 330.554688 -136.523438 336.050781 -132.941406 C 339.273438 -130.839844 343.101562 -129.726562 347.542969 -129.59375 C 353.027344 -129.433594 357.722656 -130.453125 361.621094 -132.652344 C 367.785156 -136.125 372.84375 -140.976562 376.804688 -147.214844 C 379.539062 -151.519531 380.984375 -156.367188 381.144531 -161.75 L 391.140625 -562.125 L 535.792969 -557.890625 C 541.371094 -557.730469 545.546875 -558.453125 548.328125 -560.066406 C 554.351562 -563.558594 559.121094 -568.089844 562.640625 -573.65625 C 564.722656 -576.953125 565.839844 -581.191406 565.992188 -586.375 C 566.167969 -592.382812 565.09375 -597.496094 562.773438 -601.710938 C 559.554688 -607.558594 555.0625 -612.339844 549.289062 -616.054688 C 545.523438 -618.476562 540.53125 -619.777344 534.3125 -619.960938 Z M 534.3125 -619.960938 "/></g></g></g><g fill="#ffef42" fill-opacity="1"><g transform="translate(3045.758347, 960.481622)"><g><path d="M 593.867188 -875.445312 C 653.289062 -870.289062 706.410156 -850.675781 753.230469 -816.613281 C 798.121094 -783.949219 832.496094 -742.65625 856.351562 -692.734375 C 881.007812 -641.132812 890.8125 -586.242188 885.761719 -528.070312 C 880.769531 -470.53125 861.851562 -418.792969 829.003906 -372.859375 C 797.71875 -329.105469 757.90625 -295.007812 709.570312 -270.5625 C 657.886719 -244.421875 602.015625 -233.960938 541.953125 -239.171875 L 554.414062 -382.726562 L 698.019531 -370.886719 L 677 -115.96875 C 671.898438 -57.171875 652.453125 -4.261719 618.667969 42.765625 C 586.214844 87.9375 545.160156 122.695312 495.5 147.042969 C 443.511719 172.535156 388.171875 182.730469 329.476562 177.636719 C 271.199219 172.582031 218.75 152.875 172.136719 118.519531 C 127.707031 85.777344 93.648438 44.234375 69.957031 -6.105469 C 45.601562 -57.863281 35.9375 -112.675781 40.957031 -170.546875 L 63.074219 -425.367188 L 206.628906 -412.910156 L 194.171875 -269.355469 C 135.160156 -274.476562 82.351562 -294.214844 35.734375 -328.566406 C -8.375 -361.074219 -42.140625 -401.71875 -65.554688 -450.492188 C -90 -501.402344 -99.722656 -555.625 -94.730469 -613.164062 C -89.726562 -670.808594 -71.078125 -722.804688 -38.785156 -769.140625 C -7.132812 -814.554688 33.492188 -849.609375 83.097656 -874.308594 C 134.933594 -900.121094 190.355469 -910.464844 249.363281 -905.34375 Z M 568.949219 -588.335938 L 224.449219 -618.230469 C 219.292969 -618.679688 214.996094 -618.046875 211.550781 -616.332031 C 205.875 -613.503906 201.242188 -609.515625 197.652344 -604.363281 C 194.703125 -600.132812 192.949219 -594.761719 192.382812 -588.246094 C 191.933594 -583.082031 192.554688 -578.742188 194.242188 -575.226562 C 196.953125 -569.578125 201.109375 -564.6875 206.710938 -560.558594 C 209.808594 -558.277344 213.933594 -556.914062 219.085938 -556.464844 L 362.644531 -544.007812 L 328.070312 -145.628906 C 327.523438 -139.335938 328.40625 -133.730469 330.71875 -128.8125 C 333.703125 -122.476562 337.832031 -117.363281 343.113281 -113.472656 C 346.210938 -111.191406 349.972656 -109.855469 354.394531 -109.472656 C 359.863281 -109 364.609375 -109.746094 368.628906 -111.71875 C 374.980469 -114.832031 380.308594 -119.386719 384.621094 -125.386719 C 387.597656 -129.53125 389.316406 -134.285156 389.785156 -139.652344 L 422.699219 -538.796875 L 566.871094 -526.28125 C 572.429688 -525.800781 576.644531 -526.285156 579.511719 -527.734375 C 585.726562 -530.875 590.746094 -535.125 594.578125 -540.484375 C 596.847656 -543.65625 598.203125 -547.824219 598.652344 -552.988281 C 599.171875 -558.976562 598.394531 -564.144531 596.320312 -568.484375 C 593.441406 -574.507812 589.226562 -579.539062 583.679688 -583.578125 C 580.058594 -586.210938 575.148438 -587.796875 568.949219 -588.335938 Z M 568.949219 -588.335938 "/></g></g></g><g fill="#ffef42" fill-opacity="1"><g transform="translate(3726.609202, 1017.878767)"><g><path d="M 468.132812 -771.011719 C 515.171875 -807.066406 566.800781 -828.265625 623.019531 -834.617188 C 677.957031 -840.824219 731.007812 -832.992188 782.167969 -811.117188 C 835.441406 -788.339844 879.097656 -752.382812 913.132812 -703.246094 L 794.683594 -621.191406 L 910.425781 -707.023438 C 944.949219 -660.472656 964.859375 -608.421875 970.164062 -550.875 C 975.164062 -496.644531 967.390625 -444.503906 946.851562 -394.449219 C 925.734375 -342.984375 892.765625 -299.488281 847.945312 -263.953125 L 674.179688 -132.117188 L 587.101562 -246.921875 L 729.636719 -225.769531 L 707.074219 -73.746094 C 698.457031 -15.679688 676.042969 35.484375 639.828125 79.75 C 604.863281 122.488281 561.644531 154.289062 510.171875 175.144531 C 457.167969 196.625 401.785156 203.078125 344.027344 194.507812 C 286.992188 186.042969 236.234375 163.835938 191.75 127.890625 C 148.554688 92.984375 116.429688 50.007812 95.382812 -1.046875 C 73.585938 -53.917969 66.992188 -109.386719 75.609375 -167.457031 L 98.171875 -319.480469 L 240.703125 -298.328125 L 124.039062 -213.757812 L -2.167969 -387.855469 C -35.925781 -436.554688 -55.4375 -488.589844 -60.703125 -543.96875 C -65.820312 -597.828125 -58.113281 -649.980469 -37.582031 -700.421875 C -15.796875 -753.949219 18.375 -797.972656 64.925781 -832.496094 L 150.757812 -716.75 L 61.238281 -829.667969 C 107.953125 -866.699219 159.839844 -888.441406 216.898438 -894.886719 C 272.160156 -901.128906 325.125 -893.226562 375.796875 -871.1875 C 427.976562 -848.488281 470.992188 -812.703125 504.84375 -763.835938 L 386.390625 -681.78125 L 502.671875 -766.882812 L 575.566406 -667.28125 L 459.285156 -582.183594 L 371.257812 -696.265625 L 467.765625 -770.726562 Z M 643.816406 -542.5625 L 430.292969 -377.808594 L 269.007812 -598.191406 L 267.941406 -599.730469 C 265.234375 -603.636719 262.863281 -606.035156 260.835938 -606.917969 C 257.296875 -608.457031 253.433594 -608.988281 249.25 -608.515625 C 246.863281 -608.246094 243.871094 -606.6875 240.273438 -603.835938 L 238.453125 -602.390625 L 236.585938 -601.007812 C 233.257812 -598.539062 230.84375 -595.460938 229.34375 -591.773438 C 226.585938 -585.003906 225.539062 -578.15625 226.195312 -571.230469 C 226.710938 -565.824219 228.367188 -561.078125 231.164062 -557 L 391.867188 -335.3125 L 360.679688 -125.152344 C 359.84375 -119.515625 360.222656 -114.761719 361.816406 -110.894531 C 364.164062 -105.203125 367.851562 -100.328125 372.882812 -96.261719 C 376.625 -93.238281 381.109375 -91.335938 386.328125 -90.5625 C 392.277344 -89.679688 397.480469 -90.140625 401.941406 -91.949219 C 407.933594 -94.378906 412.878906 -97.972656 416.777344 -102.738281 C 419.425781 -105.976562 421.171875 -110.414062 422.007812 -116.050781 L 453.195312 -326.210938 L 668.910156 -489.785156 C 674.398438 -494.136719 678.171875 -498.828125 680.238281 -503.851562 C 682.875 -510.289062 683.863281 -517.144531 683.191406 -524.425781 C 682.824219 -528.386719 681.410156 -532.035156 678.941406 -535.363281 L 677.554688 -537.230469 L 676.234375 -539.140625 C 673.710938 -542.78125 671.257812 -545.109375 668.871094 -546.128906 C 664.375 -548.050781 659.875 -548.757812 655.367188 -548.25 C 652.136719 -547.882812 648.164062 -545.894531 643.445312 -542.277344 Z M 643.816406 -542.5625 "/></g></g></g><g fill="#9ac0df" fill-opacity="1"><g transform="translate(285.556286, 1130.622283)"><g><path d="M 421.609375 -851.78125 C 455.628906 -856.832031 487.660156 -852.894531 517.703125 -839.96875 C 547.742188 -827.039062 573.1875 -807.703125 594.03125 -781.953125 C 614.875 -756.203125 627.71875 -727.035156 632.5625 -694.453125 C 637.613281 -660.429688 633.890625 -628.242188 621.390625 -597.890625 C 608.890625 -567.546875 590.09375 -542.1875 565 -521.8125 C 539.914062 -501.445312 510.363281 -488.738281 476.34375 -483.6875 C 449.5625 -479.695312 424.875 -480.273438 402.28125 -485.421875 C 379.6875 -490.578125 360.0625 -491.914062 343.40625 -489.4375 C 331.832031 -487.71875 322.5 -482.078125 315.40625 -472.515625 C 308.320312 -462.953125 305.640625 -452.375 307.359375 -440.78125 C 308.972656 -429.925781 314.507812 -421.316406 323.96875 -414.953125 C 333.425781 -408.585938 343.941406 -406.265625 355.515625 -407.984375 C 372.171875 -410.460938 390.554688 -417.453125 410.671875 -428.953125 C 430.785156 -440.453125 454.234375 -448.195312 481.015625 -452.1875 C 515.035156 -457.238281 547.09375 -453.125 577.1875 -439.84375 C 607.28125 -426.5625 632.773438 -406.863281 653.671875 -380.75 C 674.566406 -354.632812 687.546875 -324.5625 692.609375 -290.53125 C 697.453125 -257.957031 693.617188 -226.492188 681.109375 -196.140625 C 668.609375 -165.796875 649.867188 -140.070312 624.890625 -118.96875 C 599.910156 -97.875 570.410156 -84.800781 536.390625 -79.75 L 378.953125 -56.34375 C 326.828125 -48.59375 276.429688 -51.640625 227.765625 -65.484375 C 179.097656 -79.335938 134.519531 -101.75 94.03125 -132.71875 C 53.539062 -163.695312 20.082031 -200.894531 -6.34375 -244.3125 C -32.78125 -287.738281 -49.820312 -335.148438 -57.46875 -386.546875 C -65.425781 -440.117188 -62.894531 -491.546875 -49.875 -540.828125 C -36.863281 -590.109375 -15.234375 -634.941406 15.015625 -675.328125 C 45.265625 -715.710938 82.070312 -749.300781 125.4375 -776.09375 C 168.8125 -802.882812 216.863281 -820.578125 269.59375 -829.171875 Z M 421.609375 -851.78125 "/></g></g></g><g fill="#9ac0df" fill-opacity="1"><g transform="translate(1005.860136, 1027.859836)"><g/></g></g><g fill="#9ac0df" fill-opacity="1"><g transform="translate(1260.903391, 1000.460772)"><g/></g></g><g fill="#9ac0df" fill-opacity="1"><g transform="translate(1516.488087, 978.638734)"><g/></g></g><g fill="#9ac0df" fill-opacity="1"><g transform="translate(1766.719327, 956.980282)"><g><path d="M 95.203125 -16.109375 C 66.398438 -29.460938 43.160156 -48.59375 25.484375 -73.5 C 7.804688 -98.414062 -2.601562 -126.03125 -5.75 -156.34375 C -8.90625 -186.65625 -4.160156 -215.84375 8.484375 -243.90625 L 207.453125 -688.015625 C 222.191406 -721.242188 243.664062 -746.546875 271.875 -763.921875 C 300.09375 -781.296875 330.476562 -790.476562 363.03125 -791.46875 C 395.582031 -792.457031 426.28125 -784.992188 455.125 -769.078125 C 483.976562 -753.171875 506.78125 -728.539062 523.53125 -695.1875 L 741.65625 -258.015625 C 756.082031 -230.460938 762.125 -201.476562 759.78125 -171.0625 C 757.445312 -140.644531 748.109375 -112.648438 731.765625 -87.078125 C 715.421875 -61.515625 692.742188 -41.5 663.734375 -27.03125 C 635.453125 -13.320312 605.921875 -7.453125 575.140625 -9.421875 C 544.359375 -11.390625 516.363281 -20.726562 491.15625 -37.4375 C 465.945312 -54.15625 446.117188 -76.65625 431.671875 -104.9375 L 333.46875 -301.75 C 332.695312 -303.9375 330.851562 -304.632812 327.9375 -303.84375 C 325.019531 -303.050781 323.960938 -300.835938 324.765625 -297.203125 L 356.75 -174.84375 L 325.21875 -102.890625 C 311.863281 -74.078125 292.726562 -50.832031 267.8125 -33.15625 C 242.894531 -15.476562 215.28125 -5.066406 184.96875 -1.921875 C 154.65625 1.222656 124.734375 -3.503906 95.203125 -16.109375 Z M 95.203125 -16.109375 "/></g></g></g><g fill="#9ac0df" fill-opacity="1"><g transform="translate(2373.957315, 941.891741)"><g><path d="M 538.5 -763.984375 C 571.414062 -763.015625 600.988281 -754.09375 627.21875 -737.21875 C 653.457031 -720.34375 674.046875 -698.328125 688.984375 -671.171875 C 703.929688 -644.015625 710.9375 -614.34375 710 -582.15625 C 709.070312 -550.695312 700.550781 -522.207031 684.4375 -496.6875 C 668.320312 -471.164062 647.039062 -450.738281 620.59375 -435.40625 C 594.15625 -420.070312 564.476562 -412.882812 531.5625 -413.84375 L 525.1875 -158.15625 C 524.238281 -125.957031 515.320312 -96.5625 498.4375 -69.96875 C 481.5625 -43.382812 459.535156 -22.4375 432.359375 -7.125 C 405.191406 8.1875 375.507812 15.375 343.3125 14.4375 C 311.863281 13.519531 283.207031 4.628906 257.34375 -12.234375 C 231.476562 -29.097656 211.078125 -51.289062 196.140625 -78.8125 C 181.203125 -106.34375 174.207031 -136.207031 175.15625 -168.40625 L 182.625 -424.0625 C 150.445312 -425 121.425781 -433.898438 95.5625 -450.765625 C 69.695312 -467.628906 49.457031 -489.269531 34.84375 -515.6875 C 20.238281 -542.101562 13.398438 -571.039062 14.328125 -602.5 C 15.265625 -634.6875 23.804688 -663.90625 39.953125 -690.15625 C 56.097656 -716.40625 77.570312 -737.191406 104.375 -752.515625 C 131.1875 -767.835938 160.679688 -775.03125 192.859375 -774.09375 Z M 538.5 -763.984375 "/></g></g></g><g fill="#9ac0df" fill-opacity="1"><g transform="translate(3045.758347, 960.481622)"><g><path d="M 581.40625 -731.875 C 614.207031 -729.03125 643.21875 -718.429688 668.4375 -700.078125 C 693.65625 -681.722656 712.945312 -658.5625 726.3125 -630.59375 C 739.6875 -602.625 744.984375 -572.597656 742.203125 -540.515625 C 739.484375 -509.171875 729.34375 -481.21875 711.78125 -456.65625 C 694.21875 -432.101562 671.796875 -412.929688 644.515625 -399.140625 C 617.242188 -385.347656 587.207031 -379.875 554.40625 -382.71875 L 533.390625 -127.8125 C 530.597656 -95.726562 520.015625 -66.890625 501.640625 -41.296875 C 483.265625 -15.710938 460.070312 3.9375 432.0625 17.65625 C 404.0625 31.382812 374.015625 36.859375 341.921875 34.078125 C 310.578125 31.359375 282.476562 20.84375 257.625 2.53125 C 232.769531 -15.78125 213.671875 -39.101562 200.328125 -67.4375 C 186.992188 -95.78125 181.722656 -125.992188 184.515625 -158.078125 L 206.625 -412.890625 C 174.550781 -415.679688 146.082031 -426.234375 121.21875 -444.546875 C 96.363281 -462.867188 77.40625 -485.632812 64.34375 -512.84375 C 51.28125 -540.0625 46.109375 -569.34375 48.828125 -600.6875 C 51.609375 -632.769531 61.804688 -661.453125 79.421875 -686.734375 C 97.046875 -712.015625 119.679688 -731.535156 147.328125 -745.296875 C 174.972656 -759.066406 204.832031 -764.554688 236.90625 -761.765625 Z M 581.40625 -731.875 "/></g></g></g><g fill="#9ac0df" fill-opacity="1"><g transform="translate(3726.609202, 1017.878767)"><g><path d="M 555.78125 -656.640625 C 581.65625 -676.472656 609.453125 -688.066406 639.171875 -691.421875 C 668.898438 -694.785156 697.675781 -690.515625 725.5 -678.609375 C 753.332031 -666.710938 776.390625 -647.570312 794.671875 -621.1875 C 813.160156 -596.25 823.820312 -568.398438 826.65625 -537.640625 C 829.5 -506.878906 825.125 -477.378906 813.53125 -449.140625 C 801.9375 -420.910156 783.566406 -396.816406 758.421875 -376.859375 L 587.078125 -246.921875 L 564.515625 -94.890625 C 559.796875 -63.046875 547.71875 -35.25 528.28125 -11.5 C 508.851562 12.25 484.773438 29.945312 456.046875 41.59375 C 427.328125 53.238281 397.035156 56.695312 365.171875 51.96875 C 334.046875 47.351562 306.425781 35.300781 282.3125 15.8125 C 258.207031 -3.675781 240.300781 -27.601562 228.59375 -55.96875 C 216.894531 -84.34375 213.40625 -114.453125 218.125 -146.296875 L 240.6875 -298.328125 L 114.5 -472.421875 C 96.21875 -498.816406 85.628906 -527.207031 82.734375 -557.59375 C 79.847656 -587.976562 84.226562 -617.472656 95.875 -646.078125 C 107.519531 -674.691406 125.8125 -698.25 150.75 -716.75 C 175.90625 -736.6875 203.34375 -748.332031 233.0625 -751.6875 C 262.789062 -755.050781 291.203125 -750.835938 318.296875 -739.046875 C 345.398438 -727.253906 368.09375 -708.164062 386.375 -681.78125 L 459.265625 -582.1875 Z M 555.78125 -656.640625 "/></g></g></g></g></g><g transform="matrix(1, 0, 0, 1, 879, 121)"><g clip-path="url(#3da1a75e54)"><g fill="#ffef42" fill-opacity="1"><g transform="translate(465.342387, 1189.608553)"><g><path d="M 589.40625 -57.535156 C 534.746094 -37.890625 479.28125 -33.230469 423.019531 -43.546875 C 367.785156 -53.679688 318.710938 -76.359375 275.792969 -111.59375 C 231.59375 -147.882812 199.566406 -193.648438 179.710938 -248.894531 L 167.089844 -284.019531 C 172.511719 -268.929688 180.714844 -255.394531 191.699219 -243.417969 C 202.386719 -231.761719 214.75 -222.625 228.796875 -216.003906 C 242.839844 -209.386719 257.757812 -205.664062 273.550781 -204.84375 C 289.78125 -203.996094 305.441406 -206.285156 320.53125 -211.707031 C 335.617188 -217.128906 349.152344 -225.332031 361.132812 -236.316406 C 372.789062 -247.003906 381.925781 -259.371094 388.542969 -273.414062 C 395.160156 -287.460938 398.882812 -302.378906 399.707031 -318.171875 C 400.550781 -334.402344 398.261719 -350.058594 392.839844 -365.148438 L 405.464844 -330.023438 C 425.386719 -274.589844 430.207031 -219.109375 419.925781 -163.582031 C 409.769531 -108.734375 386.773438 -59.9375 350.9375 -17.191406 C 314.65625 26.085938 268.796875 57.683594 213.363281 77.605469 C 159.601562 96.925781 104.917969 101.613281 49.320312 91.664062 C -5.683594 81.820312 -54.726562 59.210938 -97.8125 23.839844 C -142.011719 -12.449219 -174.164062 -58.5625 -194.265625 -114.492188 L -340.546875 -521.527344 C -360.753906 -577.761719 -365.191406 -633.910156 -353.851562 -689.972656 C -342.925781 -743.992188 -319.492188 -792.183594 -283.539062 -834.546875 C -246.996094 -877.609375 -201.839844 -908.804688 -148.074219 -928.125 C -92.640625 -948.046875 -37.160156 -952.867188 18.367188 -942.585938 C 72.90625 -932.488281 121.417969 -909.851562 163.898438 -874.679688 C 207.394531 -838.660156 239.15625 -792.789062 259.183594 -737.058594 L 272.550781 -699.867188 C 266.589844 -716.449219 257.496094 -731.09375 245.261719 -743.800781 C 235.015625 -754.441406 223.417969 -762.8125 210.46875 -768.914062 C 196.425781 -775.535156 181.507812 -779.253906 165.714844 -780.078125 C 149.484375 -780.921875 133.824219 -778.636719 118.738281 -773.210938 C 103.648438 -767.789062 90.113281 -759.585938 78.136719 -748.601562 C 66.480469 -737.914062 57.339844 -725.550781 50.722656 -711.503906 C 44.621094 -698.554688 41.007812 -684.71875 39.878906 -669.992188 C 38.53125 -652.402344 40.839844 -635.320312 46.796875 -618.738281 L 33.429688 -655.929688 C 13.46875 -711.472656 9.15625 -767.277344 20.496094 -823.335938 C 31.375 -877.144531 54.789062 -925.410156 90.738281 -968.140625 C 127.5625 -1011.914062 173.304688 -1043.625 227.96875 -1063.269531 C 283.210938 -1083.121094 338.894531 -1087.554688 395.019531 -1076.5625 C 448.597656 -1066.070312 496.472656 -1043.734375 538.640625 -1009.546875 C 583.070312 -973.527344 615.265625 -927.746094 635.226562 -872.203125 L 781.507812 -465.167969 C 801.359375 -409.921875 805.792969 -354.238281 794.800781 -298.113281 C 784.25 -244.226562 761.550781 -196.0625 726.707031 -153.621094 C 690.417969 -109.417969 644.652344 -77.390625 589.40625 -57.535156 Z M 491.941406 -328.746094 C 497.304688 -330.671875 501.3125 -333.253906 503.96875 -336.488281 C 508.070312 -341.484375 510.742188 -347.152344 511.984375 -353.496094 C 512.789062 -357.601562 512.226562 -362.335938 510.296875 -367.699219 L 364.019531 -774.734375 C 362.199219 -779.796875 359.910156 -783.445312 357.148438 -785.683594 C 352.128906 -789.753906 346.292969 -792.441406 339.640625 -793.746094 C 335.53125 -794.546875 330.796875 -793.988281 325.433594 -792.058594 C 319.488281 -789.921875 314.769531 -786.777344 311.269531 -782.617188 C 306.894531 -777.417969 304.125 -771.949219 302.964844 -766.210938 C 302.261719 -762.730469 302.820312 -758.457031 304.640625 -753.394531 L 318.003906 -716.203125 C 325.945312 -694.113281 329.019531 -671.375 327.226562 -647.992188 C 325.65625 -627.464844 320.386719 -607.683594 311.414062 -588.652344 C 301.929688 -568.519531 289.089844 -551.035156 272.902344 -536.191406 C 256.390625 -521.050781 237.492188 -509.65625 216.203125 -502.003906 C 194.914062 -494.355469 173.085938 -491.113281 150.714844 -492.277344 C 128.78125 -493.421875 107.746094 -498.734375 87.617188 -508.222656 C 68.582031 -517.191406 51.925781 -529.09375 37.648438 -543.921875 C 21.382812 -560.816406 9.28125 -580.3125 1.339844 -602.402344 L -12.023438 -639.59375 C -14.273438 -645.847656 -16.898438 -650.21875 -19.902344 -652.707031 C -23.921875 -656.035156 -28.65625 -658.203125 -34.097656 -659.210938 C -38.550781 -660.035156 -44.054688 -659.273438 -50.609375 -656.917969 C -56.074219 -654.953125 -60.472656 -652.007812 -63.808594 -648.074219 C -67.742188 -643.441406 -70.265625 -638.367188 -71.382812 -632.84375 C -72.085938 -629.363281 -71.402344 -624.746094 -69.335938 -618.996094 L 76.945312 -211.960938 C 79.117188 -205.910156 81.824219 -201.554688 85.058594 -198.898438 C 89.410156 -195.328125 94.417969 -193.035156 100.089844 -192.019531 C 105.164062 -191.109375 110.433594 -191.640625 115.898438 -193.601562 C 122.449219 -195.957031 127.183594 -198.871094 130.09375 -202.34375 C 133.449219 -206.34375 135.601562 -210.914062 136.550781 -216.046875 C 137.375 -220.5 136.609375 -226.003906 134.257812 -232.558594 L 121.632812 -267.683594 C 113.984375 -288.96875 110.742188 -310.800781 111.90625 -333.171875 C 113.050781 -355.105469 118.363281 -376.140625 127.851562 -396.269531 C 137.335938 -416.398438 150.175781 -433.886719 166.363281 -448.730469 C 182.875 -463.871094 201.777344 -475.265625 223.0625 -482.914062 C 244.351562 -490.566406 266.179688 -493.808594 288.550781 -492.640625 C 310.488281 -491.5 331.519531 -486.183594 351.648438 -476.699219 C 371.78125 -467.210938 389.265625 -454.375 404.109375 -438.183594 C 419.25 -421.671875 430.644531 -402.773438 438.296875 -381.484375 L 450.917969 -346.359375 C 452.847656 -340.996094 455.429688 -336.988281 458.664062 -334.332031 C 463.183594 -330.621094 468.632812 -328.179688 475.003906 -327.011719 C 480.351562 -326.03125 485.996094 -326.609375 491.941406 -328.746094 Z M 491.941406 -328.746094 "/></g></g></g><g fill="#9ac0df" fill-opacity="1"><g transform="translate(465.342387, 1189.608553)"><g><path d="M 540.671875 -193.140625 C 510.367188 -182.242188 479.8125 -179.617188 449 -185.265625 C 418.195312 -190.921875 390.9375 -203.484375 367.21875 -222.953125 C 343.5 -242.421875 326.195312 -267.3125 315.3125 -297.625 L 302.6875 -332.734375 C 300.457031 -338.941406 296.300781 -343.476562 290.21875 -346.34375 C 284.132812 -349.21875 277.988281 -349.535156 271.78125 -347.296875 C 265.59375 -345.078125 261.0625 -340.925781 258.1875 -334.84375 C 255.320312 -328.757812 255.003906 -322.613281 257.234375 -316.40625 L 269.859375 -281.296875 C 280.992188 -250.296875 283.785156 -219.800781 278.234375 -189.8125 C 272.679688 -159.820312 260.101562 -133.140625 240.5 -109.765625 C 220.90625 -86.390625 195.617188 -69.132812 164.640625 -58 C 135.023438 -47.351562 105.046875 -44.742188 74.703125 -50.171875 C 44.367188 -55.609375 17.34375 -68.0625 -6.375 -87.53125 C -30.09375 -107 -47.519531 -132.234375 -58.65625 -163.234375 L -204.9375 -570.265625 C -216.070312 -601.242188 -218.628906 -631.617188 -212.609375 -661.390625 C -206.585938 -691.171875 -193.601562 -717.804688 -173.65625 -741.296875 C -153.71875 -764.785156 -128.941406 -781.851562 -99.328125 -792.5 C -68.347656 -803.632812 -37.859375 -806.425781 -7.859375 -800.875 C 22.128906 -795.332031 48.75 -782.929688 72 -763.671875 C 95.25 -744.421875 112.441406 -719.304688 123.578125 -688.328125 L 136.9375 -651.140625 C 138.914062 -645.628906 142.953125 -641.4375 149.046875 -638.5625 C 155.140625 -635.695312 161.28125 -635.375 167.46875 -637.59375 C 173.675781 -639.832031 178.207031 -643.992188 181.0625 -650.078125 C 183.925781 -656.160156 184.367188 -661.957031 182.390625 -667.46875 L 169.03125 -704.65625 C 158.144531 -734.945312 155.710938 -764.976562 161.734375 -794.75 C 167.753906 -824.53125 180.84375 -851.398438 201 -875.359375 C 221.164062 -899.316406 246.398438 -916.742188 276.703125 -927.640625 C 307.003906 -938.523438 337.210938 -941.019531 367.328125 -935.125 C 397.441406 -929.238281 424.296875 -916.726562 447.890625 -897.59375 C 471.484375 -878.46875 488.722656 -853.757812 499.609375 -823.46875 L 645.890625 -416.4375 C 656.773438 -386.125 659.269531 -355.910156 653.375 -325.796875 C 647.476562 -295.679688 634.796875 -268.765625 615.328125 -245.046875 C 595.859375 -221.328125 570.972656 -204.023438 540.671875 -193.140625 Z M 540.671875 -193.140625 "/></g></g></g></g></g></svg>