<svg xmlns="http://www.w3.org/2000/svg" xmlns:xlink="http://www.w3.org/1999/xlink" width="6912" zoomAndPan="magnify" viewBox="0 0 5184 2592.000001" height="3456" preserveAspectRatio="xMidYMid meet" version="1.0"><defs><g/><clipPath id="e7bc9da91a"><rect x="0" width="4753" y="0" height="1424"/></clipPath><clipPath id="bb67985c2f"><rect x="0" width="1168" y="0" height="1303"/></clipPath></defs><g transform="matrix(1, 0, 0, 1, 211, 872)"><g clip-path="url(#e7bc9da91a)"><g fill="#ffef42" fill-opacity="1"><g transform="translate(285.342751, 1128.582422)"><g><path d="M 399.71875 -992.511719 C 460.636719 -1001.566406 518.609375 -994.261719 573.628906 -970.59375 C 625.355469 -948.339844 669.074219 -915.15625 704.777344 -871.042969 C 742.050781 -824.992188 765.027344 -772.765625 773.710938 -714.363281 C 782.648438 -654.226562 775.835938 -596.78125 753.269531 -542.027344 C 731.5 -489.207031 698.640625 -444.945312 654.683594 -409.242188 C 609.261719 -372.347656 556.582031 -349.441406 496.644531 -340.53125 C 452.074219 -333.90625 409.726562 -335.167969 369.59375 -344.316406 C 365.628906 -345.21875 362.492188 -345.75 360.179688 -345.90625 C 360.742188 -345.871094 362 -345.996094 363.957031 -346.285156 C 377.210938 -348.257812 389.742188 -352.8125 401.550781 -359.949219 C 413.070312 -366.910156 422.691406 -375.601562 430.410156 -386.015625 C 438.128906 -396.433594 443.644531 -408.164062 446.957031 -421.214844 C 450.347656 -434.585938 451.0625 -447.902344 449.089844 -461.152344 C 446.863281 -476.132812 441.558594 -490.148438 433.167969 -503.199219 C 425.226562 -515.550781 415.40625 -525.667969 403.703125 -533.542969 C 393.316406 -540.53125 381.863281 -545.410156 369.335938 -548.171875 C 357.316406 -550.824219 345.453125 -551.28125 333.742188 -549.539062 C 331.785156 -549.25 330.542969 -549.003906 330.015625 -548.800781 C 332.179688 -549.625 335.03125 -551.046875 338.5625 -553.066406 C 374.296875 -573.492188 414.445312 -587.019531 459.015625 -593.644531 C 520.421875 -602.773438 578.835938 -595.105469 634.253906 -570.640625 C 685.765625 -547.898438 729.289062 -514.328125 764.816406 -469.925781 C 801.851562 -423.644531 824.796875 -370.722656 833.652344 -311.160156 C 842.378906 -252.46875 835.457031 -195.746094 812.890625 -140.992188 C 791.496094 -89.078125 759.398438 -45.046875 716.597656 -8.890625 C 670.84375 29.761719 617.507812 53.613281 556.585938 62.671875 L 399.425781 86.035156 C 326.941406 96.8125 256.464844 92.457031 187.988281 72.96875 C 121.867188 54.152344 61.359375 23.746094 6.460938 -18.25 C -48.246094 -60.101562 -93.46875 -110.386719 -129.207031 -169.097656 C -165.679688 -229.015625 -189.15625 -294.21875 -199.636719 -364.710938 C -210.488281 -437.695312 -206.894531 -508.328125 -188.859375 -576.601562 C -171.09375 -643.855469 -141.515625 -705.113281 -100.121094 -760.367188 C -59.035156 -815.214844 -9.117188 -860.785156 49.625 -897.078125 C 109.121094 -933.835938 174.589844 -958.027344 246.027344 -969.648438 Z M 442.019531 -707.96875 L 292.222656 -685.710938 C 258.378906 -680.207031 227.914062 -669.085938 200.828125 -652.347656 C 172.988281 -635.152344 149.417969 -613.664062 130.109375 -587.894531 C 111.109375 -562.53125 97.496094 -534.277344 89.269531 -503.132812 C 81.3125 -473.007812 79.859375 -440.96875 84.90625 -407.011719 C 89.683594 -374.898438 100.21875 -345.453125 116.515625 -318.675781 C 133.546875 -290.699219 155.125 -266.71875 181.25 -246.730469 C 207.1875 -226.890625 235.679688 -212.550781 266.726562 -203.714844 C 295.421875 -195.550781 325.550781 -193.816406 357.125 -198.507812 L 514.285156 -221.871094 C 521.289062 -222.914062 526.847656 -225.171875 530.960938 -228.648438 C 538.027344 -234.617188 543.347656 -241.9375 546.921875 -250.605469 C 549.324219 -256.429688 550.050781 -262.515625 549.109375 -268.859375 C 547.867188 -277.21875 544.898438 -284.328125 540.207031 -290.191406 C 534.011719 -297.933594 526.636719 -303.691406 518.074219 -307.472656 C 513.421875 -309.527344 507.835938 -310.070312 501.316406 -309.101562 C 492.414062 -307.777344 485.75 -305.851562 481.324219 -303.320312 C 445.589844 -282.890625 410.496094 -270.117188 376.042969 -264.996094 C 352.769531 -261.535156 329.875 -262.289062 307.355469 -267.257812 C 284.328125 -272.339844 262.90625 -281.550781 243.082031 -294.890625 C 221.941406 -309.117188 204.640625 -326.707031 191.171875 -347.65625 C 177.261719 -369.304688 168.386719 -393.035156 164.546875 -418.851562 C 160.859375 -443.664062 162.050781 -468.035156 168.121094 -491.964844 C 174.109375 -515.566406 184.5 -537.347656 199.296875 -557.308594 C 214.089844 -577.269531 231.90625 -593.546875 252.742188 -606.140625 C 273.871094 -618.910156 296.839844 -627.140625 321.65625 -630.832031 C 356.109375 -635.953125 393.398438 -633.9375 433.53125 -624.792969 C 438.503906 -623.65625 445.441406 -623.753906 454.34375 -625.078125 C 462.332031 -626.265625 468.652344 -628.75 473.3125 -632.535156 C 479.441406 -637.511719 484.101562 -643.878906 487.300781 -651.640625 C 489.703125 -657.46875 490.324219 -664.273438 489.167969 -672.0625 C 488.179688 -678.691406 485.515625 -684.691406 481.167969 -690.0625 C 475.253906 -697.371094 468.179688 -702.796875 459.945312 -706.339844 C 454.996094 -708.464844 449.023438 -709.007812 442.019531 -707.96875 Z M 442.019531 -707.96875 "/></g></g></g><g fill="#ffef42" fill-opacity="1"><g transform="translate(1004.34743, 1026.005315)"><g/></g></g><g fill="#ffef42" fill-opacity="1"><g transform="translate(1258.930885, 998.655778)"><g/></g></g><g fill="#ffef42" fill-opacity="1"><g transform="translate(1514.054508, 976.872984)"><g/></g></g><g fill="#ffef42" fill-opacity="1"><g transform="translate(1763.83438, 955.253705)"><g><path d="M 34.546875 114.417969 C -17.324219 90.371094 -59.460938 55.523438 -91.855469 9.871094 C -124.085938 -35.539062 -143.070312 -85.90625 -148.808594 -141.226562 C -154.617188 -197.195312 -145.90625 -250.964844 -122.679688 -302.535156 L 75.820312 -745.597656 C 102.429688 -805.605469 142.472656 -852.078125 195.949219 -885.019531 C 245.902344 -915.789062 299.914062 -932.058594 357.992188 -933.828125 C 416.730469 -935.617188 471.996094 -922.230469 523.785156 -893.664062 C 578.625 -863.414062 621.074219 -818.359375 651.132812 -758.496094 L 869.027344 -321.765625 C 895.359375 -271.585938 906.296875 -217.570312 901.84375 -159.726562 C 897.65625 -105.355469 880.921875 -55.269531 851.644531 -9.464844 C 821.054688 38.386719 779.425781 75.449219 726.757812 101.71875 C 674.832031 126.914062 620.890625 137.722656 564.933594 134.140625 C 508.667969 130.542969 457.289062 113.324219 410.796875 82.496094 C 364.6875 51.917969 328.699219 11.332031 302.832031 -39.265625 L 200.246094 -244.859375 L 197.3125 -253.125 C 203.574219 -235.488281 213.027344 -219.714844 225.683594 -205.800781 C 240.855469 -189.121094 258.980469 -176.796875 280.066406 -168.828125 C 308.152344 -158.21875 336.433594 -156.761719 364.910156 -164.46875 C 382.167969 -169.136719 397.976562 -176.90625 412.335938 -187.777344 C 430.484375 -201.515625 444.453125 -218.664062 454.242188 -239.222656 C 462.359375 -256.277344 466.824219 -274.175781 467.636719 -292.925781 C 468.144531 -304.710938 467.152344 -316.265625 464.660156 -327.589844 L 324.1875 -296.675781 L 463.34375 -333.066406 L 507.933594 -162.566406 L 456.363281 -44.941406 C 431.492188 8.761719 396.230469 51.808594 350.578125 84.207031 C 305.167969 116.4375 254.800781 135.421875 199.480469 141.160156 C 144.507812 146.863281 90.867188 138.542969 38.550781 116.203125 L 36.535156 115.339844 Z M 155.539062 -146.570312 L 95.042969 -16.074219 L 151.535156 -148.355469 C 158.15625 -145.523438 164.242188 -144.398438 169.796875 -144.976562 C 175 -145.515625 179.765625 -147.320312 184.089844 -150.386719 C 188.175781 -153.289062 191.113281 -156.640625 192.898438 -160.445312 L 224.398438 -232.289062 L 356.128906 -174.539062 L 216.972656 -138.144531 L 184.320312 -263.007812 L 183.714844 -265.757812 C 176.242188 -299.710938 179.84375 -332.089844 194.515625 -362.902344 C 204.828125 -384.566406 219.554688 -402.640625 238.695312 -417.128906 C 254.042969 -428.75 271.074219 -437.09375 289.785156 -442.15625 C 321.167969 -450.644531 351.824219 -449.238281 381.75 -437.929688 C 403.753906 -429.617188 422.671875 -416.757812 438.492188 -399.359375 C 451.800781 -384.730469 461.777344 -368.050781 468.421875 -349.328125 L 332.867188 -301.226562 L 461.574219 -365.441406 L 558.972656 -170.207031 C 561.960938 -164.367188 565.5625 -160.050781 569.777344 -157.253906 C 573.613281 -154.710938 578.121094 -153.273438 583.304688 -152.941406 C 588.804688 -152.589844 593.820312 -153.511719 598.355469 -155.707031 C 603.585938 -158.3125 607.222656 -161.214844 609.261719 -164.402344 C 612.609375 -169.644531 614.53125 -175.445312 615.019531 -181.8125 C 615.242188 -184.699219 614.109375 -188.542969 611.617188 -193.335938 L 394.050781 -629.410156 C 390.679688 -636.125 387.613281 -640.246094 384.851562 -641.769531 C 379.039062 -644.972656 373.007812 -646.480469 366.753906 -646.289062 C 359.839844 -646.078125 353.195312 -644.011719 346.820312 -640.085938 C 343.972656 -638.332031 341.148438 -634.296875 338.347656 -627.980469 L 139.617188 -184.410156 C 137.617188 -179.96875 136.851562 -175.46875 137.324219 -170.910156 C 137.867188 -165.707031 139.667969 -160.941406 142.738281 -156.617188 C 145.640625 -152.53125 149.90625 -149.183594 155.539062 -146.570312 Z M 155.539062 -146.570312 "/></g></g></g><g fill="#ffef42" fill-opacity="1"><g transform="translate(2369.977374, 940.192327)"><g><path d="M 541.765625 -906.390625 C 601.277344 -904.648438 655.335938 -888.144531 703.941406 -856.871094 C 750.546875 -826.890625 787.164062 -787.703125 813.789062 -739.316406 C 841.3125 -689.300781 854.222656 -635.164062 852.519531 -576.902344 C 850.832031 -519.277344 834.933594 -466.636719 804.828125 -418.976562 C 776.152344 -373.585938 738.429688 -337.328125 691.65625 -310.203125 C 641.644531 -281.199219 586.5625 -267.578125 526.414062 -269.339844 L 530.621094 -413.113281 L 674.410156 -409.523438 L 668.039062 -154.28125 C 666.316406 -95.394531 649.964844 -41.554688 618.984375 7.242188 C 589.222656 54.113281 550.296875 91.097656 502.203125 118.203125 C 451.851562 146.578125 397.285156 159.90625 338.5 158.1875 C 280.132812 156.480469 226.742188 139.839844 178.320312 108.269531 C 132.171875 78.179688 95.855469 38.726562 69.367188 -10.085938 C 42.136719 -60.273438 29.371094 -114.34375 31.066406 -172.300781 L 38.53125 -427.511719 L 182.304688 -423.304688 L 178.097656 -279.53125 C 119 -281.257812 65.242188 -297.910156 16.824219 -329.480469 C -28.992188 -359.355469 -64.964844 -397.925781 -91.089844 -445.191406 C -118.359375 -494.527344 -131.152344 -548.007812 -129.464844 -605.636719 C -127.773438 -663.371094 -112.164062 -716.25 -82.632812 -764.273438 C -53.6875 -811.34375 -15.203125 -848.601562 32.816406 -876.050781 C 83 -904.738281 137.640625 -918.214844 196.738281 -916.484375 Z M 533.351562 -618.84375 L 188.324219 -628.9375 C 183.164062 -629.089844 178.914062 -628.210938 175.582031 -626.304688 C 170.085938 -623.164062 165.695312 -618.925781 162.414062 -613.582031 C 159.71875 -609.199219 158.273438 -603.746094 158.082031 -597.222656 C 157.929688 -592.050781 158.796875 -587.761719 160.679688 -584.351562 C 163.707031 -578.878906 168.128906 -574.242188 173.945312 -570.449219 C 177.164062 -568.351562 181.351562 -567.230469 186.511719 -567.078125 L 330.285156 -562.871094 L 318.613281 -163.886719 C 318.429688 -157.582031 319.628906 -152.046875 322.214844 -147.28125 C 325.550781 -141.136719 329.957031 -136.277344 335.441406 -132.703125 C 338.660156 -130.605469 342.484375 -129.492188 346.914062 -129.359375 C 352.390625 -129.199219 357.078125 -130.21875 360.972656 -132.410156 C 367.121094 -135.878906 372.171875 -140.722656 376.125 -146.949219 C 378.855469 -151.246094 380.296875 -156.085938 380.457031 -161.460938 L 390.433594 -561.109375 L 534.824219 -556.886719 C 540.394531 -556.722656 544.566406 -557.445312 547.339844 -559.054688 C 553.351562 -562.542969 558.113281 -567.0625 561.625 -572.621094 C 563.703125 -575.914062 564.820312 -580.144531 564.96875 -585.316406 C 565.144531 -591.316406 564.074219 -596.417969 561.757812 -600.625 C 558.546875 -606.464844 554.058594 -611.238281 548.300781 -614.941406 C 544.539062 -617.359375 539.558594 -618.660156 533.351562 -618.84375 Z M 533.351562 -618.84375 "/></g></g></g><g fill="#ffef42" fill-opacity="1"><g transform="translate(3040.566706, 958.748773)"><g><path d="M 592.796875 -873.867188 C 652.113281 -868.71875 705.136719 -849.144531 751.871094 -815.140625 C 796.683594 -782.535156 830.992188 -741.316406 854.804688 -691.484375 C 879.417969 -639.976562 889.207031 -585.1875 884.167969 -527.117188 C 879.179688 -469.683594 860.296875 -418.039062 827.507812 -372.183594 C 796.28125 -328.511719 756.539062 -294.472656 708.292969 -270.074219 C 656.699219 -243.980469 600.929688 -233.539062 540.976562 -238.742188 L 553.414062 -382.039062 L 696.761719 -370.214844 L 675.777344 -115.757812 C 670.6875 -57.070312 651.277344 -4.253906 617.550781 42.6875 C 585.15625 87.777344 544.175781 122.472656 494.605469 146.777344 C 442.710938 172.222656 387.46875 182.402344 328.882812 177.316406 C 270.710938 172.269531 218.355469 152.597656 171.828125 118.308594 C 127.476562 85.621094 93.476562 44.152344 69.832031 -6.097656 C 45.519531 -57.761719 35.871094 -112.472656 40.882812 -170.238281 L 62.960938 -424.601562 L 206.257812 -412.164062 L 193.820312 -268.867188 C 134.917969 -273.980469 82.203125 -293.683594 35.671875 -327.972656 C -8.359375 -360.425781 -42.0625 -400.992188 -65.4375 -449.679688 C -89.835938 -500.496094 -99.542969 -554.621094 -94.558594 -612.058594 C -89.5625 -669.601562 -70.949219 -721.5 -38.714844 -767.753906 C -7.121094 -813.085938 33.433594 -848.078125 82.949219 -872.734375 C 134.691406 -898.496094 190.011719 -908.824219 248.914062 -903.710938 Z M 567.925781 -587.273438 L 224.042969 -617.117188 C 218.898438 -617.5625 214.609375 -616.929688 211.171875 -615.21875 C 205.503906 -612.398438 200.878906 -608.417969 197.296875 -603.273438 C 194.351562 -599.050781 192.597656 -593.6875 192.035156 -587.183594 C 191.585938 -582.03125 192.207031 -577.699219 193.890625 -574.1875 C 196.597656 -568.550781 200.75 -563.667969 206.339844 -559.550781 C 209.429688 -557.269531 213.546875 -555.910156 218.691406 -555.460938 L 361.988281 -543.027344 L 327.476562 -145.367188 C 326.933594 -139.082031 327.816406 -133.488281 330.125 -128.582031 C 333.101562 -122.257812 337.222656 -117.152344 342.492188 -113.269531 C 345.585938 -110.988281 349.339844 -109.660156 353.753906 -109.277344 C 359.214844 -108.800781 363.949219 -109.546875 367.964844 -111.515625 C 374.300781 -114.625 379.625 -119.171875 383.925781 -125.160156 C 386.898438 -129.296875 388.617188 -134.042969 389.082031 -139.398438 L 421.9375 -537.824219 L 565.847656 -525.332031 C 571.398438 -524.851562 575.605469 -525.335938 578.464844 -526.78125 C 584.667969 -529.917969 589.683594 -534.160156 593.503906 -539.507812 C 595.769531 -542.675781 597.125 -546.835938 597.574219 -551.992188 C 598.089844 -557.96875 597.316406 -563.125 595.246094 -567.460938 C 592.371094 -573.472656 588.164062 -578.492188 582.625 -582.523438 C 579.011719 -585.152344 574.113281 -586.738281 567.925781 -587.273438 Z M 567.925781 -587.273438 "/></g></g></g><g fill="#ffef42" fill-opacity="1"><g transform="translate(3720.189733, 1016.042326)"><g><path d="M 467.289062 -769.621094 C 514.246094 -805.609375 565.78125 -826.773438 621.894531 -833.113281 C 676.734375 -839.308594 729.6875 -831.488281 780.757812 -809.652344 C 833.933594 -786.917969 877.511719 -751.027344 911.488281 -701.980469 L 793.25 -620.074219 L 908.785156 -705.75 C 943.242188 -659.28125 963.121094 -607.324219 968.414062 -549.882812 C 973.402344 -495.75 965.648438 -443.699219 945.144531 -393.738281 C 924.066406 -342.367188 891.15625 -298.945312 846.414062 -263.476562 L 672.964844 -131.878906 L 586.042969 -246.476562 L 728.320312 -225.363281 L 705.800781 -73.613281 C 697.199219 -15.652344 674.824219 35.421875 638.675781 79.605469 C 603.769531 122.269531 560.628906 154.007812 509.253906 174.828125 C 456.34375 196.269531 401.058594 202.710938 343.40625 194.15625 C 286.472656 185.707031 235.804688 163.542969 191.402344 127.660156 C 148.285156 92.816406 116.222656 49.917969 95.210938 -1.042969 C 73.453125 -53.820312 66.871094 -109.191406 75.472656 -167.15625 L 97.992188 -318.902344 L 240.269531 -297.789062 L 123.816406 -213.371094 L -2.164062 -387.15625 C -35.863281 -435.765625 -55.339844 -487.707031 -60.59375 -542.984375 C -65.703125 -596.75 -58.007812 -648.808594 -37.515625 -699.160156 C -15.765625 -752.589844 18.339844 -796.535156 64.808594 -830.992188 L 150.484375 -715.457031 L 61.128906 -828.171875 C 107.757812 -865.136719 159.550781 -886.835938 216.507812 -893.273438 C 271.667969 -899.503906 324.539062 -891.617188 375.117188 -869.613281 C 427.203125 -846.957031 470.140625 -811.238281 503.933594 -762.460938 L 385.695312 -680.554688 L 501.765625 -765.5 L 574.527344 -666.078125 L 458.457031 -581.132812 L 370.589844 -695.007812 L 466.921875 -769.335938 Z M 642.65625 -541.582031 L 429.519531 -377.128906 L 268.523438 -597.113281 L 267.457031 -598.648438 C 264.753906 -602.550781 262.390625 -604.941406 260.363281 -605.824219 C 256.832031 -607.359375 252.976562 -607.890625 248.800781 -607.417969 C 246.417969 -607.148438 243.429688 -605.59375 239.839844 -602.746094 L 238.023438 -601.304688 L 236.160156 -599.921875 C 232.835938 -597.460938 230.425781 -594.386719 228.929688 -590.707031 C 226.179688 -583.949219 225.132812 -577.113281 225.789062 -570.203125 C 226.300781 -564.800781 227.953125 -560.066406 230.75 -555.996094 L 391.160156 -334.707031 L 360.027344 -124.925781 C 359.195312 -119.300781 359.570312 -114.554688 361.164062 -110.691406 C 363.503906 -105.015625 367.1875 -100.144531 372.210938 -96.089844 C 375.945312 -93.070312 380.421875 -91.171875 385.632812 -90.398438 C 391.570312 -89.519531 396.761719 -89.980469 401.214844 -91.785156 C 407.199219 -94.207031 412.136719 -97.796875 416.023438 -102.550781 C 418.671875 -105.785156 420.410156 -110.214844 421.246094 -115.84375 L 452.375 -325.625 L 667.703125 -488.902344 C 673.183594 -493.246094 676.949219 -497.925781 679.007812 -502.945312 C 681.644531 -509.367188 682.628906 -516.210938 681.957031 -523.480469 C 681.59375 -527.433594 680.179688 -531.074219 677.714844 -534.398438 L 676.335938 -536.261719 L 675.011719 -538.167969 C 672.496094 -541.800781 670.046875 -544.128906 667.667969 -545.144531 C 663.179688 -547.0625 658.683594 -547.769531 654.1875 -547.261719 C 650.960938 -546.894531 646.996094 -544.910156 642.285156 -541.300781 Z M 642.65625 -541.582031 "/></g></g></g><g fill="#9ac0df" fill-opacity="1"><g transform="translate(285.342751, 1128.582422)"><g><path d="M 420.875 -850.25 C 454.832031 -855.289062 486.800781 -851.359375 516.78125 -838.453125 C 546.757812 -825.554688 572.15625 -806.253906 592.96875 -780.546875 C 613.78125 -754.835938 626.601562 -725.722656 631.4375 -693.203125 C 636.476562 -659.242188 632.757812 -627.117188 620.28125 -596.828125 C 607.800781 -566.546875 589.039062 -541.234375 564 -520.890625 C 538.957031 -500.546875 509.457031 -487.851562 475.5 -482.8125 C 448.757812 -478.832031 424.109375 -479.410156 401.546875 -484.546875 C 378.992188 -489.691406 359.410156 -491.03125 342.796875 -488.5625 C 331.234375 -486.84375 321.914062 -481.207031 314.84375 -471.65625 C 307.78125 -462.113281 305.109375 -451.5625 306.828125 -440 C 308.429688 -429.164062 313.953125 -420.570312 323.390625 -414.21875 C 332.828125 -407.863281 343.328125 -405.546875 354.890625 -407.265625 C 371.503906 -409.734375 389.851562 -416.707031 409.9375 -428.1875 C 430.019531 -439.664062 453.429688 -447.394531 480.171875 -451.375 C 514.128906 -456.414062 546.125 -452.304688 576.15625 -439.046875 C 606.195312 -425.796875 631.648438 -406.128906 652.515625 -380.046875 C 673.378906 -353.972656 686.332031 -323.957031 691.375 -290 C 696.207031 -257.476562 692.378906 -226.070312 679.890625 -195.78125 C 667.410156 -165.5 648.703125 -139.828125 623.765625 -118.765625 C 598.835938 -97.703125 569.394531 -84.648438 535.4375 -79.609375 L 378.28125 -56.234375 C 326.25 -48.503906 275.941406 -51.550781 227.359375 -65.375 C 178.773438 -79.195312 134.273438 -101.566406 93.859375 -132.484375 C 53.441406 -163.410156 20.039062 -200.546875 -6.34375 -243.890625 C -32.726562 -287.234375 -49.734375 -334.554688 -57.359375 -385.859375 C -65.304688 -439.328125 -62.78125 -490.660156 -49.78125 -539.859375 C -36.789062 -589.054688 -15.203125 -633.8125 14.984375 -674.125 C 45.179688 -714.4375 81.925781 -747.960938 125.21875 -774.703125 C 168.519531 -801.453125 216.488281 -819.113281 269.125 -827.6875 Z M 420.875 -850.25 "/></g></g></g><g fill="#9ac0df" fill-opacity="1"><g transform="translate(1004.34743, 1026.005315)"><g/></g></g><g fill="#9ac0df" fill-opacity="1"><g transform="translate(1258.930885, 998.655778)"><g/></g></g><g fill="#9ac0df" fill-opacity="1"><g transform="translate(1514.054508, 976.872984)"><g/></g></g><g fill="#9ac0df" fill-opacity="1"><g transform="translate(1763.83438, 955.253705)"><g><path d="M 95.03125 -16.078125 C 66.28125 -29.410156 43.082031 -48.507812 25.4375 -73.375 C 7.789062 -98.238281 -2.597656 -125.800781 -5.734375 -156.0625 C -8.878906 -186.320312 -4.140625 -215.457031 8.484375 -243.46875 L 207.078125 -686.78125 C 221.785156 -719.945312 243.21875 -745.203125 271.375 -762.546875 C 299.539062 -779.890625 329.875 -789.054688 362.375 -790.046875 C 394.875 -791.046875 425.523438 -783.601562 454.328125 -767.71875 C 483.128906 -751.832031 505.882812 -727.238281 522.59375 -693.9375 L 740.328125 -257.546875 C 754.734375 -230.054688 760.765625 -201.128906 758.421875 -170.765625 C 756.085938 -140.398438 746.757812 -112.457031 730.4375 -86.9375 C 714.125 -61.414062 691.492188 -41.4375 662.546875 -27 C 634.316406 -13.289062 604.835938 -7.421875 574.109375 -9.390625 C 543.378906 -11.359375 515.429688 -20.679688 490.265625 -37.359375 C 465.109375 -54.046875 445.320312 -76.507812 430.90625 -104.75 L 332.859375 -301.21875 C 332.085938 -303.394531 330.25 -304.085938 327.34375 -303.296875 C 324.4375 -302.503906 323.382812 -300.296875 324.1875 -296.671875 L 356.125 -174.53125 L 324.625 -102.703125 C 311.300781 -73.929688 292.203125 -50.722656 267.328125 -33.078125 C 242.460938 -15.429688 214.898438 -5.035156 184.640625 -1.890625 C 154.378906 1.242188 124.507812 -3.484375 95.03125 -16.078125 Z M 95.03125 -16.078125 "/></g></g></g><g fill="#9ac0df" fill-opacity="1"><g transform="translate(2369.977374, 940.192327)"><g><path d="M 537.546875 -762.609375 C 570.398438 -761.648438 599.921875 -752.742188 626.109375 -735.890625 C 652.296875 -719.046875 672.847656 -697.070312 687.765625 -669.96875 C 702.679688 -642.863281 709.671875 -613.242188 708.734375 -581.109375 C 707.804688 -549.703125 699.296875 -521.265625 683.203125 -495.796875 C 667.117188 -470.328125 645.878906 -449.9375 619.484375 -434.625 C 593.097656 -419.320312 563.472656 -412.148438 530.609375 -413.109375 L 524.234375 -157.875 C 523.296875 -125.738281 514.398438 -96.394531 497.546875 -69.84375 C 480.691406 -43.300781 458.703125 -22.382812 431.578125 -7.09375 C 404.460938 8.1875 374.835938 15.359375 342.703125 14.421875 C 311.304688 13.503906 282.695312 4.628906 256.875 -12.203125 C 231.0625 -29.046875 210.695312 -51.203125 195.78125 -78.671875 C 180.875 -106.148438 173.890625 -135.957031 174.828125 -168.09375 L 182.296875 -423.296875 C 150.179688 -424.234375 121.210938 -433.117188 95.390625 -449.953125 C 69.566406 -466.796875 49.363281 -488.398438 34.78125 -514.765625 C 20.207031 -541.128906 13.382812 -570.015625 14.3125 -601.421875 C 15.25 -633.554688 23.773438 -662.722656 39.890625 -688.921875 C 56.003906 -715.117188 77.441406 -735.863281 104.203125 -751.15625 C 130.960938 -766.457031 160.398438 -773.640625 192.515625 -772.703125 Z M 537.546875 -762.609375 "/></g></g></g><g fill="#9ac0df" fill-opacity="1"><g transform="translate(3040.566706, 958.748773)"><g><path d="M 580.359375 -730.5625 C 613.097656 -727.71875 642.054688 -717.140625 667.234375 -698.828125 C 692.410156 -680.515625 711.671875 -657.394531 725.015625 -629.46875 C 738.367188 -601.550781 743.65625 -571.578125 740.875 -539.546875 C 738.15625 -508.253906 728.03125 -480.351562 710.5 -455.84375 C 692.976562 -431.332031 670.601562 -412.191406 643.375 -398.421875 C 616.15625 -384.648438 586.164062 -379.1875 553.40625 -382.03125 L 532.421875 -127.578125 C 529.640625 -95.554688 519.078125 -66.773438 500.734375 -41.234375 C 482.390625 -15.691406 459.238281 3.929688 431.28125 17.640625 C 403.332031 31.347656 373.347656 36.8125 341.328125 34.03125 C 310.023438 31.3125 281.96875 20.8125 257.15625 2.53125 C 232.351562 -15.75 213.289062 -39.035156 199.96875 -67.328125 C 186.65625 -95.617188 181.390625 -125.773438 184.171875 -157.796875 L 206.25 -412.15625 C 174.238281 -414.9375 145.828125 -425.46875 121.015625 -443.75 C 96.203125 -462.039062 77.273438 -484.765625 64.234375 -511.921875 C 51.191406 -539.085938 46.03125 -568.316406 48.75 -599.609375 C 51.53125 -631.640625 61.710938 -660.273438 79.296875 -685.515625 C 96.878906 -710.753906 119.46875 -730.238281 147.0625 -743.96875 C 174.65625 -757.707031 204.457031 -763.1875 236.46875 -760.40625 Z M 580.359375 -730.5625 "/></g></g></g><g fill="#9ac0df" fill-opacity="1"><g transform="translate(3720.189733, 1016.042326)"><g><path d="M 554.78125 -655.453125 C 580.613281 -675.253906 608.367188 -686.832031 638.046875 -690.1875 C 667.722656 -693.539062 696.445312 -689.273438 724.21875 -677.390625 C 751.988281 -665.515625 775 -646.410156 793.25 -620.078125 C 811.707031 -595.179688 822.347656 -567.382812 825.171875 -536.6875 C 828.003906 -505.988281 823.632812 -476.539062 812.0625 -448.34375 C 800.5 -420.15625 782.164062 -396.109375 757.0625 -376.203125 L 586.046875 -246.46875 L 563.515625 -94.734375 C 558.796875 -62.929688 546.738281 -35.175781 527.34375 -11.46875 C 507.945312 12.226562 483.910156 29.890625 455.234375 41.515625 C 426.554688 53.148438 396.320312 56.609375 364.53125 51.890625 C 333.445312 47.273438 305.867188 35.238281 281.796875 15.78125 C 257.734375 -3.664062 239.863281 -27.546875 228.1875 -55.859375 C 216.507812 -84.179688 213.03125 -114.242188 217.75 -146.046875 L 240.28125 -297.78125 L 114.296875 -471.578125 C 96.035156 -497.921875 85.46875 -526.257812 82.59375 -556.59375 C 79.71875 -586.9375 84.085938 -616.382812 95.703125 -644.9375 C 107.316406 -673.488281 125.578125 -696.992188 150.484375 -715.453125 C 175.585938 -735.359375 202.976562 -746.988281 232.65625 -750.34375 C 262.332031 -753.695312 290.695312 -749.488281 317.75 -737.71875 C 344.800781 -725.945312 367.453125 -706.890625 385.703125 -680.546875 L 458.46875 -581.140625 Z M 554.78125 -655.453125 "/></g></g></g></g></g><g transform="matrix(1, 0, 0, 1, 1017, 184)"><g clip-path="url(#bb67985c2f)"><g fill="#ffef42" fill-opacity="1"><g transform="translate(240.597975, 1013.471173)"><g><path d="M 583.730469 93.304688 C 525.980469 98.46875 471.242188 88.964844 419.511719 64.789062 C 368.730469 41.054688 327.066406 6.757812 294.523438 -38.109375 C 261.003906 -84.316406 241.632812 -136.605469 236.414062 -194.96875 L 233.09375 -232.078125 C 234.519531 -216.136719 239.023438 -200.996094 246.605469 -186.652344 C 253.984375 -172.699219 263.617188 -160.75 275.507812 -150.8125 C 287.398438 -140.871094 300.867188 -133.511719 315.910156 -128.726562 C 331.371094 -123.8125 347.070312 -122.066406 363.011719 -123.492188 C 378.953125 -124.917969 394.09375 -129.421875 408.4375 -137 C 422.394531 -144.378906 434.339844 -154.011719 444.28125 -165.90625 C 454.21875 -177.796875 461.578125 -191.261719 466.363281 -206.308594 C 471.28125 -221.765625 473.023438 -237.46875 471.597656 -253.40625 L 474.917969 -216.300781 C 480.15625 -157.734375 470.796875 -102.9375 446.84375 -51.910156 C 423.183594 -1.507812 388.652344 39.808594 343.246094 72.039062 C 297.277344 104.664062 245.011719 123.597656 186.449219 128.835938 C 129.644531 133.914062 75.65625 124.628906 24.476562 100.976562 C -26.152344 77.582031 -67.804688 43.359375 -100.480469 -1.683594 C -134 -47.890625 -153.402344 -100.542969 -158.6875 -159.632812 L -197.144531 -589.660156 C -202.457031 -649.070312 -192.558594 -704.414062 -167.453125 -755.6875 C -143.257812 -805.097656 -108.449219 -845.71875 -63.035156 -877.546875 C -16.863281 -909.90625 34.621094 -928.625 91.421875 -933.703125 C 149.988281 -938.941406 204.78125 -929.582031 255.8125 -905.628906 C 305.929688 -882.101562 347.0625 -847.988281 379.199219 -803.292969 C 412.109375 -757.523438 431.195312 -705.203125 436.460938 -646.324219 L 439.972656 -607.035156 C 438.40625 -624.550781 433.320312 -640.988281 424.714844 -656.351562 C 417.511719 -669.214844 408.425781 -680.230469 397.460938 -689.390625 C 385.570312 -699.332031 372.105469 -706.691406 357.058594 -711.476562 C 341.601562 -716.390625 325.898438 -718.136719 309.960938 -716.710938 C 294.019531 -715.285156 278.875 -710.78125 264.535156 -703.203125 C 250.578125 -695.824219 238.632812 -686.191406 228.691406 -674.296875 C 219.527344 -663.335938 212.542969 -650.882812 207.734375 -636.945312 C 201.992188 -620.300781 199.902344 -603.222656 201.46875 -585.703125 L 197.957031 -624.996094 C 192.707031 -683.675781 202.636719 -738.65625 227.746094 -789.929688 C 251.84375 -839.144531 286.648438 -879.84375 332.15625 -912.03125 C 378.773438 -945 430.957031 -964.070312 488.707031 -969.234375 C 547.070312 -974.453125 601.964844 -964.667969 653.390625 -939.878906 C 702.480469 -916.214844 743.070312 -882.550781 775.15625 -838.886719 C 808.964844 -792.882812 828.496094 -740.539062 833.742188 -681.855469 L 872.199219 -251.828125 C 877.421875 -193.464844 867.636719 -138.570312 842.847656 -87.144531 C 819.046875 -37.769531 784.960938 3.011719 740.59375 35.195312 C 694.382812 68.714844 642.097656 88.085938 583.730469 93.304688 Z M 558.105469 -193.222656 C 563.773438 -193.730469 568.296875 -195.207031 571.679688 -197.660156 C 576.898438 -201.449219 580.910156 -206.25 583.710938 -212.058594 C 585.527344 -215.824219 586.179688 -220.539062 585.671875 -226.203125 L 547.214844 -656.230469 C 546.738281 -661.578125 545.449219 -665.679688 543.347656 -668.539062 C 539.527344 -673.738281 534.570312 -677.808594 528.476562 -680.746094 C 524.710938 -682.558594 519.996094 -683.210938 514.332031 -682.707031 C 508.050781 -682.144531 502.695312 -680.296875 498.265625 -677.164062 C 492.726562 -673.246094 488.671875 -668.664062 486.105469 -663.417969 C 484.546875 -660.234375 484.003906 -655.96875 484.484375 -650.621094 L 487.996094 -611.328125 C 490.085938 -587.988281 487.308594 -565.253906 479.675781 -543.125 C 472.972656 -523.699219 462.886719 -505.929688 449.417969 -489.8125 C 435.171875 -472.769531 418.355469 -459.125 398.972656 -448.878906 C 379.203125 -438.425781 358.074219 -432.195312 335.582031 -430.183594 C 313.09375 -428.171875 291.195312 -430.554688 269.882812 -437.332031 C 248.988281 -443.976562 230.019531 -454.421875 212.976562 -468.667969 C 196.859375 -482.136719 183.78125 -497.835938 173.738281 -515.761719 C 162.296875 -536.1875 155.535156 -558.070312 153.445312 -581.410156 L 149.933594 -620.699219 C 149.339844 -627.308594 147.910156 -632.195312 145.636719 -635.355469 C 142.59375 -639.585938 138.574219 -642.875 133.574219 -645.222656 C 129.476562 -647.144531 123.96875 -647.796875 117.046875 -647.175781 C 111.273438 -646.660156 106.28125 -644.925781 102.066406 -641.972656 C 97.097656 -638.488281 93.378906 -634.226562 90.90625 -629.175781 C 89.347656 -625.992188 88.839844 -621.359375 89.382812 -615.285156 L 127.839844 -185.257812 C 128.414062 -178.867188 129.925781 -173.976562 132.378906 -170.597656 C 135.679688 -166.046875 139.9375 -162.566406 145.15625 -160.15625 C 149.828125 -157.996094 155.050781 -157.175781 160.824219 -157.691406 C 167.746094 -158.3125 173.050781 -159.929688 176.738281 -162.546875 C 180.988281 -165.5625 184.222656 -169.433594 186.4375 -174.148438 C 188.359375 -178.242188 189.011719 -183.753906 188.390625 -190.675781 L 185.070312 -227.785156 C 183.0625 -250.273438 185.445312 -272.171875 192.21875 -293.484375 C 198.863281 -314.378906 209.308594 -333.347656 223.554688 -350.390625 C 237.800781 -367.433594 254.613281 -381.078125 274 -391.324219 C 293.769531 -401.777344 314.898438 -408.007812 337.386719 -410.019531 C 359.878906 -412.03125 381.777344 -409.648438 403.085938 -402.871094 C 423.980469 -396.226562 442.949219 -385.78125 459.996094 -371.535156 C 477.039062 -357.289062 490.683594 -340.476562 500.929688 -321.09375 C 511.378906 -301.324219 517.609375 -280.191406 519.621094 -257.703125 L 522.941406 -220.59375 C 523.449219 -214.929688 524.925781 -210.402344 527.378906 -207.023438 C 530.808594 -202.296875 535.453125 -198.5625 541.3125 -195.824219 C 546.226562 -193.527344 551.824219 -192.660156 558.105469 -193.222656 Z M 558.105469 -193.222656 "/></g></g></g><g fill="#9ac0df" fill-opacity="1"><g transform="translate(240.597975, 1013.471173)"><g><path d="M 570.921875 -49.953125 C 538.898438 -47.085938 508.726562 -52.273438 480.40625 -65.515625 C 452.09375 -78.753906 428.941406 -97.769531 410.953125 -122.5625 C 392.960938 -147.351562 382.535156 -175.757812 379.671875 -207.78125 L 376.359375 -244.875 C 375.773438 -251.425781 372.90625 -256.851562 367.75 -261.15625 C 362.601562 -265.46875 356.753906 -267.332031 350.203125 -266.75 C 343.648438 -266.15625 338.222656 -263.28125 333.921875 -258.125 C 329.617188 -252.976562 327.757812 -247.128906 328.34375 -240.578125 L 331.65625 -203.484375 C 334.582031 -170.734375 329.578125 -140.578125 316.640625 -113.015625 C 303.703125 -85.460938 284.816406 -62.875 259.984375 -45.25 C 235.160156 -27.625 206.378906 -17.347656 173.640625 -14.421875 C 142.347656 -11.628906 112.738281 -16.6875 84.8125 -29.59375 C 56.894531 -42.5 33.941406 -61.347656 15.953125 -86.140625 C -2.035156 -110.929688 -12.492188 -139.703125 -15.421875 -172.453125 L -53.875 -602.46875 C -56.800781 -635.207031 -51.597656 -665.191406 -38.265625 -692.421875 C -24.929688 -719.660156 -5.671875 -742.109375 19.515625 -759.765625 C 44.710938 -777.421875 72.957031 -787.644531 104.25 -790.4375 C 136.988281 -793.363281 167.132812 -788.359375 194.6875 -775.421875 C 222.25 -762.484375 244.828125 -743.78125 262.421875 -719.3125 C 280.015625 -694.84375 290.273438 -666.238281 293.203125 -633.5 L 296.71875 -594.21875 C 297.238281 -588.394531 300.070312 -583.328125 305.21875 -579.015625 C 310.375 -574.710938 316.226562 -572.859375 322.78125 -573.453125 C 329.332031 -574.035156 334.757812 -576.898438 339.0625 -582.046875 C 343.363281 -587.203125 345.253906 -592.691406 344.734375 -598.515625 L 341.21875 -637.796875 C 338.351562 -669.816406 343.585938 -699.441406 356.921875 -726.671875 C 370.265625 -753.898438 389.695312 -776.539062 415.21875 -794.59375 C 440.738281 -812.644531 469.507812 -823.101562 501.53125 -825.96875 C 533.539062 -828.832031 563.34375 -823.609375 590.9375 -810.296875 C 618.539062 -796.992188 641.316406 -778.128906 659.265625 -753.703125 C 677.210938 -729.273438 687.617188 -701.050781 690.484375 -669.03125 L 728.9375 -239.015625 C 731.800781 -206.992188 726.582031 -177.1875 713.28125 -149.59375 C 699.988281 -122 680.941406 -99.207031 656.140625 -81.21875 C 631.335938 -63.238281 602.929688 -52.816406 570.921875 -49.953125 Z M 570.921875 -49.953125 "/></g></g></g></g></g></svg>