<svg xmlns="http://www.w3.org/2000/svg" xmlns:xlink="http://www.w3.org/1999/xlink" width="6912" zoomAndPan="magnify" viewBox="0 0 5184 2592.000001" height="3456" preserveAspectRatio="xMidYMid meet" version="1.0"><defs><g/><clipPath id="328aaca4d7"><rect x="0" width="4728" y="0" height="1339"/></clipPath><clipPath id="d2b8c4d3d7"><rect x="0" width="1315" y="0" height="1380"/></clipPath></defs><g transform="matrix(1, 0, 0, 1, 228, 920)"><g clip-path="url(#328aaca4d7)"><g fill="#ffef42" fill-opacity="1"><g transform="translate(274.81008, 1066.685098)"><g><path d="M 350.195312 -913.5625 C 405.753906 -922.78125 458.867188 -916.992188 509.53125 -896.195312 C 557.167969 -876.644531 597.648438 -846.980469 630.96875 -807.199219 C 665.753906 -765.667969 687.5625 -718.269531 696.398438 -665.007812 C 705.496094 -610.167969 700.152344 -557.542969 680.359375 -507.132812 C 661.269531 -458.507812 631.90625 -417.539062 592.269531 -384.21875 C 551.304688 -349.789062 503.492188 -328.039062 448.832031 -318.972656 C 408.1875 -312.226562 369.449219 -312.730469 332.617188 -320.476562 C 328.976562 -321.242188 326.101562 -321.679688 323.984375 -321.789062 C 324.5 -321.761719 325.648438 -321.894531 327.433594 -322.191406 C 339.519531 -324.199219 350.90625 -328.554688 361.59375 -335.261719 C 372.019531 -341.804688 380.679688 -349.894531 387.578125 -359.539062 C 394.476562 -369.179688 399.335938 -379.992188 402.164062 -391.96875 C 405.0625 -404.25 405.507812 -416.433594 403.503906 -428.519531 C 401.234375 -442.179688 396.167969 -454.910156 388.300781 -466.714844 C 380.847656 -477.886719 371.714844 -486.984375 360.894531 -494.007812 C 351.292969 -500.238281 340.742188 -504.519531 329.246094 -506.851562 C 318.21875 -509.09375 307.363281 -509.328125 296.683594 -507.554688 C 294.898438 -507.257812 293.765625 -507.015625 293.289062 -506.824219 C 295.257812 -507.609375 297.839844 -508.953125 301.035156 -510.851562 C 333.390625 -530.078125 369.894531 -543.0625 410.539062 -549.804688 C 466.542969 -559.09375 520.0625 -552.980469 571.109375 -531.464844 C 618.554688 -511.464844 658.859375 -481.441406 692.027344 -441.390625 C 726.597656 -399.648438 748.386719 -351.617188 757.398438 -297.296875 C 766.277344 -243.769531 760.824219 -191.804688 741.03125 -141.398438 C 722.269531 -93.605469 693.601562 -52.855469 655.027344 -19.140625 C 613.789062 16.898438 565.390625 39.527344 509.832031 48.742188 L 366.503906 72.519531 C 300.402344 83.488281 235.898438 80.585938 172.992188 63.824219 C 112.253906 47.636719 56.464844 20.765625 5.625 -16.785156 C -45.03125 -54.207031 -87.152344 -99.484375 -120.730469 -152.617188 C -154.996094 -206.835938 -177.460938 -266.085938 -188.125 -330.375 C -199.167969 -396.9375 -196.96875 -461.566406 -181.53125 -524.265625 C -166.320312 -586.027344 -140.21875 -642.488281 -103.222656 -693.640625 C -66.5 -744.417969 -21.566406 -786.847656 31.585938 -820.933594 C 85.414062 -855.453125 144.898438 -878.574219 210.035156 -890.300781 Z M 393.246094 -654.066406 L 256.632812 -631.414062 C 225.777344 -625.863281 198.09375 -615.226562 173.582031 -599.507812 C 148.398438 -583.355469 127.175781 -563.351562 109.921875 -539.492188 C 92.941406 -516.011719 80.929688 -489.972656 73.886719 -461.371094 C 67.074219 -433.707031 66.234375 -404.390625 71.371094 -373.421875 C 76.230469 -344.132812 86.316406 -317.375 101.628906 -293.148438 C 117.628906 -267.832031 137.726562 -246.234375 161.921875 -228.363281 C 185.9375 -210.621094 212.207031 -197.953125 240.730469 -190.351562 C 267.089844 -183.324219 294.664062 -182.203125 323.457031 -186.976562 L 466.785156 -210.753906 C 473.171875 -211.8125 478.21875 -213.964844 481.925781 -217.203125 C 488.296875 -222.773438 493.050781 -229.546875 496.183594 -237.527344 C 498.289062 -242.890625 498.859375 -248.460938 497.902344 -254.246094 C 496.636719 -261.871094 493.8125 -268.328125 489.433594 -273.613281 C 483.652344 -280.597656 476.820312 -285.75 468.933594 -289.074219 C 464.648438 -290.878906 459.53125 -291.289062 453.589844 -290.304688 C 445.46875 -288.957031 439.40625 -287.09375 435.398438 -284.710938 C 403.039062 -265.488281 371.152344 -253.269531 339.730469 -248.054688 C 318.507812 -244.535156 297.5625 -244.875 276.898438 -249.070312 C 255.769531 -253.359375 236.039062 -261.453125 217.710938 -273.34375 C 198.164062 -286.027344 182.074219 -301.84375 169.441406 -320.789062 C 156.386719 -340.367188 147.910156 -361.925781 144.003906 -385.472656 C 140.25 -408.101562 140.964844 -430.402344 146.148438 -452.371094 C 151.261719 -474.042969 160.425781 -494.113281 173.644531 -512.589844 C 186.863281 -531.070312 202.902344 -546.226562 221.761719 -558.0625 C 240.878906 -570.058594 261.753906 -577.9375 284.382812 -581.691406 C 315.804688 -586.902344 349.929688 -585.636719 386.761719 -577.890625 C 391.324219 -576.929688 397.667969 -577.121094 405.785156 -578.46875 C 413.070312 -579.679688 418.8125 -582.046875 423.011719 -585.578125 C 428.539062 -590.222656 432.703125 -596.117188 435.511719 -603.265625 C 437.613281 -608.625 438.078125 -614.859375 436.902344 -621.960938 C 435.898438 -628.007812 433.367188 -633.453125 429.3125 -638.296875 C 423.792969 -644.886719 417.242188 -649.738281 409.65625 -652.851562 C 405.101562 -654.71875 399.632812 -655.125 393.246094 -654.066406 Z M 393.246094 -654.066406 "/></g></g></g><g fill="#ffef42" fill-opacity="1"><g transform="translate(924.989258, 957.397668)"><g><path d="M 534.800781 78.550781 C 482.058594 83.945312 431.898438 75.886719 384.320312 54.378906 C 337.617188 33.269531 299.125 2.390625 268.847656 -38.253906 C 237.664062 -80.117188 219.351562 -127.699219 213.902344 -181.003906 L 210.4375 -214.894531 C 211.925781 -200.335938 216.21875 -186.542969 223.316406 -173.515625 C 230.222656 -160.84375 239.171875 -150.03125 250.15625 -141.078125 C 261.144531 -132.128906 273.542969 -125.554688 287.355469 -121.355469 C 301.546875 -117.039062 315.921875 -115.625 330.480469 -117.113281 C 345.039062 -118.601562 358.832031 -122.894531 371.855469 -129.992188 C 384.53125 -136.898438 395.34375 -145.847656 404.292969 -156.835938 C 413.242188 -167.820312 419.820312 -180.21875 424.019531 -194.03125 C 428.335938 -208.222656 429.75 -222.597656 428.261719 -237.15625 L 431.722656 -203.265625 C 437.191406 -149.78125 429.269531 -99.570312 407.960938 -52.636719 C 386.910156 -6.277344 355.8125 31.898438 314.671875 61.890625 C 273.019531 92.253906 225.453125 110.171875 171.964844 115.636719 C 120.089844 120.941406 70.617188 113.074219 23.550781 92.042969 C -23.015625 71.238281 -61.492188 40.429688 -91.890625 -0.375 C -123.074219 -42.238281 -141.421875 -90.152344 -146.9375 -144.121094 L -187.082031 -536.859375 C -192.625 -591.117188 -184.21875 -641.832031 -161.855469 -689.003906 C -140.304688 -734.460938 -108.949219 -772.003906 -67.792969 -801.632812 C -25.953125 -831.753906 20.902344 -849.464844 72.78125 -854.765625 C 126.265625 -860.230469 176.476562 -852.3125 223.410156 -831 C 269.507812 -810.070312 307.507812 -779.355469 337.410156 -738.859375 C 368.027344 -697.394531 386.085938 -649.777344 391.582031 -596.003906 L 395.25 -560.117188 C 393.613281 -576.117188 388.773438 -591.089844 380.730469 -605.035156 C 373.992188 -616.714844 365.558594 -626.679688 355.425781 -634.929688 C 344.441406 -643.878906 332.042969 -650.453125 318.230469 -654.652344 C 304.039062 -658.96875 289.664062 -660.382812 275.105469 -658.894531 C 260.546875 -657.40625 246.753906 -653.113281 233.726562 -646.015625 C 221.054688 -639.109375 210.242188 -630.164062 201.292969 -619.175781 C 193.039062 -609.042969 186.796875 -597.578125 182.5625 -584.78125 C 177.503906 -569.496094 175.792969 -553.851562 177.425781 -537.855469 L 173.757812 -573.738281 C 168.28125 -627.332031 176.722656 -677.71875 199.085938 -724.890625 C 220.550781 -770.164062 251.902344 -807.78125 293.136719 -837.734375 C 335.378906 -868.421875 382.871094 -886.460938 435.613281 -891.851562 C 488.917969 -897.300781 539.222656 -888.988281 586.527344 -866.917969 C 631.6875 -845.851562 669.1875 -815.539062 699.03125 -775.988281 C 730.476562 -734.316406 748.9375 -686.683594 754.414062 -633.089844 L 794.558594 -240.351562 C 800.007812 -187.046875 791.695312 -136.742188 769.625 -89.4375 C 748.4375 -44.015625 717.742188 -6.335938 677.546875 23.605469 C 635.6875 54.789062 588.101562 73.105469 534.800781 78.550781 Z M 508.050781 -183.128906 C 513.226562 -183.65625 517.347656 -185.0625 520.410156 -187.34375 C 525.140625 -190.871094 528.753906 -195.304688 531.246094 -200.648438 C 532.863281 -204.113281 533.40625 -208.429688 532.875 -213.605469 L 492.734375 -606.34375 C 492.234375 -611.226562 491.007812 -614.964844 489.054688 -617.550781 C 485.503906 -622.261719 480.921875 -625.925781 475.316406 -628.539062 C 471.851562 -630.15625 467.535156 -630.699219 462.359375 -630.167969 C 456.625 -629.582031 451.75 -627.832031 447.738281 -624.917969 C 442.71875 -621.269531 439.0625 -617.035156 436.777344 -612.207031 C 435.386719 -609.277344 434.941406 -605.371094 435.441406 -600.488281 L 439.109375 -564.601562 C 441.289062 -543.289062 439.015625 -522.46875 432.289062 -502.144531 C 426.386719 -484.304688 417.371094 -467.941406 405.242188 -453.050781 C 392.414062 -437.300781 377.199219 -424.632812 359.59375 -415.039062 C 341.636719 -405.253906 322.390625 -399.3125 301.851562 -397.214844 C 281.3125 -395.113281 261.261719 -397.039062 241.699219 -402.988281 C 222.515625 -408.820312 205.050781 -418.152344 189.304688 -430.980469 C 174.414062 -443.109375 162.273438 -457.3125 152.882812 -473.585938 C 142.183594 -492.128906 135.746094 -512.058594 133.566406 -533.371094 L 129.902344 -569.257812 C 129.285156 -575.292969 127.917969 -579.742188 125.804688 -582.605469 C 122.972656 -586.4375 119.257812 -589.398438 114.65625 -591.488281 C 110.890625 -593.199219 105.847656 -593.730469 99.527344 -593.082031 C 94.253906 -592.542969 89.707031 -590.902344 85.890625 -588.152344 C 81.386719 -584.910156 78.035156 -580.96875 75.832031 -576.324219 C 74.445312 -573.394531 74.035156 -569.152344 74.601562 -563.605469 L 114.742188 -170.867188 C 115.339844 -165.027344 116.78125 -160.578125 119.0625 -157.511719 C 122.132812 -153.390625 126.066406 -150.257812 130.867188 -148.113281 C 135.160156 -146.195312 139.945312 -145.503906 145.21875 -146.042969 C 151.542969 -146.691406 156.371094 -148.230469 159.714844 -150.667969 C 163.566406 -153.476562 166.476562 -157.046875 168.449219 -161.386719 C 170.15625 -165.152344 170.6875 -170.199219 170.042969 -176.519531 L 166.578125 -210.410156 C 164.480469 -230.949219 166.402344 -251 172.351562 -270.5625 C 178.1875 -289.746094 187.515625 -307.210938 200.34375 -322.957031 C 213.171875 -338.707031 228.386719 -351.378906 245.992188 -360.96875 C 263.945312 -370.753906 283.195312 -376.695312 303.734375 -378.796875 C 324.273438 -380.894531 344.324219 -378.96875 363.886719 -373.019531 C 383.070312 -367.1875 400.535156 -357.855469 416.28125 -345.03125 C 432.03125 -332.203125 444.703125 -316.984375 454.292969 -299.382812 C 464.078125 -281.425781 470.019531 -262.179688 472.121094 -241.640625 L 475.582031 -207.75 C 476.113281 -202.574219 477.519531 -198.453125 479.800781 -195.390625 C 482.988281 -191.109375 487.277344 -187.75 492.667969 -185.3125 C 497.1875 -183.269531 502.316406 -182.542969 508.050781 -183.128906 Z M 508.050781 -183.128906 "/></g></g></g><g fill="#ffef42" fill-opacity="1"><g transform="translate(1605.786804, 892.039649)"><g/></g></g><g fill="#ffef42" fill-opacity="1"><g transform="translate(1839.49266, 877.914668)"><g/></g></g><g fill="#ffef42" fill-opacity="1"><g transform="translate(2073.446674, 868.897929)"><g/></g></g><g fill="#ffef42" fill-opacity="1"><g transform="translate(2307.548099, 865.002449)"><g/></g></g><g fill="#ffef42" fill-opacity="1"><g transform="translate(2537.501575, 862.066764)"><g><path d="M 509.246094 -820.359375 C 563.628906 -817.851562 612.800781 -801.929688 656.761719 -772.59375 C 698.910156 -744.464844 731.78125 -708.074219 755.382812 -663.429688 C 779.777344 -617.277344 790.75 -567.582031 788.296875 -514.34375 C 785.867188 -461.683594 770.527344 -413.796875 742.269531 -370.691406 C 715.351562 -329.632812 680.304688 -297.0625 637.128906 -272.980469 C 590.957031 -247.230469 540.390625 -235.625 485.421875 -238.15625 L 491.476562 -369.539062 L 622.882812 -364.050781 L 613.136719 -130.785156 C 610.65625 -76.976562 594.878906 -28.003906 565.804688 16.132812 C 537.878906 58.527344 501.71875 91.746094 457.332031 115.789062 C 410.859375 140.957031 360.765625 152.304688 307.050781 149.828125 C 253.710938 147.367188 205.152344 131.335938 161.371094 101.726562 C 119.640625 73.507812 87.039062 36.878906 63.578125 -8.15625 C 39.449219 -54.457031 28.609375 -104.089844 31.050781 -157.050781 L 41.800781 -390.265625 L 173.183594 -384.210938 L 167.125 -252.828125 C 113.121094 -255.316406 64.226562 -271.367188 20.445312 -300.972656 C -20.984375 -328.992188 -53.28125 -364.808594 -76.441406 -408.425781 C -100.613281 -453.949219 -111.484375 -503.042969 -109.058594 -555.703125 C -106.625 -608.460938 -91.539062 -656.566406 -63.800781 -700.023438 C -36.617188 -742.609375 -0.859375 -776.082031 43.46875 -800.441406 C 89.789062 -825.894531 139.949219 -837.378906 193.953125 -834.890625 Z M 497.136719 -557.589844 L 181.84375 -572.125 C 177.128906 -572.339844 173.230469 -571.605469 170.152344 -569.914062 C 165.082031 -567.125 161.003906 -563.316406 157.917969 -558.484375 C 155.386719 -554.515625 153.984375 -549.554688 153.707031 -543.589844 C 153.492188 -538.863281 154.214844 -534.929688 155.886719 -531.785156 C 158.566406 -526.734375 162.539062 -522.429688 167.800781 -518.871094 C 170.710938 -516.902344 174.523438 -515.8125 179.238281 -515.59375 L 310.621094 -509.539062 L 293.816406 -144.941406 C 293.550781 -139.179688 294.5625 -134.101562 296.855469 -129.703125 C 299.808594 -124.035156 303.765625 -119.523438 308.722656 -116.171875 C 311.632812 -114.203125 315.113281 -113.125 319.160156 -112.9375 C 324.167969 -112.707031 328.464844 -113.566406 332.058594 -115.511719 C 337.734375 -118.585938 342.429688 -122.941406 346.136719 -128.570312 C 348.699219 -132.457031 350.09375 -136.859375 350.320312 -141.769531 L 365.585938 -507.003906 L 497.53125 -500.921875 C 502.621094 -500.6875 506.445312 -501.285156 509.003906 -502.714844 C 514.558594 -505.808594 518.980469 -509.871094 522.273438 -514.898438 C 524.226562 -517.875 525.3125 -521.726562 525.53125 -526.453125 C 525.78125 -531.933594 524.882812 -536.617188 522.828125 -540.5 C 519.980469 -545.886719 515.953125 -550.320312 510.742188 -553.796875 C 507.34375 -556.066406 502.808594 -557.328125 497.136719 -557.589844 Z M 497.136719 -557.589844 "/></g></g></g><g fill="#ffef42" fill-opacity="1"><g transform="translate(3150.313009, 889.328227)"><g><path d="M 555.40625 -789.839844 C 609.554688 -784.21875 657.734375 -765.507812 699.941406 -733.699219 C 740.40625 -703.203125 771.144531 -664.992188 792.148438 -619.066406 C 813.859375 -571.59375 821.964844 -521.351562 816.464844 -468.339844 C 811.027344 -415.90625 792.964844 -368.980469 762.285156 -327.558594 C 733.0625 -288.109375 696.207031 -257.601562 651.71875 -236.035156 C 604.148438 -212.972656 553 -204.28125 498.265625 -209.960938 L 511.839844 -340.78125 L 642.714844 -327.769531 L 619.621094 -95.449219 C 614.0625 -41.871094 595.507812 6.121094 563.953125 48.519531 C 533.640625 89.246094 495.640625 120.335938 449.945312 141.796875 C 402.109375 164.261719 351.449219 172.71875 297.960938 167.171875 C 244.851562 161.660156 197.292969 142.871094 155.277344 110.804688 C 115.230469 80.238281 84.785156 41.804688 63.9375 -4.5 C 42.503906 -52.109375 34.523438 -102.28125 39.996094 -155.015625 L 64.085938 -387.230469 L 194.90625 -373.660156 L 181.335938 -242.839844 C 127.5625 -248.417969 79.667969 -267.242188 37.652344 -299.308594 C -2.105469 -329.652344 -32.292969 -367.261719 -52.917969 -412.132812 C -74.441406 -458.96875 -82.484375 -508.601562 -77.046875 -561.039062 C -71.59375 -613.570312 -53.777344 -660.734375 -23.597656 -702.527344 C 5.984375 -743.488281 43.601562 -774.855469 89.25 -796.636719 C 136.953125 -819.398438 187.691406 -827.988281 241.464844 -822.410156 Z M 528.261719 -528.199219 L 214.320312 -560.765625 C 209.625 -561.253906 205.691406 -560.742188 202.519531 -559.230469 C 197.296875 -556.738281 193.007812 -553.167969 189.652344 -548.519531 C 186.898438 -544.707031 185.210938 -539.828125 184.59375 -533.894531 C 184.105469 -529.1875 184.605469 -525.21875 186.09375 -521.980469 C 188.480469 -516.785156 192.199219 -512.261719 197.25 -508.40625 C 200.039062 -506.277344 203.785156 -504.96875 208.480469 -504.480469 L 339.300781 -490.90625 L 301.636719 -127.871094 C 301.042969 -122.136719 301.761719 -117.007812 303.796875 -112.484375 C 306.421875 -106.65625 310.113281 -101.925781 314.871094 -98.292969 C 317.664062 -96.164062 321.074219 -94.890625 325.105469 -94.46875 C 330.089844 -93.953125 334.429688 -94.5625 338.128906 -96.300781 C 343.972656 -99.046875 348.910156 -103.121094 352.933594 -108.53125 C 355.714844 -112.265625 357.359375 -116.578125 357.867188 -121.46875 L 394.027344 -485.230469 L 525.410156 -471.601562 C 530.476562 -471.074219 534.328125 -471.449219 536.96875 -472.730469 C 542.6875 -475.503906 547.335938 -479.304688 550.914062 -484.132812 C 553.03125 -486.996094 554.335938 -490.777344 554.824219 -495.484375 C 555.390625 -500.941406 554.761719 -505.667969 552.933594 -509.664062 C 550.398438 -515.203125 546.628906 -519.859375 541.628906 -523.628906 C 538.363281 -526.089844 533.910156 -527.613281 528.261719 -528.199219 Z M 528.261719 -528.199219 "/></g></g></g><g fill="#ffef42" fill-opacity="1"><g transform="translate(3770.800052, 952.16756)"><g><path d="M 439.042969 -696.464844 C 482.523438 -728.648438 529.96875 -747.207031 581.367188 -752.140625 C 631.601562 -756.964844 679.894531 -749 726.25 -728.253906 C 774.519531 -706.652344 813.808594 -673.167969 844.121094 -627.804688 L 734.761719 -554.734375 L 841.707031 -631.292969 C 872.5 -588.277344 889.875 -540.472656 893.832031 -487.871094 C 897.5625 -438.304688 889.671875 -390.835938 870.160156 -345.46875 C 850.101562 -298.828125 819.34375 -259.636719 777.894531 -227.894531 L 617.292969 -110.238281 L 539.582031 -216.351562 L 669.339844 -194.863281 L 646.421875 -56.46875 C 637.667969 -3.605469 616.425781 42.746094 582.699219 82.585938 C 550.132812 121.054688 510.203125 149.414062 462.910156 167.660156 C 414.207031 186.449219 363.566406 191.488281 310.984375 182.78125 C 259.0625 174.183594 213.078125 153.140625 173.035156 119.65625 C 134.148438 87.136719 105.492188 47.421875 87.0625 0.507812 C 67.980469 -48.078125 62.816406 -98.804688 71.570312 -151.664062 L 94.488281 -290.058594 L 224.242188 -268.570312 L 116.476562 -193.175781 L 3.964844 -353.996094 C -26.097656 -398.957031 -43.109375 -446.746094 -47.0625 -497.363281 C -50.90625 -546.597656 -43.074219 -594.074219 -23.566406 -639.796875 C -2.863281 -688.3125 28.996094 -727.964844 72.011719 -758.753906 L 148.566406 -651.808594 L 68.601562 -756.230469 C 111.800781 -789.3125 159.488281 -808.359375 211.660156 -813.367188 C 262.1875 -818.214844 310.402344 -810.195312 356.308594 -789.300781 C 403.582031 -767.785156 442.289062 -734.472656 472.433594 -689.355469 L 363.078125 -616.285156 L 470.5 -692.167969 L 535.5 -600.15625 L 428.074219 -524.273438 L 349.488281 -629.734375 L 438.703125 -696.210938 Z M 595.875 -485.285156 L 398.484375 -338.203125 L 254.667969 -541.796875 L 253.71875 -543.21875 C 251.308594 -546.828125 249.183594 -549.050781 247.34375 -549.886719 C 244.136719 -551.347656 240.621094 -551.890625 236.792969 -551.523438 C 234.613281 -551.316406 231.859375 -549.9375 228.53125 -547.390625 L 226.847656 -546.101562 L 225.125 -544.863281 C 222.046875 -542.664062 219.796875 -539.890625 218.371094 -536.550781 C 215.753906 -530.414062 214.691406 -524.179688 215.183594 -517.851562 C 215.570312 -512.90625 217.007812 -508.550781 219.5 -504.785156 L 362.761719 -300.007812 L 331.082031 -108.691406 C 330.230469 -103.558594 330.503906 -99.214844 331.902344 -95.660156 C 333.953125 -90.429688 337.246094 -85.921875 341.773438 -82.136719 C 345.144531 -79.316406 349.207031 -77.515625 353.960938 -76.726562 C 359.375 -75.832031 364.128906 -76.175781 368.226562 -77.753906 C 373.734375 -79.878906 378.304688 -83.085938 381.933594 -87.371094 C 384.402344 -90.289062 386.058594 -94.3125 386.910156 -99.445312 L 418.59375 -290.761719 L 617.964844 -436.738281 C 623.039062 -440.625 626.558594 -444.847656 628.519531 -449.402344 C 631.027344 -455.234375 632.03125 -461.476562 631.53125 -468.128906 C 631.257812 -471.753906 630.019531 -475.101562 627.816406 -478.179688 L 626.582031 -479.902344 L 625.40625 -481.664062 C 623.160156 -485.027344 620.957031 -487.191406 618.796875 -488.160156 C 614.722656 -489.980469 610.625 -490.695312 606.503906 -490.300781 C 603.550781 -490.015625 599.894531 -488.261719 595.53125 -485.03125 Z M 595.875 -485.285156 "/></g></g></g><g fill="#9ac0df" fill-opacity="1"><g transform="translate(274.81008, 1066.685098)"><g><path d="M 371.734375 -783.796875 C 402.703125 -788.941406 431.988281 -785.847656 459.59375 -774.515625 C 487.195312 -763.179688 510.707031 -745.921875 530.125 -722.734375 C 549.550781 -699.546875 561.722656 -673.128906 566.640625 -643.484375 C 571.785156 -612.515625 568.878906 -583.082031 557.921875 -555.1875 C 546.972656 -527.300781 530.207031 -503.867188 507.625 -484.890625 C 485.050781 -465.910156 458.28125 -453.847656 427.3125 -448.703125 C 402.925781 -444.660156 380.382812 -444.816406 359.6875 -449.171875 C 339 -453.523438 321.078125 -454.441406 305.921875 -451.921875 C 295.367188 -450.179688 286.929688 -444.890625 280.609375 -436.046875 C 274.285156 -427.210938 272 -417.523438 273.75 -406.984375 C 275.382812 -397.097656 280.566406 -389.328125 289.296875 -383.671875 C 298.023438 -378.015625 307.664062 -376.054688 318.21875 -377.796875 C 333.375 -380.316406 350.039062 -386.976562 368.21875 -397.78125 C 386.394531 -408.582031 407.675781 -416.003906 432.0625 -420.046875 C 463.03125 -425.191406 492.34375 -421.929688 520 -410.265625 C 547.664062 -398.597656 571.238281 -381.003906 590.71875 -357.484375 C 610.195312 -333.972656 622.507812 -306.734375 627.65625 -275.765625 C 632.570312 -246.117188 629.550781 -217.347656 618.59375 -189.453125 C 607.644531 -161.566406 590.9375 -137.804688 568.46875 -118.171875 C 546 -98.535156 519.28125 -86.144531 488.3125 -81 L 344.96875 -57.21875 C 297.519531 -49.351562 251.476562 -51.367188 206.84375 -63.265625 C 162.21875 -75.160156 121.191406 -94.929688 83.765625 -122.578125 C 46.335938 -150.222656 15.234375 -183.65625 -9.546875 -222.875 C -34.335938 -262.09375 -50.613281 -305.097656 -58.375 -351.890625 C -66.46875 -400.660156 -64.953125 -447.632812 -53.828125 -492.8125 C -42.703125 -537.988281 -23.644531 -579.234375 3.34375 -616.546875 C 30.332031 -653.867188 63.410156 -685.085938 102.578125 -710.203125 C 141.753906 -735.328125 185.34375 -752.207031 233.34375 -760.84375 Z M 371.734375 -783.796875 "/></g></g></g><g fill="#9ac0df" fill-opacity="1"><g transform="translate(924.989258, 957.397668)"><g><path d="M 521.421875 -52.28125 C 492.191406 -49.289062 464.546875 -53.679688 438.484375 -65.453125 C 412.429688 -77.222656 391.039062 -94.335938 374.3125 -116.796875 C 357.59375 -139.265625 347.738281 -165.117188 344.75 -194.359375 L 341.28125 -228.25 C 340.664062 -234.238281 337.976562 -239.171875 333.21875 -243.046875 C 328.457031 -246.921875 323.085938 -248.554688 317.109375 -247.953125 C 311.128906 -247.335938 306.195312 -244.648438 302.3125 -239.890625 C 298.425781 -235.128906 296.789062 -229.753906 297.40625 -223.765625 L 300.875 -189.875 C 303.925781 -159.96875 299.695312 -132.335938 288.1875 -106.984375 C 276.6875 -81.640625 259.6875 -60.769531 237.1875 -44.375 C 214.695312 -27.976562 188.5 -18.253906 158.59375 -15.203125 C 130.019531 -12.273438 102.890625 -16.546875 77.203125 -28.015625 C 51.523438 -39.492188 30.316406 -56.460938 13.578125 -78.921875 C -3.148438 -101.390625 -13.039062 -127.578125 -16.09375 -157.484375 L -56.234375 -550.21875 C -59.285156 -580.125 -54.875 -607.601562 -43 -632.65625 C -31.125 -657.707031 -13.773438 -678.445312 9.046875 -694.875 C 31.878906 -711.3125 57.582031 -720.992188 86.15625 -723.921875 C 116.0625 -726.972656 143.6875 -722.742188 169.03125 -711.234375 C 194.382812 -699.722656 215.242188 -682.882812 231.609375 -660.71875 C 247.972656 -638.550781 257.679688 -612.515625 260.734375 -582.609375 L 264.40625 -546.734375 C 264.945312 -541.421875 267.597656 -536.820312 272.359375 -532.9375 C 277.128906 -529.0625 282.503906 -527.429688 288.484375 -528.046875 C 294.460938 -528.648438 299.390625 -531.332031 303.265625 -536.09375 C 307.148438 -540.863281 308.820312 -545.90625 308.28125 -551.21875 L 304.609375 -587.09375 C 301.617188 -616.34375 306.054688 -643.488281 317.921875 -668.53125 C 329.796875 -693.582031 347.300781 -714.507812 370.4375 -731.3125 C 393.570312 -748.113281 419.753906 -758.007812 448.984375 -761 C 478.222656 -763.988281 505.53125 -759.5625 530.90625 -747.71875 C 556.289062 -735.875 577.332031 -718.890625 594.03125 -696.765625 C 610.738281 -674.640625 620.585938 -648.953125 623.578125 -619.703125 L 663.71875 -226.96875 C 666.707031 -197.726562 662.273438 -170.414062 650.421875 -145.03125 C 638.578125 -119.644531 621.425781 -98.585938 598.96875 -81.859375 C 576.507812 -65.128906 550.660156 -55.269531 521.421875 -52.28125 Z M 521.421875 -52.28125 "/></g></g></g><g fill="#9ac0df" fill-opacity="1"><g transform="translate(1605.786804, 892.039649)"><g/></g></g><g fill="#9ac0df" fill-opacity="1"><g transform="translate(1839.49266, 877.914668)"><g/></g></g><g fill="#9ac0df" fill-opacity="1"><g transform="translate(2073.446674, 868.897929)"><g/></g></g><g fill="#9ac0df" fill-opacity="1"><g transform="translate(2307.548099, 865.002449)"><g/></g></g><g fill="#9ac0df" fill-opacity="1"><g transform="translate(2537.501575, 862.066764)"><g><path d="M 503.1875 -688.953125 C 533.207031 -687.578125 560.054688 -678.988281 583.734375 -663.1875 C 607.421875 -647.382812 625.875 -626.972656 639.09375 -601.953125 C 652.320312 -576.929688 658.257812 -549.742188 656.90625 -520.390625 C 655.582031 -491.691406 647.367188 -465.820312 632.265625 -442.78125 C 617.160156 -419.738281 597.425781 -401.425781 573.0625 -387.84375 C 548.695312 -374.257812 521.5 -368.160156 491.46875 -369.546875 L 481.71875 -136.28125 C 480.375 -106.914062 471.789062 -80.226562 455.96875 -56.21875 C 440.15625 -32.207031 419.726562 -13.421875 394.6875 0.140625 C 369.65625 13.703125 342.460938 19.804688 313.109375 18.453125 C 284.410156 17.128906 258.382812 8.578125 235.03125 -7.203125 C 211.6875 -22.992188 193.410156 -43.5625 180.203125 -68.90625 C 167.003906 -94.257812 161.078125 -121.617188 162.421875 -150.984375 L 173.171875 -384.203125 C 143.804688 -385.554688 117.453125 -394.125 94.109375 -409.90625 C 70.765625 -425.695312 52.632812 -445.757812 39.71875 -470.09375 C 26.800781 -494.425781 21.003906 -520.941406 22.328125 -549.640625 C 23.679688 -578.992188 31.921875 -605.523438 47.046875 -629.234375 C 62.179688 -652.953125 82.097656 -671.59375 106.796875 -685.15625 C 131.492188 -698.726562 158.523438 -704.835938 187.890625 -703.484375 Z M 503.1875 -688.953125 "/></g></g></g><g fill="#9ac0df" fill-opacity="1"><g transform="translate(3150.313009, 889.328227)"><g><path d="M 541.828125 -659.015625 C 571.722656 -655.910156 598.039062 -645.789062 620.78125 -628.65625 C 643.519531 -611.53125 660.769531 -590.097656 672.53125 -564.359375 C 684.300781 -538.628906 688.671875 -511.148438 685.640625 -481.921875 C 682.671875 -453.347656 672.984375 -427.988281 656.578125 -405.84375 C 640.179688 -383.707031 619.429688 -366.554688 594.328125 -354.390625 C 569.234375 -342.222656 541.734375 -337.6875 511.828125 -340.78125 L 488.734375 -108.46875 C 485.703125 -79.226562 475.601562 -53.070312 458.4375 -30 C 441.28125 -6.9375 419.8125 10.644531 394.03125 22.75 C 368.257812 34.851562 340.757812 39.390625 311.53125 36.359375 C 282.957031 33.390625 257.46875 23.351562 235.0625 6.25 C 212.664062 -10.84375 195.597656 -32.421875 183.859375 -58.484375 C 172.128906 -84.546875 167.78125 -112.195312 170.8125 -141.4375 L 194.90625 -373.65625 C 165.664062 -376.695312 139.84375 -386.765625 117.4375 -403.859375 C 95.039062 -420.953125 78.085938 -442.015625 66.578125 -467.046875 C 55.078125 -492.085938 50.8125 -518.894531 53.78125 -547.46875 C 56.8125 -576.695312 66.5625 -602.710938 83.03125 -625.515625 C 99.5 -648.328125 120.445312 -665.800781 145.875 -677.9375 C 171.3125 -690.070312 198.648438 -694.617188 227.890625 -691.578125 Z M 541.828125 -659.015625 "/></g></g></g><g fill="#9ac0df" fill-opacity="1"><g transform="translate(3770.800052, 952.16756)"><g><path d="M 517.28125 -590.75 C 541.195312 -608.445312 566.742188 -618.597656 593.921875 -621.203125 C 621.097656 -623.816406 647.296875 -619.476562 672.515625 -608.1875 C 697.734375 -596.90625 718.476562 -579.085938 734.75 -554.734375 C 751.238281 -531.691406 760.539062 -506.109375 762.65625 -477.984375 C 764.78125 -449.867188 760.335938 -423.015625 749.328125 -397.421875 C 738.316406 -371.828125 721.175781 -350.125 697.90625 -332.3125 L 539.5625 -216.359375 L 516.65625 -77.953125 C 511.851562 -48.960938 500.40625 -23.773438 482.3125 -2.390625 C 464.21875 18.984375 441.96875 34.765625 415.5625 44.953125 C 389.15625 55.140625 361.457031 57.832031 332.46875 53.03125 C 304.125 48.34375 279.097656 36.921875 257.390625 18.765625 C 235.691406 0.609375 219.71875 -21.503906 209.46875 -47.578125 C 199.226562 -73.648438 196.507812 -101.179688 201.3125 -130.171875 L 224.21875 -268.578125 L 111.734375 -429.390625 C 95.453125 -453.742188 86.226562 -479.8125 84.0625 -507.59375 C 81.894531 -535.375 86.335938 -562.226562 97.390625 -588.15625 C 108.453125 -614.09375 125.515625 -635.3125 148.578125 -651.8125 C 171.835938 -669.625 197.054688 -679.832031 224.234375 -682.4375 C 251.410156 -685.039062 277.273438 -680.753906 301.828125 -669.578125 C 326.378906 -658.410156 346.796875 -640.644531 363.078125 -616.28125 L 428.0625 -524.265625 Z M 517.28125 -590.75 "/></g></g></g></g></g><g transform="matrix(1, 0, 0, 1, 1628, 195)"><g clip-path="url(#d2b8c4d3d7)"><g fill="#ffef42" fill-opacity="1"><g transform="translate(231.293833, 858.326146)"><g><path d="M -7.347656 109.039062 C -43.972656 71.734375 -68.785156 28.328125 -81.78125 -21.179688 C -94.707031 -70.429688 -94.707031 -119.648438 -81.773438 -168.832031 C -68.691406 -218.59375 -43.894531 -261.792969 -7.390625 -298.425781 L 305.355469 -613.496094 C 347.480469 -656.257812 396.730469 -683.105469 453.113281 -694.042969 C 505.777344 -704.257812 557.238281 -700.757812 607.5 -683.539062 C 658.335938 -666.125 701.304688 -636.84375 736.402344 -595.699219 C 773.570312 -552.128906 795.359375 -499.886719 801.769531 -438.972656 L 847.34375 4.984375 C 853.6875 56.414062 845.625 106.15625 823.15625 154.214844 C 802.035156 199.382812 771.566406 236.839844 731.738281 266.585938 C 690.132812 297.664062 642.558594 315.949219 589.023438 321.441406 C 536.464844 326.25 486.828125 318.097656 440.105469 296.988281 C 393.125 275.757812 354.714844 244.457031 324.878906 203.082031 C 295.289062 162.046875 277.585938 115.710938 271.773438 64.078125 L 250.3125 -144.917969 L 250.46875 -152.9375 C 250.136719 -135.828125 253.136719 -119.28125 259.476562 -103.296875 C 267.078125 -84.132812 278.613281 -67.738281 294.085938 -54.121094 C 314.695312 -35.984375 338.421875 -25.617188 365.273438 -23.023438 C 381.546875 -21.453125 397.578125 -23.003906 413.371094 -27.671875 C 433.328125 -33.574219 450.8125 -43.742188 465.816406 -58.175781 C 478.265625 -70.148438 487.859375 -84.023438 494.601562 -99.804688 C 498.835938 -109.722656 501.714844 -119.929688 503.234375 -130.421875 L 373.070312 -149.28125 L 503.875 -135.535156 L 487.03125 24.730469 L 404.96875 108.742188 C 366.367188 146.667969 322.3125 172.128906 272.804688 185.125 C 223.554688 198.054688 174.335938 198.050781 125.152344 185.121094 C 76.277344 172.269531 33.0625 147.847656 -4.492188 111.859375 L -5.941406 110.472656 Z M 180.355469 -75.242188 L 86.503906 16.898438 L 177.503906 -78.058594 C 182.257812 -73.503906 187.105469 -70.578125 192.042969 -69.277344 C 196.667969 -68.0625 201.328125 -68.070312 206.015625 -69.300781 C 210.449219 -70.464844 214.042969 -72.382812 216.796875 -75.0625 L 266.921875 -126.375 L 361.007812 -34.472656 L 230.203125 -48.21875 L 242.539062 -165.585938 L 242.90625 -168.136719 C 247.464844 -199.59375 260.988281 -226.136719 283.480469 -247.769531 C 299.292969 -262.976562 317.722656 -273.695312 338.773438 -279.917969 C 355.652344 -284.910156 372.914062 -286.554688 390.558594 -284.851562 C 420.152344 -281.996094 445.925781 -270.902344 467.882812 -251.574219 C 484.027344 -237.363281 496.066406 -220.261719 503.996094 -200.273438 C 510.660156 -183.460938 513.816406 -165.972656 513.464844 -147.808594 L 381.964844 -150.375 L 512.800781 -163.804688 L 533.167969 34.65625 C 533.839844 40.617188 535.527344 45.472656 538.234375 49.226562 C 540.695312 52.636719 544.089844 55.320312 548.421875 57.277344 C 553.011719 59.351562 557.597656 60.179688 562.1875 59.765625 C 567.507812 59.222656 571.550781 57.914062 574.324219 55.84375 C 578.878906 52.4375 582.394531 48.09375 584.867188 42.804688 C 585.988281 40.40625 586.257812 36.75 585.671875 31.84375 L 540.167969 -411.441406 C 539.449219 -418.273438 538.152344 -422.789062 536.28125 -424.984375 C 532.34375 -429.601562 527.667969 -432.835938 522.257812 -434.6875 C 516.269531 -436.738281 509.917969 -437.113281 503.199219 -435.808594 C 500.199219 -435.226562 496.480469 -432.6875 492.042969 -428.183594 L 178.941406 -112.753906 C 175.792969 -109.597656 173.6875 -105.992188 172.625 -101.941406 C 171.40625 -97.316406 171.414062 -92.65625 172.644531 -87.96875 C 173.808594 -83.535156 176.378906 -79.292969 180.355469 -75.242188 Z M 180.355469 -75.242188 "/></g></g></g><g fill="#9ac0df" fill-opacity="1"><g transform="translate(231.293833, 858.326146)"><g><path d="M 86.5 16.890625 C 66.195312 -3.785156 52.503906 -27.609375 45.421875 -54.578125 C 38.347656 -81.546875 38.347656 -108.476562 45.421875 -135.375 C 52.492188 -162.28125 65.945312 -185.679688 85.78125 -205.578125 L 398.703125 -520.828125 C 421.972656 -544.460938 448.453125 -559.160156 478.140625 -564.921875 C 507.828125 -570.679688 536.726562 -568.742188 564.84375 -559.109375 C 592.96875 -549.472656 616.789062 -533.210938 636.3125 -510.328125 C 655.832031 -487.453125 667.375 -459.078125 670.9375 -425.203125 L 716.484375 18.40625 C 719.960938 46.582031 715.800781 73.28125 704 98.5 C 692.207031 123.726562 675.210938 144.628906 653.015625 161.203125 C 630.828125 177.773438 605.019531 187.570312 575.59375 190.59375 C 547.03125 193.207031 519.914062 188.71875 494.25 177.125 C 468.59375 165.53125 447.691406 148.535156 431.546875 126.140625 C 415.398438 103.753906 405.703125 78.160156 402.453125 49.359375 L 381.953125 -150.375 C 381.992188 -152.488281 380.640625 -153.675781 377.890625 -153.9375 C 375.148438 -154.195312 373.539062 -152.644531 373.0625 -149.28125 L 361 -34.46875 L 310.875 16.828125 C 290.1875 37.128906 266.359375 50.820312 239.390625 57.90625 C 212.429688 64.988281 185.5 64.988281 158.59375 57.90625 C 131.6875 50.832031 107.65625 37.160156 86.5 16.890625 Z M 86.5 16.890625 "/></g></g></g></g></g></svg>