<svg xmlns="http://www.w3.org/2000/svg" xmlns:xlink="http://www.w3.org/1999/xlink" width="6912" zoomAndPan="magnify" viewBox="0 0 5184 2592.000001" height="3456" preserveAspectRatio="xMidYMid meet" version="1.0"><defs><g/><clipPath id="c5c9e4a1ad"><rect x="0" width="4725" y="0" height="1338"/></clipPath><clipPath id="7e19d72b5d"><rect x="0" width="1055" y="0" height="1156"/></clipPath></defs><g transform="matrix(1, 0, 0, 1, 229, 886)"><g clip-path="url(#c5c9e4a1ad)"><g fill="#ffef42" fill-opacity="1"><g transform="translate(275.132998, 1065.74368)"><g><path d="M 349.976562 -912.984375 C 405.496094 -922.195312 458.574219 -916.410156 509.210938 -895.628906 C 556.816406 -876.089844 597.269531 -846.441406 630.570312 -806.6875 C 665.332031 -765.183594 687.128906 -717.816406 695.957031 -664.589844 C 705.050781 -609.78125 699.707031 -557.1875 679.929688 -506.8125 C 660.851562 -458.21875 631.503906 -417.273438 591.894531 -383.976562 C 550.957031 -349.566406 503.175781 -327.832031 448.550781 -318.769531 C 407.929688 -312.03125 369.214844 -312.53125 332.40625 -320.273438 C 328.769531 -321.039062 325.894531 -321.476562 323.777344 -321.585938 C 324.292969 -321.558594 325.441406 -321.691406 327.226562 -321.988281 C 339.304688 -323.992188 350.683594 -328.34375 361.363281 -335.046875 C 371.78125 -341.585938 380.4375 -349.675781 387.332031 -359.308594 C 394.226562 -368.945312 399.085938 -379.75 401.910156 -391.722656 C 404.804688 -403.996094 405.25 -416.171875 403.246094 -428.25 C 400.980469 -441.898438 395.917969 -454.625 388.054688 -466.417969 C 380.609375 -477.585938 371.476562 -486.675781 360.664062 -493.695312 C 351.070312 -499.917969 340.527344 -504.199219 329.039062 -506.53125 C 318.015625 -508.769531 307.167969 -509.003906 296.496094 -507.234375 C 294.710938 -506.9375 293.582031 -506.695312 293.101562 -506.503906 C 295.070312 -507.289062 297.648438 -508.632812 300.84375 -510.53125 C 333.179688 -529.742188 369.660156 -542.71875 410.28125 -549.457031 C 466.246094 -558.738281 519.734375 -552.628906 570.746094 -531.128906 C 618.160156 -511.140625 658.441406 -481.136719 691.589844 -441.113281 C 726.136719 -399.394531 747.914062 -351.394531 756.917969 -297.105469 C 765.792969 -243.617188 760.339844 -191.683594 740.5625 -141.308594 C 721.8125 -93.546875 693.160156 -52.820312 654.613281 -19.128906 C 613.402344 16.886719 565.035156 39.503906 509.511719 48.714844 L 366.273438 72.476562 C 300.210938 83.433594 235.75 80.535156 172.882812 63.785156 C 112.179688 47.605469 56.425781 20.753906 5.625 -16.777344 C -45.003906 -54.175781 -87.097656 -99.421875 -120.652344 -152.519531 C -154.898438 -206.703125 -177.347656 -265.917969 -188.007812 -330.164062 C -199.042969 -396.6875 -196.84375 -461.273438 -181.414062 -523.933594 C -166.214844 -585.65625 -140.128906 -642.082031 -103.160156 -693.203125 C -66.460938 -743.945312 -21.550781 -786.351562 31.566406 -820.414062 C 85.359375 -854.910156 144.804688 -878.019531 209.902344 -889.738281 Z M 392.996094 -653.652344 L 256.46875 -631.015625 C 225.632812 -625.464844 197.96875 -614.835938 173.472656 -599.128906 C 148.304688 -582.988281 127.09375 -562.996094 109.851562 -539.152344 C 92.882812 -515.683594 80.875 -489.660156 73.839844 -461.078125 C 67.03125 -433.433594 66.195312 -404.136719 71.328125 -373.1875 C 76.183594 -343.917969 86.261719 -317.175781 101.566406 -292.960938 C 117.554688 -267.660156 137.640625 -246.082031 161.816406 -228.21875 C 185.820312 -210.488281 212.074219 -197.824219 240.578125 -190.230469 C 266.917969 -183.210938 294.476562 -182.085938 323.25 -186.859375 L 466.488281 -210.621094 C 472.871094 -211.679688 477.914062 -213.828125 481.621094 -217.066406 C 487.988281 -222.632812 492.738281 -229.402344 495.867188 -237.375 C 497.972656 -242.734375 498.542969 -248.304688 497.585938 -254.085938 C 496.320312 -261.703125 493.5 -268.15625 489.125 -273.441406 C 483.347656 -280.417969 476.515625 -285.570312 468.636719 -288.890625 C 464.351562 -290.695312 459.242188 -291.105469 453.300781 -290.121094 C 445.1875 -288.773438 439.128906 -286.910156 435.121094 -284.53125 C 402.785156 -265.320312 370.917969 -253.109375 339.515625 -247.898438 C 318.304688 -244.378906 297.375 -244.71875 276.722656 -248.910156 C 255.605469 -253.199219 235.890625 -261.285156 217.574219 -273.171875 C 198.039062 -285.847656 181.957031 -301.652344 169.332031 -320.585938 C 156.289062 -340.152344 147.816406 -361.699219 143.914062 -385.226562 C 140.160156 -407.84375 140.875 -430.128906 146.054688 -452.085938 C 151.164062 -473.742188 160.324219 -493.800781 173.535156 -512.265625 C 186.746094 -530.730469 202.773438 -545.878906 221.621094 -557.707031 C 240.726562 -569.699219 261.589844 -577.570312 284.203125 -581.324219 C 315.605469 -586.53125 349.710938 -585.265625 386.515625 -577.523438 C 391.078125 -576.5625 397.414062 -576.757812 405.527344 -578.101562 C 412.808594 -579.3125 418.546875 -581.679688 422.746094 -585.207031 C 428.269531 -589.851562 432.429688 -595.742188 435.234375 -602.882812 C 437.339844 -608.242188 437.800781 -614.46875 436.625 -621.566406 C 435.621094 -627.613281 433.09375 -633.054688 429.042969 -637.890625 C 423.523438 -644.476562 416.976562 -649.328125 409.398438 -652.4375 C 404.84375 -654.304688 399.378906 -654.710938 392.996094 -653.652344 Z M 392.996094 -653.652344 "/></g></g></g><g fill="#ffef42" fill-opacity="1"><g transform="translate(924.900411, 956.525487)"><g><path d="M 534.460938 78.503906 C 481.75 83.890625 431.625 75.839844 384.078125 54.347656 C 337.402344 33.246094 298.933594 2.390625 268.679688 -38.230469 C 237.515625 -80.066406 219.210938 -127.617188 213.765625 -180.886719 L 210.304688 -214.757812 C 211.792969 -200.207031 216.082031 -186.425781 223.175781 -173.40625 C 230.078125 -160.738281 239.019531 -149.933594 250 -140.992188 C 260.980469 -132.046875 273.371094 -125.476562 287.171875 -121.277344 C 301.355469 -116.964844 315.722656 -115.550781 330.273438 -117.039062 C 344.820312 -118.527344 358.605469 -122.816406 371.621094 -129.910156 C 384.289062 -136.8125 395.09375 -145.753906 404.039062 -156.734375 C 412.980469 -167.714844 419.554688 -180.105469 423.75 -193.90625 C 428.0625 -208.089844 429.476562 -222.457031 427.988281 -237.007812 L 431.449219 -203.136719 C 436.914062 -149.6875 428.996094 -99.507812 407.699219 -52.605469 C 386.664062 -6.273438 355.589844 31.878906 314.472656 61.851562 C 272.847656 92.195312 225.308594 110.101562 171.855469 115.566406 C 120.011719 120.863281 70.570312 113.003906 23.535156 91.984375 C -23 71.191406 -61.453125 40.40625 -91.832031 -0.375 C -122.996094 -42.210938 -141.332031 -90.09375 -146.84375 -144.027344 L -186.960938 -536.519531 C -192.503906 -590.742188 -184.101562 -641.425781 -161.75 -688.570312 C -140.214844 -733.996094 -108.882812 -771.515625 -67.75 -801.125 C -25.9375 -831.226562 20.890625 -848.925781 72.734375 -854.222656 C 126.183594 -859.6875 176.363281 -851.769531 223.265625 -830.472656 C 269.335938 -809.554688 307.3125 -778.863281 337.195312 -738.390625 C 367.796875 -696.953125 385.839844 -649.363281 391.335938 -595.625 L 395 -559.765625 C 393.367188 -575.753906 388.527344 -590.714844 380.488281 -604.652344 C 373.753906 -616.324219 365.328125 -626.28125 355.203125 -634.527344 C 344.222656 -643.472656 331.832031 -650.042969 318.03125 -654.238281 C 303.847656 -658.550781 289.480469 -659.964844 274.929688 -658.476562 C 260.382812 -656.992188 246.597656 -652.699219 233.582031 -645.605469 C 220.914062 -638.703125 210.109375 -629.761719 201.164062 -618.78125 C 192.917969 -608.660156 186.679688 -597.203125 182.445312 -584.410156 C 177.390625 -569.132812 175.679688 -553.503906 177.316406 -537.515625 L 173.648438 -573.375 C 168.175781 -626.9375 176.613281 -677.289062 198.960938 -724.429688 C 220.414062 -769.679688 251.742188 -807.269531 292.953125 -837.207031 C 335.167969 -867.871094 382.628906 -885.898438 435.335938 -891.285156 C 488.609375 -896.730469 538.878906 -888.425781 586.15625 -866.371094 C 631.289062 -845.316406 668.765625 -815.023438 698.589844 -775.5 C 730.015625 -733.851562 748.464844 -686.25 753.9375 -632.6875 L 794.054688 -240.199219 C 799.5 -186.929688 791.195312 -136.65625 769.140625 -89.382812 C 747.960938 -43.988281 717.289062 -6.332031 677.121094 23.589844 C 635.285156 54.753906 587.730469 73.058594 534.460938 78.503906 Z M 507.730469 -183.011719 C 512.902344 -183.542969 517.019531 -184.945312 520.082031 -187.226562 C 524.808594 -190.75 528.417969 -195.179688 530.910156 -200.523438 C 532.523438 -203.984375 533.066406 -208.296875 532.539062 -213.46875 L 492.421875 -605.957031 C 491.921875 -610.839844 490.699219 -614.574219 488.746094 -617.160156 C 485.195312 -621.867188 480.617188 -625.527344 475.015625 -628.140625 C 471.554688 -629.757812 467.238281 -630.300781 462.066406 -629.769531 C 456.335938 -629.183594 451.464844 -627.433594 447.453125 -624.523438 C 442.4375 -620.878906 438.785156 -616.644531 436.5 -611.820312 C 435.109375 -608.890625 434.667969 -604.988281 435.164062 -600.105469 L 438.832031 -564.246094 C 441.007812 -542.941406 438.734375 -522.136719 432.015625 -501.828125 C 426.117188 -484 417.105469 -467.644531 404.984375 -452.765625 C 392.164062 -437.023438 376.957031 -424.363281 359.367188 -414.777344 C 341.421875 -404.996094 322.1875 -399.058594 301.660156 -396.960938 C 281.132812 -394.863281 261.09375 -396.789062 241.542969 -402.734375 C 222.375 -408.5625 204.921875 -417.886719 189.183594 -430.707031 C 174.300781 -442.828125 162.167969 -457.019531 152.785156 -473.285156 C 142.09375 -491.816406 135.660156 -511.734375 133.484375 -533.035156 L 129.816406 -568.894531 C 129.203125 -574.929688 127.835938 -579.375 125.722656 -582.238281 C 122.894531 -586.066406 119.183594 -589.027344 114.585938 -591.113281 C 110.820312 -592.824219 105.78125 -593.355469 99.464844 -592.707031 C 94.195312 -592.167969 89.652344 -590.527344 85.835938 -587.777344 C 81.335938 -584.539062 77.988281 -580.601562 75.785156 -575.957031 C 74.398438 -573.03125 73.988281 -568.792969 74.554688 -563.246094 L 114.671875 -170.757812 C 115.265625 -164.921875 116.707031 -160.476562 118.984375 -157.414062 C 122.054688 -153.296875 125.984375 -150.164062 130.78125 -148.019531 C 135.074219 -146.101562 139.859375 -145.414062 145.128906 -145.949219 C 151.445312 -146.597656 156.273438 -148.136719 159.613281 -150.570312 C 163.460938 -153.378906 166.371094 -156.949219 168.339844 -161.285156 C 170.050781 -165.050781 170.582031 -170.089844 169.933594 -176.40625 L 166.472656 -210.277344 C 164.375 -230.804688 166.296875 -250.84375 172.246094 -270.394531 C 178.074219 -289.5625 187.398438 -307.015625 200.21875 -322.753906 C 213.039062 -338.492188 228.242188 -351.15625 245.835938 -360.742188 C 263.78125 -370.519531 283.015625 -376.457031 303.542969 -378.554688 C 324.070312 -380.652344 344.105469 -378.730469 363.65625 -372.785156 C 382.828125 -366.957031 400.28125 -357.628906 416.019531 -344.8125 C 431.757812 -331.992188 444.417969 -316.785156 454.007812 -299.191406 C 463.785156 -281.25 469.722656 -262.015625 471.820312 -241.488281 L 475.28125 -207.617188 C 475.8125 -202.445312 477.214844 -198.328125 479.496094 -195.269531 C 482.683594 -190.988281 486.96875 -187.632812 492.355469 -185.195312 C 496.875 -183.15625 502 -182.425781 507.730469 -183.011719 Z M 507.730469 -183.011719 "/></g></g></g><g fill="#ffef42" fill-opacity="1"><g transform="translate(1605.266806, 891.208716)"><g/></g></g><g fill="#ffef42" fill-opacity="1"><g transform="translate(1838.824816, 877.092625)"><g/></g></g><g fill="#ffef42" fill-opacity="1"><g transform="translate(2072.630505, 868.081722)"><g/></g></g><g fill="#ffef42" fill-opacity="1"><g transform="translate(2306.583897, 864.188761)"><g/></g></g><g fill="#ffef42" fill-opacity="1"><g transform="translate(2536.391499, 861.25487)"><g><path d="M 508.925781 -819.839844 C 563.273438 -817.332031 612.414062 -801.421875 656.34375 -772.101562 C 698.464844 -743.992188 731.320312 -707.628906 754.90625 -663.007812 C 779.285156 -616.886719 790.25 -567.222656 787.796875 -514.015625 C 785.371094 -461.390625 770.039062 -413.535156 741.796875 -370.453125 C 714.898438 -329.421875 679.875 -296.875 636.722656 -272.808594 C 590.582031 -247.074219 540.046875 -235.476562 485.113281 -238.007812 L 491.164062 -369.304688 L 622.492188 -363.816406 L 612.746094 -130.703125 C 610.269531 -76.929688 594.503906 -27.988281 565.445312 16.121094 C 537.535156 58.492188 501.402344 91.6875 457.042969 115.714844 C 410.597656 140.867188 360.539062 152.207031 306.855469 149.730469 C 253.550781 147.273438 205.023438 131.253906 161.269531 101.664062 C 119.5625 73.460938 86.984375 36.855469 63.535156 -8.148438 C 39.425781 -54.421875 28.589844 -104.023438 31.03125 -156.953125 L 41.773438 -390.019531 L 173.074219 -383.96875 L 167.019531 -252.667969 C 113.050781 -255.15625 64.1875 -271.195312 20.433594 -300.78125 C -20.972656 -328.78125 -53.246094 -364.578125 -76.390625 -408.167969 C -100.546875 -453.664062 -111.414062 -502.722656 -108.988281 -555.351562 C -106.558594 -608.078125 -91.484375 -656.152344 -63.761719 -699.578125 C -36.59375 -742.140625 -0.859375 -775.589844 43.441406 -799.933594 C 89.730469 -825.375 139.859375 -836.847656 193.832031 -834.363281 Z M 496.820312 -557.238281 L 181.726562 -571.761719 C 177.015625 -571.980469 173.121094 -571.242188 170.042969 -569.550781 C 164.976562 -566.765625 160.902344 -562.960938 157.820312 -558.128906 C 155.289062 -554.167969 153.886719 -549.207031 153.609375 -543.246094 C 153.394531 -538.523438 154.117188 -534.589844 155.785156 -531.449219 C 158.46875 -526.398438 162.4375 -522.097656 167.695312 -518.542969 C 170.601562 -516.578125 174.410156 -515.484375 179.125 -515.269531 L 310.425781 -509.214844 L 293.628906 -144.847656 C 293.363281 -139.089844 294.378906 -134.015625 296.667969 -129.621094 C 299.617188 -123.957031 303.570312 -119.449219 308.527344 -116.097656 C 311.4375 -114.128906 314.914062 -113.054688 318.960938 -112.867188 C 323.960938 -112.636719 328.257812 -113.496094 331.847656 -115.441406 C 337.523438 -118.511719 342.210938 -122.863281 345.917969 -128.488281 C 348.476562 -132.375 349.871094 -136.773438 350.097656 -141.679688 L 365.351562 -506.683594 L 497.21875 -500.605469 C 502.300781 -500.371094 506.125 -500.96875 508.683594 -502.394531 C 514.230469 -505.488281 518.652344 -509.546875 521.945312 -514.570312 C 523.894531 -517.546875 524.980469 -521.398438 525.195312 -526.121094 C 525.449219 -531.597656 524.550781 -536.277344 522.5 -540.15625 C 519.652344 -545.542969 515.625 -549.972656 510.417969 -553.445312 C 507.023438 -555.714844 502.488281 -556.976562 496.820312 -557.238281 Z M 496.820312 -557.238281 "/></g></g></g><g fill="#ffef42" fill-opacity="1"><g transform="translate(3148.815145, 888.499118)"><g><path d="M 555.054688 -789.339844 C 609.167969 -783.722656 657.316406 -765.023438 699.496094 -733.234375 C 739.9375 -702.757812 770.65625 -664.570312 791.644531 -618.675781 C 813.34375 -571.230469 821.445312 -521.019531 815.949219 -468.042969 C 810.511719 -415.640625 792.460938 -368.746094 761.800781 -327.351562 C 732.597656 -287.929688 695.765625 -257.4375 651.304688 -235.882812 C 603.765625 -212.835938 552.648438 -204.152344 497.953125 -209.824219 L 511.515625 -340.5625 L 642.308594 -327.5625 L 619.230469 -95.386719 C 613.675781 -41.84375 595.128906 6.117188 563.59375 48.488281 C 533.304688 89.1875 495.324219 120.261719 449.664062 141.707031 C 401.855469 164.15625 351.226562 172.609375 297.773438 167.0625 C 244.699219 161.558594 197.167969 142.78125 155.179688 110.734375 C 115.160156 80.1875 84.730469 41.777344 63.898438 -4.496094 C 42.480469 -52.074219 34.503906 -102.214844 39.96875 -154.917969 L 64.046875 -386.988281 L 194.785156 -373.421875 L 181.21875 -242.683594 C 127.480469 -248.261719 79.617188 -267.070312 37.628906 -299.117188 C -2.101562 -329.445312 -32.273438 -367.027344 -52.882812 -411.871094 C -74.394531 -458.679688 -82.433594 -508.28125 -76.996094 -560.683594 C -71.550781 -613.183594 -53.746094 -660.316406 -23.582031 -702.082031 C 5.980469 -743.015625 43.574219 -774.367188 89.191406 -796.132812 C 136.863281 -818.878906 187.570312 -827.460938 241.308594 -821.886719 Z M 527.925781 -527.863281 L 214.183594 -560.414062 C 209.492188 -560.898438 205.558594 -560.386719 202.390625 -558.875 C 197.171875 -556.386719 192.886719 -552.816406 189.53125 -548.171875 C 186.777344 -544.359375 185.09375 -539.488281 184.480469 -533.554688 C 183.992188 -528.851562 184.488281 -524.882812 185.976562 -521.652344 C 188.363281 -516.457031 192.078125 -511.9375 197.125 -508.085938 C 199.914062 -505.957031 203.65625 -504.648438 208.347656 -504.160156 L 339.085938 -490.597656 L 301.445312 -127.789062 C 300.851562 -122.058594 301.570312 -116.933594 303.605469 -112.414062 C 306.226562 -106.589844 309.917969 -101.863281 314.671875 -98.230469 C 317.460938 -96.101562 320.871094 -94.828125 324.902344 -94.410156 C 329.882812 -93.894531 334.21875 -94.503906 337.917969 -96.238281 C 343.757812 -98.980469 348.6875 -103.054688 352.710938 -108.460938 C 355.488281 -112.195312 357.132812 -116.503906 357.640625 -121.390625 L 393.777344 -484.921875 L 525.078125 -471.300781 C 530.140625 -470.777344 533.992188 -471.152344 536.628906 -472.429688 C 542.34375 -475.203125 546.988281 -479 550.566406 -483.828125 C 552.683594 -486.6875 553.984375 -490.46875 554.472656 -495.171875 C 555.039062 -500.625 554.410156 -505.347656 552.582031 -509.339844 C 550.050781 -514.878906 546.285156 -519.53125 541.285156 -523.296875 C 538.023438 -525.753906 533.570312 -527.277344 527.925781 -527.863281 Z M 527.925781 -527.863281 "/></g></g></g><g fill="#ffef42" fill-opacity="1"><g transform="translate(3768.90871, 951.298591)"><g><path d="M 438.765625 -696.023438 C 482.21875 -728.1875 529.632812 -746.734375 581 -751.664062 C 631.199219 -756.484375 679.464844 -748.527344 725.792969 -727.792969 C 774.03125 -706.203125 813.292969 -672.742188 843.585938 -627.40625 L 734.296875 -554.382812 L 841.175781 -630.890625 C 871.945312 -587.90625 889.308594 -540.128906 893.265625 -487.5625 C 896.996094 -438.027344 889.109375 -390.589844 869.609375 -345.25 C 849.5625 -298.640625 818.824219 -259.472656 777.402344 -227.75 L 616.902344 -110.171875 L 539.242188 -216.210938 L 668.914062 -194.738281 L 646.011719 -56.433594 C 637.261719 -3.605469 616.035156 42.71875 582.328125 82.53125 C 549.785156 120.976562 509.878906 149.316406 462.617188 167.550781 C 413.945312 186.332031 363.335938 191.367188 310.789062 182.667969 C 258.898438 174.074219 212.945312 153.042969 172.925781 119.578125 C 134.0625 87.082031 105.425781 47.390625 87.007812 0.507812 C 67.9375 -48.050781 62.777344 -98.742188 71.523438 -151.570312 L 94.429688 -289.875 L 224.101562 -268.402344 L 116.402344 -193.054688 L 3.964844 -353.773438 C -26.082031 -398.703125 -43.082031 -446.464844 -47.03125 -497.050781 C -50.875 -546.253906 -43.046875 -593.699219 -23.550781 -639.390625 C -2.859375 -687.875 28.980469 -727.503906 71.964844 -758.273438 L 148.472656 -651.398438 L 68.558594 -755.753906 C 111.730469 -788.8125 159.386719 -807.847656 211.523438 -812.851562 C 262.019531 -817.699219 310.207031 -809.683594 356.082031 -788.800781 C 403.324219 -767.300781 442.011719 -734.007812 472.136719 -688.917969 L 362.847656 -615.898438 L 470.203125 -691.730469 L 535.160156 -599.773438 L 427.804688 -523.941406 L 349.265625 -629.335938 L 438.421875 -695.769531 Z M 595.496094 -484.980469 L 398.230469 -337.988281 L 254.507812 -541.457031 L 253.558594 -542.875 C 251.148438 -546.480469 249.023438 -548.703125 247.1875 -549.539062 C 243.984375 -550.996094 240.46875 -551.542969 236.644531 -551.175781 C 234.464844 -550.964844 231.710938 -549.589844 228.386719 -547.042969 L 226.703125 -545.753906 L 224.980469 -544.519531 C 221.90625 -542.320312 219.65625 -539.550781 218.234375 -536.210938 C 215.617188 -530.078125 214.554688 -523.847656 215.046875 -517.523438 C 215.433594 -512.582031 216.871094 -508.230469 219.363281 -504.464844 L 362.535156 -299.816406 L 330.871094 -108.621094 C 330.023438 -103.492188 330.292969 -99.152344 331.691406 -95.597656 C 333.742188 -90.375 337.03125 -85.867188 341.558594 -82.082031 C 344.925781 -79.269531 348.984375 -77.464844 353.734375 -76.679688 C 359.144531 -75.785156 363.898438 -76.125 367.992188 -77.707031 C 373.5 -79.828125 378.0625 -83.035156 381.691406 -87.316406 C 384.15625 -90.230469 385.816406 -94.253906 386.664062 -99.382812 L 418.328125 -290.578125 L 617.574219 -436.460938 C 622.644531 -440.34375 626.160156 -444.5625 628.121094 -449.117188 C 630.625 -454.945312 631.628906 -461.183594 631.128906 -467.835938 C 630.855469 -471.453125 629.621094 -474.800781 627.421875 -477.875 L 626.1875 -479.597656 L 625.007812 -481.359375 C 622.765625 -484.71875 620.5625 -486.882812 618.402344 -487.847656 C 614.332031 -489.671875 610.238281 -490.382812 606.121094 -489.988281 C 603.167969 -489.707031 599.511719 -487.953125 595.15625 -484.726562 Z M 595.496094 -484.980469 "/></g></g></g><g fill="#9ac0df" fill-opacity="1"><g transform="translate(275.132998, 1065.74368)"><g><path d="M 371.484375 -783.3125 C 402.429688 -788.445312 431.703125 -785.351562 459.296875 -774.03125 C 486.898438 -762.707031 510.40625 -745.457031 529.8125 -722.28125 C 549.21875 -699.113281 561.378906 -672.710938 566.296875 -643.078125 C 571.429688 -612.128906 568.53125 -582.71875 557.59375 -554.84375 C 546.65625 -526.976562 529.898438 -503.554688 507.328125 -484.578125 C 484.753906 -465.609375 457.992188 -453.554688 427.046875 -448.421875 C 402.679688 -444.378906 380.15625 -444.535156 359.46875 -448.890625 C 338.78125 -453.242188 320.863281 -454.164062 305.71875 -451.65625 C 295.175781 -449.90625 286.75 -444.613281 280.4375 -435.78125 C 274.125 -426.945312 271.835938 -417.265625 273.578125 -406.734375 C 275.222656 -396.859375 280.40625 -389.085938 289.125 -383.421875 C 297.84375 -377.765625 307.472656 -375.8125 318.015625 -377.5625 C 333.160156 -380.070312 349.816406 -386.722656 367.984375 -397.515625 C 386.160156 -408.316406 407.429688 -415.738281 431.796875 -419.78125 C 462.742188 -424.914062 492.039062 -421.65625 519.6875 -410 C 547.34375 -398.351562 570.898438 -380.78125 590.359375 -357.28125 C 609.828125 -333.78125 622.128906 -306.554688 627.265625 -275.609375 C 632.171875 -245.972656 629.15625 -217.21875 618.21875 -189.34375 C 607.28125 -161.46875 590.578125 -137.71875 568.109375 -118.09375 C 545.648438 -98.46875 518.945312 -86.085938 488 -80.953125 L 344.75 -57.1875 C 297.34375 -49.320312 251.332031 -51.332031 206.71875 -63.21875 C 162.113281 -75.113281 121.109375 -94.875 83.703125 -122.5 C 46.304688 -150.125 15.222656 -183.535156 -9.546875 -222.734375 C -34.316406 -261.941406 -50.582031 -304.921875 -58.34375 -351.671875 C -66.425781 -400.398438 -64.90625 -447.34375 -53.78125 -492.5 C -42.664062 -537.664062 -23.625 -578.894531 3.34375 -616.1875 C 30.3125 -653.476562 63.367188 -684.671875 102.515625 -709.765625 C 141.660156 -734.867188 185.21875 -751.738281 233.1875 -760.375 Z M 371.484375 -783.3125 "/></g></g></g><g fill="#9ac0df" fill-opacity="1"><g transform="translate(924.900411, 956.525487)"><g><path d="M 521.109375 -52.25 C 491.890625 -49.257812 464.257812 -53.648438 438.21875 -65.421875 C 412.175781 -77.191406 390.796875 -94.300781 374.078125 -116.75 C 357.359375 -139.195312 347.503906 -165.03125 344.515625 -194.25 L 341.0625 -228.125 C 340.445312 -234.09375 337.757812 -239.015625 333 -242.890625 C 328.25 -246.773438 322.890625 -248.410156 316.921875 -247.796875 C 310.941406 -247.191406 306.007812 -244.503906 302.125 -239.734375 C 298.25 -234.972656 296.617188 -229.609375 297.234375 -223.640625 L 300.6875 -189.765625 C 303.75 -159.878906 299.523438 -132.269531 288.015625 -106.9375 C 276.515625 -81.601562 259.523438 -60.738281 237.046875 -44.34375 C 214.566406 -27.957031 188.382812 -18.238281 158.5 -15.1875 C 129.9375 -12.269531 102.820312 -16.546875 77.15625 -28.015625 C 51.5 -39.484375 30.304688 -56.441406 13.578125 -78.890625 C -3.140625 -101.335938 -13.03125 -127.503906 -16.09375 -157.390625 L -56.203125 -549.875 C -59.253906 -579.769531 -54.84375 -607.234375 -42.96875 -632.265625 C -31.09375 -657.296875 -13.753906 -678.023438 9.046875 -694.453125 C 31.859375 -710.878906 57.546875 -720.550781 86.109375 -723.46875 C 115.992188 -726.519531 143.601562 -722.289062 168.9375 -710.78125 C 194.269531 -699.28125 215.113281 -682.457031 231.46875 -660.3125 C 247.820312 -638.164062 257.523438 -612.144531 260.578125 -582.25 L 264.25 -546.390625 C 264.789062 -541.078125 267.441406 -536.484375 272.203125 -532.609375 C 276.960938 -528.734375 282.332031 -527.097656 288.3125 -527.703125 C 294.28125 -528.316406 299.203125 -531.003906 303.078125 -535.765625 C 306.953125 -540.523438 308.617188 -545.5625 308.078125 -550.875 L 304.40625 -586.734375 C 301.425781 -615.960938 305.867188 -643.09375 317.734375 -668.125 C 329.597656 -693.15625 347.085938 -714.066406 370.203125 -730.859375 C 393.328125 -747.648438 419.5 -757.539062 448.71875 -760.53125 C 477.925781 -763.507812 505.21875 -759.082031 530.59375 -747.25 C 555.96875 -735.414062 576.992188 -718.441406 593.671875 -696.328125 C 610.359375 -674.210938 620.191406 -648.539062 623.171875 -619.3125 L 663.28125 -226.828125 C 666.269531 -197.609375 661.847656 -170.316406 650.015625 -144.953125 C 638.191406 -119.585938 621.050781 -98.539062 598.59375 -81.8125 C 576.144531 -65.082031 550.316406 -55.226562 521.109375 -52.25 Z M 521.109375 -52.25 "/></g></g></g><g fill="#9ac0df" fill-opacity="1"><g transform="translate(1605.266806, 891.208716)"><g/></g></g><g fill="#9ac0df" fill-opacity="1"><g transform="translate(1838.824816, 877.092625)"><g/></g></g><g fill="#9ac0df" fill-opacity="1"><g transform="translate(2072.630505, 868.081722)"><g/></g></g><g fill="#9ac0df" fill-opacity="1"><g transform="translate(2306.583897, 864.188761)"><g/></g></g><g fill="#9ac0df" fill-opacity="1"><g transform="translate(2536.391499, 861.25487)"><g><path d="M 502.875 -688.53125 C 532.882812 -687.15625 559.71875 -678.566406 583.375 -662.765625 C 607.039062 -646.972656 625.484375 -626.578125 638.703125 -601.578125 C 651.921875 -576.578125 657.851562 -549.40625 656.5 -520.0625 C 655.175781 -491.382812 646.960938 -465.53125 631.859375 -442.5 C 616.765625 -419.476562 597.046875 -401.175781 572.703125 -387.59375 C 548.359375 -374.019531 521.179688 -367.925781 491.171875 -369.3125 L 481.421875 -136.203125 C 480.066406 -106.859375 471.484375 -80.179688 455.671875 -56.171875 C 439.867188 -32.171875 419.457031 -13.398438 394.4375 0.140625 C 369.425781 13.679688 342.25 19.773438 312.90625 18.421875 C 284.226562 17.109375 258.222656 8.566406 234.890625 -7.203125 C 211.554688 -22.984375 193.285156 -43.539062 180.078125 -68.875 C 166.878906 -94.21875 160.957031 -121.5625 162.3125 -150.90625 L 173.0625 -383.96875 C 143.726562 -385.320312 117.390625 -393.882812 94.046875 -409.65625 C 70.710938 -425.4375 52.59375 -445.484375 39.6875 -469.796875 C 26.78125 -494.117188 20.988281 -520.617188 22.3125 -549.296875 C 23.664062 -578.640625 31.898438 -605.15625 47.015625 -628.84375 C 62.140625 -652.539062 82.046875 -671.171875 106.734375 -684.734375 C 131.421875 -698.304688 158.429688 -704.414062 187.765625 -703.0625 Z M 502.875 -688.53125 "/></g></g></g><g fill="#9ac0df" fill-opacity="1"><g transform="translate(3148.815145, 888.499118)"><g><path d="M 541.484375 -658.609375 C 571.367188 -655.515625 597.671875 -645.40625 620.390625 -628.28125 C 643.109375 -611.15625 660.347656 -589.734375 672.109375 -564.015625 C 683.867188 -538.304688 688.234375 -510.84375 685.203125 -481.625 C 682.242188 -453.070312 672.566406 -427.726562 656.171875 -405.59375 C 639.773438 -383.46875 619.035156 -366.320312 593.953125 -354.15625 C 568.867188 -342 541.382812 -337.46875 511.5 -340.5625 L 488.4375 -108.40625 C 485.40625 -79.1875 475.304688 -53.046875 458.140625 -29.984375 C 440.984375 -6.929688 419.53125 10.640625 393.78125 22.734375 C 368.039062 34.828125 340.5625 39.359375 311.34375 36.328125 C 282.789062 33.359375 257.316406 23.332031 234.921875 6.25 C 212.523438 -10.832031 195.460938 -32.398438 183.734375 -58.453125 C 172.015625 -84.503906 167.671875 -112.140625 170.703125 -141.359375 L 194.765625 -373.421875 C 165.554688 -376.453125 139.753906 -386.507812 117.359375 -403.59375 C 94.972656 -420.6875 78.03125 -441.742188 66.53125 -466.765625 C 55.039062 -491.785156 50.773438 -518.570312 53.734375 -547.125 C 56.765625 -576.34375 66.507812 -602.34375 82.96875 -625.125 C 99.425781 -647.914062 120.363281 -665.375 145.78125 -677.5 C 171.207031 -689.632812 198.523438 -694.1875 227.734375 -691.15625 Z M 541.484375 -658.609375 "/></g></g></g><g fill="#9ac0df" fill-opacity="1"><g transform="translate(3768.90871, 951.298591)"><g><path d="M 516.953125 -590.375 C 540.859375 -608.070312 566.390625 -618.222656 593.546875 -620.828125 C 620.710938 -623.441406 646.894531 -619.109375 672.09375 -607.828125 C 697.289062 -596.554688 718.023438 -578.738281 734.296875 -554.375 C 750.785156 -531.34375 760.082031 -505.78125 762.1875 -477.6875 C 764.300781 -449.601562 759.859375 -422.769531 748.859375 -397.1875 C 737.859375 -371.601562 720.734375 -349.90625 697.484375 -332.09375 L 539.25 -216.21875 L 516.34375 -77.90625 C 511.539062 -48.925781 500.09375 -23.753906 482 -2.390625 C 463.914062 18.972656 441.679688 34.742188 415.296875 44.921875 C 388.921875 55.109375 361.242188 57.800781 332.265625 53 C 303.941406 48.3125 278.929688 36.894531 257.234375 18.75 C 235.535156 0.601562 219.570312 -21.492188 209.34375 -47.546875 C 199.113281 -73.597656 196.398438 -101.113281 201.203125 -130.09375 L 224.109375 -268.40625 L 111.65625 -429.109375 C 95.382812 -453.460938 86.164062 -479.519531 84 -507.28125 C 81.832031 -535.050781 86.273438 -561.890625 97.328125 -587.796875 C 108.390625 -613.703125 125.4375 -634.898438 148.46875 -651.390625 C 171.71875 -669.203125 196.921875 -679.410156 224.078125 -682.015625 C 251.242188 -684.628906 277.09375 -680.347656 301.625 -669.171875 C 326.164062 -658.003906 346.570312 -640.242188 362.84375 -615.890625 L 427.8125 -523.9375 Z M 516.953125 -590.375 "/></g></g></g></g></g><g transform="matrix(1, 0, 0, 1, 1737, 275)"><g clip-path="url(#7e19d72b5d)"><g fill="#ffef42" fill-opacity="1"><g transform="translate(197.39978, 895.487188)"><g><path d="M 34.613281 103.589844 C -13.410156 83.011719 -52.828125 52.304688 -83.640625 11.476562 C -114.292969 -29.144531 -132.980469 -74.644531 -139.703125 -125.019531 C -146.503906 -175.988281 -139.988281 -225.335938 -120.152344 -273.0625 L 49.3125 -683.078125 C 72.015625 -738.601562 107.347656 -782.121094 155.316406 -813.640625 C 200.121094 -843.082031 249.019531 -859.386719 302.019531 -862.558594 C 355.625 -865.765625 406.464844 -855.011719 454.539062 -830.304688 C 505.4375 -804.144531 545.417969 -764.125 574.476562 -710.246094 L 785.1875 -317.152344 C 810.582031 -272.019531 822.015625 -222.976562 819.496094 -170.019531 C 817.125 -120.246094 803.179688 -74.046875 777.660156 -31.425781 C 751 13.105469 713.964844 48.070312 666.5625 73.472656 C 619.800781 97.878906 570.820312 109.191406 519.613281 107.417969 C 468.121094 105.632812 420.730469 91.285156 377.4375 64.367188 C 334.503906 37.667969 300.542969 1.558594 275.566406 -43.964844 L 176.363281 -229.015625 L 173.460938 -236.488281 C 179.648438 -220.546875 188.710938 -206.390625 200.640625 -194.019531 C 214.945312 -179.191406 231.832031 -168.417969 251.304688 -161.703125 C 277.242188 -152.761719 303.113281 -152.191406 328.917969 -159.988281 C 344.558594 -164.714844 358.792969 -172.234375 371.617188 -182.550781 C 387.824219 -195.585938 400.125 -211.621094 408.515625 -230.664062 C 415.476562 -246.457031 419.078125 -262.925781 419.316406 -280.074219 C 419.464844 -290.851562 418.25 -301.378906 415.671875 -311.65625 L 288.1875 -279.660156 L 414.320312 -316.625 L 459.609375 -162.078125 L 415.652344 -53.253906 C 394.367188 -3.539062 363.3125 36.726562 322.480469 67.539062 C 281.863281 98.195312 236.363281 116.882812 185.988281 123.605469 C 135.925781 130.28125 86.703125 124.117188 38.320312 105.109375 L 36.457031 104.378906 Z M 138.152344 -138.042969 L 86.382812 -17.226562 L 134.445312 -139.5625 C 140.570312 -137.15625 146.164062 -136.292969 151.21875 -136.964844 C 155.957031 -137.597656 160.261719 -139.375 164.128906 -142.292969 C 167.785156 -145.050781 170.378906 -148.191406 171.90625 -151.714844 L 198.757812 -218.183594 L 320.628906 -168.953125 L 194.496094 -131.988281 L 161.328125 -245.167969 L 160.699219 -247.664062 C 152.96875 -278.476562 155.390625 -308.148438 167.96875 -336.6875 C 176.8125 -356.75 189.777344 -373.65625 206.871094 -387.402344 C 220.582031 -398.429688 235.914062 -406.503906 252.871094 -411.628906 C 281.3125 -420.222656 309.351562 -419.753906 336.988281 -410.226562 C 357.308594 -403.222656 374.929688 -391.984375 389.851562 -376.515625 C 402.398438 -363.507812 411.957031 -348.539062 418.527344 -331.613281 L 295.992188 -284.050781 L 411.839844 -346.148438 L 506.03125 -170.421875 C 508.914062 -165.167969 512.316406 -161.320312 516.246094 -158.878906 C 519.8125 -156.660156 523.972656 -155.46875 528.71875 -155.300781 C 533.746094 -155.128906 538.304688 -156.105469 542.390625 -158.230469 C 547.097656 -160.753906 550.339844 -163.5 552.117188 -166.464844 C 555.039062 -171.339844 556.636719 -176.695312 556.914062 -182.523438 C 557.039062 -185.167969 555.898438 -188.644531 553.496094 -192.957031 L 343.101562 -585.460938 C 339.84375 -591.503906 336.929688 -595.183594 334.367188 -596.5 C 328.972656 -599.273438 323.421875 -600.488281 317.71875 -600.148438 C 311.40625 -599.769531 305.390625 -597.703125 299.675781 -593.949219 C 297.121094 -592.269531 294.648438 -588.507812 292.257812 -582.664062 L 122.597656 -172.179688 C 120.890625 -168.066406 120.3125 -163.9375 120.867188 -159.789062 C 121.496094 -155.046875 123.273438 -150.746094 126.191406 -146.878906 C 128.949219 -143.222656 132.9375 -140.277344 138.152344 -138.042969 Z M 138.152344 -138.042969 "/></g></g></g><g fill="#9ac0df" fill-opacity="1"><g transform="translate(197.39978, 895.487188)"><g><path d="M 86.390625 -17.21875 C 59.765625 -28.632812 38.054688 -45.460938 21.265625 -67.703125 C 4.484375 -89.941406 -5.742188 -114.835938 -9.421875 -142.390625 C -13.109375 -169.953125 -9.5625 -196.691406 1.21875 -222.609375 L 170.796875 -632.84375 C 183.335938 -663.539062 202.238281 -687.1875 227.5 -703.78125 C 252.757812 -720.382812 280.21875 -729.570312 309.875 -731.34375 C 339.53125 -733.113281 367.722656 -727.128906 394.453125 -713.390625 C 421.179688 -699.648438 442.628906 -677.796875 458.796875 -647.828125 L 669.328125 -255.046875 C 683.234375 -230.328125 689.519531 -204.066406 688.1875 -176.265625 C 686.863281 -148.460938 679.09375 -122.6875 664.875 -98.9375 C 650.664062 -75.195312 630.535156 -56.34375 604.484375 -42.375 C 579.054688 -29.101562 552.28125 -22.953125 524.15625 -23.921875 C 496.039062 -24.898438 470.265625 -32.671875 446.828125 -47.234375 C 423.398438 -61.804688 404.722656 -81.789062 390.796875 -107.1875 L 295.984375 -284.03125 C 295.234375 -286.007812 293.535156 -286.597656 290.890625 -285.796875 C 288.253906 -284.992188 287.351562 -282.945312 288.1875 -279.65625 L 320.640625 -168.9375 L 293.78125 -102.484375 C 282.375 -75.859375 265.546875 -54.148438 243.296875 -37.359375 C 221.054688 -20.578125 196.15625 -10.347656 168.59375 -6.671875 C 141.039062 -3.003906 113.640625 -6.519531 86.390625 -17.21875 Z M 86.390625 -17.21875 "/></g></g></g></g></g></svg>