<svg xmlns="http://www.w3.org/2000/svg" xmlns:xlink="http://www.w3.org/1999/xlink" width="6912" zoomAndPan="magnify" viewBox="0 0 5184 2592.000001" height="3456" preserveAspectRatio="xMidYMid meet" version="1.0"><defs><g/><clipPath id="56ef820470"><rect x="0" width="4731" y="0" height="1339"/></clipPath><clipPath id="06564ca539"><rect x="0" width="1319" y="0" height="1383"/></clipPath></defs><g transform="matrix(1, 0, 0, 1, 226, 924)"><g clip-path="url(#56ef820470)"><g fill="#ffef42" fill-opacity="1"><g transform="translate(275.56234, 1066.859215)"><g><path d="M 350.40625 -914.109375 C 405.996094 -923.332031 459.140625 -917.539062 509.835938 -896.730469 C 557.503906 -877.167969 598.003906 -847.484375 631.34375 -807.679688 C 666.152344 -766.125 687.972656 -718.699219 696.816406 -665.40625 C 705.917969 -610.53125 700.570312 -557.875 680.765625 -507.4375 C 661.664062 -458.78125 632.28125 -417.785156 592.621094 -384.449219 C 551.632812 -349.996094 503.792969 -328.234375 449.101562 -319.160156 C 408.429688 -312.414062 369.667969 -312.917969 332.816406 -320.667969 C 329.175781 -321.433594 326.296875 -321.871094 324.175781 -321.980469 C 324.691406 -321.953125 325.84375 -322.089844 327.628906 -322.382812 C 339.722656 -324.390625 351.113281 -328.75 361.808594 -335.460938 C 372.238281 -342.007812 380.90625 -350.105469 387.808594 -359.753906 C 394.710938 -369.398438 399.574219 -380.21875 402.402344 -392.203125 C 405.304688 -404.492188 405.75 -416.683594 403.742188 -428.777344 C 401.476562 -442.445312 396.40625 -455.183594 388.53125 -466.992188 C 381.078125 -478.171875 371.9375 -487.277344 361.109375 -494.300781 C 351.5 -500.535156 340.945312 -504.820312 329.441406 -507.15625 C 318.40625 -509.398438 307.546875 -509.632812 296.859375 -507.859375 C 295.074219 -507.5625 293.941406 -507.316406 293.464844 -507.125 C 295.433594 -507.914062 298.015625 -509.257812 301.214844 -511.15625 C 333.589844 -530.394531 370.113281 -543.386719 410.785156 -550.132812 C 466.820312 -559.425781 520.375 -553.3125 571.449219 -531.78125 C 618.921875 -511.769531 659.253906 -481.726562 692.441406 -441.65625 C 727.03125 -399.886719 748.835938 -351.824219 757.851562 -297.472656 C 766.734375 -243.917969 761.277344 -191.917969 741.476562 -141.480469 C 722.699219 -93.660156 694.015625 -52.886719 655.417969 -19.152344 C 614.15625 16.910156 565.730469 39.550781 510.136719 48.773438 L 366.722656 72.5625 C 300.582031 83.535156 236.039062 80.636719 173.097656 63.863281 C 112.320312 47.664062 56.496094 20.777344 5.628906 -16.796875 C -45.058594 -54.242188 -87.203125 -99.546875 -120.800781 -152.707031 C -155.089844 -206.957031 -177.566406 -266.246094 -188.238281 -330.570312 C -199.285156 -397.175781 -197.085938 -461.84375 -181.636719 -524.578125 C -166.421875 -586.378906 -140.304688 -642.871094 -103.285156 -694.054688 C -66.542969 -744.863281 -21.578125 -787.320312 31.605469 -821.425781 C 85.464844 -855.964844 144.984375 -879.101562 210.160156 -890.832031 Z M 393.480469 -654.457031 L 256.785156 -631.792969 C 225.910156 -626.234375 198.210938 -615.59375 173.6875 -599.867188 C 148.484375 -583.703125 127.253906 -563.6875 109.988281 -539.816406 C 92.996094 -516.320312 80.976562 -490.265625 73.929688 -461.648438 C 67.113281 -433.964844 66.273438 -404.632812 71.414062 -373.644531 C 76.277344 -344.339844 86.367188 -317.566406 101.691406 -293.320312 C 117.699219 -267.992188 137.808594 -246.382812 162.015625 -228.5 C 186.046875 -210.75 212.332031 -198.070312 240.871094 -190.464844 C 267.246094 -183.433594 294.839844 -182.308594 323.648438 -187.089844 L 467.0625 -210.878906 C 473.453125 -211.941406 478.503906 -214.09375 482.214844 -217.332031 C 488.589844 -222.90625 493.34375 -229.683594 496.476562 -237.667969 C 498.585938 -243.035156 499.15625 -248.609375 498.199219 -254.398438 C 496.933594 -262.027344 494.109375 -268.488281 489.726562 -273.777344 C 483.941406 -280.765625 477.101562 -285.921875 469.214844 -289.246094 C 464.925781 -291.054688 459.808594 -291.464844 453.859375 -290.476562 C 445.734375 -289.128906 439.667969 -287.265625 435.65625 -284.882812 C 403.28125 -265.644531 371.375 -253.421875 339.933594 -248.203125 C 318.699219 -244.679688 297.742188 -245.019531 277.066406 -249.21875 C 255.921875 -253.511719 236.179688 -261.609375 217.839844 -273.507812 C 198.28125 -286.199219 182.183594 -302.023438 169.542969 -320.980469 C 156.480469 -340.570312 147.996094 -362.144531 144.089844 -385.703125 C 140.332031 -408.34375 141.046875 -430.660156 146.234375 -452.640625 C 151.351562 -474.324219 160.519531 -494.410156 173.75 -512.898438 C 186.976562 -531.386719 203.023438 -546.550781 221.894531 -558.394531 C 241.023438 -570.402344 261.910156 -578.28125 284.554688 -582.039062 C 315.992188 -587.253906 350.140625 -585.984375 386.992188 -578.234375 C 391.558594 -577.273438 397.902344 -577.46875 406.027344 -578.816406 C 413.316406 -580.023438 419.0625 -582.394531 423.265625 -585.929688 C 428.796875 -590.574219 432.960938 -596.472656 435.769531 -603.625 C 437.875 -608.988281 438.339844 -615.226562 437.160156 -622.332031 C 436.15625 -628.382812 433.625 -633.832031 429.570312 -638.675781 C 424.046875 -645.269531 417.488281 -650.125 409.902344 -653.242188 C 405.34375 -655.109375 399.871094 -655.515625 393.480469 -654.457031 Z M 393.480469 -654.457031 "/></g></g></g><g fill="#ffef42" fill-opacity="1"><g transform="translate(926.129733, 957.5066)"><g><path d="M 535.117188 78.597656 C 482.34375 83.992188 432.15625 75.929688 384.550781 54.414062 C 337.816406 33.289062 299.304688 2.390625 269.007812 -38.277344 C 237.808594 -80.164062 219.480469 -127.773438 214.03125 -181.109375 L 210.5625 -215.023438 C 212.050781 -200.453125 216.347656 -186.652344 223.449219 -173.621094 C 230.359375 -160.9375 239.3125 -150.121094 250.308594 -141.164062 C 261.300781 -132.210938 273.707031 -125.628906 287.527344 -121.429688 C 301.726562 -117.109375 316.109375 -115.695312 330.679688 -117.183594 C 345.246094 -118.671875 359.046875 -122.96875 372.078125 -130.070312 C 384.761719 -136.980469 395.582031 -145.933594 404.535156 -156.929688 C 413.492188 -167.921875 420.070312 -180.328125 424.273438 -194.148438 C 428.589844 -208.347656 430.003906 -222.730469 428.515625 -237.300781 L 431.980469 -203.386719 C 437.453125 -149.871094 429.527344 -99.628906 408.203125 -52.667969 C 387.140625 -6.28125 356.027344 31.917969 314.859375 61.929688 C 273.183594 92.3125 225.585938 110.238281 172.070312 115.707031 C 120.160156 121.011719 70.660156 113.144531 23.5625 92.097656 C -23.027344 71.277344 -61.53125 40.453125 -91.945312 -0.375 C -123.144531 -42.261719 -141.507812 -90.207031 -147.027344 -144.207031 L -187.191406 -537.179688 C -192.742188 -591.46875 -184.328125 -642.214844 -161.949219 -689.417969 C -140.386719 -734.902344 -109.015625 -772.464844 -67.835938 -802.113281 C -25.96875 -832.25 20.914062 -849.96875 72.824219 -855.277344 C 126.339844 -860.746094 176.582031 -852.820312 223.542969 -831.496094 C 269.667969 -810.554688 307.691406 -779.820312 337.613281 -739.300781 C 368.25 -697.808594 386.316406 -650.164062 391.816406 -596.359375 L 395.484375 -560.453125 C 393.851562 -576.460938 389.007812 -591.441406 380.957031 -605.398438 C 374.214844 -617.082031 365.777344 -627.050781 355.640625 -635.308594 C 344.644531 -644.261719 332.238281 -650.84375 318.421875 -655.042969 C 304.21875 -659.363281 289.835938 -660.777344 275.269531 -659.289062 C 260.703125 -657.800781 246.902344 -653.503906 233.867188 -646.402344 C 221.183594 -639.492188 210.367188 -630.539062 201.410156 -619.542969 C 193.15625 -609.410156 186.910156 -597.9375 182.671875 -585.128906 C 177.609375 -569.835938 175.898438 -554.183594 177.535156 -538.175781 L 173.863281 -574.082031 C 168.382812 -627.707031 176.828125 -678.121094 199.207031 -725.324219 C 220.683594 -770.625 252.050781 -808.261719 293.3125 -838.234375 C 335.578125 -868.941406 383.101562 -886.988281 435.875 -892.382812 C 489.210938 -897.835938 539.542969 -889.519531 586.878906 -867.4375 C 632.066406 -846.355469 669.589844 -816.027344 699.449219 -776.453125 C 730.914062 -734.753906 749.386719 -687.09375 754.867188 -633.46875 L 795.03125 -240.496094 C 800.484375 -187.160156 792.167969 -136.824219 770.085938 -89.492188 C 748.882812 -44.042969 718.171875 -6.339844 677.953125 23.621094 C 636.066406 54.820312 588.453125 73.148438 535.117188 78.597656 Z M 508.355469 -183.238281 C 513.535156 -183.769531 517.65625 -185.175781 520.722656 -187.457031 C 525.453125 -190.984375 529.070312 -195.421875 531.5625 -200.769531 C 533.179688 -204.234375 533.722656 -208.554688 533.195312 -213.734375 L 493.027344 -606.703125 C 492.527344 -611.59375 491.300781 -615.332031 489.347656 -617.921875 C 485.792969 -622.632812 481.207031 -626.296875 475.597656 -628.914062 C 472.136719 -630.53125 467.8125 -631.074219 462.636719 -630.546875 C 456.898438 -629.960938 452.019531 -628.207031 448.003906 -625.289062 C 442.980469 -621.640625 439.324219 -617.402344 437.035156 -612.574219 C 435.648438 -609.640625 435.203125 -605.734375 435.703125 -600.84375 L 439.371094 -564.9375 C 441.550781 -543.613281 439.277344 -522.78125 432.546875 -502.445312 C 426.640625 -484.59375 417.621094 -468.222656 405.484375 -453.320312 C 392.648438 -437.5625 377.421875 -424.886719 359.808594 -415.285156 C 341.84375 -405.496094 322.582031 -399.550781 302.03125 -397.449219 C 281.480469 -395.351562 261.417969 -397.277344 241.84375 -403.230469 C 222.648438 -409.066406 205.175781 -418.402344 189.417969 -431.238281 C 174.515625 -443.375 162.367188 -457.585938 152.972656 -473.867188 C 142.269531 -492.421875 135.828125 -512.363281 133.648438 -533.691406 L 129.976562 -569.597656 C 129.359375 -575.636719 127.992188 -580.089844 125.878906 -582.953125 C 123.046875 -586.789062 119.328125 -589.75 114.726562 -591.839844 C 110.957031 -593.550781 105.910156 -594.085938 99.585938 -593.4375 C 94.308594 -592.898438 89.761719 -591.253906 85.941406 -588.503906 C 81.4375 -585.261719 78.082031 -581.316406 75.878906 -576.667969 C 74.488281 -573.734375 74.078125 -569.492188 74.644531 -563.941406 L 114.8125 -170.96875 C 115.410156 -165.125 116.847656 -160.671875 119.132812 -157.605469 C 122.203125 -153.484375 126.140625 -150.347656 130.945312 -148.203125 C 135.242188 -146.28125 140.03125 -145.589844 145.304688 -146.128906 C 151.632812 -146.777344 156.464844 -148.320312 159.808594 -150.757812 C 163.664062 -153.566406 166.578125 -157.140625 168.546875 -161.484375 C 170.257812 -165.253906 170.789062 -170.300781 170.144531 -176.625 L 166.679688 -210.535156 C 164.578125 -231.089844 166.503906 -251.152344 172.457031 -270.726562 C 178.292969 -289.917969 187.628906 -307.394531 200.464844 -323.152344 C 213.300781 -338.910156 228.523438 -351.585938 246.140625 -361.1875 C 264.105469 -370.976562 283.363281 -376.921875 303.914062 -379.023438 C 324.46875 -381.121094 344.53125 -379.195312 364.105469 -373.242188 C 383.296875 -367.40625 400.773438 -358.070312 416.53125 -345.234375 C 432.289062 -332.398438 444.96875 -317.175781 454.566406 -299.5625 C 464.355469 -281.59375 470.300781 -262.335938 472.402344 -241.785156 L 475.867188 -207.875 C 476.398438 -202.695312 477.804688 -198.574219 480.085938 -195.507812 C 483.277344 -191.222656 487.570312 -187.863281 492.964844 -185.425781 C 497.484375 -183.378906 502.617188 -182.652344 508.355469 -183.238281 Z M 508.355469 -183.238281 "/></g></g></g><g fill="#ffef42" fill-opacity="1"><g transform="translate(1607.333695, 892.109368)"><g/></g></g><g fill="#ffef42" fill-opacity="1"><g transform="translate(1841.1793, 877.97593)"><g/></g></g><g fill="#ffef42" fill-opacity="1"><g transform="translate(2075.27288, 868.953902)"><g/></g></g><g fill="#ffef42" fill-opacity="1"><g transform="translate(2309.514394, 865.056142)"><g/></g></g><g fill="#ffef42" fill-opacity="1"><g transform="translate(2539.604823, 862.118626)"><g><path d="M 509.550781 -820.847656 C 563.964844 -818.339844 613.167969 -802.40625 657.152344 -773.054688 C 699.324219 -744.90625 732.21875 -708.5 755.835938 -663.824219 C 780.246094 -617.644531 791.222656 -567.921875 788.765625 -514.648438 C 786.335938 -461.957031 770.984375 -414.046875 742.710938 -370.910156 C 715.78125 -329.828125 680.710938 -297.238281 637.507812 -273.144531 C 591.308594 -247.378906 540.710938 -235.765625 485.710938 -238.300781 L 491.769531 -369.761719 L 623.257812 -364.265625 L 613.503906 -130.863281 C 611.023438 -77.023438 595.234375 -28.019531 566.140625 16.144531 C 538.199219 58.5625 502.019531 91.800781 457.605469 115.855469 C 411.105469 141.039062 360.980469 152.394531 307.234375 149.917969 C 253.863281 147.457031 205.273438 131.414062 161.464844 101.789062 C 119.710938 73.550781 87.09375 36.902344 63.613281 -8.160156 C 39.472656 -54.492188 28.625 -104.152344 31.066406 -157.144531 L 41.824219 -390.5 L 173.285156 -384.441406 L 167.226562 -252.980469 C 113.1875 -255.46875 64.265625 -271.527344 20.457031 -301.152344 C -20.996094 -329.1875 -53.3125 -365.027344 -76.484375 -408.667969 C -100.671875 -454.222656 -111.550781 -503.34375 -109.125 -556.035156 C -106.691406 -608.824219 -91.59375 -656.960938 -63.839844 -700.441406 C -36.636719 -743.054688 -0.859375 -776.546875 43.492188 -800.917969 C 89.839844 -826.390625 140.035156 -837.878906 194.070312 -835.386719 Z M 497.433594 -557.925781 L 181.953125 -572.464844 C 177.234375 -572.683594 173.332031 -571.945312 170.253906 -570.253906 C 165.179688 -567.464844 161.097656 -563.652344 158.011719 -558.816406 C 155.480469 -554.847656 154.074219 -549.882812 153.800781 -543.914062 C 153.582031 -539.1875 154.308594 -535.25 155.980469 -532.101562 C 158.664062 -527.046875 162.636719 -522.742188 167.898438 -519.179688 C 170.8125 -517.214844 174.625 -516.121094 179.34375 -515.902344 L 310.804688 -509.84375 L 293.992188 -145.027344 C 293.726562 -139.261719 294.738281 -134.179688 297.03125 -129.777344 C 299.988281 -124.109375 303.945312 -119.59375 308.910156 -116.238281 C 311.820312 -114.269531 315.300781 -113.195312 319.351562 -113.007812 C 324.359375 -112.777344 328.660156 -113.632812 332.257812 -115.582031 C 337.9375 -118.65625 342.632812 -123.011719 346.34375 -128.648438 C 348.90625 -132.539062 350.300781 -136.941406 350.53125 -141.855469 L 365.800781 -507.308594 L 497.828125 -501.222656 C 502.921875 -500.988281 506.746094 -501.585938 509.308594 -503.015625 C 514.863281 -506.113281 519.289062 -510.175781 522.585938 -515.207031 C 524.539062 -518.183594 525.625 -522.039062 525.84375 -526.769531 C 526.097656 -532.253906 525.195312 -536.9375 523.140625 -540.824219 C 520.292969 -546.214844 516.261719 -550.648438 511.046875 -554.128906 C 507.644531 -556.398438 503.109375 -557.664062 497.433594 -557.925781 Z M 497.433594 -557.925781 "/></g></g></g><g fill="#ffef42" fill-opacity="1"><g transform="translate(3152.782889, 889.396505)"><g><path d="M 555.738281 -790.308594 C 609.917969 -784.6875 658.125 -765.964844 700.359375 -734.140625 C 740.851562 -703.625 771.605469 -665.390625 792.621094 -619.4375 C 814.34375 -571.933594 822.457031 -521.664062 816.953125 -468.621094 C 811.511719 -416.152344 793.4375 -369.199219 762.738281 -327.753906 C 733.5 -288.28125 696.621094 -257.753906 652.109375 -236.175781 C 604.511719 -213.101562 553.328125 -204.402344 498.566406 -210.085938 L 512.144531 -340.984375 L 643.101562 -327.964844 L 619.992188 -95.503906 C 614.429688 -41.894531 595.863281 6.125 564.289062 48.546875 C 533.960938 89.296875 495.9375 120.410156 450.214844 141.878906 C 402.351562 164.359375 351.660156 172.824219 298.140625 167.269531 C 245 161.757812 197.410156 142.957031 155.371094 110.871094 C 115.300781 80.289062 84.835938 41.828125 63.976562 -4.503906 C 42.53125 -52.140625 34.546875 -102.339844 40.019531 -155.105469 L 64.125 -387.464844 L 195.023438 -373.882812 L 181.445312 -242.984375 C 127.636719 -248.566406 79.714844 -267.402344 37.675781 -299.488281 C -2.105469 -329.851562 -32.3125 -367.480469 -52.949219 -412.378906 C -74.488281 -459.242188 -82.535156 -508.90625 -77.089844 -561.371094 C -71.636719 -613.9375 -53.8125 -661.128906 -23.609375 -702.945312 C 5.988281 -743.929688 43.625 -775.320312 89.304688 -797.113281 C 137.035156 -819.886719 187.800781 -828.480469 241.605469 -822.898438 Z M 528.578125 -528.511719 L 214.445312 -561.101562 C 209.75 -561.589844 205.8125 -561.078125 202.640625 -559.5625 C 197.414062 -557.070312 193.125 -553.5 189.765625 -548.847656 C 187.007812 -545.03125 185.320312 -540.152344 184.707031 -534.210938 C 184.21875 -529.503906 184.714844 -525.53125 186.203125 -522.292969 C 188.59375 -517.09375 192.316406 -512.566406 197.367188 -508.710938 C 200.160156 -506.578125 203.90625 -505.269531 208.605469 -504.78125 L 339.503906 -491.203125 L 301.816406 -127.945312 C 301.222656 -122.207031 301.941406 -117.074219 303.980469 -112.550781 C 306.605469 -106.71875 310.296875 -101.988281 315.058594 -98.351562 C 317.851562 -96.222656 321.265625 -94.945312 325.300781 -94.527344 C 330.289062 -94.007812 334.632812 -94.621094 338.332031 -96.359375 C 344.179688 -99.105469 349.117188 -103.183594 353.144531 -108.59375 C 355.925781 -112.332031 357.570312 -116.648438 358.082031 -121.542969 L 394.261719 -485.519531 L 525.726562 -471.882812 C 530.792969 -471.355469 534.648438 -471.734375 537.289062 -473.011719 C 543.011719 -475.785156 547.664062 -479.589844 551.242188 -484.421875 C 553.363281 -487.285156 554.667969 -491.070312 555.15625 -495.78125 C 555.722656 -501.242188 555.089844 -505.96875 553.261719 -509.96875 C 550.726562 -515.511719 546.957031 -520.167969 541.953125 -523.941406 C 538.6875 -526.402344 534.226562 -527.925781 528.578125 -528.511719 Z M 528.578125 -528.511719 "/></g></g></g><g fill="#ffef42" fill-opacity="1"><g transform="translate(3773.640158, 952.273329)"><g><path d="M 439.304688 -696.882812 C 482.8125 -729.082031 530.285156 -747.652344 581.714844 -752.589844 C 631.976562 -757.414062 680.300781 -749.449219 726.683594 -728.6875 C 774.984375 -707.074219 814.296875 -673.570312 844.625 -628.179688 L 735.203125 -555.066406 L 842.210938 -631.667969 C 873.019531 -588.628906 890.40625 -540.792969 894.367188 -488.164062 C 898.097656 -438.566406 890.203125 -391.070312 870.679688 -345.675781 C 850.605469 -299.007812 819.832031 -259.792969 778.359375 -228.03125 L 617.664062 -110.304688 L 539.90625 -216.480469 L 669.738281 -194.976562 L 646.804688 -56.503906 C 638.046875 -3.609375 616.792969 42.769531 583.046875 82.632812 C 550.460938 121.128906 510.507812 149.503906 463.183594 167.757812 C 414.453125 186.558594 363.78125 191.605469 311.171875 182.890625 C 259.21875 174.289062 213.207031 153.234375 173.136719 119.726562 C 134.226562 87.1875 105.554688 47.449219 87.117188 0.507812 C 68.019531 -48.109375 62.851562 -98.863281 71.613281 -151.753906 L 94.542969 -290.230469 L 224.378906 -268.730469 L 116.546875 -193.292969 L 3.96875 -354.210938 C -26.113281 -399.195312 -43.132812 -447.011719 -47.089844 -497.664062 C -50.9375 -546.925781 -43.101562 -594.429688 -23.578125 -640.175781 C -2.863281 -688.722656 29.015625 -728.398438 72.054688 -759.207031 L 148.65625 -652.199219 L 68.644531 -756.683594 C 111.867188 -789.785156 159.582031 -808.839844 211.785156 -813.851562 C 262.34375 -818.703125 310.585938 -810.679688 356.519531 -789.773438 C 403.820312 -768.246094 442.554688 -734.910156 472.71875 -689.765625 L 363.292969 -616.65625 L 470.78125 -692.582031 L 535.820312 -600.511719 L 428.332031 -524.585938 L 349.699219 -630.109375 L 438.964844 -696.628906 Z M 596.230469 -485.574219 L 398.722656 -338.402344 L 254.820312 -542.121094 L 253.871094 -543.542969 C 251.457031 -547.152344 249.332031 -549.378906 247.492188 -550.214844 C 244.285156 -551.675781 240.765625 -552.222656 236.9375 -551.855469 C 234.753906 -551.644531 231.996094 -550.265625 228.667969 -547.714844 L 226.984375 -546.425781 L 225.257812 -545.191406 C 222.179688 -542.988281 219.929688 -540.214844 218.5 -536.871094 C 215.882812 -530.730469 214.816406 -524.492188 215.3125 -518.160156 C 215.699219 -513.214844 217.140625 -508.855469 219.632812 -505.085938 L 362.980469 -300.1875 L 331.277344 -108.753906 C 330.429688 -103.621094 330.703125 -99.273438 332.097656 -95.714844 C 334.152344 -90.484375 337.445312 -85.972656 341.976562 -82.183594 C 345.351562 -79.367188 349.414062 -77.5625 354.171875 -76.773438 C 359.589844 -75.878906 364.347656 -76.21875 368.445312 -77.800781 C 373.957031 -79.929688 378.53125 -83.136719 382.160156 -87.425781 C 384.628906 -90.34375 386.289062 -94.367188 387.140625 -99.503906 L 418.84375 -290.9375 L 618.332031 -437 C 623.414062 -440.886719 626.933594 -445.113281 628.894531 -449.671875 C 631.402344 -455.503906 632.40625 -461.753906 631.90625 -468.410156 C 631.632812 -472.035156 630.394531 -475.386719 628.191406 -478.464844 L 626.957031 -480.1875 L 625.777344 -481.953125 C 623.53125 -485.316406 621.328125 -487.480469 619.164062 -488.449219 C 615.089844 -490.273438 610.988281 -490.988281 606.867188 -490.59375 C 603.910156 -490.308594 600.25 -488.550781 595.886719 -485.324219 Z M 596.230469 -485.574219 "/></g></g></g><g fill="#9ac0df" fill-opacity="1"><g transform="translate(275.56234, 1066.859215)"><g><path d="M 371.9375 -784.28125 C 402.9375 -789.425781 432.25 -786.328125 459.875 -774.984375 C 487.5 -763.640625 511.023438 -746.367188 530.453125 -723.171875 C 549.890625 -699.972656 562.066406 -673.539062 566.984375 -643.875 C 572.128906 -612.875 569.222656 -583.421875 558.265625 -555.515625 C 547.304688 -527.617188 530.53125 -504.175781 507.9375 -485.1875 C 485.351562 -466.195312 458.5625 -454.128906 427.5625 -448.984375 C 403.164062 -444.941406 380.613281 -445.097656 359.90625 -449.453125 C 339.195312 -453.804688 321.253906 -454.726562 306.078125 -452.21875 C 295.535156 -450.46875 287.101562 -445.171875 280.78125 -436.328125 C 274.457031 -427.484375 272.171875 -417.785156 273.921875 -407.234375 C 275.554688 -397.347656 280.738281 -389.570312 289.46875 -383.90625 C 298.207031 -378.238281 307.847656 -376.28125 318.390625 -378.03125 C 333.566406 -380.539062 350.25 -387.203125 368.4375 -398.015625 C 386.625 -408.828125 407.914062 -416.253906 432.3125 -420.296875 C 463.3125 -425.441406 492.648438 -422.179688 520.328125 -410.515625 C 548.003906 -398.847656 571.585938 -381.25 591.078125 -357.71875 C 610.566406 -334.1875 622.878906 -306.925781 628.015625 -275.9375 C 632.941406 -246.269531 629.925781 -217.484375 618.96875 -189.578125 C 608.007812 -161.671875 591.289062 -137.890625 568.8125 -118.234375 C 546.332031 -98.585938 519.59375 -86.191406 488.59375 -81.046875 L 345.1875 -57.265625 C 297.707031 -49.390625 251.640625 -51.398438 206.984375 -63.296875 C 162.328125 -75.203125 121.269531 -94.984375 83.8125 -122.640625 C 46.363281 -150.304688 15.238281 -183.757812 -9.5625 -223 C -34.363281 -262.25 -50.644531 -305.285156 -58.40625 -352.109375 C -66.5 -400.898438 -64.984375 -447.898438 -53.859375 -493.109375 C -42.734375 -538.328125 -23.664062 -579.601562 3.34375 -616.9375 C 30.351562 -654.28125 63.453125 -685.515625 102.640625 -710.640625 C 141.835938 -735.773438 185.453125 -752.664062 233.484375 -761.3125 Z M 371.9375 -784.28125 "/></g></g></g><g fill="#9ac0df" fill-opacity="1"><g transform="translate(926.129733, 957.5066)"><g><path d="M 521.75 -52.3125 C 492.5 -49.320312 464.835938 -53.71875 438.765625 -65.5 C 412.691406 -77.28125 391.28125 -94.410156 374.53125 -116.890625 C 357.789062 -139.367188 347.925781 -165.234375 344.9375 -194.484375 L 341.46875 -228.40625 C 340.863281 -234.382812 338.179688 -239.316406 333.421875 -243.203125 C 328.660156 -247.085938 323.285156 -248.722656 317.296875 -248.109375 C 311.316406 -247.492188 306.382812 -244.800781 302.5 -240.03125 C 298.625 -235.269531 296.988281 -229.898438 297.59375 -223.921875 L 301.0625 -190 C 304.125 -160.082031 299.894531 -132.441406 288.375 -107.078125 C 276.863281 -81.710938 259.851562 -60.820312 237.34375 -44.40625 C 214.832031 -28 188.613281 -18.265625 158.6875 -15.203125 C 130.09375 -12.285156 102.945312 -16.566406 77.25 -28.046875 C 51.5625 -39.535156 30.34375 -56.515625 13.59375 -78.984375 C -3.144531 -101.460938 -13.046875 -127.660156 -16.109375 -157.578125 L -56.265625 -550.5625 C -59.328125 -580.476562 -54.914062 -607.972656 -43.03125 -633.046875 C -31.144531 -658.117188 -13.785156 -678.875 9.046875 -695.3125 C 31.890625 -711.757812 57.609375 -721.441406 86.203125 -724.359375 C 116.128906 -727.421875 143.773438 -723.191406 169.140625 -711.671875 C 194.503906 -700.160156 215.375 -683.3125 231.75 -661.125 C 248.125 -638.945312 257.84375 -612.898438 260.90625 -582.984375 L 264.578125 -547.078125 C 265.117188 -541.753906 267.769531 -537.148438 272.53125 -533.265625 C 277.300781 -529.378906 282.675781 -527.742188 288.65625 -528.359375 C 294.644531 -528.972656 299.578125 -531.660156 303.453125 -536.421875 C 307.328125 -541.191406 308.992188 -546.238281 308.453125 -551.5625 L 304.78125 -587.46875 C 301.789062 -616.726562 306.238281 -643.890625 318.125 -668.953125 C 330.007812 -694.015625 347.523438 -714.953125 370.671875 -731.765625 C 393.816406 -748.578125 420.015625 -758.476562 449.265625 -761.46875 C 478.515625 -764.457031 505.835938 -760.023438 531.234375 -748.171875 C 556.640625 -736.328125 577.695312 -719.332031 594.40625 -697.1875 C 611.113281 -675.039062 620.960938 -649.335938 623.953125 -620.078125 L 664.109375 -227.09375 C 667.097656 -197.84375 662.664062 -170.519531 650.8125 -145.125 C 638.96875 -119.726562 621.804688 -98.65625 599.328125 -81.90625 C 576.859375 -65.164062 551 -55.300781 521.75 -52.3125 Z M 521.75 -52.3125 "/></g></g></g><g fill="#9ac0df" fill-opacity="1"><g transform="translate(1607.333695, 892.109368)"><g/></g></g><g fill="#9ac0df" fill-opacity="1"><g transform="translate(1841.1793, 877.97593)"><g/></g></g><g fill="#9ac0df" fill-opacity="1"><g transform="translate(2075.27288, 868.953902)"><g/></g></g><g fill="#9ac0df" fill-opacity="1"><g transform="translate(2309.514394, 865.056142)"><g/></g></g><g fill="#9ac0df" fill-opacity="1"><g transform="translate(2539.604823, 862.118626)"><g><path d="M 503.484375 -689.390625 C 533.523438 -688.003906 560.394531 -679.40625 584.09375 -663.59375 C 607.789062 -647.78125 626.253906 -627.351562 639.484375 -602.3125 C 652.722656 -577.28125 658.664062 -550.078125 657.3125 -520.703125 C 655.988281 -491.992188 647.769531 -466.109375 632.65625 -443.046875 C 617.539062 -419.992188 597.789062 -401.671875 573.40625 -388.078125 C 549.019531 -374.484375 521.8125 -368.378906 491.78125 -369.765625 L 482.03125 -136.359375 C 480.675781 -106.984375 472.082031 -80.28125 456.25 -56.25 C 440.414062 -32.226562 419.972656 -13.429688 394.921875 0.140625 C 369.878906 13.710938 342.671875 19.820312 313.296875 18.46875 C 284.578125 17.144531 258.535156 8.582031 235.171875 -7.21875 C 211.816406 -23.019531 193.53125 -43.601562 180.3125 -68.96875 C 167.101562 -94.332031 161.175781 -121.703125 162.53125 -151.078125 L 173.28125 -384.4375 C 143.894531 -385.789062 117.519531 -394.363281 94.15625 -410.15625 C 70.800781 -425.957031 52.660156 -446.03125 39.734375 -470.375 C 26.816406 -494.726562 21.019531 -521.257812 22.34375 -549.96875 C 23.695312 -579.34375 31.941406 -605.894531 47.078125 -629.625 C 62.210938 -653.351562 82.132812 -672.003906 106.84375 -685.578125 C 131.5625 -699.160156 158.613281 -705.273438 188 -703.921875 Z M 503.484375 -689.390625 "/></g></g></g><g fill="#9ac0df" fill-opacity="1"><g transform="translate(3152.782889, 889.396505)"><g><path d="M 542.15625 -659.421875 C 572.070312 -656.316406 598.40625 -646.191406 621.15625 -629.046875 C 643.90625 -611.910156 661.164062 -590.460938 672.9375 -564.703125 C 684.71875 -538.953125 689.09375 -511.453125 686.0625 -482.203125 C 683.09375 -453.617188 673.398438 -428.25 656.984375 -406.09375 C 640.578125 -383.9375 619.8125 -366.769531 594.6875 -354.59375 C 569.570312 -342.425781 542.0625 -337.890625 512.15625 -340.984375 L 489.046875 -108.53125 C 486.015625 -79.28125 475.90625 -53.113281 458.71875 -30.03125 C 441.539062 -6.945312 420.054688 10.648438 394.265625 22.765625 C 368.484375 34.878906 340.96875 39.414062 311.71875 36.375 C 283.125 33.414062 257.617188 23.378906 235.203125 6.265625 C 212.796875 -10.847656 195.722656 -32.445312 183.984375 -58.53125 C 172.242188 -84.613281 167.890625 -112.28125 170.921875 -141.53125 L 195.03125 -373.890625 C 165.769531 -376.921875 139.929688 -386.988281 117.515625 -404.09375 C 95.097656 -421.207031 78.132812 -442.289062 66.625 -467.34375 C 55.113281 -492.394531 50.84375 -519.210938 53.8125 -547.796875 C 56.84375 -577.046875 66.59375 -603.082031 83.0625 -625.90625 C 99.539062 -648.726562 120.503906 -666.207031 145.953125 -678.34375 C 171.410156 -690.488281 198.769531 -695.046875 228.03125 -692.015625 Z M 542.15625 -659.421875 "/></g></g></g><g fill="#9ac0df" fill-opacity="1"><g transform="translate(3773.640158, 952.273329)"><g><path d="M 517.609375 -591.109375 C 541.535156 -608.816406 567.09375 -618.972656 594.28125 -621.578125 C 621.476562 -624.191406 647.691406 -619.851562 672.921875 -608.5625 C 698.148438 -597.28125 718.910156 -579.453125 735.203125 -555.078125 C 751.703125 -532.015625 761.007812 -506.414062 763.125 -478.28125 C 765.25 -450.15625 760.800781 -423.285156 749.78125 -397.671875 C 738.769531 -372.066406 721.625 -350.347656 698.34375 -332.515625 L 539.890625 -216.46875 L 516.96875 -78 C 512.15625 -48.976562 500.695312 -23.769531 482.59375 -2.375 C 464.488281 19.007812 442.226562 34.796875 415.8125 44.984375 C 389.394531 55.179688 361.679688 57.875 332.671875 53.0625 C 304.316406 48.375 279.28125 36.945312 257.5625 18.78125 C 235.84375 0.613281 219.851562 -21.507812 209.59375 -47.59375 C 199.34375 -73.6875 196.625 -101.242188 201.4375 -130.265625 L 224.359375 -268.734375 L 111.796875 -429.65625 C 95.515625 -454.03125 86.285156 -480.113281 84.109375 -507.90625 C 81.941406 -535.707031 86.390625 -562.578125 97.453125 -588.515625 C 108.523438 -614.460938 125.59375 -635.695312 148.65625 -652.21875 C 171.9375 -670.03125 197.171875 -680.238281 224.359375 -682.84375 C 251.546875 -685.457031 277.425781 -681.171875 302 -669.984375 C 326.570312 -658.804688 347.003906 -641.035156 363.296875 -616.671875 L 428.328125 -524.59375 Z M 517.609375 -591.109375 "/></g></g></g></g></g><g transform="matrix(1, 0, 0, 1, 1590, 206)"><g clip-path="url(#06564ca539)"><g fill="#ffef42" fill-opacity="1"><g transform="translate(435.902366, 1092.212317)"><g><path d="M 63.375 89.117188 C 11.375 83.417969 -35.339844 65.507812 -76.761719 35.390625 C -117.972656 5.429688 -149.144531 -32.695312 -170.277344 -78.988281 C -191.660156 -125.816406 -199.816406 -174.984375 -194.742188 -226.484375 L -152.042969 -668.628906 C -146.5 -728.429688 -125.351562 -780.425781 -88.605469 -824.605469 C -54.28125 -865.875 -12.203125 -895.757812 37.636719 -914.257812 C 88.042969 -932.964844 139.871094 -937.5 193.125 -927.859375 C 249.507812 -917.652344 299.476562 -890.984375 343.023438 -847.859375 L 659.519531 -532.828125 C 697.007812 -497.011719 722.265625 -453.371094 735.300781 -401.914062 C 747.550781 -353.550781 747.671875 -305.234375 735.664062 -256.96875 C 723.121094 -206.539062 697.851562 -162.246094 659.859375 -124.085938 C 622.191406 -87.070312 578.578125 -61.945312 529.015625 -48.703125 C 479.179688 -35.390625 429.601562 -35.3125 380.28125 -48.460938 C 331.371094 -61.507812 288.3125 -86.1875 251.105469 -122.5 L 102.105469 -270.800781 L 97.148438 -277.109375 C 107.726562 -263.644531 120.53125 -252.730469 135.570312 -244.363281 C 153.59375 -234.332031 172.914062 -228.941406 193.523438 -228.191406 C 220.972656 -227.195312 245.921875 -234.195312 268.359375 -249.191406 C 281.960938 -258.28125 293.398438 -269.636719 302.671875 -283.257812 C 314.394531 -300.46875 321.496094 -319.417969 323.980469 -340.101562 C 326.039062 -357.261719 324.683594 -374.085938 319.910156 -390.578125 C 316.90625 -400.945312 312.671875 -410.675781 307.203125 -419.765625 L 194.433594 -351.929688 L 304.460938 -424.128906 L 392.925781 -289.320312 L 382.570312 -172.265625 C 376.6875 -118.4375 358.691406 -70.8125 328.570312 -29.390625 C 298.609375 11.820312 260.484375 42.992188 214.195312 64.128906 C 168.195312 85.128906 119.253906 93.585938 67.367188 89.492188 L 65.367188 89.335938 Z M 92.050781 -172.519531 L 77.710938 -41.699219 L 88.054688 -172.894531 C 94.625 -172.375 100.230469 -173.179688 104.878906 -175.300781 C 109.234375 -177.289062 112.835938 -180.242188 115.6875 -184.167969 C 118.386719 -187.875 119.953125 -191.640625 120.390625 -195.460938 L 126.714844 -266.957031 L 257.804688 -255.359375 L 147.777344 -183.15625 L 82.992188 -281.882812 L 81.664062 -284.09375 C 65.269531 -311.347656 58.933594 -340.476562 62.65625 -371.476562 C 65.273438 -393.273438 72.761719 -413.246094 85.121094 -431.398438 C 95.035156 -445.960938 107.367188 -458.167969 122.113281 -468.023438 C 146.84375 -484.550781 173.835938 -492.285156 203.085938 -491.222656 C 224.59375 -490.4375 244.75 -484.816406 263.550781 -474.355469 C 279.363281 -465.554688 292.886719 -454.007812 304.117188 -439.710938 L 200.632812 -358.410156 L 293.472656 -451.683594 L 434.949219 -310.855469 C 439.246094 -306.664062 443.628906 -303.96875 448.101562 -302.777344 C 452.167969 -301.691406 456.5 -301.765625 461.089844 -302.992188 C 465.960938 -304.292969 470.042969 -306.554688 473.332031 -309.78125 C 477.105469 -313.574219 479.410156 -317.148438 480.25 -320.511719 C 481.621094 -326.03125 481.589844 -331.625 480.15625 -337.285156 C 479.507812 -339.855469 477.398438 -342.855469 473.839844 -346.285156 L 157.820312 -660.839844 C 152.9375 -665.675781 149.074219 -668.351562 146.234375 -668.867188 C 140.257812 -669.949219 134.585938 -669.496094 129.222656 -667.503906 C 123.289062 -665.300781 118.128906 -661.566406 113.75 -656.300781 C 111.796875 -653.949219 110.523438 -649.625 109.941406 -643.328125 L 67.191406 -200.679688 C 66.753906 -196.242188 67.40625 -192.117188 69.148438 -188.304688 C 71.136719 -183.949219 74.09375 -180.34375 78.015625 -177.492188 C 81.726562 -174.792969 86.402344 -173.136719 92.050781 -172.519531 Z M 92.050781 -172.519531 "/></g></g></g><g fill="#9ac0df" fill-opacity="1"><g transform="translate(435.902366, 1092.212317)"><g><path d="M 77.71875 -41.6875 C 48.882812 -44.851562 23.179688 -54.640625 0.609375 -71.046875 C -21.953125 -87.460938 -39.007812 -108.328125 -50.5625 -133.640625 C -62.125 -158.960938 -66.523438 -185.609375 -63.765625 -213.578125 L -21.046875 -655.953125 C -17.984375 -689.015625 -6.773438 -717.179688 12.578125 -740.453125 C 31.929688 -763.722656 55.550781 -780.53125 83.4375 -790.875 C 111.320312 -801.226562 140.070312 -803.722656 169.6875 -798.359375 C 199.300781 -792.992188 226.210938 -778.320312 250.421875 -754.34375 L 566.6875 -439.546875 C 587.195312 -419.921875 600.875 -396.601562 607.71875 -369.59375 C 614.5625 -342.582031 614.632812 -315.628906 607.9375 -288.734375 C 601.25 -261.835938 587.46875 -237.898438 566.59375 -216.921875 C 546.113281 -196.804688 522.265625 -183.109375 495.046875 -175.828125 C 467.835938 -168.554688 440.882812 -168.484375 414.1875 -175.609375 C 387.5 -182.734375 363.78125 -196.425781 343.03125 -216.6875 L 200.625 -358.421875 C 199.320312 -360.066406 197.523438 -360.125 195.234375 -358.59375 C 192.953125 -357.070312 192.6875 -354.851562 194.4375 -351.9375 L 257.8125 -255.34375 L 251.46875 -183.859375 C 248.3125 -155.035156 238.53125 -129.335938 222.125 -106.765625 C 205.726562 -84.191406 184.863281 -67.125 159.53125 -55.5625 C 134.207031 -44.007812 106.9375 -39.382812 77.71875 -41.6875 Z M 77.71875 -41.6875 "/></g></g></g></g></g></svg>