<svg xmlns="http://www.w3.org/2000/svg" xmlns:xlink="http://www.w3.org/1999/xlink" width="6912" zoomAndPan="magnify" viewBox="0 0 5184 2592.000001" height="3456" preserveAspectRatio="xMidYMid meet" version="1.0"><defs><g/><clipPath id="e562f5677e"><rect x="0" width="4739" y="0" height="1376"/></clipPath><clipPath id="dcd65fb837"><rect x="0" width="999" y="0" height="1177"/></clipPath></defs><g transform="matrix(1, 0, 0, 1, 222, 873)"><g clip-path="url(#e562f5677e)"><g fill="#ffef42" fill-opacity="1"><g transform="translate(279.292772, 1093.349249)"><g><path d="M 371.804688 -948.039062 C 429.707031 -957.1875 484.9375 -950.738281 537.507812 -928.6875 C 586.929688 -907.957031 628.824219 -876.753906 663.183594 -835.082031 C 699.054688 -791.578125 721.378906 -742.074219 730.144531 -686.570312 C 739.175781 -629.417969 733.191406 -574.6875 712.1875 -522.378906 C 691.929688 -471.921875 661.039062 -429.515625 619.515625 -395.152344 C 576.605469 -359.644531 526.667969 -337.390625 469.707031 -328.390625 C 427.347656 -321.699219 387.03125 -322.53125 348.757812 -330.890625 C 344.976562 -331.714844 341.984375 -332.195312 339.785156 -332.324219 C 340.320312 -332.292969 341.515625 -332.425781 343.375 -332.71875 C 355.972656 -334.707031 367.859375 -339.148438 379.035156 -346.046875 C 389.9375 -352.773438 399.019531 -361.125 406.273438 -371.105469 C 413.53125 -381.085938 418.679688 -392.296875 421.714844 -404.746094 C 424.828125 -417.503906 425.390625 -430.179688 423.402344 -442.773438 C 421.152344 -457.011719 415.980469 -470.300781 407.882812 -482.648438 C 400.21875 -494.339844 390.785156 -503.878906 379.578125 -511.273438 C 369.636719 -517.835938 358.691406 -522.378906 346.742188 -524.898438 C 335.28125 -527.320312 323.988281 -527.648438 312.855469 -525.890625 C 310.996094 -525.597656 309.816406 -525.351562 309.316406 -525.15625 C 311.371094 -525.960938 314.070312 -527.335938 317.414062 -529.289062 C 351.246094 -549.039062 389.339844 -562.257812 431.699219 -568.953125 C 490.058594 -578.171875 545.71875 -571.378906 598.671875 -548.578125 C 647.894531 -527.382812 689.605469 -495.808594 723.804688 -453.859375 C 759.449219 -410.136719 781.746094 -359.96875 790.691406 -303.359375 C 799.503906 -247.578125 793.40625 -193.535156 772.40625 -141.230469 C 752.496094 -91.640625 722.328125 -49.453125 681.910156 -14.675781 C 638.703125 22.503906 588.148438 45.667969 530.25 54.816406 L 380.878906 78.417969 C 311.992188 89.300781 244.878906 85.765625 179.542969 67.816406 C 116.453125 50.480469 58.601562 22.066406 5.992188 -17.425781 C -46.4375 -56.78125 -89.910156 -104.242188 -124.433594 -159.8125 C -159.664062 -216.515625 -182.570312 -278.367188 -193.15625 -345.363281 C -204.117188 -414.730469 -201.308594 -481.980469 -184.738281 -547.117188 C -168.414062 -611.277344 -140.792969 -669.828125 -101.878906 -722.773438 C -63.25 -775.328125 -16.140625 -819.132812 39.453125 -854.183594 C 95.753906 -889.679688 157.847656 -913.269531 225.738281 -924.949219 Z M 414.53125 -677.605469 L 272.164062 -655.128906 C 240.003906 -649.59375 211.105469 -638.746094 185.46875 -622.582031 C 159.125 -605.972656 136.878906 -585.320312 118.730469 -560.628906 C 100.867188 -536.324219 88.15625 -509.320312 80.597656 -479.609375 C 73.285156 -450.867188 72.179688 -420.363281 77.277344 -388.089844 C 82.097656 -357.566406 92.382812 -329.636719 108.125 -304.296875 C 124.574219 -277.816406 145.320312 -255.179688 170.359375 -236.386719 C 195.210938 -217.726562 222.453125 -204.328125 252.078125 -196.191406 C 279.457031 -188.667969 308.148438 -187.277344 338.152344 -192.015625 L 487.523438 -215.617188 C 494.179688 -216.667969 499.449219 -218.863281 503.332031 -222.207031 C 510.007812 -227.953125 515.007812 -234.964844 518.332031 -243.246094 C 520.566406 -248.808594 521.207031 -254.605469 520.257812 -260.632812 C 519 -268.578125 516.117188 -275.320312 511.601562 -280.859375 C 505.636719 -288.171875 498.566406 -293.589844 490.386719 -297.113281 C 485.941406 -299.027344 480.617188 -299.496094 474.425781 -298.519531 C 465.964844 -297.179688 459.636719 -295.289062 455.445312 -292.84375 C 421.613281 -273.09375 388.328125 -260.632812 355.582031 -255.457031 C 333.464844 -251.964844 311.667969 -252.484375 290.195312 -257.015625 C 268.234375 -261.652344 247.765625 -270.230469 228.785156 -282.753906 C 208.542969 -296.113281 191.921875 -312.703125 178.925781 -332.523438 C 165.496094 -353.003906 156.84375 -375.511719 152.96875 -400.050781 C 149.242188 -423.632812 150.164062 -446.835938 155.734375 -469.660156 C 161.230469 -492.175781 170.929688 -512.992188 184.835938 -532.117188 C 198.742188 -551.246094 215.558594 -566.890625 235.28125 -579.058594 C 255.277344 -591.394531 277.066406 -599.425781 300.648438 -603.152344 C 333.394531 -608.324219 368.902344 -606.730469 407.175781 -598.375 C 411.917969 -597.339844 418.519531 -597.488281 426.980469 -598.824219 C 434.570312 -600.023438 440.566406 -602.445312 444.96875 -606.085938 C 450.753906 -610.878906 455.136719 -616.980469 458.117188 -624.394531 C 460.351562 -629.957031 460.882812 -636.441406 459.710938 -643.84375 C 458.71875 -650.144531 456.128906 -655.832031 451.945312 -660.90625 C 446.253906 -667.808594 439.472656 -672.910156 431.605469 -676.210938 C 426.878906 -678.191406 421.1875 -678.660156 414.53125 -677.605469 Z M 414.53125 -677.605469 "/></g></g></g><g fill="#ffef42" fill-opacity="1"><g transform="translate(956.882228, 984.807895)"><g><path d="M 555.996094 86.042969 C 501.058594 91.230469 448.914062 82.441406 399.570312 59.679688 C 351.125 37.332031 311.3125 4.882812 280.125 -37.660156 C 248.007812 -81.480469 229.324219 -131.152344 224.082031 -186.675781 L 220.746094 -221.976562 C 222.179688 -206.8125 226.535156 -192.421875 233.820312 -178.808594 C 240.90625 -165.5625 250.132812 -154.234375 261.496094 -144.832031 C 272.859375 -135.429688 285.714844 -128.488281 300.054688 -124.007812 C 314.789062 -119.398438 329.742188 -117.8125 344.90625 -119.246094 C 360.070312 -120.679688 374.460938 -125.035156 388.074219 -132.320312 C 401.320312 -139.40625 412.648438 -148.632812 422.050781 -159.996094 C 431.453125 -171.359375 438.394531 -184.210938 442.875 -198.550781 C 447.484375 -213.289062 449.070312 -228.238281 447.636719 -243.40625 L 450.972656 -208.101562 C 456.234375 -152.390625 447.585938 -100.195312 425.03125 -51.515625 C 402.75 -3.433594 370.078125 36.050781 327.019531 66.9375 C 283.421875 98.207031 233.769531 116.472656 178.058594 121.734375 C 124.019531 126.839844 72.59375 118.257812 23.773438 95.988281 C -24.523438 73.960938 -64.328125 41.585938 -95.636719 -1.125 C -127.757812 -44.945312 -146.472656 -94.964844 -151.78125 -151.179688 L -190.414062 -560.265625 C -195.75 -616.78125 -186.59375 -669.5 -162.941406 -718.417969 C -140.144531 -765.558594 -107.210938 -804.382812 -64.136719 -834.890625 C -20.351562 -865.902344 28.5625 -883.960938 82.597656 -889.066406 C 138.308594 -894.328125 190.503906 -885.679688 239.183594 -863.125 C 286.996094 -840.96875 326.300781 -808.695312 357.097656 -766.308594 C 388.636719 -722.90625 407.046875 -673.199219 412.335938 -617.1875 L 415.867188 -579.8125 C 414.292969 -596.476562 409.375 -612.097656 401.113281 -626.675781 C 394.195312 -638.882812 385.496094 -649.324219 375.019531 -657.992188 C 363.65625 -667.394531 350.800781 -674.339844 336.460938 -678.820312 C 321.726562 -683.425781 306.773438 -685.011719 291.609375 -683.582031 C 276.445312 -682.148438 262.054688 -677.789062 248.441406 -670.507812 C 235.195312 -663.421875 223.871094 -654.195312 214.464844 -642.832031 C 205.796875 -632.351562 199.207031 -620.46875 194.695312 -607.183594 C 189.308594 -591.3125 187.402344 -575.046875 188.976562 -558.382812 L 185.445312 -595.761719 C 180.175781 -651.585938 189.367188 -703.957031 213.019531 -752.878906 C 235.722656 -799.828125 268.652344 -838.726562 311.8125 -869.574219 C 356.023438 -901.175781 405.597656 -919.570312 460.535156 -924.757812 C 516.058594 -930 568.347656 -920.949219 617.40625 -897.597656 C 664.242188 -875.308594 703.03125 -843.460938 733.777344 -802.058594 C 766.167969 -758.433594 785.003906 -708.707031 790.273438 -652.882812 L 828.910156 -243.796875 C 834.152344 -188.273438 825.101562 -135.980469 801.75 -86.921875 C 779.332031 -39.816406 747.085938 -0.84375 705.007812 29.996094 C 661.1875 62.117188 611.519531 80.800781 555.996094 86.042969 Z M 530.253906 -186.53125 C 535.644531 -187.042969 539.941406 -188.472656 543.148438 -190.820312 C 548.101562 -194.453125 551.894531 -199.039062 554.535156 -204.582031 C 556.242188 -208.171875 556.84375 -212.664062 556.332031 -218.054688 L 517.699219 -627.140625 C 517.21875 -632.226562 515.972656 -636.125 513.960938 -638.835938 C 510.300781 -643.765625 505.5625 -647.617188 499.746094 -650.382812 C 496.15625 -652.089844 491.667969 -652.691406 486.277344 -652.183594 C 480.300781 -651.617188 475.214844 -649.835938 471.015625 -646.832031 C 465.761719 -643.078125 461.925781 -638.699219 459.503906 -633.691406 C 458.035156 -630.65625 457.542969 -626.589844 458.023438 -621.503906 L 461.550781 -584.125 C 463.648438 -561.921875 461.117188 -540.273438 453.953125 -519.171875 C 447.667969 -500.65625 438.152344 -483.695312 425.410156 -468.292969 C 411.929688 -452.003906 395.992188 -438.9375 377.59375 -429.09375 C 358.828125 -419.054688 338.746094 -413.027344 317.351562 -411.003906 C 295.957031 -408.984375 275.101562 -411.148438 254.789062 -417.496094 C 234.871094 -423.722656 216.769531 -433.574219 200.480469 -447.050781 C 185.078125 -459.792969 172.558594 -474.671875 162.914062 -491.6875 C 151.929688 -511.074219 145.390625 -531.867188 143.292969 -554.070312 L 139.761719 -591.445312 C 139.167969 -597.734375 137.78125 -602.375 135.605469 -605.375 C 132.691406 -609.386719 128.847656 -612.496094 124.074219 -614.707031 C 120.171875 -616.519531 114.925781 -617.113281 108.339844 -616.488281 C 102.847656 -615.972656 98.101562 -614.296875 94.105469 -611.464844 C 89.394531 -608.128906 85.875 -604.050781 83.546875 -599.234375 C 82.078125 -596.195312 81.613281 -591.789062 82.160156 -586.007812 L 120.792969 -176.921875 C 121.367188 -170.839844 122.832031 -166.195312 125.183594 -162.988281 C 128.34375 -158.675781 132.414062 -155.382812 137.390625 -153.109375 C 141.847656 -151.078125 146.824219 -150.320312 152.316406 -150.839844 C 158.902344 -151.460938 163.941406 -153.027344 167.441406 -155.535156 C 171.46875 -158.425781 174.527344 -162.125 176.613281 -166.625 C 178.425781 -170.53125 179.019531 -175.777344 178.394531 -182.359375 L 175.0625 -217.664062 C 173.042969 -239.058594 175.207031 -259.910156 181.554688 -280.226562 C 187.78125 -300.140625 197.628906 -318.246094 211.109375 -334.53125 C 224.585938 -350.820312 240.523438 -363.886719 258.921875 -373.730469 C 277.6875 -383.769531 297.769531 -389.800781 319.164062 -391.820312 C 340.558594 -393.839844 361.414062 -391.675781 381.726562 -385.328125 C 401.644531 -379.105469 419.746094 -369.253906 436.035156 -355.773438 C 452.324219 -342.296875 465.390625 -326.359375 475.230469 -307.960938 C 485.273438 -289.195312 491.300781 -269.113281 493.320312 -247.71875 L 496.65625 -212.417969 C 497.164062 -207.027344 498.59375 -202.726562 500.945312 -199.523438 C 504.230469 -195.039062 508.667969 -191.507812 514.257812 -188.929688 C 518.945312 -186.765625 524.277344 -185.96875 530.253906 -186.53125 Z M 530.253906 -186.53125 "/></g></g></g><g fill="#ffef42" fill-opacity="1"><g transform="translate(1660.451639, 917.123099)"><g><path d="M 34.109375 108.515625 C -15.515625 86.191406 -55.988281 53.480469 -87.3125 10.382812 C -118.472656 -32.488281 -137.082031 -80.214844 -143.140625 -132.800781 C -149.265625 -186 -141.558594 -237.265625 -120.007812 -286.597656 L 64.132812 -710.386719 C 88.808594 -767.78125 126.417969 -812.441406 176.957031 -844.363281 C 224.164062 -874.183594 275.390625 -890.25 330.640625 -892.558594 C 386.523438 -894.894531 439.261719 -882.75 488.859375 -856.121094 C 541.375 -827.921875 582.257812 -785.5 611.507812 -728.855469 L 823.574219 -315.570312 C 849.171875 -268.097656 860.164062 -216.8125 856.546875 -161.714844 C 853.148438 -109.925781 837.761719 -62.082031 810.390625 -18.175781 C 781.792969 27.695312 742.574219 63.414062 692.738281 88.980469 C 643.589844 113.519531 592.371094 124.386719 539.082031 121.578125 C 485.496094 118.757812 436.414062 102.925781 391.832031 74.085938 C 347.621094 45.484375 312.9375 7.246094 287.777344 -40.628906 L 187.9375 -235.183594 L 185.054688 -243.019531 C 191.199219 -226.300781 200.371094 -211.390625 212.5625 -198.285156 C 227.179688 -182.574219 244.566406 -171.042969 264.71875 -163.6875 C 291.558594 -153.890625 318.488281 -152.808594 345.507812 -160.449219 C 361.882812 -165.078125 376.84375 -172.640625 390.390625 -183.144531 C 407.511719 -196.414062 420.621094 -212.882812 429.71875 -232.554688 C 437.261719 -248.867188 441.316406 -265.953125 441.886719 -283.804688 C 442.246094 -295.027344 441.175781 -306.011719 438.683594 -316.761719 L 305.328125 -285.828125 L 437.371094 -321.960938 L 481.640625 -160.179688 L 433.828125 -47.679688 C 410.734375 3.695312 377.640625 45.042969 334.546875 76.363281 C 291.675781 107.527344 243.945312 126.132812 191.359375 132.191406 C 139.105469 138.210938 87.964844 130.871094 37.9375 110.171875 L 36.011719 109.375 Z M 146.445312 -141.164062 L 90.277344 -16.324219 L 142.613281 -142.816406 C 148.949219 -140.195312 154.753906 -139.191406 160.03125 -139.796875 C 164.976562 -140.367188 169.492188 -142.136719 173.574219 -145.101562 C 177.433594 -147.90625 180.191406 -151.128906 181.851562 -154.769531 L 211.054688 -223.480469 L 337.042969 -169.9375 L 205.003906 -133.804688 L 172.582031 -252.285156 L 171.976562 -254.894531 C 164.5 -287.125 167.578125 -317.980469 181.207031 -347.460938 C 190.792969 -368.1875 204.613281 -385.550781 222.671875 -399.542969 C 237.152344 -410.769531 253.269531 -418.890625 271.023438 -423.910156 C 300.800781 -432.328125 329.988281 -431.316406 358.589844 -420.878906 C 379.621094 -413.203125 397.761719 -401.171875 413.007812 -384.785156 C 425.828125 -371.003906 435.503906 -355.238281 442.027344 -337.488281 L 313.542969 -290.253906 L 435.335938 -352.75 L 530.132812 -168 C 533.035156 -162.472656 536.511719 -158.402344 540.554688 -155.789062 C 544.230469 -153.410156 548.535156 -152.089844 553.476562 -151.828125 C 558.710938 -151.554688 563.472656 -152.484375 567.769531 -154.621094 C 572.71875 -157.160156 576.148438 -159.960938 578.054688 -163.015625 C 581.183594 -168.039062 582.949219 -173.582031 583.347656 -179.648438 C 583.527344 -182.398438 582.40625 -186.042969 579.980469 -190.578125 L 368.234375 -603.238281 C 364.957031 -609.59375 361.992188 -613.480469 359.347656 -614.902344 C 353.78125 -617.886719 348.023438 -619.257812 342.078125 -619.007812 C 335.496094 -618.734375 329.195312 -616.695312 323.171875 -612.890625 C 320.484375 -611.191406 317.839844 -607.320312 315.238281 -601.277344 L 130.886719 -177.003906 C 129.03125 -172.753906 128.351562 -168.460938 128.851562 -164.128906 C 129.421875 -159.183594 131.1875 -154.667969 134.15625 -150.585938 C 136.960938 -146.730469 141.058594 -143.585938 146.445312 -141.164062 Z M 146.445312 -141.164062 "/></g></g></g><g fill="#ffef42" fill-opacity="1"><g transform="translate(2376.212316, 899.686315)"><g/></g></g><g fill="#ffef42" fill-opacity="1"><g transform="translate(2619.891681, 902.401011)"><g/></g></g><g fill="#ffef42" fill-opacity="1"><g transform="translate(2863.453668, 910.446855)"><g/></g></g><g fill="#ffef42" fill-opacity="1"><g transform="translate(3102.664709, 919.258125)"><g><path d="M 571.742188 -826.519531 C 628.148438 -821.105469 678.441406 -802.015625 722.625 -769.25 C 764.988281 -737.832031 797.285156 -698.308594 819.515625 -650.675781 C 842.492188 -601.441406 851.332031 -549.210938 846.03125 -493.992188 C 840.789062 -439.375 822.371094 -390.390625 790.769531 -347.035156 C 760.667969 -305.742188 722.554688 -273.691406 676.425781 -250.886719 C 627.097656 -226.503906 573.929688 -217.046875 516.917969 -222.519531 L 529.996094 -358.785156 L 666.320312 -346.292969 L 644.144531 -104.308594 C 638.789062 -48.496094 619.859375 1.597656 587.355469 45.980469 C 556.132812 88.613281 516.832031 121.277344 469.445312 143.976562 C 419.835938 167.742188 367.175781 176.953125 311.460938 171.605469 C 256.140625 166.296875 206.488281 147.121094 162.503906 114.082031 C 120.578125 82.589844 88.582031 42.832031 66.511719 -5.195312 C 43.824219 -54.574219 35.113281 -106.730469 40.386719 -161.660156 L 63.601562 -403.546875 L 199.867188 -390.46875 L 186.789062 -254.203125 C 130.777344 -259.578125 80.777344 -278.785156 36.792969 -311.824219 C -4.832031 -343.089844 -36.554688 -381.992188 -58.378906 -428.527344 C -81.15625 -477.101562 -89.925781 -528.699219 -84.683594 -583.316406 C -79.433594 -638.035156 -61.265625 -687.265625 -30.1875 -731.007812 C 0.273438 -773.875 39.171875 -806.828125 86.511719 -829.863281 C 135.976562 -853.933594 188.714844 -863.28125 244.730469 -857.90625 Z M 545.585938 -553.984375 L 218.574219 -585.367188 C 213.679688 -585.839844 209.59375 -585.273438 206.304688 -583.675781 C 200.890625 -581.039062 196.453125 -577.289062 192.996094 -572.425781 C 190.160156 -568.433594 188.445312 -563.34375 187.851562 -557.160156 C 187.382812 -552.257812 187.933594 -548.128906 189.503906 -544.773438 C 192.035156 -539.382812 195.941406 -534.703125 201.226562 -530.734375 C 204.148438 -528.539062 208.054688 -527.207031 212.945312 -526.738281 L 349.214844 -513.660156 L 312.921875 -135.503906 C 312.347656 -129.53125 313.140625 -124.199219 315.292969 -119.507812 C 318.070312 -113.464844 321.953125 -108.570312 326.933594 -104.828125 C 329.855469 -102.632812 333.417969 -101.332031 337.617188 -100.929688 C 342.808594 -100.433594 347.320312 -101.101562 351.15625 -102.941406 C 357.21875 -105.84375 362.320312 -110.125 366.46875 -115.785156 C 369.332031 -119.695312 371.007812 -124.199219 371.496094 -129.292969 L 406.222656 -508.1875 L 543.074219 -495.054688 C 548.351562 -494.546875 552.359375 -494.972656 555.09375 -496.324219 C 561.023438 -499.253906 565.832031 -503.25 569.515625 -508.304688 C 571.699219 -511.296875 573.027344 -515.246094 573.496094 -520.148438 C 574.042969 -525.835938 573.347656 -530.746094 571.414062 -534.890625 C 568.734375 -540.636719 564.773438 -545.453125 559.535156 -549.335938 C 556.121094 -551.871094 551.46875 -553.421875 545.585938 -553.984375 Z M 545.585938 -553.984375 "/></g></g></g><g fill="#ffef42" fill-opacity="1"><g transform="translate(3748.96084, 979.683283)"><g><path d="M 451.394531 -728.398438 C 496.394531 -762.242188 545.621094 -781.9375 599.082031 -787.484375 C 651.324219 -792.902344 701.65625 -785 750.070312 -763.777344 C 800.480469 -741.679688 841.640625 -707.144531 873.550781 -660.171875 L 760.3125 -583.246094 L 871.011719 -663.78125 C 903.402344 -619.257812 921.871094 -569.640625 926.410156 -514.925781 C 930.6875 -463.363281 922.855469 -413.898438 902.910156 -366.523438 C 882.402344 -317.820312 850.707031 -276.78125 807.820312 -243.414062 L 641.605469 -119.671875 L 559.875 -229.492188 L 695.097656 -208.164062 L 672.347656 -63.941406 C 663.660156 -8.851562 641.921875 39.5625 607.136719 81.296875 C 573.550781 121.597656 532.21875 151.433594 483.140625 170.800781 C 432.601562 190.746094 379.933594 196.398438 325.136719 187.757812 C 271.027344 179.222656 223 157.6875 181.050781 123.15625 C 140.316406 89.621094 110.175781 48.511719 90.621094 -0.167969 C 70.371094 -50.585938 64.589844 -103.335938 73.277344 -158.425781 L 96.027344 -302.652344 L 231.25 -281.324219 L 119.683594 -201.992188 L 1.296875 -368.476562 C -30.351562 -415.03125 -48.4375 -464.632812 -52.957031 -517.285156 C -57.355469 -568.5 -49.582031 -617.976562 -29.640625 -665.714844 C -8.480469 -716.378906 24.363281 -757.902344 68.882812 -790.296875 L 149.421875 -679.597656 L 65.355469 -787.640625 C 110.054688 -822.417969 159.535156 -842.621094 213.796875 -848.25 C 266.347656 -853.703125 316.59375 -845.738281 364.539062 -824.359375 C 413.914062 -802.347656 454.46875 -767.980469 486.203125 -721.265625 L 372.96875 -644.339844 L 484.171875 -724.175781 L 552.554688 -628.925781 L 441.351562 -549.089844 L 358.71875 -658.226562 L 451.039062 -728.128906 Z M 616.3125 -509.851562 L 412.042969 -355.1875 L 260.730469 -565.945312 L 259.730469 -567.414062 C 257.191406 -571.152344 254.964844 -573.449219 253.042969 -574.304688 C 249.695312 -575.796875 246.03125 -576.335938 242.050781 -575.925781 C 239.78125 -575.6875 236.925781 -574.234375 233.484375 -571.554688 L 231.742188 -570.199219 L 229.957031 -568.898438 C 226.773438 -566.585938 224.453125 -563.679688 222.996094 -560.191406 C 220.316406 -553.785156 219.261719 -547.289062 219.828125 -540.703125 C 220.269531 -535.5625 221.800781 -531.039062 224.425781 -527.140625 L 375.167969 -315.152344 L 343.722656 -115.769531 C 342.878906 -110.421875 343.199219 -105.90625 344.679688 -102.214844 C 346.859375 -96.789062 350.320312 -92.125 355.066406 -88.21875 C 358.59375 -85.3125 362.835938 -83.46875 367.792969 -82.6875 C 373.433594 -81.800781 378.378906 -82.191406 382.632812 -83.871094 C 388.347656 -86.128906 393.078125 -89.5 396.820312 -93.992188 C 399.367188 -97.046875 401.0625 -101.246094 401.90625 -106.59375 L 433.351562 -305.972656 L 639.691406 -459.5 C 644.945312 -463.585938 648.574219 -468.007812 650.574219 -472.765625 C 653.140625 -478.855469 654.132812 -485.359375 653.558594 -492.28125 C 653.246094 -496.050781 651.933594 -499.527344 649.617188 -502.710938 L 648.316406 -504.496094 L 647.078125 -506.320312 C 644.714844 -509.800781 642.402344 -512.035156 640.144531 -513.027344 C 635.890625 -514.890625 631.621094 -515.601562 627.335938 -515.15625 C 624.265625 -514.835938 620.472656 -512.980469 615.957031 -509.585938 Z M 616.3125 -509.851562 "/></g></g></g><g fill="#9ac0df" fill-opacity="1"><g transform="translate(279.292772, 1093.349249)"><g><path d="M 393.171875 -812.8125 C 425.453125 -817.914062 455.910156 -814.457031 484.546875 -802.4375 C 513.191406 -790.425781 537.53125 -772.273438 557.5625 -747.984375 C 577.59375 -723.703125 590.050781 -696.113281 594.9375 -665.21875 C 600.039062 -632.9375 596.78125 -602.328125 585.15625 -573.390625 C 573.53125 -544.453125 555.890625 -520.195312 532.234375 -500.625 C 508.585938 -481.050781 480.625 -468.710938 448.34375 -463.609375 C 422.925781 -459.597656 399.46875 -459.941406 377.96875 -464.640625 C 356.46875 -469.335938 337.816406 -470.4375 322.015625 -467.9375 C 311.023438 -466.195312 302.203125 -460.753906 295.546875 -451.609375 C 288.898438 -442.472656 286.445312 -432.410156 288.1875 -421.421875 C 289.8125 -411.109375 295.140625 -402.96875 304.171875 -397 C 313.210938 -391.039062 323.226562 -388.929688 334.21875 -390.671875 C 350.019531 -393.171875 367.421875 -399.96875 386.421875 -411.0625 C 405.429688 -422.15625 427.644531 -429.707031 453.0625 -433.71875 C 485.34375 -438.820312 515.828125 -435.195312 544.515625 -422.84375 C 573.210938 -410.488281 597.601562 -391.992188 617.6875 -367.359375 C 637.78125 -342.722656 650.378906 -314.269531 655.484375 -282 C 660.359375 -251.101562 656.984375 -221.1875 645.359375 -192.25 C 633.734375 -163.3125 616.148438 -138.707031 592.609375 -118.4375 C 569.078125 -98.175781 541.171875 -85.492188 508.890625 -80.390625 L 359.515625 -56.796875 C 310.066406 -48.984375 262.164062 -51.445312 215.8125 -64.1875 C 169.457031 -76.925781 126.910156 -97.832031 88.171875 -126.90625 C 49.441406 -155.976562 17.332031 -191.023438 -8.15625 -232.046875 C -33.644531 -273.078125 -50.238281 -317.972656 -57.9375 -366.734375 C -65.96875 -417.546875 -64.007812 -466.421875 -52.0625 -513.359375 C -40.125 -560.296875 -19.960938 -603.078125 8.421875 -641.703125 C 36.816406 -680.328125 71.5 -712.550781 112.46875 -738.375 C 153.4375 -764.207031 198.925781 -781.425781 248.9375 -790.03125 Z M 393.171875 -812.8125 "/></g></g></g><g fill="#9ac0df" fill-opacity="1"><g transform="translate(956.882228, 984.807895)"><g><path d="M 543.109375 -50.234375 C 512.648438 -47.359375 483.910156 -52.148438 456.890625 -64.609375 C 429.878906 -77.078125 407.757812 -95.066406 390.53125 -118.578125 C 373.300781 -142.085938 363.25 -169.070312 360.375 -199.53125 L 357.03125 -234.828125 C 356.445312 -241.054688 353.691406 -246.210938 348.765625 -250.296875 C 343.835938 -254.378906 338.257812 -256.125 332.03125 -255.53125 C 325.800781 -254.945312 320.648438 -252.1875 316.578125 -247.25 C 312.503906 -242.320312 310.757812 -236.742188 311.34375 -230.515625 L 314.6875 -195.21875 C 317.625 -164.070312 313 -135.351562 300.8125 -109.0625 C 288.632812 -82.78125 270.769531 -61.191406 247.21875 -44.296875 C 223.675781 -27.398438 196.332031 -17.484375 165.1875 -14.546875 C 135.425781 -11.734375 107.222656 -16.40625 80.578125 -28.5625 C 53.941406 -40.71875 32.003906 -58.550781 14.765625 -82.0625 C -2.460938 -105.570312 -12.546875 -132.898438 -15.484375 -164.046875 L -54.125 -573.125 C -57.0625 -604.269531 -52.25 -632.832031 -39.6875 -658.8125 C -27.132812 -684.789062 -8.910156 -706.242188 14.984375 -723.171875 C 38.890625 -740.097656 65.722656 -749.96875 95.484375 -752.78125 C 126.628906 -755.71875 155.34375 -751.09375 181.625 -738.90625 C 207.914062 -726.71875 229.488281 -709.019531 246.34375 -685.8125 C 263.207031 -662.613281 273.109375 -635.441406 276.046875 -604.296875 L 279.578125 -566.921875 C 280.097656 -561.378906 282.820312 -556.570312 287.75 -552.5 C 292.675781 -548.425781 298.253906 -546.679688 304.484375 -547.265625 C 310.710938 -547.859375 315.863281 -550.613281 319.9375 -555.53125 C 324.007812 -560.457031 325.785156 -565.691406 325.265625 -571.234375 L 321.734375 -608.609375 C 318.859375 -639.066406 323.703125 -667.285156 336.265625 -693.265625 C 348.828125 -719.242188 367.207031 -740.882812 391.40625 -758.1875 C 415.613281 -775.5 442.945312 -785.59375 473.40625 -788.46875 C 503.863281 -791.34375 532.253906 -786.515625 558.578125 -773.984375 C 584.910156 -761.453125 606.675781 -743.597656 623.875 -720.421875 C 641.070312 -697.253906 651.109375 -670.441406 653.984375 -639.984375 L 692.625 -230.90625 C 695.5 -200.445312 690.671875 -172.054688 678.140625 -145.734375 C 665.609375 -119.421875 647.582031 -97.644531 624.0625 -80.40625 C 600.550781 -63.164062 573.566406 -53.109375 543.109375 -50.234375 Z M 543.109375 -50.234375 "/></g></g></g><g fill="#9ac0df" fill-opacity="1"><g transform="translate(1660.451639, 917.123099)"><g><path d="M 90.265625 -16.328125 C 62.765625 -28.703125 40.484375 -46.625 23.421875 -70.09375 C 6.359375 -93.570312 -3.828125 -119.691406 -7.140625 -148.453125 C -10.453125 -177.222656 -6.253906 -205.003906 5.453125 -231.796875 L 189.6875 -655.828125 C 203.332031 -687.535156 223.460938 -711.796875 250.078125 -728.609375 C 276.691406 -745.421875 305.453125 -754.472656 336.359375 -755.765625 C 367.273438 -757.054688 396.519531 -750.300781 424.09375 -735.5 C 451.675781 -720.695312 473.601562 -697.546875 489.875 -666.046875 L 701.78125 -253.078125 C 715.78125 -227.066406 721.828125 -199.597656 719.921875 -170.671875 C 718.023438 -141.742188 709.453125 -115.046875 694.203125 -90.578125 C 678.960938 -66.117188 657.640625 -46.867188 630.234375 -32.828125 C 603.515625 -19.472656 575.523438 -13.566406 546.265625 -15.109375 C 517.015625 -16.648438 490.320312 -25.226562 466.1875 -40.84375 C 442.0625 -56.457031 422.988281 -77.613281 408.96875 -104.3125 L 313.546875 -290.265625 C 312.785156 -292.316406 311.023438 -292.945312 308.265625 -292.15625 C 305.515625 -291.375 304.535156 -289.265625 305.328125 -285.828125 L 337.046875 -169.921875 L 307.84375 -101.21875 C 295.457031 -73.71875 277.523438 -51.429688 254.046875 -34.359375 C 230.578125 -17.296875 204.457031 -7.109375 175.6875 -3.796875 C 146.925781 -0.484375 118.453125 -4.660156 90.265625 -16.328125 Z M 90.265625 -16.328125 "/></g></g></g><g fill="#9ac0df" fill-opacity="1"><g transform="translate(2376.212316, 899.686315)"><g/></g></g><g fill="#9ac0df" fill-opacity="1"><g transform="translate(2619.891681, 902.401011)"><g/></g></g><g fill="#9ac0df" fill-opacity="1"><g transform="translate(2863.453668, 910.446855)"><g/></g></g><g fill="#9ac0df" fill-opacity="1"><g transform="translate(3102.664709, 919.258125)"><g><path d="M 558.65625 -690.25 C 589.800781 -687.269531 617.269531 -676.953125 641.0625 -659.296875 C 664.863281 -641.648438 682.992188 -619.476562 695.453125 -592.78125 C 707.910156 -566.09375 712.675781 -537.523438 709.75 -507.078125 C 706.894531 -477.304688 697.019531 -450.835938 680.125 -427.671875 C 663.226562 -404.503906 641.765625 -386.484375 615.734375 -373.609375 C 589.710938 -360.742188 561.128906 -355.804688 529.984375 -358.796875 L 507.8125 -116.8125 C 504.894531 -86.351562 494.59375 -59.050781 476.90625 -34.90625 C 459.226562 -10.757812 437.023438 7.710938 410.296875 20.515625 C 383.566406 33.316406 354.972656 38.257812 324.515625 35.34375 C 294.765625 32.476562 268.164062 22.234375 244.71875 4.609375 C 221.269531 -13.003906 203.332031 -35.328125 190.90625 -62.359375 C 178.488281 -89.390625 173.738281 -118.132812 176.65625 -148.59375 L 199.875 -390.484375 C 169.414062 -393.398438 142.457031 -403.664062 119 -421.28125 C 95.539062 -438.894531 77.722656 -460.679688 65.546875 -486.640625 C 53.378906 -512.597656 48.722656 -540.460938 51.578125 -570.234375 C 54.503906 -600.679688 64.441406 -627.835938 81.390625 -651.703125 C 98.347656 -675.578125 120.015625 -693.929688 146.390625 -706.765625 C 172.773438 -719.597656 201.195312 -724.554688 231.65625 -721.640625 Z M 558.65625 -690.25 "/></g></g></g><g fill="#9ac0df" fill-opacity="1"><g transform="translate(3748.96084, 979.683283)"><g><path d="M 533.65625 -618.984375 C 558.414062 -637.609375 584.925781 -648.382812 613.1875 -651.3125 C 641.445312 -654.238281 668.742188 -649.929688 695.078125 -638.390625 C 721.421875 -626.859375 743.160156 -608.476562 760.296875 -583.25 C 777.648438 -559.382812 787.539062 -532.832031 789.96875 -503.59375 C 792.40625 -474.351562 787.992188 -446.367188 776.734375 -419.640625 C 765.484375 -392.910156 747.820312 -370.179688 723.75 -351.453125 L 559.859375 -229.484375 L 537.109375 -85.265625 C 532.347656 -55.046875 520.632812 -28.738281 501.96875 -6.34375 C 483.300781 16.050781 460.269531 32.65625 432.875 43.46875 C 405.476562 54.28125 376.675781 57.304688 346.46875 52.546875 C 316.9375 47.890625 290.800781 36.195312 268.0625 17.46875 C 245.320312 -1.25 228.519531 -24.132812 217.65625 -51.1875 C 206.789062 -78.238281 203.738281 -106.875 208.5 -137.09375 L 231.25 -281.3125 L 112.859375 -447.796875 C 95.722656 -473.023438 85.914062 -500.085938 83.4375 -528.984375 C 80.957031 -557.878906 85.367188 -585.863281 96.671875 -612.9375 C 107.972656 -640.007812 125.550781 -662.226562 149.40625 -679.59375 C 173.476562 -698.320312 199.644531 -709.148438 227.90625 -712.078125 C 256.164062 -715.003906 283.117188 -710.753906 308.765625 -699.328125 C 334.421875 -687.898438 355.816406 -669.570312 372.953125 -644.34375 L 441.359375 -549.078125 Z M 533.65625 -618.984375 "/></g></g></g></g></g><g transform="matrix(1, 0, 0, 1, 2439, 249)"><g clip-path="url(#dcd65fb837)"><g fill="#ffef42" fill-opacity="1"><g transform="translate(161.358438, 894.512179)"><g><path d="M 510.105469 -865.921875 C 566.753906 -864.625 618.304688 -849.246094 664.753906 -819.777344 C 709.289062 -791.527344 744.375 -754.457031 770.011719 -708.566406 C 796.511719 -661.132812 809.125 -609.6875 807.855469 -554.226562 C 806.601562 -499.375 791.792969 -449.175781 763.429688 -403.636719 C 736.414062 -360.265625 700.730469 -325.527344 656.382812 -299.429688 C 608.960938 -271.519531 556.621094 -258.222656 499.363281 -259.53125 L 502.492188 -396.390625 L 639.363281 -393.847656 L 634.847656 -150.886719 C 633.566406 -94.835938 618.332031 -43.496094 589.144531 3.132812 C 561.105469 47.921875 524.285156 83.359375 478.675781 109.445312 C 430.925781 136.757812 379.074219 149.773438 323.121094 148.492188 C 267.558594 147.222656 216.644531 131.710938 170.371094 101.960938 C 126.265625 73.601562 91.460938 36.273438 65.957031 -10.019531 C 39.738281 -57.621094 27.257812 -109.003906 28.519531 -164.171875 L 34.074219 -407.105469 L 170.933594 -403.972656 L 167.804688 -267.117188 C 111.546875 -268.402344 60.285156 -283.921875 14.011719 -313.675781 C -29.777344 -341.828125 -64.246094 -378.320312 -89.398438 -423.148438 C -115.648438 -469.933594 -128.148438 -520.753906 -126.890625 -575.609375 C -125.636719 -630.566406 -111.097656 -680.988281 -83.285156 -726.875 C -56.023438 -771.847656 -19.625 -807.539062 25.914062 -833.957031 C 73.496094 -861.5625 125.417969 -874.722656 181.671875 -873.433594 Z M 503.84375 -592.207031 L 175.410156 -599.71875 C 170.5 -599.832031 166.460938 -598.96875 163.300781 -597.136719 C 158.089844 -594.113281 153.9375 -590.050781 150.84375 -584.945312 C 148.304688 -580.757812 146.964844 -575.558594 146.824219 -569.347656 C 146.710938 -564.425781 147.5625 -560.347656 149.375 -557.117188 C 152.289062 -551.925781 156.523438 -547.542969 162.082031 -543.964844 C 165.160156 -541.988281 169.152344 -540.945312 174.066406 -540.832031 L 310.921875 -537.703125 L 302.234375 -157.910156 C 302.097656 -151.910156 303.273438 -146.648438 305.765625 -142.125 C 308.976562 -136.300781 313.199219 -131.703125 318.441406 -128.332031 C 321.515625 -126.355469 325.164062 -125.320312 329.378906 -125.222656 C 334.59375 -125.101562 339.046875 -126.097656 342.738281 -128.210938 C 348.574219 -131.546875 353.351562 -136.191406 357.074219 -142.136719 C 359.644531 -146.246094 360.992188 -150.859375 361.109375 -155.976562 L 368.175781 -536.390625 L 505.625 -533.25 C 510.921875 -533.128906 514.890625 -533.839844 517.519531 -535.386719 C 523.21875 -538.742188 527.726562 -543.078125 531.03125 -548.386719 C 532.992188 -551.53125 534.027344 -555.566406 534.140625 -560.488281 C 534.269531 -566.199219 533.222656 -571.050781 530.992188 -575.039062 C 527.898438 -580.578125 523.597656 -585.09375 518.09375 -588.585938 C 514.5 -590.863281 509.75 -592.070312 503.84375 -592.207031 Z M 503.84375 -592.207031 "/></g></g></g><g fill="#9ac0df" fill-opacity="1"><g transform="translate(161.358438, 894.512179)"><g><path d="M 506.953125 -729.0625 C 538.234375 -728.34375 566.382812 -720.046875 591.40625 -704.171875 C 616.425781 -688.304688 636.117188 -667.515625 650.484375 -641.796875 C 664.847656 -616.078125 671.679688 -587.929688 670.984375 -557.359375 C 670.296875 -527.460938 662.367188 -500.34375 647.203125 -476 C 632.046875 -451.664062 611.957031 -432.132812 586.9375 -417.40625 C 561.914062 -402.6875 533.765625 -395.679688 502.484375 -396.390625 L 497.96875 -153.4375 C 497.269531 -122.851562 488.976562 -94.875 473.09375 -69.5 C 457.21875 -44.132812 436.414062 -24.09375 410.6875 -9.375 C 384.96875 5.332031 356.816406 12.335938 326.234375 11.640625 C 296.347656 10.953125 269.066406 2.675781 244.390625 -13.1875 C 219.722656 -29.050781 200.210938 -50.015625 185.859375 -76.078125 C 171.503906 -102.140625 164.675781 -130.460938 165.375 -161.046875 L 170.9375 -403.984375 C 140.351562 -404.679688 112.722656 -412.960938 88.046875 -428.828125 C 63.367188 -444.691406 44.015625 -465.125 29.984375 -490.125 C 15.953125 -515.132812 9.28125 -542.585938 9.96875 -572.484375 C 10.664062 -603.054688 18.597656 -630.863281 33.765625 -655.90625 C 48.941406 -680.945312 69.21875 -700.828125 94.59375 -715.546875 C 119.96875 -730.265625 147.945312 -737.273438 178.53125 -736.578125 Z M 506.953125 -729.0625 "/></g></g></g></g></g></svg>