<svg xmlns="http://www.w3.org/2000/svg" xmlns:xlink="http://www.w3.org/1999/xlink" width="6912" zoomAndPan="magnify" viewBox="0 0 5184 2592.000001" height="3456" preserveAspectRatio="xMidYMid meet" version="1.0"><defs><g/><clipPath id="cc2e8b5aa5"><rect x="0" width="4736" y="0" height="1375"/></clipPath><clipPath id="d272bd66e8"><rect x="0" width="1307" y="0" height="1416"/></clipPath></defs><g transform="matrix(1, 0, 0, 1, 224, 906)"><g clip-path="url(#cc2e8b5aa5)"><g fill="#ffef42" fill-opacity="1"><g transform="translate(278.864356, 1092.669561)"><g><path d="M 371.527344 -947.328125 C 429.382812 -956.46875 484.574219 -950.023438 537.101562 -927.988281 C 586.488281 -907.273438 628.351562 -876.097656 662.6875 -834.457031 C 698.53125 -790.984375 720.835938 -741.515625 729.597656 -686.054688 C 738.621094 -628.941406 732.640625 -574.253906 711.652344 -521.988281 C 691.410156 -471.566406 660.542969 -429.191406 619.050781 -394.855469 C 576.171875 -359.375 526.273438 -337.136719 469.351562 -328.144531 C 427.023438 -321.457031 386.738281 -322.289062 348.496094 -330.640625 C 344.71875 -331.46875 341.726562 -331.945312 339.527344 -332.074219 C 340.0625 -332.042969 341.257812 -332.175781 343.117188 -332.46875 C 355.703125 -334.457031 367.582031 -338.894531 378.75 -345.785156 C 389.644531 -352.507812 398.71875 -360.855469 405.96875 -370.828125 C 413.21875 -380.796875 418.363281 -392.003906 421.398438 -404.441406 C 424.511719 -417.1875 425.070312 -429.855469 423.082031 -442.441406 C 420.835938 -456.667969 415.667969 -469.949219 407.578125 -482.285156 C 399.917969 -493.96875 390.492188 -503.5 379.292969 -510.890625 C 369.355469 -517.445312 358.421875 -521.984375 346.484375 -524.503906 C 335.03125 -526.921875 323.742188 -527.253906 312.621094 -525.496094 C 310.761719 -525.203125 309.585938 -524.957031 309.085938 -524.761719 C 311.136719 -525.566406 313.835938 -526.941406 317.175781 -528.890625 C 350.980469 -548.625 389.046875 -561.835938 431.375 -568.523438 C 489.691406 -577.738281 545.308594 -570.953125 598.222656 -548.164062 C 647.40625 -526.984375 689.085938 -495.4375 723.257812 -453.519531 C 758.878906 -409.828125 781.160156 -359.699219 790.09375 -303.132812 C 798.902344 -247.394531 792.8125 -193.390625 771.824219 -141.125 C 751.929688 -91.570312 721.785156 -49.417969 681.398438 -14.664062 C 638.222656 22.488281 587.707031 45.636719 529.851562 54.777344 L 380.59375 78.359375 C 311.757812 89.234375 244.695312 85.703125 179.40625 67.761719 C 116.363281 50.441406 58.558594 22.050781 5.988281 -17.414062 C -46.402344 -56.738281 -89.84375 -104.164062 -124.339844 -159.691406 C -159.542969 -216.355469 -182.433594 -278.160156 -193.011719 -345.105469 C -203.960938 -414.417969 -201.160156 -481.621094 -184.597656 -546.703125 C -168.289062 -610.816406 -140.6875 -669.324219 -101.804688 -722.230469 C -63.203125 -774.746094 -16.128906 -818.515625 39.421875 -853.539062 C 95.679688 -889.011719 157.730469 -912.582031 225.566406 -924.253906 Z M 414.222656 -677.097656 L 271.960938 -654.632812 C 239.824219 -649.105469 210.945312 -638.265625 185.332031 -622.113281 C 159.007812 -605.519531 136.777344 -584.882812 118.640625 -560.207031 C 100.789062 -535.921875 88.089844 -508.9375 80.535156 -479.246094 C 73.230469 -450.53125 72.125 -420.046875 77.21875 -387.796875 C 82.039062 -357.296875 92.3125 -329.386719 108.042969 -304.066406 C 124.480469 -277.609375 145.210938 -254.988281 170.230469 -236.207031 C 195.066406 -217.566406 222.285156 -204.175781 251.886719 -196.042969 C 279.246094 -188.527344 307.917969 -187.136719 337.898438 -191.871094 L 487.15625 -215.453125 C 493.808594 -216.503906 499.074219 -218.699219 502.953125 -222.039062 C 509.625 -227.78125 514.621094 -234.789062 517.945312 -243.0625 C 520.175781 -248.621094 520.816406 -254.414062 519.867188 -260.4375 C 518.609375 -268.378906 515.726562 -275.113281 511.214844 -280.648438 C 505.257812 -287.957031 498.191406 -293.371094 490.019531 -296.890625 C 485.574219 -298.804688 480.257812 -299.273438 474.066406 -298.292969 C 465.613281 -296.957031 459.292969 -295.066406 455.101562 -292.621094 C 421.296875 -272.886719 388.035156 -260.433594 355.316406 -255.265625 C 333.214844 -251.773438 311.433594 -252.292969 289.976562 -256.820312 C 268.035156 -261.453125 247.578125 -270.027344 228.613281 -282.542969 C 208.386719 -295.890625 191.777344 -312.46875 178.792969 -332.273438 C 165.375 -352.738281 156.726562 -375.230469 152.851562 -399.75 C 149.128906 -423.3125 150.050781 -446.5 155.617188 -469.308594 C 161.109375 -491.804688 170.800781 -512.609375 184.699219 -531.71875 C 198.59375 -550.828125 215.394531 -566.464844 235.105469 -578.621094 C 255.085938 -590.949219 276.859375 -598.976562 300.425781 -602.699219 C 333.144531 -607.867188 368.625 -606.277344 406.867188 -597.925781 C 411.605469 -596.890625 418.203125 -597.039062 426.65625 -598.375 C 434.242188 -599.574219 440.234375 -601.992188 444.632812 -605.632812 C 450.417969 -610.417969 454.796875 -616.515625 457.769531 -623.925781 C 460.003906 -629.484375 460.535156 -635.964844 459.367188 -643.359375 C 458.371094 -649.65625 455.785156 -655.339844 451.605469 -660.40625 C 445.917969 -667.304688 439.144531 -672.40625 431.28125 -675.703125 C 426.558594 -677.683594 420.871094 -678.148438 414.222656 -677.097656 Z M 414.222656 -677.097656 "/></g></g></g><g fill="#ffef42" fill-opacity="1"><g transform="translate(955.944485, 984.209596)"><g><path d="M 555.578125 85.976562 C 500.679688 91.164062 448.578125 82.382812 399.269531 59.632812 C 350.863281 37.300781 311.078125 4.878906 279.917969 -37.632812 C 247.820312 -81.417969 229.152344 -131.054688 223.914062 -186.535156 L 220.582031 -221.808594 C 222.011719 -206.65625 226.367188 -192.277344 233.644531 -178.675781 C 240.726562 -165.4375 249.945312 -154.121094 261.300781 -144.722656 C 272.65625 -135.328125 285.5 -128.390625 299.828125 -123.914062 C 314.554688 -119.308594 329.492188 -117.726562 344.648438 -119.15625 C 359.800781 -120.585938 374.179688 -124.941406 387.78125 -132.21875 C 401.019531 -139.300781 412.335938 -148.519531 421.730469 -159.875 C 431.128906 -171.230469 438.066406 -184.074219 442.542969 -198.402344 C 447.144531 -213.128906 448.730469 -228.066406 447.300781 -243.222656 L 450.632812 -207.945312 C 455.890625 -152.277344 447.25 -100.121094 424.710938 -51.480469 C 402.445312 -3.433594 369.800781 36.023438 326.773438 66.886719 C 283.210938 98.132812 233.59375 116.386719 177.921875 121.644531 C 123.925781 126.742188 72.539062 118.167969 23.753906 95.917969 C -24.503906 73.902344 -64.277344 41.554688 -95.5625 -1.125 C -127.660156 -44.914062 -146.359375 -94.890625 -151.667969 -151.066406 L -190.269531 -559.84375 C -195.605469 -616.320312 -186.453125 -668.996094 -162.816406 -717.878906 C -140.039062 -764.984375 -107.132812 -803.777344 -64.089844 -834.261719 C -20.335938 -865.253906 28.539062 -883.296875 82.535156 -888.394531 C 138.207031 -893.652344 190.363281 -885.011719 239.003906 -862.472656 C 286.78125 -840.335938 326.054688 -808.089844 356.832031 -765.730469 C 388.34375 -722.363281 406.742188 -672.691406 412.027344 -616.726562 L 415.554688 -579.375 C 413.980469 -596.027344 409.066406 -611.636719 400.8125 -626.203125 C 393.898438 -638.40625 385.207031 -648.835938 374.738281 -657.5 C 363.382812 -666.894531 350.539062 -673.832031 336.210938 -678.308594 C 321.484375 -682.910156 306.542969 -684.496094 291.390625 -683.066406 C 276.238281 -681.636719 261.859375 -677.28125 248.253906 -670.003906 C 235.019531 -662.921875 223.699219 -653.703125 214.304688 -642.347656 C 205.640625 -631.878906 199.058594 -620.003906 194.550781 -606.726562 C 189.167969 -590.871094 187.261719 -574.617188 188.835938 -557.964844 L 185.308594 -595.3125 C 180.039062 -651.097656 189.222656 -703.429688 212.859375 -752.3125 C 235.546875 -799.226562 268.449219 -838.097656 311.578125 -868.921875 C 355.753906 -900.496094 405.292969 -918.878906 460.1875 -924.0625 C 515.671875 -929.300781 567.921875 -920.253906 616.945312 -896.925781 C 663.742188 -874.652344 702.503906 -842.828125 733.222656 -801.453125 C 765.59375 -757.863281 784.414062 -708.171875 789.679688 -652.390625 L 828.285156 -243.613281 C 833.523438 -188.128906 824.480469 -135.878906 801.148438 -86.855469 C 778.746094 -39.789062 746.523438 -0.84375 704.480469 29.972656 C 660.691406 62.070312 611.058594 80.738281 555.578125 85.976562 Z M 529.855469 -186.390625 C 535.242188 -186.902344 539.535156 -188.328125 542.738281 -190.679688 C 547.6875 -194.304688 551.480469 -198.890625 554.117188 -204.429688 C 555.824219 -208.015625 556.425781 -212.503906 555.914062 -217.890625 L 517.308594 -626.667969 C 516.832031 -631.753906 515.585938 -635.648438 513.574219 -638.355469 C 509.917969 -643.28125 505.183594 -647.128906 499.371094 -649.894531 C 495.785156 -651.601562 491.296875 -652.199219 485.910156 -651.691406 C 479.941406 -651.128906 474.855469 -649.347656 470.660156 -646.347656 C 465.410156 -642.59375 461.578125 -638.21875 459.160156 -633.214844 C 457.691406 -630.179688 457.199219 -626.121094 457.675781 -621.035156 L 461.203125 -583.6875 C 463.300781 -561.5 460.769531 -539.867188 453.613281 -518.785156 C 447.332031 -500.277344 437.824219 -483.332031 425.089844 -467.941406 C 411.621094 -451.664062 395.695312 -438.609375 377.308594 -428.773438 C 358.558594 -418.742188 338.492188 -412.714844 317.113281 -410.695312 C 295.734375 -408.675781 274.894531 -410.839844 254.597656 -417.183594 C 234.695312 -423.402344 216.605469 -433.246094 200.332031 -446.714844 C 184.941406 -459.449219 172.429688 -474.316406 162.792969 -491.320312 C 151.816406 -510.6875 145.28125 -531.46875 143.183594 -553.652344 L 139.65625 -591.003906 C 139.0625 -597.285156 137.679688 -601.925781 135.503906 -604.917969 C 132.589844 -608.929688 128.75 -612.035156 123.980469 -614.246094 C 120.078125 -616.054688 114.839844 -616.648438 108.257812 -616.027344 C 102.769531 -615.507812 98.027344 -613.835938 94.035156 -611.003906 C 89.328125 -607.671875 85.808594 -603.597656 83.484375 -598.785156 C 82.015625 -595.75 81.554688 -591.34375 82.097656 -585.566406 L 120.703125 -176.789062 C 121.277344 -170.710938 122.738281 -166.070312 125.089844 -162.863281 C 128.246094 -158.554688 132.3125 -155.265625 137.289062 -152.996094 C 141.742188 -150.964844 146.710938 -150.207031 152.199219 -150.726562 C 158.78125 -151.347656 163.820312 -152.914062 167.3125 -155.417969 C 171.339844 -158.308594 174.398438 -162 176.480469 -166.5 C 178.289062 -170.402344 178.882812 -175.644531 178.261719 -182.222656 L 174.929688 -217.5 C 172.910156 -238.878906 175.074219 -259.714844 181.417969 -280.015625 C 187.636719 -299.917969 197.480469 -318.003906 210.949219 -334.28125 C 224.417969 -350.558594 240.34375 -363.613281 258.726562 -373.449219 C 277.480469 -383.480469 297.546875 -389.507812 318.925781 -391.527344 C 340.300781 -393.546875 361.140625 -391.382812 381.4375 -385.039062 C 401.339844 -378.820312 419.429688 -368.976562 435.707031 -355.507812 C 451.984375 -342.039062 465.039062 -326.113281 474.875 -307.726562 C 484.90625 -288.976562 490.933594 -268.910156 492.949219 -247.53125 L 496.28125 -212.257812 C 496.792969 -206.871094 498.21875 -202.574219 500.570312 -199.371094 C 503.851562 -194.894531 508.285156 -191.363281 513.871094 -188.789062 C 518.554688 -186.625 523.882812 -185.828125 529.855469 -186.390625 Z M 529.855469 -186.390625 "/></g></g></g><g fill="#ffef42" fill-opacity="1"><g transform="translate(1658.985163, 916.575791)"><g><path d="M 34.082031 108.4375 C -15.503906 86.125 -55.949219 53.4375 -87.246094 10.375 C -118.382812 -32.464844 -136.980469 -80.15625 -143.03125 -132.699219 C -149.15625 -185.863281 -141.449219 -237.089844 -119.917969 -286.382812 L 64.082031 -709.851562 C 88.742188 -767.203125 126.324219 -811.828125 176.824219 -843.730469 C 223.996094 -873.527344 275.183594 -889.578125 330.394531 -891.886719 C 386.230469 -894.222656 438.929688 -882.085938 488.492188 -855.476562 C 540.964844 -827.300781 581.820312 -784.910156 611.046875 -728.304688 L 822.953125 -315.335938 C 848.535156 -267.898438 859.515625 -216.648438 855.902344 -161.59375 C 852.503906 -109.84375 837.132812 -62.035156 809.78125 -18.160156 C 781.207031 27.675781 742.015625 63.367188 692.214844 88.914062 C 643.105469 113.433594 591.925781 124.292969 538.675781 121.488281 C 485.128906 118.667969 436.085938 102.851562 391.539062 74.03125 C 347.363281 45.449219 312.703125 7.242188 287.5625 -40.597656 L 187.792969 -235.007812 L 184.917969 -242.835938 C 191.058594 -226.128906 200.21875 -211.230469 212.402344 -198.136719 C 227.007812 -182.4375 244.382812 -170.914062 264.519531 -163.5625 C 291.339844 -153.773438 318.25 -152.695312 345.246094 -160.328125 C 361.609375 -164.953125 376.558594 -172.511719 390.097656 -183.003906 C 407.207031 -196.265625 420.304688 -212.722656 429.394531 -232.378906 C 436.933594 -248.683594 440.984375 -265.753906 441.554688 -283.59375 C 441.914062 -294.804688 440.84375 -305.78125 438.351562 -316.523438 L 305.101562 -285.613281 L 437.039062 -321.71875 L 481.277344 -160.058594 L 433.5 -47.644531 C 410.425781 3.691406 377.355469 45.007812 334.292969 76.308594 C 291.457031 107.445312 243.761719 126.039062 191.21875 132.09375 C 139.003906 138.105469 87.898438 130.773438 37.910156 110.089844 L 35.984375 109.292969 Z M 146.335938 -141.054688 L 90.210938 -16.308594 L 142.507812 -142.707031 C 148.835938 -140.089844 154.636719 -139.085938 159.910156 -139.691406 C 164.855469 -140.261719 169.367188 -142.027344 173.445312 -144.992188 C 177.300781 -147.796875 180.058594 -151.015625 181.714844 -154.652344 L 210.894531 -223.3125 L 336.789062 -169.808594 L 204.847656 -133.707031 L 172.453125 -252.09375 L 171.847656 -254.703125 C 164.375 -286.910156 167.453125 -317.742188 181.074219 -347.199219 C 190.648438 -367.910156 204.460938 -385.257812 222.503906 -399.242188 C 236.972656 -410.460938 253.082031 -418.574219 270.820312 -423.589844 C 300.574219 -432.003906 329.742188 -430.992188 358.320312 -420.5625 C 379.335938 -412.890625 397.460938 -400.871094 412.695312 -384.496094 C 425.507812 -370.722656 435.175781 -354.972656 441.695312 -337.234375 L 313.304688 -290.035156 L 435.007812 -352.484375 L 529.734375 -167.871094 C 532.636719 -162.351562 536.105469 -158.285156 540.148438 -155.671875 C 543.820312 -153.292969 548.125 -151.976562 553.058594 -151.714844 C 558.289062 -151.441406 563.050781 -152.371094 567.339844 -154.503906 C 572.289062 -157.042969 575.714844 -159.839844 577.617188 -162.894531 C 580.746094 -167.914062 582.511719 -173.453125 582.90625 -179.511719 C 583.089844 -182.261719 581.96875 -185.902344 579.546875 -190.4375 L 367.960938 -602.785156 C 364.679688 -609.132812 361.71875 -613.019531 359.074219 -614.4375 C 353.515625 -617.425781 347.761719 -618.792969 341.820312 -618.542969 C 335.246094 -618.269531 328.949219 -616.230469 322.929688 -612.429688 C 320.242188 -610.730469 317.597656 -606.863281 315.003906 -600.824219 L 130.789062 -176.871094 C 128.933594 -172.621094 128.253906 -168.335938 128.753906 -164.007812 C 129.324219 -159.0625 131.089844 -154.554688 134.054688 -150.472656 C 136.855469 -146.617188 140.949219 -143.480469 146.335938 -141.054688 Z M 146.335938 -141.054688 "/></g></g></g><g fill="#ffef42" fill-opacity="1"><g transform="translate(2374.207587, 899.152166)"><g/></g></g><g fill="#ffef42" fill-opacity="1"><g transform="translate(2617.703926, 901.864656)"><g/></g></g><g fill="#ffef42" fill-opacity="1"><g transform="translate(2861.082409, 909.90465)"><g/></g></g><g fill="#ffef42" fill-opacity="1"><g transform="translate(3100.113611, 918.709172)"><g><path d="M 571.3125 -825.898438 C 627.675781 -820.488281 677.933594 -801.414062 722.082031 -768.671875 C 764.414062 -737.277344 796.6875 -697.78125 818.898438 -650.1875 C 841.859375 -600.988281 850.691406 -548.800781 845.398438 -493.621094 C 840.160156 -439.046875 821.75 -390.09375 790.171875 -346.773438 C 760.097656 -305.511719 722.011719 -273.484375 675.914062 -250.699219 C 626.628906 -226.332031 573.5 -216.882812 516.53125 -222.351562 L 529.597656 -358.515625 L 665.820312 -346.035156 L 643.660156 -104.230469 C 638.308594 -48.460938 619.390625 1.597656 586.914062 45.945312 C 555.714844 88.546875 516.441406 121.1875 469.09375 143.867188 C 419.519531 167.617188 366.898438 176.820312 311.226562 171.476562 C 255.949219 166.171875 206.332031 147.011719 162.378906 113.996094 C 120.484375 82.527344 88.511719 42.800781 66.460938 -5.191406 C 43.789062 -54.535156 35.085938 -106.652344 40.355469 -161.539062 L 63.550781 -403.246094 L 199.71875 -390.175781 L 186.648438 -254.011719 C 130.679688 -259.382812 80.71875 -278.574219 36.765625 -311.589844 C -4.828125 -342.832031 -36.527344 -381.703125 -58.335938 -428.207031 C -81.097656 -476.742188 -89.859375 -528.300781 -84.621094 -582.878906 C -79.371094 -637.558594 -61.21875 -686.75 -30.164062 -730.457031 C 0.273438 -773.292969 39.144531 -806.222656 86.445312 -829.238281 C 135.875 -853.289062 188.574219 -862.632812 244.542969 -857.257812 Z M 545.175781 -553.566406 L 218.410156 -584.929688 C 213.519531 -585.398438 209.433594 -584.832031 206.148438 -583.234375 C 200.738281 -580.601562 196.304688 -576.855469 192.851562 -571.992188 C 190.015625 -568.003906 188.304688 -562.921875 187.710938 -556.742188 C 187.242188 -551.84375 187.792969 -547.71875 189.363281 -544.367188 C 191.890625 -538.980469 195.792969 -534.304688 201.074219 -530.335938 C 203.992188 -528.140625 207.898438 -526.8125 212.785156 -526.339844 L 348.953125 -513.273438 L 312.6875 -135.402344 C 312.113281 -129.433594 312.902344 -124.105469 315.058594 -119.417969 C 317.832031 -113.378906 321.710938 -108.488281 326.6875 -104.75 C 329.609375 -102.554688 333.167969 -101.257812 337.363281 -100.855469 C 342.550781 -100.355469 347.0625 -101.027344 350.894531 -102.863281 C 356.949219 -105.761719 362.050781 -110.042969 366.191406 -115.699219 C 369.054688 -119.605469 370.730469 -124.105469 371.21875 -129.195312 L 405.914062 -507.808594 L 542.667969 -494.683594 C 547.941406 -494.175781 551.941406 -494.597656 554.675781 -495.949219 C 560.601562 -498.878906 565.40625 -502.871094 569.089844 -507.921875 C 571.269531 -510.914062 572.597656 -514.859375 573.066406 -519.757812 C 573.609375 -525.4375 572.917969 -530.347656 570.984375 -534.488281 C 568.304688 -540.230469 564.347656 -545.042969 559.117188 -548.925781 C 555.703125 -551.457031 551.054688 -553.003906 545.175781 -553.566406 Z M 545.175781 -553.566406 "/></g></g></g><g fill="#ffef42" fill-opacity="1"><g transform="translate(3745.923899, 979.088929)"><g><path d="M 451.054688 -727.851562 C 496.019531 -761.667969 545.210938 -781.347656 598.632812 -786.890625 C 650.835938 -792.308594 701.128906 -784.410156 749.503906 -763.203125 C 799.878906 -741.121094 841.007812 -706.613281 872.894531 -659.675781 L 759.742188 -582.808594 L 870.355469 -663.28125 C 902.722656 -618.792969 921.175781 -569.210938 925.714844 -514.539062 C 929.988281 -463.015625 922.160156 -413.585938 902.230469 -366.25 C 881.738281 -317.578125 850.066406 -276.574219 807.210938 -243.230469 L 641.121094 -119.582031 L 559.453125 -229.320312 L 694.574219 -208.007812 L 671.84375 -63.890625 C 663.160156 -8.84375 641.441406 39.53125 606.683594 81.238281 C 573.117188 121.507812 531.816406 151.320312 482.777344 170.671875 C 432.273438 190.601562 379.644531 196.25 324.890625 187.613281 C 270.824219 179.085938 222.832031 157.570312 180.914062 123.0625 C 140.210938 89.554688 110.09375 48.476562 90.554688 -0.167969 C 70.316406 -50.546875 64.542969 -103.261719 73.222656 -158.308594 L 95.953125 -302.421875 L 231.074219 -281.113281 L 119.59375 -201.839844 L 1.296875 -368.199219 C -30.328125 -414.71875 -48.402344 -464.285156 -52.917969 -516.898438 C -57.3125 -568.070312 -49.542969 -617.511719 -29.617188 -665.214844 C -8.472656 -715.839844 24.34375 -757.332031 68.832031 -789.699219 L 149.308594 -679.085938 L 65.308594 -787.050781 C 109.972656 -821.800781 159.414062 -841.988281 213.636719 -847.613281 C 266.144531 -853.0625 316.355469 -845.105469 364.265625 -823.742188 C 413.601562 -801.742188 454.128906 -767.402344 485.839844 -720.722656 L 372.6875 -643.855469 L 483.804688 -723.632812 L 552.140625 -628.453125 L 441.023438 -548.675781 L 358.449219 -657.734375 L 450.699219 -727.582031 Z M 615.847656 -509.46875 L 411.734375 -354.921875 L 260.535156 -565.519531 L 259.535156 -566.988281 C 257 -570.722656 254.769531 -573.015625 252.851562 -573.871094 C 249.507812 -575.363281 245.84375 -575.90625 241.867188 -575.492188 C 239.601562 -575.257812 236.746094 -573.800781 233.308594 -571.125 L 231.566406 -569.769531 L 229.78125 -568.472656 C 226.601562 -566.15625 224.28125 -563.257812 222.828125 -559.769531 C 220.152344 -553.367188 219.097656 -546.875 219.660156 -540.296875 C 220.101562 -535.160156 221.632812 -530.640625 224.257812 -526.742188 L 374.886719 -314.914062 L 343.464844 -115.683594 C 342.621094 -110.339844 342.941406 -105.824219 344.421875 -102.136719 C 346.597656 -96.71875 350.058594 -92.054688 354.796875 -88.152344 C 358.324219 -85.25 362.5625 -83.40625 367.515625 -82.625 C 373.152344 -81.738281 378.09375 -82.132812 382.34375 -83.808594 C 388.058594 -86.0625 392.78125 -89.433594 396.523438 -93.921875 C 399.066406 -96.972656 400.757812 -101.171875 401.601562 -106.515625 L 433.023438 -305.746094 L 639.210938 -459.15625 C 644.460938 -463.238281 648.085938 -467.65625 650.085938 -472.410156 C 652.648438 -478.496094 653.644531 -484.996094 653.070312 -491.914062 C 652.757812 -495.679688 651.441406 -499.152344 649.128906 -502.332031 L 647.832031 -504.117188 L 646.589844 -505.941406 C 644.226562 -509.417969 641.917969 -511.652344 639.664062 -512.640625 C 635.414062 -514.503906 631.148438 -515.214844 626.863281 -514.769531 C 623.792969 -514.449219 620.003906 -512.59375 615.496094 -509.203125 Z M 615.847656 -509.46875 "/></g></g></g><g fill="#9ac0df" fill-opacity="1"><g transform="translate(278.864356, 1092.669561)"><g><path d="M 392.875 -812.21875 C 425.132812 -817.3125 455.570312 -813.851562 484.1875 -801.84375 C 512.8125 -789.832031 537.128906 -771.691406 557.140625 -747.421875 C 577.148438 -723.148438 589.59375 -695.578125 594.46875 -664.703125 C 599.5625 -632.441406 596.304688 -601.851562 584.703125 -572.9375 C 573.097656 -544.03125 555.476562 -519.796875 531.84375 -500.234375 C 508.207031 -480.679688 480.257812 -468.359375 448 -463.265625 C 422.613281 -459.242188 399.175781 -459.578125 377.6875 -464.265625 C 356.195312 -468.960938 337.5625 -470.066406 321.78125 -467.578125 C 310.800781 -465.847656 301.984375 -460.410156 295.328125 -451.265625 C 288.679688 -442.128906 286.226562 -432.070312 287.96875 -421.09375 C 289.59375 -410.789062 294.921875 -402.660156 303.953125 -396.703125 C 312.984375 -390.753906 322.988281 -388.644531 333.96875 -390.375 C 349.75 -392.863281 367.140625 -399.65625 386.140625 -410.75 C 405.140625 -421.84375 427.332031 -429.398438 452.71875 -433.421875 C 484.976562 -438.515625 515.445312 -434.882812 544.125 -422.53125 C 572.800781 -410.175781 597.171875 -391.6875 617.234375 -367.0625 C 637.296875 -342.445312 649.875 -314.019531 654.96875 -281.78125 C 659.84375 -250.894531 656.476562 -221 644.875 -192.09375 C 633.269531 -163.1875 615.703125 -138.609375 592.171875 -118.359375 C 568.648438 -98.109375 540.757812 -85.4375 508.5 -80.34375 L 359.25 -56.75 C 309.84375 -48.945312 261.976562 -51.410156 215.65625 -64.140625 C 169.332031 -76.867188 126.816406 -97.757812 88.109375 -126.8125 C 49.410156 -155.863281 17.328125 -190.882812 -8.140625 -231.875 C -33.609375 -272.863281 -50.191406 -317.722656 -57.890625 -366.453125 C -65.910156 -417.234375 -63.957031 -466.070312 -52.03125 -512.96875 C -40.101562 -559.863281 -19.957031 -602.609375 8.40625 -641.203125 C 36.78125 -679.804688 71.4375 -712.015625 112.375 -737.828125 C 153.3125 -763.640625 198.773438 -780.84375 248.765625 -789.4375 Z M 392.875 -812.21875 "/></g></g></g><g fill="#9ac0df" fill-opacity="1"><g transform="translate(955.944485, 984.209596)"><g><path d="M 542.703125 -50.1875 C 512.265625 -47.3125 483.550781 -52.101562 456.5625 -64.5625 C 429.570312 -77.019531 407.460938 -94.992188 390.234375 -118.484375 C 373.015625 -141.984375 362.96875 -168.953125 360.09375 -199.390625 L 356.765625 -234.671875 C 356.179688 -240.890625 353.425781 -246.035156 348.5 -250.109375 C 343.582031 -254.179688 338.007812 -255.925781 331.78125 -255.34375 C 325.550781 -254.75 320.398438 -251.988281 316.328125 -247.0625 C 312.265625 -242.144531 310.523438 -236.578125 311.109375 -230.359375 L 314.4375 -195.078125 C 317.375 -163.960938 312.753906 -135.269531 300.578125 -109 C 288.410156 -82.726562 270.5625 -61.148438 247.03125 -44.265625 C 223.507812 -27.378906 196.1875 -17.46875 165.0625 -14.53125 C 135.320312 -11.71875 107.140625 -16.382812 80.515625 -28.53125 C 53.898438 -40.6875 31.976562 -58.507812 14.75 -82 C -2.46875 -105.5 -12.546875 -132.804688 -15.484375 -163.921875 L -54.078125 -572.703125 C -57.015625 -603.828125 -52.207031 -632.367188 -39.65625 -658.328125 C -27.101562 -684.285156 -8.890625 -705.71875 14.984375 -722.625 C 38.859375 -739.53125 65.664062 -749.390625 95.40625 -752.203125 C 126.53125 -755.140625 155.226562 -750.519531 181.5 -738.34375 C 207.769531 -726.175781 229.328125 -708.5 246.171875 -685.3125 C 263.015625 -662.132812 272.90625 -634.984375 275.84375 -603.859375 L 279.375 -566.5 C 279.894531 -560.976562 282.613281 -556.175781 287.53125 -552.09375 C 292.445312 -548.019531 298.019531 -546.28125 304.25 -546.875 C 310.476562 -547.457031 315.628906 -550.210938 319.703125 -555.140625 C 323.773438 -560.066406 325.550781 -565.289062 325.03125 -570.8125 L 321.5 -608.171875 C 318.625 -638.597656 323.460938 -666.785156 336.015625 -692.734375 C 348.566406 -718.691406 366.929688 -740.316406 391.109375 -757.609375 C 415.296875 -774.898438 442.609375 -784.984375 473.046875 -787.859375 C 503.484375 -790.734375 531.851562 -785.910156 558.15625 -773.390625 C 584.46875 -760.867188 606.21875 -743.03125 623.40625 -719.875 C 640.59375 -696.726562 650.625 -669.941406 653.5 -639.515625 L 692.09375 -230.734375 C 694.96875 -200.296875 690.144531 -171.925781 677.625 -145.625 C 665.113281 -119.332031 647.109375 -97.570312 623.609375 -80.34375 C 600.109375 -63.113281 573.140625 -53.0625 542.703125 -50.1875 Z M 542.703125 -50.1875 "/></g></g></g><g fill="#9ac0df" fill-opacity="1"><g transform="translate(1658.985163, 916.575791)"><g><path d="M 90.21875 -16.3125 C 62.71875 -28.675781 40.441406 -46.585938 23.390625 -70.046875 C 6.347656 -93.503906 -3.828125 -119.601562 -7.140625 -148.34375 C -10.453125 -177.09375 -6.257812 -204.851562 5.4375 -231.625 L 189.546875 -655.328125 C 203.179688 -687.023438 223.296875 -711.269531 249.890625 -728.0625 C 276.484375 -744.863281 305.222656 -753.910156 336.109375 -755.203125 C 367.003906 -756.492188 396.226562 -749.738281 423.78125 -734.9375 C 451.34375 -720.144531 473.25 -697.007812 489.5 -665.53125 L 701.25 -252.890625 C 715.25 -226.890625 721.296875 -199.4375 719.390625 -170.53125 C 717.492188 -141.632812 708.925781 -114.960938 693.6875 -90.515625 C 678.457031 -66.066406 657.15625 -46.828125 629.78125 -32.796875 C 603.070312 -19.472656 575.097656 -13.578125 545.859375 -15.109375 C 516.617188 -16.648438 489.941406 -25.21875 465.828125 -40.8125 C 441.722656 -56.40625 422.664062 -77.539062 408.65625 -104.21875 L 313.296875 -290.03125 C 312.535156 -292.082031 310.78125 -292.71875 308.03125 -291.9375 C 305.28125 -291.164062 304.300781 -289.054688 305.09375 -285.609375 L 336.78125 -169.796875 L 307.609375 -101.140625 C 295.234375 -73.648438 277.316406 -51.378906 253.859375 -34.328125 C 230.398438 -17.285156 204.296875 -7.109375 175.546875 -3.796875 C 146.804688 -0.492188 118.363281 -4.664062 90.21875 -16.3125 Z M 90.21875 -16.3125 "/></g></g></g><g fill="#9ac0df" fill-opacity="1"><g transform="translate(2374.207587, 899.152166)"><g/></g></g><g fill="#9ac0df" fill-opacity="1"><g transform="translate(2617.703926, 901.864656)"><g/></g></g><g fill="#9ac0df" fill-opacity="1"><g transform="translate(2861.082409, 909.90465)"><g/></g></g><g fill="#9ac0df" fill-opacity="1"><g transform="translate(3100.113611, 918.709172)"><g><path d="M 558.234375 -689.734375 C 589.347656 -686.742188 616.796875 -676.429688 640.578125 -658.796875 C 664.359375 -641.171875 682.472656 -619.019531 694.921875 -592.34375 C 707.367188 -565.675781 712.132812 -537.125 709.21875 -506.6875 C 706.363281 -476.957031 696.492188 -450.515625 679.609375 -427.359375 C 662.734375 -404.203125 641.289062 -386.191406 615.28125 -373.328125 C 589.28125 -360.472656 560.71875 -355.539062 529.59375 -358.53125 L 507.4375 -116.71875 C 504.507812 -86.28125 494.210938 -59 476.546875 -34.875 C 458.878906 -10.757812 436.691406 7.691406 409.984375 20.484375 C 383.273438 33.285156 354.707031 38.226562 324.28125 35.3125 C 294.550781 32.457031 267.96875 22.222656 244.53125 4.609375 C 221.101562 -12.992188 203.179688 -35.300781 190.765625 -62.3125 C 178.347656 -89.320312 173.601562 -118.046875 176.53125 -148.484375 L 199.71875 -390.1875 C 169.28125 -393.101562 142.34375 -403.363281 118.90625 -420.96875 C 95.46875 -438.570312 77.664062 -460.34375 65.5 -486.28125 C 53.34375 -512.226562 48.691406 -540.066406 51.546875 -569.796875 C 54.460938 -600.234375 64.390625 -627.378906 81.328125 -651.234375 C 98.273438 -675.085938 119.925781 -693.421875 146.28125 -706.234375 C 172.632812 -719.054688 201.03125 -724.007812 231.46875 -721.09375 Z M 558.234375 -689.734375 "/></g></g></g><g fill="#9ac0df" fill-opacity="1"><g transform="translate(3745.923899, 979.088929)"><g><path d="M 533.25 -618.53125 C 558 -637.132812 584.492188 -647.898438 612.734375 -650.828125 C 640.984375 -653.753906 668.265625 -649.445312 694.578125 -637.90625 C 720.890625 -626.375 742.609375 -608.007812 759.734375 -582.8125 C 777.078125 -558.976562 786.957031 -532.445312 789.375 -503.21875 C 791.800781 -474 787.390625 -446.03125 776.140625 -419.3125 C 764.898438 -392.601562 747.253906 -369.898438 723.203125 -351.203125 L 559.453125 -229.3125 L 536.71875 -85.203125 C 531.957031 -55.003906 520.25 -28.710938 501.59375 -6.328125 C 482.945312 16.046875 459.929688 32.632812 432.546875 43.4375 C 405.171875 54.238281 376.390625 57.257812 346.203125 52.5 C 316.691406 47.84375 290.578125 36.160156 267.859375 17.453125 C 245.140625 -1.242188 228.347656 -24.109375 217.484375 -51.140625 C 206.628906 -78.179688 203.582031 -106.800781 208.34375 -137 L 231.078125 -281.109375 L 112.765625 -447.46875 C 95.648438 -472.664062 85.851562 -499.703125 83.375 -528.578125 C 80.894531 -557.460938 85.304688 -585.429688 96.609375 -612.484375 C 107.910156 -639.546875 125.472656 -661.742188 149.296875 -679.078125 C 173.359375 -697.796875 199.507812 -708.617188 227.75 -711.546875 C 256 -714.472656 282.9375 -710.222656 308.5625 -698.796875 C 334.1875 -687.367188 355.554688 -669.054688 372.671875 -643.859375 L 441.015625 -548.671875 Z M 533.25 -618.53125 "/></g></g></g></g></g><g transform="matrix(1, 0, 0, 1, 2265, 168)"><g clip-path="url(#d272bd66e8)"><g fill="#ffef42" fill-opacity="1"><g transform="translate(449.43095, 1115.687317)"><g><path d="M 160.984375 -991.257812 C 214.203125 -1010.59375 267.78125 -1014.964844 321.714844 -1004.371094 C 373.429688 -994.210938 419.542969 -972.417969 460.050781 -938.984375 C 501.925781 -904.425781 532.328125 -861.097656 551.253906 -808.996094 C 569.976562 -757.464844 574.390625 -705.355469 564.492188 -652.667969 C 555.066406 -602.484375 534.433594 -557.203125 502.605469 -516.816406 C 468.566406 -473.636719 424.65625 -442.277344 370.863281 -422.734375 L 324.152344 -551.300781 L 452.519531 -598.5625 L 536.417969 -370.699219 C 555.546875 -318.042969 559.980469 -264.714844 549.707031 -210.710938 C 539.84375 -158.839844 518.40625 -112.492188 485.398438 -71.664062 C 450.839844 -28.917969 407.277344 2.003906 354.714844 21.101562 C 302.519531 40.066406 249.484375 44.085938 195.609375 33.160156 C 144.257812 22.746094 98.316406 0.613281 57.78125 -33.246094 C 16.105469 -68.058594 -14.144531 -111.378906 -32.976562 -163.207031 L -115.890625 -391.425781 L 12.679688 -438.136719 L 59.390625 -309.570312 C 6.539062 -290.367188 -46.820312 -286.230469 -100.695312 -297.152344 C -151.675781 -307.492188 -197.003906 -328.96875 -236.675781 -361.589844 C -278.085938 -395.636719 -308.152344 -438.425781 -326.875 -489.957031 C -345.632812 -541.585938 -350.382812 -593.808594 -341.121094 -646.621094 C -332.042969 -698.378906 -311.09375 -744.8125 -278.269531 -785.921875 C -243.972656 -828.882812 -200.402344 -859.960938 -147.554688 -879.160156 Z M 254.40625 -734.121094 L -54.132812 -622.023438 C -58.746094 -620.347656 -62.191406 -618.082031 -64.472656 -615.226562 C -68.226562 -610.523438 -70.621094 -605.234375 -71.648438 -599.363281 C -72.496094 -594.542969 -71.859375 -589.214844 -69.738281 -583.378906 C -68.058594 -578.753906 -65.789062 -575.265625 -62.925781 -572.914062 C -58.332031 -569.136719 -52.796875 -566.59375 -46.324219 -565.28125 C -42.746094 -564.554688 -38.648438 -565.027344 -34.03125 -566.707031 L 94.535156 -613.417969 L 224.164062 -256.628906 C 226.210938 -250.992188 229.214844 -246.519531 233.171875 -243.210938 C 238.273438 -238.953125 243.875 -236.203125 249.976562 -234.964844 C 253.558594 -234.238281 257.328125 -234.597656 261.292969 -236.035156 C 266.1875 -237.816406 269.972656 -240.355469 272.644531 -243.664062 C 276.867188 -248.882812 279.632812 -254.9375 280.945312 -261.828125 C 281.847656 -266.585938 281.429688 -271.367188 279.683594 -276.175781 L 148.320312 -632.957031 L 277.441406 -679.871094 C 282.421875 -681.679688 285.855469 -683.78125 287.742188 -686.175781 C 291.835938 -691.367188 294.460938 -697.035156 295.613281 -703.179688 C 296.296875 -706.816406 295.796875 -710.949219 294.117188 -715.574219 C 292.167969 -720.9375 289.433594 -725.074219 285.910156 -727.984375 C 281.023438 -732.015625 275.382812 -734.660156 268.988281 -735.917969 C 264.816406 -736.734375 259.957031 -736.136719 254.40625 -734.121094 Z M 254.40625 -734.121094 "/></g></g></g><g fill="#9ac0df" fill-opacity="1"><g transform="translate(449.43095, 1115.687317)"><g><path d="M 207.6875 -862.671875 C 237.070312 -873.347656 266.289062 -875.832031 295.34375 -870.125 C 324.394531 -864.425781 350.269531 -852.207031 372.96875 -833.46875 C 395.664062 -814.738281 412.234375 -791.007812 422.671875 -762.28125 C 432.878906 -734.195312 435.335938 -706.078125 430.046875 -677.921875 C 424.753906 -649.765625 413.128906 -624.289062 395.171875 -601.5 C 377.210938 -578.707031 353.535156 -561.972656 324.140625 -551.296875 L 408.046875 -323.421875 C 418.484375 -294.691406 420.90625 -265.640625 415.3125 -236.265625 C 409.726562 -206.890625 397.628906 -180.6875 379.015625 -157.65625 C 360.398438 -134.632812 336.726562 -117.90625 308 -107.46875 C 279.914062 -97.257812 251.507812 -95.070312 222.78125 -100.90625 C 194.0625 -106.738281 168.289062 -119.179688 145.46875 -138.234375 C 122.65625 -157.285156 106.03125 -181.175781 95.59375 -209.90625 L 12.671875 -438.125 C -16.054688 -427.6875 -44.78125 -425.378906 -73.5 -431.203125 C -102.226562 -437.035156 -127.660156 -449.050781 -149.796875 -467.25 C -171.929688 -485.445312 -188.101562 -508.585938 -198.3125 -536.671875 C -208.75 -565.398438 -211.4375 -594.171875 -206.375 -622.984375 C -201.320312 -651.796875 -189.648438 -677.65625 -171.359375 -700.5625 C -153.078125 -723.46875 -129.570312 -740.140625 -100.84375 -750.578125 Z M 207.6875 -862.671875 "/></g></g></g></g></g></svg>