<svg xmlns="http://www.w3.org/2000/svg" xmlns:xlink="http://www.w3.org/1999/xlink" width="6912" zoomAndPan="magnify" viewBox="0 0 5184 2592.000001" height="3456" preserveAspectRatio="xMidYMid meet" version="1.0"><defs><g/><clipPath id="f0c80e3c4b"><rect x="0" width="4745" y="0" height="1408"/></clipPath><clipPath id="390eb0f391"><rect x="0" width="1356" y="0" height="1467"/></clipPath></defs><g transform="matrix(1, 0, 0, 1, 215, 837)"><g clip-path="url(#f0c80e3c4b)"><g fill="#ffef42" fill-opacity="1"><g transform="translate(283.678632, 1116.507837)"><g><path d="M 391.222656 -978.652344 C 451.207031 -987.726562 508.324219 -980.675781 562.582031 -957.5 C 613.589844 -935.710938 656.738281 -903.136719 692.015625 -859.773438 C 728.847656 -814.507812 751.613281 -763.121094 760.3125 -705.617188 C 769.269531 -646.40625 762.703125 -589.804688 740.613281 -535.8125 C 719.304688 -483.726562 687.046875 -440.046875 643.84375 -404.765625 C 599.191406 -368.308594 547.359375 -345.613281 488.34375 -336.6875 C 444.460938 -330.046875 402.742188 -331.183594 363.1875 -340.089844 C 359.28125 -340.972656 356.1875 -341.488281 353.910156 -341.636719 C 354.460938 -341.601562 355.703125 -341.726562 357.628906 -342.019531 C 370.679688 -343.992188 383.011719 -348.511719 394.625 -355.570312 C 405.953125 -362.460938 415.410156 -371.042969 422.984375 -381.320312 C 430.5625 -391.601562 435.96875 -403.171875 439.195312 -416.03125 C 442.503906 -429.214844 443.171875 -442.332031 441.199219 -455.378906 C 438.964844 -470.128906 433.703125 -483.917969 425.40625 -496.753906 C 417.554688 -508.902344 407.855469 -518.84375 396.304688 -526.570312 C 386.058594 -533.429688 374.761719 -538.203125 362.417969 -540.894531 C 350.570312 -543.476562 338.882812 -543.894531 327.351562 -542.148438 C 325.425781 -541.859375 324.203125 -541.613281 323.683594 -541.414062 C 325.816406 -542.230469 328.617188 -543.636719 332.089844 -545.636719 C 367.238281 -565.847656 406.753906 -579.269531 450.640625 -585.910156 C 511.101562 -595.058594 568.660156 -587.652344 623.308594 -563.691406 C 674.109375 -541.421875 717.0625 -508.464844 752.171875 -464.820312 C 788.769531 -419.324219 811.503906 -367.253906 820.375 -308.605469 C 829.121094 -250.816406 822.445312 -194.925781 800.355469 -140.933594 C 779.414062 -89.746094 747.90625 -46.289062 705.839844 -10.570312 C 660.871094 27.617188 608.390625 51.25 548.40625 60.324219 L 393.660156 83.738281 C 322.289062 94.535156 252.855469 90.421875 185.355469 71.402344 C 120.179688 53.03125 60.5 23.234375 6.316406 -17.996094 C -47.675781 -59.082031 -92.347656 -108.496094 -127.699219 -166.238281 C -163.777344 -225.164062 -187.066406 -289.332031 -197.566406 -358.742188 C -208.4375 -430.605469 -205.078125 -500.1875 -187.488281 -567.484375 C -170.160156 -633.777344 -141.175781 -694.191406 -100.542969 -748.722656 C -60.210938 -802.851562 -11.15625 -847.867188 46.617188 -883.765625 C 105.125 -920.121094 169.550781 -944.113281 239.890625 -955.746094 Z M 433.609375 -698.480469 L 286.113281 -676.179688 C 252.789062 -670.667969 222.808594 -659.636719 196.167969 -643.082031 C 168.792969 -626.074219 145.628906 -604.851562 126.675781 -579.414062 C 108.023438 -554.386719 94.6875 -526.519531 86.660156 -495.820312 C 78.898438 -466.128906 77.546875 -434.5625 82.605469 -401.128906 C 87.390625 -369.507812 97.84375 -340.53125 113.964844 -314.195312 C 130.8125 -286.683594 152.125 -263.113281 177.910156 -243.492188 C 203.507812 -224.015625 231.609375 -209.964844 262.214844 -201.339844 C 290.5 -193.367188 320.1875 -191.734375 351.269531 -196.4375 L 506.019531 -219.847656 C 512.914062 -220.890625 518.386719 -223.128906 522.429688 -226.5625 C 529.375 -232.460938 534.597656 -239.6875 538.09375 -248.234375 C 540.445312 -253.976562 541.148438 -259.972656 540.203125 -266.21875 C 538.957031 -274.449219 536.015625 -281.445312 531.382812 -287.207031 C 525.261719 -294.820312 517.976562 -300.472656 509.535156 -304.175781 C 504.945312 -306.1875 499.445312 -306.707031 493.027344 -305.738281 C 484.261719 -304.410156 477.699219 -302.496094 473.34375 -299.992188 C 438.199219 -279.78125 403.664062 -267.109375 369.738281 -261.976562 C 346.824219 -258.507812 324.269531 -259.195312 302.078125 -264.03125 C 279.382812 -268.976562 258.253906 -277.996094 238.695312 -291.085938 C 217.835938 -305.046875 200.746094 -322.332031 187.429688 -342.933594 C 173.671875 -364.21875 164.871094 -387.570312 161.023438 -412.992188 C 157.328125 -437.425781 158.4375 -461.433594 164.359375 -485.019531 C 170.199219 -508.28125 180.378906 -529.761719 194.902344 -549.460938 C 209.421875 -569.160156 226.929688 -585.242188 247.425781 -597.699219 C 268.203125 -610.332031 290.808594 -618.496094 315.242188 -622.191406 C 349.167969 -627.324219 385.90625 -625.4375 425.457031 -616.527344 C 430.359375 -615.421875 437.191406 -615.535156 445.957031 -616.859375 C 453.820312 -618.050781 460.042969 -620.515625 464.621094 -624.253906 C 470.644531 -629.171875 475.222656 -635.457031 478.355469 -643.109375 C 480.703125 -648.855469 481.300781 -655.5625 480.140625 -663.230469 C 479.152344 -669.757812 476.511719 -675.664062 472.21875 -680.941406 C 466.371094 -688.125 459.390625 -693.449219 451.269531 -696.917969 C 446.390625 -699.003906 440.503906 -699.523438 433.609375 -698.480469 Z M 433.609375 -698.480469 "/></g></g></g><g fill="#ffef42" fill-opacity="1"><g transform="translate(985.681046, 1008.760258)"><g><path d="M 574.84375 92.816406 C 517.949219 97.8125 464.042969 88.363281 413.128906 64.46875 C 363.144531 41.011719 322.160156 7.164062 290.171875 -37.078125 C 257.226562 -82.648438 238.226562 -134.183594 233.175781 -191.679688 L 229.964844 -228.238281 C 231.34375 -212.535156 235.757812 -197.613281 243.203125 -183.472656 C 250.449219 -169.714844 259.917969 -157.933594 271.617188 -148.125 C 283.3125 -138.316406 296.566406 -131.042969 311.378906 -126.308594 C 326.597656 -121.441406 342.0625 -119.695312 357.765625 -121.078125 C 373.472656 -122.457031 388.394531 -126.867188 402.53125 -134.3125 C 416.289062 -141.558594 428.074219 -151.03125 437.882812 -162.726562 C 447.691406 -174.425781 454.964844 -187.679688 459.699219 -202.492188 C 464.566406 -217.710938 466.308594 -233.171875 464.929688 -248.878906 L 468.140625 -212.320312 C 473.207031 -154.625 463.90625 -100.664062 440.230469 -50.4375 C 416.847656 -0.828125 382.769531 39.816406 337.992188 71.492188 C 292.664062 103.558594 241.148438 122.128906 183.453125 127.195312 C 127.496094 132.109375 74.328125 122.878906 23.953125 99.503906 C -25.882812 76.378906 -66.855469 42.605469 -98.972656 -1.8125 C -131.917969 -47.382812 -150.945312 -99.273438 -156.058594 -157.488281 L -193.273438 -581.132812 C -198.414062 -639.664062 -188.578125 -694.160156 -163.765625 -744.628906 C -139.859375 -793.261719 -105.511719 -833.21875 -60.722656 -864.5 C -15.195312 -896.300781 35.546875 -914.660156 91.507812 -919.574219 C 149.199219 -924.640625 203.160156 -915.339844 253.386719 -891.664062 C 302.722656 -868.414062 343.183594 -834.746094 374.769531 -790.667969 C 407.113281 -745.535156 425.832031 -693.96875 430.925781 -635.964844 L 434.328125 -597.253906 C 432.8125 -614.511719 427.828125 -630.714844 419.375 -645.859375 C 412.296875 -658.542969 403.367188 -669.402344 392.582031 -678.445312 C 380.882812 -688.253906 367.628906 -695.527344 352.820312 -700.261719 C 337.597656 -705.128906 322.136719 -706.875 306.429688 -705.492188 C 290.726562 -704.113281 275.804688 -699.703125 261.664062 -692.257812 C 247.90625 -685.011719 236.125 -675.539062 226.316406 -663.84375 C 217.273438 -653.058594 210.371094 -640.804688 205.613281 -627.082031 C 199.929688 -610.695312 197.847656 -593.875 199.363281 -576.617188 L 195.964844 -615.324219 C 190.886719 -673.136719 200.75 -727.277344 225.5625 -777.746094 C 249.378906 -826.183594 283.722656 -866.21875 328.597656 -897.851562 C 374.570312 -930.253906 426 -948.957031 482.894531 -953.953125 C 540.390625 -959.003906 594.449219 -949.28125 645.0625 -924.785156 C 693.382812 -901.398438 733.3125 -868.175781 764.851562 -825.117188 C 798.082031 -779.746094 817.234375 -728.15625 822.3125 -670.34375 L 859.527344 -246.699219 C 864.578125 -189.203125 854.855469 -135.144531 830.359375 -84.53125 C 806.835938 -35.929688 773.199219 4.1875 729.445312 35.820312 C 683.875 68.765625 632.339844 87.765625 574.84375 92.816406 Z M 550.046875 -189.460938 C 555.628906 -189.949219 560.085938 -191.398438 563.421875 -193.8125 C 568.570312 -197.535156 572.53125 -202.253906 575.300781 -207.976562 C 577.089844 -211.679688 577.742188 -216.324219 577.253906 -221.90625 L 540.039062 -645.550781 C 539.578125 -650.816406 538.3125 -654.859375 536.25 -657.679688 C 532.492188 -662.808594 527.617188 -666.824219 521.617188 -669.726562 C 517.914062 -671.519531 513.269531 -672.167969 507.6875 -671.679688 C 501.5 -671.136719 496.222656 -669.324219 491.855469 -666.246094 C 486.394531 -662.394531 482.394531 -657.890625 479.855469 -652.726562 C 478.3125 -649.589844 477.773438 -645.390625 478.238281 -640.121094 L 481.636719 -601.410156 C 483.65625 -578.417969 480.890625 -556.03125 473.335938 -534.242188 C 466.703125 -515.117188 456.738281 -497.628906 443.445312 -481.777344 C 429.386719 -465.011719 412.804688 -451.59375 393.695312 -441.53125 C 374.207031 -431.269531 353.382812 -425.164062 331.226562 -423.21875 C 309.070312 -421.273438 287.503906 -423.652344 266.523438 -430.363281 C 245.949219 -436.9375 227.28125 -447.257812 210.515625 -461.316406 C 194.664062 -474.609375 181.804688 -490.09375 171.941406 -507.765625 C 160.703125 -527.902344 154.074219 -549.46875 152.050781 -572.460938 L 148.652344 -611.167969 C 148.082031 -617.679688 146.675781 -622.496094 144.445312 -625.613281 C 141.453125 -629.78125 137.5 -633.027344 132.574219 -635.347656 C 128.546875 -637.25 123.121094 -637.898438 116.300781 -637.300781 C 110.613281 -636.800781 105.691406 -635.097656 101.535156 -632.195312 C 96.636719 -628.773438 92.96875 -624.578125 90.523438 -619.609375 C 88.984375 -616.476562 88.476562 -611.914062 89 -605.929688 L 126.214844 -182.285156 C 126.769531 -175.988281 128.25 -171.167969 130.660156 -167.835938 C 133.902344 -163.347656 138.09375 -159.914062 143.230469 -157.53125 C 147.828125 -155.398438 152.972656 -154.578125 158.660156 -155.078125 C 165.480469 -155.679688 170.707031 -157.265625 174.34375 -159.835938 C 178.535156 -162.800781 181.726562 -166.605469 183.914062 -171.25 C 185.8125 -175.28125 186.464844 -180.707031 185.867188 -187.523438 L 182.652344 -224.082031 C 180.707031 -246.238281 183.089844 -267.808594 189.796875 -288.789062 C 196.375 -309.359375 206.691406 -328.027344 220.75 -344.792969 C 234.808594 -361.558594 251.394531 -374.972656 270.503906 -385.039062 C 289.992188 -395.300781 310.816406 -401.40625 332.972656 -403.351562 C 355.128906 -405.296875 376.695312 -402.917969 397.675781 -396.207031 C 418.246094 -389.632812 436.914062 -379.3125 453.683594 -365.253906 C 470.449219 -351.195312 483.863281 -334.613281 493.925781 -315.503906 C 504.1875 -296.011719 510.292969 -275.191406 512.238281 -253.035156 L 515.449219 -216.476562 C 515.941406 -210.894531 517.390625 -206.4375 519.804688 -203.101562 C 523.171875 -198.441406 527.742188 -194.753906 533.511719 -192.046875 C 538.347656 -189.777344 543.859375 -188.914062 550.046875 -189.460938 Z M 550.046875 -189.460938 "/></g></g></g><g fill="#ffef42" fill-opacity="1"><g transform="translate(1714.294742, 943.469177)"><g><path d="M 34.5625 112.542969 C -16.644531 89.097656 -58.308594 54.96875 -90.433594 10.152344 C -122.394531 -34.425781 -141.328125 -83.949219 -147.238281 -138.414062 C -153.21875 -193.515625 -144.894531 -246.519531 -122.257812 -297.429688 L 71.199219 -734.777344 C 97.128906 -794.007812 136.355469 -839.972656 188.875 -872.671875 C 237.933594 -903.210938 291.0625 -919.488281 348.257812 -921.503906 C 406.109375 -923.542969 460.609375 -910.613281 511.757812 -882.71875 C 565.914062 -853.179688 607.9375 -808.996094 637.828125 -750.171875 L 854.496094 -321.007812 C 880.667969 -271.699219 891.695312 -218.546875 887.578125 -161.546875 C 883.707031 -107.972656 867.460938 -58.5625 838.832031 -13.304688 C 808.925781 33.972656 768.09375 70.675781 716.339844 96.796875 C 665.308594 121.855469 612.226562 132.753906 557.09375 129.488281 C 501.652344 126.207031 450.964844 109.488281 405.023438 79.335938 C 359.460938 49.433594 323.824219 9.625 298.109375 -40.09375 L 196.101562 -242.125 L 193.171875 -250.253906 C 199.417969 -232.910156 208.808594 -217.414062 221.339844 -203.769531 C 236.359375 -187.410156 254.273438 -175.359375 275.082031 -167.609375 C 302.792969 -157.285156 330.65625 -155.988281 358.671875 -163.707031 C 375.648438 -168.386719 391.183594 -176.117188 405.277344 -186.890625 C 423.089844 -200.507812 436.765625 -217.464844 446.3125 -237.761719 C 454.230469 -254.597656 458.546875 -272.25 459.257812 -290.722656 C 459.703125 -302.332031 458.671875 -313.710938 456.164062 -324.851562 L 317.941406 -293.742188 L 454.839844 -330.242188 L 499.558594 -162.503906 L 449.3125 -46.398438 C 425.0625 6.613281 390.53125 49.179688 345.71875 81.304688 C 301.136719 113.265625 251.613281 132.199219 197.152344 138.109375 C 143.03125 143.984375 90.152344 136.042969 38.515625 114.277344 L 36.527344 113.441406 Z M 152.523438 -145.101562 L 93.542969 -16.28125 L 148.570312 -146.839844 C 155.105469 -144.082031 161.105469 -143.003906 166.574219 -143.597656 C 171.695312 -144.152344 176.382812 -145.953125 180.625 -148.996094 C 184.636719 -151.871094 187.515625 -155.1875 189.257812 -158.941406 L 219.949219 -229.859375 L 349.976562 -173.585938 L 213.074219 -137.089844 L 180.328125 -259.925781 L 179.71875 -262.632812 C 172.199219 -296.042969 175.59375 -327.953125 189.902344 -358.371094 C 199.960938 -379.757812 214.382812 -397.632812 233.164062 -411.992188 C 248.230469 -423.511719 264.964844 -431.808594 283.375 -436.882812 C 314.25 -445.394531 344.449219 -444.148438 373.980469 -433.152344 C 395.695312 -425.0625 414.386719 -412.488281 430.054688 -395.425781 C 443.230469 -381.078125 453.132812 -364.695312 459.765625 -346.28125 L 326.46875 -298.265625 L 452.945312 -362.121094 L 549.800781 -170.269531 C 552.765625 -164.53125 556.335938 -160.296875 560.503906 -157.558594 C 564.289062 -155.074219 568.738281 -153.679688 573.847656 -153.375 C 579.265625 -153.054688 584.203125 -153.988281 588.660156 -156.167969 C 593.800781 -158.765625 597.367188 -161.636719 599.359375 -164.789062 C 602.636719 -169.964844 604.5 -175.691406 604.953125 -181.960938 C 605.15625 -184.808594 604.023438 -188.589844 601.542969 -193.300781 L 385.203125 -621.820312 C 381.847656 -628.417969 378.808594 -632.460938 376.082031 -633.949219 C 370.339844 -637.078125 364.394531 -638.535156 358.234375 -638.316406 C 351.421875 -638.078125 344.890625 -636.011719 338.628906 -632.113281 C 335.832031 -630.371094 333.070312 -626.382812 330.339844 -620.148438 L 136.664062 -182.300781 C 134.710938 -177.914062 133.980469 -173.476562 134.46875 -168.992188 C 135.023438 -163.867188 136.824219 -159.183594 139.867188 -154.9375 C 142.742188 -150.925781 146.960938 -147.648438 152.523438 -145.101562 Z M 152.523438 -145.101562 "/></g></g></g><g fill="#ffef42" fill-opacity="1"><g transform="translate(2311.28926, 925.795433)"><g><path d="M 529.390625 -895.347656 C 588.015625 -893.910156 641.34375 -877.90625 689.371094 -847.332031 C 735.414062 -818.015625 771.667969 -779.589844 798.121094 -732.054688 C 825.46875 -682.917969 838.4375 -629.652344 837.03125 -572.257812 C 835.640625 -515.484375 820.230469 -463.558594 790.796875 -416.476562 C 762.765625 -371.628906 725.777344 -335.738281 679.832031 -308.800781 C 630.707031 -279.996094 576.515625 -266.320312 517.257812 -267.773438 L 520.726562 -409.410156 L 662.378906 -406.550781 L 657.300781 -155.101562 C 655.878906 -97.09375 640.027344 -43.984375 609.738281 4.226562 C 580.644531 50.535156 542.476562 87.152344 495.230469 114.074219 C 445.765625 142.261719 392.078125 155.644531 334.167969 154.226562 C 276.667969 152.816406 223.996094 136.679688 176.15625 105.808594 C 130.558594 76.386719 94.597656 37.695312 68.28125 -10.261719 C 41.222656 -59.566406 28.390625 -112.769531 29.789062 -169.863281 L 35.949219 -421.285156 L 177.585938 -417.8125 L 174.117188 -276.175781 C 115.898438 -277.601562 62.867188 -293.75 15.027344 -324.621094 C -30.246094 -353.832031 -65.859375 -391.65625 -91.816406 -438.09375 C -118.90625 -486.558594 -131.757812 -539.179688 -130.367188 -595.949219 C -128.972656 -652.828125 -113.84375 -704.988281 -84.980469 -752.429688 C -56.691406 -798.929688 -18.957031 -835.808594 28.214844 -863.074219 C 77.507812 -891.566406 131.265625 -905.097656 189.488281 -903.671875 Z M 522.449219 -612.070312 L 182.546875 -620.394531 C 177.464844 -620.519531 173.285156 -619.636719 170.007812 -617.742188 C 164.613281 -614.621094 160.308594 -610.425781 157.097656 -605.148438 C 154.464844 -600.816406 153.066406 -595.4375 152.910156 -589.011719 C 152.785156 -583.917969 153.660156 -579.695312 155.53125 -576.347656 C 158.535156 -570.96875 162.914062 -566.425781 168.660156 -562.714844 C 171.839844 -560.664062 175.972656 -559.578125 181.054688 -559.453125 L 322.695312 -555.984375 L 313.066406 -162.925781 C 312.914062 -156.714844 314.125 -151.269531 316.695312 -146.585938 C 320.007812 -140.550781 324.371094 -135.785156 329.792969 -132.289062 C 332.972656 -130.234375 336.742188 -129.15625 341.109375 -129.050781 C 346.503906 -128.917969 351.113281 -129.941406 354.9375 -132.121094 C 360.980469 -135.566406 365.933594 -140.359375 369.796875 -146.511719 C 372.464844 -150.757812 373.867188 -155.53125 373.996094 -160.824219 L 381.949219 -554.53125 L 524.195312 -551.046875 C 529.679688 -550.914062 533.785156 -551.644531 536.511719 -553.242188 C 542.417969 -556.707031 547.085938 -561.183594 550.519531 -566.671875 C 552.550781 -569.925781 553.628906 -574.097656 553.753906 -579.195312 C 553.898438 -585.105469 552.820312 -590.125 550.519531 -594.261719 C 547.328125 -599.996094 542.886719 -604.675781 537.195312 -608.300781 C 533.480469 -610.664062 528.566406 -611.921875 522.449219 -612.070312 Z M 522.449219 -612.070312 "/></g></g></g><g fill="#ffef42" fill-opacity="1"><g transform="translate(2976.24192, 945.576388)"><g/></g></g><g fill="#ffef42" fill-opacity="1"><g transform="translate(3227.961297, 961.433651)"><g/></g></g><g fill="#ffef42" fill-opacity="1"><g transform="translate(3479.266462, 982.793938)"><g/></g></g><g fill="#ffef42" fill-opacity="1"><g transform="translate(3725.533268, 1003.747103)"><g><path d="M 462.234375 -756.910156 C 508.578125 -792.242188 559.394531 -812.957031 614.683594 -819.058594 C 668.714844 -825.023438 720.859375 -817.1875 771.105469 -795.550781 C 823.429688 -773.019531 866.261719 -737.554688 899.605469 -689.160156 L 782.933594 -608.777344 L 896.953125 -692.878906 C 930.777344 -647.019531 950.226562 -595.792969 955.296875 -539.195312 C 960.074219 -485.863281 952.300781 -434.613281 931.980469 -385.449219 C 911.085938 -334.902344 878.558594 -292.214844 834.398438 -257.390625 L 663.214844 -128.203125 L 577.886719 -241.304688 L 717.976562 -220.148438 L 695.410156 -70.726562 C 686.792969 -13.65625 664.625 36.597656 628.90625 80.027344 C 594.417969 121.960938 551.84375 153.121094 501.179688 173.496094 C 449.007812 194.480469 394.539062 200.6875 337.769531 192.113281 C 281.714844 183.648438 231.859375 161.6875 188.214844 126.230469 C 145.828125 91.800781 114.355469 49.460938 93.785156 -0.789062 C 72.488281 -52.828125 66.148438 -107.386719 74.765625 -164.460938 L 97.332031 -313.878906 L 237.421875 -292.722656 L 122.5 -209.859375 L -1.152344 -381.363281 C -34.222656 -429.328125 -53.277344 -480.542969 -58.3125 -535.003906 C -63.210938 -587.976562 -55.5 -639.234375 -35.1875 -688.78125 C -13.628906 -741.355469 20.078125 -784.554688 65.9375 -818.378906 L 150.039062 -704.359375 L 62.304688 -815.609375 C 108.328125 -851.902344 159.402344 -873.148438 215.519531 -879.34375 C 269.871094 -885.339844 321.929688 -877.441406 371.695312 -855.636719 C 422.945312 -833.1875 465.148438 -797.894531 498.308594 -749.761719 L 381.636719 -669.382812 L 496.183594 -752.765625 L 567.605469 -654.648438 L 453.058594 -571.265625 L 366.792969 -683.660156 L 461.871094 -756.632812 Z M 634.394531 -531.84375 L 424.035156 -370.390625 L 266.007812 -587.488281 L 264.964844 -589.003906 C 262.3125 -592.851562 259.988281 -595.214844 257.996094 -596.089844 C 254.519531 -597.609375 250.722656 -598.144531 246.605469 -597.691406 C 244.261719 -597.429688 241.316406 -595.90625 237.769531 -593.109375 L 235.976562 -591.695312 L 234.136719 -590.339844 C 230.859375 -587.921875 228.476562 -584.898438 226.992188 -581.28125 C 224.265625 -574.628906 223.214844 -567.898438 223.847656 -561.089844 C 224.339844 -555.769531 225.953125 -551.101562 228.695312 -547.082031 L 386.144531 -328.707031 L 354.949219 -122.144531 C 354.113281 -116.605469 354.476562 -111.929688 356.035156 -108.121094 C 358.324219 -102.523438 361.9375 -97.71875 366.875 -93.707031 C 370.546875 -90.722656 374.953125 -88.84375 380.085938 -88.070312 C 385.929688 -87.1875 391.046875 -87.628906 395.4375 -89.394531 C 401.335938 -91.769531 406.207031 -95.289062 410.050781 -99.964844 C 412.664062 -103.140625 414.390625 -107.5 415.226562 -113.042969 L 446.421875 -319.601562 L 658.933594 -479.890625 C 664.34375 -484.15625 668.066406 -488.757812 670.109375 -493.695312 C 672.71875 -500.015625 673.707031 -506.753906 673.066406 -513.914062 C 672.714844 -517.8125 671.332031 -521.398438 668.914062 -524.679688 L 667.558594 -526.515625 L 666.261719 -528.398438 C 663.789062 -531.984375 661.382812 -534.28125 659.042969 -535.289062 C 654.625 -537.191406 650.203125 -537.898438 645.769531 -537.410156 C 642.59375 -537.058594 638.679688 -535.109375 634.03125 -531.566406 Z M 634.394531 -531.84375 "/></g></g></g><g fill="#9ac0df" fill-opacity="1"><g transform="translate(283.678632, 1116.507837)"><g><path d="M 412.421875 -838.5625 C 445.847656 -843.613281 477.34375 -839.820312 506.90625 -827.1875 C 536.476562 -814.550781 561.546875 -795.597656 582.109375 -770.328125 C 602.671875 -745.066406 615.375 -716.425781 620.21875 -684.40625 C 625.269531 -650.976562 621.6875 -619.328125 609.46875 -589.453125 C 597.25 -559.578125 578.832031 -534.59375 554.21875 -514.5 C 529.601562 -494.40625 500.582031 -481.832031 467.15625 -476.78125 C 440.820312 -472.789062 416.539062 -473.300781 394.3125 -478.3125 C 372.082031 -483.320312 352.785156 -484.585938 336.421875 -482.109375 C 325.046875 -480.390625 315.882812 -474.816406 308.9375 -465.390625 C 302 -455.972656 299.390625 -445.566406 301.109375 -434.171875 C 302.722656 -423.503906 308.1875 -415.054688 317.5 -408.828125 C 326.8125 -402.597656 337.15625 -400.34375 348.53125 -402.0625 C 364.894531 -404.539062 382.953125 -411.453125 402.703125 -422.796875 C 422.460938 -434.148438 445.507812 -441.820312 471.84375 -445.8125 C 505.269531 -450.863281 536.789062 -446.898438 566.40625 -433.921875 C 596.03125 -420.941406 621.148438 -401.632812 641.765625 -376 C 662.378906 -350.375 675.21875 -320.847656 680.28125 -287.421875 C 685.125 -255.398438 681.429688 -224.453125 669.203125 -194.578125 C 656.984375 -164.703125 638.617188 -139.359375 614.109375 -118.546875 C 589.609375 -97.742188 560.644531 -84.816406 527.21875 -79.765625 L 372.46875 -56.34375 C 321.238281 -48.59375 271.675781 -51.46875 223.78125 -64.96875 C 175.894531 -78.46875 132.003906 -100.394531 92.109375 -130.75 C 52.222656 -161.101562 19.234375 -197.59375 -6.859375 -240.21875 C -32.960938 -282.84375 -49.835938 -329.410156 -57.484375 -379.921875 C -65.441406 -432.578125 -63.082031 -483.148438 -50.40625 -531.640625 C -37.738281 -580.140625 -16.582031 -624.273438 13.0625 -664.046875 C 42.707031 -703.828125 78.8125 -736.945312 121.375 -763.40625 C 163.945312 -789.875 211.15625 -807.390625 263 -815.953125 Z M 412.421875 -838.5625 "/></g></g></g><g fill="#9ac0df" fill-opacity="1"><g transform="translate(985.681046, 1008.760258)"><g><path d="M 562.4375 -48.3125 C 530.894531 -45.539062 501.179688 -50.695312 473.296875 -63.78125 C 445.421875 -76.863281 422.644531 -95.628906 404.96875 -120.078125 C 387.300781 -144.535156 377.082031 -172.535156 374.3125 -204.078125 L 371.109375 -240.625 C 370.535156 -247.082031 367.710938 -252.429688 362.640625 -256.671875 C 357.578125 -260.921875 351.820312 -262.765625 345.375 -262.203125 C 338.914062 -261.640625 333.5625 -258.820312 329.3125 -253.75 C 325.0625 -248.6875 323.222656 -242.925781 323.796875 -236.46875 L 327 -199.921875 C 329.832031 -167.660156 324.851562 -137.960938 312.0625 -110.828125 C 299.28125 -83.703125 280.644531 -61.476562 256.15625 -44.15625 C 231.675781 -26.84375 203.3125 -16.769531 171.0625 -13.9375 C 140.226562 -11.226562 111.066406 -16.25 83.578125 -29 C 56.097656 -41.757812 33.519531 -60.363281 15.84375 -84.8125 C -1.832031 -109.269531 -12.085938 -137.628906 -14.921875 -169.890625 L -52.125 -593.515625 C -54.957031 -625.773438 -49.785156 -655.304688 -36.609375 -682.109375 C -23.429688 -708.910156 -4.425781 -730.984375 20.40625 -748.328125 C 45.25 -765.679688 73.085938 -775.710938 103.921875 -778.421875 C 136.171875 -781.253906 165.859375 -776.273438 192.984375 -763.484375 C 220.117188 -750.703125 242.328125 -732.25 259.609375 -708.125 C 276.898438 -684 286.960938 -655.804688 289.796875 -623.546875 L 293.1875 -584.84375 C 293.695312 -579.113281 296.484375 -574.125 301.546875 -569.875 C 306.609375 -565.632812 312.367188 -563.796875 318.828125 -564.359375 C 325.273438 -564.921875 330.625 -567.734375 334.875 -572.796875 C 339.132812 -577.867188 341.007812 -583.269531 340.5 -589 L 337.109375 -627.703125 C 334.335938 -659.253906 339.535156 -688.425781 352.703125 -715.21875 C 365.878906 -742.019531 385.050781 -764.289062 410.21875 -782.03125 C 435.394531 -799.769531 463.753906 -810.023438 495.296875 -812.796875 C 526.828125 -815.566406 556.171875 -810.378906 583.328125 -797.234375 C 610.492188 -784.085938 632.898438 -765.46875 650.546875 -741.375 C 668.203125 -717.289062 678.414062 -689.472656 681.1875 -657.921875 L 718.390625 -234.296875 C 721.160156 -202.753906 715.96875 -173.398438 702.8125 -146.234375 C 689.664062 -119.078125 670.863281 -96.660156 646.40625 -78.984375 C 621.957031 -61.304688 593.96875 -51.082031 562.4375 -48.3125 Z M 562.4375 -48.3125 "/></g></g></g><g fill="#9ac0df" fill-opacity="1"><g transform="translate(1714.294742, 943.469177)"><g><path d="M 93.53125 -16.28125 C 65.15625 -29.269531 42.21875 -47.972656 24.71875 -72.390625 C 7.21875 -96.804688 -3.144531 -123.910156 -6.375 -153.703125 C -9.613281 -183.492188 -5.085938 -212.21875 7.203125 -239.875 L 200.765625 -677.46875 C 215.109375 -710.195312 236.109375 -735.171875 263.765625 -752.390625 C 291.421875 -769.609375 321.25 -778.78125 353.25 -779.90625 C 385.25 -781.03125 415.472656 -773.835938 443.921875 -758.328125 C 472.367188 -742.816406 494.898438 -718.707031 511.515625 -686 L 728 -257.15625 C 742.332031 -230.144531 748.414062 -201.675781 746.25 -171.75 C 744.09375 -141.820312 735.039062 -114.25 719.09375 -89.03125 C 703.144531 -63.820312 680.941406 -44.039062 652.484375 -29.6875 C 624.742188 -16.0625 595.738281 -10.144531 565.46875 -11.9375 C 535.195312 -13.726562 507.628906 -22.785156 482.765625 -39.109375 C 457.898438 -55.429688 438.296875 -77.453125 423.953125 -105.171875 L 326.484375 -298.28125 C 325.710938 -300.414062 323.894531 -301.085938 321.03125 -300.296875 C 318.164062 -299.515625 317.132812 -297.328125 317.9375 -293.734375 L 349.96875 -173.578125 L 319.28125 -102.65625 C 306.28125 -74.28125 287.578125 -51.34375 263.171875 -33.84375 C 238.765625 -16.34375 211.660156 -5.972656 181.859375 -2.734375 C 152.054688 0.492188 122.613281 -4.019531 93.53125 -16.28125 Z M 93.53125 -16.28125 "/></g></g></g><g fill="#9ac0df" fill-opacity="1"><g transform="translate(2311.28926, 925.795433)"><g><path d="M 525.90625 -753.703125 C 558.269531 -752.910156 587.390625 -744.28125 613.265625 -727.8125 C 639.140625 -711.34375 659.488281 -689.785156 674.3125 -663.140625 C 689.132812 -636.503906 696.15625 -607.363281 695.375 -575.71875 C 694.625 -544.78125 686.378906 -516.726562 670.640625 -491.5625 C 654.910156 -466.40625 634.082031 -446.222656 608.15625 -431.015625 C 582.226562 -415.816406 553.082031 -408.613281 520.71875 -409.40625 L 515.640625 -157.984375 C 514.867188 -126.328125 506.242188 -97.378906 489.765625 -71.140625 C 473.285156 -44.910156 451.722656 -24.203125 425.078125 -9.015625 C 398.429688 6.160156 369.28125 13.359375 337.625 12.578125 C 306.695312 11.828125 278.476562 3.222656 252.96875 -13.234375 C 227.46875 -29.691406 207.304688 -51.421875 192.484375 -78.421875 C 177.671875 -105.421875 170.648438 -134.75 171.421875 -166.40625 L 177.578125 -417.8125 C 145.929688 -418.582031 117.347656 -427.195312 91.828125 -443.65625 C 66.316406 -460.125 46.320312 -481.304688 31.84375 -507.203125 C 17.375 -533.109375 10.515625 -561.53125 11.265625 -592.46875 C 12.046875 -624.113281 20.304688 -652.878906 36.046875 -678.765625 C 51.796875 -704.660156 72.8125 -725.203125 99.09375 -740.390625 C 125.382812 -755.585938 154.351562 -762.800781 186 -762.03125 Z M 525.90625 -753.703125 "/></g></g></g><g fill="#9ac0df" fill-opacity="1"><g transform="translate(2976.24192, 945.576388)"><g/></g></g><g fill="#9ac0df" fill-opacity="1"><g transform="translate(3227.961297, 961.433651)"><g/></g></g><g fill="#9ac0df" fill-opacity="1"><g transform="translate(3479.266462, 982.793938)"><g/></g></g><g fill="#9ac0df" fill-opacity="1"><g transform="translate(3725.533268, 1003.747103)"><g><path d="M 548.125 -644.234375 C 573.625 -663.671875 600.988281 -675.003906 630.21875 -678.234375 C 659.457031 -681.460938 687.738281 -677.191406 715.0625 -665.421875 C 742.394531 -653.648438 765.019531 -634.765625 782.9375 -608.765625 C 801.039062 -584.203125 811.453125 -556.796875 814.171875 -526.546875 C 816.890625 -496.304688 812.507812 -467.316406 801.03125 -439.578125 C 789.5625 -411.835938 771.441406 -388.1875 746.671875 -368.625 L 577.890625 -241.3125 L 555.328125 -91.890625 C 550.597656 -60.578125 538.644531 -33.269531 519.46875 -9.96875 C 500.300781 13.332031 476.578125 30.671875 448.296875 42.046875 C 420.023438 53.429688 390.238281 56.757812 358.9375 52.03125 C 328.332031 47.40625 301.203125 35.476562 277.546875 16.25 C 253.890625 -2.96875 236.34375 -26.535156 224.90625 -54.453125 C 213.476562 -82.367188 210.128906 -111.984375 214.859375 -143.296875 L 237.421875 -292.71875 L 113.765625 -464.203125 C 95.859375 -490.210938 85.523438 -518.160156 82.765625 -548.046875 C 80.003906 -577.929688 84.378906 -606.921875 95.890625 -635.015625 C 107.410156 -663.117188 125.457031 -686.226562 150.03125 -704.34375 C 174.820312 -723.894531 201.832031 -735.285156 231.0625 -738.515625 C 260.300781 -741.742188 288.226562 -737.523438 314.84375 -725.859375 C 341.457031 -714.191406 363.722656 -695.363281 381.640625 -669.375 L 453.0625 -571.265625 Z M 548.125 -644.234375 "/></g></g></g></g></g><g transform="matrix(1, 0, 0, 1, 2983, 133)"><g clip-path="url(#390eb0f391)"><g fill="#ffef42" fill-opacity="1"><g transform="translate(244.664683, 920.791648)"><g><path d="M 788.332031 -678.550781 C 843.410156 -658.40625 888.796875 -626.160156 924.496094 -581.8125 C 958.726562 -539.292969 980.753906 -491.277344 990.585938 -437.769531 C 1000.746094 -382.464844 995.96875 -327.851562 976.25 -273.929688 C 956.742188 -220.597656 925.507812 -176.34375 882.542969 -141.171875 C 841.621094 -107.671875 795.085938 -85.523438 742.933594 -74.722656 C 687.167969 -63.175781 631.449219 -67.582031 575.78125 -87.941406 L 624.445312 -221.003906 L 757.714844 -172.910156 L 672.34375 63.65625 C 652.414062 118.152344 620.382812 163.382812 576.246094 199.351562 C 533.851562 233.894531 485.960938 256.351562 432.582031 266.71875 C 376.691406 277.574219 321.546875 273.054688 267.144531 253.15625 C 213.125 233.402344 168.402344 201.238281 132.972656 156.667969 C 99.203125 114.1875 77.535156 66.015625 67.96875 12.15625 C 58.132812 -43.222656 63.023438 -97.726562 82.640625 -151.367188 L 169.023438 -387.5625 L 302.082031 -338.898438 L 253.421875 -205.835938 C 198.726562 -225.839844 153.664062 -258.125 118.234375 -302.695312 C 84.707031 -344.871094 63.089844 -392.109375 53.378906 -444.414062 C 43.242188 -499.007812 47.925781 -552.972656 67.433594 -606.304688 C 86.972656 -659.738281 118.015625 -704.300781 160.558594 -739.996094 C 202.253906 -774.980469 249.8125 -797.828125 303.234375 -808.542969 C 359.058594 -819.738281 414.316406 -815.335938 469.011719 -795.332031 Z M 691.003906 -412.429688 L 371.683594 -529.210938 C 366.910156 -530.957031 362.667969 -531.457031 358.957031 -530.714844 C 352.84375 -529.488281 347.421875 -526.890625 342.691406 -522.921875 C 338.808594 -519.664062 335.761719 -515.015625 333.554688 -508.976562 C 331.804688 -504.191406 331.277344 -499.910156 331.980469 -496.140625 C 333.105469 -490.082031 335.792969 -484.375 340.050781 -479.019531 C 342.40625 -476.058594 345.972656 -473.707031 350.746094 -471.957031 L 483.808594 -423.296875 L 348.761719 -54.039062 C 346.628906 -48.207031 346.03125 -42.65625 346.964844 -37.398438 C 348.167969 -30.621094 350.777344 -24.707031 354.789062 -19.65625 C 357.144531 -16.695312 360.371094 -14.464844 364.472656 -12.964844 C 369.542969 -11.113281 374.238281 -10.605469 378.558594 -11.445312 C 385.386719 -12.769531 391.613281 -15.726562 397.246094 -20.316406 C 401.132812 -23.484375 403.988281 -27.554688 405.808594 -32.527344 L 539.472656 -402.9375 L 673.109375 -354.066406 C 678.261719 -352.179688 682.382812 -351.558594 685.476562 -352.199219 C 692.183594 -353.585938 698.039062 -356.332031 703.050781 -360.433594 C 706.015625 -362.863281 708.375 -366.46875 710.125 -371.257812 C 712.15625 -376.808594 712.742188 -381.910156 711.890625 -386.566406 C 710.703125 -393.019531 707.992188 -398.875 703.761719 -404.132812 C 701.003906 -407.5625 696.75 -410.328125 691.003906 -412.429688 Z M 691.003906 -412.429688 "/></g></g></g><g fill="#9ac0df" fill-opacity="1"><g transform="translate(244.664683, 920.791648)"><g><path d="M 739.65625 -545.484375 C 770.0625 -534.359375 794.878906 -516.847656 814.109375 -492.953125 C 833.335938 -469.066406 845.703125 -442.132812 851.203125 -412.15625 C 856.710938 -382.175781 854.035156 -352.320312 843.171875 -322.59375 C 832.535156 -293.53125 815.734375 -269.597656 792.765625 -250.796875 C 769.804688 -231.992188 743.613281 -219.546875 714.1875 -213.453125 C 684.757812 -207.359375 654.84375 -209.867188 624.4375 -220.984375 L 539.0625 15.546875 C 528.1875 45.285156 510.738281 69.9375 486.71875 89.5 C 462.707031 109.070312 435.648438 121.78125 405.546875 127.625 C 375.453125 133.46875 345.535156 130.953125 315.796875 120.078125 C 286.742188 109.453125 262.769531 92.257812 243.875 68.5 C 224.988281 44.738281 212.847656 17.695312 207.453125 -12.625 C 202.066406 -42.945312 204.8125 -72.976562 215.6875 -102.71875 L 302.0625 -338.890625 C 272.332031 -349.753906 248.019531 -367.070312 229.125 -390.84375 C 210.238281 -414.613281 198.085938 -441.085938 192.671875 -470.265625 C 187.253906 -499.441406 189.863281 -528.5625 200.5 -557.625 C 211.363281 -587.351562 228.398438 -611.957031 251.609375 -631.4375 C 274.828125 -650.914062 301.316406 -663.640625 331.078125 -669.609375 C 360.847656 -675.578125 390.597656 -673.128906 420.328125 -662.265625 Z M 739.65625 -545.484375 "/></g></g></g></g></g></svg>