<svg xmlns="http://www.w3.org/2000/svg" xmlns:xlink="http://www.w3.org/1999/xlink" width="6912" zoomAndPan="magnify" viewBox="0 0 5184 2592.000001" height="3456" preserveAspectRatio="xMidYMid meet" version="1.0"><defs><g/><clipPath id="fd6cb86e63"><rect x="0" width="3706" y="0" height="1399"/></clipPath><clipPath id="c33855d1a5"><rect x="0" width="1441" y="0" height="1488"/></clipPath></defs><g transform="matrix(1, 0, 0, 1, 224, 853)"><g clip-path="url(#fd6cb86e63)"><g fill="#ffef42" fill-opacity="1"><g transform="translate(274.617265, 1118.66247)"><g><path d="M 366.351562 -923.238281 C 422.859375 -931.933594 476.707031 -925.425781 527.894531 -903.714844 C 576.019531 -883.300781 616.761719 -852.703125 650.113281 -811.921875 C 684.929688 -769.351562 706.507812 -720.976562 714.84375 -666.804688 C 723.429688 -611.023438 717.375 -557.667969 696.6875 -506.730469 C 676.730469 -457.59375 646.433594 -416.351562 605.800781 -383 C 563.808594 -348.535156 515.015625 -327.023438 459.417969 -318.46875 C 418.078125 -312.105469 378.757812 -313.074219 341.460938 -321.378906 C 337.777344 -322.199219 334.859375 -322.675781 332.710938 -322.8125 C 333.234375 -322.777344 334.402344 -322.902344 336.21875 -323.179688 C 348.511719 -325.074219 360.121094 -329.359375 371.050781 -336.042969 C 381.710938 -342.558594 390.601562 -350.671875 397.71875 -360.378906 C 404.835938 -370.082031 409.898438 -381 412.910156 -393.128906 C 415.996094 -405.558594 416.59375 -417.921875 414.703125 -430.214844 C 412.566406 -444.109375 407.570312 -457.09375 399.722656 -469.167969 C 392.292969 -480.597656 383.128906 -489.941406 372.226562 -497.199219 C 362.554688 -503.636719 351.894531 -508.109375 340.253906 -510.617188 C 329.082031 -513.019531 318.066406 -513.386719 307.203125 -511.714844 C 305.390625 -511.4375 304.238281 -511.203125 303.75 -511.015625 C 305.757812 -511.789062 308.394531 -513.121094 311.664062 -515.011719 C 344.738281 -534.144531 381.945312 -546.890625 423.289062 -553.25 C 480.246094 -562.015625 534.507812 -555.175781 586.070312 -532.726562 C 633.996094 -511.859375 674.554688 -480.902344 707.75 -439.855469 C 742.347656 -397.066406 763.898438 -348.050781 772.398438 -292.796875 C 780.777344 -238.359375 774.621094 -185.671875 753.933594 -134.734375 C 734.316406 -86.441406 704.730469 -45.414062 665.171875 -11.648438 C 622.882812 24.445312 573.484375 46.84375 516.972656 55.539062 L 371.191406 77.972656 C 303.957031 88.320312 238.511719 84.609375 174.855469 66.84375 C 113.386719 49.691406 57.070312 21.753906 5.910156 -16.972656 C -45.070312 -55.566406 -87.289062 -102.027344 -120.746094 -156.363281 C -154.886719 -211.808594 -176.988281 -272.226562 -187.050781 -337.613281 C -197.46875 -405.3125 -194.46875 -470.894531 -178.050781 -534.359375 C -161.878906 -596.878906 -134.710938 -653.882812 -96.546875 -705.371094 C -58.664062 -756.480469 -12.542969 -799.019531 41.816406 -832.988281 C 96.871094 -867.390625 157.527344 -890.15625 223.792969 -901.285156 Z M 406.96875 -659.296875 L 268.019531 -637.925781 C 236.628906 -632.65625 208.402344 -622.1875 183.335938 -606.523438 C 157.574219 -590.425781 135.792969 -570.371094 117.996094 -546.355469 C 100.476562 -522.722656 87.972656 -496.429688 80.484375 -467.480469 C 73.242188 -439.476562 72.042969 -409.726562 76.890625 -378.230469 C 81.472656 -348.4375 91.394531 -321.15625 106.652344 -296.378906 C 122.59375 -270.488281 142.738281 -248.328125 167.085938 -229.898438 C 191.253906 -211.601562 217.773438 -198.425781 246.636719 -190.371094 C 273.308594 -182.929688 301.289062 -181.460938 330.574219 -185.964844 L 476.355469 -208.402344 C 482.851562 -209.398438 488 -211.523438 491.804688 -214.769531 C 498.335938 -220.34375 503.242188 -227.164062 506.515625 -235.226562 C 508.71875 -240.648438 509.367188 -246.296875 508.460938 -252.179688 C 507.265625 -259.9375 504.480469 -266.523438 500.097656 -271.941406 C 494.308594 -279.097656 487.433594 -284.410156 479.46875 -287.878906 C 475.136719 -289.765625 469.949219 -290.242188 463.90625 -289.3125 C 455.648438 -288.042969 449.46875 -286.21875 445.371094 -283.851562 C 412.296875 -264.71875 379.78125 -252.695312 347.820312 -247.777344 C 326.234375 -244.453125 304.976562 -245.046875 284.050781 -249.550781 C 262.652344 -254.15625 242.71875 -262.605469 224.253906 -274.898438 C 204.5625 -288.003906 188.417969 -304.25 175.816406 -323.632812 C 162.800781 -343.660156 154.449219 -365.648438 150.761719 -389.597656 C 147.222656 -412.613281 148.210938 -435.242188 153.734375 -457.484375 C 159.183594 -479.421875 168.726562 -499.691406 182.363281 -518.289062 C 196.003906 -536.890625 212.464844 -552.085938 231.75 -563.875 C 251.300781 -575.832031 272.582031 -583.578125 295.601562 -587.121094 C 327.558594 -592.039062 362.1875 -590.347656 399.484375 -582.042969 C 404.105469 -581.015625 410.542969 -581.136719 418.800781 -582.40625 C 426.210938 -583.546875 432.070312 -585.886719 436.375 -589.421875 C 442.039062 -594.070312 446.339844 -600.003906 449.269531 -607.222656 C 451.472656 -612.644531 452.015625 -618.964844 450.90625 -626.1875 C 449.957031 -632.339844 447.457031 -637.898438 443.394531 -642.859375 C 437.871094 -649.617188 431.277344 -654.617188 423.617188 -657.867188 C 419.015625 -659.820312 413.464844 -660.296875 406.96875 -659.296875 Z M 406.96875 -659.296875 "/></g></g></g><g fill="#ffef42" fill-opacity="1"><g transform="translate(935.942538, 1015.452568)"><g><path d="M 541.964844 86.09375 C 488.359375 90.941406 437.535156 82.167969 389.496094 59.769531 C 342.332031 37.78125 303.625 5.980469 273.375 -35.636719 C 242.214844 -78.503906 224.1875 -127.027344 219.289062 -181.203125 L 216.175781 -215.648438 C 217.515625 -200.851562 221.707031 -186.796875 228.757812 -173.492188 C 235.621094 -160.542969 244.574219 -149.460938 255.621094 -140.246094 C 266.667969 -131.027344 279.179688 -124.207031 293.148438 -119.78125 C 307.503906 -115.230469 322.078125 -113.625 336.875 -114.960938 C 351.671875 -116.296875 365.726562 -120.492188 379.03125 -127.542969 C 391.980469 -134.402344 403.0625 -143.359375 412.277344 -154.40625 C 421.496094 -165.453125 428.316406 -177.960938 432.742188 -191.929688 C 437.292969 -206.285156 438.898438 -220.863281 437.5625 -235.660156 L 440.675781 -201.214844 C 445.589844 -146.855469 436.953125 -95.980469 414.761719 -48.585938 C 392.84375 -1.777344 360.824219 36.609375 318.703125 66.566406 C 276.058594 96.894531 227.554688 114.519531 173.195312 119.433594 C 120.46875 124.199219 70.34375 115.625 22.8125 93.71875 C -24.207031 72.042969 -62.90625 40.3125 -93.277344 -1.472656 C -124.433594 -44.339844 -142.492188 -93.195312 -147.453125 -148.046875 L -183.535156 -547.210938 C -188.519531 -602.355469 -179.382812 -653.738281 -156.121094 -701.359375 C -133.703125 -747.25 -101.429688 -784.988281 -59.296875 -814.574219 C -16.464844 -844.65625 31.3125 -862.078125 84.035156 -866.84375 C 138.398438 -871.757812 189.273438 -863.121094 236.664062 -840.929688 C 283.210938 -819.132812 321.421875 -787.503906 351.296875 -746.039062 C 381.886719 -703.582031 399.652344 -655.027344 404.59375 -600.375 L 407.890625 -563.90625 C 406.417969 -580.164062 401.683594 -595.421875 393.679688 -609.671875 C 386.980469 -621.609375 378.539062 -631.824219 368.351562 -640.320312 C 357.304688 -649.535156 344.796875 -656.359375 330.828125 -660.785156 C 316.472656 -665.335938 301.894531 -666.941406 287.097656 -665.605469 C 272.300781 -664.265625 258.25 -660.070312 244.941406 -653.019531 C 231.992188 -646.160156 220.910156 -637.207031 211.695312 -626.160156 C 203.199219 -615.972656 196.722656 -604.410156 192.273438 -591.464844 C 186.957031 -576.007812 185.035156 -560.152344 186.503906 -543.890625 L 183.207031 -580.363281 C 178.28125 -634.832031 187.453125 -685.878906 210.714844 -733.5 C 233.039062 -779.207031 265.3125 -817.019531 307.527344 -846.9375 C 350.773438 -877.585938 399.199219 -895.335938 452.804688 -900.179688 C 506.980469 -905.078125 557.949219 -896.042969 605.707031 -873.078125 C 651.300781 -851.152344 689.011719 -819.9375 718.835938 -779.433594 C 750.261719 -736.757812 768.4375 -688.183594 773.359375 -633.710938 L 809.445312 -234.550781 C 814.339844 -180.375 805.308594 -129.410156 782.34375 -81.648438 C 760.292969 -35.792969 728.6875 2.09375 687.527344 32.011719 C 644.660156 63.171875 596.140625 81.199219 541.964844 86.09375 Z M 517.921875 -179.867188 C 523.179688 -180.339844 527.378906 -181.71875 530.515625 -184 C 535.359375 -187.519531 539.078125 -191.980469 541.675781 -197.375 C 543.355469 -200.871094 543.957031 -205.25 543.484375 -210.507812 L 507.398438 -609.667969 C 506.949219 -614.632812 505.75 -618.441406 503.796875 -621.09375 C 500.246094 -625.914062 495.640625 -629.6875 489.980469 -632.410156 C 486.484375 -634.089844 482.105469 -634.695312 476.847656 -634.21875 C 471.015625 -633.691406 466.046875 -631.972656 461.941406 -629.058594 C 456.800781 -625.417969 453.042969 -621.160156 450.660156 -616.289062 C 449.21875 -613.332031 448.71875 -609.371094 449.167969 -604.40625 L 452.464844 -567.933594 C 454.421875 -546.269531 451.867188 -525.164062 444.800781 -504.613281 C 438.597656 -486.574219 429.25 -470.070312 416.757812 -455.097656 C 403.550781 -439.261719 387.953125 -426.578125 369.96875 -417.050781 C 351.625 -407.332031 332.015625 -401.527344 311.140625 -399.640625 C 290.265625 -397.753906 269.933594 -399.945312 250.144531 -406.21875 C 230.742188 -412.367188 213.125 -422.046875 197.289062 -435.257812 C 182.316406 -447.746094 170.164062 -462.308594 160.824219 -478.941406 C 150.183594 -497.890625 143.886719 -518.199219 141.925781 -539.863281 L 138.628906 -576.332031 C 138.074219 -582.46875 136.742188 -587 134.628906 -589.933594 C 131.800781 -593.859375 128.066406 -596.90625 123.421875 -599.082031 C 119.617188 -600.863281 114.503906 -601.460938 108.078125 -600.882812 C 102.71875 -600.398438 98.085938 -598.78125 94.175781 -596.035156 C 89.570312 -592.800781 86.121094 -588.835938 83.828125 -584.148438 C 82.382812 -581.191406 81.917969 -576.890625 82.425781 -571.253906 L 118.511719 -172.089844 C 119.046875 -166.15625 120.457031 -161.621094 122.734375 -158.484375 C 125.800781 -154.265625 129.757812 -151.039062 134.605469 -148.804688 C 138.945312 -146.804688 143.792969 -146.046875 149.152344 -146.53125 C 155.578125 -147.109375 160.5 -148.617188 163.921875 -151.050781 C 167.867188 -153.855469 170.863281 -157.449219 172.914062 -161.832031 C 174.695312 -165.632812 175.296875 -170.746094 174.714844 -177.171875 L 171.601562 -211.617188 C 169.714844 -232.492188 171.90625 -252.824219 178.175781 -272.613281 C 184.328125 -292.015625 194.003906 -309.632812 207.214844 -325.46875 C 220.421875 -341.304688 236.019531 -353.984375 254.003906 -363.515625 C 272.347656 -373.234375 291.957031 -379.035156 312.832031 -380.921875 C 333.707031 -382.808594 354.039062 -380.617188 373.828125 -374.347656 C 393.230469 -368.195312 410.851562 -358.515625 426.683594 -345.308594 C 442.519531 -332.097656 455.199219 -316.503906 464.730469 -298.519531 C 474.449219 -280.175781 480.25 -260.566406 482.136719 -239.691406 L 485.253906 -205.246094 C 485.726562 -199.984375 487.105469 -195.785156 489.386719 -192.648438 C 492.574219 -188.265625 496.886719 -184.804688 502.332031 -182.265625 C 506.894531 -180.140625 512.089844 -179.339844 517.921875 -179.867188 Z M 517.921875 -179.867188 "/></g></g></g><g fill="#ffef42" fill-opacity="1"><g transform="translate(1622.441779, 952.175316)"><g><path d="M 32.84375 105.976562 C -15.472656 84.007812 -54.820312 51.941406 -85.203125 9.785156 C -115.425781 -32.152344 -133.390625 -78.777344 -139.09375 -130.089844 C -144.859375 -182.007812 -137.140625 -231.976562 -115.929688 -280.007812 L 65.339844 -692.636719 C 89.636719 -748.519531 126.492188 -791.933594 175.910156 -822.871094 C 222.070312 -851.773438 272.101562 -867.242188 326 -869.277344 C 380.511719 -871.335938 431.90625 -859.28125 480.175781 -833.113281 C 531.289062 -805.40625 570.996094 -763.871094 599.304688 -708.503906 L 804.527344 -304.566406 C 829.308594 -258.164062 839.828125 -208.097656 836.082031 -154.371094 C 832.5625 -103.871094 817.371094 -57.265625 790.5 -14.546875 C 762.429688 30.082031 724.035156 64.765625 675.324219 89.507812 C 627.292969 113.25 577.292969 123.644531 525.324219 120.699219 C 473.070312 117.738281 425.257812 102.105469 381.890625 73.800781 C 338.882812 45.726562 305.199219 8.296875 280.847656 -38.5 L 184.230469 -228.652344 L 181.449219 -236.304688 C 187.378906 -219.976562 196.265625 -205.394531 208.105469 -192.566406 C 222.300781 -177.1875 239.210938 -165.867188 258.839844 -158.617188 C 284.980469 -148.953125 311.246094 -147.796875 337.628906 -155.140625 C 353.617188 -159.589844 368.238281 -166.910156 381.492188 -177.101562 C 398.246094 -189.976562 411.097656 -205.988281 420.046875 -225.140625 C 427.46875 -241.023438 431.492188 -257.671875 432.117188 -275.082031 C 432.507812 -286.023438 431.511719 -296.742188 429.121094 -307.238281 L 298.929688 -277.589844 L 427.859375 -312.3125 L 470.402344 -154.34375 L 423.328125 -44.804688 C 400.605469 5.214844 368.164062 45.414062 326.007812 75.796875 C 284.070312 106.023438 237.441406 123.984375 186.128906 129.6875 C 135.136719 135.351562 85.285156 127.992188 36.570312 107.605469 L 34.695312 106.820312 Z M 143.394531 -137.109375 L 88.117188 -15.566406 L 139.664062 -138.738281 C 145.828125 -136.160156 151.488281 -135.152344 156.636719 -135.726562 C 161.464844 -136.261719 165.875 -137.96875 169.867188 -140.847656 C 173.644531 -143.566406 176.347656 -146.699219 177.980469 -150.242188 L 206.734375 -217.148438 L 329.40625 -164.429688 L 200.476562 -129.707031 L 169.320312 -245.390625 L 168.742188 -247.941406 C 161.574219 -279.40625 164.699219 -309.488281 178.109375 -338.191406 C 187.539062 -358.371094 201.085938 -375.25 218.753906 -388.828125 C 232.921875 -399.71875 248.675781 -407.578125 266.011719 -412.40625 C 295.085938 -420.5 323.554688 -419.398438 351.410156 -409.105469 C 371.890625 -401.535156 389.539062 -389.730469 404.34375 -373.6875 C 416.796875 -360.195312 426.167969 -344.78125 432.464844 -327.441406 L 306.957031 -281.875 L 425.996094 -342.355469 L 517.734375 -161.78125 C 520.542969 -156.378906 523.917969 -152.394531 527.851562 -149.828125 C 531.425781 -147.496094 535.621094 -146.191406 540.4375 -145.917969 C 545.542969 -145.628906 550.195312 -146.519531 554.390625 -148.585938 C 559.226562 -151.042969 562.582031 -153.757812 564.453125 -156.734375 C 567.527344 -161.621094 569.269531 -167.019531 569.683594 -172.933594 C 569.871094 -175.617188 568.789062 -179.175781 566.445312 -183.609375 L 361.53125 -586.9375 C 358.359375 -593.144531 355.484375 -596.949219 352.90625 -598.34375 C 347.492188 -601.28125 341.882812 -602.640625 336.078125 -602.421875 C 329.660156 -602.179688 323.507812 -600.214844 317.617188 -596.527344 C 314.988281 -594.878906 312.390625 -591.113281 309.832031 -585.230469 L 128.355469 -172.128906 C 126.53125 -167.992188 125.851562 -163.808594 126.320312 -159.582031 C 126.855469 -154.753906 128.5625 -150.34375 131.441406 -146.351562 C 134.164062 -142.578125 138.144531 -139.496094 143.394531 -137.109375 Z M 143.394531 -137.109375 "/></g></g></g><g fill="#ffef42" fill-opacity="1"><g transform="translate(2185.008161, 934.09)"><g><path d="M 496.777344 -845.050781 C 552.035156 -843.835938 602.328125 -828.878906 647.660156 -800.179688 C 691.125 -772.664062 725.378906 -736.535156 750.425781 -691.800781 C 776.3125 -645.558594 788.664062 -595.386719 787.472656 -541.292969 C 786.296875 -487.789062 771.898438 -438.816406 744.273438 -394.375 C 717.960938 -352.042969 683.1875 -318.132812 639.953125 -292.636719 C 593.726562 -265.375 542.6875 -252.355469 486.835938 -253.582031 L 489.769531 -387.074219 L 623.273438 -384.714844 L 619.082031 -147.734375 C 617.882812 -93.0625 603.066406 -42.972656 574.640625 2.535156 C 547.332031 46.246094 511.445312 80.84375 466.984375 106.328125 C 420.4375 133.007812 369.871094 145.75 315.292969 144.550781 C 261.101562 143.359375 211.425781 128.277344 166.265625 99.296875 C 123.222656 71.675781 89.242188 35.300781 64.324219 -9.832031 C 38.707031 -56.234375 26.488281 -106.34375 27.671875 -160.152344 L 32.878906 -397.109375 L 166.367188 -394.179688 L 163.4375 -260.6875 C 108.5625 -261.894531 58.550781 -276.984375 13.390625 -305.964844 C -29.34375 -333.386719 -62.996094 -368.945312 -87.570312 -412.648438 C -113.214844 -458.261719 -125.453125 -507.820312 -124.277344 -561.324219 C -123.097656 -614.929688 -108.964844 -664.121094 -81.875 -708.902344 C -55.324219 -752.789062 -19.855469 -787.636719 24.539062 -813.445312 C 70.925781 -840.410156 121.554688 -853.292969 176.429688 -852.085938 Z M 490.914062 -578.066406 L 170.5625 -585.105469 C 165.769531 -585.210938 161.832031 -584.367188 158.75 -582.574219 C 153.671875 -579.625 149.628906 -575.65625 146.613281 -570.675781 C 144.140625 -566.589844 142.839844 -561.515625 142.707031 -555.460938 C 142.601562 -550.65625 143.433594 -546.679688 145.203125 -543.53125 C 148.050781 -538.46875 152.1875 -534.195312 157.613281 -530.714844 C 160.613281 -528.789062 164.507812 -527.773438 169.300781 -527.667969 L 302.792969 -524.738281 L 294.652344 -154.289062 C 294.523438 -148.4375 295.675781 -143.304688 298.109375 -138.898438 C 301.246094 -133.21875 305.371094 -128.738281 310.488281 -125.453125 C 313.488281 -123.527344 317.046875 -122.519531 321.160156 -122.429688 C 326.246094 -122.320312 330.585938 -123.292969 334.1875 -125.355469 C 339.871094 -128.617188 344.53125 -133.148438 348.15625 -138.953125 C 350.660156 -142.964844 351.96875 -147.464844 352.078125 -152.453125 L 358.636719 -523.511719 L 492.703125 -520.566406 C 497.871094 -520.449219 501.738281 -521.148438 504.300781 -522.664062 C 509.859375 -525.941406 514.25 -530.171875 517.472656 -535.351562 C 519.378906 -538.421875 520.386719 -542.359375 520.492188 -547.160156 C 520.613281 -552.730469 519.585938 -557.460938 517.40625 -561.351562 C 514.386719 -566.746094 510.1875 -571.148438 504.816406 -574.550781 C 501.308594 -576.769531 496.675781 -577.941406 490.914062 -578.066406 Z M 490.914062 -578.066406 "/></g></g></g><g fill="#ffef42" fill-opacity="1"><g transform="translate(2807.627044, 946.780764)"><g><path d="M 544.371094 -815.203125 C 599.46875 -810.828125 648.820312 -793.011719 692.4375 -761.765625 C 734.253906 -731.800781 766.382812 -693.773438 788.824219 -647.675781 C 812.019531 -600.027344 821.472656 -549.230469 817.1875 -495.296875 C 812.949219 -441.945312 795.769531 -393.878906 765.644531 -351.089844 C 736.949219 -310.335938 700.289062 -278.472656 655.667969 -255.496094 C 607.953125 -230.925781 556.25 -220.851562 500.5625 -225.277344 L 511.140625 -358.382812 L 644.285156 -348.378906 L 626.53125 -112.027344 C 622.199219 -57.511719 604.539062 -8.355469 573.550781 35.449219 C 543.785156 77.523438 505.976562 110.007812 460.128906 132.90625 C 412.125 156.875 360.914062 166.699219 306.496094 162.375 C 252.460938 158.082031 203.730469 140.175781 160.304688 108.660156 C 118.914062 78.617188 87.074219 40.355469 64.78125 -6.132812 C 41.867188 -53.925781 32.539062 -104.652344 36.800781 -158.304688 L 55.570312 -394.574219 L 188.675781 -384 L 178.101562 -250.898438 C 123.386719 -255.242188 74.320312 -273.175781 30.894531 -304.695312 C -10.199219 -334.519531 -41.757812 -371.949219 -63.785156 -416.988281 C -86.777344 -463.992188 -96.15625 -514.171875 -91.917969 -567.523438 C -87.671875 -620.972656 -70.742188 -669.273438 -41.128906 -712.429688 C -12.109375 -754.722656 25.300781 -787.480469 71.097656 -810.703125 C 118.953125 -834.96875 170.238281 -844.929688 224.949219 -840.582031 Z M 523.222656 -548.996094 L 203.800781 -574.375 C 199.023438 -574.753906 195.042969 -574.136719 191.863281 -572.523438 C 186.625 -569.867188 182.359375 -566.140625 179.066406 -561.339844 C 176.363281 -557.402344 174.769531 -552.414062 174.289062 -546.371094 C 173.910156 -541.582031 174.515625 -537.566406 176.101562 -534.320312 C 178.652344 -529.105469 182.539062 -524.601562 187.753906 -520.816406 C 190.640625 -518.722656 194.472656 -517.484375 199.25 -517.105469 L 332.355469 -506.53125 L 303.007812 -137.15625 C 302.542969 -131.320312 303.402344 -126.132812 305.578125 -121.589844 C 308.382812 -115.742188 312.246094 -111.03125 317.164062 -107.460938 C 320.050781 -105.367188 323.542969 -104.15625 327.644531 -103.832031 C 332.714844 -103.429688 337.105469 -104.152344 340.820312 -106.007812 C 346.683594 -108.9375 351.589844 -113.195312 355.542969 -118.78125 C 358.273438 -122.640625 359.835938 -127.058594 360.234375 -132.035156 L 388.039062 -502.105469 L 521.714844 -491.484375 C 526.867188 -491.074219 530.769531 -491.550781 533.414062 -492.914062 C 539.152344 -495.867188 543.777344 -499.839844 547.289062 -504.828125 C 549.371094 -507.785156 550.601562 -511.65625 550.980469 -516.445312 C 551.421875 -521.996094 550.667969 -526.777344 548.714844 -530.789062 C 546.007812 -536.351562 542.070312 -540.984375 536.898438 -544.6875 C 533.527344 -547.105469 528.96875 -548.539062 523.222656 -548.996094 Z M 523.222656 -548.996094 "/></g></g></g><g fill="#9ac0df" fill-opacity="1"><g transform="translate(274.617265, 1118.66247)"><g><path d="M 386.671875 -791.25 C 418.171875 -796.101562 447.867188 -792.613281 475.765625 -780.78125 C 503.660156 -768.945312 527.320312 -751.144531 546.75 -727.375 C 566.1875 -703.601562 578.222656 -676.640625 582.859375 -646.484375 C 587.710938 -614.984375 584.414062 -585.144531 572.96875 -556.96875 C 561.53125 -528.789062 544.238281 -505.203125 521.09375 -486.203125 C 497.945312 -467.203125 470.625 -455.273438 439.125 -450.421875 C 414.320312 -446.609375 391.4375 -447.035156 370.46875 -451.703125 C 349.507812 -456.378906 331.328125 -457.53125 315.921875 -455.15625 C 305.191406 -453.507812 296.566406 -448.234375 290.046875 -439.328125 C 283.523438 -430.429688 281.085938 -420.625 282.734375 -409.90625 C 284.285156 -399.851562 289.457031 -391.898438 298.25 -386.046875 C 307.039062 -380.191406 316.800781 -378.085938 327.53125 -379.734375 C 342.9375 -382.109375 359.929688 -388.671875 378.515625 -399.421875 C 397.109375 -410.171875 418.804688 -417.453125 443.609375 -421.265625 C 475.109375 -426.117188 504.828125 -422.457031 532.765625 -410.28125 C 560.710938 -398.113281 584.425781 -379.976562 603.90625 -355.875 C 623.394531 -331.769531 635.566406 -303.96875 640.421875 -272.46875 C 645.054688 -242.3125 641.65625 -213.144531 630.21875 -184.96875 C 618.78125 -156.789062 601.535156 -132.867188 578.484375 -113.203125 C 555.441406 -93.535156 528.171875 -81.273438 496.671875 -76.421875 L 350.875 -54 C 302.625 -46.570312 255.914062 -49.160156 210.75 -61.765625 C 165.59375 -74.367188 124.179688 -94.925781 86.515625 -123.4375 C 48.847656 -151.945312 17.664062 -186.253906 -7.03125 -226.359375 C -31.738281 -266.472656 -47.753906 -310.328125 -55.078125 -357.921875 C -62.703125 -407.515625 -60.597656 -455.175781 -48.765625 -500.90625 C -36.941406 -546.644531 -17.109375 -588.296875 10.734375 -625.859375 C 38.578125 -663.421875 72.523438 -694.71875 112.578125 -719.75 C 152.640625 -744.78125 197.082031 -761.394531 245.90625 -769.59375 Z M 386.671875 -791.25 "/></g></g></g><g fill="#9ac0df" fill-opacity="1"><g transform="translate(935.942538, 1015.452568)"><g><path d="M 529.9375 -46.875 C 500.21875 -44.1875 472.207031 -48.972656 445.90625 -61.234375 C 419.613281 -73.503906 398.101562 -91.140625 381.375 -114.140625 C 364.65625 -137.148438 354.953125 -163.507812 352.265625 -193.21875 L 349.15625 -227.671875 C 348.601562 -233.753906 345.929688 -238.789062 341.140625 -242.78125 C 336.359375 -246.769531 330.929688 -248.488281 324.859375 -247.9375 C 318.773438 -247.382812 313.738281 -244.71875 309.75 -239.9375 C 305.757812 -235.15625 304.039062 -229.722656 304.59375 -223.640625 L 307.703125 -189.1875 C 310.453125 -158.800781 305.832031 -130.804688 293.84375 -105.203125 C 281.851562 -79.609375 264.34375 -58.617188 241.3125 -42.234375 C 218.28125 -25.859375 191.566406 -16.296875 161.171875 -13.546875 C 132.128906 -10.921875 104.640625 -15.582031 78.703125 -27.53125 C 52.773438 -39.488281 31.453125 -56.96875 14.734375 -79.96875 C -1.984375 -102.976562 -11.71875 -129.675781 -14.46875 -160.0625 L -50.546875 -559.234375 C -53.296875 -589.617188 -48.492188 -617.457031 -36.140625 -642.75 C -23.785156 -668.039062 -5.925781 -688.890625 17.4375 -705.296875 C 40.8125 -721.710938 67.019531 -731.234375 96.0625 -733.859375 C 126.457031 -736.609375 154.453125 -731.988281 180.046875 -720 C 205.640625 -708.019531 226.613281 -690.679688 242.96875 -667.984375 C 259.320312 -645.285156 268.875 -618.742188 271.625 -588.359375 L 274.921875 -551.875 C 275.410156 -546.46875 278.046875 -541.769531 282.828125 -537.78125 C 287.609375 -533.789062 293.039062 -532.070312 299.125 -532.625 C 305.195312 -533.175781 310.226562 -535.84375 314.21875 -540.625 C 318.21875 -545.40625 319.972656 -550.5 319.484375 -555.90625 L 316.1875 -592.390625 C 313.5 -622.097656 318.332031 -649.597656 330.6875 -674.890625 C 343.050781 -700.179688 361.066406 -721.210938 384.734375 -737.984375 C 408.410156 -754.765625 435.109375 -764.5 464.828125 -767.1875 C 494.546875 -769.875 522.21875 -765.054688 547.84375 -752.734375 C 573.476562 -740.410156 594.632812 -722.914062 611.3125 -700.25 C 628 -677.582031 637.6875 -651.394531 640.375 -621.6875 L 676.453125 -222.515625 C 679.140625 -192.804688 674.320312 -165.132812 662 -139.5 C 649.6875 -113.875 632.023438 -92.703125 609.015625 -75.984375 C 586.015625 -59.265625 559.65625 -49.5625 529.9375 -46.875 Z M 529.9375 -46.875 "/></g></g></g><g fill="#9ac0df" fill-opacity="1"><g transform="translate(1622.441779, 952.175316)"><g><path d="M 88.125 -15.5625 C 61.34375 -27.738281 39.675781 -45.3125 23.125 -68.28125 C 6.570312 -91.25 -3.257812 -116.769531 -6.375 -144.84375 C -9.5 -172.914062 -5.300781 -199.992188 6.21875 -226.078125 L 187.59375 -638.921875 C 201.019531 -669.804688 220.742188 -693.394531 246.765625 -709.6875 C 272.796875 -725.988281 300.890625 -734.707031 331.046875 -735.84375 C 361.203125 -736.976562 389.703125 -730.269531 416.546875 -715.71875 C 443.390625 -701.164062 464.675781 -678.492188 480.40625 -647.703125 L 685.484375 -244.078125 C 699.046875 -218.660156 704.84375 -191.847656 702.875 -163.640625 C 700.914062 -135.429688 692.445312 -109.425781 677.46875 -85.625 C 662.5 -61.820312 641.628906 -43.125 614.859375 -29.53125 C 588.742188 -16.625 561.421875 -10.976562 532.890625 -12.59375 C 504.359375 -14.21875 478.351562 -22.6875 454.875 -38 C 431.394531 -53.320312 412.867188 -74.035156 399.296875 -100.140625 L 306.96875 -281.875 C 306.238281 -283.882812 304.523438 -284.515625 301.828125 -283.765625 C 299.128906 -283.023438 298.164062 -280.960938 298.9375 -277.578125 L 329.40625 -164.421875 L 300.65625 -97.515625 C 288.46875 -70.734375 270.894531 -49.066406 247.9375 -32.515625 C 224.976562 -15.960938 199.460938 -6.125 171.390625 -3 C 143.316406 0.113281 115.5625 -4.070312 88.125 -15.5625 Z M 88.125 -15.5625 "/></g></g></g><g fill="#9ac0df" fill-opacity="1"><g transform="translate(2185.008161, 934.09)"><g><path d="M 493.84375 -711.5625 C 524.351562 -710.894531 551.816406 -702.828125 576.234375 -687.359375 C 600.660156 -671.898438 619.890625 -651.640625 633.921875 -626.578125 C 647.953125 -601.515625 654.640625 -574.066406 653.984375 -544.234375 C 653.335938 -515.078125 645.632812 -488.617188 630.875 -464.859375 C 616.113281 -441.109375 596.53125 -422.039062 572.125 -407.65625 C 547.726562 -393.269531 520.273438 -386.410156 489.765625 -387.078125 L 485.578125 -150.078125 C 484.921875 -120.253906 476.859375 -92.960938 461.390625 -68.203125 C 445.921875 -43.441406 425.648438 -23.878906 400.578125 -9.515625 C 375.503906 4.847656 348.050781 11.703125 318.21875 11.046875 C 289.070312 10.410156 262.457031 2.367188 238.375 -13.078125 C 214.289062 -28.523438 195.238281 -48.953125 181.21875 -74.359375 C 167.195312 -99.765625 160.515625 -127.378906 161.171875 -157.203125 L 166.375 -394.171875 C 136.53125 -394.828125 109.566406 -402.878906 85.484375 -418.328125 C 61.410156 -433.785156 42.519531 -453.703125 28.8125 -478.078125 C 15.101562 -502.460938 8.570312 -529.234375 9.21875 -558.390625 C 9.875 -588.222656 17.585938 -615.351562 32.359375 -639.78125 C 47.140625 -664.21875 66.894531 -683.625 91.625 -698 C 116.363281 -712.382812 143.65625 -719.25 173.5 -718.59375 Z M 493.84375 -711.5625 "/></g></g></g><g fill="#9ac0df" fill-opacity="1"><g transform="translate(2807.627044, 946.780764)"><g><path d="M 533.796875 -682.109375 C 564.222656 -679.691406 591.179688 -670.066406 614.671875 -653.234375 C 638.171875 -636.398438 656.203125 -615.066406 668.765625 -589.234375 C 681.335938 -563.410156 686.445312 -535.628906 684.09375 -505.890625 C 681.78125 -476.804688 672.570312 -450.828125 656.46875 -427.953125 C 640.363281 -405.085938 619.71875 -387.171875 594.53125 -374.203125 C 569.351562 -361.234375 541.554688 -355.957031 511.140625 -358.375 L 493.390625 -122.03125 C 491.023438 -92.289062 481.410156 -65.503906 464.546875 -41.671875 C 447.679688 -17.835938 426.320312 0.53125 400.46875 13.4375 C 374.613281 26.351562 346.8125 31.628906 317.0625 29.265625 C 288 26.953125 261.882812 17.394531 238.71875 0.59375 C 215.5625 -16.207031 197.710938 -37.691406 185.171875 -63.859375 C 172.628906 -90.035156 167.539062 -117.992188 169.90625 -147.734375 L 188.671875 -384 C 158.921875 -386.363281 132.46875 -395.945312 109.3125 -412.75 C 86.164062 -429.5625 68.445312 -450.523438 56.15625 -475.640625 C 43.875 -500.765625 38.890625 -527.867188 41.203125 -556.953125 C 43.554688 -586.691406 52.8125 -613.335938 68.96875 -636.890625 C 85.125 -660.441406 105.957031 -678.6875 131.46875 -691.625 C 156.988281 -704.5625 184.625 -709.847656 214.375 -707.484375 Z M 533.796875 -682.109375 "/></g></g></g></g></g><g transform="matrix(1, 0, 0, 1, 3512, 457)"><g clip-path="url(#c33855d1a5)"><g fill="#ffef42" fill-opacity="1"><g transform="translate(265.816294, 839.279782)"><g><path d="M 667.207031 -503.425781 C 720.058594 -518.351562 771.773438 -518.914062 822.347656 -505.125 C 871.773438 -491.644531 914.765625 -466.722656 951.320312 -430.363281 C 989.382812 -392.5 1014.648438 -346.585938 1027.121094 -292.621094 L 897.023438 -262.554688 L 1026.082031 -296.796875 C 1039.855469 -244.890625 1039.164062 -193.253906 1024.015625 -141.890625 C 1009.738281 -93.488281 985.183594 -51.257812 950.351562 -15.203125 C 914.539062 21.871094 871.25 48.023438 820.484375 63.261719 L 625.710938 117.234375 L 590.074219 -11.445312 L 705.542969 55.601562 L 634.035156 178.757812 C 606.71875 225.800781 569.890625 262.171875 523.546875 287.875 C 478.800781 312.691406 430.695312 325.261719 379.234375 325.585938 C 326.238281 325.917969 276.347656 312.5 229.554688 285.332031 C 183.347656 258.503906 147.253906 221.996094 121.273438 175.804688 C 96.039062 130.953125 83.109375 82.945312 82.480469 31.777344 C 81.828125 -21.210938 95.15625 -71.226562 122.472656 -118.269531 L 193.980469 -241.425781 L 309.449219 -174.382812 L 180.027344 -141.539062 L 131.019531 -334.671875 C 118.636719 -388.167969 119.667969 -439.652344 134.109375 -489.132812 C 148.15625 -537.261719 172.65625 -579.523438 207.617188 -615.917969 C 244.714844 -654.535156 289.214844 -680.734375 341.125 -694.503906 L 375.363281 -565.445312 L 336.980469 -693.332031 C 389.886719 -709.214844 442.007812 -710.152344 493.34375 -696.152344 C 543.058594 -682.59375 585.953125 -657.648438 622.027344 -621.308594 C 659.175781 -583.886719 683.949219 -538.34375 696.355469 -484.671875 L 566.257812 -454.609375 L 695.53125 -488.039062 L 724.164062 -377.308594 L 594.894531 -343.882812 L 558.191406 -472.261719 L 666.789062 -503.308594 Z M 740.191406 -246.546875 L 499.910156 -177.855469 L 436.554688 -422.855469 L 436.164062 -424.546875 C 435.171875 -428.839844 433.953125 -431.714844 432.507812 -433.167969 C 429.988281 -435.707031 426.847656 -437.488281 423.082031 -438.515625 C 420.933594 -439.101562 417.824219 -438.78125 413.75 -437.558594 L 411.6875 -436.941406 L 409.605469 -436.390625 C 405.894531 -435.402344 402.761719 -433.582031 400.207031 -430.921875 C 395.515625 -426.035156 392.265625 -420.5 390.457031 -414.3125 C 389.046875 -409.480469 388.847656 -404.828125 389.859375 -400.355469 L 452.265625 -154.433594 L 353.410156 15.820312 C 350.757812 20.386719 349.457031 24.609375 349.503906 28.488281 C 349.574219 34.191406 351.082031 39.652344 354.019531 44.875 C 356.207031 48.761719 359.414062 51.933594 363.644531 54.390625 C 368.460938 57.1875 373.101562 58.574219 377.558594 58.542969 C 383.554688 58.507812 389.042969 57.105469 394.03125 54.339844 C 397.421875 52.460938 400.441406 49.234375 403.09375 44.667969 L 501.949219 -125.585938 L 743.714844 -192.511719 C 749.933594 -194.378906 754.789062 -197.121094 758.289062 -200.742188 C 762.765625 -205.378906 765.960938 -210.945312 767.878906 -217.441406 C 768.921875 -220.980469 768.953125 -224.601562 767.964844 -228.316406 L 767.414062 -230.394531 L 766.929688 -232.492188 C 766.003906 -236.492188 764.691406 -239.339844 762.988281 -241.035156 C 759.777344 -244.230469 756.140625 -246.378906 752.085938 -247.484375 C 749.183594 -248.277344 745.078125 -247.925781 739.777344 -246.429688 Z M 740.191406 -246.546875 "/></g></g></g><g fill="#9ac0df" fill-opacity="1"><g transform="translate(265.816294, 839.279782)"><g><path d="M 703.5 -374.9375 C 732.570312 -383.144531 760.476562 -383.597656 787.21875 -376.296875 C 813.957031 -369.003906 837.265625 -355.46875 857.140625 -335.6875 C 877.023438 -315.914062 890.316406 -291.546875 897.015625 -262.578125 C 904.398438 -234.765625 904.039062 -207.128906 895.9375 -179.671875 C 887.84375 -152.210938 873.96875 -128.3125 854.3125 -107.96875 C 834.65625 -87.625 810.582031 -73.175781 782.09375 -64.625 L 590.078125 -11.4375 L 518.5625 111.703125 C 503.582031 137.515625 483.65625 157.316406 458.78125 171.109375 C 433.914062 184.898438 407.117188 191.882812 378.390625 192.0625 C 349.660156 192.25 322.394531 184.851562 296.59375 169.875 C 271.375 155.226562 251.722656 135.382812 237.640625 110.34375 C 223.554688 85.300781 216.335938 58.5625 215.984375 30.125 C 215.640625 1.695312 222.957031 -25.421875 237.9375 -51.234375 L 309.453125 -174.375 L 260.4375 -367.5 C 253.738281 -396.488281 254.351562 -424.5625 262.28125 -451.71875 C 270.207031 -478.875 284.082031 -502.773438 303.90625 -523.421875 C 323.738281 -544.066406 347.554688 -558.078125 375.359375 -565.453125 C 403.847656 -574.003906 431.460938 -574.628906 458.203125 -567.328125 C 484.941406 -560.035156 507.957031 -546.671875 527.25 -527.234375 C 546.550781 -507.804688 559.550781 -483.601562 566.25 -454.625 L 594.890625 -343.875 Z M 703.5 -374.9375 "/></g></g></g></g></g></svg>