<svg xmlns="http://www.w3.org/2000/svg" xmlns:xlink="http://www.w3.org/1999/xlink" width="6912" zoomAndPan="magnify" viewBox="0 0 5184 2592.000001" height="3456" preserveAspectRatio="xMidYMid meet" version="1.0"><defs><g/><clipPath id="651f91231f"><rect x="0" width="1177" y="0" height="1302"/></clipPath><clipPath id="f103b4fe4d"><rect x="0" width="1245" y="0" height="1365"/></clipPath><clipPath id="a8aae4e502"><rect x="0" width="1480" y="0" height="1379"/></clipPath><clipPath id="88cc3a6e57"><rect x="0" width="1206" y="0" height="1359"/></clipPath><clipPath id="6c8f1c898e"><rect x="0" width="1504" y="0" height="1558"/></clipPath><clipPath id="102a67cb7a"><rect x="0" width="1178" y="0" height="1285"/></clipPath></defs><g transform="matrix(1, 0, 0, 1, 3849, 980)"><g clip-path="url(#651f91231f)"><g fill="#ffef42" fill-opacity="1"><g transform="translate(250.678558, 1013.540352)"><g><path d="M 272.917969 -848.976562 C 309.859375 -894.457031 354.632812 -926.714844 407.226562 -945.742188 C 458.628906 -964.335938 511.4375 -969 565.660156 -959.726562 C 622.121094 -950.066406 672.363281 -925.527344 716.386719 -886.105469 L 621.351562 -779.980469 L 712.917969 -889.113281 C 756.8125 -852.285156 787.921875 -806.816406 806.25 -752.699219 C 823.523438 -701.703125 828.035156 -649.777344 819.789062 -596.925781 C 811.3125 -542.589844 789.609375 -493.183594 754.679688 -448.714844 L 617.898438 -282.003906 L 507.777344 -372.382812 L 649.695312 -384.804688 L 662.945312 -233.441406 C 668.003906 -175.625 658.210938 -121.273438 633.566406 -70.386719 C 609.765625 -21.25 575.519531 19.257812 530.820312 51.144531 C 484.789062 83.984375 433.019531 102.917969 375.511719 107.953125 C 318.722656 112.925781 264.8125 103.238281 213.773438 78.902344 C 164.214844 55.265625 123.449219 21.320312 91.476562 -22.929688 C 58.363281 -68.761719 39.273438 -120.582031 34.214844 -178.398438 L 20.960938 -329.765625 L 162.878906 -342.1875 L 70.136719 -234.050781 L -91.234375 -372.449219 C -134.890625 -411.515625 -165.613281 -457.066406 -183.402344 -509.105469 C -200.707031 -559.71875 -205.28125 -611.636719 -197.136719 -664.859375 C -188.488281 -721.335938 -165.753906 -771.523438 -128.925781 -815.417969 L -19.789062 -723.851562 L -131.820312 -811.851562 C -95.414062 -858.199219 -50.519531 -891.027344 2.867188 -910.34375 C 54.566406 -929.046875 107.3125 -933.625 161.101562 -924.078125 C 216.492188 -914.246094 266.082031 -889.726562 309.863281 -850.515625 L 214.828125 -744.390625 L 307.078125 -852.949219 L 400.0625 -773.929688 L 307.8125 -665.375 L 196.949219 -754.835938 L 272.625 -848.621094 Z M 494.355469 -669.691406 L 326.914062 -462.191406 L 121.167969 -637.03125 L 119.789062 -638.265625 C 116.289062 -641.402344 113.460938 -643.160156 111.304688 -643.542969 C 107.546875 -644.210938 103.710938 -643.835938 99.796875 -642.417969 C 97.5625 -641.609375 95.046875 -639.421875 92.242188 -635.851562 L 90.824219 -634.046875 L 89.347656 -632.285156 C 86.714844 -629.148438 85.097656 -625.632812 84.503906 -621.742188 C 83.410156 -614.597656 83.976562 -607.773438 86.199219 -601.265625 C 87.9375 -596.183594 90.621094 -592.003906 94.25 -588.722656 L 299.730469 -412.496094 L 318.046875 -203.246094 C 318.539062 -197.632812 319.996094 -193.148438 322.417969 -189.796875 C 325.984375 -184.867188 330.648438 -181.023438 336.421875 -178.269531 C 340.714844 -176.222656 345.464844 -175.425781 350.664062 -175.882812 C 356.585938 -176.398438 361.480469 -178.039062 365.355469 -180.804688 C 370.558594 -184.515625 374.488281 -189.113281 377.140625 -194.585938 C 378.945312 -198.3125 379.601562 -202.980469 379.109375 -208.59375 L 360.792969 -417.84375 L 530.617188 -624.710938 C 534.894531 -630.160156 537.445312 -635.535156 538.273438 -640.84375 C 539.335938 -647.636719 538.707031 -654.457031 536.386719 -661.304688 C 535.125 -665.03125 532.925781 -668.210938 529.785156 -670.84375 L 528.027344 -672.320312 L 526.3125 -673.851562 C 523.050781 -676.773438 520.15625 -678.449219 517.628906 -678.882812 C 512.863281 -679.695312 508.375 -679.34375 504.15625 -677.816406 C 501.136719 -676.722656 497.773438 -673.894531 494.066406 -669.332031 Z M 494.355469 -669.691406 "/></g></g></g><g fill="#bd0000" fill-opacity="1"><g transform="translate(250.678558, 1013.540352)"><g><path d="M 383.5 -759.15625 C 403.8125 -784.164062 427.875 -801.703125 455.6875 -811.765625 C 483.5 -821.828125 512.148438 -824.332031 541.640625 -819.28125 C 571.128906 -814.238281 597.695312 -801.132812 621.34375 -779.96875 C 644.863281 -760.238281 661.519531 -735.910156 671.3125 -706.984375 C 681.101562 -678.066406 683.671875 -648.695312 679.015625 -618.875 C 674.367188 -589.0625 662.242188 -561.671875 642.640625 -536.703125 L 507.78125 -372.359375 L 521.03125 -221 C 523.800781 -189.289062 518.570312 -159.785156 505.34375 -132.484375 C 492.113281 -105.179688 473.023438 -82.628906 448.078125 -64.828125 C 423.128906 -47.023438 394.800781 -36.734375 363.09375 -33.953125 C 332.09375 -31.242188 302.757812 -36.488281 275.09375 -49.6875 C 247.425781 -62.882812 224.707031 -81.773438 206.9375 -106.359375 C 189.164062 -130.953125 178.894531 -159.101562 176.125 -190.8125 L 162.875 -342.171875 L 1.5 -480.578125 C -22.132812 -501.765625 -38.832031 -526.632812 -48.59375 -555.1875 C -58.363281 -583.738281 -60.9375 -613.109375 -56.3125 -643.296875 C -51.6875 -673.484375 -39.515625 -700.332031 -19.796875 -723.84375 C -0.191406 -748.800781 23.515625 -766.3125 51.328125 -776.375 C 79.148438 -786.4375 107.441406 -788.910156 136.203125 -783.796875 C 164.972656 -778.691406 191.179688 -765.554688 214.828125 -744.390625 L 307.8125 -665.375 Z M 383.5 -759.15625 "/></g></g></g></g></g><g transform="matrix(1, 0, 0, 1, 858, 961)"><g clip-path="url(#f103b4fe4d)"><g fill="#ffef42" fill-opacity="1"><g transform="translate(200.309517, 940.392595)"><g><path d="M 534.4375 239.109375 C 477.871094 229.222656 427.945312 206.078125 384.671875 169.671875 C 342.183594 133.933594 311.136719 90.425781 291.523438 39.15625 C 271.320312 -13.652344 266.214844 -68.640625 276.203125 -125.8125 L 282.554688 -162.164062 C 279.828125 -146.546875 280.246094 -130.90625 283.816406 -115.242188 C 287.292969 -100 293.441406 -86.097656 302.265625 -73.535156 C 311.089844 -60.976562 322.082031 -50.476562 335.242188 -42.039062 C 348.769531 -33.367188 363.339844 -27.667969 378.957031 -24.9375 C 394.570312 -22.210938 410.210938 -22.628906 425.878906 -26.199219 C 441.121094 -29.675781 455.023438 -35.824219 467.585938 -44.648438 C 480.144531 -53.472656 490.644531 -64.464844 499.082031 -77.625 C 507.753906 -91.152344 513.453125 -105.722656 516.183594 -121.339844 L 509.828125 -84.988281 C 499.804688 -27.621094 476.785156 22.390625 440.773438 65.054688 C 405.199219 107.199219 361.558594 137.855469 309.851562 157.027344 C 257.503906 176.4375 202.644531 181.132812 145.28125 171.105469 C 89.640625 161.382812 40.375 138.640625 -2.507812 102.878906 C -44.933594 67.5 -75.992188 24.070312 -95.683594 -27.402344 C -115.886719 -80.210938 -120.929688 -135.558594 -110.816406 -193.441406 L -37.207031 -614.675781 C -27.039062 -672.867188 -3.363281 -723.269531 33.816406 -765.871094 C 69.648438 -806.925781 113.371094 -836.847656 164.984375 -855.636719 C 217.457031 -874.734375 271.511719 -879.425781 327.152344 -869.703125 C 384.519531 -859.675781 434.535156 -836.65625 477.199219 -800.644531 C 519.101562 -765.273438 549.691406 -722.082031 568.960938 -671.074219 C 588.6875 -618.84375 593.515625 -563.894531 583.4375 -506.21875 L 576.710938 -467.734375 C 579.710938 -484.890625 579.066406 -501.921875 574.777344 -518.828125 C 571.1875 -532.980469 565.324219 -545.847656 557.1875 -557.429688 C 548.367188 -569.988281 537.371094 -580.488281 524.210938 -588.925781 C 510.683594 -597.597656 496.113281 -603.296875 480.496094 -606.027344 C 464.882812 -608.753906 449.242188 -608.335938 433.574219 -604.765625 C 418.332031 -601.289062 404.429688 -595.140625 391.871094 -586.316406 C 380.289062 -578.183594 370.410156 -568.066406 362.230469 -555.96875 C 352.464844 -541.519531 346.082031 -525.714844 343.085938 -508.558594 L 349.8125 -547.046875 C 359.855469 -604.527344 383.46875 -654.570312 420.648438 -697.175781 C 456.335938 -738.0625 500.078125 -768.0625 551.871094 -787.167969 C 604.929688 -806.738281 659.742188 -811.582031 716.3125 -801.699219 C 773.484375 -791.707031 823.484375 -768.257812 866.308594 -731.34375 C 907.195312 -696.101562 937.382812 -653.480469 956.867188 -603.472656 C 977.398438 -550.785156 982.640625 -495.699219 972.59375 -438.21875 L 898.988281 -16.988281 C 888.996094 40.183594 865.546875 90.183594 828.632812 133.011719 C 793.1875 174.132812 750.113281 204.394531 699.40625 223.792969 C 646.597656 243.992188 591.609375 249.101562 534.4375 239.109375 Z M 583.484375 -41.558594 C 589.03125 -40.585938 593.742188 -40.84375 597.605469 -42.320312 C 603.574219 -44.601562 608.640625 -48.164062 612.8125 -53.003906 C 615.515625 -56.140625 617.351562 -60.480469 618.320312 -66.03125 L 691.925781 -487.261719 C 692.84375 -492.5 692.664062 -496.757812 691.386719 -500.03125 C 689.066406 -505.984375 685.371094 -511.148438 680.292969 -515.523438 C 677.160156 -518.226562 672.816406 -520.0625 667.265625 -521.03125 C 661.113281 -522.105469 655.519531 -521.714844 650.476562 -519.855469 C 644.171875 -517.53125 639.121094 -514.1875 635.316406 -509.828125 C 633.003906 -507.183594 631.394531 -503.238281 630.476562 -498 L 623.753906 -459.511719 C 619.757812 -436.652344 611.265625 -415.617188 598.28125 -396.40625 C 586.882812 -379.542969 572.675781 -365.132812 555.652344 -353.175781 C 537.648438 -340.527344 518.0625 -331.792969 496.890625 -326.96875 C 475.292969 -322.046875 453.484375 -321.511719 431.453125 -325.359375 C 409.421875 -329.210938 389.085938 -337.109375 370.441406 -349.0625 C 352.160156 -360.785156 336.695312 -375.644531 324.046875 -393.648438 C 312.089844 -410.667969 303.609375 -429.042969 298.605469 -448.773438 C 292.902344 -471.246094 292.050781 -493.914062 296.042969 -516.777344 L 302.769531 -555.265625 C 303.902344 -561.738281 303.785156 -566.78125 302.421875 -570.386719 C 300.597656 -575.214844 297.597656 -579.394531 293.414062 -582.921875 C 289.992188 -585.8125 284.890625 -587.847656 278.109375 -589.035156 C 272.453125 -590.023438 267.230469 -589.644531 262.441406 -587.902344 C 256.796875 -585.847656 252.144531 -582.722656 248.480469 -578.527344 C 246.171875 -575.878906 244.5 -571.582031 243.457031 -565.628906 L 169.851562 -144.398438 C 168.757812 -138.136719 168.949219 -133.070312 170.425781 -129.207031 C 172.414062 -124.007812 175.597656 -119.585938 179.96875 -115.9375 C 183.882812 -112.675781 188.667969 -110.546875 194.324219 -109.558594 C 201.105469 -108.375 206.597656 -108.5625 210.796875 -110.117188 C 215.636719 -111.914062 219.722656 -114.785156 223.050781 -118.726562 C 225.941406 -122.152344 227.976562 -127.253906 229.164062 -134.035156 L 235.515625 -170.382812 C 239.363281 -192.414062 247.265625 -212.75 259.21875 -231.398438 C 270.9375 -249.679688 285.800781 -265.140625 303.800781 -277.789062 C 321.804688 -290.4375 341.390625 -299.171875 362.566406 -303.996094 C 384.160156 -308.917969 405.972656 -309.453125 428 -305.605469 C 450.03125 -301.757812 470.367188 -293.855469 489.015625 -281.902344 C 507.296875 -270.183594 522.757812 -255.320312 535.40625 -237.316406 C 548.054688 -219.316406 556.789062 -199.726562 561.613281 -178.554688 C 566.535156 -156.960938 567.074219 -135.148438 563.222656 -113.117188 L 556.871094 -76.769531 C 555.902344 -71.21875 556.15625 -66.511719 557.632812 -62.648438 C 559.699219 -57.246094 563.183594 -52.480469 568.085938 -48.359375 C 572.199219 -44.898438 577.332031 -42.632812 583.484375 -41.558594 Z M 583.484375 -41.558594 "/></g></g></g><g fill="#bd0000" fill-opacity="1"><g transform="translate(200.309517, 940.392595)"><g><path d="M 558.953125 98.765625 C 527.585938 93.285156 500.054688 80.582031 476.359375 60.65625 C 452.671875 40.726562 435.40625 16.597656 424.5625 -11.734375 C 413.726562 -40.078125 411.050781 -69.929688 416.53125 -101.296875 L 422.875 -137.640625 C 424 -144.046875 422.648438 -149.96875 418.828125 -155.40625 C 415.003906 -160.851562 409.878906 -164.140625 403.453125 -165.265625 C 397.046875 -166.390625 391.117188 -165.035156 385.671875 -161.203125 C 380.234375 -157.378906 376.953125 -152.265625 375.828125 -145.859375 L 369.484375 -109.515625 C 363.878906 -77.441406 351.351562 -49.878906 331.90625 -26.828125 C 312.457031 -3.785156 288.59375 12.972656 260.3125 23.453125 C 232.039062 33.929688 201.867188 36.367188 169.796875 30.765625 C 139.148438 25.410156 112.125 12.976562 88.71875 -6.53125 C 65.320312 -26.039062 48.203125 -49.960938 37.359375 -78.296875 C 26.523438 -106.640625 23.910156 -136.847656 29.515625 -168.921875 L 103.109375 -590.140625 C 108.710938 -622.222656 121.382812 -649.570312 141.125 -672.1875 C 160.875 -694.8125 185.0625 -711.332031 213.6875 -721.75 C 242.320312 -732.175781 271.960938 -734.710938 302.609375 -729.359375 C 334.679688 -723.753906 362.238281 -711.222656 385.28125 -691.765625 C 408.332031 -672.316406 425.128906 -648.632812 435.671875 -620.71875 C 446.210938 -592.8125 448.679688 -562.816406 443.078125 -530.734375 L 436.359375 -492.25 C 435.359375 -486.550781 436.769531 -480.976562 440.59375 -475.53125 C 444.425781 -470.09375 449.546875 -466.8125 455.953125 -465.6875 C 462.378906 -464.5625 468.3125 -465.910156 473.75 -469.734375 C 479.1875 -473.566406 482.40625 -478.332031 483.40625 -484.03125 L 490.125 -522.515625 C 495.601562 -553.878906 508.210938 -580.875 527.953125 -603.5 C 547.703125 -626.125 572.097656 -642.789062 601.140625 -653.5 C 630.191406 -664.21875 660.398438 -666.835938 691.765625 -661.359375 C 723.128906 -655.878906 750.300781 -643.234375 773.28125 -623.421875 C 796.257812 -603.617188 813.195312 -579.726562 824.09375 -551.75 C 835 -523.769531 837.710938 -494.097656 832.234375 -462.734375 L 758.640625 -41.515625 C 753.160156 -10.148438 740.515625 17.019531 720.703125 40 C 700.898438 62.988281 676.832031 79.898438 648.5 90.734375 C 620.164062 101.566406 590.316406 104.242188 558.953125 98.765625 Z M 558.953125 98.765625 "/></g></g></g></g></g><g transform="matrix(1, 0, 0, 1, 47, 373)"><g clip-path="url(#a8aae4e502)"><g fill="#ffef42" fill-opacity="1"><g transform="translate(310.602861, 460.244446)"><g><path d="M 1041.730469 194.582031 C 1062.40625 251.972656 1066.617188 309.6875 1054.363281 367.730469 C 1042.84375 422.300781 1019.144531 471.222656 983.273438 514.496094 C 945.824219 559.671875 899.589844 592.167969 844.574219 611.992188 C 787.921875 632.398438 730.8125 636.988281 673.242188 625.753906 C 617.707031 614.914062 568.316406 591.636719 525.074219 555.917969 C 480.386719 519.003906 447.875 472.316406 427.53125 415.855469 C 412.40625 373.867188 405.371094 332.496094 406.425781 291.746094 C 406.53125 287.71875 406.433594 284.566406 406.136719 282.289062 C 406.210938 282.84375 406.578125 284.042969 407.242188 285.886719 C 411.738281 298.371094 418.605469 309.648438 427.839844 319.726562 C 436.847656 329.554688 447.164062 337.199219 458.78125 342.664062 C 470.402344 348.128906 482.871094 351.199219 496.1875 351.867188 C 509.835938 352.554688 522.902344 350.648438 535.386719 346.152344 C 549.496094 341.070312 562.070312 333.183594 573.109375 322.492188 C 583.554688 312.371094 591.464844 300.859375 596.828125 287.960938 C 601.589844 276.511719 604.089844 264.4375 604.332031 251.734375 C 604.5625 239.546875 602.691406 227.9375 598.71875 216.902344 C 598.054688 215.0625 597.570312 213.902344 597.273438 213.429688 C 598.496094 215.375 600.433594 217.863281 603.082031 220.898438 C 629.886719 251.613281 650.851562 287.964844 665.976562 329.953125 C 686.816406 387.800781 690.761719 446.015625 677.8125 504.601562 C 665.777344 559.058594 641.664062 607.867188 605.480469 651.027344 C 567.761719 696.015625 520.847656 728.617188 464.734375 748.832031 C 409.445312 768.75 353.015625 773.09375 295.445312 761.859375 C 240.863281 751.207031 191.84375 728.628906 148.386719 694.117188 C 101.933594 657.226562 68.367188 610.085938 47.691406 552.695312 L -5.644531 404.640625 C -30.246094 336.359375 -39.761719 267.070312 -34.195312 196.777344 C -28.816406 128.902344 -11.089844 64.214844 18.984375 2.714844 C 48.953125 -58.570312 88.960938 -112.289062 139.003906 -158.445312 C 190.074219 -205.546875 248.808594 -241.058594 315.21875 -264.984375 C 383.972656 -289.753906 453.261719 -300.042969 523.074219 -295.84375 C 591.847656 -291.710938 657.097656 -274.933594 718.828125 -245.515625 C 780.101562 -216.3125 834.085938 -176.730469 880.785156 -126.761719 C 928.082031 -76.160156 964.339844 -17.304688 989.558594 49.800781 Z M 773.675781 291.152344 L 722.851562 150.03125 C 710.902344 118.242188 694.164062 90.828125 672.628906 67.789062 C 650.5 44.109375 625.039062 25.410156 596.25 11.691406 C 567.914062 -1.8125 537.824219 -9.523438 505.976562 -11.4375 C 475.171875 -13.289062 443.777344 -8.453125 411.789062 3.070312 C 381.53125 13.972656 354.996094 29.945312 332.175781 50.992188 C 308.328125 72.984375 289.25 98.617188 274.9375 127.882812 C 260.726562 156.9375 252.363281 187.402344 249.835938 219.273438 C 247.503906 248.730469 251.695312 278.328125 262.410156 308.070312 L 315.746094 456.125 C 318.125 462.722656 321.402344 467.679688 325.578125 470.996094 C 332.753906 476.695312 340.898438 480.433594 350.015625 482.214844 C 356.140625 483.410156 362.1875 482.929688 368.164062 480.777344 C 376.039062 477.941406 382.367188 473.671875 387.144531 467.972656 C 393.453125 460.449219 397.609375 452.160156 399.609375 443.109375 C 400.695312 438.191406 400.132812 432.660156 397.921875 426.523438 C 394.898438 418.136719 391.726562 412.039062 388.40625 408.234375 C 361.601562 377.515625 342.355469 345.929688 330.660156 313.472656 C 322.761719 291.550781 319.03125 269.171875 319.464844 246.335938 C 319.90625 222.984375 324.671875 200.382812 333.761719 178.535156 C 343.453125 155.230469 357.160156 134.996094 374.875 117.835938 C 393.179688 100.105469 414.496094 86.859375 438.816406 78.097656 C 462.191406 69.675781 486.089844 66.078125 510.507812 67.308594 C 534.59375 68.519531 557.773438 74.363281 580.039062 84.835938 C 602.308594 95.308594 621.589844 109.433594 637.886719 127.214844 C 654.40625 145.238281 666.875 165.9375 675.296875 189.316406 C 686.992188 221.773438 692.308594 258.375 691.253906 299.128906 C 691.121094 304.179688 692.566406 310.898438 695.585938 319.285156 C 698.296875 326.808594 701.945312 332.464844 706.527344 336.25 C 712.554688 341.226562 719.652344 344.515625 727.8125 346.105469 C 733.9375 347.300781 740.667969 346.578125 748.003906 343.933594 C 754.25 341.683594 759.558594 337.925781 763.921875 332.660156 C 769.867188 325.492188 773.753906 317.5625 775.589844 308.875 C 776.691406 303.65625 776.054688 297.75 773.675781 291.152344 Z M 773.675781 291.152344 "/></g></g></g><g fill="#bd0000" fill-opacity="1"><g transform="translate(310.602861, 460.244446)"><g><path d="M 907.6875 242.875 C 919.207031 274.863281 921.625 306.671875 914.9375 338.296875 C 908.257812 369.929688 894.46875 398.359375 873.5625 423.578125 C 852.664062 448.796875 826.898438 466.925781 796.265625 477.96875 C 764.273438 489.488281 732.351562 492.140625 700.5 485.921875 C 668.65625 479.710938 640.414062 466.429688 615.78125 446.078125 C 591.144531 425.722656 573.066406 399.550781 561.546875 367.5625 C 552.472656 342.375 548.234375 318.328125 548.828125 295.421875 C 549.429688 272.523438 546.910156 253.253906 541.265625 237.609375 C 537.347656 226.710938 530.0625 218.757812 519.40625 213.75 C 508.75 208.738281 497.976562 208.195312 487.09375 212.125 C 476.882812 215.800781 469.613281 222.84375 465.28125 233.25 C 460.957031 243.65625 460.753906 254.304688 464.671875 265.203125 C 470.316406 280.847656 480.671875 297.300781 495.734375 314.5625 C 510.796875 331.820312 522.863281 353.046875 531.9375 378.234375 C 543.457031 410.222656 545.707031 442.09375 538.6875 473.84375 C 531.675781 505.601562 517.546875 534.15625 496.296875 559.5 C 475.046875 584.84375 448.425781 603.273438 416.4375 614.796875 C 385.800781 625.835938 354.5625 628.25 322.71875 622.03125 C 290.875 615.8125 262.289062 602.648438 236.96875 582.546875 C 211.65625 562.441406 193.238281 536.394531 181.71875 504.40625 L 128.375 356.359375 C 110.71875 307.335938 103.863281 257.890625 107.8125 208.015625 C 111.769531 158.140625 124.816406 110.566406 146.953125 65.296875 C 169.085938 20.023438 198.628906 -19.644531 235.578125 -53.71875 C 272.523438 -87.789062 315.164062 -113.535156 363.5 -130.953125 C 413.875 -149.097656 464.210938 -156.660156 514.515625 -153.640625 C 564.828125 -150.617188 612.492188 -138.375 657.515625 -116.90625 C 702.546875 -95.445312 742.269531 -66.304688 776.6875 -29.484375 C 811.101562 7.328125 837.601562 50.460938 856.1875 99.921875 Z M 907.6875 242.875 "/></g></g></g></g></g><g transform="matrix(1, 0, 0, 1, 3144, 511)"><g clip-path="url(#88cc3a6e57)"><g fill="#ffef42" fill-opacity="1"><g transform="translate(207.215397, 940.980168)"><g><path d="M 661.171875 -810.359375 C 719.242188 -800.101562 769.84375 -776.15625 812.984375 -738.527344 C 854.34375 -702.445312 884.59375 -658.785156 903.734375 -607.539062 C 923.515625 -554.570312 928.386719 -499.664062 918.34375 -442.816406 C 908.40625 -386.585938 885.265625 -337.285156 848.914062 -294.910156 C 814.289062 -254.550781 772.109375 -224.441406 722.375 -204.582031 C 669.199219 -183.347656 613.261719 -177.914062 554.570312 -188.285156 L 579.355469 -328.570312 L 719.75 -304.386719 L 676.820312 -55.175781 C 666.671875 2.277344 642.910156 52.691406 605.535156 96.054688 C 569.636719 137.710938 526.175781 168.363281 475.148438 188.011719 C 421.726562 208.582031 366.339844 213.796875 308.980469 203.664062 C 252.027344 193.601562 202.097656 169.625 159.1875 131.726562 C 118.285156 95.605469 88.367188 51.726562 69.425781 0.0859375 C 49.953125 -53.007812 45.214844 -107.832031 55.207031 -164.382812 L 99.203125 -413.402344 L 239.488281 -388.617188 L 214.703125 -248.332031 C 157.039062 -258.519531 106.75 -282.5625 63.839844 -320.457031 C 23.234375 -356.316406 -6.472656 -399.285156 -25.28125 -449.359375 C -44.914062 -501.625 -49.761719 -555.875 -39.828125 -612.101562 C -29.875 -668.4375 -6.976562 -718.015625 28.867188 -760.832031 C 63.996094 -802.796875 107.0625 -833.777344 158.066406 -853.777344 C 211.363281 -874.675781 266.847656 -880.027344 324.511719 -869.839844 Z M 611.601562 -529.785156 L 274.941406 -589.265625 C 269.902344 -590.15625 265.613281 -589.90625 262.074219 -588.519531 C 256.238281 -586.230469 251.328125 -582.703125 247.339844 -577.941406 C 244.070312 -574.035156 241.871094 -568.898438 240.746094 -562.53125 C 239.855469 -557.484375 240.085938 -553.15625 241.441406 -549.546875 C 243.621094 -543.746094 247.289062 -538.570312 252.445312 -534.015625 C 255.296875 -531.5 259.238281 -529.796875 264.273438 -528.90625 L 404.5625 -504.121094 L 335.78125 -114.8125 C 334.695312 -108.660156 335.074219 -103.0625 336.925781 -98.019531 C 339.308594 -91.519531 342.929688 -86.125 347.792969 -81.832031 C 350.644531 -79.3125 354.230469 -77.671875 358.554688 -76.910156 C 363.898438 -75.964844 368.636719 -76.289062 372.765625 -77.878906 C 379.292969 -80.390625 384.9375 -84.414062 389.707031 -89.945312 C 393 -93.765625 395.109375 -98.300781 396.035156 -103.542969 L 463.25 -493.75 L 604.140625 -468.859375 C 609.574219 -467.898438 613.765625 -468.007812 616.714844 -469.183594 C 623.109375 -471.738281 628.425781 -475.484375 632.664062 -480.425781 C 635.175781 -483.351562 636.875 -487.339844 637.769531 -492.386719 C 638.800781 -498.238281 638.488281 -503.394531 636.820312 -507.851562 C 634.511719 -514.035156 630.800781 -519.355469 625.6875 -523.816406 C 622.351562 -526.726562 617.65625 -528.714844 611.601562 -529.785156 Z M 611.601562 -529.785156 "/></g></g></g><g fill="#bd0000" fill-opacity="1"><g transform="translate(207.215397, 940.980168)"><g><path d="M 636.375 -670.0625 C 668.4375 -664.394531 696.082031 -651.425781 719.3125 -631.15625 C 742.550781 -610.882812 759.53125 -586.394531 770.25 -557.6875 C 780.976562 -528.976562 783.578125 -498.953125 778.046875 -467.609375 C 772.628906 -436.972656 760.207031 -410.328125 740.78125 -387.671875 C 721.351562 -365.015625 697.601562 -348.082031 669.53125 -336.875 C 641.46875 -325.675781 611.410156 -322.910156 579.359375 -328.578125 L 536.421875 -79.375 C 530.890625 -48.007812 517.953125 -20.535156 497.609375 3.046875 C 477.273438 26.640625 452.722656 43.976562 423.953125 55.0625 C 395.179688 66.144531 365.117188 68.921875 333.765625 63.390625 C 303.128906 57.972656 276.367188 45.160156 253.484375 24.953125 C 230.597656 4.742188 213.828125 -19.890625 203.171875 -48.953125 C 192.515625 -78.023438 189.953125 -108.242188 195.484375 -139.609375 L 239.484375 -388.625 C 208.128906 -394.164062 181.015625 -407.035156 158.140625 -427.234375 C 135.265625 -447.441406 118.578125 -471.515625 108.078125 -499.453125 C 97.585938 -527.390625 95.050781 -556.675781 100.46875 -587.3125 C 106 -618.65625 118.539062 -646.007812 138.09375 -669.375 C 157.65625 -692.738281 181.644531 -709.992188 210.0625 -721.140625 C 238.476562 -732.285156 268.363281 -735.085938 299.71875 -729.546875 Z M 636.375 -670.0625 "/></g></g></g></g></g><g transform="matrix(1, 0, 0, 1, 2243, 183)"><g clip-path="url(#6c8f1c898e)"><g fill="#ffef42" fill-opacity="1"><g transform="translate(861.911917, 317.404181)"><g><path d="M 71.941406 1043.386719 C 22.5625 1075.621094 -30.730469 1092.765625 -87.9375 1094.820312 C -142.789062 1096.789062 -194.722656 1085.628906 -243.734375 1061.335938 C -294.394531 1036.226562 -335.503906 999.5 -367.058594 951.160156 C -398.269531 903.347656 -415.109375 851.550781 -417.574219 795.773438 C -419.917969 742.648438 -409.746094 691.835938 -387.046875 643.332031 C -362.777344 591.46875 -325.6875 549.246094 -275.78125 516.667969 L -197.90625 635.960938 L -316.863281 714.34375 L -456.003906 503.179688 C -487.898438 454.324219 -505.042969 401.296875 -507.441406 344.097656 C -509.742188 289.15625 -499.003906 237.070312 -475.21875 187.835938 C -450.316406 136.292969 -413.480469 94.601562 -364.707031 62.761719 C -316.277344 31.148438 -263.449219 14.488281 -206.226562 12.785156 C -151.683594 11.160156 -99.84375 22.707031 -50.707031 47.425781 C -0.183594 72.839844 40.769531 109.589844 72.160156 157.675781 L 210.390625 369.429688 L 91.097656 447.304688 L 13.226562 328.011719 C 62.261719 296 115.390625 279.144531 172.613281 277.441406 C 226.761719 275.828125 277.824219 286.851562 325.796875 310.519531 C 375.867188 335.21875 416.507812 371.476562 447.71875 419.289062 C 478.988281 467.195312 496.195312 519.023438 499.332031 574.773438 C 502.410156 629.414062 492.183594 681.472656 468.652344 730.945312 C 444.066406 782.644531 407.253906 824.5 358.21875 856.511719 Z M -83.804688 804.800781 L 202.476562 617.925781 C 206.757812 615.128906 209.714844 612.011719 211.347656 608.578125 C 214.039062 602.917969 215.210938 596.988281 214.863281 590.789062 C 214.578125 585.699219 212.667969 580.449219 209.132812 575.035156 C 206.332031 570.742188 203.203125 567.742188 199.742188 566.039062 C 194.1875 563.296875 187.972656 562.027344 181.097656 562.234375 C 177.292969 562.347656 173.25 563.800781 168.96875 566.597656 L 49.675781 644.46875 L -166.425781 313.421875 C -169.839844 308.191406 -173.945312 304.367188 -178.746094 301.953125 C -184.929688 298.84375 -191.261719 297.386719 -197.742188 297.578125 C -201.546875 297.691406 -205.285156 298.949219 -208.960938 301.347656 C -213.507812 304.3125 -216.742188 307.789062 -218.667969 311.777344 C -221.707031 318.074219 -223.078125 324.871094 -222.769531 332.167969 C -222.558594 337.207031 -221 341.953125 -218.089844 346.414062 L -0.230469 677.046875 L -120.035156 755.253906 C -124.65625 758.269531 -127.636719 761.214844 -128.984375 764.089844 C -131.902344 770.328125 -133.21875 776.695312 -132.929688 783.199219 C -132.761719 787.054688 -131.273438 791.125 -128.472656 795.417969 C -125.222656 800.394531 -121.46875 803.9375 -117.207031 806.050781 C -111.292969 808.980469 -104.945312 810.324219 -98.164062 810.082031 C -93.742188 809.921875 -88.953125 808.164062 -83.804688 804.800781 Z M -83.804688 804.800781 "/></g></g></g><g fill="#bd0000" fill-opacity="1"><g transform="translate(861.911917, 317.404181)"><g><path d="M -5.9375 924.09375 C -33.195312 941.894531 -62.234375 951.34375 -93.046875 952.4375 C -123.867188 953.539062 -153.007812 947.285156 -180.46875 933.671875 C -207.925781 920.066406 -230.351562 899.9375 -247.75 873.28125 C -264.757812 847.226562 -273.925781 819.289062 -275.25 789.46875 C -276.570312 759.65625 -270.828125 731.0625 -258.015625 703.6875 C -245.203125 676.320312 -225.164062 653.742188 -197.90625 635.953125 L -337.046875 424.796875 C -354.453125 398.128906 -363.804688 369.234375 -365.109375 338.109375 C -366.421875 306.992188 -360.363281 277.550781 -346.9375 249.78125 C -333.519531 222.019531 -313.484375 199.441406 -286.828125 182.046875 C -260.773438 165.035156 -232.492188 156.078125 -201.984375 155.171875 C -171.472656 154.265625 -142.382812 160.765625 -114.71875 174.671875 C -87.0625 188.585938 -64.53125 208.878906 -47.125 235.546875 L 91.109375 447.296875 C 117.765625 429.890625 146.347656 420.734375 176.859375 419.828125 C 207.367188 418.921875 236.003906 425.066406 262.765625 438.265625 C 289.523438 451.472656 311.410156 471.101562 328.421875 497.15625 C 345.816406 523.8125 355.367188 552.347656 357.078125 582.765625 C 358.796875 613.191406 353.097656 642.1875 339.984375 669.75 C 326.878906 697.320312 307 719.8125 280.34375 737.21875 Z M -5.9375 924.09375 "/></g></g></g></g></g><g transform="matrix(1, 0, 0, 1, 1842, 861)"><g clip-path="url(#102a67cb7a)"><g fill="#ffef42" fill-opacity="1"><g transform="translate(935.667479, 287.433966)"><g><path d="M -41.113281 -111.007812 C 11.628906 -90.390625 55.402344 -58.503906 90.207031 -15.347656 C 124.832031 27.585938 146.660156 76.21875 155.699219 130.558594 C 164.84375 185.535156 159.507812 239.21875 139.683594 291.613281 L -29.59375 741.6875 C -52.246094 802.628906 -89.003906 851.007812 -139.867188 886.824219 C -187.375 920.28125 -239.78125 939.648438 -297.085938 944.933594 C -355.042969 950.277344 -410.492188 940.402344 -463.429688 915.3125 C -519.480469 888.75 -564.1875 846.789062 -597.542969 789.441406 L -839.519531 370.957031 C -868.601562 322.953125 -882.699219 270.222656 -881.816406 212.765625 C -880.984375 158.765625 -867.488281 108.234375 -841.332031 61.171875 C -814.003906 12.003906 -775.105469 -27.167969 -724.640625 -56.339844 C -674.835938 -84.410156 -622.171875 -98.375 -566.636719 -98.238281 C -510.796875 -98.101562 -458.957031 -84.207031 -411.117188 -56.558594 C -363.675781 -29.136719 -325.628906 8.796875 -296.980469 57.242188 L -183.0625 254.242188 L -179.660156 262.234375 C -186.917969 245.179688 -197.226562 230.160156 -210.582031 217.179688 C -226.59375 201.613281 -245.265625 190.53125 -266.59375 183.9375 C -295.003906 175.15625 -323.050781 175.441406 -350.734375 184.789062 C -367.507812 190.453125 -382.664062 199.097656 -396.199219 210.71875 C -413.300781 225.402344 -426.066406 243.207031 -434.492188 264.125 C -441.484375 281.476562 -444.808594 299.445312 -444.46875 318.027344 C -444.253906 329.707031 -442.570312 341.070312 -439.417969 352.117188 L -302.433594 313.007812 L -437.78125 357.449219 L -492.234375 191.609375 L -448.410156 72.191406 C -427.089844 17.589844 -394.851562 -27.113281 -351.695312 -61.914062 C -308.761719 -96.539062 -260.125 -118.371094 -205.789062 -127.410156 C -151.792969 -136.390625 -98.253906 -131.429688 -45.179688 -112.527344 L -43.132812 -111.800781 Z M -144.84375 154.359375 L -92.976562 21.675781 L -140.777344 155.875 C -147.496094 153.484375 -153.582031 152.742188 -159.035156 153.648438 C -164.148438 154.5 -168.746094 156.570312 -172.835938 159.867188 C -176.699219 162.984375 -179.398438 166.476562 -180.933594 170.347656 L -207.699219 243.285156 L -341.4375 194.210938 L -206.089844 149.765625 L -166.210938 271.214844 L -165.445312 273.898438 C -155.992188 307.007812 -157.582031 339.234375 -170.210938 370.585938 C -179.089844 392.632812 -192.550781 411.398438 -210.585938 426.882812 C -225.054688 439.304688 -241.382812 448.589844 -259.574219 454.730469 C -290.082031 465.035156 -320.472656 465.507812 -350.742188 456.148438 C -373.003906 449.269531 -392.484375 437.710938 -409.183594 421.472656 C -423.230469 407.820312 -434.105469 391.9375 -441.816406 373.832031 L -310.738281 318.035156 L -434.0625 389.34375 L -542.230469 202.269531 C -545.535156 196.675781 -549.359375 192.628906 -553.699219 190.121094 C -557.640625 187.839844 -562.1875 186.695312 -567.332031 186.679688 C -572.789062 186.667969 -577.691406 187.882812 -582.042969 190.328125 C -587.054688 193.226562 -590.472656 196.3125 -592.296875 199.589844 C -595.285156 204.972656 -596.832031 210.828125 -596.929688 217.152344 C -596.972656 220.019531 -595.617188 223.75 -592.863281 228.339844 L -351.253906 646.191406 C -347.511719 652.621094 -344.230469 656.507812 -341.40625 657.847656 C -335.464844 660.660156 -329.410156 661.785156 -323.242188 661.214844 C -316.417969 660.585938 -309.976562 658.136719 -303.914062 653.871094 C -301.207031 651.960938 -298.660156 647.800781 -296.273438 641.386719 L -126.800781 190.796875 C -125.09375 186.28125 -124.613281 181.789062 -125.359375 177.3125 C -126.207031 172.199219 -128.28125 167.601562 -131.578125 163.511719 C -134.695312 159.648438 -139.117188 156.597656 -144.84375 154.359375 Z M -144.84375 154.359375 "/></g></g></g><g fill="#bd0000" fill-opacity="1"><g transform="translate(935.667479, 287.433966)"><g><path d="M -92.96875 21.671875 C -63.738281 33.109375 -39.644531 50.578125 -20.6875 74.078125 C -1.726562 97.585938 10.222656 124.203125 15.171875 153.921875 C 20.117188 183.648438 17.207031 212.742188 6.4375 241.203125 L -162.921875 691.53125 C -175.453125 725.195312 -195.109375 751.457031 -221.890625 770.3125 C -248.679688 789.175781 -278.109375 800.085938 -310.171875 803.046875 C -342.234375 806.015625 -372.984375 800.519531 -402.421875 786.5625 C -431.859375 772.601562 -455.851562 749.679688 -474.40625 717.796875 L -716.1875 299.640625 C -732.101562 273.335938 -739.828125 245.101562 -739.359375 214.9375 C -738.898438 184.769531 -731.382812 156.578125 -716.8125 130.359375 C -702.238281 104.148438 -681.078125 83.023438 -653.328125 66.984375 C -626.253906 51.734375 -597.472656 44.144531 -566.984375 44.21875 C -536.492188 44.289062 -508.300781 51.8125 -482.40625 66.78125 C -456.507812 81.75 -435.570312 102.734375 -419.59375 129.734375 L -310.734375 318.03125 C -309.835938 320.125 -307.972656 320.691406 -305.140625 319.734375 C -302.316406 318.785156 -301.410156 316.539062 -302.421875 313 L -341.4375 194.1875 L -314.65625 121.25 C -303.238281 92.03125 -285.773438 67.941406 -262.265625 48.984375 C -238.753906 30.023438 -212.132812 18.070312 -182.40625 13.125 C -152.675781 8.175781 -122.863281 11.023438 -92.96875 21.671875 Z M -92.96875 21.671875 "/></g></g></g></g></g></svg>