<svg xmlns="http://www.w3.org/2000/svg" xmlns:xlink="http://www.w3.org/1999/xlink" width="6912" zoomAndPan="magnify" viewBox="0 0 5184 2592.000001" height="3456" preserveAspectRatio="xMidYMid meet" version="1.0"><defs><g/><clipPath id="6347ee2198"><rect x="0" width="1369" y="0" height="1258"/></clipPath><clipPath id="74e2ffda6c"><rect x="0" width="1362" y="0" height="1457"/></clipPath><clipPath id="aac41f9bc2"><rect x="0" width="1559" y="0" height="1570"/></clipPath><clipPath id="93d48e4679"><rect x="0" width="1198" y="0" height="1351"/></clipPath><clipPath id="dde5fec164"><rect x="0" width="1560" y="0" height="1533"/></clipPath><clipPath id="c52fd29f50"><rect x="0" width="1514" y="0" height="1562"/></clipPath></defs><g transform="matrix(1, 0, 0, 1, 3700, 829)"><g clip-path="url(#6347ee2198)"><g fill="#ffef42" fill-opacity="1"><g transform="translate(297.194491, 324.38905)"><g><path d="M 863.511719 199.757812 C 911.625 232.566406 947.289062 274.226562 970.503906 324.738281 C 993.195312 374.101562 1002.199219 426.019531 997.519531 480.492188 C 992.644531 537.210938 972.515625 589.011719 937.128906 635.886719 L 824.125 550.582031 L 939.820312 632.199219 C 906.992188 678.734375 864.542969 713.324219 812.46875 735.972656 C 763.398438 757.316406 712.347656 766.101562 659.316406 762.328125 C 604.796875 758.445312 554.0625 741.054688 507.117188 710.15625 L 330.636719 588.539062 L 411 471.964844 L 435.097656 611.488281 L 286.285156 637.1875 C 229.441406 647.003906 174.800781 641.820312 122.355469 621.640625 C 71.714844 602.152344 28.746094 571.597656 -6.550781 529.976562 C -42.894531 487.117188 -65.953125 437.417969 -75.714844 380.878906 C -85.359375 325.046875 -80.246094 270.847656 -60.382812 218.28125 C -41.089844 167.234375 -10.859375 124.039062 30.3125 88.691406 C 72.949219 52.089844 122.6875 28.878906 179.53125 19.0625 L 328.34375 -6.640625 L 352.4375 132.882812 L 237.632812 50.015625 L 361.296875 -121.308594 C 396.359375 -167.789062 438.921875 -202.003906 488.980469 -223.945312 C 537.671875 -245.289062 588.714844 -254.136719 642.101562 -250.488281 C 698.757812 -246.617188 750.347656 -228.269531 796.882812 -195.441406 L 715.261719 -79.746094 L 793.109375 -198.011719 C 842.039062 -165.808594 878.285156 -124.070312 901.847656 -72.804688 C 924.667969 -23.152344 933.585938 28.707031 928.597656 82.773438 C 923.464844 138.453125 903.296875 189.601562 868.105469 236.222656 L 755.101562 150.914062 L 870.28125 233.261719 L 799.746094 331.917969 L 684.566406 249.574219 L 763.960938 132.339844 L 863.132812 199.5 Z M 704.34375 433.96875 L 484.921875 285.371094 L 640.988281 67.074219 L 642.09375 65.609375 C 644.910156 61.878906 646.417969 58.929688 646.617188 56.765625 C 646.964844 52.988281 646.277344 49.222656 644.546875 45.460938 C 643.5625 43.316406 641.183594 41.003906 637.417969 38.523438 L 635.511719 37.269531 L 633.644531 35.953125 C 630.316406 33.605469 626.703125 32.296875 622.800781 32.03125 C 615.632812 31.542969 608.921875 32.667969 602.660156 35.414062 C 597.773438 37.554688 593.855469 40.5625 590.90625 44.429688 L 433.445312 262.578125 L 227.722656 298.109375 C 222.207031 299.0625 217.886719 300.878906 214.765625 303.554688 C 210.179688 307.496094 206.761719 312.4375 204.515625 318.382812 C 202.84375 322.804688 202.449219 327.574219 203.332031 332.683594 C 204.335938 338.507812 206.367188 343.21875 209.425781 346.828125 C 213.539062 351.675781 218.414062 355.183594 224.058594 357.355469 C 227.894531 358.832031 232.574219 359.09375 238.089844 358.140625 L 443.8125 322.613281 L 662.808594 473.617188 C 668.558594 477.402344 674.09375 479.484375 679.421875 479.863281 C 686.238281 480.347656 692.941406 479.15625 699.527344 476.292969 C 703.113281 474.734375 706.082031 472.289062 708.425781 468.960938 L 709.742188 467.097656 L 711.121094 465.273438 C 713.742188 461.800781 715.160156 458.792969 715.378906 456.253906 C 715.789062 451.46875 715.066406 447.050781 713.203125 443 C 711.871094 440.097656 708.789062 437.003906 703.964844 433.710938 Z M 704.34375 433.96875 "/></g></g></g><g fill="#9ac0df" fill-opacity="1"><g transform="translate(297.194491, 324.38905)"><g><path d="M 783.71875 316.734375 C 810.175781 334.785156 829.539062 357.160156 841.8125 383.859375 C 854.09375 410.566406 858.957031 438.734375 856.40625 468.359375 C 853.863281 497.992188 843.097656 525.398438 824.109375 550.578125 C 806.515625 575.503906 783.800781 594.015625 755.96875 606.109375 C 728.144531 618.210938 699.269531 623.203125 669.34375 621.078125 C 639.425781 618.953125 611.289062 609.21875 584.9375 591.875 L 411 471.953125 L 262.1875 497.640625 C 231 503.023438 201.335938 500.300781 173.203125 489.46875 C 145.066406 478.644531 121.144531 461.617188 101.4375 438.390625 C 81.726562 415.160156 69.1875 387.957031 63.8125 356.78125 C 58.539062 326.3125 61.289062 296.828125 72.0625 268.328125 C 82.84375 239.828125 99.664062 215.753906 122.53125 196.109375 C 145.40625 176.472656 172.4375 163.960938 203.625 158.578125 L 352.4375 132.890625 L 476.078125 -38.4375 C 495.085938 -63.613281 518.332031 -82.222656 545.8125 -94.265625 C 573.289062 -106.304688 602.164062 -111.289062 632.4375 -109.21875 C 662.707031 -107.15625 690.3125 -97.328125 715.25 -79.734375 C 741.582031 -62.398438 760.882812 -40.378906 773.15625 -13.671875 C 785.4375 13.035156 790.242188 40.847656 787.578125 69.765625 C 784.910156 98.691406 774.078125 125.742188 755.078125 150.921875 L 684.5625 249.5625 Z M 783.71875 316.734375 "/></g></g></g></g></g><g transform="matrix(1, 0, 0, 1, 998, 452)"><g clip-path="url(#74e2ffda6c)"><g fill="#ffef42" fill-opacity="1"><g transform="translate(1131.130384, 532.180327)"><g><path d="M -493.582031 -308.210938 C -439.238281 -290.773438 -393.242188 -261.183594 -355.59375 -219.449219 C -318.636719 -178.472656 -293.996094 -131.410156 -281.671875 -78.261719 C -268.976562 -23.519531 -271.441406 31.3125 -289.0625 86.238281 L -300.269531 121.160156 C -295.457031 106.15625 -293.738281 90.703125 -295.121094 74.792969 C -296.464844 59.3125 -300.625 44.785156 -307.597656 31.21875 C -314.574219 17.652344 -323.96875 5.816406 -335.777344 -4.28125 C -347.910156 -14.664062 -361.480469 -22.257812 -376.480469 -27.074219 C -391.484375 -31.886719 -406.9375 -33.601562 -422.847656 -32.222656 C -438.328125 -30.878906 -452.855469 -26.71875 -466.421875 -19.742188 C -479.988281 -12.765625 -491.824219 -3.375 -501.921875 8.433594 C -512.304688 20.570312 -519.898438 34.136719 -524.714844 49.140625 L -513.507812 14.21875 C -495.824219 -40.894531 -466.347656 -86.996094 -425.082031 -124.09375 C -384.320312 -160.738281 -337.179688 -184.972656 -283.660156 -196.804688 C -229.476562 -208.785156 -174.832031 -205.929688 -119.71875 -188.246094 C -66.265625 -171.09375 -20.863281 -141.992188 16.484375 -100.941406 C 53.433594 -60.332031 78.09375 -13.347656 90.46875 40.015625 C 103.164062 94.757812 100.589844 149.933594 82.746094 205.542969 L -47.105469 610.21875 C -65.042969 666.125 -95.21875 712.519531 -137.628906 749.398438 C -178.496094 784.933594 -225.617188 808.4375 -278.992188 819.902344 C -333.253906 831.558594 -387.109375 828.808594 -440.5625 811.65625 C -495.675781 793.972656 -541.78125 764.496094 -578.875 723.230469 C -615.3125 682.699219 -639.542969 636.007812 -651.5625 583.167969 C -663.871094 529.058594 -661.136719 474.300781 -643.359375 418.894531 L -631.496094 381.921875 C -636.785156 398.40625 -638.46875 415.261719 -636.550781 432.484375 C -634.945312 446.910156 -630.925781 460.378906 -624.492188 472.886719 C -617.519531 486.453125 -608.125 498.289062 -596.316406 508.390625 C -584.179688 518.769531 -570.613281 526.367188 -555.609375 531.179688 C -540.609375 535.992188 -525.152344 537.707031 -509.246094 536.328125 C -493.761719 534.984375 -479.238281 530.824219 -465.671875 523.847656 C -453.164062 517.417969 -442.058594 508.804688 -432.359375 498.007812 C -420.777344 485.113281 -412.339844 470.421875 -407.050781 453.9375 L -418.914062 490.914062 C -436.632812 546.136719 -466.699219 592.1875 -509.109375 629.066406 C -549.8125 664.460938 -596.960938 688.035156 -650.554688 699.789062 C -705.457031 711.832031 -760.082031 709.132812 -814.425781 691.695312 C -869.351562 674.070312 -915.382812 644.171875 -952.515625 601.992188 C -987.96875 561.730469 -1011.878906 515.65625 -1024.25 463.769531 C -1037.285156 409.101562 -1034.941406 354.15625 -1017.222656 298.933594 L -887.371094 -105.746094 C -869.75 -160.667969 -839.847656 -206.699219 -797.671875 -243.835938 C -757.175781 -279.492188 -710.644531 -303.414062 -658.082031 -315.605469 C -603.339844 -328.300781 -548.507812 -325.835938 -493.582031 -308.210938 Z M -580.101562 -38.574219 C -585.433594 -40.285156 -590.105469 -40.675781 -594.109375 -39.746094 C -600.296875 -38.3125 -605.773438 -35.496094 -610.539062 -31.300781 C -613.625 -28.582031 -616.023438 -24.558594 -617.734375 -19.226562 L -747.585938 385.453125 C -749.199219 390.484375 -749.605469 394.699219 -748.792969 398.09375 C -747.320312 404.273438 -744.382812 409.863281 -739.984375 414.859375 C -737.265625 417.945312 -733.238281 420.347656 -727.90625 422.058594 C -721.996094 423.953125 -716.433594 424.328125 -711.21875 423.1875 C -704.695312 421.753906 -699.265625 419.152344 -694.925781 415.378906 C -692.289062 413.089844 -690.167969 409.429688 -688.550781 404.394531 L -676.6875 367.417969 C -669.640625 345.457031 -658.414062 325.902344 -643.015625 308.757812 C -629.496094 293.710938 -613.542969 281.460938 -595.15625 272.007812 C -575.707031 262.007812 -555.234375 256.078125 -533.734375 254.210938 C -511.800781 252.308594 -490.253906 254.75 -469.089844 261.542969 C -447.925781 268.332031 -428.980469 278.882812 -412.253906 293.191406 C -395.851562 307.21875 -382.652344 323.957031 -372.652344 343.402344 C -363.199219 361.789062 -357.351562 381.035156 -355.113281 401.140625 C -352.5625 424.042969 -354.808594 446.476562 -361.855469 468.441406 L -373.722656 505.414062 C -375.71875 511.636719 -376.289062 516.613281 -375.441406 520.351562 C -374.300781 525.351562 -371.914062 529.875 -368.28125 533.917969 C -365.304688 537.230469 -360.558594 539.929688 -354.042969 542.019531 C -348.609375 543.765625 -343.417969 544.101562 -338.464844 543.039062 C -332.628906 541.785156 -327.621094 539.34375 -323.445312 535.710938 C -320.808594 533.421875 -318.574219 529.417969 -316.742188 523.699219 L -186.890625 119.023438 C -184.960938 113.003906 -184.460938 107.992188 -185.386719 103.988281 C -186.636719 98.597656 -189.167969 93.8125 -192.976562 89.625 C -196.386719 85.878906 -200.804688 83.132812 -206.238281 81.390625 C -212.753906 79.300781 -218.183594 78.734375 -222.53125 79.695312 C -227.539062 80.804688 -231.953125 83.074219 -235.769531 86.503906 C -239.082031 89.480469 -241.78125 94.222656 -243.871094 100.738281 L -255.078125 135.660156 C -261.867188 156.824219 -272.417969 175.769531 -286.726562 192.5 C -300.753906 208.898438 -317.492188 222.101562 -336.9375 232.097656 C -356.382812 242.097656 -376.859375 248.027344 -398.359375 249.894531 C -420.289062 251.796875 -441.835938 249.355469 -463 242.5625 C -484.164062 235.773438 -503.113281 225.222656 -519.839844 210.914062 C -536.242188 196.886719 -549.441406 180.148438 -559.441406 160.703125 C -569.4375 141.257812 -575.371094 120.78125 -577.238281 99.28125 C -579.140625 77.351562 -576.695312 55.804688 -569.90625 34.640625 L -558.699219 -0.28125 C -556.988281 -5.613281 -556.597656 -10.285156 -557.527344 -14.289062 C -558.828125 -19.890625 -561.609375 -25.054688 -565.871094 -29.78125 C -569.449219 -33.746094 -574.191406 -36.675781 -580.101562 -38.574219 Z M -580.101562 -38.574219 "/></g></g></g><g fill="#9ac0df" fill-opacity="1"><g transform="translate(1131.130384, 532.180327)"><g><path d="M -536.828125 -173.390625 C -506.710938 -163.722656 -481.347656 -147.460938 -460.734375 -124.609375 C -440.117188 -101.765625 -426.40625 -75.648438 -419.59375 -46.265625 C -412.78125 -16.890625 -414.210938 12.859375 -423.890625 42.984375 L -435.09375 77.90625 C -437.0625 84.0625 -436.535156 90.078125 -433.515625 95.953125 C -430.492188 101.835938 -425.90625 105.769531 -419.75 107.75 C -413.582031 109.71875 -407.554688 109.191406 -401.671875 106.171875 C -395.785156 103.148438 -391.859375 98.5625 -389.890625 92.40625 L -378.6875 57.484375 C -368.789062 26.671875 -352.703125 1.242188 -330.421875 -18.796875 C -308.140625 -38.835938 -282.363281 -52.09375 -253.09375 -58.5625 C -223.832031 -65.03125 -193.796875 -63.320312 -162.984375 -53.4375 C -133.535156 -43.988281 -108.625 -28.0625 -88.25 -5.65625 C -67.875 16.738281 -54.273438 42.625 -47.453125 72 C -40.640625 101.375 -42.179688 131.46875 -52.078125 162.28125 L -181.921875 566.953125 C -191.804688 597.765625 -208.007812 622.960938 -230.53125 642.546875 C -253.050781 662.128906 -279.113281 675.097656 -308.71875 681.453125 C -338.320312 687.816406 -367.847656 686.273438 -397.296875 676.828125 C -428.109375 666.941406 -453.53125 650.851562 -473.5625 628.5625 C -493.601562 606.269531 -506.910156 580.664062 -513.484375 551.75 C -520.066406 522.832031 -518.414062 492.96875 -508.53125 462.15625 L -496.65625 425.1875 C -494.90625 419.707031 -495.539062 414.023438 -498.5625 408.140625 C -501.582031 402.253906 -506.175781 398.328125 -512.34375 396.359375 C -518.5 394.378906 -524.519531 394.898438 -530.40625 397.921875 C -536.289062 400.953125 -540.109375 405.207031 -541.859375 410.6875 L -553.734375 447.65625 C -563.398438 477.78125 -579.488281 502.632812 -602 522.21875 C -624.519531 541.800781 -650.8125 554.890625 -680.875 561.484375 C -710.9375 568.078125 -741.023438 566.539062 -771.140625 556.875 C -801.273438 547.207031 -826.300781 531.054688 -846.21875 508.421875 C -866.144531 485.785156 -879.570312 459.953125 -886.5 430.921875 C -893.425781 401.890625 -892.054688 372.3125 -882.390625 342.1875 L -752.546875 -62.484375 C -742.867188 -92.609375 -726.710938 -117.632812 -704.078125 -137.5625 C -681.453125 -157.5 -655.453125 -170.867188 -626.078125 -177.671875 C -596.710938 -184.484375 -566.960938 -183.054688 -536.828125 -173.390625 Z M -536.828125 -173.390625 "/></g></g></g></g></g><g transform="matrix(1, 0, 0, 1, 1, 635)"><g clip-path="url(#aac41f9bc2)"><g fill="#ffef42" fill-opacity="1"><g transform="translate(750.251281, 1268.488912)"><g><path d="M -265.632812 -1019.222656 C -222.761719 -1062.09375 -172.636719 -1090.292969 -115.25 -1103.824219 C -61.292969 -1116.542969 -7.269531 -1115.925781 46.820312 -1101.964844 C 103.292969 -1087.394531 152.074219 -1059.558594 193.171875 -1018.460938 C 235.492188 -976.140625 263.773438 -926.71875 278.023438 -870.1875 C 291.765625 -815.65625 291.71875 -761.390625 277.886719 -707.390625 C 263.589844 -651.585938 235.351562 -602.59375 193.171875 -560.414062 C 161.808594 -529.050781 127.578125 -505.226562 90.476562 -488.9375 C 86.8125 -487.328125 84.019531 -485.910156 82.097656 -484.679688 C 82.566406 -484.976562 83.488281 -485.816406 84.863281 -487.191406 C 94.191406 -496.519531 101.429688 -507.464844 106.585938 -520.03125 C 111.617188 -532.289062 114.128906 -544.800781 114.128906 -557.5625 C 114.128906 -570.328125 111.617188 -582.835938 106.585938 -595.097656 C 101.429688 -607.664062 94.191406 -618.609375 84.863281 -627.9375 C 74.324219 -638.476562 61.910156 -646.449219 47.628906 -651.851562 C 34.105469 -656.96875 20.410156 -659.210938 6.539062 -658.582031 C -5.769531 -658.023438 -17.691406 -655.164062 -29.21875 -650.007812 C -40.277344 -645.058594 -49.925781 -638.464844 -58.167969 -630.222656 C -59.542969 -628.847656 -60.382812 -627.925781 -60.683594 -627.457031 C -59.453125 -629.378906 -58.03125 -632.171875 -56.421875 -635.839844 C -40.132812 -672.9375 -16.308594 -707.167969 15.054688 -738.535156 C 58.269531 -781.746094 108.957031 -809.917969 167.125 -823.054688 C 221.195312 -835.261719 275.289062 -834.222656 329.414062 -819.933594 C 385.832031 -805.039062 434.996094 -776.636719 476.914062 -734.71875 C 518.214844 -693.417969 545.988281 -644.503906 560.234375 -587.972656 C 573.742188 -534.375 574.167969 -480.738281 561.511719 -427.058594 C 547.984375 -369.675781 519.785156 -319.546875 476.914062 -276.675781 L 366.316406 -166.078125 C 315.308594 -115.070312 257.019531 -77.207031 191.441406 -52.480469 C 128.121094 -28.605469 62.445312 -17.1875 -5.589844 -18.222656 C -73.382812 -19.253906 -138.621094 -32.511719 -201.300781 -58 C -265.265625 -84.003906 -322.046875 -121.8125 -371.65625 -171.417969 C -423.015625 -222.777344 -461.574219 -280.742188 -487.332031 -345.308594 C -512.703125 -408.910156 -525.214844 -474.691406 -524.863281 -542.652344 C -524.519531 -610.113281 -511.753906 -675.410156 -486.566406 -738.546875 C -461.0625 -802.488281 -423.464844 -859.992188 -373.78125 -911.058594 Z M -65.394531 -818.984375 L -170.816406 -713.582031 C -194.355469 -689.390625 -211.929688 -662.738281 -223.542969 -633.625 C -235.480469 -603.707031 -241.527344 -572.898438 -241.691406 -541.203125 C -241.851562 -510.007812 -236.054688 -479.683594 -224.308594 -450.230469 C -212.941406 -421.742188 -195.3125 -395.550781 -171.417969 -371.65625 C -148.816406 -349.054688 -123.226562 -331.945312 -94.640625 -320.320312 C -64.777344 -308.179688 -33.652344 -301.859375 -1.277344 -301.367188 C 30.863281 -300.878906 61.800781 -306.238281 91.535156 -317.449219 C 119.015625 -327.808594 143.863281 -344.097656 166.078125 -366.316406 L 276.675781 -476.914062 C 281.605469 -481.839844 284.675781 -486.882812 285.890625 -492.042969 C 287.984375 -500.910156 287.898438 -509.816406 285.644531 -518.765625 C 284.128906 -524.78125 281.140625 -530.019531 276.675781 -534.484375 C 270.792969 -540.367188 264.277344 -544.25 257.132812 -546.136719 C 247.695312 -548.628906 238.484375 -548.859375 229.5 -546.832031 C 224.613281 -545.726562 219.878906 -542.882812 215.292969 -538.296875 C 209.027344 -532.03125 204.886719 -526.601562 202.867188 -522.003906 C 186.582031 -484.90625 166.316406 -454.230469 142.070312 -429.988281 C 125.691406 -413.609375 107.144531 -400.785156 86.421875 -391.515625 C 65.234375 -382.039062 42.890625 -376.765625 19.394531 -375.695312 C -5.664062 -374.558594 -29.65625 -378.324219 -52.585938 -387 C -76.277344 -395.964844 -97.207031 -409.53125 -115.375 -427.699219 C -132.835938 -445.160156 -146.179688 -465.132812 -155.402344 -487.613281 C -164.5 -509.789062 -169.046875 -533.105469 -169.046875 -557.5625 C -169.046875 -582.023438 -164.5 -605.339844 -155.402344 -627.511719 C -146.179688 -649.996094 -132.835938 -669.96875 -115.375 -687.429688 C -91.128906 -711.675781 -60.457031 -731.941406 -23.355469 -748.230469 C -18.757812 -750.246094 -13.328125 -754.386719 -7.0625 -760.652344 C -1.441406 -766.273438 2.101562 -771.945312 3.566406 -777.667969 C 5.496094 -785.195312 5.449219 -792.96875 3.429688 -800.980469 C 1.914062 -806.996094 -1.582031 -812.742188 -7.0625 -818.222656 C -11.730469 -822.890625 -17.355469 -826.070312 -23.9375 -827.769531 C -32.898438 -830.082031 -41.675781 -830.226562 -50.265625 -828.203125 C -55.425781 -826.984375 -60.46875 -823.914062 -65.394531 -818.984375 Z M -65.394531 -818.984375 "/></g></g></g><g fill="#9ac0df" fill-opacity="1"><g transform="translate(750.251281, 1268.488912)"><g><path d="M -165.515625 -919.078125 C -141.617188 -942.972656 -114.03125 -958.609375 -82.75 -965.984375 C -51.46875 -973.359375 -20.066406 -972.976562 11.453125 -964.84375 C 42.972656 -956.707031 70.175781 -941.195312 93.0625 -918.3125 C 116.957031 -894.414062 132.84375 -866.832031 140.71875 -835.5625 C 148.601562 -804.300781 148.601562 -773.285156 140.71875 -742.515625 C 132.832031 -711.742188 116.941406 -684.410156 93.046875 -660.515625 C 74.234375 -641.703125 54.398438 -627.71875 33.546875 -618.5625 C 12.703125 -609.414062 -3.566406 -598.992188 -15.265625 -587.296875 C -23.390625 -579.171875 -27.453125 -569.257812 -27.453125 -557.5625 C -27.453125 -545.863281 -23.382812 -535.945312 -15.25 -527.8125 C -7.625 -520.1875 1.78125 -516.625 12.96875 -517.125 C 24.164062 -517.632812 33.828125 -521.953125 41.953125 -530.078125 C 53.648438 -541.773438 64.070312 -558.046875 73.21875 -578.890625 C 82.375 -599.742188 96.359375 -619.578125 115.171875 -638.390625 C 139.066406 -662.285156 166.78125 -677.796875 198.3125 -684.921875 C 229.84375 -692.046875 261.492188 -691.410156 293.265625 -683.015625 C 325.046875 -674.628906 352.882812 -658.488281 376.78125 -634.59375 C 399.664062 -611.707031 415.046875 -584.628906 422.921875 -553.359375 C 430.804688 -522.097656 431.0625 -490.828125 423.6875 -459.546875 C 416.3125 -428.265625 400.675781 -400.675781 376.78125 -376.78125 L 266.1875 -266.1875 C 229.582031 -229.582031 188.015625 -202.503906 141.484375 -184.953125 C 94.960938 -167.410156 46.660156 -159.019531 -3.421875 -159.78125 C -53.503906 -160.539062 -101.679688 -170.328125 -147.953125 -189.140625 C -194.234375 -207.960938 -235.425781 -235.425781 -271.53125 -271.53125 C -309.15625 -309.15625 -337.25 -351.234375 -355.8125 -397.765625 C -374.375 -444.296875 -383.523438 -492.34375 -383.265625 -541.90625 C -383.015625 -591.476562 -373.609375 -639.53125 -355.046875 -686.0625 C -336.484375 -732.59375 -308.898438 -774.671875 -272.296875 -812.296875 Z M -165.515625 -919.078125 "/></g></g></g></g></g><g transform="matrix(1, 0, 0, 1, 2468, 533)"><g clip-path="url(#93d48e4679)"><g fill="#ffef42" fill-opacity="1"><g transform="translate(205.909558, 935.3025)"><g><path d="M 657.128906 -805.40625 C 714.84375 -795.210938 765.136719 -771.410156 808.011719 -734.011719 C 849.121094 -698.152344 879.183594 -654.757812 898.207031 -603.828125 C 917.871094 -551.179688 922.710938 -496.609375 912.726562 -440.109375 C 902.855469 -384.222656 879.851562 -335.222656 843.722656 -293.105469 C 809.308594 -252.996094 767.386719 -223.070312 717.960938 -203.332031 C 665.105469 -182.226562 609.515625 -176.828125 551.179688 -187.132812 L 575.8125 -326.5625 L 715.347656 -302.527344 L 672.683594 -54.839844 C 662.59375 2.265625 638.976562 52.367188 601.832031 95.46875 C 566.152344 136.867188 522.957031 167.332031 472.242188 186.859375 C 419.148438 207.304688 364.097656 212.492188 307.09375 202.421875 C 250.488281 192.417969 200.863281 168.585938 158.214844 130.921875 C 117.5625 95.023438 87.828125 51.410156 69.003906 0.0859375 C 49.648438 -52.683594 44.9375 -107.171875 54.867188 -163.378906 L 98.59375 -410.875 L 238.023438 -386.242188 L 213.390625 -246.8125 C 156.078125 -256.9375 106.097656 -280.832031 63.449219 -318.496094 C 23.09375 -354.140625 -6.433594 -396.84375 -25.128906 -446.613281 C -44.640625 -498.558594 -49.457031 -552.476562 -39.585938 -608.359375 C -29.691406 -664.351562 -6.933594 -713.625 28.691406 -756.179688 C 63.605469 -797.886719 106.40625 -828.679688 157.101562 -848.554688 C 210.070312 -869.328125 265.214844 -874.648438 322.527344 -864.523438 Z M 607.859375 -526.546875 L 273.257812 -585.664062 C 268.253906 -586.546875 263.992188 -586.300781 260.472656 -584.917969 C 254.671875 -582.644531 249.792969 -579.140625 245.828125 -574.410156 C 242.578125 -570.523438 240.394531 -565.417969 239.273438 -559.09375 C 238.390625 -554.078125 238.621094 -549.773438 239.96875 -546.1875 C 242.132812 -540.421875 245.777344 -535.277344 250.902344 -530.753906 C 253.734375 -528.25 257.65625 -526.554688 262.660156 -525.671875 L 402.089844 -501.039062 L 333.726562 -114.109375 C 332.648438 -107.996094 333.027344 -102.433594 334.863281 -97.421875 C 337.234375 -90.960938 340.832031 -85.597656 345.664062 -81.332031 C 348.5 -78.828125 352.0625 -77.199219 356.359375 -76.4375 C 361.671875 -75.5 366.382812 -75.820312 370.488281 -77.402344 C 376.972656 -79.902344 382.585938 -83.898438 387.324219 -89.398438 C 390.59375 -93.195312 392.691406 -97.699219 393.613281 -102.910156 L 460.417969 -490.730469 L 600.449219 -465.992188 C 605.847656 -465.039062 610.011719 -465.144531 612.945312 -466.316406 C 619.300781 -468.855469 624.582031 -472.578125 628.796875 -477.488281 C 631.292969 -480.398438 632.980469 -484.359375 633.867188 -489.375 C 634.894531 -495.191406 634.582031 -500.316406 632.929688 -504.746094 C 630.632812 -510.890625 626.945312 -516.179688 621.863281 -520.613281 C 618.546875 -523.503906 613.878906 -525.484375 607.859375 -526.546875 Z M 607.859375 -526.546875 "/></g></g></g><g fill="#9ac0df" fill-opacity="1"><g transform="translate(205.909558, 935.3025)"><g><path d="M 632.484375 -665.96875 C 664.359375 -660.332031 691.84375 -647.441406 714.9375 -627.296875 C 738.03125 -607.148438 754.898438 -582.804688 765.546875 -554.265625 C 776.203125 -525.734375 778.78125 -495.890625 773.28125 -464.734375 C 767.894531 -434.285156 755.550781 -407.804688 736.25 -385.296875 C 716.945312 -362.785156 693.34375 -345.957031 665.4375 -334.8125 C 637.539062 -323.675781 607.664062 -320.925781 575.8125 -326.5625 L 533.15625 -78.890625 C 527.644531 -47.722656 514.78125 -20.414062 494.5625 3.03125 C 474.351562 26.488281 449.945312 43.722656 421.34375 54.734375 C 392.75 65.742188 362.875 68.492188 331.71875 62.984375 C 301.269531 57.609375 274.671875 44.878906 251.921875 24.796875 C 229.179688 4.710938 212.515625 -19.769531 201.921875 -48.65625 C 191.328125 -77.550781 188.785156 -107.582031 194.296875 -138.75 L 238.015625 -386.234375 C 206.859375 -391.742188 179.910156 -404.539062 157.171875 -424.625 C 134.429688 -444.707031 117.84375 -468.628906 107.40625 -496.390625 C 96.976562 -524.160156 94.457031 -553.269531 99.84375 -583.71875 C 105.34375 -614.875 117.8125 -642.0625 137.25 -665.28125 C 156.6875 -688.5 180.53125 -705.644531 208.78125 -716.71875 C 237.03125 -727.800781 266.734375 -730.585938 297.890625 -725.078125 Z M 632.484375 -665.96875 "/></g></g></g></g></g><g transform="matrix(1, 0, 0, 1, 2973, 617)"><g clip-path="url(#dde5fec164)"><g fill="#ffef42" fill-opacity="1"><g transform="translate(312.478727, 704.414027)"><g><path d="M 1024.261719 -177.15625 C 1061.148438 -131.609375 1083.515625 -80.664062 1091.359375 -24.3125 C 1098.878906 29.71875 1093.121094 82.195312 1074.085938 133.121094 C 1054.410156 185.761719 1022.277344 230.136719 977.691406 266.246094 C 933.589844 301.964844 884.09375 323.875 829.199219 331.980469 C 776.914062 339.699219 725.640625 334.800781 675.378906 317.289062 C 621.636719 298.566406 576.125 266.1875 538.839844 220.152344 L 648.871094 131.039062 L 738.453125 240.6875 L 543.824219 399.707031 C 498.761719 436.203125 448.074219 458.546875 391.769531 466.726562 C 337.683594 474.585938 285.09375 469.261719 234 450.75 C 180.507812 431.367188 135.546875 399.183594 99.113281 354.199219 C 62.933594 309.53125 41.097656 258.996094 33.597656 202.59375 C 26.449219 148.832031 32.59375 96.40625 52.039062 45.3125 C 72.03125 -7.21875 104.207031 -51.445312 148.558594 -87.367188 L 343.867188 -245.550781 L 432.980469 -135.519531 L 322.953125 -46.40625 C 286.324219 -91.636719 264.257812 -142.449219 256.757812 -198.851562 C 249.660156 -252.226562 255.371094 -303.828125 273.894531 -353.660156 C 293.226562 -405.675781 324.945312 -449.539062 369.046875 -485.257812 C 413.230469 -521.042969 462.722656 -543.320312 517.523438 -552.085938 C 571.234375 -560.679688 623.738281 -555.859375 675.046875 -537.625 C 728.660156 -518.570312 773.78125 -486.429688 810.410156 -441.199219 Z M 804.203125 1.070312 L 590.351562 -262.976562 C 587.152344 -266.925781 583.773438 -269.53125 580.210938 -270.800781 C 574.339844 -272.886719 568.359375 -273.441406 562.265625 -272.464844 C 557.261719 -271.664062 552.265625 -269.242188 547.269531 -265.199219 C 543.3125 -261.992188 540.667969 -258.59375 539.332031 -255.003906 C 537.1875 -249.230469 536.5625 -242.957031 537.464844 -236.179688 C 537.964844 -232.429688 539.8125 -228.582031 543.011719 -224.632812 L 632.125 -114.605469 L 326.785156 132.691406 C 321.960938 136.597656 318.597656 141.046875 316.699219 146.035156 C 314.253906 152.464844 313.453125 158.875 314.304688 165.265625 C 314.800781 169.011719 316.425781 172.582031 319.171875 175.972656 C 322.566406 180.164062 326.332031 183.007812 330.46875 184.507812 C 337 186.875 343.859375 187.539062 351.042969 186.492188 C 356.003906 185.773438 360.539062 183.746094 364.65625 180.417969 L 669.402344 -68.574219 L 758.898438 41.929688 C 762.351562 46.1875 765.566406 48.839844 768.546875 49.878906 C 775.007812 52.128906 781.441406 52.78125 787.839844 51.835938 C 791.632812 51.277344 795.507812 49.394531 799.464844 46.1875 C 804.054688 42.472656 807.179688 38.398438 808.835938 33.96875 C 811.132812 27.824219 811.816406 21.410156 810.886719 14.734375 C 810.277344 10.375 808.050781 5.820312 804.203125 1.070312 Z M 804.203125 1.070312 "/></g></g></g><g fill="#9ac0df" fill-opacity="1"><g transform="translate(312.478727, 704.414027)"><g><path d="M 914.21875 -88.03125 C 934.59375 -62.882812 946.890625 -35.128906 951.109375 -4.765625 C 955.335938 25.585938 952.117188 55.023438 941.453125 83.546875 C 930.785156 112.078125 913.15625 136.300781 888.5625 156.21875 C 864.539062 175.675781 837.851562 187.570312 808.5 191.90625 C 779.15625 196.238281 750.300781 193.460938 721.9375 183.578125 C 693.582031 173.703125 669.222656 156.191406 648.859375 131.046875 L 454.25 290.0625 C 429.65625 309.976562 402.039062 322.160156 371.40625 326.609375 C 340.769531 331.054688 311.046875 328.0625 282.234375 317.625 C 253.421875 307.1875 229.054688 289.675781 209.140625 265.09375 C 189.679688 241.050781 177.953125 213.992188 173.953125 183.921875 C 169.953125 153.847656 173.421875 124.429688 184.359375 95.671875 C 195.304688 66.910156 213.078125 42.570312 237.671875 22.65625 L 432.96875 -135.515625 C 413.0625 -160.097656 401.101562 -187.425781 397.09375 -217.5 C 393.09375 -247.582031 396.265625 -276.523438 406.609375 -304.328125 C 416.953125 -332.128906 434.132812 -355.757812 458.15625 -375.21875 C 482.75 -395.132812 509.992188 -407.484375 539.890625 -412.265625 C 569.785156 -417.046875 599.03125 -414.351562 627.625 -404.1875 C 656.21875 -394.03125 680.46875 -376.660156 700.375 -352.078125 Z M 914.21875 -88.03125 "/></g></g></g></g></g><g transform="matrix(1, 0, 0, 1, 1676, 612)"><g clip-path="url(#c52fd29f50)"><g fill="#ffef42" fill-opacity="1"><g transform="translate(275.867187, 891.2334)"><g><path d="M -25.421875 114.875 C -58.382812 69.253906 -77.785156 19.046875 -83.625 -35.746094 C -89.433594 -90.253906 -81.488281 -142.640625 -59.78125 -192.902344 C -37.824219 -243.753906 -4.460938 -285.726562 40.308594 -318.828125 L 424.050781 -603.691406 C 475.785156 -642.402344 532.542969 -663.03125 594.316406 -665.566406 C 652.019531 -667.9375 706.230469 -655.90625 756.945312 -629.464844 C 808.242188 -602.726562 849.25 -564.625 879.96875 -515.160156 C 912.492188 -462.789062 927.25 -403.667969 924.238281 -337.796875 L 901.078125 142.09375 C 899.527344 197.855469 882.914062 249.5 851.242188 297.023438 C 821.472656 341.691406 782.992188 376.640625 735.800781 401.871094 C 686.5 428.234375 632.914062 440.015625 575.046875 437.21875 C 518.328125 433.851562 466.808594 417.164062 420.488281 387.148438 C 373.910156 356.96875 338.082031 317.453125 313.007812 268.597656 C 288.136719 220.144531 276.773438 167.972656 278.925781 112.074219 L 289.820312 -113.839844 L 291.28125 -122.347656 C 288.164062 -104.191406 288.6875 -86.09375 292.855469 -68.058594 C 297.851562 -46.433594 307.484375 -27.121094 321.753906 -10.132812 C 340.757812 12.5 364.339844 27.363281 392.5 34.460938 C 409.566406 38.757812 426.882812 39.699219 444.445312 37.277344 C 466.640625 34.214844 486.890625 26.214844 505.191406 13.277344 C 520.371094 2.546875 532.824219 -10.675781 542.546875 -26.382812 C 548.65625 -36.257812 553.367188 -46.65625 556.679688 -57.582031 L 421.183594 -98.664062 L 558.183594 -62.917969 L 514.386719 104.945312 L 413.480469 181.117188 C 366.273438 215.25 315.269531 235.238281 260.476562 241.078125 C 205.96875 246.890625 153.585938 238.941406 103.320312 217.238281 C 53.375 195.671875 11.320312 162.703125 -22.839844 118.332031 L -24.15625 116.621094 Z M 204.113281 -50.96875 L 89.34375 31.953125 L 201.53125 -54.429688 C 205.855469 -48.8125 210.542969 -44.914062 215.585938 -42.734375 C 220.316406 -40.695312 225.273438 -39.949219 230.464844 -40.503906 C 235.371094 -41.027344 239.503906 -42.492188 242.871094 -44.894531 L 304.503906 -91.421875 L 389.808594 21.585938 L 252.804688 -14.160156 L 284.878906 -137.089844 L 285.683594 -139.742188 C 295.613281 -172.492188 314.292969 -198.5625 341.722656 -217.953125 C 361.011719 -231.589844 382.359375 -240.019531 405.765625 -243.246094 C 424.539062 -245.835938 443.179688 -244.800781 461.683594 -240.136719 C 492.714844 -232.320312 518.359375 -216.351562 538.609375 -192.238281 C 553.503906 -174.503906 563.554688 -154.359375 568.765625 -131.800781 C 573.148438 -112.832031 573.683594 -93.710938 570.375 -74.433594 L 430.828125 -98.390625 L 572.25 -91.566406 L 561.894531 122.957031 C 561.644531 129.410156 562.65625 134.851562 564.933594 139.28125 C 567 143.3125 570.179688 146.714844 574.472656 149.496094 C 579.023438 152.445312 583.773438 154.070312 588.726562 154.371094 C 594.472656 154.648438 598.992188 153.90625 602.277344 152.152344 C 607.675781 149.265625 612.117188 145.207031 615.601562 139.976562 C 617.183594 137.601562 618.058594 133.757812 618.230469 128.441406 L 641.355469 -350.726562 C 641.695312 -358.113281 641.042969 -363.125 639.40625 -365.765625 C 635.957031 -371.316406 631.503906 -375.511719 626.042969 -378.359375 C 620.003906 -381.507812 613.304688 -382.929688 605.941406 -382.628906 C 602.652344 -382.492188 598.285156 -380.386719 592.839844 -376.3125 L 208.660156 -91.125 C 204.800781 -88.273438 201.980469 -84.777344 200.191406 -80.636719 C 198.148438 -75.910156 197.40625 -70.949219 197.957031 -65.761719 C 198.480469 -60.855469 200.53125 -55.921875 204.113281 -50.96875 Z M 204.113281 -50.96875 "/></g></g></g><g fill="#9ac0df" fill-opacity="1"><g transform="translate(275.867187, 891.2334)"><g><path d="M 89.34375 31.953125 C 71.070312 6.671875 60.347656 -20.894531 57.171875 -50.75 C 53.992188 -80.601562 58.335938 -109.273438 70.203125 -136.765625 C 82.078125 -164.253906 100.171875 -186.992188 124.484375 -204.984375 L 508.421875 -490 C 537.023438 -511.382812 567.585938 -522.742188 600.109375 -524.078125 C 632.640625 -525.421875 663.09375 -518.695312 691.46875 -503.90625 C 719.851562 -489.113281 742.582031 -467.960938 759.65625 -440.453125 C 776.738281 -412.941406 784.445312 -380.878906 782.78125 -344.265625 L 759.640625 135.25 C 758.773438 165.789062 750.03125 193.535156 733.40625 218.484375 C 716.78125 243.429688 695.320312 262.9375 669.03125 277 C 642.738281 291.0625 613.6875 297.320312 581.875 295.78125 C 551.039062 293.945312 522.90625 284.789062 497.46875 268.3125 C 472.03125 251.832031 452.523438 230.367188 438.953125 203.921875 C 425.378906 177.484375 419.195312 148.679688 420.40625 117.515625 L 430.8125 -98.375 C 431.207031 -100.632812 429.960938 -102.125 427.078125 -102.84375 C 424.203125 -103.5625 422.234375 -102.164062 421.171875 -98.65625 L 389.78125 21.59375 L 328.171875 68.109375 C 302.878906 86.378906 275.304688 97.101562 245.453125 100.28125 C 215.609375 103.457031 186.9375 99.109375 159.4375 87.234375 C 131.945312 75.367188 108.582031 56.941406 89.34375 31.953125 Z M 89.34375 31.953125 "/></g></g></g></g></g></svg>