<svg xmlns="http://www.w3.org/2000/svg" xmlns:xlink="http://www.w3.org/1999/xlink" width="6912" zoomAndPan="magnify" viewBox="0 0 5184 2592.000001" height="3456" preserveAspectRatio="xMidYMid meet" version="1.0"><defs><g/><clipPath id="13ee5cca37"><path d="M 19 116 L 1425 116 L 1425 1655 L 19 1655 Z M 19 116 " clip-rule="nonzero"/></clipPath><clipPath id="f3bd65ec1e"><rect x="0" width="1425" y="0" height="1669"/></clipPath><clipPath id="fbabe39514"><rect x="0" width="1425" y="0" height="1305"/></clipPath><clipPath id="a347597707"><rect x="0" width="1355" y="0" height="1476"/></clipPath><clipPath id="76c2c7a813"><rect x="0" width="1242" y="0" height="1401"/></clipPath><clipPath id="189ba75ce3"><rect x="0" width="1550" y="0" height="1606"/></clipPath><clipPath id="9ed157fb61"><rect x="0" width="1621" y="0" height="1573"/></clipPath></defs><g transform="matrix(1, 0, 0, 1, 3758, 770)"><g clip-path="url(#f3bd65ec1e)"><g clip-path="url(#13ee5cca37)"><g fill="#ffef42" fill-opacity="1"><g transform="translate(1336.071957, 817.190517)"><g><path d="M -817.992188 418.851562 C -878.0625 425.003906 -934.179688 415.820312 -986.34375 391.300781 C -1037.320312 367.339844 -1079.164062 332.207031 -1111.863281 285.898438 C -1145.917969 237.683594 -1164.585938 183.167969 -1167.867188 122.355469 L -1021.273438 114.441406 L -1167.535156 127.078125 C -1172.621094 68.25 -1162.09375 12.457031 -1135.953125 -40.300781 C -1111.324219 -90.019531 -1076.726562 -131.109375 -1032.171875 -163.5625 C -986.359375 -196.929688 -934.523438 -217.058594 -876.65625 -223.941406 L -655.476562 -245.503906 L -641.253906 -99.382812 L -753.617188 -193.871094 L -652.835938 -313.714844 C -614.34375 -359.488281 -567.566406 -391.90625 -512.503906 -410.964844 C -459.335938 -429.367188 -404.855469 -433.867188 -349.058594 -424.46875 C -291.597656 -414.789062 -240.101562 -390.804688 -194.570312 -352.515625 C -149.609375 -314.707031 -117.433594 -268.328125 -98.042969 -213.382812 C -79.210938 -160.023438 -74.300781 -105.578125 -83.3125 -50.042969 C -92.640625 7.472656 -116.554688 59.117188 -155.046875 104.894531 L -255.828125 224.734375 L -368.1875 130.246094 L -221.792969 119.191406 L -205.300781 337.652344 C -202.023438 397.9375 -212.890625 453.503906 -237.90625 504.359375 C -262.234375 553.824219 -296.78125 594.953125 -341.535156 627.75 C -389.03125 662.550781 -442.191406 682.492188 -501.019531 687.574219 L -513.65625 541.308594 L -496.308594 687.089844 C -556.621094 694.265625 -613.25 685.410156 -666.195312 660.523438 C -717.472656 636.421875 -759.203125 601.277344 -791.390625 555.085938 C -824.535156 507.519531 -842.742188 453.496094 -846.007812 393.019531 L -699.414062 385.101562 L -845.753906 396.820312 L -855.789062 271.472656 L -709.449219 259.753906 L -694.019531 405.75 L -817.519531 418.804688 Z M -848.378906 126.808594 L -575.128906 97.929688 L -552.917969 375.285156 L -552.816406 377.1875 C -552.554688 382.023438 -551.78125 385.371094 -550.492188 387.21875 C -548.242188 390.445312 -545.175781 392.96875 -541.292969 394.796875 C -539.078125 395.835938 -535.648438 396.082031 -531.003906 395.527344 L -528.65625 395.25 L -526.296875 395.042969 C -522.089844 394.679688 -518.351562 393.300781 -515.082031 390.90625 C -509.070312 386.503906 -504.503906 381.121094 -501.375 374.761719 C -498.933594 369.796875 -497.835938 364.792969 -498.085938 359.761719 L -519.089844 81.589844 L -379.769531 -84.082031 C -376.035156 -88.527344 -373.824219 -92.851562 -373.140625 -97.0625 C -372.136719 -103.25 -372.730469 -109.453125 -374.925781 -115.667969 C -376.554688 -120.289062 -379.429688 -124.332031 -383.546875 -127.796875 C -388.234375 -131.738281 -392.996094 -134.117188 -397.832031 -134.929688 C -404.328125 -136.023438 -410.542969 -135.546875 -416.464844 -133.496094 C -420.496094 -132.101562 -424.378906 -129.183594 -428.117188 -124.738281 L -567.433594 40.933594 L -841.960938 67.621094 C -849.046875 68.460938 -854.828125 70.511719 -859.300781 73.773438 C -865.027344 77.945312 -869.546875 83.367188 -872.851562 90.042969 C -874.652344 93.675781 -875.371094 97.597656 -875.007812 101.800781 L -874.804688 104.160156 L -874.675781 106.523438 C -874.433594 111.03125 -873.550781 114.363281 -872.023438 116.519531 C -869.152344 120.589844 -865.625 123.609375 -861.441406 125.574219 C -858.445312 126.984375 -853.933594 127.378906 -847.90625 126.761719 Z M -848.378906 126.808594 "/></g></g></g></g><g fill="#bd0000" fill-opacity="1"><g transform="translate(1336.071957, 817.190517)"><g><path d="M -832.9375 272.8125 C -865.988281 276.195312 -896.300781 271.40625 -923.875 258.4375 C -951.457031 245.476562 -974.144531 226.40625 -991.9375 201.21875 C -1009.726562 176.03125 -1019.503906 147.109375 -1021.265625 114.453125 C -1023.992188 82.929688 -1018.375 53.070312 -1004.40625 24.875 C -990.4375 -3.320312 -970.878906 -26.578125 -945.734375 -44.890625 C -920.585938 -63.203125 -891.78125 -74.289062 -859.3125 -78.15625 L -641.25 -99.375 L -540.46875 -219.203125 C -519.351562 -244.316406 -494.019531 -261.988281 -464.46875 -272.21875 C -434.925781 -282.445312 -404.582031 -284.941406 -373.4375 -279.703125 C -342.289062 -274.460938 -314.160156 -261.28125 -289.046875 -240.15625 C -264.515625 -219.519531 -246.992188 -194.304688 -236.484375 -164.515625 C -225.972656 -134.734375 -223.21875 -104.410156 -228.21875 -73.546875 C -233.226562 -42.679688 -246.289062 -14.691406 -267.40625 10.421875 L -368.1875 130.25 L -351.6875 348.703125 C -349.925781 381.359375 -355.910156 411.644531 -369.640625 439.5625 C -383.367188 467.476562 -402.925781 490.734375 -428.3125 509.328125 C -453.695312 527.921875 -482.140625 538.582031 -513.640625 541.3125 C -546.128906 545.175781 -576.160156 540.625 -603.734375 527.65625 C -631.316406 514.6875 -653.71875 495.847656 -670.9375 471.140625 C -688.15625 446.441406 -697.640625 417.765625 -699.390625 385.109375 L -709.421875 259.75 Z M -832.9375 272.8125 "/></g></g></g></g></g><g transform="matrix(1, 0, 0, 1, 942, 154)"><g clip-path="url(#fbabe39514)"><g fill="#ffef42" fill-opacity="1"><g transform="translate(967.982113, 1092.924584)"><g><path d="M 258.625 -545.125 C 247.140625 -487.070312 222.148438 -436.167969 183.644531 -392.417969 C 145.847656 -349.46875 100.3125 -318.476562 47.039062 -299.449219 C -7.832031 -279.847656 -64.605469 -275.851562 -123.277344 -287.457031 L -160.582031 -294.835938 C -144.558594 -291.664062 -128.433594 -291.738281 -112.210938 -295.058594 C -96.425781 -298.289062 -81.960938 -304.304688 -68.820312 -313.105469 C -55.675781 -321.90625 -44.605469 -332.992188 -35.609375 -346.359375 C -26.367188 -360.097656 -20.160156 -374.976562 -16.988281 -391.003906 C -13.820312 -407.027344 -13.894531 -423.152344 -17.210938 -439.371094 C -20.441406 -455.160156 -26.457031 -469.621094 -35.257812 -482.765625 C -44.0625 -495.910156 -55.144531 -506.976562 -68.511719 -515.972656 C -82.25 -525.21875 -97.132812 -531.425781 -113.15625 -534.597656 L -75.851562 -527.21875 C -16.980469 -515.570312 34.019531 -490.707031 77.148438 -452.625 C 119.75 -415.007812 150.332031 -369.339844 168.898438 -315.625 C 187.695312 -261.246094 191.269531 -204.621094 179.625 -145.75 C 168.328125 -88.648438 143.765625 -38.414062 105.9375 4.945312 C 68.511719 47.84375 23.054688 78.847656 -30.429688 97.953125 C -85.300781 117.554688 -142.441406 121.476562 -201.84375 109.726562 L -634.136719 24.214844 C -693.859375 12.402344 -745.242188 -13.148438 -788.28125 -52.433594 C -829.753906 -90.289062 -859.578125 -136.023438 -877.75 -189.632812 C -896.222656 -244.132812 -899.8125 -299.933594 -888.515625 -357.035156 C -876.871094 -415.90625 -852.007812 -466.90625 -813.921875 -510.035156 C -776.515625 -552.398438 -731.316406 -582.917969 -678.320312 -601.597656 C -624.058594 -620.726562 -567.332031 -624.4375 -508.144531 -612.726562 L -468.644531 -604.914062 C -486.257812 -608.398438 -503.816406 -608.125 -521.332031 -604.097656 C -535.996094 -600.722656 -549.390625 -594.976562 -561.507812 -586.863281 C -574.648438 -578.058594 -585.71875 -566.976562 -594.714844 -553.609375 C -603.960938 -539.871094 -610.167969 -524.988281 -613.335938 -508.964844 C -616.507812 -492.9375 -616.433594 -476.816406 -613.113281 -460.59375 C -609.886719 -444.808594 -603.871094 -430.34375 -595.066406 -417.199219 C -586.953125 -405.082031 -576.753906 -394.671875 -564.480469 -385.96875 C -549.816406 -375.574219 -533.683594 -368.636719 -516.074219 -365.152344 L -555.570312 -372.964844 C -614.5625 -384.636719 -665.578125 -410.113281 -708.617188 -449.398438 C -749.925781 -487.105469 -779.828125 -532.859375 -798.324219 -586.660156 C -817.269531 -641.773438 -821 -698.359375 -809.515625 -756.414062 C -797.910156 -815.085938 -772.601562 -866.058594 -733.585938 -909.335938 C -696.339844 -950.652344 -651.730469 -980.769531 -599.765625 -999.699219 C -545.011719 -1019.640625 -488.136719 -1023.773438 -429.144531 -1012.105469 L 3.148438 -926.59375 C 61.820312 -914.988281 112.796875 -889.679688 156.070312 -850.664062 C 197.625 -813.203125 227.8125 -768.128906 246.632812 -715.441406 C 266.234375 -660.570312 270.230469 -603.796875 258.625 -545.125 Z M -29.414062 -602.101562 C -28.285156 -607.796875 -28.441406 -612.652344 -29.875 -616.667969 C -32.089844 -622.871094 -35.644531 -628.175781 -40.535156 -632.585938 C -43.699219 -635.4375 -48.132812 -637.429688 -53.828125 -638.558594 L -486.121094 -724.066406 C -491.496094 -725.132812 -495.886719 -725.042969 -499.285156 -723.804688 C -505.476562 -721.550781 -510.882812 -717.859375 -515.507812 -712.730469 C -518.359375 -709.5625 -520.351562 -705.132812 -521.480469 -699.4375 C -522.726562 -693.121094 -522.453125 -687.347656 -520.652344 -682.113281 C -518.402344 -675.5625 -515.074219 -670.28125 -510.671875 -666.257812 C -507.996094 -663.820312 -503.972656 -662.066406 -498.597656 -661.003906 L -459.097656 -653.191406 C -435.636719 -648.550781 -414.15625 -639.320312 -394.664062 -625.5 C -377.554688 -613.371094 -363.035156 -598.398438 -351.105469 -580.585938 C -338.488281 -561.75 -329.9375 -541.367188 -325.453125 -519.441406 C -320.878906 -497.082031 -320.828125 -474.597656 -325.300781 -451.988281 C -329.773438 -429.378906 -338.378906 -408.609375 -351.121094 -389.671875 C -363.617188 -371.105469 -379.285156 -355.515625 -398.121094 -342.898438 C -415.933594 -330.96875 -435.058594 -322.65625 -455.5 -317.953125 C -478.785156 -312.59375 -502.160156 -312.234375 -525.621094 -316.878906 L -565.121094 -324.691406 C -571.765625 -326.003906 -576.960938 -326 -580.707031 -324.679688 C -585.722656 -322.914062 -590.097656 -319.914062 -593.832031 -315.6875 C -596.886719 -312.226562 -599.101562 -307.019531 -600.480469 -300.058594 C -601.625 -294.253906 -601.359375 -288.867188 -599.671875 -283.890625 C -597.683594 -278.027344 -594.570312 -273.160156 -590.332031 -269.292969 C -587.660156 -266.851562 -583.269531 -265.03125 -577.160156 -263.820312 L -144.867188 -178.308594 C -138.441406 -177.039062 -133.21875 -177.121094 -129.203125 -178.554688 C -123.804688 -180.484375 -119.171875 -183.660156 -115.316406 -188.082031 C -111.863281 -192.039062 -109.5625 -196.921875 -108.414062 -202.722656 C -107.035156 -209.683594 -107.101562 -215.34375 -108.609375 -219.707031 C -110.347656 -224.734375 -113.210938 -229.011719 -117.199219 -232.53125 C -120.660156 -235.585938 -125.867188 -237.800781 -132.828125 -239.179688 L -170.132812 -246.558594 C -192.742188 -251.03125 -213.511719 -259.636719 -232.449219 -272.382812 C -251.015625 -284.875 -266.605469 -300.542969 -279.222656 -319.378906 C -291.835938 -338.21875 -300.386719 -358.601562 -304.875 -380.523438 C -309.449219 -402.886719 -309.5 -425.371094 -305.027344 -447.976562 C -300.554688 -470.585938 -291.945312 -491.359375 -279.203125 -510.292969 C -266.710938 -528.859375 -251.042969 -544.449219 -232.203125 -557.066406 C -213.367188 -569.683594 -192.984375 -578.234375 -171.0625 -582.71875 C -148.699219 -587.292969 -126.214844 -587.34375 -103.605469 -582.871094 L -66.300781 -575.492188 C -60.605469 -574.367188 -55.75 -574.519531 -51.734375 -575.957031 C -46.121094 -577.960938 -41.136719 -581.441406 -36.773438 -586.398438 C -33.117188 -590.554688 -30.664062 -595.789062 -29.414062 -602.101562 Z M -29.414062 -602.101562 "/></g></g></g><g fill="#bd0000" fill-opacity="1"><g transform="translate(967.982113, 1092.924584)"><g><path d="M 114.625 -573.609375 C 108.25 -541.421875 94.519531 -513.347656 73.4375 -489.390625 C 52.351562 -465.441406 27.09375 -448.207031 -2.34375 -437.6875 C -31.789062 -427.164062 -62.609375 -425.09375 -94.796875 -431.46875 L -132.109375 -438.84375 C -138.679688 -440.144531 -144.8125 -438.890625 -150.5 -435.078125 C -156.195312 -431.265625 -159.695312 -426.066406 -161 -419.484375 C -162.300781 -412.898438 -161.046875 -406.757812 -157.234375 -401.0625 C -153.421875 -395.375 -148.226562 -391.878906 -141.65625 -390.578125 L -104.34375 -383.203125 C -71.425781 -376.691406 -43.316406 -363.148438 -20.015625 -342.578125 C 3.273438 -322.003906 20 -297.03125 30.15625 -267.65625 C 40.3125 -238.289062 42.128906 -207.148438 35.609375 -174.234375 C 29.390625 -142.773438 15.957031 -115.21875 -4.6875 -91.5625 C -25.332031 -67.90625 -50.375 -50.816406 -79.8125 -40.296875 C -109.257812 -29.785156 -140.441406 -27.785156 -173.359375 -34.296875 L -605.65625 -119.796875 C -638.570312 -126.304688 -666.457031 -139.992188 -689.3125 -160.859375 C -712.164062 -181.722656 -728.632812 -207.019531 -738.71875 -236.75 C -748.800781 -266.488281 -750.734375 -297.085938 -744.515625 -328.546875 C -737.992188 -361.460938 -724.445312 -389.566406 -703.875 -412.859375 C -683.300781 -436.148438 -658.515625 -452.90625 -629.515625 -463.125 C -600.515625 -473.351562 -569.554688 -475.210938 -536.640625 -468.703125 L -497.140625 -460.890625 C -491.285156 -459.734375 -485.507812 -461.0625 -479.8125 -464.875 C -474.113281 -468.695312 -470.613281 -473.898438 -469.3125 -480.484375 C -468.007812 -487.066406 -469.265625 -493.203125 -473.078125 -498.890625 C -476.898438 -504.578125 -481.738281 -508 -487.59375 -509.15625 L -527.09375 -516.96875 C -559.269531 -523.332031 -586.785156 -536.945312 -609.640625 -557.8125 C -632.503906 -578.6875 -649.125 -604.207031 -659.5 -634.375 C -669.875 -664.550781 -671.875 -695.734375 -665.5 -727.921875 C -659.132812 -760.097656 -645.484375 -787.796875 -624.546875 -811.015625 C -603.609375 -834.242188 -578.597656 -851.148438 -549.515625 -861.734375 C -520.441406 -872.328125 -489.816406 -874.441406 -457.640625 -868.078125 L -25.34375 -782.578125 C 6.84375 -776.203125 34.546875 -762.546875 57.765625 -741.609375 C 80.992188 -720.671875 97.867188 -695.476562 108.390625 -666.03125 C 118.910156 -636.59375 120.988281 -605.785156 114.625 -573.609375 Z M 114.625 -573.609375 "/></g></g></g></g></g><g transform="matrix(1, 0, 0, 1, 77, 638)"><g clip-path="url(#a347597707)"><g fill="#ffef42" fill-opacity="1"><g transform="translate(946.304908, 315.035829)"><g><path d="M -282.402344 1054.960938 C -343.007812 1071.660156 -402.640625 1071.417969 -461.308594 1054.230469 C -516.46875 1038.070312 -564.859375 1009.851562 -606.484375 969.566406 C -649.933594 927.511719 -679.664062 877.433594 -695.675781 819.335938 C -712.160156 759.511719 -712.351562 700.46875 -696.25 642.207031 C -680.71875 586 -652.890625 537.097656 -612.765625 495.496094 C -571.300781 452.503906 -520.757812 422.789062 -461.132812 406.359375 C -416.792969 394.140625 -373.730469 390.1875 -331.941406 394.5 C -327.808594 394.925781 -324.566406 395.078125 -322.203125 394.953125 C -322.777344 394.980469 -324.039062 395.265625 -325.984375 395.800781 C -339.167969 399.433594 -351.300781 405.597656 -362.382812 414.285156 C -373.195312 422.765625 -381.871094 432.757812 -388.40625 444.261719 C -394.941406 455.769531 -399.078125 468.339844 -400.820312 481.964844 C -402.609375 495.9375 -401.683594 509.511719 -398.050781 522.699219 C -393.945312 537.597656 -386.839844 551.140625 -376.726562 563.328125 C -367.15625 574.863281 -355.957031 583.902344 -343.125 590.4375 C -331.742188 596.234375 -319.53125 599.761719 -306.496094 601.011719 C -293.992188 602.214844 -281.914062 601.210938 -270.265625 598 C -268.320312 597.464844 -267.089844 597.0625 -266.582031 596.792969 C -268.675781 597.894531 -271.386719 599.6875 -274.714844 602.167969 C -308.394531 627.277344 -347.40625 645.941406 -391.746094 658.160156 C -452.832031 674.992188 -512.960938 674.4375 -572.132812 656.496094 C -627.132812 639.816406 -675.375 611.179688 -716.855469 570.582031 C -760.09375 528.265625 -789.878906 477.476562 -806.207031 418.222656 C -822.296875 359.835938 -822.289062 301.511719 -806.1875 243.25 C -790.921875 188.007812 -763.84375 139.429688 -724.945312 97.515625 C -683.359375 52.703125 -632.265625 21.945312 -571.664062 5.246094 L -415.316406 -37.835938 C -343.207031 -57.707031 -271.261719 -62 -199.476562 -50.710938 C -130.164062 -39.8125 -65.101562 -16.480469 -4.292969 19.289062 C 56.304688 54.9375 108.335938 100.296875 151.796875 155.371094 C 196.148438 211.570312 227.988281 274.734375 247.3125 344.859375 C 267.320312 417.46875 272.402344 489.472656 262.5625 560.875 C 252.871094 631.210938 230.46875 696.925781 195.351562 758.023438 C 160.5 818.667969 115.550781 871.003906 60.515625 915.03125 C 4.777344 959.621094 -58.566406 992.214844 -129.511719 1012.8125 Z M -360.40625 771.890625 L -211.382812 730.839844 C -177.773438 721.082031 -148.28125 706.050781 -122.902344 685.75 C -96.820312 664.886719 -75.59375 640.207031 -59.214844 611.710938 C -43.097656 583.667969 -32.792969 553.359375 -28.304688 520.789062 C -23.964844 489.285156 -26.449219 456.644531 -35.757812 422.863281 C -44.5625 390.914062 -58.871094 362.382812 -78.691406 337.265625 C -99.402344 311.023438 -124.226562 289.390625 -153.167969 272.367188 C -181.894531 255.46875 -212.53125 244.460938 -245.082031 239.34375 C -275.160156 234.613281 -305.90625 236.578125 -337.3125 245.230469 L -493.660156 288.316406 C -500.625 290.234375 -505.980469 293.210938 -509.71875 297.238281 C -516.140625 304.160156 -520.628906 312.234375 -523.175781 321.457031 C -524.890625 327.65625 -524.878906 333.910156 -523.136719 340.21875 C -520.847656 348.535156 -516.960938 355.375 -511.484375 360.734375 C -504.253906 367.8125 -496.066406 372.738281 -486.925781 375.511719 C -481.957031 377.015625 -476.230469 376.878906 -469.746094 375.089844 C -460.890625 372.648438 -454.378906 369.875 -450.203125 366.761719 C -416.519531 341.652344 -382.542969 324.378906 -348.269531 314.933594 C -325.117188 308.554688 -301.828125 306.488281 -278.398438 308.742188 C -254.441406 311.046875 -231.597656 317.730469 -209.863281 328.800781 C -186.6875 340.605469 -166.984375 356.289062 -150.753906 375.851562 C -133.984375 396.0625 -122.0625 419.011719 -114.984375 444.695312 C -108.183594 469.378906 -106.378906 494.21875 -109.574219 519.210938 C -112.726562 543.863281 -120.566406 567.214844 -133.089844 589.265625 C -145.613281 611.316406 -161.652344 630.011719 -181.210938 645.347656 C -201.039062 660.894531 -223.296875 672.066406 -247.980469 678.871094 C -282.253906 688.316406 -320.289062 690.882812 -362.078125 686.570312 C -367.253906 686.035156 -374.273438 686.988281 -383.128906 689.429688 C -391.074219 691.617188 -397.171875 694.917969 -401.425781 699.328125 C -407.019531 705.125 -410.957031 712.15625 -413.238281 720.414062 C -414.953125 726.613281 -414.742188 733.585938 -412.605469 741.332031 C -410.789062 747.929688 -407.347656 753.679688 -402.28125 758.582031 C -395.386719 765.257812 -387.546875 769.878906 -378.765625 772.453125 C -373.492188 773.996094 -367.371094 773.8125 -360.40625 771.890625 Z M -360.40625 771.890625 "/></g></g></g><g fill="#bd0000" fill-opacity="1"><g transform="translate(946.304908, 315.035829)"><g><path d="M -321.40625 913.421875 C -355.1875 922.734375 -388.0625 922.707031 -420.03125 913.34375 C -452 903.976562 -480.113281 887.550781 -504.375 864.0625 C -528.644531 840.582031 -545.234375 812.664062 -554.140625 780.3125 C -563.453125 746.53125 -563.648438 713.523438 -554.734375 681.296875 C -545.828125 649.066406 -529.941406 621.101562 -507.078125 597.40625 C -484.222656 573.707031 -455.90625 557.203125 -422.125 547.890625 C -395.53125 540.554688 -370.488281 538.097656 -347 540.515625 C -323.519531 542.941406 -303.515625 541.878906 -286.984375 537.328125 C -275.492188 534.160156 -266.75 527.300781 -260.75 516.75 C -254.757812 506.207031 -253.347656 495.1875 -256.515625 483.6875 C -259.492188 472.90625 -266.15625 464.878906 -276.5 459.609375 C -286.851562 454.347656 -297.773438 453.300781 -309.265625 456.46875 C -325.796875 461.019531 -343.523438 470.347656 -362.453125 484.453125 C -381.390625 498.566406 -404.15625 509.289062 -430.75 516.625 C -464.53125 525.9375 -497.453125 525.726562 -529.515625 516 C -561.585938 506.269531 -589.804688 489.484375 -614.171875 465.640625 C -638.535156 441.796875 -655.367188 412.984375 -664.671875 379.203125 C -673.585938 346.859375 -673.585938 314.570312 -664.671875 282.34375 C -655.765625 250.113281 -639.976562 221.789062 -617.3125 197.375 C -594.65625 172.957031 -566.4375 156.09375 -532.65625 146.78125 L -376.3125 103.703125 C -324.550781 89.429688 -273.207031 86.296875 -222.28125 94.296875 C -171.351562 102.304688 -123.503906 119.476562 -78.734375 145.8125 C -33.960938 172.15625 4.460938 205.65625 36.546875 246.3125 C 68.640625 286.976562 91.71875 332.828125 105.78125 383.859375 C 120.4375 437.054688 124.21875 489.378906 117.125 540.828125 C 110.03125 592.285156 93.675781 640.296875 68.0625 684.859375 C 42.457031 729.429688 9.375 767.941406 -31.1875 800.390625 C -71.75 832.835938 -118.171875 856.648438 -170.453125 871.828125 Z M -321.40625 913.421875 "/></g></g></g></g></g><g transform="matrix(1, 0, 0, 1, 2488, 241)"><g clip-path="url(#76c2c7a813)"><g fill="#ffef42" fill-opacity="1"><g transform="translate(212.933075, 969.869434)"><g><path d="M 681.355469 -835.101562 C 741.199219 -824.527344 793.347656 -799.851562 837.804688 -761.074219 C 880.425781 -723.890625 911.601562 -678.898438 931.324219 -626.089844 C 951.710938 -571.503906 956.730469 -514.917969 946.378906 -456.335938 C 936.144531 -398.390625 912.292969 -347.582031 874.832031 -303.914062 C 839.148438 -262.320312 795.683594 -231.292969 744.429688 -210.828125 C 689.628906 -188.945312 631.988281 -183.347656 571.503906 -194.03125 L 597.042969 -338.601562 L 741.722656 -313.679688 L 697.484375 -56.863281 C 687.023438 2.347656 662.535156 54.300781 624.023438 98.988281 C 587.027344 141.914062 542.238281 173.503906 489.65625 193.75 C 434.601562 214.949219 377.523438 220.328125 318.414062 209.882812 C 259.722656 199.515625 208.269531 174.800781 164.046875 135.75 C 121.898438 98.527344 91.066406 53.304688 71.546875 0.0898438 C 51.480469 -54.628906 46.59375 -111.125 56.890625 -169.402344 L 102.230469 -426.023438 L 246.800781 -400.484375 L 221.257812 -255.914062 C 161.832031 -266.410156 110.011719 -291.1875 65.789062 -330.242188 C 23.945312 -367.195312 -6.671875 -411.476562 -26.054688 -463.082031 C -46.285156 -516.941406 -51.28125 -572.84375 -41.042969 -630.789062 C -30.785156 -688.847656 -7.191406 -739.9375 29.746094 -784.058594 C 65.949219 -827.304688 110.332031 -859.234375 162.890625 -879.84375 C 217.816406 -901.378906 274.992188 -906.898438 334.417969 -896.398438 Z M 630.273438 -545.960938 L 283.332031 -607.257812 C 278.144531 -608.171875 273.726562 -607.917969 270.074219 -606.484375 C 264.0625 -604.128906 259 -600.496094 254.894531 -595.589844 C 251.523438 -591.558594 249.257812 -586.265625 248.097656 -579.707031 C 247.179688 -574.503906 247.417969 -570.046875 248.816406 -566.324219 C 251.058594 -560.347656 254.839844 -555.011719 260.152344 -550.320312 C 263.089844 -547.726562 267.152344 -545.96875 272.34375 -545.054688 L 416.914062 -519.511719 L 346.03125 -118.316406 C 344.910156 -111.976562 345.304688 -106.210938 347.210938 -101.011719 C 349.667969 -94.316406 353.398438 -88.753906 358.410156 -84.332031 C 361.347656 -81.734375 365.046875 -80.042969 369.5 -79.257812 C 375.007812 -78.285156 379.890625 -78.617188 384.148438 -80.257812 C 390.871094 -82.847656 396.691406 -86.992188 401.605469 -92.691406 C 404.996094 -96.628906 407.171875 -101.300781 408.128906 -106.707031 L 477.394531 -508.824219 L 622.585938 -483.171875 C 628.183594 -482.183594 632.503906 -482.296875 635.542969 -483.511719 C 642.132812 -486.140625 647.613281 -490.003906 651.980469 -495.09375 C 654.566406 -498.109375 656.320312 -502.21875 657.238281 -507.417969 C 658.304688 -513.449219 657.980469 -518.761719 656.265625 -523.355469 C 653.886719 -529.726562 650.0625 -535.210938 644.792969 -539.808594 C 641.355469 -542.808594 636.515625 -544.859375 630.273438 -545.960938 Z M 630.273438 -545.960938 "/></g></g></g><g fill="#bd0000" fill-opacity="1"><g transform="translate(212.933075, 969.869434)"><g><path d="M 655.8125 -690.546875 C 688.851562 -684.703125 717.347656 -671.332031 741.296875 -650.4375 C 765.242188 -629.550781 782.742188 -604.3125 793.796875 -574.71875 C 804.847656 -545.132812 807.519531 -514.1875 801.8125 -481.875 C 796.238281 -450.300781 783.4375 -422.84375 763.40625 -399.5 C 743.375 -376.164062 718.894531 -358.722656 689.96875 -347.171875 C 661.050781 -335.617188 630.070312 -332.757812 597.03125 -338.59375 L 552.796875 -81.78125 C 547.085938 -49.46875 533.753906 -21.15625 512.796875 3.15625 C 491.847656 27.46875 466.546875 45.332031 436.890625 56.75 C 407.234375 68.164062 376.253906 71.019531 343.953125 65.3125 C 312.378906 59.738281 284.800781 46.539062 261.21875 25.71875 C 237.644531 4.894531 220.363281 -20.492188 209.375 -50.453125 C 198.394531 -80.410156 195.757812 -111.546875 201.46875 -143.859375 L 246.796875 -400.484375 C 214.484375 -406.191406 186.535156 -419.457031 162.953125 -440.28125 C 139.378906 -461.101562 122.1875 -485.90625 111.375 -514.6875 C 100.5625 -543.476562 97.941406 -573.660156 103.515625 -605.234375 C 109.222656 -637.546875 122.15625 -665.738281 142.3125 -689.8125 C 162.46875 -713.894531 187.1875 -731.679688 216.46875 -743.171875 C 245.757812 -754.660156 276.5625 -757.550781 308.875 -751.84375 Z M 655.8125 -690.546875 "/></g></g></g></g></g><g transform="matrix(1, 0, 0, 1, 2840, 412)"><g clip-path="url(#189ba75ce3)"><g fill="#ffef42" fill-opacity="1"><g transform="translate(888.179746, 327.447648)"><g><path d="M 74.136719 1075.242188 C 23.25 1108.460938 -31.667969 1126.128906 -90.625 1128.246094 C -147.148438 1130.273438 -200.667969 1118.773438 -251.175781 1093.738281 C -303.382812 1067.863281 -345.746094 1030.015625 -378.265625 980.199219 C -410.429688 930.925781 -427.78125 877.550781 -430.320312 820.070312 C -432.742188 765.324219 -422.253906 712.957031 -398.863281 662.972656 C -373.855469 609.527344 -335.632812 566.015625 -284.199219 532.441406 L -203.949219 655.375 L -326.539062 736.152344 L -469.925781 518.542969 C -502.792969 468.195312 -520.460938 413.546875 -522.933594 354.605469 C -525.304688 297.984375 -514.238281 244.308594 -489.726562 193.570312 C -464.066406 140.453125 -426.101562 97.488281 -375.839844 64.679688 C -325.933594 32.097656 -271.492188 14.929688 -212.523438 13.175781 C -156.3125 11.5 -102.890625 23.398438 -52.253906 48.871094 C -0.191406 75.0625 42.015625 112.933594 74.363281 162.492188 L 216.8125 380.710938 L 93.878906 460.960938 L 13.628906 338.023438 C 64.160156 305.039062 118.914062 287.667969 177.882812 285.910156 C 233.6875 284.25 286.304688 295.609375 335.742188 320 C 387.339844 345.453125 429.222656 382.816406 461.386719 432.089844 C 493.613281 481.457031 511.34375 534.867188 514.578125 592.320312 C 517.746094 648.628906 507.207031 702.277344 482.960938 753.261719 C 457.625 806.542969 419.6875 849.671875 369.15625 882.660156 Z M -86.363281 829.371094 L 208.65625 636.789062 C 213.070312 633.910156 216.117188 630.699219 217.800781 627.160156 C 220.574219 621.324219 221.78125 615.214844 221.421875 608.824219 C 221.128906 603.582031 219.160156 598.167969 215.519531 592.589844 C 212.628906 588.167969 209.40625 585.078125 205.84375 583.320312 C 200.117188 580.496094 193.710938 579.1875 186.625 579.398438 C 182.707031 579.515625 178.539062 581.015625 174.128906 583.894531 L 51.191406 664.144531 L -171.507812 322.988281 C -175.023438 317.601562 -179.257812 313.660156 -184.203125 311.171875 C -190.574219 307.96875 -197.101562 306.464844 -203.78125 306.664062 C -207.699219 306.78125 -211.554688 308.074219 -215.339844 310.546875 C -220.023438 313.605469 -223.359375 317.1875 -225.34375 321.296875 C -228.476562 327.785156 -229.886719 334.789062 -229.570312 342.308594 C -229.355469 347.5 -227.746094 352.394531 -224.746094 356.992188 L -0.238281 697.71875 L -123.699219 778.3125 C -128.460938 781.417969 -131.535156 784.457031 -132.921875 787.417969 C -135.929688 793.847656 -137.285156 800.410156 -136.988281 807.113281 C -136.8125 811.082031 -135.28125 815.277344 -132.394531 819.703125 C -129.046875 824.828125 -125.175781 828.484375 -120.785156 830.660156 C -114.691406 833.679688 -108.148438 835.066406 -101.160156 834.816406 C -96.601562 834.652344 -91.667969 832.835938 -86.363281 829.371094 Z M -86.363281 829.371094 "/></g></g></g><g fill="#bd0000" fill-opacity="1"><g transform="translate(888.179746, 327.447648)"><g><path d="M -6.109375 952.3125 C -34.203125 970.644531 -64.128906 980.378906 -95.890625 981.515625 C -127.648438 982.660156 -157.675781 976.222656 -185.96875 962.203125 C -214.269531 948.179688 -237.390625 927.429688 -255.328125 899.953125 C -272.859375 873.109375 -282.296875 844.320312 -283.640625 813.59375 C -284.992188 782.863281 -279.070312 753.394531 -265.875 725.1875 C -252.6875 696.976562 -232.046875 673.703125 -203.953125 655.359375 L -347.328125 437.765625 C -365.265625 410.285156 -374.90625 380.507812 -376.25 348.4375 C -377.59375 316.375 -371.347656 286.035156 -357.515625 257.421875 C -343.691406 228.816406 -323.046875 205.550781 -295.578125 187.625 C -268.734375 170.09375 -239.585938 160.851562 -208.140625 159.90625 C -176.703125 158.96875 -146.734375 165.671875 -118.234375 180.015625 C -89.734375 194.359375 -66.515625 215.269531 -48.578125 242.75 L 93.875 460.953125 C 121.351562 443.015625 150.8125 433.578125 182.25 432.640625 C 213.695312 431.710938 243.207031 438.050781 270.78125 451.65625 C 298.363281 465.257812 320.921875 485.484375 338.453125 512.328125 C 356.390625 539.804688 366.238281 569.21875 368 600.5625 C 369.757812 631.914062 363.882812 661.796875 350.375 690.203125 C 336.875 718.617188 316.382812 741.796875 288.90625 759.734375 Z M -6.109375 952.3125 "/></g></g></g></g></g><g transform="matrix(1, 0, 0, 1, 1468, 498)"><g clip-path="url(#9ed157fb61)"><g fill="#ffef42" fill-opacity="1"><g transform="translate(331.0521, 607.574215)"><g><path d="M -87.484375 85.015625 C -90.039062 26.714844 -78.230469 -27.828125 -52.066406 -78.621094 C -26.035156 -129.148438 10.703125 -169.996094 58.148438 -201.164062 C 106.148438 -232.695312 158.96875 -250.042969 216.613281 -253.199219 L 711.351562 -281.265625 C 778.230469 -285.3125 839.148438 -270.835938 894.105469 -237.828125 C 945.441406 -207 985.539062 -165.683594 1014.402344 -113.878906 C 1043.597656 -61.480469 1057.40625 -5.105469 1055.824219 55.242188 C 1054.152344 119.144531 1033.242188 178.765625 993.09375 234.109375 L 699.550781 636.597656 C 666.429688 684.015625 622.609375 719.285156 568.089844 742.398438 C 516.847656 764.125 463.597656 772.46875 408.339844 767.433594 C 350.609375 762.171875 297.480469 741.839844 248.949219 706.4375 C 201.738281 671.199219 166.621094 627.382812 143.601562 574.988281 C 120.453125 522.300781 111.941406 467.652344 118.058594 411.042969 C 124.128906 354.898438 144.019531 303.230469 177.738281 256.035156 L 315.921875 66.554688 L 322.035156 60.015625 C 308.988281 73.96875 299.128906 89.941406 292.460938 107.941406 C 284.464844 129.523438 281.804688 151.738281 284.480469 174.585938 C 288.046875 205.023438 300.003906 231.335938 320.351562 253.53125 C 332.683594 266.980469 347.148438 277.660156 363.742188 285.574219 C 384.710938 295.570312 406.808594 300.183594 430.039062 299.402344 C 449.304688 298.757812 467.625 294.402344 485 286.335938 C 495.917969 281.265625 505.925781 274.945312 515.019531 267.371094 L 421.0625 154.566406 L 519.363281 263.605469 L 385.765625 384.050781 L 254.945312 392.523438 C 194.601562 395.1875 139.03125 383.4375 88.242188 357.269531 C 37.714844 331.238281 -3.132812 294.5 -34.300781 247.058594 C -65.273438 199.910156 -82.914062 147.386719 -87.222656 89.484375 L -87.386719 87.253906 Z M 205.851562 72.171875 L 59.183594 78.59375 L 205.589844 67.703125 C 206.132812 75.035156 207.96875 81.078125 211.097656 85.839844 C 214.03125 90.304688 217.902344 93.777344 222.714844 96.253906 C 227.261719 98.597656 231.679688 99.6875 235.964844 99.519531 L 315.867188 94.34375 L 325.355469 240.84375 L 227.054688 131.804688 L 324.894531 43.601562 L 327.101562 41.761719 C 354.367188 19.050781 385.402344 7.113281 420.214844 5.949219 C 444.691406 5.128906 467.988281 9.992188 490.105469 20.535156 C 507.839844 28.992188 523.394531 40.511719 536.765625 55.097656 C 559.195312 79.554688 572.308594 108 576.105469 140.429688 C 578.898438 164.277344 576.125 187.457031 567.785156 209.964844 C 560.769531 228.890625 550.335938 245.761719 536.484375 260.574219 L 429.261719 160.296875 L 547.875 246.804688 L 416.648438 426.722656 C 412.753906 432.171875 410.53125 437.460938 409.976562 442.597656 C 409.472656 447.265625 410.289062 452.027344 412.421875 456.882812 C 414.683594 462.027344 417.871094 466.144531 421.988281 469.226562 C 426.808594 472.742188 431.144531 474.675781 434.992188 475.027344 C 441.3125 475.601562 447.472656 474.617188 453.472656 472.074219 C 456.195312 470.917969 459.144531 468.089844 462.320312 463.578125 L 755.425781 61.699219 C 759.929688 55.492188 762.222656 50.777344 762.308594 47.558594 C 762.484375 40.785156 761.019531 34.613281 757.910156 29.035156 C 754.472656 22.867188 749.480469 17.816406 742.933594 13.882812 C 740.007812 12.125 735.023438 11.457031 727.980469 11.882812 L 232.675781 39.980469 C 227.707031 40.25 223.269531 41.671875 219.363281 44.238281 C 214.898438 47.167969 211.429688 51.042969 208.949219 55.851562 C 206.609375 60.398438 205.574219 65.839844 205.851562 72.171875 Z M 205.851562 72.171875 "/></g></g></g><g fill="#bd0000" fill-opacity="1"><g transform="translate(331.0521, 607.574215)"><g><path d="M 59.1875 78.59375 C 57.78125 46.269531 64.203125 16.273438 78.453125 -11.390625 C 92.703125 -39.054688 112.800781 -61.410156 138.75 -78.453125 C 164.707031 -95.503906 193.335938 -104.890625 224.640625 -106.609375 L 719.65625 -134.6875 C 756.613281 -136.925781 789.5625 -129.351562 818.5 -111.96875 C 847.4375 -94.582031 869.976562 -71.394531 886.125 -42.40625 C 902.28125 -13.425781 909.921875 17.84375 909.046875 51.40625 C 908.171875 84.96875 896.570312 117.132812 874.25 147.90625 L 580.921875 550.078125 C 562.773438 576.035156 539.390625 595.082031 510.765625 607.21875 C 482.148438 619.351562 452.445312 624.015625 421.65625 621.203125 C 390.875 618.398438 362.144531 607.273438 335.46875 587.828125 C 309.789062 568.671875 290.632812 544.707031 278 515.9375 C 265.363281 487.164062 260.695312 457.460938 264 426.828125 C 267.3125 396.191406 278.375 367.703125 297.1875 341.359375 L 429.25 160.3125 C 430.863281 158.570312 430.628906 156.570312 428.546875 154.3125 C 426.472656 152.050781 423.976562 152.132812 421.0625 154.5625 L 325.34375 240.84375 L 245.453125 246.015625 C 213.128906 247.441406 183.132812 241.023438 155.46875 226.765625 C 127.800781 212.503906 105.441406 192.398438 88.390625 166.453125 C 71.335938 140.503906 61.601562 111.21875 59.1875 78.59375 Z M 59.1875 78.59375 "/></g></g></g></g></g></svg>