<svg xmlns="http://www.w3.org/2000/svg" xmlns:xlink="http://www.w3.org/1999/xlink" width="6912" zoomAndPan="magnify" viewBox="0 0 5184 2592.000001" height="3456" preserveAspectRatio="xMidYMid meet" version="1.0"><defs><g/><clipPath id="df348aa72d"><rect x="0" width="3796" y="0" height="1436"/></clipPath><clipPath id="2121dd0c5b"><rect x="0" width="1316" y="0" height="1414"/></clipPath></defs><g transform="matrix(1, 0, 0, 1, 1164, 737)"><g clip-path="url(#df348aa72d)"><g fill="#ffef42" fill-opacity="1"><g transform="translate(252.860936, 1020.451321)"><g><path d="M 551.539062 96.074219 C 496.785156 100.203125 445.074219 90.476562 396.40625 66.898438 C 348.632812 43.753906 309.632812 10.722656 279.40625 -32.191406 C 248.277344 -76.394531 230.625 -126.164062 226.453125 -181.503906 L 223.800781 -216.6875 C 224.941406 -201.574219 229.003906 -187.175781 235.996094 -173.492188 C 242.796875 -160.179688 251.761719 -148.738281 262.890625 -139.167969 C 274.019531 -129.601562 286.675781 -122.453125 300.859375 -117.722656 C 315.433594 -112.863281 330.277344 -111.003906 345.390625 -112.140625 C 360.507812 -113.28125 374.90625 -117.347656 388.585938 -124.335938 C 401.898438 -131.136719 413.339844 -140.101562 422.910156 -151.230469 C 432.480469 -162.359375 439.628906 -175.015625 444.355469 -189.199219 C 449.21875 -203.773438 451.078125 -218.617188 449.9375 -233.734375 L 452.589844 -198.546875 C 456.777344 -143.019531 447.1875 -91.253906 423.832031 -43.25 C 400.761719 4.167969 367.511719 42.835938 324.089844 72.753906 C 280.128906 103.042969 230.382812 120.28125 174.855469 124.46875 C 121 128.527344 69.996094 119.019531 21.84375 95.945312 C -25.792969 73.121094 -64.78125 40.164062 -95.128906 -2.921875 C -126.257812 -47.121094 -143.9375 -97.238281 -148.160156 -153.265625 L -178.890625 -560.992188 C -183.136719 -617.324219 -173.035156 -669.601562 -148.578125 -717.824219 C -125.015625 -764.292969 -91.515625 -802.300781 -48.089844 -831.839844 C -3.941406 -861.871094 45.0625 -878.914062 98.917969 -882.976562 C 154.445312 -887.160156 206.210938 -877.574219 254.21875 -854.214844 C 301.367188 -831.273438 339.867188 -798.425781 369.710938 -755.675781 C 400.265625 -711.898438 417.648438 -662.101562 421.855469 -606.277344 L 424.664062 -569.023438 C 423.414062 -585.628906 418.816406 -601.265625 410.867188 -615.925781 C 404.214844 -628.203125 395.757812 -638.753906 385.496094 -647.574219 C 374.367188 -657.144531 361.710938 -664.292969 347.53125 -669.019531 C 332.957031 -673.882812 318.109375 -675.742188 302.996094 -674.601562 C 287.882812 -673.464844 273.484375 -669.398438 259.800781 -662.410156 C 246.488281 -655.605469 235.046875 -646.640625 225.476562 -635.511719 C 216.65625 -625.253906 209.875 -613.554688 205.136719 -600.417969 C 199.480469 -584.734375 197.277344 -568.585938 198.527344 -551.976562 L 195.71875 -589.230469 C 191.527344 -644.871094 201.65625 -696.800781 226.113281 -745.027344 C 249.582031 -791.308594 283.078125 -829.390625 326.597656 -859.265625 C 371.179688 -889.875 420.847656 -907.242188 475.601562 -911.367188 C 530.941406 -915.539062 582.792969 -905.546875 631.164062 -881.394531 C 677.339844 -858.335938 715.332031 -825.917969 745.136719 -784.148438 C 776.546875 -740.136719 794.34375 -690.308594 798.539062 -634.667969 L 829.273438 -226.941406 C 833.445312 -171.601562 823.453125 -119.75 799.296875 -71.378906 C 776.105469 -24.9375 743.289062 13.230469 700.847656 43.121094 C 656.648438 74.25 606.878906 91.902344 551.539062 96.074219 Z M 531.0625 -175.59375 C 536.433594 -176 540.738281 -177.339844 543.972656 -179.621094 C 548.96875 -183.136719 552.828125 -187.628906 555.558594 -193.097656 C 557.328125 -196.636719 558.007812 -201.089844 557.601562 -206.464844 L 526.871094 -614.191406 C 526.488281 -619.261719 525.320312 -623.164062 523.371094 -625.898438 C 519.820312 -630.871094 515.179688 -634.792969 509.445312 -637.652344 C 505.90625 -639.421875 501.453125 -640.101562 496.078125 -639.699219 C 490.125 -639.25 485.027344 -637.570312 480.792969 -634.664062 C 475.496094 -631.027344 471.597656 -626.742188 469.09375 -621.808594 C 467.574219 -618.8125 467.007812 -614.777344 467.390625 -609.707031 L 470.199219 -572.453125 C 471.867188 -550.324219 468.9375 -528.832031 461.414062 -507.976562 C 454.8125 -489.671875 445.027344 -472.976562 432.058594 -457.894531 C 418.34375 -441.941406 402.238281 -429.242188 383.746094 -419.796875 C 364.890625 -410.160156 344.796875 -404.539062 323.472656 -402.933594 C 302.148438 -401.324219 281.441406 -403.871094 261.351562 -410.570312 C 241.65625 -417.136719 223.828125 -427.28125 207.878906 -440.996094 C 192.796875 -453.964844 180.617188 -469.003906 171.34375 -486.113281 C 160.78125 -505.605469 154.664062 -526.417969 152.996094 -548.542969 L 150.1875 -585.796875 C 149.714844 -592.066406 148.421875 -596.710938 146.3125 -599.734375 C 143.488281 -603.777344 139.722656 -606.945312 135.019531 -609.234375 C 131.167969 -611.109375 125.960938 -611.800781 119.398438 -611.304688 C 113.921875 -610.890625 109.171875 -609.316406 105.140625 -606.574219 C 100.390625 -603.34375 96.8125 -599.355469 94.402344 -594.605469 C 92.886719 -591.609375 92.34375 -587.230469 92.777344 -581.472656 L 123.511719 -173.742188 C 123.96875 -167.679688 125.335938 -163.03125 127.613281 -159.796875 C 130.675781 -155.449219 134.664062 -152.09375 139.574219 -149.742188 C 143.96875 -147.636719 148.90625 -146.789062 154.378906 -147.203125 C 160.941406 -147.695312 165.988281 -149.160156 169.515625 -151.589844 C 173.578125 -154.390625 176.691406 -158.011719 178.851562 -162.449219 C 180.726562 -166.300781 181.414062 -171.507812 180.921875 -178.070312 L 178.269531 -213.253906 C 176.660156 -234.578125 179.207031 -255.285156 185.90625 -275.375 C 192.472656 -295.074219 202.617188 -312.898438 216.332031 -328.851562 C 230.046875 -344.804688 246.148438 -357.5 264.640625 -366.949219 C 283.5 -376.582031 303.589844 -382.203125 324.914062 -383.8125 C 346.238281 -385.417969 366.945312 -382.875 387.035156 -376.175781 C 406.734375 -369.605469 424.558594 -359.464844 440.511719 -345.75 C 456.460938 -332.035156 469.160156 -315.929688 478.609375 -297.441406 C 488.242188 -278.582031 493.863281 -258.488281 495.472656 -237.164062 L 498.125 -201.980469 C 498.527344 -196.609375 499.871094 -192.304688 502.148438 -189.070312 C 505.332031 -184.546875 509.679688 -180.953125 515.195312 -178.28125 C 519.816406 -176.042969 525.105469 -175.144531 531.0625 -175.59375 Z M 531.0625 -175.59375 "/></g></g></g><g fill="#ffef42" fill-opacity="1"><g transform="translate(954.103139, 966.370852)"><g><path d="M 31.886719 108.605469 C -17.0625 85.457031 -56.710938 52.152344 -87.0625 8.683594 C -117.257812 -34.554688 -134.871094 -82.390625 -139.90625 -134.820312 C -145 -187.867188 -136.363281 -238.726562 -113.996094 -287.398438 L 77.195312 -705.554688 C 102.828125 -762.191406 141.085938 -805.914062 191.96875 -836.722656 C 239.5 -865.5 290.769531 -880.515625 345.78125 -881.773438 C 401.417969 -883.042969 453.660156 -869.964844 502.503906 -842.539062 C 554.21875 -813.496094 594.09375 -770.519531 622.125 -713.609375 L 825.320312 -298.4375 C 849.894531 -250.726562 859.863281 -199.492188 855.226562 -144.742188 C 850.867188 -93.285156 834.660156 -45.972656 806.597656 -2.808594 C 777.285156 42.289062 737.59375 77.089844 687.527344 101.585938 C 638.167969 125.070312 587.003906 134.917969 534.039062 131.121094 C 480.78125 127.304688 432.246094 110.628906 388.4375 81.09375 C 344.992188 51.804688 311.203125 13.109375 287.074219 -34.996094 L 191.410156 -230.441406 L 188.691406 -238.289062 C 194.492188 -221.542969 203.332031 -206.535156 215.214844 -193.265625 C 229.464844 -177.359375 246.542969 -165.558594 266.453125 -157.863281 C 292.972656 -147.609375 319.746094 -146.027344 346.769531 -153.117188 C 363.148438 -157.414062 378.175781 -164.660156 391.851562 -174.851562 C 409.136719 -187.730469 422.488281 -203.871094 431.910156 -223.265625 C 439.722656 -239.355469 444.078125 -256.277344 444.984375 -274.027344 C 445.550781 -285.183594 444.695312 -296.136719 442.417969 -306.878906 L 309.160156 -278.617188 L 441.207031 -312.074219 L 482.203125 -150.285156 L 432.515625 -39.257812 C 408.570312 11.417969 374.867188 51.929688 331.402344 82.28125 C 288.160156 112.476562 240.324219 130.089844 187.894531 135.125 C 135.792969 140.128906 85.050781 131.859375 35.667969 110.324219 L 33.765625 109.496094 Z M 148.359375 -137.683594 L 90.125 -14.539062 L 144.578125 -139.398438 C 150.832031 -136.671875 156.585938 -135.5625 161.851562 -136.066406 C 166.78125 -136.542969 171.308594 -138.214844 175.425781 -141.089844 C 179.316406 -143.808594 182.121094 -146.960938 183.839844 -150.550781 L 214.191406 -218.363281 L 338.527344 -162.71875 L 206.480469 -129.257812 L 176.457031 -247.742188 L 175.902344 -250.351562 C 169.074219 -282.558594 172.714844 -313.199219 186.832031 -342.273438 C 196.761719 -362.714844 210.835938 -379.726562 229.066406 -393.308594 C 243.6875 -404.203125 259.875 -411.980469 277.632812 -416.640625 C 307.414062 -424.453125 336.4375 -422.898438 364.695312 -411.972656 C 385.472656 -403.9375 403.292969 -391.625 418.152344 -375.035156 C 430.652344 -361.085938 439.976562 -345.21875 446.136719 -327.433594 L 317.414062 -282.863281 L 439.765625 -342.746094 L 530.59375 -157.148438 C 533.378906 -151.597656 536.757812 -147.480469 540.734375 -144.804688 C 544.347656 -142.367188 548.605469 -140.972656 553.515625 -140.621094 C 558.71875 -140.25 563.476562 -141.085938 567.785156 -143.132812 C 572.761719 -145.5625 576.222656 -148.285156 578.175781 -151.289062 C 581.386719 -156.226562 583.246094 -161.710938 583.757812 -167.734375 C 583.988281 -170.46875 582.941406 -174.117188 580.617188 -178.675781 L 377.730469 -593.222656 C 374.585938 -599.605469 371.710938 -603.527344 369.105469 -604.992188 C 363.625 -608.066406 357.921875 -609.539062 352 -609.402344 C 345.449219 -609.253906 339.140625 -607.34375 333.078125 -603.671875 C 330.367188 -602.03125 327.664062 -598.230469 324.964844 -592.269531 L 133.554688 -173.632812 C 131.628906 -169.441406 130.871094 -165.183594 131.285156 -160.863281 C 131.761719 -155.933594 133.433594 -151.40625 136.308594 -147.289062 C 139.027344 -143.398438 143.042969 -140.195312 148.359375 -137.683594 Z M 148.359375 -137.683594 "/></g></g></g><g fill="#ffef42" fill-opacity="1"><g transform="translate(1528.257817, 956.477947)"><g><path d="M 519.621094 -854.460938 C 575.964844 -852.382812 627.042969 -836.359375 672.847656 -806.394531 C 716.769531 -777.660156 751.160156 -740.289062 776.027344 -694.273438 C 801.730469 -646.707031 813.566406 -595.34375 811.53125 -540.179688 C 809.515625 -485.617188 794.082031 -435.878906 765.226562 -390.964844 C 737.742188 -348.1875 701.753906 -314.121094 657.261719 -288.773438 C 609.691406 -261.664062 557.425781 -249.164062 500.476562 -251.265625 L 505.5 -387.394531 L 641.644531 -382.953125 L 633.765625 -141.277344 C 631.710938 -85.523438 615.835938 -34.65625 586.140625 11.332031 C 557.621094 55.507812 520.488281 90.253906 474.746094 115.574219 C 426.855469 142.082031 375.082031 154.308594 319.425781 152.253906 C 264.164062 150.214844 213.71875 134.070312 168.09375 103.824219 C 124.605469 74.992188 90.496094 37.367188 65.765625 -9.050781 C 40.339844 -56.777344 28.640625 -108.074219 30.664062 -162.949219 L 39.582031 -404.585938 L 175.710938 -399.5625 L 170.6875 -263.433594 C 114.730469 -265.5 63.941406 -281.65625 18.316406 -311.90625 C -24.859375 -340.527344 -58.644531 -377.316406 -83.046875 -422.269531 C -108.515625 -469.1875 -120.242188 -519.929688 -118.226562 -574.492188 C -116.210938 -629.15625 -101.042969 -679.121094 -72.726562 -724.386719 C -44.976562 -768.753906 -8.261719 -803.761719 37.414062 -829.410156 C 85.144531 -856.210938 136.988281 -868.582031 192.941406 -866.515625 Z M 509.574219 -582.207031 L 182.894531 -594.261719 C 178.007812 -594.441406 173.980469 -593.640625 170.808594 -591.859375 C 165.582031 -588.925781 161.394531 -584.941406 158.246094 -579.90625 C 155.660156 -575.773438 154.253906 -570.621094 154.027344 -564.445312 C 153.847656 -559.546875 154.636719 -555.476562 156.394531 -552.238281 C 159.21875 -547.03125 163.375 -542.609375 168.855469 -538.976562 C 171.886719 -536.964844 175.847656 -535.871094 180.734375 -535.691406 L 316.859375 -530.667969 L 302.921875 -152.902344 C 302.699219 -146.933594 303.796875 -141.683594 306.214844 -137.148438 C 309.324219 -131.308594 313.464844 -126.675781 318.632812 -123.246094 C 321.664062 -121.238281 325.277344 -120.15625 329.472656 -120 C 334.660156 -119.808594 339.105469 -120.738281 342.808594 -122.789062 C 348.65625 -126.027344 353.476562 -130.578125 357.265625 -136.445312 C 359.878906 -140.496094 361.28125 -145.066406 361.472656 -150.15625 L 373.808594 -528.566406 L 510.523438 -523.519531 C 515.792969 -523.324219 519.75 -523.980469 522.386719 -525.484375 C 528.109375 -528.742188 532.648438 -532.992188 536.015625 -538.226562 C 538.007812 -541.332031 539.09375 -545.328125 539.273438 -550.226562 C 539.484375 -555.90625 538.507812 -560.746094 536.34375 -564.75 C 533.34375 -570.300781 529.128906 -574.851562 523.699219 -578.40625 C 520.160156 -580.722656 515.449219 -581.988281 509.574219 -582.207031 Z M 509.574219 -582.207031 "/></g></g></g><g fill="#ffef42" fill-opacity="1"><g transform="translate(2163.188149, 978.894969)"><g><path d="M 567.714844 -823.292969 C 623.847656 -817.988281 673.925781 -799.066406 717.9375 -766.523438 C 760.140625 -735.324219 792.335938 -696.042969 814.523438 -648.675781 C 837.460938 -599.714844 846.335938 -547.757812 841.140625 -492.804688 C 836.007812 -438.449219 817.746094 -389.675781 786.363281 -346.488281 C 756.476562 -305.351562 718.59375 -273.40625 672.726562 -250.644531 C 623.679688 -226.308594 570.785156 -216.820312 514.046875 -222.183594 L 526.859375 -357.800781 L 662.53125 -345.566406 L 640.820312 -104.742188 C 635.570312 -49.195312 616.808594 0.679688 584.53125 44.890625 C 553.527344 87.359375 514.464844 119.921875 467.34375 142.578125 C 418.015625 166.300781 365.628906 175.542969 310.179688 170.304688 C 255.125 165.101562 205.6875 146.09375 161.871094 113.28125 C 120.105469 82.007812 88.207031 42.492188 66.175781 -5.269531 C 43.527344 -54.371094 34.785156 -106.257812 39.949219 -160.925781 L 62.695312 -401.65625 L 198.308594 -388.839844 L 185.496094 -253.226562 C 129.753906 -258.492188 79.972656 -277.53125 36.152344 -310.34375 C -5.3125 -341.394531 -36.933594 -380.054688 -58.71875 -426.332031 C -81.457031 -474.632812 -90.261719 -525.964844 -85.125 -580.320312 C -79.980469 -634.777344 -61.976562 -683.792969 -31.113281 -727.363281 C -0.863281 -770.066406 37.792969 -802.914062 84.863281 -825.902344 C 134.050781 -849.929688 186.519531 -859.308594 242.261719 -854.039062 Z M 542.085938 -552.058594 L 216.636719 -582.808594 C 211.769531 -583.269531 207.699219 -582.699219 204.433594 -581.101562 C 199.046875 -578.472656 194.636719 -574.734375 191.207031 -569.890625 C 188.390625 -565.914062 186.691406 -560.847656 186.109375 -554.691406 C 185.648438 -549.8125 186.203125 -545.707031 187.773438 -542.371094 C 190.296875 -537.011719 194.191406 -532.359375 199.453125 -528.417969 C 202.367188 -526.238281 206.253906 -524.917969 211.125 -524.457031 L 346.738281 -511.644531 L 311.183594 -135.296875 C 310.621094 -129.351562 311.414062 -124.046875 313.566406 -119.382812 C 316.339844 -113.371094 320.207031 -108.507812 325.171875 -104.792969 C 328.082031 -102.613281 331.628906 -101.324219 335.808594 -100.929688 C 340.972656 -100.441406 345.464844 -101.113281 349.277344 -102.949219 C 355.304688 -105.847656 360.375 -110.117188 364.492188 -115.753906 C 367.335938 -119.648438 369 -124.132812 369.480469 -129.203125 L 403.472656 -506.285156 L 539.671875 -493.414062 C 544.925781 -492.917969 548.910156 -493.347656 551.632812 -494.695312 C 557.53125 -497.621094 562.308594 -501.601562 565.96875 -506.636719 C 568.132812 -509.621094 569.449219 -513.550781 569.910156 -518.429688 C 570.445312 -524.089844 569.746094 -528.976562 567.816406 -533.097656 C 565.140625 -538.8125 561.191406 -543.597656 555.976562 -547.453125 C 552.570312 -549.972656 547.941406 -551.503906 542.085938 -552.058594 Z M 542.085938 -552.058594 "/></g></g></g><g fill="#ffef42" fill-opacity="1"><g transform="translate(2806.400405, 1038.080018)"><g><path d="M 448.089844 -725.480469 C 492.816406 -759.226562 541.773438 -778.898438 594.960938 -784.496094 C 646.941406 -789.96875 697.035156 -782.179688 745.242188 -761.132812 C 795.4375 -739.21875 836.445312 -704.914062 868.269531 -658.21875 L 755.703125 -581.503906 L 865.738281 -661.808594 C 898.035156 -617.554688 916.484375 -568.207031 921.082031 -513.769531 C 925.417969 -462.464844 917.695312 -413.230469 897.921875 -366.0625 C 877.585938 -317.566406 846.105469 -276.683594 803.480469 -243.414062 L 638.265625 -120.039062 L 556.777344 -229.195312 L 691.363281 -208.171875 L 668.945312 -64.625 C 660.378906 -9.792969 638.820312 38.414062 604.269531 79.996094 C 570.90625 120.148438 529.820312 149.894531 481.015625 169.242188 C 430.753906 189.164062 378.351562 194.867188 323.816406 186.347656 C 269.960938 177.9375 222.136719 156.582031 180.34375 122.277344 C 139.761719 88.972656 109.703125 48.109375 90.175781 -0.300781 C 69.949219 -50.441406 64.117188 -102.925781 72.683594 -157.753906 L 95.101562 -301.304688 L 229.691406 -280.28125 L 118.796875 -201.175781 L 0.746094 -366.664062 C -30.820312 -412.941406 -48.890625 -462.273438 -53.464844 -514.660156 C -57.917969 -565.613281 -50.257812 -614.859375 -30.484375 -662.394531 C -9.503906 -712.839844 23.113281 -754.207031 67.371094 -786.507812 L 147.675781 -676.472656 L 63.863281 -783.859375 C 108.289062 -818.53125 157.496094 -838.710938 211.480469 -844.390625 C 263.765625 -849.894531 313.777344 -842.046875 361.519531 -820.84375 C 410.683594 -799.011719 451.089844 -764.875 482.738281 -718.4375 L 370.175781 -641.722656 L 480.710938 -721.332031 L 548.898438 -626.652344 L 438.363281 -547.042969 L 355.972656 -655.519531 L 447.738281 -725.214844 Z M 612.519531 -508.257812 L 409.488281 -354.050781 L 258.605469 -563.546875 L 257.609375 -565.007812 C 255.078125 -568.722656 252.855469 -571.003906 250.945312 -571.851562 C 247.609375 -573.335938 243.960938 -573.867188 240.003906 -573.449219 C 237.746094 -573.210938 234.90625 -571.757812 231.484375 -569.085938 L 229.753906 -567.734375 L 227.976562 -566.441406 C 224.8125 -564.132812 222.507812 -561.238281 221.0625 -557.765625 C 218.410156 -551.386719 217.367188 -544.917969 217.941406 -538.367188 C 218.386719 -533.253906 219.917969 -528.753906 222.535156 -524.878906 L 372.855469 -314.15625 L 341.859375 -115.710938 C 341.027344 -110.390625 341.351562 -105.894531 342.832031 -102.222656 C 345.007812 -96.828125 348.460938 -92.191406 353.1875 -88.3125 C 356.703125 -85.425781 360.925781 -83.597656 365.859375 -82.828125 C 371.472656 -81.953125 376.394531 -82.351562 380.625 -84.027344 C 386.308594 -86.28125 391.007812 -89.644531 394.726562 -94.117188 C 397.257812 -97.160156 398.9375 -101.34375 399.765625 -106.667969 L 430.761719 -305.113281 L 635.859375 -458.1875 C 641.082031 -462.261719 644.683594 -466.667969 646.667969 -471.40625 C 649.210938 -477.46875 650.191406 -483.945312 649.609375 -490.832031 C 649.292969 -494.578125 647.980469 -498.035156 645.671875 -501.199219 L 644.375 -502.976562 L 643.140625 -504.789062 C 640.78125 -508.25 638.480469 -510.46875 636.230469 -511.453125 C 631.996094 -513.300781 627.746094 -514 623.480469 -513.550781 C 620.425781 -513.230469 616.65625 -511.378906 612.167969 -507.992188 Z M 612.519531 -508.257812 "/></g></g></g><g fill="#bd0000" fill-opacity="1"><g transform="translate(252.860936, 1020.451321)"><g><path d="M 541.296875 -39.75 C 510.941406 -37.46875 482.441406 -42.78125 455.796875 -55.6875 C 429.148438 -68.59375 407.472656 -86.90625 390.765625 -110.625 C 374.066406 -134.351562 364.570312 -161.390625 362.28125 -191.734375 L 359.640625 -226.921875 C 359.171875 -233.128906 356.523438 -238.304688 351.703125 -242.453125 C 346.878906 -246.597656 341.363281 -248.4375 335.15625 -247.96875 C 328.945312 -247.5 323.769531 -244.851562 319.625 -240.03125 C 315.476562 -235.207031 313.640625 -229.691406 314.109375 -223.484375 L 316.75 -188.296875 C 319.09375 -157.253906 313.953125 -128.769531 301.328125 -102.84375 C 288.710938 -76.914062 270.535156 -55.769531 246.796875 -39.40625 C 223.054688 -23.050781 195.660156 -13.707031 164.609375 -11.375 C 134.941406 -9.132812 106.972656 -14.304688 80.703125 -26.890625 C 54.429688 -39.484375 32.941406 -57.640625 16.234375 -81.359375 C -0.460938 -105.078125 -9.984375 -132.457031 -12.328125 -163.5 L -43.046875 -571.234375 C -45.390625 -602.273438 -40.066406 -630.597656 -27.078125 -656.203125 C -14.085938 -681.816406 4.445312 -702.816406 28.53125 -719.203125 C 52.613281 -735.585938 79.488281 -744.898438 109.15625 -747.140625 C 140.207031 -749.472656 168.695312 -744.332031 194.625 -731.71875 C 220.550781 -719.101562 241.679688 -701.09375 258.015625 -677.6875 C 274.347656 -654.289062 283.6875 -627.070312 286.03125 -596.03125 L 288.828125 -558.78125 C 289.242188 -553.25 291.863281 -548.410156 296.6875 -544.265625 C 301.507812 -540.128906 307.023438 -538.296875 313.234375 -538.765625 C 319.441406 -539.234375 324.617188 -541.875 328.765625 -546.6875 C 332.910156 -551.507812 334.773438 -556.6875 334.359375 -562.21875 L 331.5625 -599.46875 C 329.269531 -629.820312 334.617188 -657.800781 347.609375 -683.40625 C 360.597656 -709.007812 379.296875 -730.191406 403.703125 -746.953125 C 428.109375 -763.710938 455.488281 -773.234375 485.84375 -775.515625 C 516.195312 -777.804688 544.351562 -772.46875 570.3125 -759.5 C 596.269531 -746.539062 617.582031 -728.375 634.25 -705 C 650.925781 -681.632812 660.410156 -654.773438 662.703125 -624.421875 L 693.421875 -216.6875 C 695.710938 -186.34375 690.378906 -158.191406 677.421875 -132.234375 C 664.460938 -106.273438 646.125 -84.941406 622.40625 -68.234375 C 598.6875 -51.535156 571.648438 -42.039062 541.296875 -39.75 Z M 541.296875 -39.75 "/></g></g></g><g fill="#bd0000" fill-opacity="1"><g transform="translate(954.103139, 966.370852)"><g><path d="M 90.125 -14.53125 C 62.988281 -27.363281 41.148438 -45.617188 24.609375 -69.296875 C 8.078125 -92.972656 -1.5625 -119.148438 -4.3125 -147.828125 C -7.070312 -176.515625 -2.375 -204.078125 9.78125 -230.515625 L 201.078125 -648.90625 C 215.242188 -680.207031 235.722656 -703.96875 262.515625 -720.1875 C 289.304688 -736.40625 318.09375 -744.867188 348.875 -745.578125 C 379.664062 -746.285156 408.640625 -739.015625 435.796875 -723.765625 C 462.960938 -708.515625 484.335938 -685.066406 499.921875 -653.421875 L 702.96875 -238.5625 C 716.40625 -212.414062 721.90625 -184.96875 719.46875 -156.21875 C 717.039062 -127.476562 708.007812 -101.082031 692.375 -77.03125 C 676.75 -52.988281 655.175781 -34.234375 627.65625 -20.765625 C 600.820312 -8.003906 572.859375 -2.664062 543.765625 -4.75 C 514.679688 -6.832031 488.285156 -15.863281 464.578125 -31.84375 C 440.867188 -47.832031 422.285156 -69.242188 408.828125 -96.078125 L 317.40625 -282.859375 C 316.6875 -284.929688 314.945312 -285.601562 312.1875 -284.875 C 309.425781 -284.15625 308.414062 -282.070312 309.15625 -278.625 L 338.515625 -162.71875 L 308.171875 -94.921875 C 295.347656 -67.773438 277.09375 -45.9375 253.40625 -29.40625 C 229.726562 -12.875 203.546875 -3.226562 174.859375 -0.46875 C 146.179688 2.28125 117.9375 -2.40625 90.125 -14.53125 Z M 90.125 -14.53125 "/></g></g></g><g fill="#bd0000" fill-opacity="1"><g transform="translate(1528.257817, 956.477947)"><g><path d="M 514.578125 -718.34375 C 545.691406 -717.195312 573.585938 -708.550781 598.265625 -692.40625 C 622.941406 -676.257812 642.242188 -655.296875 656.171875 -629.515625 C 670.109375 -603.734375 676.515625 -575.628906 675.390625 -545.203125 C 674.296875 -515.484375 666.035156 -488.617188 650.609375 -464.609375 C 635.179688 -440.597656 614.914062 -421.4375 589.8125 -407.125 C 564.707031 -392.820312 536.597656 -386.242188 505.484375 -387.390625 L 497.609375 -145.71875 C 496.484375 -115.300781 487.84375 -87.582031 471.6875 -62.5625 C 455.539062 -37.539062 434.566406 -17.890625 408.765625 -3.609375 C 382.972656 10.671875 354.867188 17.25 324.453125 16.125 C 294.722656 15.03125 267.691406 6.421875 243.359375 -9.703125 C 219.035156 -25.835938 199.910156 -46.96875 185.984375 -73.09375 C 172.066406 -99.226562 165.671875 -127.503906 166.796875 -157.921875 L 175.703125 -399.546875 C 145.273438 -400.671875 117.894531 -409.300781 93.5625 -425.4375 C 69.238281 -441.570312 50.269531 -462.175781 36.65625 -487.25 C 23.050781 -512.332031 16.796875 -539.734375 17.890625 -569.453125 C 19.015625 -599.878906 27.300781 -627.441406 42.75 -652.140625 C 58.195312 -676.847656 78.644531 -696.347656 104.09375 -710.640625 C 129.539062 -724.929688 157.476562 -731.515625 187.90625 -730.390625 Z M 514.578125 -718.34375 "/></g></g></g><g fill="#bd0000" fill-opacity="1"><g transform="translate(2163.188149, 978.894969)"><g><path d="M 554.875 -687.6875 C 585.875 -684.757812 613.226562 -674.53125 636.9375 -657 C 660.65625 -639.46875 678.726562 -617.429688 691.15625 -590.890625 C 703.59375 -564.347656 708.382812 -535.921875 705.53125 -505.609375 C 702.726562 -476.003906 692.9375 -449.660156 676.15625 -426.578125 C 659.375 -403.492188 638.046875 -385.523438 612.171875 -372.671875 C 586.296875 -359.828125 557.863281 -354.867188 526.875 -357.796875 L 505.140625 -116.96875 C 502.273438 -86.664062 492.0625 -59.488281 474.5 -35.4375 C 456.945312 -11.382812 434.882812 7.03125 408.3125 19.8125 C 381.738281 32.59375 353.300781 37.550781 323 34.6875 C 293.375 31.894531 266.878906 21.75 243.515625 4.25 C 220.160156 -13.25 202.28125 -35.441406 189.875 -62.328125 C 177.46875 -89.210938 172.695312 -117.804688 175.5625 -148.109375 L 198.3125 -388.84375 C 168 -391.707031 141.15625 -401.882812 117.78125 -419.375 C 94.414062 -436.875 76.660156 -458.535156 64.515625 -484.359375 C 52.367188 -510.179688 47.695312 -537.894531 50.5 -567.5 C 53.351562 -597.8125 63.195312 -624.851562 80.03125 -648.625 C 96.863281 -672.394531 118.394531 -690.6875 144.625 -703.5 C 170.851562 -716.320312 199.125 -721.300781 229.4375 -718.4375 Z M 554.875 -687.6875 "/></g></g></g><g fill="#bd0000" fill-opacity="1"><g transform="translate(2806.400405, 1038.080018)"><g><path d="M 530.125 -616.71875 C 554.726562 -635.289062 581.085938 -646.054688 609.203125 -649.015625 C 637.328125 -651.984375 664.5 -647.742188 690.71875 -636.296875 C 716.945312 -624.847656 738.609375 -606.578125 755.703125 -581.484375 C 772.992188 -557.785156 782.867188 -531.390625 785.328125 -502.296875 C 787.785156 -473.210938 783.4375 -445.359375 772.28125 -418.734375 C 761.125 -392.117188 743.585938 -369.472656 719.671875 -350.796875 L 556.765625 -229.1875 L 534.34375 -85.640625 C 529.644531 -55.566406 518.023438 -29.375 499.484375 -7.0625 C 480.941406 15.25 458.050781 31.804688 430.8125 42.609375 C 403.570312 53.410156 374.910156 56.460938 344.828125 51.765625 C 315.441406 47.171875 289.421875 35.578125 266.765625 16.984375 C 244.109375 -1.609375 227.351562 -24.359375 216.5 -51.265625 C 205.644531 -78.171875 202.566406 -106.660156 207.265625 -136.734375 L 229.6875 -280.28125 L 111.640625 -445.765625 C 94.546875 -470.847656 84.742188 -497.765625 82.234375 -526.515625 C 79.722656 -555.265625 84.070312 -583.117188 95.28125 -610.078125 C 106.488281 -637.035156 123.953125 -659.160156 147.671875 -676.453125 C 171.585938 -695.140625 197.601562 -705.960938 225.71875 -708.921875 C 253.84375 -711.878906 280.675781 -707.6875 306.21875 -696.34375 C 331.757812 -685 353.070312 -666.785156 370.15625 -641.703125 L 438.34375 -547.03125 Z M 530.125 -616.71875 "/></g></g></g></g></g><g transform="matrix(1, 0, 0, 1, 219, 287)"><g clip-path="url(#2121dd0c5b)"><g fill="#ffef42" fill-opacity="1"><g transform="translate(437.916102, 1116.805546)"><g><path d="M 188.738281 -995.597656 C 243.667969 -1015.21875 298.867188 -1019.097656 354.335938 -1007.230469 C 406.488281 -996.074219 453.207031 -973.289062 494.488281 -938.878906 C 537.589844 -902.953125 568.546875 -858.660156 587.355469 -806.003906 C 606.726562 -751.78125 610.964844 -697.160156 600.074219 -642.140625 C 589.570312 -589.066406 567.183594 -541.898438 532.917969 -500.644531 C 497.503906 -458.007812 452.78125 -427.039062 398.738281 -407.734375 C 358.550781 -393.378906 318.976562 -386.757812 280.011719 -387.875 C 276.160156 -387.984375 273.148438 -387.898438 270.96875 -387.621094 C 271.5 -387.6875 272.644531 -388.035156 274.410156 -388.667969 C 286.359375 -392.9375 297.164062 -399.472656 306.820312 -408.277344 C 316.242188 -416.863281 323.582031 -426.707031 328.835938 -437.804688 C 334.089844 -448.902344 337.058594 -460.8125 337.730469 -473.546875 C 338.425781 -486.59375 336.636719 -499.09375 332.367188 -511.042969 C 327.542969 -524.550781 320.035156 -536.59375 309.839844 -547.171875 C 300.191406 -557.1875 289.203125 -564.78125 276.882812 -569.945312 C 265.949219 -574.527344 254.410156 -576.949219 242.261719 -577.210938 C 230.609375 -577.464844 219.503906 -575.703125 208.945312 -571.933594 C 207.179688 -571.300781 206.070312 -570.84375 205.617188 -570.5625 C 207.480469 -571.726562 209.863281 -573.570312 212.773438 -576.09375 C 242.210938 -601.644531 277.023438 -621.597656 317.210938 -635.953125 C 372.578125 -655.734375 428.257812 -659.355469 484.242188 -646.824219 C 536.28125 -635.175781 582.890625 -611.992188 624.066406 -577.28125 C 666.988281 -541.101562 698.039062 -496.15625 717.226562 -442.449219 C 736.128906 -389.53125 740.136719 -335.5625 729.246094 -280.542969 C 718.921875 -228.378906 697.203125 -181.566406 664.09375 -140.101562 C 628.699219 -95.777344 583.539062 -63.804688 528.609375 -44.179688 L 386.898438 6.441406 C 321.546875 29.785156 255.269531 38.707031 188.070312 33.203125 C 123.179688 27.886719 61.371094 10.769531 2.644531 -18.144531 C -55.878906 -46.960938 -107.144531 -85.351562 -151.148438 -133.324219 C -196.054688 -182.277344 -229.859375 -238.53125 -252.566406 -302.089844 C -276.074219 -367.898438 -285.730469 -434.175781 -281.539062 -500.925781 C -277.40625 -566.671875 -261.199219 -629.023438 -232.910156 -687.972656 C -204.828125 -746.484375 -166.839844 -798.003906 -118.945312 -842.53125 C -70.433594 -887.625 -14.066406 -922.140625 50.164062 -946.082031 Z M 280.386719 -739.035156 L 145.320312 -690.800781 C 114.894531 -679.457031 88.636719 -663.523438 66.550781 -642.988281 C 43.851562 -621.890625 25.90625 -597.59375 12.710938 -570.101562 C -0.273438 -543.042969 -7.722656 -514.289062 -9.632812 -483.84375 C -11.484375 -454.390625 -6.941406 -424.359375 3.996094 -393.742188 C 14.339844 -364.785156 29.546875 -339.367188 49.613281 -317.492188 C 70.582031 -294.636719 95.039062 -276.324219 122.992188 -262.5625 C 150.734375 -248.902344 179.84375 -240.824219 210.3125 -238.328125 C 238.472656 -236.023438 266.785156 -239.953125 295.25 -250.121094 L 436.957031 -300.742188 C 443.273438 -303 448.019531 -306.117188 451.203125 -310.105469 C 456.671875 -316.953125 460.265625 -324.730469 461.992188 -333.441406 C 463.148438 -339.292969 462.707031 -345.082031 460.664062 -350.800781 C 457.972656 -358.335938 453.90625 -364.398438 448.46875 -368.980469 C 441.289062 -375.03125 433.378906 -379.027344 424.730469 -380.960938 C 420.027344 -382.015625 414.738281 -381.492188 408.863281 -379.390625 C 400.835938 -376.523438 395 -373.507812 391.351562 -370.34375 C 361.910156 -344.792969 331.660156 -326.46875 300.59375 -315.371094 C 279.609375 -307.875 258.203125 -304.363281 236.367188 -304.835938 C 214.039062 -305.320312 192.441406 -309.933594 171.574219 -318.679688 C 149.316406 -328.007812 130.003906 -341.164062 113.640625 -358.152344 C 96.734375 -375.699219 84.121094 -396.113281 75.804688 -419.394531 C 67.8125 -441.765625 64.4375 -464.628906 65.675781 -487.972656 C 66.894531 -511 72.542969 -533.148438 82.613281 -554.414062 C 92.683594 -575.679688 106.242188 -594.082031 123.28125 -609.613281 C 140.5625 -625.367188 160.386719 -637.238281 182.761719 -645.230469 C 213.824219 -656.328125 248.839844 -661.316406 287.804688 -660.203125 C 292.632812 -660.0625 299.0625 -661.429688 307.085938 -664.296875 C 314.289062 -666.867188 319.707031 -670.339844 323.339844 -674.714844 C 328.113281 -680.464844 331.273438 -687.238281 332.820312 -695.039062 C 333.976562 -700.890625 333.300781 -707.332031 330.792969 -714.351562 C 328.65625 -720.332031 325.078125 -725.414062 320.054688 -729.605469 C 313.214844 -735.304688 305.644531 -739.042969 297.339844 -740.820312 C 292.351562 -741.886719 286.703125 -741.292969 280.386719 -739.035156 Z M 280.386719 -739.035156 "/></g></g></g><g fill="#bd0000" fill-opacity="1"><g transform="translate(437.916102, 1116.805546)"><g><path d="M 234.5625 -867.296875 C 265.1875 -878.234375 295.609375 -880.46875 325.828125 -874 C 356.054688 -867.539062 383.203125 -854.28125 407.265625 -834.21875 C 431.328125 -814.164062 448.597656 -789.484375 459.078125 -760.171875 C 470.015625 -729.546875 472.46875 -699.015625 466.4375 -668.578125 C 460.414062 -638.140625 447.644531 -611.164062 428.125 -587.65625 C 408.613281 -564.15625 383.546875 -546.9375 352.921875 -536 C 328.816406 -527.394531 305.8125 -523.40625 283.90625 -524.03125 C 262.007812 -524.65625 243.570312 -522.296875 228.59375 -516.953125 C 218.164062 -513.222656 210.539062 -506.269531 205.71875 -496.09375 C 200.90625 -485.925781 200.359375 -475.632812 204.078125 -465.21875 C 207.566406 -455.445312 214.28125 -448.476562 224.21875 -444.3125 C 234.15625 -440.144531 244.335938 -439.925781 254.765625 -443.65625 C 269.742188 -449 285.507812 -458.847656 302.0625 -473.203125 C 318.613281 -487.566406 338.941406 -499.050781 363.046875 -507.65625 C 393.671875 -518.59375 424.148438 -520.664062 454.484375 -513.875 C 484.828125 -507.082031 512.085938 -493.492188 536.265625 -473.109375 C 560.441406 -452.734375 578 -427.238281 588.9375 -396.625 C 599.40625 -367.300781 601.628906 -337.421875 595.609375 -306.984375 C 589.585938 -276.546875 576.929688 -249.25 557.640625 -225.09375 C 538.359375 -200.9375 513.40625 -183.390625 482.78125 -172.453125 L 341.078125 -121.84375 C 294.171875 -105.082031 246.875 -98.65625 199.1875 -102.5625 C 151.5 -106.46875 106.039062 -119.066406 62.8125 -140.359375 C 19.582031 -161.648438 -18.273438 -190 -50.765625 -225.40625 C -83.253906 -260.820312 -107.757812 -301.660156 -124.28125 -347.921875 C -141.5 -396.128906 -148.597656 -444.28125 -145.578125 -492.375 C -142.554688 -540.476562 -130.726562 -586.03125 -110.09375 -629.03125 C -89.457031 -672.03125 -61.488281 -709.9375 -26.1875 -742.75 C 9.101562 -775.5625 50.414062 -800.785156 97.75 -818.421875 Z M 234.5625 -867.296875 "/></g></g></g></g></g></svg>