<svg xmlns="http://www.w3.org/2000/svg" xmlns:xlink="http://www.w3.org/1999/xlink" width="6912" zoomAndPan="magnify" viewBox="0 0 5184 2592.000001" height="3456" preserveAspectRatio="xMidYMid meet" version="1.0"><defs><g/><clipPath id="5b77b41fb3"><rect x="0" width="4748" y="0" height="1409"/></clipPath><clipPath id="0001381257"><rect x="0" width="1106" y="0" height="1278"/></clipPath></defs><g transform="matrix(1, 0, 0, 1, 214, 836)"><g clip-path="url(#5b77b41fb3)"><g fill="#ffef42" fill-opacity="1"><g transform="translate(283.621938, 1117.317334)"><g><path d="M 391.417969 -979.148438 C 451.433594 -988.226562 508.582031 -981.171875 562.863281 -957.984375 C 613.902344 -936.183594 657.070312 -903.589844 692.367188 -860.207031 C 729.214844 -814.917969 751.992188 -763.507812 760.695312 -705.972656 C 769.660156 -646.730469 763.089844 -590.101562 740.988281 -536.082031 C 719.667969 -483.972656 687.394531 -440.269531 644.167969 -404.972656 C 599.496094 -368.496094 547.636719 -345.789062 488.589844 -336.855469 C 444.683594 -330.214844 402.945312 -331.347656 363.371094 -340.261719 C 359.460938 -341.144531 356.367188 -341.660156 354.085938 -341.808594 C 354.640625 -341.773438 355.882812 -341.898438 357.808594 -342.191406 C 370.867188 -344.167969 383.203125 -348.6875 394.824219 -355.75 C 406.160156 -362.640625 415.617188 -371.230469 423.199219 -381.515625 C 430.78125 -391.800781 436.1875 -403.375 439.417969 -416.242188 C 442.726562 -429.433594 443.394531 -442.554688 441.421875 -455.609375 C 439.1875 -470.367188 433.921875 -484.164062 425.621094 -497.003906 C 417.765625 -509.160156 408.058594 -519.105469 396.507812 -526.835938 C 386.253906 -533.699219 374.953125 -538.476562 362.597656 -541.167969 C 350.746094 -543.75 339.054688 -544.167969 327.515625 -542.421875 C 325.589844 -542.132812 324.367188 -541.886719 323.847656 -541.6875 C 325.980469 -542.503906 328.785156 -543.914062 332.257812 -545.910156 C 367.421875 -566.132812 406.960938 -579.5625 450.867188 -586.207031 C 511.359375 -595.359375 568.945312 -587.949219 623.625 -563.976562 C 674.449219 -541.695312 717.421875 -508.722656 752.550781 -465.054688 C 789.167969 -419.535156 811.914062 -367.4375 820.789062 -308.761719 C 829.539062 -250.941406 822.859375 -195.023438 800.757812 -141.003906 C 779.804688 -89.789062 748.285156 -46.3125 706.199219 -10.574219 C 661.203125 27.632812 608.699219 51.277344 548.683594 60.355469 L 393.855469 83.777344 C 322.453125 94.582031 252.984375 90.46875 185.449219 71.4375 C 120.238281 53.058594 60.53125 23.246094 6.320312 -18.003906 C -47.699219 -59.109375 -92.394531 -108.550781 -127.765625 -166.324219 C -163.859375 -225.277344 -187.160156 -289.480469 -197.667969 -358.921875 C -208.542969 -430.824219 -205.183594 -500.441406 -187.582031 -567.773438 C -170.246094 -634.097656 -141.25 -694.542969 -100.59375 -749.101562 C -60.242188 -803.257812 -11.164062 -848.296875 46.640625 -884.210938 C 105.179688 -920.585938 169.636719 -944.589844 240.011719 -956.226562 Z M 433.828125 -698.832031 L 286.257812 -676.519531 C 252.917969 -671.007812 222.921875 -659.96875 196.269531 -643.410156 C 168.878906 -626.386719 145.699219 -605.15625 126.738281 -579.707031 C 108.078125 -554.664062 94.734375 -526.785156 86.707031 -496.074219 C 78.941406 -466.363281 77.585938 -434.785156 82.648438 -401.332031 C 87.433594 -369.695312 97.894531 -340.703125 114.023438 -314.355469 C 130.875 -286.828125 152.203125 -263.246094 178 -243.617188 C 203.613281 -224.128906 231.726562 -210.070312 262.347656 -201.441406 C 290.648438 -193.464844 320.347656 -191.832031 351.449219 -196.535156 L 506.277344 -219.960938 C 513.175781 -221.003906 518.648438 -223.242188 522.691406 -226.675781 C 529.644531 -232.582031 534.867188 -239.808594 538.367188 -248.359375 C 540.71875 -254.105469 541.421875 -260.105469 540.476562 -266.351562 C 539.230469 -274.585938 536.289062 -281.589844 531.648438 -287.351562 C 525.523438 -294.96875 518.238281 -300.625 509.792969 -304.328125 C 505.203125 -306.339844 499.695312 -306.863281 493.273438 -305.890625 C 484.503906 -304.5625 477.941406 -302.648438 473.585938 -300.140625 C 438.417969 -279.921875 403.867188 -267.242188 369.925781 -262.109375 C 347 -258.640625 324.433594 -259.324219 302.230469 -264.164062 C 279.523438 -269.113281 258.386719 -278.136719 238.816406 -291.234375 C 217.945312 -305.203125 200.847656 -322.492188 187.527344 -343.105469 C 173.761719 -364.402344 164.953125 -387.769531 161.105469 -413.203125 C 157.40625 -437.648438 158.519531 -461.667969 164.441406 -485.265625 C 170.285156 -508.539062 180.46875 -530.03125 195 -549.738281 C 209.527344 -569.449219 227.046875 -585.535156 247.550781 -598.003906 C 268.339844 -610.640625 290.957031 -618.808594 315.402344 -622.507812 C 349.34375 -627.640625 386.097656 -625.753906 425.671875 -616.839844 C 430.574219 -615.734375 437.414062 -615.84375 446.183594 -617.171875 C 454.050781 -618.363281 460.277344 -620.828125 464.855469 -624.570312 C 470.882812 -629.488281 475.464844 -635.777344 478.597656 -643.433594 C 480.945312 -649.183594 481.542969 -655.890625 480.382812 -663.5625 C 479.394531 -670.097656 476.75 -676.003906 472.457031 -681.285156 C 466.609375 -688.46875 459.621094 -693.800781 451.496094 -697.269531 C 446.617188 -699.355469 440.726562 -699.875 433.828125 -698.832031 Z M 433.828125 -698.832031 "/></g></g></g><g fill="#ffef42" fill-opacity="1"><g transform="translate(985.978734, 1009.515373)"><g><path d="M 575.132812 92.863281 C 518.210938 97.863281 464.277344 88.410156 413.335938 64.503906 C 363.328125 41.035156 322.320312 7.167969 290.316406 -37.097656 C 257.355469 -82.691406 238.347656 -134.25 233.292969 -191.777344 L 230.082031 -228.355469 C 231.460938 -212.640625 235.875 -197.710938 243.324219 -183.566406 C 250.574219 -169.800781 260.050781 -158.011719 271.753906 -148.199219 C 283.457031 -138.382812 296.71875 -131.109375 311.535156 -126.371094 C 326.765625 -121.5 342.234375 -119.757812 357.949219 -121.136719 C 373.660156 -122.519531 388.589844 -126.933594 402.734375 -134.382812 C 416.5 -141.628906 428.289062 -151.105469 438.105469 -162.808594 C 447.917969 -174.515625 455.191406 -187.773438 459.929688 -202.59375 C 464.800781 -217.820312 466.542969 -233.292969 465.164062 -249.003906 L 468.375 -212.425781 C 473.449219 -154.703125 464.140625 -100.714844 440.453125 -50.464844 C 417.058594 -0.828125 382.960938 39.835938 338.164062 71.527344 C 292.808594 103.613281 241.273438 122.1875 183.546875 127.257812 C 127.558594 132.175781 74.367188 122.941406 23.964844 99.554688 C -25.894531 76.417969 -66.890625 42.625 -99.019531 -1.8125 C -131.984375 -47.40625 -151.023438 -99.324219 -156.140625 -157.570312 L -193.371094 -581.429688 C -198.515625 -639.984375 -188.675781 -694.511719 -163.851562 -745.003906 C -139.929688 -793.660156 -105.5625 -833.640625 -60.753906 -864.9375 C -15.203125 -896.753906 35.566406 -915.121094 91.550781 -920.039062 C 149.277344 -925.109375 203.265625 -915.800781 253.515625 -892.117188 C 302.875 -868.851562 343.355469 -835.167969 374.957031 -791.066406 C 407.320312 -745.914062 426.046875 -694.316406 431.144531 -636.285156 L 434.546875 -597.558594 C 433.03125 -614.824219 428.042969 -631.03125 419.585938 -646.183594 C 412.503906 -658.875 403.570312 -669.742188 392.78125 -678.789062 C 381.074219 -688.601562 367.816406 -695.878906 352.996094 -700.617188 C 337.769531 -705.484375 322.296875 -707.230469 306.585938 -705.851562 C 290.875 -704.46875 275.945312 -700.054688 261.796875 -692.605469 C 248.03125 -685.355469 236.242188 -675.878906 226.429688 -664.175781 C 217.382812 -653.386719 210.476562 -641.128906 205.71875 -627.398438 C 200.03125 -611.003906 197.945312 -594.171875 199.464844 -576.90625 L 196.0625 -615.636719 C 190.980469 -673.476562 200.851562 -727.644531 225.675781 -778.136719 C 249.503906 -826.601562 283.867188 -866.65625 328.765625 -898.304688 C 374.757812 -930.726562 426.214844 -949.4375 483.136719 -954.4375 C 540.664062 -959.488281 594.75 -949.761719 645.390625 -925.25 C 693.734375 -901.851562 733.683594 -868.613281 765.238281 -825.53125 C 798.484375 -780.140625 817.648438 -728.523438 822.730469 -670.683594 L 859.960938 -246.824219 C 865.015625 -189.296875 855.285156 -135.210938 830.777344 -84.570312 C 807.242188 -35.949219 773.589844 4.1875 729.8125 35.839844 C 684.21875 68.800781 632.660156 87.808594 575.132812 92.863281 Z M 550.324219 -189.554688 C 555.910156 -190.046875 560.371094 -191.496094 563.707031 -193.910156 C 568.859375 -197.632812 572.820312 -202.359375 575.589844 -208.082031 C 577.382812 -211.785156 578.035156 -216.433594 577.542969 -222.015625 L 540.3125 -645.875 C 539.847656 -651.148438 538.585938 -655.191406 536.519531 -658.011719 C 532.761719 -663.140625 527.882812 -667.160156 521.882812 -670.0625 C 518.175781 -671.859375 513.53125 -672.507812 507.945312 -672.019531 C 501.753906 -671.476562 496.472656 -669.664062 492.105469 -666.582031 C 486.640625 -662.730469 482.636719 -658.222656 480.097656 -653.054688 C 478.554688 -649.917969 478.015625 -645.714844 478.480469 -640.445312 L 481.882812 -601.714844 C 483.902344 -578.710938 481.132812 -556.308594 473.574219 -534.511719 C 466.9375 -515.378906 456.96875 -497.882812 443.671875 -482.019531 C 429.605469 -465.246094 413.011719 -451.824219 393.894531 -441.753906 C 374.394531 -431.488281 353.5625 -425.378906 331.394531 -423.433594 C 309.226562 -421.484375 287.648438 -423.867188 266.65625 -430.578125 C 246.074219 -437.160156 227.398438 -447.484375 210.621094 -461.546875 C 194.761719 -474.847656 181.894531 -490.339844 172.027344 -508.023438 C 160.78125 -528.171875 154.148438 -549.746094 152.128906 -572.75 L 148.726562 -611.476562 C 148.15625 -617.992188 146.75 -622.808594 144.515625 -625.925781 C 141.527344 -630.101562 137.566406 -633.347656 132.640625 -635.671875 C 128.609375 -637.570312 123.183594 -638.222656 116.359375 -637.621094 C 110.667969 -637.121094 105.746094 -635.417969 101.585938 -632.515625 C 96.6875 -629.09375 93.015625 -624.894531 90.570312 -619.921875 C 89.027344 -616.785156 88.519531 -612.222656 89.046875 -606.234375 L 126.277344 -182.378906 C 126.832031 -176.074219 128.316406 -171.257812 130.726562 -167.917969 C 133.972656 -163.433594 138.164062 -159.996094 143.304688 -157.609375 C 147.902344 -155.476562 153.050781 -154.65625 158.738281 -155.15625 C 165.5625 -155.757812 170.792969 -157.34375 174.433594 -159.917969 C 178.625 -162.882812 181.816406 -166.691406 184.007812 -171.335938 C 185.910156 -175.371094 186.558594 -180.796875 185.960938 -187.621094 L 182.746094 -224.195312 C 180.800781 -246.363281 183.179688 -267.941406 189.894531 -288.933594 C 196.472656 -309.515625 206.796875 -328.191406 220.863281 -344.96875 C 234.929688 -361.742188 251.519531 -375.164062 270.640625 -385.230469 C 290.140625 -395.5 310.972656 -401.609375 333.140625 -403.554688 C 355.308594 -405.503906 376.886719 -403.121094 397.878906 -396.410156 C 418.457031 -389.828125 437.136719 -379.503906 453.910156 -365.4375 C 470.6875 -351.375 484.105469 -334.78125 494.175781 -315.660156 C 504.441406 -296.164062 510.550781 -275.328125 512.5 -253.160156 L 515.710938 -216.585938 C 516.203125 -211 517.652344 -206.539062 520.066406 -203.203125 C 523.4375 -198.539062 528.007812 -194.855469 533.78125 -192.144531 C 538.617188 -189.875 544.132812 -189.011719 550.324219 -189.554688 Z M 550.324219 -189.554688 "/></g></g></g><g fill="#ffef42" fill-opacity="1"><g transform="translate(1714.960183, 944.191341)"><g><path d="M 34.578125 112.597656 C -16.652344 89.140625 -58.339844 54.996094 -90.480469 10.160156 C -122.453125 -34.445312 -141.398438 -83.992188 -147.3125 -138.484375 C -153.296875 -193.613281 -144.964844 -246.644531 -122.320312 -297.578125 L 71.234375 -735.148438 C 97.175781 -794.410156 136.421875 -840.398438 188.96875 -873.109375 C 238.054688 -903.667969 291.207031 -919.953125 348.433594 -921.96875 C 406.3125 -924.007812 460.839844 -911.074219 512.015625 -883.164062 C 566.203125 -853.609375 608.246094 -809.40625 638.148438 -750.550781 L 854.929688 -321.167969 C 881.113281 -271.835938 892.144531 -218.65625 888.027344 -161.628906 C 884.152344 -108.027344 867.898438 -58.589844 839.257812 -13.3125 C 809.335938 33.992188 768.484375 70.710938 716.703125 96.84375 C 665.644531 121.917969 612.535156 132.820312 557.375 129.554688 C 501.90625 126.269531 451.191406 109.542969 405.226562 79.378906 C 359.644531 49.460938 323.988281 9.628906 298.261719 -40.113281 L 196.199219 -242.246094 L 193.269531 -250.378906 C 199.519531 -233.027344 208.914062 -217.527344 221.449219 -203.875 C 236.480469 -187.507812 254.402344 -175.445312 275.21875 -167.691406 C 302.945312 -157.367188 330.824219 -156.066406 358.851562 -163.792969 C 375.839844 -168.472656 391.382812 -176.203125 405.480469 -186.984375 C 423.300781 -200.609375 436.988281 -217.574219 446.539062 -237.882812 C 454.460938 -254.726562 458.777344 -272.386719 459.488281 -290.867188 C 459.933594 -302.484375 458.902344 -313.867188 456.394531 -325.015625 L 318.101562 -293.890625 L 455.070312 -330.40625 L 499.808594 -162.585938 L 449.539062 -46.421875 C 425.277344 6.617188 390.730469 49.207031 345.894531 81.347656 C 301.289062 113.320312 251.742188 132.265625 197.25 138.179688 C 143.101562 144.058594 90.195312 136.109375 38.535156 114.335938 L 36.542969 113.496094 Z M 152.597656 -145.175781 L 93.589844 -16.289062 L 148.644531 -146.914062 C 155.183594 -144.15625 161.1875 -143.074219 166.65625 -143.667969 C 171.785156 -144.226562 176.46875 -146.027344 180.71875 -149.070312 C 184.730469 -151.949219 187.609375 -155.265625 189.351562 -159.023438 L 220.058594 -229.972656 L 350.152344 -173.675781 L 213.183594 -137.160156 L 180.417969 -260.058594 L 179.808594 -262.765625 C 172.285156 -296.191406 175.683594 -328.117188 189.996094 -358.550781 C 200.0625 -379.949219 214.492188 -397.832031 233.28125 -412.203125 C 248.355469 -423.726562 265.101562 -432.027344 283.515625 -437.105469 C 314.40625 -445.617188 344.625 -444.375 374.167969 -433.371094 C 395.894531 -425.277344 414.59375 -412.695312 430.269531 -395.625 C 443.453125 -381.269531 453.363281 -364.878906 460 -346.457031 L 326.636719 -298.417969 L 453.175781 -362.304688 L 550.078125 -170.355469 C 553.046875 -164.613281 556.617188 -160.375 560.785156 -157.640625 C 564.574219 -155.152344 569.027344 -153.757812 574.136719 -153.453125 C 579.554688 -153.132812 584.496094 -154.0625 588.957031 -156.246094 C 594.101562 -158.84375 597.667969 -161.71875 599.664062 -164.871094 C 602.9375 -170.050781 604.804688 -175.777344 605.257812 -182.054688 C 605.464844 -184.902344 604.328125 -188.683594 601.847656 -193.398438 L 385.394531 -622.132812 C 382.042969 -628.734375 379 -632.78125 376.269531 -634.269531 C 370.527344 -637.398438 364.578125 -638.855469 358.414062 -638.640625 C 351.601562 -638.398438 345.0625 -636.332031 338.800781 -632.433594 C 336.003906 -630.691406 333.238281 -626.699219 330.507812 -620.460938 L 136.730469 -182.390625 C 134.78125 -178.003906 134.046875 -173.566406 134.535156 -169.078125 C 135.09375 -163.949219 136.890625 -159.261719 139.9375 -155.015625 C 142.816406 -151.003906 147.035156 -147.722656 152.597656 -145.175781 Z M 152.597656 -145.175781 "/></g></g></g><g fill="#ffef42" fill-opacity="1"><g transform="translate(2312.256217, 926.508635)"><g><path d="M 529.65625 -895.800781 C 588.3125 -894.363281 641.667969 -878.347656 689.71875 -847.757812 C 735.789062 -818.429688 772.054688 -779.984375 798.523438 -732.425781 C 825.882812 -683.261719 838.859375 -629.96875 837.453125 -572.546875 C 836.0625 -515.746094 820.644531 -463.792969 791.199219 -416.6875 C 763.152344 -371.816406 726.144531 -335.910156 680.175781 -308.957031 C 631.027344 -280.136719 576.808594 -266.453125 517.519531 -267.90625 L 520.988281 -409.617188 L 662.714844 -406.753906 L 657.632812 -155.179688 C 656.210938 -97.140625 640.347656 -44.003906 610.046875 4.230469 C 580.9375 50.5625 542.75 87.195312 495.480469 114.132812 C 445.992188 142.332031 392.277344 155.722656 334.339844 154.304688 C 276.808594 152.894531 224.109375 136.75 176.246094 105.863281 C 130.625 76.425781 94.644531 37.714844 68.316406 -10.265625 C 41.242188 -59.597656 28.40625 -112.824219 29.804688 -169.949219 L 35.964844 -421.496094 L 177.675781 -418.023438 L 174.207031 -276.316406 C 115.957031 -277.742188 62.898438 -293.898438 15.035156 -324.785156 C -30.261719 -354.011719 -65.890625 -391.851562 -91.859375 -438.3125 C -118.964844 -486.804688 -131.824219 -539.453125 -130.433594 -596.25 C -129.039062 -653.15625 -113.902344 -705.34375 -85.023438 -752.8125 C -56.71875 -799.332031 -18.96875 -836.230469 28.230469 -863.511719 C 77.546875 -892.015625 131.332031 -905.554688 189.582031 -904.128906 Z M 522.714844 -612.378906 L 182.640625 -620.707031 C 177.554688 -620.832031 173.371094 -619.949219 170.09375 -618.054688 C 164.695312 -614.933594 160.390625 -610.734375 157.179688 -605.453125 C 154.542969 -601.121094 153.144531 -595.738281 152.988281 -589.308594 C 152.863281 -584.210938 153.734375 -579.988281 155.609375 -576.640625 C 158.617188 -571.257812 162.996094 -566.710938 168.746094 -563 C 171.925781 -560.949219 176.0625 -559.859375 181.148438 -559.734375 L 322.855469 -556.265625 L 313.226562 -163.007812 C 313.074219 -156.796875 314.285156 -151.34375 316.855469 -146.660156 C 320.167969 -140.621094 324.535156 -135.851562 329.957031 -132.355469 C 333.140625 -130.300781 336.914062 -129.222656 341.28125 -129.117188 C 346.679688 -128.984375 351.289062 -130.007812 355.117188 -132.1875 C 361.164062 -135.632812 366.117188 -140.433594 369.984375 -146.585938 C 372.652344 -150.835938 374.054688 -155.609375 374.183594 -160.90625 L 382.140625 -554.8125 L 524.460938 -551.328125 C 529.949219 -551.191406 534.054688 -551.925781 536.78125 -553.523438 C 542.691406 -556.988281 547.363281 -561.46875 550.796875 -566.960938 C 552.832031 -570.214844 553.910156 -574.390625 554.035156 -579.488281 C 554.179688 -585.398438 553.101562 -590.421875 550.796875 -594.558594 C 547.605469 -600.296875 543.160156 -604.980469 537.464844 -608.605469 C 533.75 -610.972656 528.832031 -612.230469 522.714844 -612.378906 Z M 522.714844 -612.378906 "/></g></g></g><g fill="#ffef42" fill-opacity="1"><g transform="translate(2977.544661, 946.299529)"><g/></g></g><g fill="#ffef42" fill-opacity="1"><g transform="translate(3229.391324, 962.164809)"><g/></g></g><g fill="#ffef42" fill-opacity="1"><g transform="translate(3480.823265, 983.535905)"><g/></g></g><g fill="#ffef42" fill-opacity="1"><g transform="translate(3727.214285, 1004.499751)"><g><path d="M 462.46875 -757.292969 C 508.832031 -792.640625 559.675781 -813.367188 614.992188 -819.472656 C 669.054688 -825.441406 721.222656 -817.601562 771.496094 -795.953125 C 823.84375 -773.410156 866.699219 -737.929688 900.058594 -689.507812 L 783.328125 -609.085938 L 897.40625 -693.226562 C 931.25 -647.347656 950.707031 -596.09375 955.777344 -539.46875 C 960.558594 -486.105469 952.78125 -434.832031 932.449219 -385.644531 C 911.546875 -335.070312 879.003906 -292.363281 834.820312 -257.519531 L 663.550781 -128.265625 L 578.175781 -241.425781 L 718.339844 -220.257812 L 695.761719 -70.765625 C 687.140625 -13.664062 664.960938 36.613281 629.222656 80.066406 C 594.71875 122.023438 552.121094 153.195312 501.433594 173.585938 C 449.238281 194.582031 394.738281 200.789062 337.941406 192.210938 C 281.855469 183.742188 231.976562 161.769531 188.308594 126.296875 C 145.902344 91.847656 114.410156 49.488281 93.835938 -0.789062 C 72.523438 -52.855469 66.179688 -107.441406 74.804688 -164.542969 L 97.378906 -314.035156 L 237.542969 -292.867188 L 122.5625 -209.96875 L -1.152344 -381.554688 C -34.242188 -429.542969 -53.304688 -480.785156 -58.34375 -535.273438 C -63.242188 -588.273438 -55.527344 -639.558594 -35.203125 -689.128906 C -13.636719 -741.730469 20.089844 -784.949219 65.972656 -818.792969 L 150.113281 -704.714844 L 62.335938 -816.019531 C 108.382812 -852.332031 159.480469 -873.589844 215.628906 -879.785156 C 270.007812 -885.789062 322.089844 -877.882812 371.882812 -856.070312 C 423.15625 -833.609375 465.382812 -798.300781 498.5625 -750.140625 L 381.828125 -669.71875 L 496.433594 -753.144531 L 567.890625 -654.980469 L 453.285156 -571.554688 L 366.980469 -684.003906 L 462.101562 -757.011719 Z M 634.714844 -532.113281 L 424.25 -370.578125 L 266.140625 -587.785156 L 265.097656 -589.300781 C 262.445312 -593.152344 260.121094 -595.515625 258.125 -596.390625 C 254.648438 -597.914062 250.851562 -598.445312 246.730469 -597.992188 C 244.382812 -597.734375 241.4375 -596.207031 237.890625 -593.410156 L 236.097656 -591.992188 L 234.257812 -590.636719 C 230.976562 -588.21875 228.59375 -585.195312 227.105469 -581.574219 C 224.378906 -574.917969 223.328125 -568.183594 223.960938 -561.371094 C 224.453125 -556.050781 226.070312 -551.378906 228.8125 -547.359375 L 386.339844 -328.871094 L 355.128906 -122.207031 C 354.292969 -116.664062 354.652344 -111.988281 356.214844 -108.175781 C 358.507812 -102.574219 362.121094 -97.765625 367.0625 -93.753906 C 370.734375 -90.769531 375.140625 -88.890625 380.277344 -88.113281 C 386.125 -87.230469 391.242188 -87.671875 395.636719 -89.441406 C 401.539062 -91.8125 406.414062 -95.339844 410.257812 -100.015625 C 412.875 -103.195312 414.601562 -107.554688 415.4375 -113.097656 L 446.648438 -319.765625 L 659.269531 -480.132812 C 664.679688 -484.398438 668.40625 -489.003906 670.445312 -493.941406 C 673.058594 -500.265625 674.046875 -507.007812 673.40625 -514.171875 C 673.054688 -518.070312 671.671875 -521.664062 669.25 -524.941406 L 667.894531 -526.78125 L 666.597656 -528.664062 C 664.125 -532.253906 661.71875 -534.550781 659.375 -535.5625 C 654.957031 -537.464844 650.53125 -538.167969 646.09375 -537.679688 C 642.917969 -537.328125 639.003906 -535.382812 634.351562 -531.835938 Z M 634.714844 -532.113281 "/></g></g></g><g fill="#bd0000" fill-opacity="1"><g transform="translate(283.621938, 1117.317334)"><g><path d="M 412.625 -838.984375 C 446.070312 -844.046875 477.585938 -840.253906 507.171875 -827.609375 C 536.753906 -814.972656 561.832031 -796.007812 582.40625 -770.71875 C 602.976562 -745.4375 615.6875 -716.78125 620.53125 -684.75 C 625.59375 -651.300781 622.007812 -619.632812 609.78125 -589.75 C 597.5625 -559.863281 579.132812 -534.863281 554.5 -514.75 C 529.875 -494.644531 500.835938 -482.0625 467.390625 -477 C 441.046875 -473.019531 416.753906 -473.535156 394.515625 -478.546875 C 372.273438 -483.554688 352.96875 -484.820312 336.59375 -482.34375 C 325.207031 -480.613281 316.039062 -475.035156 309.09375 -465.609375 C 302.144531 -456.191406 299.535156 -445.789062 301.265625 -434.40625 C 302.878906 -423.726562 308.34375 -415.269531 317.65625 -409.03125 C 326.976562 -402.789062 337.332031 -400.535156 348.71875 -402.265625 C 365.09375 -404.742188 383.160156 -411.660156 402.921875 -423.015625 C 422.679688 -434.378906 445.734375 -442.050781 472.078125 -446.03125 C 505.523438 -451.09375 537.066406 -447.128906 566.703125 -434.140625 C 596.335938 -421.148438 621.46875 -401.832031 642.09375 -376.1875 C 662.71875 -350.550781 675.5625 -321 680.625 -287.53125 C 685.46875 -255.5 681.773438 -224.539062 669.546875 -194.65625 C 657.328125 -164.78125 638.957031 -139.429688 614.4375 -118.609375 C 589.914062 -97.796875 560.929688 -84.859375 527.484375 -79.796875 L 372.640625 -56.375 C 321.390625 -48.625 271.804688 -51.5 223.890625 -65 C 175.972656 -78.507812 132.0625 -100.445312 92.15625 -130.8125 C 52.25 -161.175781 19.242188 -197.679688 -6.859375 -240.328125 C -32.972656 -282.984375 -49.851562 -329.582031 -57.5 -380.125 C -65.46875 -432.789062 -63.113281 -483.382812 -50.4375 -531.90625 C -37.757812 -580.4375 -16.59375 -624.597656 13.0625 -664.390625 C 42.726562 -704.191406 78.859375 -737.328125 121.453125 -763.796875 C 164.046875 -790.265625 211.269531 -807.789062 263.125 -816.375 Z M 412.625 -838.984375 "/></g></g></g><g fill="#bd0000" fill-opacity="1"><g transform="translate(985.978734, 1009.515373)"><g><path d="M 562.71875 -48.34375 C 531.164062 -45.570312 501.441406 -50.726562 473.546875 -63.8125 C 445.660156 -76.90625 422.875 -95.679688 405.1875 -120.140625 C 387.507812 -144.609375 377.285156 -172.617188 374.515625 -204.171875 L 371.296875 -240.75 C 370.734375 -247.207031 367.910156 -252.5625 362.828125 -256.8125 C 357.753906 -261.0625 351.992188 -262.90625 345.546875 -262.34375 C 339.085938 -261.78125 333.734375 -258.960938 329.484375 -253.890625 C 325.234375 -248.816406 323.390625 -243.050781 323.953125 -236.59375 L 327.171875 -200.015625 C 330.003906 -167.742188 325.023438 -138.035156 312.234375 -110.890625 C 299.441406 -83.753906 280.796875 -61.519531 256.296875 -44.1875 C 231.796875 -26.863281 203.410156 -16.78125 171.140625 -13.9375 C 140.296875 -11.226562 111.125 -16.253906 83.625 -29.015625 C 56.132812 -41.785156 33.546875 -60.398438 15.859375 -84.859375 C -1.828125 -109.328125 -12.085938 -137.695312 -14.921875 -169.96875 L -52.15625 -593.8125 C -54.988281 -626.09375 -49.8125 -655.640625 -36.625 -682.453125 C -23.445312 -709.265625 -4.4375 -731.347656 20.40625 -748.703125 C 45.257812 -766.066406 73.109375 -776.101562 103.953125 -778.8125 C 136.222656 -781.65625 165.929688 -776.675781 193.078125 -763.875 C 220.222656 -751.082031 242.441406 -732.617188 259.734375 -708.484375 C 277.035156 -684.347656 287.101562 -656.140625 289.9375 -623.859375 L 293.34375 -585.140625 C 293.84375 -579.398438 296.628906 -574.40625 301.703125 -570.15625 C 306.773438 -565.90625 312.539062 -564.0625 319 -564.625 C 325.445312 -565.1875 330.796875 -568.003906 335.046875 -573.078125 C 339.304688 -578.148438 341.1875 -583.554688 340.6875 -589.296875 L 337.28125 -628.015625 C 334.507812 -659.585938 339.710938 -688.78125 352.890625 -715.59375 C 366.078125 -742.40625 385.257812 -764.6875 410.4375 -782.4375 C 435.613281 -800.1875 463.976562 -810.445312 495.53125 -813.21875 C 527.082031 -815.988281 556.445312 -810.796875 583.625 -797.640625 C 610.800781 -784.492188 633.21875 -765.867188 650.875 -741.765625 C 668.53125 -717.660156 678.742188 -689.820312 681.515625 -658.25 L 718.75 -234.40625 C 721.519531 -202.851562 716.328125 -173.488281 703.171875 -146.3125 C 690.015625 -119.144531 671.203125 -96.71875 646.734375 -79.03125 C 622.273438 -61.34375 594.269531 -51.113281 562.71875 -48.34375 Z M 562.71875 -48.34375 "/></g></g></g><g fill="#bd0000" fill-opacity="1"><g transform="translate(1714.960183, 944.191341)"><g><path d="M 93.578125 -16.28125 C 65.191406 -29.289062 42.242188 -48.007812 24.734375 -72.4375 C 7.222656 -96.863281 -3.148438 -123.976562 -6.390625 -153.78125 C -9.628906 -183.582031 -5.097656 -212.320312 7.203125 -240 L 200.875 -677.8125 C 215.21875 -710.5625 236.222656 -735.546875 263.890625 -752.765625 C 291.566406 -769.992188 321.410156 -779.171875 353.421875 -780.296875 C 385.441406 -781.421875 415.679688 -774.222656 444.140625 -758.703125 C 472.609375 -743.191406 495.148438 -719.066406 511.765625 -686.328125 L 728.375 -257.296875 C 742.707031 -230.253906 748.789062 -201.765625 746.625 -171.828125 C 744.46875 -141.898438 735.410156 -114.320312 719.453125 -89.09375 C 703.492188 -63.863281 681.285156 -44.0625 652.828125 -29.6875 C 625.066406 -16.0625 596.039062 -10.144531 565.75 -11.9375 C 535.457031 -13.738281 507.875 -22.800781 483 -39.125 C 458.132812 -55.457031 438.519531 -77.488281 424.15625 -105.21875 L 326.640625 -298.421875 C 325.859375 -300.554688 324.039062 -301.226562 321.1875 -300.4375 C 318.332031 -299.65625 317.304688 -297.472656 318.109375 -293.890625 L 350.15625 -173.671875 L 319.4375 -102.71875 C 306.4375 -74.320312 287.722656 -51.367188 263.296875 -33.859375 C 238.878906 -16.347656 211.765625 -5.972656 181.953125 -2.734375 C 152.140625 0.503906 122.679688 -4.007812 93.578125 -16.28125 Z M 93.578125 -16.28125 "/></g></g></g><g fill="#bd0000" fill-opacity="1"><g transform="translate(2312.256217, 926.508635)"><g><path d="M 526.171875 -754.09375 C 558.554688 -753.300781 587.691406 -744.664062 613.578125 -728.1875 C 639.472656 -711.707031 659.832031 -690.140625 674.65625 -663.484375 C 689.488281 -636.835938 696.519531 -607.679688 695.75 -576.015625 C 694.988281 -545.066406 686.738281 -517.003906 671 -491.828125 C 655.257812 -466.648438 634.414062 -446.457031 608.46875 -431.25 C 582.53125 -416.039062 553.363281 -408.832031 520.96875 -409.625 L 515.90625 -158.046875 C 515.132812 -126.378906 506.503906 -97.425781 490.015625 -71.1875 C 473.523438 -44.945312 451.945312 -24.226562 425.28125 -9.03125 C 398.625 6.15625 369.460938 13.359375 337.796875 12.578125 C 306.847656 11.828125 278.613281 3.21875 253.09375 -13.25 C 227.582031 -29.71875 207.414062 -51.457031 192.59375 -78.46875 C 177.769531 -105.476562 170.742188 -134.816406 171.515625 -166.484375 L 177.671875 -418.03125 C 146.003906 -418.800781 117.40625 -427.421875 91.875 -443.890625 C 66.351562 -460.359375 46.347656 -481.550781 31.859375 -507.46875 C 17.378906 -533.382812 10.519531 -561.816406 11.28125 -592.765625 C 12.050781 -624.429688 20.3125 -653.21875 36.0625 -679.125 C 51.820312 -705.03125 72.851562 -725.582031 99.15625 -740.78125 C 125.457031 -755.976562 154.441406 -763.191406 186.109375 -762.421875 Z M 526.171875 -754.09375 "/></g></g></g><g fill="#bd0000" fill-opacity="1"><g transform="translate(2977.544661, 946.299529)"><g/></g></g><g fill="#bd0000" fill-opacity="1"><g transform="translate(3229.391324, 962.164809)"><g/></g></g><g fill="#bd0000" fill-opacity="1"><g transform="translate(3480.823265, 983.535905)"><g/></g></g><g fill="#bd0000" fill-opacity="1"><g transform="translate(3727.214285, 1004.499751)"><g><path d="M 548.390625 -644.578125 C 573.910156 -664.015625 601.289062 -675.347656 630.53125 -678.578125 C 659.78125 -681.804688 688.078125 -677.53125 715.421875 -665.75 C 742.773438 -653.976562 765.40625 -635.09375 783.3125 -609.09375 C 801.445312 -584.507812 811.875 -557.085938 814.59375 -526.828125 C 817.3125 -496.566406 812.929688 -467.554688 801.453125 -439.796875 C 789.972656 -412.035156 771.832031 -388.378906 747.03125 -368.828125 L 578.1875 -241.4375 L 555.609375 -91.9375 C 550.867188 -60.601562 538.910156 -33.28125 519.734375 -9.96875 C 500.554688 13.34375 476.820312 30.691406 448.53125 42.078125 C 420.238281 53.460938 390.4375 56.789062 359.125 52.0625 C 328.507812 47.4375 301.359375 35.503906 277.671875 16.265625 C 253.992188 -2.960938 236.4375 -26.539062 225 -54.46875 C 213.570312 -82.40625 210.226562 -112.039062 214.96875 -143.375 L 237.546875 -292.875 L 113.828125 -464.453125 C 95.910156 -490.453125 85.570312 -518.40625 82.8125 -548.3125 C 80.050781 -578.226562 84.429688 -607.238281 95.953125 -635.34375 C 107.472656 -663.457031 125.523438 -686.582031 150.109375 -704.71875 C 174.910156 -724.269531 201.929688 -735.660156 231.171875 -738.890625 C 260.421875 -742.117188 288.363281 -737.894531 315 -726.21875 C 341.632812 -714.550781 363.910156 -695.722656 381.828125 -669.734375 L 453.296875 -571.546875 Z M 548.390625 -644.578125 "/></g></g></g></g></g><g transform="matrix(1, 0, 0, 1, 3093, 225)"><g clip-path="url(#0001381257)"><g fill="#ffef42" fill-opacity="1"><g transform="translate(183.835419, 933.233089)"><g><path d="M 583.828125 -861.472656 C 642.285156 -856.425781 694.554688 -837.15625 740.625 -803.664062 C 784.800781 -771.554688 818.632812 -730.949219 842.125 -681.847656 C 866.402344 -631.09375 876.070312 -577.101562 871.132812 -519.875 C 866.242188 -463.269531 847.652344 -412.363281 815.363281 -367.160156 C 784.605469 -324.105469 745.457031 -290.542969 697.917969 -266.472656 C 647.082031 -240.738281 592.125 -230.417969 533.039062 -235.519531 L 545.230469 -376.746094 L 686.507812 -365.160156 L 665.941406 -114.378906 C 660.949219 -56.539062 641.84375 -4.476562 608.628906 41.796875 C 576.722656 86.25 536.347656 120.460938 487.507812 144.433594 C 436.375 169.535156 381.941406 179.589844 324.199219 174.605469 C 266.863281 169.65625 215.261719 150.292969 169.390625 116.519531 C 125.667969 84.324219 92.144531 43.472656 68.816406 -6.039062 C 44.835938 -56.945312 35.300781 -110.863281 40.21875 -167.789062 L 61.859375 -418.480469 L 203.089844 -406.289062 L 190.894531 -265.058594 C 132.84375 -270.070312 80.882812 -289.464844 35.011719 -323.242188 C -8.398438 -355.203125 -41.628906 -395.167969 -64.6875 -443.140625 C -88.753906 -493.210938 -98.34375 -546.546875 -93.457031 -603.152344 C -88.5625 -659.863281 -70.238281 -711.019531 -38.492188 -756.617188 C -7.375 -801.308594 32.578125 -835.8125 81.363281 -860.132812 C 132.347656 -885.542969 186.863281 -895.746094 244.914062 -890.734375 Z M 559.441406 -579.019531 L 220.527344 -608.277344 C 215.457031 -608.71875 211.230469 -608.089844 207.84375 -606.402344 C 202.261719 -603.621094 197.703125 -599.695312 194.171875 -594.621094 C 191.277344 -590.460938 189.550781 -585.175781 188.996094 -578.765625 C 188.558594 -573.6875 189.167969 -569.417969 190.832031 -565.957031 C 193.503906 -560.402344 197.59375 -555.59375 203.105469 -551.539062 C 206.152344 -549.292969 210.210938 -547.953125 215.28125 -547.515625 L 356.507812 -535.320312 L 322.671875 -143.40625 C 322.136719 -137.210938 323.007812 -131.699219 325.289062 -126.863281 C 328.222656 -120.632812 332.289062 -115.605469 337.484375 -111.777344 C 340.53125 -109.535156 344.234375 -108.222656 348.585938 -107.847656 C 353.964844 -107.382812 358.632812 -108.121094 362.585938 -110.0625 C 368.832031 -113.128906 374.074219 -117.613281 378.3125 -123.515625 C 381.238281 -127.59375 382.929688 -132.273438 383.386719 -137.550781 L 415.589844 -530.21875 L 557.425781 -517.976562 C 562.894531 -517.503906 567.039062 -517.980469 569.855469 -519.40625 C 575.96875 -522.503906 580.90625 -526.683594 584.671875 -531.957031 C 586.902344 -535.078125 588.238281 -539.179688 588.675781 -544.257812 C 589.183594 -550.152344 588.417969 -555.234375 586.375 -559.503906 C 583.542969 -565.429688 579.394531 -570.375 573.933594 -574.34375 C 570.371094 -576.933594 565.539062 -578.492188 559.441406 -579.019531 Z M 559.441406 -579.019531 "/></g></g></g><g fill="#bd0000" fill-opacity="1"><g transform="translate(183.835419, 933.233089)"><g><path d="M 571.640625 -720.25 C 603.910156 -717.457031 632.453125 -707.039062 657.265625 -689 C 682.085938 -670.957031 701.078125 -648.179688 714.234375 -620.671875 C 727.398438 -593.160156 732.625 -563.625 729.90625 -532.0625 C 727.238281 -501.21875 717.273438 -473.710938 700.015625 -449.546875 C 682.753906 -425.390625 660.707031 -406.519531 633.875 -392.9375 C 607.050781 -379.363281 577.5 -373.96875 545.21875 -376.75 L 524.671875 -125.96875 C 521.953125 -94.40625 511.550781 -66.035156 493.46875 -40.859375 C 475.394531 -15.691406 452.585938 3.648438 425.046875 17.171875 C 397.503906 30.691406 367.953125 36.09375 336.390625 33.375 C 305.546875 30.707031 277.894531 20.367188 253.4375 2.359375 C 228.976562 -15.648438 210.179688 -38.585938 197.046875 -66.453125 C 183.921875 -94.328125 178.71875 -124.046875 181.4375 -155.609375 L 203.078125 -406.296875 C 171.523438 -409.015625 143.515625 -419.378906 119.046875 -437.390625 C 94.585938 -455.398438 75.925781 -477.785156 63.0625 -504.546875 C 50.207031 -531.304688 45.113281 -560.109375 47.78125 -590.953125 C 50.5 -622.515625 60.515625 -650.734375 77.828125 -675.609375 C 95.148438 -700.492188 117.40625 -719.710938 144.59375 -733.265625 C 171.789062 -746.816406 201.164062 -752.234375 232.71875 -749.515625 Z M 571.640625 -720.25 "/></g></g></g></g></g></svg>