<svg xmlns="http://www.w3.org/2000/svg" xmlns:xlink="http://www.w3.org/1999/xlink" width="6912" zoomAndPan="magnify" viewBox="0 0 5184 2592.000001" height="3456" preserveAspectRatio="xMidYMid meet" version="1.0"><defs><g/><clipPath id="aa8c4ed908"><rect x="0" width="3768" y="0" height="1422"/></clipPath><clipPath id="641432cad1"><rect x="0" width="1352" y="0" height="1432"/></clipPath></defs><g transform="matrix(1, 0, 0, 1, 222, 829)"><g clip-path="url(#aa8c4ed908)"><g fill="#ffef42" fill-opacity="1"><g transform="translate(279.307376, 1136.659503)"><g><path d="M 372.457031 -938.621094 C 429.90625 -947.460938 484.652344 -940.84375 536.691406 -918.773438 C 585.617188 -898.019531 627.035156 -866.910156 660.945312 -825.453125 C 696.34375 -782.171875 718.28125 -732.992188 726.753906 -677.917969 C 735.480469 -621.207031 729.328125 -566.957031 708.296875 -515.171875 C 688.003906 -465.21875 657.207031 -423.289062 615.894531 -389.382812 C 573.203125 -354.34375 523.597656 -332.472656 467.074219 -323.773438 C 425.042969 -317.308594 385.070312 -318.292969 347.152344 -326.734375 C 343.402344 -327.566406 340.4375 -328.050781 338.257812 -328.191406 C 338.789062 -328.15625 339.976562 -328.28125 341.820312 -328.566406 C 354.316406 -330.488281 366.121094 -334.847656 377.234375 -341.640625 C 388.070312 -348.269531 397.109375 -356.515625 404.34375 -366.382812 C 411.578125 -376.25 416.726562 -387.347656 419.789062 -399.679688 C 422.929688 -412.316406 423.535156 -424.886719 421.613281 -437.382812 C 419.4375 -451.507812 414.363281 -464.710938 406.382812 -476.984375 C 398.828125 -488.605469 389.511719 -498.105469 378.429688 -505.484375 C 368.59375 -512.027344 357.757812 -516.574219 345.921875 -519.125 C 334.566406 -521.570312 323.367188 -521.941406 312.324219 -520.242188 C 310.480469 -519.957031 309.308594 -519.71875 308.8125 -519.527344 C 310.851562 -520.316406 313.535156 -521.671875 316.855469 -523.59375 C 350.480469 -543.042969 388.308594 -556 430.339844 -562.46875 C 488.25 -571.382812 543.414062 -564.425781 595.835938 -541.601562 C 644.558594 -520.390625 685.796875 -488.917969 719.542969 -447.183594 C 754.714844 -403.683594 776.625 -353.847656 785.269531 -297.675781 C 793.785156 -242.328125 787.527344 -188.765625 766.496094 -136.980469 C 746.554688 -87.882812 716.472656 -46.171875 676.257812 -11.84375 C 633.261719 24.855469 583.039062 47.625 525.589844 56.464844 L 377.375 79.273438 C 309.023438 89.792969 242.488281 86.019531 177.769531 67.960938 C 115.273438 50.519531 58.023438 22.113281 6.011719 -17.257812 C -45.820312 -56.492188 -88.742188 -103.726562 -122.757812 -158.96875 C -157.464844 -215.335938 -179.9375 -276.761719 -190.167969 -343.238281 C -200.757812 -412.066406 -197.707031 -478.742188 -181.015625 -543.265625 C -164.574219 -606.824219 -136.953125 -664.777344 -98.15625 -717.125 C -59.640625 -769.085938 -12.753906 -812.332031 42.515625 -846.867188 C 98.484375 -881.84375 160.152344 -904.988281 227.519531 -916.304688 Z M 413.75 -670.28125 L 272.484375 -648.558594 C 240.570312 -643.195312 211.875 -632.554688 186.390625 -616.628906 C 160.199219 -600.265625 138.058594 -579.875 119.960938 -555.460938 C 102.152344 -531.429688 89.441406 -504.699219 81.828125 -475.269531 C 74.460938 -446.800781 73.242188 -416.554688 78.171875 -384.53125 C 82.832031 -354.246094 92.917969 -326.507812 108.429688 -301.316406 C 124.636719 -274.996094 145.117188 -252.464844 169.867188 -233.730469 C 194.441406 -215.128906 221.398438 -201.734375 250.746094 -193.542969 C 277.863281 -185.976562 306.308594 -184.484375 336.082031 -189.066406 L 484.292969 -211.871094 C 490.898438 -212.890625 496.132812 -215.046875 500 -218.347656 C 506.640625 -224.015625 511.625 -230.949219 514.957031 -239.148438 C 517.195312 -244.65625 517.851562 -250.402344 516.933594 -256.382812 C 515.71875 -264.265625 512.886719 -270.964844 508.429688 -276.472656 C 502.546875 -283.75 495.554688 -289.152344 487.457031 -292.675781 C 483.054688 -294.59375 477.78125 -295.078125 471.636719 -294.132812 C 463.242188 -292.839844 456.960938 -290.988281 452.792969 -288.578125 C 419.167969 -269.128906 386.109375 -256.90625 353.617188 -251.90625 C 331.671875 -248.527344 310.058594 -249.128906 288.785156 -253.710938 C 267.027344 -258.394531 246.761719 -266.980469 227.992188 -279.476562 C 207.972656 -292.804688 191.554688 -309.320312 178.746094 -329.027344 C 165.511719 -349.386719 157.023438 -371.742188 153.277344 -396.089844 C 149.675781 -419.488281 150.679688 -442.496094 156.296875 -465.109375 C 161.835938 -487.410156 171.535156 -508.015625 185.402344 -526.925781 C 199.269531 -545.835938 216.003906 -561.285156 235.609375 -573.273438 C 255.488281 -585.425781 277.125 -593.300781 300.527344 -596.902344 C 333.015625 -601.902344 368.222656 -600.183594 406.140625 -591.742188 C 410.839844 -590.695312 417.386719 -590.820312 425.78125 -592.113281 C 433.3125 -593.269531 439.269531 -595.648438 443.644531 -599.242188 C 449.40625 -603.96875 453.773438 -610 456.757812 -617.34375 C 458.996094 -622.851562 459.546875 -629.277344 458.417969 -636.621094 C 457.457031 -642.875 454.910156 -648.527344 450.785156 -653.570312 C 445.167969 -660.441406 438.464844 -665.527344 430.675781 -668.832031 C 425.996094 -670.816406 420.355469 -671.300781 413.75 -670.28125 Z M 413.75 -670.28125 "/></g></g></g><g fill="#ffef42" fill-opacity="1"><g transform="translate(951.652052, 1031.729991)"><g><path d="M 550.996094 87.53125 C 496.496094 92.457031 444.828125 83.535156 395.984375 60.765625 C 348.035156 38.414062 308.683594 6.078125 277.929688 -36.230469 C 246.25 -79.8125 227.921875 -129.140625 222.945312 -184.222656 L 219.777344 -219.242188 C 221.140625 -204.195312 225.402344 -189.910156 232.570312 -176.382812 C 239.546875 -163.21875 248.648438 -151.949219 259.882812 -142.582031 C 271.113281 -133.210938 283.828125 -126.277344 298.03125 -121.773438 C 312.625 -117.148438 327.445312 -115.515625 342.488281 -116.875 C 357.53125 -118.238281 371.820312 -122.5 385.347656 -129.667969 C 398.511719 -136.644531 409.78125 -145.746094 419.148438 -156.980469 C 428.519531 -168.210938 435.453125 -180.925781 439.953125 -195.128906 C 444.582031 -209.722656 446.214844 -224.542969 444.851562 -239.585938 L 448.019531 -204.566406 C 453.015625 -149.300781 444.234375 -97.578125 421.671875 -49.398438 C 399.386719 -1.804688 366.835938 37.21875 324.011719 67.675781 C 280.65625 98.511719 231.347656 116.425781 176.082031 121.421875 C 122.476562 126.269531 71.515625 117.554688 23.191406 95.277344 C -24.613281 73.242188 -63.953125 40.984375 -94.832031 -1.496094 C -126.507812 -45.078125 -144.867188 -94.75 -149.90625 -150.515625 L -186.59375 -556.328125 C -191.660156 -612.390625 -182.371094 -664.632812 -158.722656 -713.046875 C -135.929688 -759.699219 -103.117188 -798.066406 -60.285156 -828.148438 C -16.742188 -858.730469 31.832031 -876.441406 85.4375 -881.285156 C 140.703125 -886.28125 192.425781 -877.5 240.605469 -854.941406 C 287.929688 -832.78125 326.777344 -800.625 357.152344 -758.46875 C 388.25 -715.304688 406.3125 -665.941406 411.332031 -610.378906 L 414.683594 -573.300781 C 413.191406 -589.832031 408.375 -605.34375 400.242188 -619.832031 C 393.429688 -631.964844 384.84375 -642.351562 374.488281 -650.988281 C 363.257812 -660.359375 350.542969 -667.292969 336.339844 -671.796875 C 321.746094 -676.421875 306.925781 -678.054688 291.882812 -676.695312 C 276.839844 -675.335938 262.550781 -671.070312 249.023438 -663.902344 C 235.859375 -656.925781 224.59375 -647.824219 215.222656 -636.59375 C 206.585938 -626.238281 200.003906 -614.480469 195.476562 -601.320312 C 190.070312 -585.605469 188.117188 -569.484375 189.609375 -552.953125 L 186.257812 -590.03125 C 181.253906 -645.410156 190.574219 -697.308594 214.226562 -745.722656 C 236.925781 -792.191406 269.734375 -830.632812 312.652344 -861.050781 C 356.617188 -892.210938 405.851562 -910.253906 460.347656 -915.179688 C 515.429688 -920.160156 567.246094 -910.972656 615.800781 -887.625 C 662.152344 -865.335938 700.492188 -833.601562 730.8125 -792.421875 C 762.761719 -749.035156 781.238281 -699.648438 786.246094 -644.273438 L 822.929688 -238.460938 C 827.910156 -183.382812 818.726562 -131.566406 795.378906 -83.011719 C 772.960938 -36.386719 740.828125 2.128906 698.984375 32.546875 C 655.402344 64.222656 606.074219 82.550781 550.996094 87.53125 Z M 526.550781 -182.863281 C 531.898438 -183.347656 536.167969 -184.746094 539.355469 -187.066406 C 544.28125 -190.644531 548.0625 -195.179688 550.699219 -200.664062 C 552.410156 -204.21875 553.023438 -208.667969 552.539062 -214.015625 L 515.851562 -619.828125 C 515.398438 -624.875 514.175781 -628.746094 512.191406 -631.441406 C 508.582031 -636.34375 503.898438 -640.179688 498.144531 -642.949219 C 494.589844 -644.65625 490.140625 -645.269531 484.792969 -644.785156 C 478.867188 -644.25 473.8125 -642.503906 469.636719 -639.542969 C 464.414062 -635.839844 460.589844 -631.511719 458.171875 -626.558594 C 456.703125 -623.550781 456.195312 -619.523438 456.652344 -614.476562 L 460.003906 -577.398438 C 461.996094 -555.375 459.398438 -533.914062 452.210938 -513.019531 C 445.90625 -494.679688 436.402344 -477.902344 423.703125 -462.679688 C 410.273438 -446.582031 394.417969 -433.6875 376.132812 -424 C 357.484375 -414.121094 337.550781 -408.21875 316.324219 -406.300781 C 295.101562 -404.382812 274.429688 -406.609375 254.3125 -412.988281 C 234.585938 -419.238281 216.675781 -429.078125 200.578125 -442.507812 C 185.355469 -455.207031 172.996094 -470.011719 163.503906 -486.921875 C 152.6875 -506.1875 146.28125 -526.832031 144.292969 -548.855469 L 140.941406 -585.9375 C 140.375 -592.171875 139.019531 -596.78125 136.871094 -599.761719 C 134 -603.753906 130.199219 -606.851562 125.476562 -609.066406 C 121.613281 -610.875 116.414062 -611.484375 109.878906 -610.894531 C 104.433594 -610.402344 99.71875 -608.757812 95.746094 -605.96875 C 91.0625 -602.679688 87.554688 -598.648438 85.226562 -593.882812 C 83.757812 -590.875 83.28125 -586.503906 83.800781 -580.769531 L 120.484375 -174.957031 C 121.03125 -168.925781 122.460938 -164.3125 124.78125 -161.125 C 127.898438 -156.835938 131.921875 -153.554688 136.847656 -151.28125 C 141.261719 -149.25 146.191406 -148.480469 151.636719 -148.972656 C 158.171875 -149.5625 163.175781 -151.09375 166.65625 -153.566406 C 170.664062 -156.417969 173.710938 -160.070312 175.796875 -164.527344 C 177.605469 -168.390625 178.214844 -173.589844 177.625 -180.125 L 174.460938 -215.144531 C 172.542969 -236.367188 174.769531 -257.039062 181.144531 -277.15625 C 187.398438 -296.882812 197.238281 -314.792969 210.667969 -330.890625 C 224.097656 -346.988281 239.953125 -359.882812 258.238281 -369.570312 C 276.886719 -379.453125 296.824219 -385.351562 318.046875 -387.269531 C 339.269531 -389.1875 359.941406 -386.960938 380.058594 -380.582031 C 399.785156 -374.332031 417.695312 -364.492188 433.792969 -351.0625 C 449.890625 -337.632812 462.785156 -321.777344 472.472656 -303.492188 C 482.355469 -284.84375 488.253906 -264.90625 490.171875 -243.683594 L 493.339844 -208.664062 C 493.820312 -203.316406 495.222656 -199.050781 497.539062 -195.859375 C 500.78125 -191.402344 505.167969 -187.882812 510.699219 -185.304688 C 515.339844 -183.140625 520.625 -182.328125 526.550781 -182.863281 Z M 526.550781 -182.863281 "/></g></g></g><g fill="#ffef42" fill-opacity="1"><g transform="translate(1649.589935, 967.398228)"><g><path d="M 33.390625 107.746094 C -15.730469 85.40625 -55.734375 52.808594 -86.621094 9.949219 C -117.351562 -32.6875 -135.613281 -80.089844 -141.410156 -132.257812 C -147.273438 -185.039062 -139.425781 -235.84375 -117.859375 -284.675781 L 66.429688 -704.179688 C 91.128906 -760.992188 128.601562 -805.128906 178.84375 -836.582031 C 225.773438 -865.964844 276.636719 -881.691406 331.429688 -883.761719 C 386.855469 -885.855469 439.101562 -873.597656 488.175781 -846.996094 C 540.140625 -818.828125 580.511719 -776.597656 609.289062 -720.308594 L 817.929688 -309.640625 C 843.125 -262.464844 853.820312 -211.566406 850.015625 -156.941406 C 846.4375 -105.601562 830.988281 -58.21875 803.671875 -14.789062 C 775.132812 30.582031 736.101562 65.84375 686.578125 91 C 637.742188 115.136719 586.910156 125.707031 534.078125 122.710938 C 480.953125 119.699219 432.34375 103.804688 388.253906 75.03125 C 344.527344 46.488281 310.285156 8.433594 285.527344 -39.140625 L 187.300781 -232.460938 L 184.472656 -240.242188 C 190.5 -223.640625 199.535156 -208.820312 211.574219 -195.777344 C 226.003906 -180.136719 243.199219 -168.632812 263.152344 -161.257812 C 289.730469 -151.4375 316.429688 -150.257812 343.253906 -157.726562 C 359.507812 -162.25 374.375 -169.691406 387.851562 -180.050781 C 404.882812 -193.140625 417.945312 -209.421875 427.042969 -228.890625 C 434.589844 -245.039062 438.679688 -261.964844 439.316406 -279.664062 C 439.714844 -290.789062 438.699219 -301.6875 436.269531 -312.359375 L 303.910156 -282.214844 L 434.988281 -317.519531 L 478.242188 -156.914062 L 430.382812 -45.550781 C 407.277344 5.300781 374.296875 46.171875 331.4375 77.058594 C 288.800781 107.789062 241.398438 126.050781 189.230469 131.847656 C 137.390625 137.609375 86.707031 130.125 37.179688 109.398438 L 35.273438 108.601562 Z M 145.78125 -139.394531 L 89.585938 -15.824219 L 141.988281 -141.050781 C 148.257812 -138.425781 154.011719 -137.40625 159.25 -137.988281 C 164.15625 -138.53125 168.640625 -140.269531 172.699219 -143.195312 C 176.535156 -145.960938 179.285156 -149.144531 180.945312 -152.746094 L 210.175781 -220.765625 L 334.894531 -167.167969 L 203.820312 -131.867188 L 172.144531 -249.480469 L 171.550781 -252.074219 C 164.265625 -284.0625 167.441406 -314.648438 181.078125 -343.824219 C 190.664062 -364.339844 204.4375 -381.503906 222.398438 -395.308594 C 236.804688 -406.378906 252.820312 -414.371094 270.445312 -419.277344 C 300.003906 -427.503906 328.945312 -426.386719 357.265625 -415.921875 C 378.089844 -408.226562 396.027344 -396.222656 411.082031 -379.914062 C 423.742188 -366.195312 433.269531 -350.523438 439.671875 -332.898438 L 312.074219 -286.570312 L 433.097656 -348.058594 L 526.359375 -164.476562 C 529.21875 -158.984375 532.648438 -154.9375 536.644531 -152.324219 C 540.28125 -149.953125 544.546875 -148.628906 549.441406 -148.351562 C 554.632812 -148.054688 559.359375 -148.960938 563.628906 -151.0625 C 568.546875 -153.558594 571.957031 -156.320312 573.859375 -159.34375 C 576.984375 -164.3125 578.757812 -169.804688 579.175781 -175.8125 C 579.363281 -178.542969 578.269531 -182.160156 575.882812 -186.667969 L 367.558594 -596.714844 C 364.328125 -603.027344 361.40625 -606.894531 358.789062 -608.316406 C 353.28125 -611.300781 347.578125 -612.679688 341.679688 -612.457031 C 335.152344 -612.210938 328.898438 -610.214844 322.910156 -606.464844 C 320.234375 -604.789062 317.597656 -600.960938 314.996094 -594.980469 L 130.496094 -175 C 128.636719 -170.789062 127.949219 -166.539062 128.425781 -162.242188 C 128.96875 -157.332031 130.707031 -152.851562 133.632812 -148.789062 C 136.398438 -144.953125 140.449219 -141.820312 145.78125 -139.394531 Z M 145.78125 -139.394531 "/></g></g></g><g fill="#ffef42" fill-opacity="1"><g transform="translate(2221.529969, 949.01171)"><g><path d="M 505.054688 -859.128906 C 561.230469 -857.894531 612.363281 -842.691406 658.453125 -813.511719 C 702.640625 -785.535156 737.464844 -748.808594 762.929688 -703.328125 C 789.246094 -656.3125 801.804688 -605.308594 800.59375 -550.3125 C 799.398438 -495.917969 784.761719 -446.128906 756.675781 -400.945312 C 729.925781 -357.910156 694.570312 -323.433594 650.617188 -297.511719 C 603.617188 -269.796875 551.730469 -256.5625 494.949219 -257.808594 L 497.929688 -393.523438 L 633.65625 -391.125 L 629.398438 -150.195312 C 628.179688 -94.613281 613.117188 -43.6875 584.214844 2.578125 C 556.453125 47.015625 519.96875 82.191406 474.765625 108.101562 C 427.441406 135.226562 376.035156 148.179688 320.546875 146.960938 C 265.453125 145.75 214.949219 130.414062 169.035156 100.953125 C 125.273438 72.871094 90.726562 35.886719 65.398438 -9.996094 C 39.351562 -57.171875 26.929688 -108.113281 28.132812 -162.820312 L 33.425781 -403.726562 L 169.140625 -400.746094 L 166.160156 -265.03125 C 110.375 -266.257812 59.523438 -281.601562 13.613281 -311.0625 C -29.832031 -338.941406 -64.046875 -375.09375 -89.027344 -419.523438 C -115.101562 -465.898438 -127.542969 -516.28125 -126.347656 -570.675781 C -125.148438 -625.175781 -110.78125 -675.1875 -83.238281 -720.714844 C -56.246094 -765.335938 -20.183594 -800.761719 24.945312 -827 C 72.109375 -854.414062 123.582031 -867.511719 179.367188 -866.285156 Z M 499.09375 -587.699219 L 173.40625 -594.855469 C 168.53125 -594.960938 164.53125 -594.105469 161.398438 -592.28125 C 156.234375 -589.28125 152.121094 -585.25 149.058594 -580.1875 C 146.542969 -576.03125 145.21875 -570.875 145.082031 -564.714844 C 144.976562 -559.832031 145.824219 -555.789062 147.625 -552.585938 C 150.515625 -547.441406 154.722656 -543.097656 160.238281 -539.558594 C 163.289062 -537.601562 167.25 -536.570312 172.121094 -536.460938 L 307.835938 -533.480469 L 299.5625 -156.859375 C 299.433594 -150.910156 300.605469 -145.691406 303.078125 -141.210938 C 306.265625 -135.4375 310.460938 -130.882812 315.660156 -127.542969 C 318.710938 -125.585938 322.328125 -124.5625 326.511719 -124.46875 C 331.679688 -124.355469 336.09375 -125.347656 339.753906 -127.445312 C 345.535156 -130.757812 350.269531 -135.367188 353.957031 -141.269531 C 356.503906 -145.34375 357.832031 -149.921875 357.945312 -154.992188 L 364.613281 -532.234375 L 500.910156 -529.238281 C 506.167969 -529.121094 510.097656 -529.832031 512.707031 -531.371094 C 518.355469 -534.703125 522.820312 -539.003906 526.09375 -544.273438 C 528.035156 -547.394531 529.058594 -551.394531 529.164062 -556.277344 C 529.289062 -561.9375 528.242188 -566.746094 526.03125 -570.703125 C 522.957031 -576.191406 518.691406 -580.664062 513.226562 -584.121094 C 509.664062 -586.378906 504.953125 -587.570312 499.09375 -587.699219 Z M 499.09375 -587.699219 "/></g></g></g><g fill="#ffef42" fill-opacity="1"><g transform="translate(2854.523265, 961.913803)"><g><path d="M 553.441406 -828.789062 C 609.457031 -824.335938 659.632812 -806.226562 703.972656 -774.457031 C 746.488281 -743.996094 779.152344 -705.332031 801.964844 -658.46875 C 825.550781 -610.023438 835.160156 -558.382812 830.804688 -503.546875 C 826.496094 -449.308594 809.027344 -400.441406 778.398438 -356.941406 C 749.230469 -315.507812 711.960938 -283.113281 666.59375 -259.753906 C 618.082031 -234.773438 565.519531 -224.535156 508.90625 -229.03125 L 519.65625 -364.351562 L 655.023438 -354.183594 L 636.96875 -113.894531 C 632.566406 -58.472656 614.613281 -8.492188 583.105469 36.039062 C 552.84375 78.816406 514.40625 111.84375 467.792969 135.121094 C 418.992188 159.488281 366.929688 169.476562 311.601562 165.082031 C 256.667969 160.71875 207.125 142.511719 162.976562 110.46875 C 120.894531 79.929688 88.523438 41.027344 65.863281 -6.234375 C 42.5625 -54.824219 33.082031 -106.394531 37.414062 -160.941406 L 56.496094 -401.148438 L 191.820312 -390.398438 L 181.070312 -255.078125 C 125.445312 -259.496094 75.558594 -277.726562 31.410156 -309.769531 C -10.367188 -340.09375 -42.453125 -378.148438 -64.851562 -423.933594 C -88.222656 -471.726562 -97.757812 -522.738281 -93.449219 -576.976562 C -89.132812 -631.320312 -71.921875 -680.425781 -41.816406 -724.300781 C -12.3125 -767.300781 25.71875 -800.601562 72.28125 -824.210938 C 120.933594 -848.882812 173.074219 -859.007812 228.699219 -854.585938 Z M 531.941406 -558.144531 L 207.195312 -583.945312 C 202.339844 -584.332031 198.292969 -583.703125 195.0625 -582.0625 C 189.734375 -579.363281 185.394531 -575.574219 182.046875 -570.695312 C 179.300781 -566.6875 177.683594 -561.617188 177.195312 -555.476562 C 176.808594 -550.609375 177.421875 -546.523438 179.035156 -543.222656 C 181.628906 -537.917969 185.578125 -533.34375 190.882812 -529.492188 C 193.816406 -527.363281 197.714844 -526.105469 202.570312 -525.71875 L 337.890625 -514.96875 L 308.058594 -139.441406 C 307.585938 -133.507812 308.457031 -128.234375 310.671875 -123.617188 C 313.523438 -117.671875 317.449219 -112.882812 322.449219 -109.253906 C 325.382812 -107.121094 328.933594 -105.894531 333.105469 -105.5625 C 338.261719 -105.152344 342.722656 -105.890625 346.496094 -107.773438 C 352.460938 -110.75 357.449219 -115.078125 361.46875 -120.761719 C 364.246094 -124.683594 365.832031 -129.175781 366.234375 -134.234375 L 394.503906 -510.472656 L 530.40625 -499.675781 C 535.648438 -499.257812 539.613281 -499.742188 542.304688 -501.128906 C 548.136719 -504.132812 552.839844 -508.167969 556.410156 -513.242188 C 558.523438 -516.246094 559.777344 -520.183594 560.164062 -525.050781 C 560.609375 -530.695312 559.84375 -535.554688 557.859375 -539.632812 C 555.105469 -545.289062 551.101562 -549.996094 545.847656 -553.761719 C 542.417969 -556.21875 537.78125 -557.679688 531.941406 -558.144531 Z M 531.941406 -558.144531 "/></g></g></g><g fill="#bd0000" fill-opacity="1"><g transform="translate(279.307376, 1136.659503)"><g><path d="M 393.109375 -804.453125 C 425.140625 -809.378906 455.332031 -805.828125 483.6875 -793.796875 C 512.050781 -781.765625 536.113281 -763.664062 555.875 -739.5 C 575.632812 -715.332031 587.875 -687.921875 592.59375 -657.265625 C 597.519531 -625.234375 594.164062 -594.894531 582.53125 -566.25 C 570.894531 -537.601562 553.304688 -513.617188 529.765625 -494.296875 C 506.234375 -474.984375 478.453125 -462.863281 446.421875 -457.9375 C 421.210938 -454.050781 397.953125 -454.476562 376.640625 -459.21875 C 355.335938 -463.96875 336.851562 -465.140625 321.1875 -462.734375 C 310.269531 -461.054688 301.492188 -455.691406 294.859375 -446.640625 C 288.234375 -437.597656 285.757812 -427.628906 287.4375 -416.734375 C 289.007812 -406.503906 294.265625 -398.414062 303.203125 -392.46875 C 312.140625 -386.519531 322.066406 -384.382812 332.984375 -386.0625 C 348.648438 -388.46875 365.929688 -395.132812 384.828125 -406.0625 C 403.722656 -417 425.773438 -424.410156 450.984375 -428.296875 C 483.015625 -433.222656 513.238281 -429.5 541.65625 -417.125 C 570.070312 -404.757812 594.1875 -386.328125 614 -361.828125 C 633.8125 -337.328125 646.179688 -309.0625 651.109375 -277.03125 C 655.828125 -246.351562 652.367188 -216.691406 640.734375 -188.046875 C 629.097656 -159.410156 611.5625 -135.09375 588.125 -115.09375 C 564.695312 -95.09375 536.96875 -82.628906 504.9375 -77.703125 L 356.734375 -54.890625 C 307.671875 -47.335938 260.175781 -49.96875 214.25 -62.78125 C 168.332031 -75.601562 126.226562 -96.507812 87.9375 -125.5 C 49.644531 -154.488281 17.945312 -189.367188 -7.15625 -230.140625 C -32.269531 -270.921875 -48.550781 -315.503906 -56 -363.890625 C -63.75 -414.316406 -61.609375 -462.773438 -49.578125 -509.265625 C -37.554688 -555.765625 -17.394531 -598.101562 10.90625 -636.28125 C 39.21875 -674.46875 73.734375 -706.285156 114.453125 -731.734375 C 155.179688 -757.191406 200.367188 -774.085938 250.015625 -782.421875 Z M 393.109375 -804.453125 "/></g></g></g><g fill="#bd0000" fill-opacity="1"><g transform="translate(951.652052, 1031.729991)"><g><path d="M 538.765625 -47.65625 C 508.554688 -44.925781 480.082031 -49.796875 453.34375 -62.265625 C 426.601562 -74.734375 404.734375 -92.65625 387.734375 -116.03125 C 370.734375 -139.414062 360.863281 -166.21875 358.125 -196.4375 L 354.96875 -231.453125 C 354.40625 -237.640625 351.691406 -242.757812 346.828125 -246.8125 C 341.972656 -250.875 336.453125 -252.625 330.265625 -252.0625 C 324.085938 -251.5 318.96875 -248.785156 314.90625 -243.921875 C 310.84375 -239.066406 309.09375 -233.546875 309.65625 -227.359375 L 312.8125 -192.34375 C 315.613281 -161.445312 310.921875 -132.988281 298.734375 -106.96875 C 286.554688 -80.945312 268.753906 -59.609375 245.328125 -42.953125 C 221.910156 -26.296875 194.753906 -16.566406 163.859375 -13.765625 C 134.335938 -11.097656 106.390625 -15.84375 80.015625 -28 C 53.648438 -40.15625 31.96875 -57.925781 14.96875 -81.3125 C -2.019531 -104.695312 -11.914062 -131.835938 -14.71875 -162.734375 L -51.390625 -568.546875 C -54.179688 -599.441406 -49.296875 -627.742188 -36.734375 -653.453125 C -24.179688 -679.171875 -6.023438 -700.367188 17.734375 -717.046875 C 41.492188 -733.734375 68.132812 -743.410156 97.65625 -746.078125 C 128.550781 -748.878906 157.015625 -744.1875 183.046875 -732 C 209.078125 -719.820312 230.398438 -702.191406 247.015625 -679.109375 C 263.640625 -656.035156 273.347656 -629.050781 276.140625 -598.15625 L 279.484375 -561.078125 C 279.984375 -555.585938 282.664062 -550.8125 287.53125 -546.75 C 292.394531 -542.6875 297.914062 -540.9375 304.09375 -541.5 C 310.28125 -542.0625 315.398438 -544.773438 319.453125 -549.640625 C 323.515625 -554.503906 325.296875 -559.679688 324.796875 -565.171875 L 321.453125 -602.25 C 318.722656 -632.457031 323.640625 -660.414062 336.203125 -686.125 C 348.765625 -711.832031 367.078125 -733.21875 391.140625 -750.28125 C 415.210938 -767.34375 442.351562 -777.238281 472.5625 -779.96875 C 502.78125 -782.707031 530.914062 -777.8125 556.96875 -765.28125 C 583.03125 -752.75 604.539062 -734.960938 621.5 -711.921875 C 638.46875 -688.878906 648.316406 -662.253906 651.046875 -632.046875 L 687.71875 -226.234375 C 690.457031 -196.015625 685.5625 -167.878906 673.03125 -141.828125 C 660.507812 -115.785156 642.554688 -94.265625 619.171875 -77.265625 C 595.785156 -60.265625 568.984375 -50.394531 538.765625 -47.65625 Z M 538.765625 -47.65625 "/></g></g></g><g fill="#bd0000" fill-opacity="1"><g transform="translate(1649.589935, 967.398228)"><g><path d="M 89.578125 -15.828125 C 62.359375 -28.203125 40.332031 -46.066406 23.5 -69.421875 C 6.675781 -92.773438 -3.316406 -118.71875 -6.484375 -147.25 C -9.660156 -175.789062 -5.390625 -203.320312 6.328125 -229.84375 L 190.71875 -649.578125 C 204.375 -680.972656 224.425781 -704.953125 250.875 -721.515625 C 277.332031 -738.078125 305.894531 -746.9375 336.5625 -748.09375 C 367.226562 -749.25 396.207031 -742.429688 423.5 -727.640625 C 450.789062 -712.847656 472.429688 -689.800781 488.421875 -658.5 L 696.921875 -248.15625 C 710.691406 -222.3125 716.578125 -195.050781 714.578125 -166.375 C 712.585938 -137.695312 703.976562 -111.257812 688.75 -87.0625 C 673.53125 -62.863281 652.3125 -43.847656 625.09375 -30.015625 C 598.539062 -16.898438 570.757812 -11.164062 541.75 -12.8125 C 512.75 -14.457031 486.316406 -23.066406 462.453125 -38.640625 C 438.585938 -54.210938 419.75 -75.269531 405.9375 -101.8125 L 312.078125 -286.5625 C 311.335938 -288.601562 309.59375 -289.242188 306.84375 -288.484375 C 304.101562 -287.722656 303.128906 -285.632812 303.921875 -282.21875 L 334.90625 -167.15625 L 305.671875 -99.15625 C 293.273438 -71.914062 275.40625 -49.878906 252.0625 -33.046875 C 228.71875 -16.222656 202.773438 -6.226562 174.234375 -3.0625 C 145.703125 0.101562 117.484375 -4.148438 89.578125 -15.828125 Z M 89.578125 -15.828125 "/></g></g></g><g fill="#bd0000" fill-opacity="1"><g transform="translate(2221.529969, 949.01171)"><g><path d="M 502.0625 -723.421875 C 533.09375 -722.742188 561.019531 -714.539062 585.84375 -698.8125 C 610.664062 -683.09375 630.210938 -662.488281 644.484375 -637 C 658.753906 -611.519531 665.554688 -583.617188 664.890625 -553.296875 C 664.234375 -523.660156 656.394531 -496.765625 641.375 -472.609375 C 626.363281 -448.460938 606.457031 -429.078125 581.65625 -414.453125 C 556.851562 -399.828125 528.941406 -392.859375 497.921875 -393.546875 L 493.671875 -152.59375 C 493.003906 -122.257812 484.804688 -94.507812 469.078125 -69.34375 C 453.359375 -44.175781 432.75 -24.285156 407.25 -9.671875 C 381.757812 4.941406 353.851562 11.914062 323.53125 11.25 C 293.894531 10.59375 266.832031 2.410156 242.34375 -13.296875 C 217.863281 -29.003906 198.492188 -49.769531 184.234375 -75.59375 C 169.972656 -101.425781 163.175781 -129.507812 163.84375 -159.84375 L 169.125 -400.765625 C 138.800781 -401.429688 111.394531 -409.613281 86.90625 -425.3125 C 62.425781 -441.019531 43.21875 -461.265625 29.28125 -486.046875 C 15.34375 -510.835938 8.703125 -538.050781 9.359375 -567.6875 C 10.023438 -598.007812 17.867188 -625.59375 32.890625 -650.4375 C 47.921875 -675.28125 68.007812 -695.015625 93.15625 -709.640625 C 118.3125 -724.265625 146.050781 -731.242188 176.375 -730.578125 Z M 502.0625 -723.421875 "/></g></g></g><g fill="#bd0000" fill-opacity="1"><g transform="translate(2854.523265, 961.913803)"><g><path d="M 542.6875 -693.453125 C 573.625 -691.003906 601.035156 -681.222656 624.921875 -664.109375 C 648.804688 -646.992188 667.140625 -625.304688 679.921875 -599.046875 C 692.703125 -572.785156 697.894531 -544.535156 695.5 -514.296875 C 693.144531 -484.742188 683.78125 -458.34375 667.40625 -435.09375 C 651.03125 -411.84375 630.039062 -393.628906 604.4375 -380.453125 C 578.84375 -367.273438 550.585938 -361.914062 519.671875 -364.375 L 501.59375 -124.0625 C 499.195312 -93.8125 489.429688 -66.578125 472.296875 -42.359375 C 455.160156 -18.140625 433.445312 0.53125 407.15625 13.65625 C 380.863281 26.789062 352.597656 32.160156 322.359375 29.765625 C 292.804688 27.410156 266.257812 17.6875 242.71875 0.59375 C 219.175781 -16.488281 201.023438 -38.328125 188.265625 -64.921875 C 175.515625 -91.523438 170.335938 -119.953125 172.734375 -150.203125 L 191.828125 -390.421875 C 161.585938 -392.816406 134.691406 -402.554688 111.140625 -419.640625 C 87.597656 -436.722656 69.578125 -458.035156 57.078125 -483.578125 C 44.585938 -509.128906 39.519531 -536.679688 41.875 -566.234375 C 44.269531 -596.472656 53.679688 -623.5625 70.109375 -647.5 C 86.535156 -671.4375 107.722656 -689.976562 133.671875 -703.125 C 159.617188 -716.28125 187.710938 -721.660156 217.953125 -719.265625 Z M 542.6875 -693.453125 "/></g></g></g></g></g><g transform="matrix(1, 0, 0, 1, 3570, 470)"><g clip-path="url(#641432cad1)"><g fill="#ffef42" fill-opacity="1"><g transform="translate(451.322296, 1131.394185)"><g><path d="M 48.214844 -848.382812 C 71.386719 -899.179688 104.945312 -939.65625 148.890625 -969.8125 C 191.835938 -999.28125 239.425781 -1016.238281 291.65625 -1020.683594 C 346.039062 -1025.308594 398.257812 -1014.71875 448.304688 -988.914062 L 386.09375 -868.257812 L 444.382812 -990.855469 C 493.691406 -967.410156 533.285156 -932.933594 563.15625 -887.417969 C 591.308594 -844.523438 607.914062 -797.71875 612.980469 -747 C 618.183594 -694.855469 610.011719 -644.089844 588.453125 -594.707031 L 502.265625 -408.171875 L 379.042969 -465.132812 L 506.949219 -510.605469 L 555.449219 -374.183594 C 573.972656 -322.074219 577.96875 -269.601562 567.433594 -216.765625 C 557.261719 -165.746094 535.386719 -120.179688 501.808594 -80.058594 C 467.226562 -38.742188 424.019531 -8.871094 372.1875 9.558594 C 321.007812 27.753906 268.964844 31.742188 216.066406 21.527344 C 164.695312 11.609375 118.960938 -9.925781 78.867188 -43.070312 C 37.34375 -77.402344 7.320312 -120.621094 -11.207031 -172.730469 L -59.707031 -309.148438 L 68.199219 -354.621094 L 8.585938 -232.664062 L -173.410156 -321.625 C -223.035156 -347.1875 -262.285156 -381.835938 -291.164062 -425.5625 C -319.253906 -468.097656 -335.917969 -514.878906 -341.160156 -565.917969 C -346.722656 -620.074219 -337.78125 -671.808594 -314.339844 -721.117188 L -191.742188 -662.828125 L -316.15625 -717.132812 C -293.6875 -768.605469 -260.152344 -809.640625 -215.546875 -840.25 C -172.351562 -869.890625 -124.804688 -886.753906 -72.90625 -890.84375 C -19.464844 -895.050781 32.144531 -884.320312 81.921875 -858.65625 L 19.710938 -738.003906 L 78.769531 -860.230469 L 183.460938 -809.644531 L 124.402344 -687.417969 L 0.714844 -743.351562 L 48.03125 -847.980469 Z M 295.40625 -736.109375 L 190.714844 -504.609375 L -40.9375 -616.542969 L -42.503906 -617.347656 C -46.484375 -619.402344 -49.515625 -620.347656 -51.59375 -620.183594 C -55.21875 -619.898438 -58.664062 -618.632812 -61.9375 -616.386719 C -63.804688 -615.109375 -65.601562 -612.484375 -67.332031 -608.523438 L -68.207031 -606.515625 L -69.144531 -604.539062 C -70.824219 -601.015625 -71.46875 -597.386719 -71.085938 -593.65625 C -70.382812 -586.804688 -68.226562 -580.644531 -64.613281 -575.179688 C -61.792969 -570.90625 -58.316406 -567.695312 -54.183594 -565.539062 L 177.558594 -452.265625 L 244.605469 -263.671875 C 246.402344 -258.613281 248.820312 -254.828125 251.859375 -252.316406 C 256.328125 -248.625 261.554688 -246.199219 267.535156 -245.042969 C 271.988281 -244.183594 276.558594 -244.585938 281.242188 -246.253906 C 286.578125 -248.152344 290.703125 -250.835938 293.613281 -254.3125 C 297.523438 -258.988281 300.046875 -264.164062 301.179688 -269.851562 C 301.949219 -273.71875 301.4375 -278.179688 299.636719 -283.238281 L 232.589844 -471.828125 L 339.628906 -703.316406 C 342.269531 -709.367188 343.335938 -714.9375 342.824219 -720.03125 C 342.175781 -726.550781 339.960938 -732.6875 336.179688 -738.445312 C 334.125 -741.582031 331.332031 -743.988281 327.804688 -745.664062 L 325.828125 -746.601562 L 323.882812 -747.605469 C 320.175781 -749.519531 317.105469 -750.371094 314.667969 -750.164062 C 310.078125 -749.773438 306.023438 -748.367188 302.5 -745.953125 C 299.976562 -744.21875 297.550781 -740.804688 295.226562 -735.710938 Z M 295.40625 -736.109375 "/></g></g></g><g fill="#bd0000" fill-opacity="1"><g transform="translate(451.322296, 1131.394185)"><g><path d="M 171.71875 -792.046875 C 184.457031 -819.984375 202.445312 -841.925781 225.6875 -857.875 C 248.925781 -873.820312 274.75 -883 303.15625 -885.40625 C 331.5625 -887.820312 359.207031 -882.101562 386.09375 -868.25 C 412.507812 -855.695312 433.695312 -837.253906 449.65625 -812.921875 C 465.625 -788.597656 475.035156 -762.128906 477.890625 -733.515625 C 480.753906 -704.898438 476.132812 -676.726562 464.03125 -649 L 379.03125 -465.140625 L 427.53125 -328.703125 C 437.695312 -300.128906 439.953125 -271.664062 434.296875 -243.3125 C 428.640625 -214.957031 416.441406 -189.578125 397.703125 -167.171875 C 378.960938 -144.773438 355.300781 -128.5 326.71875 -118.34375 C 298.78125 -108.40625 270.472656 -106.207031 241.796875 -111.75 C 213.117188 -117.289062 187.640625 -129.269531 165.359375 -147.6875 C 143.078125 -166.113281 126.851562 -189.613281 116.6875 -218.1875 L 68.1875 -354.625 L -113.796875 -443.578125 C -140.671875 -457.441406 -162.035156 -476.367188 -177.890625 -500.359375 C -193.742188 -524.359375 -203.15625 -550.832031 -206.125 -579.78125 C -209.09375 -608.726562 -204.296875 -636.410156 -191.734375 -662.828125 C -179.648438 -690.535156 -161.988281 -712.363281 -138.75 -728.3125 C -115.507812 -744.257812 -90.007812 -753.320312 -62.25 -755.5 C -34.488281 -757.6875 -7.171875 -751.851562 19.703125 -738 L 124.40625 -687.421875 Z M 171.71875 -792.046875 "/></g></g></g></g></g></svg>