<svg xmlns="http://www.w3.org/2000/svg" xmlns:xlink="http://www.w3.org/1999/xlink" width="6912" zoomAndPan="magnify" viewBox="0 0 5184 2592.000001" height="3456" preserveAspectRatio="xMidYMid meet" version="1.0"><defs><g/><clipPath id="da1b445e52"><rect x="0" width="4587" y="0" height="1381"/></clipPath></defs><g transform="matrix(1, 0, 0, 1, 297, 552)"><g clip-path="url(#da1b445e52)"><g fill="#ffef42" fill-opacity="1"><g transform="translate(276.361292, 1093.694501)"><g><path d="M 388.988281 -962.8125 C 448.121094 -971.539062 504.375 -964.382812 557.746094 -941.355469 C 607.925781 -919.699219 650.316406 -887.449219 684.921875 -844.601562 C 721.042969 -799.867188 743.289062 -749.15625 751.652344 -692.46875 C 760.265625 -634.097656 753.589844 -578.355469 731.632812 -525.238281 C 710.449219 -474 678.507812 -431.078125 635.8125 -396.476562 C 591.6875 -360.714844 540.539062 -338.542969 482.359375 -329.960938 C 439.097656 -323.578125 398 -324.84375 359.0625 -333.765625 C 355.214844 -334.648438 352.167969 -335.167969 349.925781 -335.320312 C 350.472656 -335.285156 351.691406 -335.40625 353.59375 -335.683594 C 366.457031 -337.582031 378.621094 -341.988281 390.089844 -348.902344 C 401.277344 -355.648438 410.625 -364.074219 418.128906 -374.171875 C 425.628906 -384.273438 430.996094 -395.652344 434.222656 -408.3125 C 437.53125 -421.289062 438.234375 -434.210938 436.335938 -447.074219 C 434.191406 -461.613281 429.058594 -475.21875 420.929688 -487.894531 C 413.238281 -499.894531 403.714844 -509.71875 392.367188 -517.378906 C 382.292969 -524.171875 371.183594 -528.914062 359.027344 -531.613281 C 347.367188 -534.199219 335.851562 -534.652344 324.484375 -532.976562 C 322.585938 -532.695312 321.378906 -532.457031 320.867188 -532.265625 C 322.972656 -533.0625 325.738281 -534.4375 329.167969 -536.390625 C 363.867188 -556.179688 402.851562 -569.261719 446.113281 -575.644531 C 505.714844 -584.441406 562.398438 -576.933594 616.15625 -553.132812 C 666.125 -531.007812 708.328125 -498.378906 742.761719 -455.25 C 778.65625 -410.296875 800.867188 -358.910156 809.398438 -301.09375 C 817.800781 -244.125 811.023438 -189.082031 789.066406 -135.964844 C 768.246094 -85.605469 737.050781 -42.90625 695.472656 -7.863281 C 651.027344 29.597656 599.238281 52.691406 540.105469 61.414062 L 387.554688 83.925781 C 317.195312 94.304688 248.800781 90.003906 182.367188 71.015625 C 118.214844 52.683594 59.523438 23.109375 6.289062 -17.707031 C -46.757812 -58.382812 -90.59375 -107.230469 -125.21875 -164.25 C -160.550781 -222.4375 -183.261719 -285.742188 -193.359375 -354.167969 C -203.8125 -425.011719 -200.25 -493.554688 -182.675781 -559.796875 C -165.363281 -625.050781 -136.589844 -684.46875 -96.359375 -738.050781 C -56.421875 -791.234375 -7.929688 -835.410156 49.121094 -870.570312 C 106.898438 -906.179688 170.460938 -929.585938 239.804688 -940.789062 Z M 429.738281 -686.617188 L 284.335938 -665.175781 C 251.484375 -659.867188 221.90625 -649.109375 195.597656 -632.894531 C 168.5625 -616.234375 145.664062 -595.40625 126.902344 -570.417969 C 108.433594 -545.820312 95.191406 -518.417969 87.175781 -488.199219 C 79.421875 -458.972656 77.972656 -427.878906 82.835938 -394.917969 C 87.4375 -363.742188 97.632812 -335.15625 113.417969 -309.152344 C 129.917969 -281.984375 150.832031 -258.6875 176.167969 -239.261719 C 201.316406 -219.976562 228.953125 -206.03125 259.078125 -197.421875 C 286.917969 -189.46875 316.15625 -187.75 346.800781 -192.273438 L 499.355469 -214.78125 C 506.152344 -215.785156 511.546875 -217.96875 515.542969 -221.335938 C 522.410156 -227.125 527.582031 -234.222656 531.058594 -242.632812 C 533.394531 -248.28125 534.109375 -254.1875 533.199219 -260.34375 C 532.003906 -268.457031 529.132812 -275.359375 524.585938 -281.054688 C 518.582031 -288.574219 511.425781 -294.175781 503.125 -297.851562 C 498.609375 -299.851562 493.1875 -300.382812 486.863281 -299.449219 C 478.222656 -298.175781 471.75 -296.3125 467.449219 -293.859375 C 432.75 -274.074219 398.675781 -261.714844 365.234375 -256.777344 C 342.644531 -253.445312 320.425781 -254.203125 298.578125 -259.046875 C 276.234375 -264.003906 255.453125 -272.964844 236.226562 -285.933594 C 215.726562 -299.765625 198.953125 -316.855469 185.90625 -337.199219 C 172.425781 -358.222656 163.839844 -381.261719 160.140625 -406.324219 C 156.585938 -430.410156 157.769531 -454.058594 163.6875 -477.277344 C 169.523438 -500.175781 179.632812 -521.300781 194.011719 -540.660156 C 208.390625 -560.015625 225.699219 -575.792969 245.9375 -587.996094 C 266.453125 -600.367188 288.753906 -608.328125 312.839844 -611.882812 C 346.285156 -616.816406 382.472656 -614.824219 421.410156 -605.902344 C 426.234375 -604.796875 432.96875 -604.882812 441.609375 -606.15625 C 449.363281 -607.300781 455.503906 -609.707031 460.027344 -613.371094 C 465.980469 -618.195312 470.511719 -624.375 473.625 -631.902344 C 475.960938 -637.554688 476.570312 -644.160156 475.457031 -651.71875 C 474.507812 -658.15625 471.925781 -663.980469 467.714844 -669.195312 C 461.980469 -676.292969 455.121094 -681.566406 447.132812 -685.015625 C 442.335938 -687.085938 436.535156 -687.617188 429.738281 -686.617188 Z M 429.738281 -686.617188 "/></g></g></g><g fill="#ffef42" fill-opacity="1"><g transform="translate(968.402667, 990.068047)"><g><path d="M 566.03125 93.523438 C 509.960938 98.242188 456.882812 88.738281 406.804688 65.011719 C 357.644531 41.71875 317.382812 8.222656 286.027344 -35.484375 C 253.730469 -80.5 235.199219 -131.34375 230.429688 -188.011719 L 227.398438 -224.042969 C 228.703125 -208.566406 232.996094 -193.847656 240.28125 -179.890625 C 247.367188 -166.308594 256.65625 -154.664062 268.148438 -144.957031 C 279.636719 -135.253906 292.667969 -128.039062 307.246094 -123.320312 C 322.222656 -118.472656 337.453125 -116.695312 352.929688 -118 C 368.40625 -119.300781 383.125 -123.59375 397.082031 -130.878906 C 410.664062 -137.96875 422.308594 -147.257812 432.015625 -158.746094 C 441.722656 -170.238281 448.933594 -183.269531 453.652344 -197.84375 C 458.503906 -212.824219 460.277344 -228.050781 458.972656 -243.53125 L 462.007812 -207.5 C 466.789062 -150.636719 457.429688 -97.503906 433.925781 -48.105469 C 410.707031 0.691406 376.980469 40.613281 332.75 71.660156 C 287.972656 103.089844 237.152344 121.199219 180.292969 125.984375 C 125.140625 130.625 72.789062 121.335938 23.242188 98.125 C -25.777344 75.160156 -66.023438 41.734375 -97.503906 -2.144531 C -129.800781 -47.160156 -148.363281 -98.355469 -153.191406 -155.730469 L -188.324219 -573.265625 C -193.179688 -630.949219 -183.292969 -684.609375 -158.664062 -734.242188 C -134.929688 -782.074219 -100.945312 -821.316406 -56.707031 -851.976562 C -11.734375 -883.144531 38.324219 -901.046875 93.476562 -905.6875 C 150.339844 -910.472656 203.472656 -901.113281 252.871094 -877.605469 C 301.394531 -854.519531 341.136719 -821.203125 372.101562 -777.660156 C 403.804688 -733.074219 422.0625 -682.199219 426.871094 -625.03125 L 430.082031 -586.882812 C 428.648438 -603.890625 423.796875 -619.871094 415.523438 -634.824219 C 408.597656 -647.34375 399.835938 -658.078125 389.242188 -667.027344 C 377.753906 -676.734375 364.722656 -683.945312 350.144531 -688.664062 C 335.167969 -693.515625 319.941406 -695.289062 304.460938 -693.988281 C 288.984375 -692.683594 274.265625 -688.390625 260.308594 -681.105469 C 246.726562 -674.015625 235.082031 -664.726562 225.375 -653.238281 C 216.425781 -642.644531 209.585938 -630.597656 204.847656 -617.09375 C 199.1875 -600.972656 197.074219 -584.40625 198.507812 -567.394531 L 195.296875 -605.546875 C 190.5 -662.523438 200.417969 -715.832031 225.046875 -765.464844 C 248.683594 -813.101562 282.667969 -852.425781 326.996094 -883.429688 C 372.40625 -915.1875 423.148438 -933.429688 479.21875 -938.148438 C 535.886719 -942.914062 589.113281 -933.140625 638.894531 -908.820312 C 686.417969 -885.605469 725.636719 -852.726562 756.554688 -810.191406 C 789.132812 -765.371094 807.816406 -714.46875 812.613281 -657.492188 L 847.746094 -239.960938 C 852.515625 -183.289062 842.742188 -130.066406 818.421875 -80.285156 C 795.070312 -32.488281 761.785156 6.917969 718.5625 37.925781 C 673.542969 70.222656 622.703125 88.753906 566.03125 93.523438 Z M 542.621094 -184.679688 C 548.125 -185.144531 552.523438 -186.554688 555.816406 -188.917969 C 560.902344 -192.570312 564.820312 -197.207031 567.570312 -202.832031 C 569.347656 -206.476562 570.007812 -211.046875 569.542969 -216.550781 L 534.410156 -634.082031 C 533.972656 -639.273438 532.742188 -643.261719 530.71875 -646.046875 C 527.039062 -651.113281 522.246094 -655.085938 516.347656 -657.96875 C 512.703125 -659.75 508.132812 -660.40625 502.628906 -659.945312 C 496.53125 -659.429688 491.324219 -657.664062 487.011719 -654.648438 C 481.617188 -650.875 477.65625 -646.449219 475.136719 -641.371094 C 473.609375 -638.289062 473.0625 -634.148438 473.5 -628.957031 L 476.710938 -590.804688 C 478.617188 -568.144531 475.808594 -546.097656 468.285156 -524.65625 C 461.683594 -505.839844 451.804688 -488.644531 438.648438 -473.074219 C 424.738281 -456.605469 408.347656 -443.449219 389.484375 -433.601562 C 370.246094 -423.558594 349.707031 -417.621094 327.871094 -415.785156 C 306.035156 -413.945312 284.792969 -416.371094 264.148438 -423.054688 C 243.902344 -429.609375 225.546875 -439.84375 209.078125 -453.753906 C 193.507812 -466.910156 180.894531 -482.210938 171.238281 -499.660156 C 160.238281 -519.542969 153.785156 -540.8125 151.878906 -563.472656 L 148.667969 -601.621094 C 148.128906 -608.039062 146.761719 -612.789062 144.574219 -615.867188 C 141.644531 -619.988281 137.757812 -623.199219 132.914062 -625.503906 C 128.953125 -627.390625 123.609375 -628.050781 116.886719 -627.484375 C 111.28125 -627.011719 106.425781 -625.355469 102.324219 -622.507812 C 97.484375 -619.15625 93.851562 -615.035156 91.425781 -610.148438 C 89.898438 -607.066406 89.382812 -602.574219 89.878906 -596.675781 L 125.011719 -179.140625 C 125.535156 -172.933594 126.976562 -168.183594 129.339844 -164.890625 C 132.519531 -160.457031 136.636719 -157.058594 141.6875 -154.691406 C 146.210938 -152.574219 151.273438 -151.75 156.882812 -152.21875 C 163.601562 -152.785156 168.757812 -154.328125 172.351562 -156.851562 C 176.492188 -159.757812 179.648438 -163.496094 181.820312 -168.0625 C 183.707031 -172.027344 184.367188 -177.367188 183.804688 -184.089844 L 180.769531 -220.121094 C 178.933594 -241.957031 181.355469 -263.199219 188.042969 -283.84375 C 194.597656 -304.089844 204.828125 -322.445312 218.742188 -338.914062 C 232.652344 -355.382812 249.042969 -368.539062 267.90625 -378.382812 C 287.144531 -388.425781 307.683594 -394.367188 329.519531 -396.203125 C 351.355469 -398.039062 372.597656 -395.617188 393.246094 -388.929688 C 413.488281 -382.375 431.84375 -372.144531 448.3125 -358.230469 C 464.78125 -344.320312 477.9375 -327.933594 487.785156 -309.066406 C 497.824219 -289.828125 503.765625 -269.289062 505.601562 -247.453125 L 508.632812 -211.421875 C 509.097656 -205.921875 510.511719 -201.523438 512.875 -198.230469 C 516.175781 -193.625 520.664062 -189.980469 526.339844 -187.292969 C 531.097656 -185.039062 536.523438 -184.167969 542.621094 -184.679688 Z M 542.621094 -184.679688 "/></g></g></g><g fill="#ffef42" fill-opacity="1"><g transform="translate(1686.503405, 928.375534)"><g><path d="M 33.648438 111.007812 C -16.71875 87.722656 -57.648438 53.949219 -89.136719 9.679688 C -120.464844 -34.359375 -138.941406 -83.21875 -144.570312 -136.902344 C -150.265625 -191.214844 -141.871094 -243.40625 -119.386719 -293.484375 L 72.789062 -723.6875 C 98.550781 -781.953125 137.363281 -827.101562 189.226562 -859.125 C 237.671875 -889.039062 290.074219 -904.886719 346.4375 -906.667969 C 403.441406 -908.46875 457.089844 -895.535156 507.382812 -867.863281 C 560.640625 -838.566406 601.882812 -794.886719 631.121094 -736.820312 L 843.054688 -313.203125 C 868.660156 -264.53125 879.335938 -212.121094 875.074219 -155.976562 C 871.066406 -103.207031 854.882812 -54.578125 826.515625 -10.09375 C 796.878906 36.378906 756.519531 72.394531 705.433594 97.945312 C 655.0625 122.453125 602.722656 133 548.414062 129.582031 C 493.804688 126.148438 443.921875 109.496094 398.769531 79.625 C 353.984375 49.996094 319.015625 10.644531 293.859375 -38.429688 L 194.078125 -237.851562 L 191.222656 -245.871094 C 197.316406 -228.761719 206.511719 -213.460938 218.808594 -199.972656 C 233.546875 -183.800781 251.15625 -171.859375 271.628906 -164.148438 C 298.894531 -153.878906 326.34375 -152.5 353.972656 -160.007812 C 370.714844 -164.554688 386.050781 -172.113281 399.976562 -182.679688 C 417.570312 -196.03125 431.109375 -212.691406 440.589844 -232.652344 C 448.449219 -249.210938 452.765625 -266.589844 453.53125 -284.785156 C 454.011719 -296.222656 453.039062 -307.4375 450.605469 -318.425781 L 314.308594 -288.269531 L 449.320312 -323.738281 L 492.777344 -158.316406 L 442.855469 -44.101562 C 418.773438 8.042969 384.597656 49.859375 340.328125 81.351562 C 296.289062 112.675781 247.429688 131.15625 193.746094 136.785156 C 140.402344 142.375 88.332031 134.359375 37.539062 112.734375 L 35.582031 111.898438 Z M 150.796875 -142.414062 L 92.222656 -15.703125 L 146.90625 -144.140625 C 153.335938 -141.402344 159.246094 -140.316406 164.632812 -140.878906 C 169.683594 -141.410156 174.304688 -143.167969 178.5 -146.148438 C 182.460938 -148.96875 185.308594 -152.226562 187.039062 -155.917969 L 217.53125 -225.679688 L 345.4375 -169.769531 L 210.425781 -134.304688 L 178.601562 -255.449219 L 178.011719 -258.117188 C 170.722656 -291.058594 174.183594 -322.488281 188.390625 -352.40625 C 198.378906 -373.441406 212.652344 -391 231.207031 -405.082031 C 246.09375 -416.378906 262.613281 -424.492188 280.765625 -429.425781 C 311.214844 -437.699219 340.96875 -436.363281 370.023438 -425.421875 C 391.386719 -417.375 409.757812 -404.917969 425.136719 -388.050781 C 438.066406 -373.867188 447.765625 -357.691406 454.234375 -339.523438 L 322.730469 -292.695312 L 447.570312 -355.15625 L 542.304688 -165.785156 C 545.210938 -160.121094 548.710938 -155.933594 552.804688 -153.222656 C 556.527344 -150.757812 560.90625 -149.371094 565.941406 -149.054688 C 571.273438 -148.71875 576.140625 -149.617188 580.542969 -151.75 C 585.617188 -154.289062 589.140625 -157.105469 591.117188 -160.203125 C 594.363281 -165.292969 596.21875 -170.925781 596.6875 -177.105469 C 596.902344 -179.910156 595.796875 -183.636719 593.371094 -188.289062 L 381.757812 -611.269531 C 378.480469 -617.78125 375.496094 -621.773438 372.816406 -623.25 C 367.171875 -626.355469 361.316406 -627.8125 355.25 -627.621094 C 348.535156 -627.410156 342.089844 -625.394531 335.910156 -621.578125 C 333.148438 -619.871094 330.410156 -615.953125 327.699219 -609.820312 L 135.304688 -179.121094 C 133.367188 -174.804688 132.628906 -170.4375 133.09375 -166.015625 C 133.621094 -160.964844 135.378906 -156.34375 138.359375 -152.152344 C 141.179688 -148.1875 145.324219 -144.941406 150.796875 -142.414062 Z M 150.796875 -142.414062 "/></g></g></g><g fill="#ffef42" fill-opacity="1"><g transform="translate(2274.760361, 913.101237)"><g><path d="M 524.816406 -880.234375 C 582.578125 -878.609375 635.058594 -862.648438 682.265625 -832.351562 C 727.527344 -803.300781 763.105469 -765.3125 789 -718.382812 C 815.765625 -669.871094 828.351562 -617.34375 826.757812 -560.796875 C 825.183594 -504.867188 809.8125 -453.761719 780.644531 -407.480469 C 752.863281 -363.398438 716.289062 -328.167969 670.925781 -301.792969 C 622.421875 -273.589844 568.980469 -260.3125 510.597656 -261.957031 L 514.527344 -401.496094 L 654.082031 -398.164062 L 648.171875 -150.441406 C 646.5625 -93.292969 630.75 -41.023438 600.734375 6.367188 C 571.902344 51.886719 534.164062 87.824219 487.515625 114.179688 C 438.679688 141.773438 385.738281 154.765625 328.6875 153.160156 C 272.039062 151.566406 220.203125 135.472656 173.179688 104.886719 C 128.355469 75.730469 93.066406 37.480469 67.3125 -9.863281 C 40.828125 -58.539062 28.382812 -111.003906 29.964844 -167.25 L 36.941406 -414.941406 L 176.476562 -411.015625 L 172.546875 -271.476562 C 115.191406 -273.089844 63 -289.191406 15.976562 -319.78125 C -28.519531 -348.722656 -63.472656 -386.121094 -88.878906 -431.964844 C -115.394531 -479.816406 -127.867188 -531.707031 -126.292969 -587.636719 C -124.714844 -643.667969 -109.621094 -695.003906 -81.007812 -741.644531 C -52.96875 -787.355469 -15.660156 -823.558594 30.914062 -850.25 C 79.585938 -878.140625 132.597656 -891.28125 189.957031 -889.664062 Z M 516.960938 -601.160156 L 182.097656 -610.589844 C 177.089844 -610.730469 172.96875 -609.875 169.734375 -608.019531 C 164.40625 -604.96875 160.148438 -600.847656 156.96875 -595.660156 C 154.355469 -591.402344 152.960938 -586.109375 152.78125 -579.777344 C 152.640625 -574.757812 153.488281 -570.59375 155.316406 -567.289062 C 158.261719 -561.980469 162.558594 -557.488281 168.207031 -553.8125 C 171.332031 -551.78125 175.398438 -550.691406 180.40625 -550.550781 L 319.945312 -546.621094 L 309.039062 -159.394531 C 308.867188 -153.277344 310.039062 -147.90625 312.554688 -143.28125 C 315.796875 -137.324219 320.082031 -132.609375 325.40625 -129.144531 C 328.53125 -127.113281 332.246094 -126.035156 336.546875 -125.914062 C 341.859375 -125.765625 346.40625 -126.757812 350.183594 -128.890625 C 356.148438 -132.261719 361.046875 -136.96875 364.875 -143.015625 C 367.519531 -147.191406 368.914062 -151.886719 369.0625 -157.105469 L 378.320312 -544.976562 L 518.457031 -541.03125 C 523.863281 -540.878906 527.910156 -541.585938 530.597656 -543.148438 C 536.429688 -546.542969 541.046875 -550.933594 544.449219 -556.332031 C 546.464844 -559.527344 547.542969 -563.636719 547.683594 -568.65625 C 547.847656 -574.476562 546.800781 -579.429688 544.550781 -583.511719 C 541.425781 -589.175781 537.066406 -593.800781 531.472656 -597.390625 C 527.820312 -599.734375 522.984375 -600.992188 516.960938 -601.160156 Z M 516.960938 -601.160156 "/></g></g></g><g fill="#ffef42" fill-opacity="1"><g transform="translate(2925.591095, 930.403286)"><g><path d="M 574.382812 -848.726562 C 631.953125 -843.792969 683.433594 -824.851562 728.828125 -791.898438 C 772.351562 -760.304688 805.695312 -720.339844 828.855469 -672.003906 C 852.796875 -622.039062 862.355469 -568.875 857.527344 -512.515625 C 852.75 -456.769531 834.476562 -406.628906 802.703125 -362.089844 C 772.445312 -319.671875 733.914062 -286.597656 687.113281 -262.863281 C 637.070312 -237.488281 582.957031 -227.292969 524.765625 -232.277344 L 536.683594 -371.359375 L 675.816406 -360.039062 L 655.722656 -113.066406 C 650.84375 -56.101562 632.0625 -4.824219 599.382812 40.769531 C 567.992188 84.5625 528.257812 118.28125 480.175781 141.921875 C 429.839844 166.671875 376.238281 176.609375 319.371094 171.738281 C 262.910156 166.898438 212.078125 147.863281 166.886719 114.632812 C 123.808594 82.960938 90.769531 42.75 67.765625 -5.992188 C 44.117188 -56.105469 34.695312 -109.195312 39.496094 -165.261719 L 60.648438 -412.144531 L 199.734375 -400.230469 L 187.816406 -261.144531 C 130.644531 -266.042969 79.464844 -285.109375 34.269531 -318.339844 C -8.496094 -349.785156 -41.25 -389.121094 -63.988281 -436.347656 C -87.71875 -485.640625 -97.199219 -538.160156 -92.421875 -593.90625 C -87.636719 -649.757812 -69.625 -700.144531 -38.390625 -745.070312 C -7.777344 -789.097656 31.542969 -823.101562 79.570312 -847.082031 C 129.757812 -872.140625 183.4375 -882.222656 240.609375 -877.324219 Z M 550.546875 -570.558594 L 216.777344 -599.15625 C 211.785156 -599.582031 207.621094 -598.964844 204.285156 -597.300781 C 198.789062 -594.554688 194.304688 -590.6875 190.832031 -585.691406 C 187.980469 -581.589844 186.285156 -576.382812 185.746094 -570.070312 C 185.316406 -565.070312 185.921875 -560.863281 187.558594 -557.460938 C 190.195312 -551.992188 194.226562 -547.257812 199.65625 -543.265625 C 202.660156 -541.058594 206.65625 -539.742188 211.648438 -539.3125 L 350.734375 -527.398438 L 317.664062 -141.429688 C 317.140625 -135.332031 318.003906 -129.902344 320.25 -125.140625 C 323.144531 -119.007812 327.152344 -114.058594 332.273438 -110.292969 C 335.273438 -108.085938 338.917969 -106.796875 343.207031 -106.429688 C 348.503906 -105.976562 353.097656 -106.707031 356.992188 -108.621094 C 363.140625 -111.644531 368.300781 -116.0625 372.46875 -121.878906 C 375.347656 -125.894531 377.011719 -130.503906 377.457031 -135.703125 L 408.917969 -522.410156 L 548.601562 -510.445312 C 553.984375 -509.980469 558.066406 -510.457031 560.84375 -511.863281 C 566.859375 -514.914062 571.71875 -519.035156 575.425781 -524.230469 C 577.617188 -527.304688 578.929688 -531.34375 579.359375 -536.347656 C 579.855469 -542.152344 579.097656 -547.152344 577.082031 -551.359375 C 574.289062 -557.191406 570.199219 -562.058594 564.820312 -565.964844 C 561.308594 -568.511719 556.554688 -570.042969 550.546875 -570.558594 Z M 550.546875 -570.558594 "/></g></g></g><g fill="#ffef42" fill-opacity="1"><g transform="translate(3585.233963, 985.278564)"><g><path d="M 452.6875 -747.421875 C 498.21875 -782.398438 548.210938 -802.992188 602.664062 -809.207031 C 655.878906 -815.277344 707.28125 -807.742188 756.867188 -786.605469 C 808.5 -764.597656 850.828125 -729.8125 883.855469 -682.246094 L 769.191406 -602.632812 L 881.230469 -685.902344 C 914.722656 -640.84375 934.066406 -590.441406 939.265625 -534.695312 C 944.167969 -482.167969 936.695312 -431.644531 916.847656 -383.132812 C 896.445312 -333.253906 864.554688 -291.082031 821.167969 -256.609375 L 652.976562 -128.707031 L 568.496094 -239.832031 L 706.597656 -219.496094 L 684.90625 -72.195312 C 676.617188 -15.933594 654.957031 33.65625 619.921875 76.574219 C 586.09375 118.019531 544.257812 148.867188 494.417969 169.128906 C 443.09375 189.992188 389.449219 196.304688 333.484375 188.0625 C 278.222656 179.925781 229.027344 158.46875 185.894531 123.691406 C 144.011719 89.921875 112.847656 48.320312 92.402344 -1.113281 C 71.226562 -52.3125 64.785156 -106.042969 73.070312 -162.304688 L 94.761719 -309.601562 L 232.867188 -289.261719 L 119.933594 -207.210938 L -2.511719 -375.734375 C -35.269531 -422.875 -54.226562 -473.265625 -59.386719 -526.90625 C -64.402344 -579.082031 -56.992188 -629.613281 -37.15625 -678.5 C -16.105469 -730.375 16.949219 -773.0625 62.011719 -806.554688 L 145.28125 -694.515625 L 58.441406 -803.808594 C 103.65625 -839.734375 153.898438 -860.851562 209.167969 -867.15625 C 262.695312 -873.261719 314.015625 -865.667969 363.125 -844.367188 C 413.699219 -822.433594 455.410156 -787.8125 488.257812 -740.507812 L 373.59375 -660.894531 L 486.152344 -743.457031 L 556.875 -647.046875 L 444.316406 -564.480469 L 358.917969 -674.90625 L 452.328125 -747.144531 Z M 623.121094 -526.296875 L 416.449219 -366.464844 L 259.964844 -579.789062 L 258.929688 -581.277344 C 256.304688 -585.0625 254.007812 -587.378906 252.039062 -588.234375 C 248.609375 -589.71875 244.867188 -590.234375 240.8125 -589.769531 C 238.503906 -589.507812 235.605469 -587.992188 232.125 -585.222656 L 230.359375 -583.824219 L 228.554688 -582.480469 C 225.332031 -580.085938 222.996094 -577.101562 221.546875 -573.53125 C 218.882812 -566.96875 217.875 -560.332031 218.519531 -553.625 C 219.023438 -548.386719 220.632812 -543.792969 223.351562 -539.84375 L 379.265625 -325.253906 L 349.277344 -121.625 C 348.472656 -116.164062 348.84375 -111.558594 350.394531 -107.8125 C 352.671875 -102.304688 356.25 -97.585938 361.128906 -93.652344 C 364.757812 -90.726562 369.101562 -88.890625 374.164062 -88.144531 C 379.925781 -87.296875 384.964844 -87.75 389.285156 -89.503906 C 395.089844 -91.863281 399.875 -95.351562 403.644531 -99.972656 C 406.210938 -103.113281 407.894531 -107.414062 408.699219 -112.875 L 438.6875 -316.503906 L 647.488281 -475.195312 C 652.800781 -479.417969 656.453125 -483.964844 658.445312 -488.835938 C 660.996094 -495.070312 661.945312 -501.714844 661.285156 -508.765625 C 660.929688 -512.605469 659.550781 -516.136719 657.15625 -519.359375 L 655.8125 -521.164062 L 654.53125 -523.015625 C 652.082031 -526.539062 649.703125 -528.792969 647.394531 -529.777344 C 643.035156 -531.636719 638.671875 -532.316406 634.308594 -531.816406 C 631.179688 -531.460938 627.332031 -529.527344 622.765625 -526.019531 Z M 623.121094 -526.296875 "/></g></g></g><g fill="#9ac0df" fill-opacity="1"><g transform="translate(276.361292, 1093.694501)"><g><path d="M 409.375 -824.703125 C 442.34375 -829.566406 473.363281 -825.722656 502.4375 -813.171875 C 531.519531 -800.617188 556.144531 -781.851562 576.3125 -756.875 C 596.488281 -731.90625 608.90625 -703.644531 613.5625 -672.09375 C 618.425781 -639.125 614.78125 -607.945312 602.625 -578.5625 C 590.476562 -549.175781 572.242188 -524.625 547.921875 -504.90625 C 523.609375 -485.195312 494.96875 -472.910156 462 -468.046875 C 436.039062 -464.222656 412.117188 -464.816406 390.234375 -469.828125 C 368.359375 -474.835938 349.351562 -476.148438 333.21875 -473.765625 C 321.988281 -472.109375 312.9375 -466.65625 306.0625 -457.40625 C 299.195312 -448.15625 296.59375 -437.914062 298.25 -426.6875 C 299.800781 -416.164062 305.148438 -407.816406 314.296875 -401.640625 C 323.441406 -395.472656 333.628906 -393.21875 344.859375 -394.875 C 360.992188 -397.257812 378.8125 -404.007812 398.3125 -415.125 C 417.8125 -426.238281 440.539062 -433.707031 466.5 -437.53125 C 499.46875 -442.394531 530.515625 -438.375 559.640625 -425.46875 C 588.773438 -412.570312 613.453125 -393.460938 633.671875 -368.140625 C 653.890625 -342.816406 666.429688 -313.671875 671.296875 -280.703125 C 675.953125 -249.148438 672.203125 -218.679688 660.046875 -189.296875 C 647.898438 -159.910156 629.71875 -135.007812 605.5 -114.59375 C 581.289062 -94.175781 552.703125 -81.535156 519.734375 -76.671875 L 367.1875 -54.171875 C 316.675781 -46.722656 267.851562 -49.734375 220.71875 -63.203125 C 173.582031 -76.671875 130.414062 -98.429688 91.21875 -128.484375 C 52.03125 -158.535156 19.660156 -194.609375 -5.890625 -236.703125 C -31.453125 -278.796875 -47.90625 -324.738281 -55.25 -374.53125 C -62.914062 -426.445312 -60.414062 -476.269531 -47.75 -524 C -35.082031 -571.726562 -14.078125 -615.132812 15.265625 -654.21875 C 44.609375 -693.3125 80.300781 -725.8125 122.34375 -751.71875 C 164.394531 -777.625 210.972656 -794.710938 262.078125 -802.984375 Z M 409.375 -824.703125 "/></g></g></g><g fill="#9ac0df" fill-opacity="1"><g transform="translate(968.402667, 990.068047)"><g><path d="M 554.328125 -45.578125 C 523.242188 -42.960938 493.988281 -48.148438 466.5625 -61.140625 C 439.144531 -74.128906 416.769531 -92.703125 399.4375 -116.859375 C 382.101562 -141.015625 372.128906 -168.632812 369.515625 -199.71875 L 366.484375 -235.75 C 365.953125 -242.101562 363.195312 -247.382812 358.21875 -251.59375 C 353.25 -255.800781 347.582031 -257.632812 341.21875 -257.09375 C 334.875 -256.5625 329.597656 -253.804688 325.390625 -248.828125 C 321.179688 -243.847656 319.34375 -238.179688 319.875 -231.828125 L 322.90625 -195.796875 C 325.582031 -164.003906 320.570312 -134.765625 307.875 -108.078125 C 295.175781 -81.398438 276.734375 -59.570312 252.546875 -42.59375 C 228.367188 -25.613281 200.382812 -15.785156 168.59375 -13.109375 C 138.207031 -10.554688 109.5 -15.613281 82.46875 -28.28125 C 55.4375 -40.945312 33.253906 -59.359375 15.921875 -83.515625 C -1.410156 -107.671875 -11.414062 -135.644531 -14.09375 -167.4375 L -49.21875 -584.96875 C -51.894531 -616.757812 -46.691406 -645.832031 -33.609375 -672.1875 C -20.523438 -698.539062 -1.71875 -720.222656 22.8125 -737.234375 C 47.34375 -754.242188 74.800781 -764.023438 105.1875 -766.578125 C 136.976562 -769.253906 166.210938 -764.242188 192.890625 -751.546875 C 219.578125 -738.847656 241.394531 -720.582031 258.34375 -696.75 C 275.289062 -672.925781 285.101562 -645.117188 287.78125 -613.328125 L 290.984375 -575.171875 C 291.460938 -569.515625 294.191406 -564.582031 299.171875 -560.375 C 304.148438 -556.175781 309.8125 -554.34375 316.15625 -554.875 C 322.519531 -555.414062 327.800781 -558.171875 332 -563.140625 C 336.207031 -568.117188 338.070312 -573.4375 337.59375 -579.09375 L 334.390625 -617.25 C 331.773438 -648.332031 337.007812 -677.050781 350.09375 -703.40625 C 363.175781 -729.757812 382.144531 -751.632812 407 -769.03125 C 431.863281 -786.425781 459.835938 -796.429688 490.921875 -799.046875 C 522.003906 -801.660156 550.90625 -796.441406 577.625 -783.390625 C 604.34375 -770.335938 626.347656 -751.910156 643.640625 -728.109375 C 660.929688 -704.304688 670.882812 -676.863281 673.5 -645.78125 L 708.625 -228.25 C 711.238281 -197.164062 706.023438 -168.269531 692.984375 -141.5625 C 679.941406 -114.851562 661.34375 -92.832031 637.1875 -75.5 C 613.03125 -58.164062 585.410156 -48.191406 554.328125 -45.578125 Z M 554.328125 -45.578125 "/></g></g></g><g fill="#9ac0df" fill-opacity="1"><g transform="translate(1686.503405, 928.375534)"><g><path d="M 92.21875 -15.703125 C 64.300781 -28.609375 41.765625 -47.117188 24.609375 -71.234375 C 7.453125 -95.347656 -2.660156 -122.085938 -5.734375 -151.453125 C -8.816406 -180.816406 -4.25 -209.101562 7.96875 -236.3125 L 200.234375 -666.75 C 214.484375 -698.9375 235.265625 -723.460938 262.578125 -740.328125 C 289.890625 -757.203125 319.3125 -766.132812 350.84375 -767.125 C 382.375 -768.125 412.125 -760.929688 440.09375 -745.546875 C 468.0625 -730.160156 490.175781 -706.320312 506.4375 -674.03125 L 718.203125 -250.75 C 732.210938 -224.070312 738.097656 -196 735.859375 -166.53125 C 733.628906 -137.0625 724.613281 -109.929688 708.8125 -85.140625 C 693.007812 -60.359375 671.066406 -40.945312 642.984375 -26.90625 C 615.597656 -13.582031 586.992188 -7.859375 557.171875 -9.734375 C 527.347656 -11.609375 500.21875 -20.628906 475.78125 -36.796875 C 451.34375 -52.960938 432.101562 -74.726562 418.0625 -102.09375 L 322.734375 -292.6875 C 321.984375 -294.800781 320.195312 -295.472656 317.375 -294.703125 C 314.550781 -293.941406 313.53125 -291.789062 314.3125 -288.25 L 345.421875 -169.765625 L 314.9375 -100 C 302.03125 -72.082031 283.519531 -49.546875 259.40625 -32.390625 C 235.289062 -15.242188 208.550781 -5.128906 179.1875 -2.046875 C 149.820312 1.023438 120.832031 -3.523438 92.21875 -15.703125 Z M 92.21875 -15.703125 "/></g></g></g><g fill="#9ac0df" fill-opacity="1"><g transform="translate(2274.760361, 913.101237)"><g><path d="M 520.875 -740.703125 C 552.769531 -739.804688 581.425781 -731.195312 606.84375 -714.875 C 632.269531 -698.550781 652.238281 -677.242188 666.75 -650.953125 C 681.269531 -624.660156 688.085938 -595.921875 687.203125 -564.734375 C 686.347656 -534.253906 678.125 -506.644531 662.53125 -481.90625 C 646.945312 -457.164062 626.351562 -437.351562 600.75 -422.46875 C 575.15625 -407.582031 546.410156 -400.585938 514.515625 -401.484375 L 508.609375 -153.78125 C 507.722656 -122.59375 499.117188 -94.109375 482.796875 -68.328125 C 466.472656 -42.546875 445.15625 -22.222656 418.84375 -7.359375 C 392.53125 7.503906 363.785156 14.492188 332.609375 13.609375 C 302.140625 12.753906 274.367188 4.175781 249.296875 -12.125 C 224.222656 -28.4375 204.4375 -49.914062 189.9375 -76.5625 C 175.4375 -103.21875 168.628906 -132.140625 169.515625 -163.328125 L 176.484375 -411 C 145.296875 -411.875 117.160156 -420.46875 92.078125 -436.78125 C 67.003906 -453.09375 47.378906 -474.035156 33.203125 -499.609375 C 19.035156 -525.191406 12.378906 -553.222656 13.234375 -583.703125 C 14.117188 -614.890625 22.363281 -643.203125 37.96875 -668.640625 C 53.570312 -694.085938 74.351562 -714.25 100.3125 -729.125 C 126.269531 -744 154.84375 -751 186.03125 -750.125 Z M 520.875 -740.703125 "/></g></g></g><g fill="#9ac0df" fill-opacity="1"><g transform="translate(2925.591095, 930.403286)"><g><path d="M 562.453125 -709.625 C 594.242188 -706.90625 622.359375 -696.671875 646.796875 -678.921875 C 671.242188 -661.171875 689.957031 -638.753906 702.9375 -611.671875 C 715.925781 -584.585938 721.085938 -555.503906 718.421875 -524.421875 C 715.828125 -494.046875 706.035156 -466.957031 689.046875 -443.15625 C 672.066406 -419.351562 650.375 -400.753906 623.96875 -387.359375 C 597.5625 -373.972656 568.460938 -368.640625 536.671875 -371.359375 L 516.578125 -124.390625 C 513.910156 -93.304688 503.6875 -65.359375 485.90625 -40.546875 C 468.132812 -15.742188 445.691406 3.316406 418.578125 16.640625 C 391.460938 29.972656 362.363281 35.304688 331.28125 32.640625 C 300.914062 30.046875 273.679688 19.890625 249.578125 2.171875 C 225.472656 -15.546875 206.945312 -38.125 194 -65.5625 C 181.050781 -93 175.910156 -122.257812 178.578125 -153.34375 L 199.734375 -400.21875 C 168.648438 -402.882812 141.054688 -413.078125 116.953125 -430.796875 C 92.847656 -448.515625 74.457031 -470.546875 61.78125 -496.890625 C 49.101562 -523.234375 44.0625 -551.59375 46.65625 -581.96875 C 49.320312 -613.050781 59.171875 -640.847656 76.203125 -665.359375 C 93.242188 -689.867188 115.144531 -708.804688 141.90625 -722.171875 C 168.675781 -735.535156 197.601562 -740.882812 228.6875 -738.21875 Z M 562.453125 -709.625 "/></g></g></g><g fill="#9ac0df" fill-opacity="1"><g transform="translate(3585.233963, 985.278564)"><g><path d="M 537.71875 -636.71875 C 562.757812 -655.957031 589.675781 -667.21875 618.46875 -670.5 C 647.257812 -673.789062 675.140625 -669.6875 702.109375 -658.1875 C 729.078125 -646.695312 751.429688 -628.175781 769.171875 -602.625 C 787.117188 -578.488281 797.476562 -551.519531 800.25 -521.71875 C 803.019531 -491.925781 798.804688 -463.34375 787.609375 -435.96875 C 776.421875 -408.601562 758.65625 -385.242188 734.3125 -365.890625 L 568.484375 -239.84375 L 546.78125 -92.546875 C 542.238281 -61.679688 530.566406 -34.734375 511.765625 -11.703125 C 492.972656 11.328125 469.664062 28.492188 441.84375 39.796875 C 414.03125 51.109375 384.691406 54.492188 353.828125 49.953125 C 323.660156 45.503906 296.882812 33.859375 273.5 15.015625 C 250.125 -3.828125 232.753906 -26.984375 221.390625 -54.453125 C 210.023438 -81.929688 206.613281 -111.101562 211.15625 -141.96875 L 232.859375 -289.265625 L 110.40625 -457.765625 C 92.675781 -483.316406 82.390625 -510.8125 79.546875 -540.25 C 76.710938 -569.6875 80.925781 -598.269531 92.1875 -626 C 103.445312 -653.726562 121.140625 -676.5625 145.265625 -694.5 C 169.609375 -713.851562 196.175781 -725.171875 224.96875 -728.453125 C 253.769531 -731.742188 281.300781 -727.691406 307.5625 -716.296875 C 333.832031 -704.898438 355.835938 -686.429688 373.578125 -660.890625 L 444.3125 -564.46875 Z M 537.71875 -636.71875 "/></g></g></g></g></g></svg>