<svg xmlns="http://www.w3.org/2000/svg" xmlns:xlink="http://www.w3.org/1999/xlink" width="6912" zoomAndPan="magnify" viewBox="0 0 5184 2592.000001" height="3456" preserveAspectRatio="xMidYMid meet" version="1.0"><defs><g/><clipPath id="e1a30d56da"><rect x="0" width="3807" y="0" height="1439"/></clipPath><clipPath id="1d56bbf0cc"><rect x="0" width="1324" y="0" height="1421"/></clipPath></defs><g transform="matrix(1, 0, 0, 1, 1161, 736)"><g clip-path="url(#e1a30d56da)"><g fill="#ffef42" fill-opacity="1"><g transform="translate(253.922854, 1023.105799)"><g><path d="M 553.070312 96.339844 C 498.164062 100.480469 446.308594 90.726562 397.511719 67.085938 C 349.601562 43.875 310.492188 10.75 280.183594 -32.28125 C 248.964844 -76.605469 231.265625 -126.515625 227.082031 -182.007812 L 224.421875 -217.289062 C 225.566406 -202.132812 229.640625 -187.695312 236.652344 -173.976562 C 243.472656 -160.625 252.460938 -149.152344 263.621094 -139.558594 C 274.78125 -129.960938 287.472656 -122.792969 301.695312 -118.050781 C 316.308594 -113.175781 331.195312 -111.3125 346.351562 -112.453125 C 361.507812 -113.597656 375.949219 -117.671875 389.667969 -124.679688 C 403.015625 -131.5 414.492188 -140.492188 424.085938 -151.652344 C 433.679688 -162.8125 440.851562 -175.503906 445.59375 -189.726562 C 450.464844 -204.339844 452.332031 -219.226562 451.1875 -234.382812 L 453.847656 -199.101562 C 458.046875 -143.417969 448.433594 -91.507812 425.011719 -43.371094 C 401.875 4.179688 368.535156 42.953125 324.988281 72.957031 C 280.90625 103.332031 231.023438 120.617188 175.34375 124.8125 C 121.335938 128.882812 70.191406 119.351562 21.90625 96.214844 C -25.863281 73.324219 -64.960938 40.277344 -95.390625 -2.929688 C -126.609375 -47.253906 -144.335938 -97.507812 -148.570312 -153.691406 L -179.390625 -562.554688 C -183.648438 -619.039062 -173.515625 -671.460938 -148.992188 -719.820312 C -125.363281 -766.417969 -91.769531 -804.53125 -48.222656 -834.152344 C -3.949219 -864.265625 45.1875 -881.359375 99.195312 -885.429688 C 154.875 -889.625 206.785156 -880.015625 254.925781 -856.589844 C 302.207031 -833.585938 340.8125 -800.648438 370.738281 -757.777344 C 401.378906 -713.878906 418.808594 -663.941406 423.03125 -607.960938 L 425.847656 -570.605469 C 424.589844 -587.257812 419.980469 -602.9375 412.011719 -617.636719 C 405.339844 -629.949219 396.859375 -640.527344 386.570312 -649.375 C 375.410156 -658.96875 362.71875 -666.140625 348.496094 -670.882812 C 333.882812 -675.753906 318.996094 -677.621094 303.839844 -676.476562 C 288.683594 -675.335938 274.242188 -671.257812 260.523438 -664.25 C 247.175781 -657.429688 235.699219 -648.441406 226.105469 -637.28125 C 217.257812 -626.992188 210.460938 -615.261719 205.707031 -602.089844 C 200.035156 -586.359375 197.824219 -570.167969 199.082031 -553.511719 L 196.265625 -590.867188 C 192.058594 -646.664062 202.21875 -698.738281 226.742188 -747.097656 C 250.277344 -793.511719 283.863281 -831.695312 327.503906 -861.65625 C 372.210938 -892.347656 422.015625 -909.761719 476.925781 -913.902344 C 532.417969 -918.085938 584.414062 -908.066406 632.917969 -883.84375 C 679.222656 -860.722656 717.320312 -828.214844 747.210938 -786.328125 C 778.703125 -742.191406 796.554688 -692.226562 800.757812 -636.433594 L 831.578125 -227.570312 C 835.761719 -172.078125 825.742188 -120.082031 801.519531 -71.578125 C 778.265625 -25.007812 745.355469 13.265625 702.796875 43.242188 C 658.472656 74.457031 608.566406 92.160156 553.070312 96.339844 Z M 532.539062 -176.082031 C 537.925781 -176.488281 542.242188 -177.835938 545.484375 -180.121094 C 550.492188 -183.648438 554.367188 -188.152344 557.101562 -193.632812 C 558.875 -197.183594 559.558594 -201.652344 559.152344 -207.039062 L 528.335938 -615.898438 C 527.953125 -620.984375 526.78125 -624.898438 524.824219 -627.636719 C 521.265625 -632.625 516.613281 -636.554688 510.863281 -639.425781 C 507.3125 -641.199219 502.84375 -641.882812 497.457031 -641.476562 C 491.488281 -641.027344 486.378906 -639.34375 482.128906 -636.429688 C 476.820312 -632.78125 472.910156 -628.484375 470.398438 -623.535156 C 468.875 -620.53125 468.304688 -616.488281 468.691406 -611.402344 L 471.503906 -574.046875 C 473.179688 -551.855469 470.242188 -530.304688 462.699219 -509.390625 C 456.078125 -491.03125 446.261719 -474.292969 433.257812 -459.167969 C 419.503906 -443.171875 403.355469 -430.4375 384.816406 -420.960938 C 365.902344 -411.300781 345.757812 -405.664062 324.371094 -404.054688 C 302.988281 -402.441406 282.226562 -404.992188 262.078125 -411.710938 C 242.328125 -418.296875 224.453125 -428.46875 208.457031 -442.222656 C 193.332031 -455.226562 181.121094 -470.308594 171.820312 -487.464844 C 161.226562 -507.011719 155.09375 -527.878906 153.421875 -550.070312 L 150.605469 -587.425781 C 150.132812 -593.710938 148.835938 -598.367188 146.71875 -601.402344 C 143.886719 -605.457031 140.113281 -608.632812 135.394531 -610.929688 C 131.53125 -612.808594 126.308594 -613.5 119.730469 -613.003906 C 114.238281 -612.589844 109.472656 -611.007812 105.433594 -608.261719 C 100.671875 -605.019531 97.082031 -601.019531 94.667969 -596.257812 C 93.144531 -593.253906 92.601562 -588.863281 93.035156 -583.085938 L 123.855469 -174.226562 C 124.3125 -168.148438 125.683594 -163.484375 127.96875 -160.242188 C 131.039062 -155.878906 135.039062 -152.519531 139.964844 -150.160156 C 144.371094 -148.046875 149.320312 -147.199219 154.808594 -147.613281 C 161.390625 -148.109375 166.449219 -149.574219 169.984375 -152.011719 C 174.0625 -154.820312 177.183594 -158.449219 179.347656 -162.902344 C 181.226562 -166.761719 181.917969 -171.984375 181.421875 -178.566406 L 178.765625 -213.847656 C 177.152344 -235.230469 179.707031 -255.996094 186.421875 -276.140625 C 193.007812 -295.894531 203.179688 -313.769531 216.933594 -329.765625 C 230.6875 -345.761719 246.832031 -358.496094 265.375 -367.96875 C 284.289062 -377.628906 304.433594 -383.265625 325.816406 -384.878906 C 347.203125 -386.492188 367.964844 -383.9375 388.113281 -377.21875 C 407.863281 -370.632812 425.738281 -360.464844 441.734375 -346.710938 C 457.730469 -332.957031 470.464844 -316.808594 479.9375 -298.265625 C 489.601562 -279.355469 495.238281 -259.207031 496.847656 -237.824219 L 499.507812 -202.542969 C 499.914062 -197.15625 501.257812 -192.839844 503.542969 -189.59375 C 506.738281 -185.0625 511.097656 -181.457031 516.625 -178.777344 C 521.261719 -176.53125 526.566406 -175.632812 532.539062 -176.082031 Z M 532.539062 -176.082031 "/></g></g></g><g fill="#ffef42" fill-opacity="1"><g transform="translate(957.114752, 968.874839)"><g><path d="M 31.976562 108.910156 C -17.109375 85.695312 -56.871094 52.296875 -87.304688 8.710938 C -117.582031 -34.652344 -135.246094 -82.621094 -140.292969 -135.195312 C -145.402344 -188.390625 -136.742188 -239.390625 -114.3125 -288.195312 L 77.410156 -707.515625 C 103.113281 -764.308594 141.480469 -808.15625 192.503906 -839.046875 C 240.164062 -867.90625 291.578125 -882.964844 346.742188 -884.226562 C 402.535156 -885.5 454.921875 -872.382812 503.898438 -844.878906 C 555.757812 -815.757812 595.746094 -772.660156 623.855469 -715.59375 L 827.617188 -299.269531 C 852.257812 -251.421875 862.253906 -200.046875 857.601562 -145.144531 C 853.234375 -93.542969 836.980469 -46.101562 808.839844 -2.816406 C 779.445312 42.410156 739.644531 77.300781 689.4375 101.867188 C 639.941406 125.417969 588.636719 135.292969 535.523438 131.484375 C 482.117188 127.65625 433.449219 110.9375 389.519531 81.320312 C 345.953125 51.949219 312.070312 13.144531 287.871094 -35.09375 L 191.941406 -231.082031 L 189.214844 -238.953125 C 195.03125 -222.15625 203.898438 -207.109375 215.816406 -193.804688 C 230.101562 -177.855469 247.226562 -166.019531 267.195312 -158.300781 C 293.789062 -148.019531 320.632812 -146.433594 347.734375 -153.542969 C 364.15625 -157.851562 379.226562 -165.117188 392.941406 -175.335938 C 410.273438 -188.25 423.664062 -204.4375 433.109375 -223.886719 C 440.945312 -240.023438 445.3125 -256.992188 446.21875 -274.789062 C 446.789062 -285.976562 445.929688 -296.957031 443.644531 -307.730469 L 310.019531 -279.390625 L 442.433594 -312.941406 L 483.542969 -150.703125 L 433.714844 -39.367188 C 409.707031 11.449219 375.90625 52.074219 332.320312 82.511719 C 288.960938 112.789062 240.992188 130.453125 188.414062 135.5 C 136.167969 140.515625 85.289062 132.226562 35.769531 110.632812 L 33.859375 109.800781 Z M 148.773438 -138.066406 L 90.375 -14.578125 L 144.980469 -139.785156 C 151.25 -137.054688 157.023438 -135.941406 162.300781 -136.445312 C 167.246094 -136.921875 171.785156 -138.601562 175.914062 -141.484375 C 179.816406 -144.207031 182.628906 -147.371094 184.351562 -150.96875 L 214.785156 -218.96875 L 339.46875 -163.167969 L 207.054688 -129.617188 L 176.949219 -248.433594 L 176.394531 -251.050781 C 169.542969 -283.34375 173.195312 -314.070312 187.351562 -343.222656 C 197.308594 -363.722656 211.421875 -380.78125 229.703125 -394.402344 C 244.363281 -405.328125 260.597656 -413.125 278.402344 -417.796875 C 308.269531 -425.632812 337.371094 -424.074219 365.707031 -413.117188 C 386.546875 -405.0625 404.414062 -392.714844 419.316406 -376.078125 C 431.847656 -362.089844 441.199219 -346.175781 447.375 -328.34375 L 318.296875 -283.648438 L 440.988281 -343.699219 L 532.070312 -157.585938 C 534.863281 -152.019531 538.25 -147.890625 542.238281 -145.207031 C 545.859375 -142.765625 550.132812 -141.367188 555.054688 -141.011719 C 560.269531 -140.640625 565.042969 -141.476562 569.367188 -143.527344 C 574.351562 -145.96875 577.824219 -148.695312 579.785156 -151.710938 C 583.003906 -156.660156 584.867188 -162.160156 585.378906 -168.199219 C 585.613281 -170.941406 584.5625 -174.597656 582.230469 -179.171875 L 378.777344 -594.871094 C 375.625 -601.269531 372.742188 -605.207031 370.128906 -606.671875 C 364.632812 -609.757812 358.917969 -611.234375 352.980469 -611.097656 C 346.410156 -610.949219 340.085938 -609.03125 334.003906 -605.351562 C 331.289062 -603.707031 328.574219 -599.894531 325.867188 -593.914062 L 133.925781 -174.117188 C 131.996094 -169.910156 131.234375 -165.640625 131.652344 -161.3125 C 132.125 -156.367188 133.804688 -151.828125 136.6875 -147.699219 C 139.414062 -143.796875 143.441406 -140.585938 148.773438 -138.066406 Z M 148.773438 -138.066406 "/></g></g></g><g fill="#ffef42" fill-opacity="1"><g transform="translate(1532.865648, 958.954545)"><g><path d="M 521.0625 -856.835938 C 577.566406 -854.75 628.785156 -838.683594 674.71875 -808.632812 C 718.761719 -779.824219 753.25 -742.34375 778.183594 -696.203125 C 803.960938 -648.503906 815.828125 -596.996094 813.785156 -541.679688 C 811.765625 -486.96875 796.289062 -437.09375 767.351562 -392.050781 C 739.792969 -349.15625 703.703125 -314.996094 659.089844 -289.574219 C 611.386719 -262.394531 558.976562 -249.855469 501.867188 -251.964844 L 506.902344 -388.46875 L 643.429688 -384.019531 L 635.527344 -141.671875 C 633.464844 -85.761719 617.546875 -34.75 587.773438 11.363281 C 559.171875 55.660156 521.9375 90.503906 476.066406 115.894531 C 428.042969 142.476562 376.125 154.738281 320.316406 152.679688 C 264.898438 150.632812 214.3125 134.445312 168.5625 104.113281 C 124.953125 75.199219 90.746094 37.472656 65.949219 -9.074219 C 40.453125 -56.933594 28.71875 -108.375 30.75 -163.402344 L 39.691406 -405.710938 L 176.199219 -400.671875 L 171.160156 -264.167969 C 115.050781 -266.238281 64.117188 -282.441406 18.367188 -312.773438 C -24.929688 -341.476562 -58.808594 -378.363281 -83.277344 -423.441406 C -108.816406 -470.492188 -120.574219 -521.375 -118.558594 -576.085938 C -116.535156 -630.902344 -101.324219 -681.007812 -72.929688 -726.402344 C -45.101562 -770.890625 -8.285156 -805.996094 37.515625 -831.714844 C 85.378906 -858.59375 137.367188 -870.996094 193.476562 -868.925781 Z M 510.988281 -583.824219 L 183.402344 -595.914062 C 178.503906 -596.09375 174.464844 -595.292969 171.28125 -593.503906 C 166.042969 -590.5625 161.84375 -586.566406 158.6875 -581.519531 C 156.09375 -577.375 154.683594 -572.207031 154.457031 -566.011719 C 154.273438 -561.101562 155.066406 -557.023438 156.828125 -553.773438 C 159.664062 -548.550781 163.828125 -544.117188 169.324219 -540.472656 C 172.367188 -538.457031 176.335938 -537.359375 181.234375 -537.179688 L 317.742188 -532.140625 L 303.761719 -153.328125 C 303.542969 -147.34375 304.640625 -142.078125 307.0625 -137.53125 C 310.183594 -131.671875 314.335938 -127.027344 319.519531 -123.589844 C 322.558594 -121.574219 326.183594 -120.488281 330.390625 -120.335938 C 335.589844 -120.140625 340.046875 -121.074219 343.761719 -123.128906 C 349.625 -126.375 354.457031 -130.941406 358.257812 -136.824219 C 360.878906 -140.886719 362.285156 -145.46875 362.476562 -150.574219 L 374.847656 -530.035156 L 511.941406 -524.976562 C 517.226562 -524.78125 521.195312 -525.4375 523.839844 -526.945312 C 529.574219 -530.210938 534.128906 -534.472656 537.503906 -539.722656 C 539.503906 -542.835938 540.59375 -546.847656 540.773438 -551.757812 C 540.984375 -557.453125 540.003906 -562.304688 537.835938 -566.320312 C 534.828125 -571.886719 530.601562 -576.449219 525.15625 -580.011719 C 521.605469 -582.335938 516.882812 -583.605469 510.988281 -583.824219 Z M 510.988281 -583.824219 "/></g></g></g><g fill="#ffef42" fill-opacity="1"><g transform="translate(2169.561001, 981.433801)"><g><path d="M 569.292969 -825.578125 C 625.582031 -820.261719 675.796875 -801.285156 719.933594 -768.65625 C 762.253906 -737.367188 794.539062 -697.976562 816.789062 -650.480469 C 839.789062 -601.382812 848.6875 -549.28125 843.480469 -494.175781 C 838.332031 -439.667969 820.019531 -390.757812 788.550781 -347.449219 C 758.578125 -306.203125 720.59375 -274.164062 674.59375 -251.34375 C 625.414062 -226.9375 572.371094 -217.425781 515.476562 -222.800781 L 528.324219 -358.792969 L 664.371094 -346.527344 L 642.601562 -105.03125 C 637.339844 -49.332031 618.523438 0.683594 586.15625 45.015625 C 555.066406 87.601562 515.894531 120.253906 468.644531 142.976562 C 419.175781 166.761719 366.644531 176.03125 311.042969 170.777344 C 255.832031 165.558594 206.257812 146.5 162.320312 113.597656 C 120.4375 82.234375 88.453125 42.609375 66.359375 -5.28125 C 43.648438 -54.523438 34.882812 -106.550781 40.0625 -161.371094 L 62.867188 -402.769531 L 198.863281 -389.921875 L 186.011719 -253.929688 C 130.113281 -259.210938 80.191406 -278.304688 36.253906 -311.207031 C -5.324219 -342.34375 -37.039062 -381.113281 -58.882812 -427.519531 C -81.683594 -475.953125 -90.511719 -527.425781 -85.359375 -581.933594 C -80.199219 -636.542969 -62.148438 -685.695312 -31.199219 -729.386719 C -0.867188 -772.207031 37.898438 -805.144531 85.101562 -828.199219 C 134.425781 -852.292969 187.039062 -861.695312 242.9375 -856.414062 Z M 543.59375 -553.59375 L 217.238281 -584.429688 C 212.359375 -584.890625 208.277344 -584.320312 205 -582.71875 C 199.601562 -580.082031 195.179688 -576.332031 191.738281 -571.472656 C 188.914062 -567.484375 187.207031 -562.40625 186.625 -556.234375 C 186.164062 -551.34375 186.71875 -547.222656 188.292969 -543.878906 C 190.824219 -538.503906 194.730469 -533.839844 200.007812 -529.886719 C 202.929688 -527.699219 206.828125 -526.375 211.710938 -525.914062 L 347.703125 -513.066406 L 312.046875 -135.675781 C 311.484375 -129.710938 312.28125 -124.390625 314.4375 -119.714844 C 317.21875 -113.6875 321.097656 -108.8125 326.074219 -105.082031 C 328.996094 -102.898438 332.550781 -101.605469 336.742188 -101.210938 C 341.921875 -100.71875 346.425781 -101.394531 350.25 -103.234375 C 356.292969 -106.140625 361.378906 -110.421875 365.507812 -116.078125 C 368.359375 -119.984375 370.023438 -124.476562 370.507812 -129.5625 L 404.597656 -507.691406 L 541.175781 -494.785156 C 546.441406 -494.289062 550.4375 -494.71875 553.164062 -496.070312 C 559.078125 -499.003906 563.871094 -502.996094 567.539062 -508.046875 C 569.714844 -511.039062 571.03125 -514.980469 571.492188 -519.871094 C 572.03125 -525.546875 571.332031 -530.449219 569.394531 -534.578125 C 566.710938 -540.308594 562.753906 -545.109375 557.519531 -548.976562 C 554.109375 -551.5 549.464844 -553.039062 543.59375 -553.59375 Z M 543.59375 -553.59375 "/></g></g></g><g fill="#ffef42" fill-opacity="1"><g transform="translate(2814.561236, 1040.783604)"><g><path d="M 449.332031 -727.5 C 494.1875 -761.335938 543.28125 -781.0625 596.617188 -786.675781 C 648.738281 -792.164062 698.972656 -784.355469 747.3125 -763.25 C 797.648438 -741.273438 838.773438 -706.871094 870.683594 -660.050781 L 757.804688 -583.121094 L 868.144531 -663.648438 C 900.53125 -619.269531 919.03125 -569.785156 923.644531 -515.195312 C 927.992188 -463.753906 920.25 -414.378906 900.417969 -367.078125 C 880.027344 -318.449219 848.457031 -277.453125 805.714844 -244.09375 L 640.042969 -120.371094 L 558.324219 -229.832031 L 693.289062 -208.75 L 670.804688 -64.804688 C 662.214844 -9.820312 640.597656 38.519531 605.949219 80.21875 C 572.496094 120.480469 531.296875 150.3125 482.351562 169.710938 C 431.953125 189.691406 379.40625 195.410156 324.714844 186.867188 C 270.710938 178.429688 222.753906 157.015625 180.84375 122.621094 C 140.148438 89.21875 110.007812 48.246094 90.425781 -0.304688 C 70.144531 -50.582031 64.296875 -103.210938 72.882812 -158.195312 L 95.367188 -302.140625 L 230.332031 -281.0625 L 119.125 -201.734375 L 0.746094 -367.683594 C -30.90625 -414.089844 -49.027344 -463.558594 -53.613281 -516.089844 C -58.078125 -567.1875 -50.394531 -616.570312 -30.570312 -664.238281 C -9.53125 -714.820312 23.179688 -756.304688 67.558594 -788.695312 L 148.085938 -678.355469 L 64.042969 -786.039062 C 108.589844 -820.808594 157.933594 -841.042969 212.070312 -846.738281 C 264.5 -852.257812 314.652344 -844.386719 362.523438 -823.125 C 411.824219 -801.230469 452.34375 -767 484.082031 -720.433594 L 371.203125 -643.503906 L 482.046875 -723.335938 L 550.425781 -628.394531 L 439.582031 -548.5625 L 356.960938 -657.34375 L 448.980469 -727.234375 Z M 614.222656 -509.671875 L 410.625 -355.035156 L 259.324219 -565.113281 L 258.324219 -566.578125 C 255.785156 -570.304688 253.558594 -572.589844 251.640625 -573.441406 C 248.296875 -574.929688 244.640625 -575.460938 240.667969 -575.042969 C 238.40625 -574.804688 235.558594 -573.347656 232.128906 -570.667969 L 230.390625 -569.316406 L 228.613281 -568.015625 C 225.4375 -565.699219 223.128906 -562.800781 221.679688 -559.316406 C 219.015625 -552.917969 217.972656 -546.433594 218.546875 -539.867188 C 218.996094 -534.734375 220.53125 -530.226562 223.15625 -526.339844 L 373.890625 -315.03125 L 342.808594 -116.035156 C 341.976562 -110.695312 342.300781 -106.1875 343.785156 -102.507812 C 345.96875 -97.097656 349.429688 -92.449219 354.167969 -88.558594 C 357.695312 -85.664062 361.929688 -83.832031 366.875 -83.058594 C 372.503906 -82.179688 377.441406 -82.578125 381.683594 -84.261719 C 387.382812 -86.519531 392.097656 -89.894531 395.824219 -94.378906 C 398.359375 -97.429688 400.046875 -101.625 400.878906 -106.964844 L 431.960938 -305.960938 L 637.628906 -459.460938 C 642.863281 -463.546875 646.476562 -467.964844 648.46875 -472.714844 C 651.015625 -478.796875 652 -485.289062 651.417969 -492.195312 C 651.097656 -495.953125 649.78125 -499.421875 647.464844 -502.59375 L 646.167969 -504.375 L 644.925781 -506.195312 C 642.5625 -509.664062 640.253906 -511.890625 638 -512.875 C 633.753906 -514.726562 629.492188 -515.429688 625.214844 -514.980469 C 622.148438 -514.65625 618.367188 -512.800781 613.871094 -509.40625 Z M 614.222656 -509.671875 "/></g></g></g><g fill="#d4005f" fill-opacity="1"><g transform="translate(253.922854, 1023.105799)"><g><path d="M 542.796875 -39.859375 C 512.347656 -37.554688 483.765625 -42.878906 457.046875 -55.828125 C 430.335938 -68.773438 408.609375 -87.140625 391.859375 -110.921875 C 375.109375 -134.710938 365.585938 -161.828125 363.296875 -192.265625 L 360.640625 -227.5625 C 360.171875 -233.78125 357.515625 -238.96875 352.671875 -243.125 C 347.835938 -247.289062 342.3125 -249.140625 336.09375 -248.671875 C 329.851562 -248.203125 324.65625 -245.546875 320.5 -240.703125 C 316.34375 -235.867188 314.5 -230.34375 314.96875 -224.125 L 317.625 -188.828125 C 319.96875 -157.703125 314.816406 -129.132812 302.171875 -103.125 C 289.523438 -77.125 271.296875 -55.921875 247.484375 -39.515625 C 223.671875 -23.109375 196.203125 -13.734375 165.078125 -11.390625 C 135.328125 -9.148438 107.28125 -14.34375 80.9375 -26.96875 C 54.59375 -39.59375 33.039062 -57.796875 16.28125 -81.578125 C -0.46875 -105.367188 -10.015625 -132.828125 -12.359375 -163.953125 L -43.171875 -572.8125 C -45.515625 -603.9375 -40.171875 -632.335938 -27.140625 -658.015625 C -14.117188 -683.703125 4.460938 -704.757812 28.609375 -721.1875 C 52.765625 -737.625 79.71875 -746.960938 109.46875 -749.203125 C 140.59375 -751.546875 169.15625 -746.390625 195.15625 -733.734375 C 221.164062 -721.085938 242.359375 -703.03125 258.734375 -679.5625 C 275.109375 -656.101562 284.46875 -628.8125 286.8125 -597.6875 L 289.625 -560.328125 C 290.039062 -554.796875 292.664062 -549.945312 297.5 -545.78125 C 302.332031 -541.625 307.867188 -539.78125 314.109375 -540.25 C 320.328125 -540.71875 325.515625 -543.367188 329.671875 -548.203125 C 333.835938 -553.046875 335.710938 -558.234375 335.296875 -563.765625 L 332.484375 -601.125 C 330.191406 -631.5625 335.554688 -659.617188 348.578125 -685.296875 C 361.597656 -710.984375 380.34375 -732.222656 404.8125 -749.015625 C 429.28125 -765.816406 456.738281 -775.367188 487.1875 -777.671875 C 517.625 -779.960938 545.859375 -774.609375 571.890625 -761.609375 C 597.921875 -748.617188 619.296875 -730.40625 636.015625 -706.96875 C 652.742188 -683.53125 662.253906 -656.59375 664.546875 -626.15625 L 695.359375 -217.296875 C 697.648438 -186.859375 692.296875 -158.625 679.296875 -132.59375 C 666.304688 -106.5625 647.914062 -85.171875 624.125 -68.421875 C 600.34375 -51.671875 573.234375 -42.148438 542.796875 -39.859375 Z M 542.796875 -39.859375 "/></g></g></g><g fill="#d4005f" fill-opacity="1"><g transform="translate(957.114752, 968.874839)"><g><path d="M 90.375 -14.578125 C 63.164062 -27.441406 41.269531 -45.742188 24.6875 -69.484375 C 8.113281 -93.234375 -1.550781 -119.488281 -4.3125 -148.25 C -7.082031 -177.007812 -2.375 -204.644531 9.8125 -231.15625 L 201.640625 -650.703125 C 215.847656 -682.085938 236.382812 -705.914062 263.25 -722.1875 C 290.125 -738.457031 318.992188 -746.941406 349.859375 -747.640625 C 380.722656 -748.335938 409.773438 -741.039062 437.015625 -725.75 C 464.253906 -710.46875 485.6875 -686.960938 501.3125 -655.234375 L 704.921875 -239.21875 C 718.398438 -213.007812 723.914062 -185.492188 721.46875 -156.671875 C 719.03125 -127.847656 709.972656 -101.375 694.296875 -77.25 C 678.617188 -53.132812 656.984375 -34.328125 629.390625 -20.828125 C 602.484375 -8.023438 574.445312 -2.664062 545.28125 -4.75 C 516.113281 -6.84375 489.640625 -15.90625 465.859375 -31.9375 C 442.085938 -47.96875 423.457031 -69.4375 409.96875 -96.34375 L 318.28125 -283.65625 C 317.5625 -285.726562 315.816406 -286.398438 313.046875 -285.671875 C 310.285156 -284.953125 309.269531 -282.859375 310 -279.390625 L 339.453125 -163.15625 L 309.015625 -95.171875 C 296.160156 -67.953125 277.859375 -46.050781 254.109375 -29.46875 C 230.359375 -12.894531 204.101562 -3.226562 175.34375 -0.46875 C 146.582031 2.289062 118.257812 -2.410156 90.375 -14.578125 Z M 90.375 -14.578125 "/></g></g></g><g fill="#d4005f" fill-opacity="1"><g transform="translate(1532.865648, 958.954545)"><g><path d="M 516.015625 -720.328125 C 547.203125 -719.179688 575.164062 -710.515625 599.90625 -694.328125 C 624.65625 -678.140625 644.015625 -657.117188 657.984375 -631.265625 C 671.960938 -605.410156 678.390625 -577.234375 677.265625 -546.734375 C 676.160156 -516.921875 667.875 -489.972656 652.40625 -465.890625 C 636.945312 -441.816406 616.628906 -422.601562 591.453125 -408.25 C 566.273438 -393.90625 538.085938 -387.3125 506.890625 -388.46875 L 498.984375 -146.125 C 497.859375 -115.625 489.195312 -87.828125 473 -62.734375 C 456.800781 -37.640625 435.769531 -17.929688 409.90625 -3.609375 C 384.039062 10.703125 355.851562 17.289062 325.34375 16.15625 C 295.539062 15.0625 268.4375 6.429688 244.03125 -9.734375 C 219.632812 -25.910156 200.457031 -47.097656 186.5 -73.296875 C 172.539062 -99.503906 166.125 -127.859375 167.25 -158.359375 L 176.1875 -400.65625 C 145.6875 -401.78125 118.234375 -410.429688 93.828125 -426.609375 C 69.429688 -442.785156 50.40625 -463.445312 36.75 -488.59375 C 23.101562 -513.75 16.832031 -541.234375 17.9375 -571.046875 C 19.0625 -601.546875 27.367188 -629.179688 42.859375 -653.953125 C 58.347656 -678.722656 78.851562 -698.269531 104.375 -712.59375 C 129.90625 -726.925781 157.921875 -733.53125 188.421875 -732.40625 Z M 516.015625 -720.328125 "/></g></g></g><g fill="#d4005f" fill-opacity="1"><g transform="translate(2169.561001, 981.433801)"><g><path d="M 556.4375 -689.578125 C 587.519531 -686.640625 614.945312 -676.382812 638.71875 -658.8125 C 662.488281 -641.238281 680.609375 -619.144531 693.078125 -592.53125 C 705.546875 -565.914062 710.34375 -537.414062 707.46875 -507.03125 C 704.664062 -477.320312 694.851562 -450.890625 678.03125 -427.734375 C 661.21875 -404.585938 639.832031 -386.570312 613.875 -373.6875 C 587.914062 -360.8125 559.394531 -355.84375 528.3125 -358.78125 L 506.546875 -117.296875 C 503.671875 -86.910156 493.429688 -59.65625 475.828125 -35.53125 C 458.222656 -11.40625 436.09375 7.054688 409.4375 19.859375 C 382.789062 32.671875 354.269531 37.644531 323.875 34.78125 C 294.1875 31.96875 267.625 21.789062 244.1875 4.25 C 220.757812 -13.289062 202.828125 -35.539062 190.390625 -62.5 C 177.953125 -89.457031 173.171875 -118.128906 176.046875 -148.515625 L 198.84375 -389.90625 C 168.457031 -392.78125 141.546875 -402.988281 118.109375 -420.53125 C 94.679688 -438.082031 76.875 -459.800781 64.6875 -485.6875 C 52.507812 -511.582031 47.820312 -539.382812 50.625 -569.09375 C 53.5 -599.476562 63.375 -626.585938 80.25 -650.421875 C 97.132812 -674.265625 118.726562 -692.609375 145.03125 -705.453125 C 171.34375 -718.296875 199.691406 -723.28125 230.078125 -720.40625 Z M 556.4375 -689.578125 "/></g></g></g><g fill="#d4005f" fill-opacity="1"><g transform="translate(2814.561236, 1040.783604)"><g><path d="M 531.59375 -618.4375 C 556.257812 -637.050781 582.691406 -647.84375 610.890625 -650.8125 C 639.097656 -653.789062 666.347656 -649.535156 692.640625 -638.046875 C 718.929688 -626.566406 740.644531 -608.253906 757.78125 -583.109375 C 775.132812 -559.335938 785.039062 -532.863281 787.5 -503.6875 C 789.96875 -474.507812 785.601562 -446.578125 774.40625 -419.890625 C 763.21875 -393.203125 745.628906 -370.492188 721.640625 -351.765625 L 558.3125 -229.828125 L 535.84375 -85.875 C 531.125 -55.71875 519.46875 -29.453125 500.875 -7.078125 C 482.28125 15.296875 459.320312 31.894531 432 42.71875 C 404.6875 53.550781 375.953125 56.613281 345.796875 51.90625 C 316.316406 47.300781 290.210938 35.675781 267.484375 17.03125 C 244.765625 -1.613281 227.96875 -24.425781 217.09375 -51.40625 C 206.21875 -78.382812 203.140625 -106.953125 207.859375 -137.109375 L 230.328125 -281.0625 L 111.9375 -447 C 94.800781 -472.144531 84.972656 -499.132812 82.453125 -527.96875 C 79.941406 -556.800781 84.304688 -584.734375 95.546875 -611.765625 C 106.796875 -638.796875 124.304688 -660.988281 148.078125 -678.34375 C 172.066406 -697.0625 198.160156 -707.90625 226.359375 -710.875 C 254.566406 -713.851562 281.472656 -709.648438 307.078125 -698.265625 C 332.691406 -686.890625 354.066406 -668.632812 371.203125 -643.5 L 439.578125 -548.5625 Z M 531.59375 -618.4375 "/></g></g></g></g></g><g transform="matrix(1, 0, 0, 1, 249, 273)"><g clip-path="url(#1d56bbf0cc)"><g fill="#ffef42" fill-opacity="1"><g transform="translate(230.115077, 886.417847)"><g><path d="M 782.730469 -647.988281 C 837.699219 -627.996094 882.800781 -595.671875 918.039062 -551.019531 C 951.167969 -509.035156 972.664062 -461.554688 982.523438 -408.566406 C 992.816406 -353.253906 988.382812 -299.246094 969.214844 -246.550781 C 949.480469 -192.292969 917.804688 -147.40625 874.191406 -111.890625 C 832.125 -77.628906 784.660156 -55.535156 731.808594 -45.601562 C 677.1875 -35.339844 622.835938 -40.042969 568.757812 -59.710938 C 528.542969 -74.339844 493.75 -94.546875 464.375 -120.339844 C 461.472656 -122.886719 459.089844 -124.75 457.230469 -125.929688 C 457.683594 -125.640625 458.792969 -125.179688 460.558594 -124.535156 C 472.515625 -120.1875 485.039062 -118.320312 498.128906 -118.941406 C 510.898438 -119.542969 522.863281 -122.449219 534.019531 -127.652344 C 545.179688 -132.859375 555.089844 -140.160156 563.757812 -149.558594 C 572.640625 -159.191406 579.257812 -169.988281 583.609375 -181.945312 C 588.523438 -195.460938 590.429688 -209.566406 589.328125 -224.257812 C 588.289062 -238.164062 584.660156 -251.054688 578.449219 -262.925781 C 572.941406 -273.460938 565.582031 -282.714844 556.371094 -290.6875 C 547.53125 -298.339844 537.832031 -304.085938 527.265625 -307.929688 C 525.5 -308.570312 524.351562 -308.929688 523.820312 -309 C 526 -308.707031 529.023438 -308.605469 532.886719 -308.691406 C 571.964844 -309.585938 611.609375 -302.71875 651.824219 -288.09375 C 707.230469 -267.9375 752.539062 -235.113281 787.75 -189.617188 C 820.480469 -147.324219 841.636719 -99.605469 851.222656 -46.457031 C 861.214844 8.941406 856.433594 63.511719 836.886719 117.257812 C 817.625 170.210938 786.1875 214.449219 742.578125 249.964844 C 701.230469 283.636719 654.507812 305.886719 602.417969 316.71875 C 546.726562 328.296875 491.398438 324.089844 436.429688 304.097656 L 294.621094 252.515625 C 229.222656 228.730469 172.339844 193.210938 123.972656 145.964844 C 77.269531 100.34375 40.496094 47.582031 13.652344 -12.320312 C -13.101562 -72.011719 -28.121094 -134.457031 -31.40625 -199.652344 C -34.761719 -266.179688 -24.871094 -331.25 -1.734375 -394.851562 C 22.21875 -460.707031 57.167969 -518.0625 103.109375 -566.917969 C 148.367188 -615.042969 200.773438 -652.816406 260.332031 -680.230469 C 319.453125 -707.445312 381.75 -722.921875 447.21875 -726.65625 C 513.527344 -730.4375 579.136719 -721.023438 644.050781 -698.417969 Z M 689.34375 -391.246094 L 554.191406 -440.417969 C 523.441406 -451.128906 492.96875 -455.625 462.777344 -453.902344 C 431.753906 -452.132812 402.351562 -444.855469 374.574219 -432.066406 C 347.234375 -419.480469 323.085938 -402.046875 302.128906 -379.761719 C 281.859375 -358.203125 266.152344 -332.105469 255.007812 -301.46875 C 244.46875 -272.492188 239.945312 -243.136719 241.445312 -213.40625 C 243.011719 -182.339844 250.183594 -152.554688 262.957031 -124.046875 C 275.640625 -95.746094 292.949219 -70.886719 314.878906 -49.464844 C 335.144531 -29.664062 359.519531 -14.585938 388.007812 -4.226562 L 529.8125 47.355469 C 536.132812 49.652344 541.796875 50.28125 546.800781 49.242188 C 555.40625 47.453125 563.160156 43.746094 570.0625 38.125 C 574.703125 34.34375 578.0625 29.59375 580.144531 23.871094 C 582.890625 16.328125 583.628906 9.046875 582.363281 2.03125 C 580.691406 -7.234375 577.136719 -15.382812 571.695312 -22.410156 C 568.738281 -26.230469 564.320312 -29.210938 558.441406 -31.351562 C 550.410156 -34.273438 543.972656 -35.675781 539.128906 -35.566406 C 500.050781 -34.671875 464.96875 -39.878906 433.878906 -51.1875 C 412.882812 -58.824219 394.105469 -69.8125 377.546875 -84.144531 C 360.617188 -98.804688 346.894531 -116.1875 336.375 -136.292969 C 325.15625 -157.738281 318.664062 -180.25 316.894531 -203.835938 C 315.070312 -228.203125 318.394531 -252.035156 326.867188 -275.332031 C 335.007812 -297.71875 347.027344 -317.53125 362.921875 -334.765625 C 378.597656 -351.765625 397.128906 -365.253906 418.511719 -375.230469 C 439.894531 -385.207031 462.132812 -390.742188 485.230469 -391.832031 C 508.648438 -392.941406 531.554688 -389.421875 553.945312 -381.277344 C 585.03125 -369.96875 615.261719 -351.421875 644.632812 -325.628906 C 648.273438 -322.433594 654.109375 -319.375 662.140625 -316.453125 C 669.347656 -313.832031 675.753906 -313.046875 681.355469 -314.101562 C 688.722656 -315.484375 695.496094 -318.695312 701.679688 -323.730469 C 706.320312 -327.507812 709.917969 -332.910156 712.472656 -339.9375 C 714.648438 -345.921875 715.136719 -352.136719 713.9375 -358.585938 C 712.304688 -367.363281 708.851562 -375.09375 703.574219 -381.777344 C 700.40625 -385.792969 695.664062 -388.949219 689.34375 -391.246094 Z M 689.34375 -391.246094 "/></g></g></g><g fill="#d4005f" fill-opacity="1"><g transform="translate(230.115077, 886.417847)"><g><path d="M 736.015625 -519.609375 C 766.660156 -508.460938 791.582031 -490.722656 810.78125 -466.390625 C 829.976562 -442.066406 842.453125 -414.460938 848.203125 -383.578125 C 853.960938 -352.703125 851.503906 -322.59375 840.828125 -293.25 C 829.679688 -262.601562 812.039062 -237.457031 787.90625 -217.8125 C 763.78125 -198.164062 736.664062 -185.507812 706.5625 -179.84375 C 676.457031 -174.1875 646.082031 -176.929688 615.4375 -188.078125 C 591.3125 -196.847656 570.992188 -208.476562 554.484375 -222.96875 C 537.984375 -237.46875 522.234375 -247.445312 507.234375 -252.90625 C 496.804688 -256.695312 486.476562 -256.207031 476.25 -251.4375 C 466.03125 -246.664062 459.019531 -239.066406 455.21875 -228.640625 C 451.664062 -218.859375 452.394531 -209.179688 457.40625 -199.609375 C 462.414062 -190.035156 470.132812 -183.351562 480.5625 -179.5625 C 495.5625 -174.101562 514.035156 -171.625 535.984375 -172.125 C 557.941406 -172.625 580.984375 -168.488281 605.109375 -159.71875 C 635.753906 -148.570312 660.617188 -130.671875 679.703125 -106.015625 C 698.785156 -81.359375 711.140625 -53.425781 716.765625 -22.21875 C 722.398438 8.988281 719.644531 39.910156 708.5 70.546875 C 697.832031 99.890625 680.429688 124.382812 656.296875 144.03125 C 632.171875 163.6875 604.9375 176.664062 574.59375 182.96875 C 544.25 189.28125 513.753906 186.863281 483.109375 175.71875 L 341.3125 124.140625 C 294.375 107.066406 253.742188 81.769531 219.421875 48.25 C 185.109375 14.738281 158.066406 -24.066406 138.296875 -68.171875 C 118.535156 -112.285156 107.441406 -158.40625 105.015625 -206.53125 C 102.585938 -254.65625 109.789062 -301.863281 126.625 -348.15625 C 144.175781 -396.40625 169.503906 -438.128906 202.609375 -473.328125 C 235.710938 -508.535156 273.988281 -536.140625 317.4375 -556.140625 C 360.882812 -576.140625 406.734375 -587.515625 454.984375 -590.265625 C 503.234375 -593.015625 551.273438 -586.0625 599.109375 -569.40625 Z M 736.015625 -519.609375 "/></g></g></g></g></g></svg>