<svg xmlns="http://www.w3.org/2000/svg" xmlns:xlink="http://www.w3.org/1999/xlink" width="6912" zoomAndPan="magnify" viewBox="0 0 5184 2592.000001" height="3456" preserveAspectRatio="xMidYMid meet" version="1.0"><defs><g/><clipPath id="f40c14359b"><rect x="0" width="3890" y="0" height="1471"/></clipPath><clipPath id="935dafe020"><rect x="0" width="1144" y="0" height="1289"/></clipPath></defs><g transform="matrix(1, 0, 0, 1, 1075, 699)"><g clip-path="url(#f40c14359b)"><g fill="#ffef42" fill-opacity="1"><g transform="translate(259.458126, 1046.015343)"><g><path d="M 565.195312 98.453125 C 509.085938 102.683594 456.09375 92.71875 406.222656 68.554688 C 357.265625 44.835938 317.300781 10.988281 286.324219 -32.992188 C 254.421875 -78.285156 236.335938 -129.289062 232.0625 -185.996094 L 229.34375 -222.054688 C 230.511719 -206.566406 234.675781 -191.808594 241.839844 -177.789062 C 248.808594 -164.144531 257.996094 -152.421875 269.402344 -142.617188 C 280.804688 -132.808594 293.773438 -125.484375 308.308594 -120.636719 C 323.242188 -115.65625 338.457031 -113.75 353.945312 -114.917969 C 369.433594 -116.085938 384.1875 -120.25 398.207031 -127.414062 C 411.851562 -134.382812 423.578125 -143.570312 433.382812 -154.976562 C 443.1875 -166.382812 450.515625 -179.351562 455.359375 -193.882812 C 460.339844 -208.820312 462.246094 -224.03125 461.078125 -239.519531 L 463.796875 -203.464844 C 468.085938 -146.5625 458.261719 -93.515625 434.328125 -44.320312 C 410.683594 4.269531 376.613281 43.898438 332.113281 74.554688 C 287.0625 105.597656 236.089844 123.261719 179.1875 127.550781 C 123.996094 131.710938 71.730469 121.96875 22.386719 98.324219 C -26.429688 74.929688 -66.386719 41.160156 -97.484375 -2.992188 C -129.386719 -48.289062 -147.5 -99.644531 -151.828125 -157.0625 L -183.320312 -574.886719 C -187.671875 -632.609375 -177.316406 -686.179688 -152.257812 -735.597656 C -128.109375 -783.21875 -93.78125 -822.164062 -49.277344 -852.4375 C -4.039062 -883.210938 46.179688 -900.679688 101.367188 -904.839844 C 158.269531 -909.128906 211.320312 -899.304688 260.511719 -875.367188 C 308.832031 -851.859375 348.28125 -818.199219 378.863281 -774.386719 C 410.179688 -729.527344 427.992188 -678.496094 432.304688 -621.289062 L 435.179688 -583.113281 C 433.898438 -600.132812 429.183594 -616.152344 421.042969 -631.175781 C 414.226562 -643.757812 405.558594 -654.570312 395.042969 -663.609375 C 383.636719 -673.414062 370.667969 -680.742188 356.136719 -685.585938 C 341.199219 -690.566406 325.988281 -692.472656 310.5 -691.304688 C 295.011719 -690.140625 280.253906 -685.972656 266.234375 -678.8125 C 252.59375 -671.839844 240.867188 -662.652344 231.0625 -651.25 C 222.019531 -640.734375 215.074219 -628.746094 210.21875 -615.285156 C 204.417969 -599.210938 202.160156 -582.664062 203.445312 -565.644531 L 200.566406 -603.820312 C 196.269531 -660.839844 206.648438 -714.054688 231.710938 -763.472656 C 255.761719 -810.902344 290.085938 -849.925781 334.683594 -880.542969 C 380.367188 -911.910156 431.265625 -929.707031 487.378906 -933.933594 C 544.085938 -938.210938 597.226562 -927.96875 646.792969 -903.21875 C 694.109375 -879.589844 733.042969 -846.371094 763.589844 -803.566406 C 795.773438 -758.460938 814.015625 -707.402344 818.3125 -650.382812 L 849.804688 -232.5625 C 854.082031 -175.851562 843.84375 -122.714844 819.089844 -73.148438 C 795.324219 -25.554688 761.695312 13.554688 718.203125 44.1875 C 672.90625 76.089844 621.90625 94.179688 565.195312 98.453125 Z M 544.210938 -179.941406 C 549.714844 -180.359375 554.125 -181.734375 557.441406 -184.066406 C 562.558594 -187.671875 566.519531 -192.277344 569.316406 -197.878906 C 571.125 -201.503906 571.824219 -206.070312 571.410156 -211.578125 L 539.914062 -629.398438 C 539.523438 -634.597656 538.328125 -638.59375 536.332031 -641.394531 C 532.691406 -646.496094 527.9375 -650.511719 522.0625 -653.445312 C 518.433594 -655.253906 513.867188 -655.953125 508.363281 -655.539062 C 502.261719 -655.078125 497.039062 -653.359375 492.699219 -650.378906 C 487.269531 -646.652344 483.273438 -642.261719 480.710938 -637.203125 C 479.152344 -634.136719 478.570312 -630.003906 478.964844 -624.804688 L 481.839844 -586.628906 C 483.550781 -563.953125 480.550781 -541.929688 472.839844 -520.554688 C 466.074219 -501.796875 456.046875 -484.6875 442.757812 -469.230469 C 428.699219 -452.882812 412.199219 -439.871094 393.25 -430.191406 C 373.925781 -420.316406 353.335938 -414.558594 331.484375 -412.910156 C 309.632812 -411.261719 288.410156 -413.871094 267.824219 -420.738281 C 247.636719 -427.46875 229.371094 -437.859375 213.027344 -451.914062 C 197.570312 -465.203125 185.089844 -480.617188 175.585938 -498.148438 C 164.761719 -518.125 158.492188 -539.449219 156.785156 -562.128906 L 153.90625 -600.304688 C 153.421875 -606.726562 152.097656 -611.484375 149.9375 -614.582031 C 147.042969 -618.730469 143.183594 -621.976562 138.363281 -624.320312 C 134.414062 -626.242188 129.078125 -626.949219 122.351562 -626.441406 C 116.742188 -626.019531 111.875 -624.402344 107.746094 -621.59375 C 102.878906 -618.285156 99.210938 -614.195312 96.742188 -609.328125 C 95.183594 -606.257812 94.628906 -601.773438 95.074219 -595.871094 L 126.570312 -178.046875 C 127.035156 -171.832031 128.4375 -167.070312 130.773438 -163.753906 C 133.914062 -159.296875 138 -155.863281 143.03125 -153.449219 C 147.535156 -151.292969 152.59375 -150.425781 158.203125 -150.847656 C 164.925781 -151.355469 170.097656 -152.851562 173.710938 -155.34375 C 177.878906 -158.214844 181.066406 -161.921875 183.28125 -166.472656 C 185.199219 -170.417969 185.90625 -175.753906 185.398438 -182.480469 L 182.683594 -218.535156 C 181.035156 -240.386719 183.644531 -261.609375 190.507812 -282.195312 C 197.238281 -302.382812 207.632812 -320.648438 221.6875 -336.996094 C 235.742188 -353.339844 252.246094 -366.355469 271.195312 -376.035156 C 290.519531 -385.90625 311.109375 -391.667969 332.960938 -393.316406 C 354.8125 -394.960938 376.03125 -392.355469 396.621094 -385.488281 C 416.804688 -378.757812 435.070312 -368.367188 451.417969 -354.308594 C 467.765625 -340.253906 480.777344 -323.753906 490.457031 -304.804688 C 500.332031 -285.476562 506.09375 -264.890625 507.738281 -243.039062 L 510.457031 -206.980469 C 510.871094 -201.476562 512.246094 -197.066406 514.582031 -193.75 C 517.84375 -189.117188 522.300781 -185.433594 527.949219 -182.695312 C 532.6875 -180.402344 538.109375 -179.484375 544.210938 -179.941406 Z M 544.210938 -179.941406 "/></g></g></g><g fill="#ffef42" fill-opacity="1"><g transform="translate(978.064273, 990.595708)"><g><path d="M 32.679688 111.296875 C -17.484375 87.574219 -58.117188 53.441406 -89.21875 8.902344 C -120.160156 -35.410156 -138.210938 -84.429688 -143.371094 -138.160156 C -148.589844 -192.519531 -139.738281 -244.636719 -116.816406 -294.515625 L 79.105469 -723.023438 C 105.375 -781.0625 144.582031 -825.871094 196.722656 -857.441406 C 245.429688 -886.929688 297.96875 -902.320312 354.339844 -903.609375 C 411.359375 -904.910156 464.894531 -891.507812 514.945312 -863.402344 C 567.941406 -833.640625 608.804688 -789.597656 637.53125 -731.28125 L 845.757812 -305.828125 C 870.9375 -256.933594 881.152344 -204.433594 876.402344 -148.328125 C 871.9375 -95.59375 855.324219 -47.109375 826.570312 -2.875 C 796.53125 43.339844 755.855469 78.996094 704.550781 104.101562 C 653.96875 128.167969 601.539062 138.257812 547.261719 134.367188 C 492.683594 130.457031 442.949219 113.367188 398.058594 83.101562 C 353.535156 53.085938 318.910156 13.433594 294.183594 -35.863281 L 196.148438 -236.148438 L 193.363281 -244.191406 C 199.308594 -227.027344 208.367188 -211.648438 220.546875 -198.050781 C 235.144531 -181.753906 252.648438 -169.660156 273.050781 -161.769531 C 300.226562 -151.261719 327.664062 -149.644531 355.355469 -156.910156 C 372.140625 -161.3125 387.539062 -168.734375 401.554688 -179.179688 C 419.269531 -192.378906 432.949219 -208.917969 442.605469 -228.796875 C 450.609375 -245.285156 455.074219 -262.625 456 -280.8125 C 456.582031 -292.246094 455.707031 -303.46875 453.371094 -314.476562 L 316.816406 -285.515625 L 452.132812 -319.800781 L 494.140625 -154.003906 L 443.222656 -40.230469 C 418.6875 11.699219 384.148438 53.214844 339.605469 84.320312 C 295.296875 115.261719 246.273438 133.3125 192.546875 138.46875 C 139.15625 143.597656 87.15625 135.125 36.550781 113.054688 L 34.601562 112.207031 Z M 152.035156 -141.089844 L 92.355469 -14.898438 L 148.160156 -142.851562 C 154.566406 -140.058594 160.464844 -138.917969 165.859375 -139.4375 C 170.914062 -139.921875 175.550781 -141.636719 179.769531 -144.585938 C 183.757812 -147.371094 186.632812 -150.601562 188.394531 -154.277344 L 219.492188 -223.769531 L 346.910156 -166.746094 L 211.59375 -132.460938 L 180.828125 -253.878906 L 180.261719 -256.550781 C 173.261719 -289.554688 176.992188 -320.953125 191.460938 -350.746094 C 201.632812 -371.695312 216.058594 -389.128906 234.738281 -403.046875 C 249.71875 -414.210938 266.308594 -422.179688 284.507812 -426.957031 C 315.027344 -434.964844 344.765625 -433.367188 373.722656 -422.171875 C 395.019531 -413.941406 413.28125 -401.324219 428.507812 -384.324219 C 441.3125 -370.023438 450.871094 -353.765625 457.183594 -335.542969 L 325.273438 -289.867188 L 450.65625 -351.234375 L 543.734375 -161.039062 C 546.585938 -155.351562 550.050781 -151.132812 554.121094 -148.390625 C 557.824219 -145.894531 562.191406 -144.464844 567.21875 -144.105469 C 572.550781 -143.722656 577.425781 -144.578125 581.847656 -146.675781 C 586.941406 -149.167969 590.492188 -151.957031 592.492188 -155.035156 C 595.78125 -160.097656 597.6875 -165.714844 598.210938 -171.886719 C 598.449219 -174.691406 597.375 -178.425781 594.992188 -183.097656 L 387.082031 -607.910156 C 383.859375 -614.453125 380.914062 -618.472656 378.242188 -619.972656 C 372.628906 -623.125 366.785156 -624.632812 360.714844 -624.492188 C 354.003906 -624.339844 347.539062 -622.382812 341.324219 -618.621094 C 338.550781 -616.941406 335.777344 -613.042969 333.011719 -606.933594 L 136.863281 -177.933594 C 134.886719 -173.636719 134.113281 -169.273438 134.539062 -164.847656 C 135.023438 -159.792969 136.738281 -155.15625 139.683594 -150.9375 C 142.46875 -146.949219 146.585938 -143.667969 152.035156 -141.089844 Z M 152.035156 -141.089844 "/></g></g></g><g fill="#ffef42" fill-opacity="1"><g transform="translate(1566.435909, 980.457774)"><g><path d="M 532.484375 -875.617188 C 590.226562 -873.488281 642.570312 -857.066406 689.511719 -826.359375 C 734.515625 -796.917969 769.761719 -758.617188 795.242188 -711.460938 C 821.582031 -662.71875 833.710938 -610.082031 831.625 -553.554688 C 829.5625 -497.644531 813.746094 -446.671875 784.171875 -400.644531 C 756.007812 -356.808594 719.128906 -321.898438 673.535156 -295.921875 C 624.785156 -268.144531 571.230469 -255.332031 512.867188 -257.488281 L 518.015625 -396.984375 L 657.535156 -392.4375 L 649.460938 -144.777344 C 647.351562 -87.644531 631.085938 -35.511719 600.65625 11.613281 C 571.429688 56.878906 533.378906 92.488281 486.5 118.433594 C 437.425781 145.597656 384.371094 158.128906 327.335938 156.023438 C 270.703125 153.933594 219.011719 137.390625 172.253906 106.394531 C 127.691406 76.847656 92.738281 38.292969 67.394531 -9.273438 C 41.339844 -58.179688 29.347656 -110.75 31.425781 -166.984375 L 40.5625 -414.605469 L 180.0625 -409.457031 L 174.914062 -269.957031 C 117.570312 -272.074219 65.523438 -288.632812 18.769531 -319.628906 C -25.472656 -348.960938 -60.097656 -386.660156 -85.101562 -432.726562 C -111.203125 -480.804688 -123.21875 -532.804688 -121.15625 -588.714844 C -119.089844 -644.734375 -103.546875 -695.9375 -74.527344 -742.324219 C -46.089844 -787.789062 -8.46875 -823.664062 38.339844 -849.945312 C 87.253906 -877.414062 140.378906 -890.089844 197.71875 -887.972656 Z M 522.191406 -596.621094 L 187.421875 -608.976562 C 182.417969 -609.160156 178.289062 -608.339844 175.039062 -606.515625 C 169.683594 -603.507812 165.390625 -599.425781 162.164062 -594.265625 C 159.515625 -590.03125 158.074219 -584.75 157.839844 -578.421875 C 157.65625 -573.402344 158.464844 -569.230469 160.265625 -565.910156 C 163.164062 -560.574219 167.417969 -556.046875 173.039062 -552.320312 C 176.144531 -550.261719 180.203125 -549.140625 185.207031 -548.953125 L 324.707031 -543.808594 L 310.421875 -156.6875 C 310.195312 -150.570312 311.320312 -145.191406 313.796875 -140.546875 C 316.984375 -134.558594 321.226562 -129.8125 326.523438 -126.300781 C 329.628906 -124.238281 333.332031 -123.128906 337.632812 -122.972656 C 342.945312 -122.777344 347.5 -123.726562 351.296875 -125.828125 C 357.289062 -129.148438 362.230469 -133.8125 366.109375 -139.824219 C 368.792969 -143.976562 370.226562 -148.660156 370.421875 -153.875 L 383.066406 -541.652344 L 523.164062 -536.484375 C 528.566406 -536.285156 532.617188 -536.953125 535.324219 -538.496094 C 541.183594 -541.835938 545.839844 -546.1875 549.289062 -551.554688 C 551.328125 -554.734375 552.441406 -558.832031 552.628906 -563.851562 C 552.84375 -569.671875 551.84375 -574.632812 549.625 -578.734375 C 546.550781 -584.421875 542.230469 -589.085938 536.667969 -592.726562 C 533.039062 -595.101562 528.210938 -596.398438 522.191406 -596.621094 Z M 522.191406 -596.621094 "/></g></g></g><g fill="#ffef42" fill-opacity="1"><g transform="translate(2217.088175, 1003.429871)"><g><path d="M 581.773438 -843.675781 C 639.296875 -838.242188 690.613281 -818.851562 735.714844 -785.503906 C 778.960938 -753.53125 811.953125 -713.277344 834.695312 -664.738281 C 858.199219 -614.566406 867.289062 -561.324219 861.96875 -505.007812 C 856.707031 -449.304688 837.996094 -399.324219 805.835938 -355.066406 C 775.207031 -312.914062 736.386719 -280.175781 689.382812 -256.851562 C 639.121094 -231.914062 584.917969 -222.191406 526.777344 -227.683594 L 539.90625 -366.660156 L 678.9375 -354.125 L 656.6875 -107.332031 C 651.308594 -50.414062 632.082031 0.695312 599.003906 46.003906 C 567.230469 89.523438 527.203125 122.890625 478.917969 146.109375 C 428.367188 170.417969 374.679688 179.886719 317.859375 174.519531 C 261.441406 169.1875 210.78125 149.710938 165.878906 116.085938 C 123.078125 84.039062 90.390625 43.542969 67.816406 -5.398438 C 44.605469 -55.71875 35.644531 -108.886719 40.9375 -164.910156 L 64.246094 -411.601562 L 203.222656 -398.46875 L 190.089844 -259.496094 C 132.964844 -264.894531 81.949219 -284.402344 37.046875 -318.027344 C -5.441406 -349.847656 -37.851562 -389.46875 -60.175781 -436.890625 C -83.476562 -486.386719 -92.496094 -538.988281 -87.230469 -594.6875 C -81.960938 -650.496094 -63.507812 -700.726562 -31.882812 -745.375 C -0.886719 -789.136719 38.730469 -822.792969 86.964844 -846.355469 C 137.371094 -870.972656 191.136719 -880.585938 248.261719 -875.1875 Z M 555.511719 -565.730469 L 222 -597.238281 C 217.011719 -597.710938 212.84375 -597.128906 209.496094 -595.492188 C 203.976562 -592.796875 199.457031 -588.964844 195.941406 -584 C 193.054688 -579.925781 191.3125 -574.734375 190.714844 -568.429688 C 190.246094 -563.429688 190.8125 -559.21875 192.421875 -555.800781 C 195.007812 -550.308594 199 -545.542969 204.394531 -541.503906 C 207.375 -539.269531 211.363281 -537.914062 216.351562 -537.445312 L 355.324219 -524.3125 L 318.886719 -138.648438 C 318.3125 -132.554688 319.125 -127.117188 321.332031 -122.339844 C 324.171875 -116.179688 328.136719 -111.195312 333.222656 -107.386719 C 336.207031 -105.152344 339.839844 -103.832031 344.121094 -103.429688 C 349.417969 -102.929688 354.019531 -103.617188 357.925781 -105.496094 C 364.101562 -108.46875 369.300781 -112.84375 373.519531 -118.621094 C 376.433594 -122.613281 378.136719 -127.207031 378.628906 -132.402344 L 413.464844 -518.820312 L 553.035156 -505.632812 C 558.417969 -505.125 562.503906 -505.5625 565.292969 -506.945312 C 571.335938 -509.945312 576.230469 -514.023438 579.980469 -519.183594 C 582.203125 -522.242188 583.550781 -526.269531 584.019531 -531.269531 C 584.570312 -537.066406 583.855469 -542.074219 581.875 -546.296875 C 579.132812 -552.152344 575.089844 -557.058594 569.742188 -561.011719 C 566.253906 -563.589844 561.511719 -565.160156 555.511719 -565.730469 Z M 555.511719 -565.730469 "/></g></g></g><g fill="#ffef42" fill-opacity="1"><g transform="translate(2876.227029, 1064.080519)"><g><path d="M 459.183594 -743.445312 C 505.019531 -778.027344 555.1875 -798.183594 609.695312 -803.921875 C 662.960938 -809.527344 714.292969 -801.546875 763.695312 -779.980469 C 815.132812 -757.523438 857.15625 -722.367188 889.769531 -674.519531 L 774.417969 -595.902344 L 887.175781 -678.195312 C 920.273438 -632.84375 939.175781 -582.277344 943.890625 -526.488281 C 948.332031 -473.917969 940.421875 -423.464844 920.152344 -375.125 C 899.316406 -325.429688 867.058594 -283.535156 823.375 -249.441406 L 654.070312 -123.011719 L 570.5625 -234.871094 L 708.484375 -213.328125 L 685.507812 -66.222656 C 676.730469 -10.035156 654.640625 39.363281 619.234375 81.976562 C 585.042969 123.121094 542.941406 153.609375 492.925781 173.433594 C 441.417969 193.847656 387.722656 199.691406 331.832031 190.960938 C 276.644531 182.34375 227.636719 160.457031 184.808594 125.308594 C 143.222656 91.175781 112.421875 49.300781 92.40625 -0.308594 C 71.679688 -51.691406 65.707031 -105.472656 74.480469 -161.660156 L 97.457031 -308.765625 L 235.378906 -287.222656 L 121.738281 -206.15625 L 0.761719 -375.742188 C -31.582031 -423.167969 -50.101562 -473.71875 -54.789062 -527.40625 C -59.351562 -579.621094 -51.5 -630.085938 -31.238281 -678.796875 C -9.738281 -730.488281 23.6875 -772.882812 69.039062 -805.980469 L 151.332031 -693.222656 L 65.445312 -803.269531 C 110.972656 -838.800781 161.394531 -859.476562 216.71875 -865.300781 C 270.296875 -870.941406 321.546875 -862.898438 370.472656 -841.167969 C 420.851562 -818.796875 462.261719 -783.8125 494.691406 -736.226562 L 379.339844 -657.613281 L 492.613281 -739.191406 L 562.492188 -642.167969 L 449.21875 -560.585938 L 364.789062 -671.753906 L 458.824219 -743.175781 Z M 627.6875 -520.84375 L 419.625 -362.820312 L 265.007812 -577.5 L 263.988281 -578.996094 C 261.394531 -582.804688 259.117188 -585.144531 257.15625 -586.011719 C 253.742188 -587.53125 250.003906 -588.074219 245.945312 -587.648438 C 243.632812 -587.40625 240.722656 -585.914062 237.214844 -583.179688 L 235.441406 -581.792969 L 233.625 -580.46875 C 230.378906 -578.101562 228.019531 -575.136719 226.539062 -571.578125 C 223.816406 -565.039062 222.75 -558.414062 223.335938 -551.699219 C 223.796875 -546.457031 225.363281 -541.847656 228.046875 -537.875 L 382.085938 -321.9375 L 350.324219 -118.578125 C 349.472656 -113.121094 349.804688 -108.515625 351.320312 -104.753906 C 353.550781 -99.226562 357.085938 -94.476562 361.929688 -90.5 C 365.535156 -87.542969 369.863281 -85.667969 374.917969 -84.878906 C 380.671875 -83.980469 385.714844 -84.390625 390.050781 -86.109375 C 395.875 -88.417969 400.691406 -91.863281 404.5 -96.449219 C 407.09375 -99.566406 408.8125 -103.855469 409.667969 -109.308594 L 441.429688 -312.667969 L 651.605469 -469.535156 C 656.953125 -473.707031 660.648438 -478.222656 662.683594 -483.078125 C 665.289062 -489.292969 666.292969 -495.925781 665.695312 -502.984375 C 665.371094 -506.824219 664.027344 -510.367188 661.660156 -513.613281 L 660.332031 -515.429688 L 659.066406 -517.289062 C 656.648438 -520.835938 654.289062 -523.109375 651.984375 -524.117188 C 647.644531 -526.011719 643.289062 -526.730469 638.917969 -526.269531 C 635.789062 -525.9375 631.921875 -524.039062 627.328125 -520.570312 Z M 627.6875 -520.84375 "/></g></g></g><g fill="#d4005f" fill-opacity="1"><g transform="translate(259.458126, 1046.015343)"><g><path d="M 554.6875 -40.734375 C 523.582031 -38.390625 494.378906 -43.832031 467.078125 -57.0625 C 439.773438 -70.289062 417.5625 -89.054688 400.4375 -113.359375 C 383.320312 -137.671875 373.59375 -165.378906 371.25 -196.484375 L 368.53125 -232.546875 C 368.050781 -238.898438 365.34375 -244.203125 360.40625 -248.453125 C 355.46875 -252.703125 349.8125 -254.585938 343.4375 -254.109375 C 337.082031 -253.628906 331.78125 -250.914062 327.53125 -245.96875 C 323.289062 -241.03125 321.410156 -235.382812 321.890625 -229.03125 L 324.609375 -192.96875 C 327.003906 -161.15625 321.734375 -131.960938 308.796875 -105.390625 C 295.867188 -78.828125 277.238281 -57.160156 252.90625 -40.390625 C 228.582031 -23.617188 200.507812 -14.035156 168.6875 -11.640625 C 138.289062 -9.347656 109.628906 -14.65625 82.703125 -27.5625 C 55.785156 -40.46875 33.765625 -59.070312 16.640625 -83.375 C -0.472656 -107.675781 -10.226562 -135.734375 -12.625 -167.546875 L -44.109375 -585.359375 C -46.515625 -617.179688 -41.0625 -646.210938 -27.75 -672.453125 C -14.4375 -698.691406 4.554688 -720.207031 29.234375 -737 C 53.921875 -753.789062 81.460938 -763.332031 111.859375 -765.625 C 143.679688 -768.019531 172.875 -762.753906 199.4375 -749.828125 C 226.007812 -736.898438 247.664062 -718.445312 264.40625 -694.46875 C 281.144531 -670.5 290.71875 -642.601562 293.125 -610.78125 L 296 -572.609375 C 296.425781 -566.953125 299.109375 -562 304.046875 -557.75 C 308.984375 -553.5 314.628906 -551.613281 320.984375 -552.09375 C 327.359375 -552.570312 332.664062 -555.28125 336.90625 -560.21875 C 341.15625 -565.164062 343.066406 -570.46875 342.640625 -576.125 L 339.765625 -614.296875 C 337.421875 -645.410156 342.898438 -674.082031 356.203125 -700.3125 C 369.515625 -726.550781 388.675781 -748.257812 413.6875 -765.4375 C 438.695312 -782.613281 466.753906 -792.375 497.859375 -794.71875 C 528.960938 -797.0625 557.816406 -791.585938 584.421875 -778.296875 C 611.023438 -765.015625 632.867188 -746.398438 649.953125 -722.453125 C 667.046875 -698.503906 676.765625 -670.972656 679.109375 -639.859375 L 710.59375 -222.046875 C 712.9375 -190.941406 707.46875 -162.09375 694.1875 -135.5 C 680.914062 -108.90625 662.125 -87.046875 637.8125 -69.921875 C 613.5 -52.804688 585.789062 -43.078125 554.6875 -40.734375 Z M 554.6875 -40.734375 "/></g></g></g><g fill="#d4005f" fill-opacity="1"><g transform="translate(978.064273, 990.595708)"><g><path d="M 92.359375 -14.90625 C 64.554688 -28.050781 42.179688 -46.753906 25.234375 -71.015625 C 8.285156 -95.273438 -1.59375 -122.097656 -4.40625 -151.484375 C -7.226562 -180.878906 -2.414062 -209.125 10.03125 -236.21875 L 206.046875 -664.984375 C 220.578125 -697.046875 241.566406 -721.390625 269.015625 -738.015625 C 296.472656 -754.640625 325.972656 -763.3125 357.515625 -764.03125 C 389.066406 -764.75 418.757812 -757.296875 446.59375 -741.671875 C 474.425781 -726.054688 496.320312 -702.03125 512.28125 -669.59375 L 720.359375 -244.46875 C 734.140625 -217.675781 739.78125 -189.550781 737.28125 -160.09375 C 734.789062 -130.632812 725.535156 -103.582031 709.515625 -78.9375 C 693.503906 -54.300781 671.398438 -35.085938 643.203125 -21.296875 C 615.691406 -8.210938 587.03125 -2.734375 557.21875 -4.859375 C 527.414062 -6.992188 500.367188 -16.253906 476.078125 -32.640625 C 451.785156 -49.023438 432.742188 -70.960938 418.953125 -98.453125 L 325.265625 -289.875 C 324.523438 -291.988281 322.742188 -292.675781 319.921875 -291.9375 C 317.097656 -291.195312 316.0625 -289.054688 316.8125 -285.515625 L 346.890625 -166.734375 L 315.796875 -97.25 C 302.648438 -69.445312 283.941406 -47.070312 259.671875 -30.125 C 235.410156 -13.1875 208.582031 -3.304688 179.1875 -0.484375 C 149.800781 2.335938 120.859375 -2.46875 92.359375 -14.90625 Z M 92.359375 -14.90625 "/></g></g></g><g fill="#d4005f" fill-opacity="1"><g transform="translate(1566.435909, 980.457774)"><g><path d="M 527.3125 -736.125 C 559.195312 -734.945312 587.78125 -726.085938 613.0625 -709.546875 C 638.351562 -693.003906 658.140625 -671.519531 672.421875 -645.09375 C 686.703125 -618.675781 693.269531 -589.878906 692.125 -558.703125 C 691 -528.234375 682.53125 -500.695312 666.71875 -476.09375 C 650.90625 -451.5 630.132812 -431.867188 604.40625 -417.203125 C 578.6875 -402.546875 549.882812 -395.804688 518 -396.984375 L 509.921875 -149.34375 C 508.773438 -118.164062 499.925781 -89.753906 483.375 -64.109375 C 466.820312 -38.460938 445.328125 -18.320312 418.890625 -3.6875 C 392.453125 10.9375 363.644531 17.671875 332.46875 16.515625 C 302.007812 15.390625 274.3125 6.566406 249.375 -9.953125 C 224.445312 -26.472656 204.851562 -48.125 190.59375 -74.90625 C 176.332031 -101.6875 169.773438 -130.664062 170.921875 -161.84375 L 180.0625 -409.453125 C 148.882812 -410.597656 120.828125 -419.4375 95.890625 -435.96875 C 70.953125 -452.5 51.507812 -473.613281 37.5625 -499.3125 C 23.625 -525.007812 17.21875 -553.09375 18.34375 -583.5625 C 19.488281 -614.738281 27.972656 -642.976562 43.796875 -668.28125 C 59.628906 -693.59375 80.585938 -713.570312 106.671875 -728.21875 C 132.753906 -742.863281 161.382812 -749.613281 192.5625 -748.46875 Z M 527.3125 -736.125 "/></g></g></g><g fill="#d4005f" fill-opacity="1"><g transform="translate(2217.088175, 1003.429871)"><g><path d="M 568.625 -704.6875 C 600.382812 -701.6875 628.410156 -691.207031 652.703125 -673.25 C 676.992188 -655.289062 695.507812 -632.710938 708.25 -605.515625 C 721 -578.328125 725.90625 -549.203125 722.96875 -518.140625 C 720.101562 -487.785156 710.078125 -460.78125 692.890625 -437.125 C 675.710938 -413.46875 653.859375 -395.054688 627.328125 -381.890625 C 600.796875 -368.734375 571.648438 -363.65625 539.890625 -366.65625 L 517.640625 -119.875 C 514.710938 -88.820312 504.25 -60.96875 486.25 -36.3125 C 468.257812 -11.65625 445.644531 7.210938 418.40625 20.296875 C 391.175781 33.390625 362.03125 38.472656 330.96875 35.546875 C 300.625 32.671875 273.476562 22.269531 249.53125 4.34375 C 225.59375 -13.582031 207.269531 -36.320312 194.5625 -63.875 C 181.863281 -91.425781 176.976562 -120.726562 179.90625 -151.78125 L 203.21875 -398.46875 C 172.15625 -401.394531 144.648438 -411.820312 120.703125 -429.75 C 96.765625 -447.6875 78.566406 -469.878906 66.109375 -496.328125 C 53.660156 -522.785156 48.867188 -551.191406 51.734375 -581.546875 C 54.671875 -612.609375 64.765625 -640.316406 82.015625 -664.671875 C 99.265625 -689.035156 121.328125 -707.78125 148.203125 -720.90625 C 175.085938 -734.03125 204.0625 -739.128906 235.125 -736.203125 Z M 568.625 -704.6875 "/></g></g></g><g fill="#d4005f" fill-opacity="1"><g transform="translate(2876.227029, 1064.080519)"><g><path d="M 543.25 -631.984375 C 568.46875 -651.015625 595.484375 -662.046875 624.296875 -665.078125 C 653.109375 -668.117188 680.945312 -663.769531 707.8125 -652.03125 C 734.6875 -640.300781 756.878906 -621.585938 774.390625 -595.890625 C 792.128906 -571.597656 802.253906 -544.546875 804.765625 -514.734375 C 807.273438 -484.921875 802.816406 -456.375 791.390625 -429.09375 C 779.960938 -401.820312 761.988281 -378.617188 737.46875 -359.484375 L 570.546875 -234.875 L 547.578125 -87.78125 C 542.765625 -56.945312 530.859375 -30.097656 511.859375 -7.234375 C 492.859375 15.628906 469.398438 32.59375 441.484375 43.65625 C 413.566406 54.726562 384.195312 57.859375 353.375 53.046875 C 323.25 48.335938 296.578125 36.457031 273.359375 17.40625 C 250.148438 -1.644531 232.984375 -24.953125 221.859375 -52.515625 C 210.742188 -80.085938 207.59375 -109.289062 212.40625 -140.125 L 235.375 -287.21875 L 114.390625 -456.796875 C 96.890625 -482.492188 86.847656 -510.070312 84.265625 -539.53125 C 81.679688 -569 86.140625 -597.546875 97.640625 -625.171875 C 109.140625 -652.796875 127.03125 -675.472656 151.3125 -693.203125 C 175.832031 -712.335938 202.5 -723.421875 231.3125 -726.453125 C 260.132812 -729.492188 287.628906 -725.203125 313.796875 -713.578125 C 339.972656 -701.953125 361.816406 -683.289062 379.328125 -657.59375 L 449.21875 -560.578125 Z M 543.25 -631.984375 "/></g></g></g></g></g><g transform="matrix(1, 0, 0, 1, 208, 312)"><g clip-path="url(#935dafe020)"><g fill="#ffef42" fill-opacity="1"><g transform="translate(259.062033, 1003.828753)"><g><path d="M 415.316406 -951.75 C 474.667969 -958.847656 530.703125 -950.148438 583.417969 -925.660156 C 632.984375 -902.636719 674.476562 -869.230469 707.886719 -825.445312 C 742.765625 -779.738281 763.609375 -728.433594 770.410156 -671.539062 C 777.414062 -612.953125 769.210938 -557.410156 745.796875 -504.917969 C 723.214844 -454.285156 690.105469 -412.257812 646.472656 -378.839844 C 601.382812 -344.308594 549.644531 -323.550781 491.25 -316.570312 C 447.832031 -311.378906 406.78125 -313.777344 368.105469 -323.765625 C 364.28125 -324.753906 361.253906 -325.355469 359.011719 -325.574219 C 359.558594 -325.519531 360.785156 -325.605469 362.691406 -325.835938 C 375.601562 -327.378906 387.882812 -331.449219 399.539062 -338.046875 C 410.90625 -344.480469 420.480469 -352.644531 428.257812 -362.535156 C 436.035156 -372.425781 441.710938 -383.652344 445.285156 -396.21875 C 448.949219 -409.097656 450.011719 -421.996094 448.464844 -434.90625 C 446.722656 -449.5 441.960938 -463.242188 434.1875 -476.132812 C 426.828125 -488.339844 417.578125 -498.425781 406.445312 -506.390625 C 396.5625 -513.460938 385.585938 -518.507812 373.507812 -521.539062 C 361.921875 -524.445312 350.425781 -525.214844 339.015625 -523.851562 C 337.109375 -523.621094 335.898438 -523.417969 335.382812 -523.238281 C 337.507812 -523.976562 340.308594 -525.277344 343.792969 -527.136719 C 379.023438 -545.960938 418.351562 -557.96875 461.773438 -563.160156 C 521.597656 -570.3125 578.050781 -561.25 631.132812 -535.980469 C 680.476562 -512.488281 721.765625 -478.714844 755 -434.652344 C 789.644531 -388.726562 810.433594 -336.75 817.371094 -278.722656 C 824.207031 -221.542969 815.917969 -166.707031 792.507812 -114.214844 C 770.308594 -64.449219 737.949219 -22.621094 695.425781 11.261719 C 649.96875 47.488281 597.5625 69.148438 538.210938 76.246094 L 385.097656 94.550781 C 314.484375 102.992188 246.234375 96.808594 180.34375 76.003906 C 116.722656 55.917969 58.867188 24.738281 6.773438 -17.527344 C -45.136719 -59.644531 -87.613281 -109.679688 -120.652344 -167.632812 C -154.371094 -226.769531 -175.335938 -290.675781 -183.546875 -359.351562 C -192.046875 -430.457031 -186.601562 -498.875 -167.210938 -564.609375 C -148.109375 -629.359375 -117.714844 -687.964844 -76.027344 -740.417969 C -34.644531 -792.488281 15.046875 -835.308594 73.042969 -868.890625 C 131.777344 -902.894531 195.960938 -924.546875 265.585938 -933.839844 Z M 448.457031 -674.539062 L 302.519531 -657.105469 C 269.535156 -652.703125 239.671875 -642.761719 212.929688 -627.277344 C 185.445312 -611.363281 161.984375 -591.175781 142.539062 -566.710938 C 123.402344 -542.632812 109.410156 -515.601562 100.566406 -485.617188 C 92.011719 -456.613281 89.710938 -425.570312 93.664062 -392.488281 C 97.40625 -361.203125 106.808594 -332.34375 121.878906 -305.917969 C 137.621094 -278.304688 157.890625 -254.441406 182.679688 -234.324219 C 207.292969 -214.359375 234.535156 -199.65625 264.410156 -190.222656 C 292.019531 -181.507812 321.203125 -178.984375 351.957031 -182.664062 L 505.070312 -200.96875 C 511.894531 -201.78125 517.347656 -203.820312 521.4375 -207.074219 C 528.460938 -212.671875 533.824219 -219.625 537.53125 -227.9375 C 540.019531 -233.519531 540.898438 -239.402344 540.15625 -245.582031 C 539.183594 -253.726562 536.503906 -260.707031 532.117188 -266.523438 C 526.320312 -274.207031 519.324219 -280 511.125 -283.902344 C 506.664062 -286.023438 501.261719 -286.707031 494.914062 -285.949219 C 486.238281 -284.910156 479.71875 -283.226562 475.355469 -280.894531 C 440.121094 -262.070312 405.722656 -250.652344 372.15625 -246.636719 C 349.484375 -243.929688 327.292969 -245.296875 305.585938 -250.738281 C 283.390625 -256.308594 262.859375 -265.835938 244 -279.328125 C 223.886719 -293.71875 207.589844 -311.261719 195.109375 -331.960938 C 182.210938 -353.34375 174.261719 -376.613281 171.253906 -401.765625 C 168.363281 -425.941406 170.195312 -449.550781 176.75 -472.59375 C 183.214844 -495.324219 193.898438 -516.164062 208.804688 -535.117188 C 223.710938 -554.074219 241.449219 -569.371094 262.011719 -581.011719 C 282.863281 -592.8125 305.375 -600.15625 329.550781 -603.046875 C 363.113281 -607.058594 399.234375 -604.074219 437.914062 -594.085938 C 442.707031 -592.847656 449.4375 -592.746094 458.113281 -593.78125 C 465.894531 -594.714844 472.097656 -596.949219 476.71875 -600.492188 C 482.804688 -605.148438 487.503906 -611.199219 490.820312 -618.640625 C 493.3125 -624.222656 494.105469 -630.808594 493.199219 -638.398438 C 492.425781 -644.859375 490.007812 -650.753906 485.941406 -656.082031 C 480.40625 -663.335938 473.691406 -668.792969 465.800781 -672.460938 C 461.0625 -674.660156 455.28125 -675.355469 448.457031 -674.539062 Z M 448.457031 -674.539062 "/></g></g></g><g fill="#d4005f" fill-opacity="1"><g transform="translate(259.062033, 1003.828753)"><g><path d="M 431.890625 -813.125 C 464.972656 -817.082031 495.878906 -812.390625 524.609375 -799.046875 C 553.335938 -785.703125 577.4375 -766.269531 596.90625 -740.75 C 616.382812 -715.226562 628.015625 -686.628906 631.796875 -654.953125 C 635.753906 -621.867188 631.253906 -590.804688 618.296875 -561.765625 C 605.347656 -532.734375 586.445312 -508.695312 561.59375 -489.65625 C 536.738281 -470.625 507.769531 -459.128906 474.6875 -455.171875 C 448.632812 -452.054688 424.738281 -453.300781 403 -458.90625 C 381.269531 -464.519531 362.304688 -466.363281 346.109375 -464.4375 C 334.847656 -463.082031 325.65625 -457.875 318.53125 -448.8125 C 311.40625 -439.757812 308.515625 -429.597656 309.859375 -418.328125 C 311.117188 -407.773438 316.238281 -399.285156 325.21875 -392.859375 C 334.195312 -386.429688 344.316406 -383.894531 355.578125 -385.25 C 371.773438 -387.175781 389.769531 -393.425781 409.5625 -404 C 429.363281 -414.582031 452.289062 -421.429688 478.34375 -424.546875 C 511.425781 -428.503906 542.351562 -423.632812 571.125 -409.9375 C 599.894531 -396.238281 624.035156 -376.453125 643.546875 -350.578125 C 663.066406 -324.703125 674.804688 -295.222656 678.765625 -262.140625 C 682.546875 -230.460938 677.957031 -200.101562 665 -171.0625 C 652.050781 -142.03125 633.191406 -117.644531 608.421875 -97.90625 C 583.648438 -78.164062 554.722656 -66.316406 521.640625 -62.359375 L 368.53125 -44.0625 C 317.84375 -38 269.117188 -42.347656 222.359375 -57.109375 C 175.609375 -71.878906 133.0625 -94.816406 94.71875 -125.921875 C 56.375 -157.035156 25.003906 -193.984375 0.609375 -236.765625 C -23.785156 -279.554688 -38.96875 -325.9375 -44.9375 -375.90625 C -51.164062 -428.007812 -47.296875 -477.742188 -33.328125 -525.109375 C -19.359375 -572.472656 2.828125 -615.285156 33.234375 -653.546875 C 63.648438 -691.816406 100.226562 -723.320312 142.96875 -748.0625 C 185.71875 -772.8125 232.742188 -788.609375 284.046875 -795.453125 Z M 431.890625 -813.125 "/></g></g></g></g></g></svg>