<svg xmlns="http://www.w3.org/2000/svg" xmlns:xlink="http://www.w3.org/1999/xlink" width="6912" zoomAndPan="magnify" viewBox="0 0 5184 2592.000001" height="3456" preserveAspectRatio="xMidYMid meet" version="1.0"><defs><g/><clipPath id="dae992d42e"><rect x="0" width="4762" y="0" height="1427"/></clipPath><clipPath id="c82cf96bab"><rect x="0" width="1415" y="0" height="1505"/></clipPath></defs><g transform="matrix(1, 0, 0, 1, 207, 902)"><g clip-path="url(#dae992d42e)"><g fill="#ffef42" fill-opacity="1"><g transform="translate(285.833966, 1130.684345)"><g><path d="M 400.386719 -994.171875 C 461.410156 -1003.246094 519.476562 -995.925781 574.585938 -972.21875 C 626.402344 -949.925781 670.195312 -916.6875 705.957031 -872.5 C 743.292969 -826.371094 766.308594 -774.058594 775.003906 -715.558594 C 783.960938 -655.324219 777.136719 -597.78125 754.53125 -542.933594 C 732.726562 -490.027344 699.808594 -445.691406 655.78125 -409.929688 C 610.28125 -372.96875 557.511719 -350.027344 497.476562 -341.101562 C 452.832031 -334.464844 410.410156 -335.730469 370.214844 -344.890625 C 366.242188 -345.796875 363.097656 -346.328125 360.78125 -346.488281 C 361.34375 -346.449219 362.605469 -346.574219 364.566406 -346.867188 C 377.839844 -348.839844 390.394531 -353.402344 402.222656 -360.550781 C 413.761719 -367.527344 423.398438 -376.230469 431.128906 -386.664062 C 438.863281 -397.097656 444.386719 -408.847656 447.703125 -421.917969 C 451.101562 -435.316406 451.816406 -448.652344 449.84375 -461.925781 C 447.613281 -476.929688 442.296875 -490.96875 433.894531 -504.039062 C 425.941406 -516.414062 416.101562 -526.546875 404.378906 -534.4375 C 393.976562 -541.4375 382.5 -546.324219 369.953125 -549.089844 C 357.914062 -551.746094 346.03125 -552.203125 334.300781 -550.460938 C 332.339844 -550.167969 331.09375 -549.921875 330.566406 -549.722656 C 332.738281 -550.546875 335.589844 -551.96875 339.128906 -553.992188 C 374.921875 -574.453125 415.140625 -588 459.785156 -594.636719 C 521.292969 -603.78125 579.804688 -596.101562 635.316406 -571.59375 C 686.914062 -548.816406 730.507812 -515.1875 766.097656 -470.714844 C 803.195312 -424.355469 826.179688 -371.34375 835.046875 -311.679688 C 843.789062 -252.890625 836.855469 -196.074219 814.25 -141.226562 C 792.820312 -89.226562 760.667969 -45.121094 717.800781 -8.90625 C 671.96875 29.808594 618.542969 53.703125 557.519531 62.773438 L 400.09375 86.179688 C 327.492188 96.972656 256.894531 92.609375 188.304688 73.089844 C 122.070312 54.242188 61.460938 23.785156 6.472656 -18.28125 C -48.328125 -60.203125 -93.625 -110.570312 -129.425781 -169.382812 C -165.957031 -229.398438 -189.472656 -294.710938 -199.96875 -365.320312 C -210.839844 -438.429688 -207.242188 -509.179688 -189.175781 -577.566406 C -171.382812 -644.933594 -141.753906 -706.292969 -100.289062 -761.640625 C -59.132812 -816.582031 -9.132812 -862.226562 49.710938 -898.582031 C 109.304688 -935.398438 174.878906 -959.628906 246.441406 -971.273438 Z M 442.761719 -709.152344 L 292.710938 -686.859375 C 258.8125 -681.34375 228.296875 -670.207031 201.164062 -653.441406 C 173.277344 -636.214844 149.667969 -614.691406 130.328125 -588.878906 C 111.296875 -563.472656 97.660156 -535.171875 89.421875 -503.976562 C 81.449219 -473.800781 79.992188 -441.707031 85.050781 -407.695312 C 89.832031 -375.523438 100.386719 -346.03125 116.710938 -319.210938 C 133.769531 -291.1875 155.382812 -267.164062 181.554688 -247.144531 C 207.535156 -227.269531 236.074219 -212.90625 267.171875 -204.058594 C 295.914062 -195.878906 326.097656 -194.140625 357.722656 -198.839844 L 515.148438 -222.246094 C 522.160156 -223.289062 527.730469 -225.550781 531.847656 -229.03125 C 538.929688 -235.011719 544.257812 -242.34375 547.835938 -251.027344 C 550.242188 -256.859375 550.972656 -262.953125 550.027344 -269.308594 C 548.785156 -277.683594 545.8125 -284.804688 541.113281 -290.675781 C 534.90625 -298.429688 527.515625 -304.203125 518.941406 -307.988281 C 514.28125 -310.042969 508.6875 -310.589844 502.15625 -309.617188 C 493.242188 -308.292969 486.5625 -306.363281 482.128906 -303.828125 C 446.335938 -283.367188 411.183594 -270.570312 376.671875 -265.441406 C 353.359375 -261.972656 330.425781 -262.730469 307.871094 -267.707031 C 284.804688 -272.796875 263.34375 -282.019531 243.488281 -295.382812 C 222.3125 -309.636719 204.980469 -327.253906 191.492188 -348.238281 C 177.558594 -369.921875 168.667969 -393.691406 164.824219 -419.554688 C 161.128906 -444.410156 162.320312 -468.820312 168.402344 -492.789062 C 174.402344 -516.429688 184.808594 -538.246094 199.628906 -558.242188 C 214.449219 -578.234375 232.292969 -594.539062 253.167969 -607.15625 C 274.328125 -619.949219 297.339844 -628.191406 322.195312 -631.886719 C 356.703125 -637.015625 394.058594 -635 434.257812 -625.835938 C 439.238281 -624.703125 446.1875 -624.796875 455.105469 -626.121094 C 463.105469 -627.3125 469.4375 -629.800781 474.105469 -633.59375 C 480.242188 -638.578125 484.914062 -644.957031 488.117188 -652.734375 C 490.523438 -658.566406 491.144531 -665.386719 489.984375 -673.1875 C 488.996094 -679.828125 486.328125 -685.839844 481.976562 -691.21875 C 476.050781 -698.539062 468.964844 -703.972656 460.714844 -707.519531 C 455.757812 -709.652344 449.773438 -710.195312 442.761719 -709.152344 Z M 442.761719 -709.152344 "/></g></g></g><g fill="#ffef42" fill-opacity="1"><g transform="translate(1006.042592, 1027.935424)"><g/></g></g><g fill="#ffef42" fill-opacity="1"><g transform="translate(1261.052203, 1000.540139)"><g/></g></g><g fill="#ffef42" fill-opacity="1"><g transform="translate(1516.602912, 978.720859)"><g/></g></g><g fill="#ffef42" fill-opacity="1"><g transform="translate(1766.801084, 957.065344)"><g><path d="M 34.601562 114.609375 C -17.355469 90.523438 -59.558594 55.613281 -92.011719 9.890625 C -124.292969 -35.601562 -143.308594 -86.050781 -149.058594 -141.464844 C -154.875 -197.523438 -146.152344 -251.382812 -122.886719 -303.042969 L 75.949219 -746.847656 C 102.601562 -806.953125 142.710938 -853.507812 196.277344 -886.5 C 246.3125 -917.320312 300.417969 -933.617188 358.589844 -935.390625 C 417.425781 -937.183594 472.785156 -923.773438 524.664062 -895.160156 C 579.59375 -864.859375 622.117188 -819.730469 652.222656 -759.765625 L 870.484375 -322.304688 C 896.859375 -272.039062 907.8125 -217.933594 903.351562 -159.992188 C 899.160156 -105.53125 882.398438 -55.363281 853.070312 -9.480469 C 822.429688 38.453125 780.730469 75.574219 727.976562 101.890625 C 675.960938 127.128906 621.929688 137.953125 565.878906 134.367188 C 509.519531 130.757812 458.054688 113.515625 411.484375 82.632812 C 365.296875 52.003906 329.25 11.351562 303.339844 -39.332031 L 200.582031 -245.269531 L 197.644531 -253.550781 C 203.914062 -235.882812 213.386719 -220.082031 226.0625 -206.144531 C 241.257812 -189.4375 259.414062 -177.09375 280.535156 -169.113281 C 308.667969 -158.480469 336.996094 -157.027344 365.519531 -164.742188 C 382.808594 -169.417969 398.644531 -177.203125 413.027344 -188.09375 C 431.203125 -201.855469 445.195312 -219.03125 455 -239.625 C 463.136719 -256.703125 467.609375 -274.636719 468.417969 -293.417969 C 468.929688 -305.222656 467.9375 -316.796875 465.4375 -328.140625 L 324.730469 -297.171875 L 464.117188 -333.625 L 508.78125 -162.839844 L 457.125 -45.015625 C 432.210938 8.777344 396.894531 51.898438 351.167969 84.347656 C 305.679688 116.632812 255.226562 135.648438 199.816406 141.394531 C 144.75 147.109375 91.019531 138.773438 38.617188 116.394531 L 36.597656 115.535156 Z M 155.800781 -146.816406 L 95.203125 -16.101562 L 151.789062 -148.601562 C 158.421875 -145.769531 164.519531 -144.640625 170.082031 -145.21875 C 175.292969 -145.757812 180.066406 -147.566406 184.398438 -150.640625 C 188.492188 -153.546875 191.433594 -156.902344 193.222656 -160.714844 L 224.773438 -232.679688 L 356.726562 -174.828125 L 217.335938 -138.378906 L 184.628906 -263.449219 L 184.023438 -266.203125 C 176.539062 -300.210938 180.144531 -332.644531 194.839844 -363.507812 C 205.171875 -385.210938 219.925781 -403.316406 239.09375 -417.828125 C 254.46875 -429.46875 271.527344 -437.824219 290.269531 -442.894531 C 321.707031 -451.402344 352.414062 -449.988281 382.386719 -438.664062 C 404.429688 -430.335938 423.378906 -417.457031 439.226562 -400.03125 C 452.558594 -385.375 462.550781 -368.667969 469.207031 -349.910156 L 333.425781 -301.730469 L 462.347656 -366.054688 L 559.910156 -170.492188 C 562.902344 -164.644531 566.507812 -160.316406 570.730469 -157.515625 C 574.574219 -154.96875 579.089844 -153.53125 584.28125 -153.199219 C 589.789062 -152.84375 594.8125 -153.769531 599.359375 -155.964844 C 604.597656 -158.578125 608.238281 -161.484375 610.28125 -164.679688 C 613.636719 -169.925781 615.558594 -175.738281 616.050781 -182.117188 C 616.273438 -185.011719 615.136719 -188.859375 612.640625 -193.660156 L 394.710938 -630.464844 C 391.335938 -637.191406 388.261719 -641.316406 385.496094 -642.84375 C 379.671875 -646.054688 373.632812 -647.5625 367.367188 -647.371094 C 360.441406 -647.160156 353.785156 -645.089844 347.402344 -641.15625 C 344.550781 -639.402344 341.722656 -635.359375 338.914062 -629.03125 L 139.851562 -184.71875 C 137.847656 -180.269531 137.082031 -175.761719 137.554688 -171.195312 C 138.097656 -165.984375 139.902344 -161.210938 142.976562 -156.878906 C 145.882812 -152.785156 150.15625 -149.429688 155.800781 -146.816406 Z M 155.800781 -146.816406 "/></g></g></g><g fill="#ffef42" fill-opacity="1"><g transform="translate(2373.958784, 941.978735)"><g><path d="M 542.671875 -907.90625 C 602.28125 -906.164062 656.433594 -889.628906 705.121094 -858.304688 C 751.804688 -828.273438 788.480469 -789.023438 815.152344 -740.554688 C 842.722656 -690.457031 855.652344 -636.226562 853.945312 -577.867188 C 852.257812 -520.144531 836.332031 -467.417969 806.175781 -419.679688 C 777.453125 -374.214844 739.664062 -337.894531 692.816406 -310.722656 C 642.71875 -281.671875 587.546875 -268.027344 527.292969 -269.789062 L 531.507812 -413.804688 L 675.539062 -410.207031 L 669.15625 -154.539062 C 667.429688 -95.554688 651.050781 -41.625 620.019531 7.253906 C 590.210938 54.203125 551.21875 91.253906 503.042969 118.402344 C 452.605469 146.824219 397.949219 160.175781 339.066406 158.453125 C 280.601562 156.742188 227.121094 140.074219 178.621094 108.449219 C 132.394531 78.308594 96.015625 38.789062 69.484375 -10.101562 C 42.207031 -60.375 29.417969 -114.535156 31.117188 -172.589844 L 38.597656 -428.226562 L 182.613281 -424.011719 L 178.398438 -280 C 119.199219 -281.730469 65.351562 -298.40625 16.851562 -330.03125 C -29.042969 -359.957031 -65.074219 -398.589844 -91.242188 -445.9375 C -118.558594 -495.355469 -131.371094 -548.925781 -129.679688 -606.648438 C -127.988281 -664.480469 -112.351562 -717.449219 -82.769531 -765.554688 C -53.777344 -812.699219 -15.230469 -850.023438 32.871094 -877.519531 C 83.136719 -906.253906 137.871094 -919.753906 197.066406 -918.019531 Z M 534.242188 -619.878906 L 188.636719 -629.992188 C 183.46875 -630.144531 179.214844 -629.261719 175.875 -627.355469 C 170.371094 -624.207031 165.972656 -619.960938 162.683594 -614.609375 C 159.984375 -610.21875 158.539062 -604.757812 158.347656 -598.222656 C 158.195312 -593.042969 159.0625 -588.742188 160.949219 -585.332031 C 163.980469 -579.847656 168.410156 -575.207031 174.238281 -571.40625 C 177.460938 -569.304688 181.65625 -568.179688 186.824219 -568.027344 L 330.839844 -563.8125 L 319.144531 -164.160156 C 318.960938 -157.847656 320.164062 -152.300781 322.757812 -147.527344 C 326.09375 -141.375 330.511719 -136.507812 336.003906 -132.925781 C 339.226562 -130.824219 343.058594 -129.707031 347.496094 -129.578125 C 352.980469 -129.417969 357.675781 -130.4375 361.574219 -132.632812 C 367.734375 -136.105469 372.796875 -140.960938 376.753906 -147.195312 C 379.488281 -151.5 380.933594 -156.347656 381.09375 -161.730469 L 391.085938 -562.050781 L 535.722656 -557.820312 C 541.296875 -557.65625 545.476562 -558.378906 548.253906 -559.992188 C 554.277344 -563.484375 559.046875 -568.011719 562.566406 -573.578125 C 564.648438 -576.875 565.765625 -581.117188 565.917969 -586.296875 C 566.09375 -592.304688 565.019531 -597.417969 562.699219 -601.632812 C 559.480469 -607.480469 554.988281 -612.261719 549.21875 -615.972656 C 545.453125 -618.394531 540.460938 -619.695312 534.242188 -619.878906 Z M 534.242188 -619.878906 "/></g></g></g><g fill="#ffef42" fill-opacity="1"><g transform="translate(3045.671012, 960.566261)"><g><path d="M 593.789062 -875.328125 C 653.203125 -870.171875 706.316406 -850.566406 753.132812 -816.503906 C 798.015625 -783.847656 832.386719 -742.558594 856.238281 -692.644531 C 880.890625 -641.046875 890.695312 -586.164062 885.644531 -528 C 880.652344 -470.46875 861.734375 -418.738281 828.894531 -372.808594 C 797.613281 -329.0625 757.808594 -294.96875 709.476562 -270.523438 C 657.800781 -244.390625 601.933594 -233.929688 541.882812 -239.140625 L 554.339844 -382.675781 L 697.929688 -370.835938 L 676.910156 -115.953125 C 671.808594 -57.164062 652.367188 -4.261719 618.585938 42.757812 C 586.136719 87.925781 545.085938 122.679688 495.433594 147.023438 C 443.453125 172.511719 388.121094 182.707031 329.433594 177.613281 C 271.164062 172.558594 218.722656 152.855469 172.113281 118.503906 C 127.691406 85.765625 93.632812 44.226562 69.949219 -6.105469 C 45.597656 -57.855469 35.929688 -112.664062 40.953125 -170.523438 L 63.066406 -425.3125 L 206.601562 -412.855469 L 194.144531 -269.320312 C 135.144531 -274.4375 82.339844 -294.175781 35.730469 -328.523438 C -8.375 -361.027344 -42.132812 -401.664062 -65.546875 -450.433594 C -89.988281 -501.335938 -99.710938 -555.550781 -94.714844 -613.082031 C -89.714844 -670.722656 -71.066406 -722.707031 -38.777344 -769.039062 C -7.132812 -814.445312 33.488281 -849.5 83.085938 -874.195312 C 134.917969 -900 190.332031 -910.34375 249.332031 -905.222656 Z M 568.875 -588.257812 L 224.417969 -618.152344 C 219.265625 -618.597656 214.96875 -617.964844 211.523438 -616.25 C 205.847656 -613.421875 201.214844 -609.433594 197.625 -604.28125 C 194.679688 -600.054688 192.921875 -594.683594 192.355469 -588.167969 C 191.910156 -583.003906 192.527344 -578.664062 194.214844 -575.148438 C 196.929688 -569.5 201.085938 -564.613281 206.683594 -560.488281 C 209.78125 -558.203125 213.90625 -556.839844 219.058594 -556.390625 L 362.59375 -543.933594 L 328.027344 -145.609375 C 327.480469 -139.316406 328.363281 -133.710938 330.675781 -128.796875 C 333.65625 -122.460938 337.789062 -117.347656 343.066406 -113.457031 C 346.164062 -111.175781 349.925781 -109.84375 354.347656 -109.457031 C 359.816406 -108.984375 364.558594 -109.730469 368.578125 -111.703125 C 374.929688 -114.816406 380.257812 -119.371094 384.570312 -125.371094 C 387.542969 -129.511719 389.265625 -134.265625 389.734375 -139.632812 L 422.644531 -538.722656 L 566.796875 -526.214844 C 572.355469 -525.730469 576.566406 -526.214844 579.433594 -527.664062 C 585.648438 -530.804688 590.667969 -535.054688 594.5 -540.410156 C 596.765625 -543.582031 598.125 -547.75 598.574219 -552.914062 C 599.09375 -558.902344 598.316406 -564.066406 596.242188 -568.410156 C 593.363281 -574.433594 589.148438 -579.460938 583.601562 -583.5 C 579.980469 -586.132812 575.074219 -587.71875 568.875 -588.257812 Z M 568.875 -588.257812 "/></g></g></g><g fill="#ffef42" fill-opacity="1"><g transform="translate(3726.431805, 1017.955789)"><g><path d="M 468.070312 -770.910156 C 515.105469 -806.957031 566.726562 -828.15625 622.933594 -834.507812 C 677.867188 -840.714844 730.910156 -832.878906 782.066406 -811.007812 C 835.332031 -788.234375 878.980469 -752.28125 913.011719 -703.152344 L 794.578125 -621.109375 L 910.308594 -706.929688 C 944.824219 -660.382812 964.734375 -608.339844 970.035156 -550.800781 C 975.035156 -496.578125 967.265625 -444.445312 946.726562 -394.394531 C 925.613281 -342.941406 892.648438 -299.449219 847.832031 -263.917969 L 674.089844 -132.097656 L 587.023438 -246.890625 L 729.539062 -225.742188 L 706.980469 -73.738281 C 698.367188 -15.679688 675.953125 35.480469 639.746094 79.738281 C 604.78125 122.472656 561.570312 154.265625 510.105469 175.121094 C 457.105469 196.597656 401.730469 203.050781 343.980469 194.480469 C 286.953125 186.019531 236.203125 163.816406 191.722656 127.875 C 148.535156 92.972656 116.414062 50 95.371094 -1.046875 C 73.574219 -53.910156 66.984375 -109.375 75.601562 -167.433594 L 98.15625 -319.4375 L 240.671875 -298.289062 L 124.023438 -213.726562 L -2.167969 -387.804688 C -35.921875 -436.496094 -55.433594 -488.527344 -60.695312 -543.894531 C -65.8125 -597.75 -58.105469 -649.894531 -37.578125 -700.332031 C -15.792969 -753.851562 18.371094 -797.867188 64.917969 -832.382812 L 150.738281 -716.65625 L 61.230469 -829.558594 C 107.9375 -866.585938 159.816406 -888.324219 216.871094 -894.765625 C 272.121094 -901.007812 325.082031 -893.109375 375.746094 -871.070312 C 427.917969 -848.375 470.929688 -812.597656 504.777344 -763.734375 L 386.339844 -681.691406 L 502.605469 -766.78125 L 575.492188 -667.195312 L 459.226562 -582.105469 L 371.210938 -696.171875 L 467.703125 -770.625 Z M 643.730469 -542.488281 L 430.238281 -377.757812 L 268.972656 -598.113281 L 267.90625 -599.648438 C 265.199219 -603.558594 262.832031 -605.953125 260.800781 -606.835938 C 257.261719 -608.375 253.402344 -608.910156 249.214844 -608.4375 C 246.832031 -608.167969 243.839844 -606.605469 240.242188 -603.753906 L 238.421875 -602.3125 L 236.554688 -600.925781 C 233.226562 -598.460938 230.8125 -595.382812 229.3125 -591.695312 C 226.558594 -584.925781 225.507812 -578.078125 226.164062 -571.15625 C 226.679688 -565.75 228.335938 -561.003906 231.136719 -556.925781 L 391.816406 -335.269531 L 360.632812 -125.136719 C 359.796875 -119.5 360.175781 -114.746094 361.769531 -110.878906 C 364.113281 -105.191406 367.800781 -100.3125 372.832031 -96.25 C 376.574219 -93.222656 381.058594 -91.324219 386.277344 -90.550781 C 392.226562 -89.667969 397.425781 -90.128906 401.886719 -91.9375 C 407.878906 -94.367188 412.824219 -97.960938 416.722656 -102.722656 C 419.371094 -105.960938 421.113281 -110.398438 421.949219 -116.035156 L 453.132812 -326.167969 L 668.820312 -489.722656 C 674.308594 -494.070312 678.085938 -498.761719 680.148438 -503.785156 C 682.785156 -510.21875 683.769531 -517.078125 683.101562 -524.355469 C 682.734375 -528.316406 681.320312 -531.964844 678.851562 -535.292969 L 677.464844 -537.15625 L 676.144531 -539.066406 C 673.621094 -542.707031 671.167969 -545.039062 668.785156 -546.058594 C 664.289062 -547.980469 659.789062 -548.6875 655.28125 -548.175781 C 652.050781 -547.8125 648.078125 -545.820312 643.359375 -542.207031 Z M 643.730469 -542.488281 "/></g></g></g><g fill="#d4005f" fill-opacity="1"><g transform="translate(285.833966, 1130.684345)"><g><path d="M 421.5625 -851.65625 C 455.582031 -856.707031 487.609375 -852.773438 517.640625 -839.859375 C 547.671875 -826.953125 573.109375 -807.617188 593.953125 -781.859375 C 614.796875 -756.097656 627.640625 -726.9375 632.484375 -694.375 C 637.535156 -660.351562 633.804688 -628.171875 621.296875 -597.828125 C 608.796875 -567.484375 590.003906 -542.125 564.921875 -521.75 C 539.847656 -501.375 510.300781 -488.660156 476.28125 -483.609375 C 449.5 -479.628906 424.816406 -480.210938 402.234375 -485.359375 C 379.648438 -490.503906 360.03125 -491.84375 343.375 -489.375 C 331.800781 -487.644531 322.46875 -482 315.375 -472.4375 C 308.28125 -462.882812 305.597656 -452.316406 307.328125 -440.734375 C 308.929688 -429.878906 314.460938 -421.265625 323.921875 -414.890625 C 333.378906 -408.523438 343.894531 -406.207031 355.46875 -407.9375 C 372.125 -410.40625 390.507812 -417.390625 410.625 -428.890625 C 430.738281 -440.398438 454.1875 -448.144531 480.96875 -452.125 C 514.988281 -457.175781 547.039062 -453.0625 577.125 -439.78125 C 607.207031 -426.507812 632.695312 -406.816406 653.59375 -380.703125 C 674.488281 -354.585938 687.460938 -324.519531 692.515625 -290.5 C 697.359375 -257.925781 693.523438 -226.46875 681.015625 -196.125 C 668.515625 -165.789062 649.78125 -140.070312 624.8125 -118.96875 C 599.84375 -97.863281 570.347656 -84.785156 536.328125 -79.734375 L 378.90625 -56.328125 C 326.789062 -48.578125 276.398438 -51.625 227.734375 -65.46875 C 179.066406 -79.320312 134.488281 -101.734375 94 -132.703125 C 53.519531 -163.679688 20.066406 -200.878906 -6.359375 -244.296875 C -32.785156 -287.710938 -49.816406 -335.113281 -57.453125 -386.5 C -65.421875 -440.0625 -62.894531 -491.484375 -49.875 -540.765625 C -36.851562 -590.046875 -15.222656 -634.867188 15.015625 -675.234375 C 45.265625 -715.609375 82.070312 -749.191406 125.4375 -775.984375 C 168.800781 -802.785156 216.84375 -820.476562 269.5625 -829.0625 Z M 421.5625 -851.65625 "/></g></g></g><g fill="#d4005f" fill-opacity="1"><g transform="translate(1006.042592, 1027.935424)"><g/></g></g><g fill="#d4005f" fill-opacity="1"><g transform="translate(1261.052203, 1000.540139)"><g/></g></g><g fill="#d4005f" fill-opacity="1"><g transform="translate(1516.602912, 978.720859)"><g/></g></g><g fill="#d4005f" fill-opacity="1"><g transform="translate(1766.801084, 957.065344)"><g><path d="M 95.203125 -16.109375 C 66.398438 -29.460938 43.160156 -48.59375 25.484375 -73.5 C 7.804688 -98.40625 -2.601562 -126.015625 -5.75 -156.328125 C -8.894531 -186.640625 -4.148438 -215.820312 8.484375 -243.875 L 207.4375 -687.921875 C 222.164062 -721.148438 243.632812 -746.445312 271.84375 -763.8125 C 300.050781 -781.1875 330.425781 -790.367188 362.96875 -791.359375 C 395.519531 -792.347656 426.21875 -784.890625 455.0625 -768.984375 C 483.914062 -753.078125 506.710938 -728.445312 523.453125 -695.09375 L 741.5625 -257.96875 C 755.976562 -230.4375 762.015625 -201.460938 759.671875 -171.046875 C 757.335938 -140.628906 748 -112.640625 731.65625 -87.078125 C 715.320312 -61.515625 692.65625 -41.5 663.65625 -27.03125 C 635.375 -13.3125 605.84375 -7.4375 575.0625 -9.40625 C 544.289062 -11.375 516.300781 -20.710938 491.09375 -37.421875 C 465.894531 -54.140625 446.066406 -76.632812 431.609375 -104.90625 L 333.4375 -301.71875 C 332.65625 -303.894531 330.804688 -304.585938 327.890625 -303.796875 C 324.972656 -303.015625 323.921875 -300.804688 324.734375 -297.171875 L 356.703125 -174.828125 L 325.171875 -102.859375 C 311.816406 -74.054688 292.679688 -50.816406 267.765625 -33.140625 C 242.859375 -15.460938 215.25 -5.050781 184.9375 -1.90625 C 154.625 1.226562 124.710938 -3.503906 95.203125 -16.109375 Z M 95.203125 -16.109375 "/></g></g></g><g fill="#d4005f" fill-opacity="1"><g transform="translate(2373.958784, 941.978735)"><g><path d="M 538.4375 -763.890625 C 571.351562 -762.921875 600.925781 -754 627.15625 -737.125 C 653.382812 -720.25 673.96875 -698.234375 688.90625 -671.078125 C 703.84375 -643.929688 710.84375 -614.265625 709.90625 -582.078125 C 708.976562 -550.617188 700.457031 -522.128906 684.34375 -496.609375 C 668.226562 -471.097656 646.953125 -450.675781 620.515625 -435.34375 C 594.078125 -420.019531 564.398438 -412.84375 531.484375 -413.8125 L 525.109375 -158.140625 C 524.171875 -125.953125 515.257812 -96.5625 498.375 -69.96875 C 481.5 -43.382812 459.476562 -22.4375 432.3125 -7.125 C 405.144531 8.1875 375.46875 15.375 343.28125 14.4375 C 311.832031 13.519531 283.175781 4.628906 257.3125 -12.234375 C 231.445312 -29.097656 211.046875 -51.289062 196.109375 -78.8125 C 181.171875 -106.332031 174.171875 -136.1875 175.109375 -168.375 L 182.59375 -424.015625 C 150.425781 -424.953125 121.410156 -433.847656 95.546875 -450.703125 C 69.679688 -467.566406 49.445312 -489.203125 34.84375 -515.609375 C 20.238281 -542.023438 13.398438 -570.960938 14.328125 -602.421875 C 15.265625 -634.609375 23.804688 -663.820312 39.953125 -690.0625 C 56.097656 -716.3125 77.570312 -737.097656 104.375 -752.421875 C 131.175781 -767.742188 160.660156 -774.9375 192.828125 -774 Z M 538.4375 -763.890625 "/></g></g></g><g fill="#d4005f" fill-opacity="1"><g transform="translate(3045.671012, 960.566261)"><g><path d="M 581.328125 -731.78125 C 614.128906 -728.9375 643.140625 -718.335938 668.359375 -699.984375 C 693.578125 -681.640625 712.867188 -658.484375 726.234375 -630.515625 C 739.597656 -602.554688 744.882812 -572.535156 742.09375 -540.453125 C 739.375 -509.109375 729.238281 -481.160156 711.6875 -456.609375 C 694.132812 -432.054688 671.71875 -412.882812 644.4375 -399.09375 C 617.164062 -385.300781 587.128906 -379.828125 554.328125 -382.671875 L 533.328125 -127.78125 C 530.535156 -95.707031 519.953125 -66.878906 501.578125 -41.296875 C 483.203125 -15.710938 460.015625 3.9375 432.015625 17.65625 C 404.015625 31.382812 373.972656 36.859375 341.890625 34.078125 C 310.546875 31.359375 282.445312 20.84375 257.59375 2.53125 C 232.738281 -15.78125 213.640625 -39.101562 200.296875 -67.4375 C 186.960938 -95.78125 181.691406 -125.988281 184.484375 -158.0625 L 206.59375 -412.859375 C 174.53125 -415.640625 146.070312 -426.1875 121.21875 -444.5 C 96.363281 -462.8125 77.398438 -485.570312 64.328125 -512.78125 C 51.265625 -539.988281 46.09375 -569.265625 48.8125 -600.609375 C 51.601562 -632.691406 61.804688 -661.367188 79.421875 -686.640625 C 97.046875 -711.921875 119.675781 -731.441406 147.3125 -745.203125 C 174.945312 -758.972656 204.796875 -764.46875 236.859375 -761.6875 Z M 581.328125 -731.78125 "/></g></g></g><g fill="#d4005f" fill-opacity="1"><g transform="translate(3726.431805, 1017.955789)"><g><path d="M 555.71875 -656.546875 C 581.59375 -676.390625 609.390625 -687.988281 639.109375 -691.34375 C 668.828125 -694.695312 697.597656 -690.425781 725.421875 -678.53125 C 753.253906 -666.632812 776.304688 -647.492188 794.578125 -621.109375 C 813.054688 -596.171875 823.710938 -568.320312 826.546875 -537.5625 C 829.390625 -506.8125 825.015625 -477.316406 813.421875 -449.078125 C 801.828125 -420.835938 783.457031 -396.75 758.3125 -376.8125 L 587.03125 -246.890625 L 564.46875 -94.875 C 559.738281 -63.03125 547.65625 -35.234375 528.21875 -11.484375 C 508.789062 12.253906 484.710938 29.945312 455.984375 41.59375 C 427.265625 53.238281 396.976562 56.703125 365.125 51.984375 C 334.007812 47.359375 306.394531 35.300781 282.28125 15.8125 C 258.175781 -3.664062 240.269531 -27.585938 228.5625 -55.953125 C 216.863281 -84.328125 213.378906 -114.4375 218.109375 -146.28125 L 240.671875 -298.296875 L 114.484375 -472.359375 C 96.191406 -498.742188 85.609375 -527.128906 82.734375 -557.515625 C 79.859375 -587.898438 84.234375 -617.394531 95.859375 -646 C 107.492188 -674.613281 125.789062 -698.164062 150.75 -716.65625 C 175.894531 -736.59375 203.328125 -748.238281 233.046875 -751.59375 C 262.765625 -754.957031 291.171875 -750.742188 318.265625 -738.953125 C 345.367188 -727.160156 368.0625 -708.070312 386.34375 -681.6875 L 459.21875 -582.09375 Z M 555.71875 -656.546875 "/></g></g></g></g></g><g transform="matrix(1, 0, 0, 1, 918, 110)"><g clip-path="url(#c82cf96bab)"><g fill="#ffef42" fill-opacity="1"><g transform="translate(242.571324, 935.145814)"><g><path d="M 490.410156 331.839844 C 435.796875 312.078125 390.128906 280.273438 353.40625 236.425781 C 317.355469 193.382812 294.054688 144.605469 283.503906 90.097656 C 272.636719 33.960938 277.191406 -21.707031 297.164062 -76.902344 L 309.859375 -111.992188 C 304.40625 -96.917969 302.082031 -81.265625 302.894531 -65.039062 C 303.683594 -49.246094 307.371094 -34.320312 313.957031 -20.261719 C 320.542969 -6.207031 329.652344 6.179688 341.285156 16.890625 C 353.238281 27.898438 366.75 36.128906 381.828125 41.585938 C 396.902344 47.039062 412.554688 49.363281 428.78125 48.550781 C 444.574219 47.761719 459.5 44.074219 473.558594 37.488281 C 487.613281 30.902344 500 21.792969 510.710938 10.160156 C 521.71875 -1.792969 529.949219 -15.304688 535.40625 -30.378906 L 522.707031 4.710938 C 502.667969 60.09375 470.972656 105.875 427.625 142.058594 C 384.804688 177.796875 335.964844 200.683594 281.101562 210.71875 C 225.558594 220.875 170.09375 215.933594 114.710938 195.894531 C 60.996094 176.457031 15.914062 145.167969 -20.53125 102.03125 C -56.585938 59.355469 -79.910156 10.65625 -90.503906 -44.066406 C -101.367188 -100.207031 -96.691406 -156.21875 -76.46875 -212.101562 L 70.679688 -618.761719 C 91.007812 -674.941406 123.425781 -720.992188 167.925781 -756.910156 C 210.8125 -791.519531 259.605469 -813.660156 314.308594 -823.328125 C 369.921875 -833.152344 424.585938 -828.347656 478.300781 -808.910156 C 533.683594 -788.871094 579.464844 -757.175781 615.648438 -713.828125 C 651.1875 -671.25 674.082031 -622.871094 684.332031 -568.6875 C 694.828125 -513.207031 690.003906 -457.625 669.855469 -401.949219 L 656.414062 -364.792969 C 662.40625 -381.359375 664.75 -398.433594 663.441406 -416.023438 C 662.347656 -430.75 658.761719 -444.59375 652.6875 -457.554688 C 646.101562 -471.613281 636.992188 -483.996094 625.363281 -494.707031 C 613.410156 -505.714844 599.894531 -513.949219 584.820312 -519.402344 C 569.746094 -524.859375 554.09375 -527.179688 537.863281 -526.371094 C 522.070312 -525.582031 507.144531 -521.894531 493.089844 -515.308594 C 480.128906 -509.234375 468.515625 -500.890625 458.25 -490.273438 C 445.988281 -477.59375 436.863281 -462.972656 430.867188 -446.40625 L 444.3125 -483.5625 C 464.394531 -539.054688 496.683594 -584.761719 541.1875 -620.679688 C 583.898438 -655.152344 632.722656 -677.363281 687.660156 -687.316406 C 743.941406 -697.511719 799.386719 -692.726562 853.996094 -672.964844 C 909.191406 -652.992188 954.882812 -620.871094 991.070312 -576.59375 C 1025.617188 -534.328125 1048.210938 -486.582031 1058.855469 -433.359375 C 1070.066406 -377.28125 1065.632812 -321.496094 1045.554688 -266.003906 L 898.402344 140.65625 C 878.433594 195.851562 846.308594 241.542969 802.035156 277.730469 C 759.523438 312.476562 711.316406 335.066406 657.410156 345.5 C 601.269531 356.363281 545.601562 351.8125 490.410156 331.839844 Z M 588.457031 60.882812 C 593.8125 62.820312 598.546875 63.390625 602.65625 62.597656 C 609 61.367188 614.671875 58.710938 619.675781 54.621094 C 622.917969 51.972656 625.507812 47.96875 627.445312 42.609375 L 774.59375 -364.050781 C 776.425781 -369.105469 776.992188 -373.378906 776.296875 -376.859375 C 775.027344 -383.199219 772.25 -388.992188 767.960938 -394.238281 C 765.3125 -397.476562 761.308594 -400.066406 755.953125 -402.007812 C 750.011719 -404.15625 744.367188 -404.746094 739.023438 -403.777344 C 732.335938 -402.566406 726.714844 -400.125 722.160156 -396.449219 C 719.398438 -394.21875 717.101562 -390.574219 715.269531 -385.515625 L 701.824219 -348.359375 C 693.839844 -326.289062 681.695312 -306.824219 665.394531 -289.964844 C 651.085938 -275.167969 634.40625 -263.308594 615.355469 -254.378906 C 595.207031 -244.941406 574.167969 -239.671875 552.230469 -238.578125 C 529.859375 -237.460938 508.042969 -240.75 486.773438 -248.445312 C 465.503906 -256.140625 446.632812 -267.574219 430.15625 -282.75 C 414.003906 -297.625 401.203125 -315.140625 391.761719 -335.289062 C 382.835938 -354.339844 377.609375 -374.128906 376.082031 -394.652344 C 374.34375 -418.039062 377.46875 -440.769531 385.453125 -462.839844 L 398.898438 -499.996094 C 401.160156 -506.246094 401.929688 -511.285156 401.203125 -515.117188 C 400.234375 -520.246094 397.976562 -524.933594 394.429688 -529.183594 C 391.527344 -532.660156 386.800781 -535.582031 380.253906 -537.953125 C 374.796875 -539.929688 369.527344 -540.46875 364.449219 -539.570312 C 358.46875 -538.511719 353.285156 -536.214844 348.902344 -532.679688 C 346.140625 -530.449219 343.71875 -526.460938 341.640625 -520.714844 L 194.488281 -114.054688 C 192.300781 -108.007812 191.605469 -102.929688 192.398438 -98.820312 C 193.46875 -93.296875 195.863281 -88.332031 199.578125 -83.933594 C 202.90625 -79.996094 207.300781 -77.039062 212.757812 -75.0625 C 219.304688 -72.695312 224.804688 -71.917969 229.261719 -72.734375 C 234.398438 -73.671875 238.96875 -75.816406 242.980469 -79.160156 C 246.457031 -82.0625 249.378906 -86.789062 251.75 -93.335938 L 264.445312 -128.425781 C 272.140625 -149.695312 283.578125 -168.566406 298.75 -185.042969 C 313.628906 -201.199219 331.140625 -213.996094 351.289062 -223.4375 C 371.4375 -232.878906 392.480469 -238.148438 414.414062 -239.242188 C 436.785156 -240.359375 458.605469 -237.070312 479.871094 -229.375 C 501.140625 -221.679688 520.011719 -210.242188 536.488281 -195.070312 C 552.644531 -180.191406 565.441406 -162.679688 574.882812 -142.53125 C 584.324219 -122.382812 589.59375 -101.339844 590.6875 -79.40625 C 591.804688 -57.035156 588.515625 -35.214844 580.820312 -13.949219 L 568.121094 21.144531 C 566.183594 26.503906 565.609375 31.238281 566.40625 35.34375 C 567.515625 41.085938 570.152344 46.441406 574.3125 51.410156 C 577.800781 55.574219 582.515625 58.730469 588.457031 60.882812 Z M 588.457031 60.882812 "/></g></g></g><g fill="#d4005f" fill-opacity="1"><g transform="translate(242.571324, 935.145814)"><g><path d="M 539.421875 196.359375 C 509.148438 185.398438 483.957031 167.914062 463.84375 143.90625 C 443.738281 119.90625 430.769531 92.84375 424.9375 62.71875 C 419.113281 32.601562 421.675781 2.40625 432.625 -27.875 L 445.328125 -62.96875 C 447.566406 -69.15625 447.257812 -75.296875 444.40625 -81.390625 C 441.5625 -87.484375 437.039062 -91.648438 430.84375 -93.890625 C 424.644531 -96.128906 418.5 -95.820312 412.40625 -92.96875 C 406.320312 -90.113281 402.160156 -85.59375 399.921875 -79.40625 L 387.21875 -44.3125 C 376.019531 -13.34375 358.710938 11.910156 335.296875 31.453125 C 311.878906 50.992188 285.171875 63.503906 255.171875 68.984375 C 225.179688 74.472656 194.695312 71.613281 163.71875 60.40625 C 134.144531 49.707031 109.414062 32.585938 89.53125 9.046875 C 69.644531 -14.484375 56.785156 -41.3125 50.953125 -71.4375 C 45.117188 -101.5625 47.800781 -132.109375 59 -163.078125 L 206.15625 -569.734375 C 217.363281 -600.691406 234.785156 -625.707031 258.421875 -644.78125 C 282.054688 -663.863281 309.046875 -676.082031 339.390625 -681.4375 C 369.734375 -686.800781 399.691406 -684.132812 429.265625 -673.4375 C 460.242188 -662.226562 485.5 -644.914062 505.03125 -621.5 C 524.570312 -598.09375 537.148438 -571.554688 542.765625 -541.890625 C 548.378906 -512.234375 545.582031 -481.925781 534.375 -450.96875 L 520.9375 -413.8125 C 518.9375 -408.300781 519.363281 -402.5 522.21875 -396.40625 C 525.070312 -390.320312 529.597656 -386.160156 535.796875 -383.921875 C 541.992188 -381.679688 548.132812 -381.984375 554.21875 -384.828125 C 560.300781 -387.679688 564.34375 -391.863281 566.34375 -397.375 L 579.78125 -434.53125 C 590.738281 -464.800781 608.03125 -489.472656 631.65625 -508.546875 C 655.289062 -527.628906 682.515625 -539.960938 713.328125 -545.546875 C 744.148438 -551.128906 774.695312 -548.441406 804.96875 -537.484375 C 835.25 -526.523438 860.09375 -509.164062 879.5 -485.40625 C 898.914062 -461.65625 911.601562 -434.890625 917.5625 -405.109375 C 923.519531 -375.328125 921.019531 -345.300781 910.0625 -315.03125 L 762.90625 91.625 C 751.957031 121.90625 734.601562 146.753906 710.84375 166.171875 C 687.082031 185.585938 660.140625 198.210938 630.015625 204.046875 C 599.898438 209.878906 569.703125 207.316406 539.421875 196.359375 Z M 539.421875 196.359375 "/></g></g></g></g></g></svg>