<svg xmlns="http://www.w3.org/2000/svg" xmlns:xlink="http://www.w3.org/1999/xlink" width="6912" zoomAndPan="magnify" viewBox="0 0 5184 2592.000001" height="3456" preserveAspectRatio="xMidYMid meet" version="1.0"><defs><g/><clipPath id="da8ad7ff5b"><rect x="0" width="4737" y="0" height="1376"/></clipPath><clipPath id="5de81f8515"><rect x="0" width="1305" y="0" height="1415"/></clipPath></defs><g transform="matrix(1, 0, 0, 1, 223, 873)"><g clip-path="url(#da8ad7ff5b)"><g fill="#ffef42" fill-opacity="1"><g transform="translate(279.253642, 1093.517272)"><g><path d="M 371.636719 -947.605469 C 429.507812 -956.75 484.714844 -950.300781 537.257812 -928.261719 C 586.660156 -907.539062 628.535156 -876.351562 662.878906 -834.699219 C 698.734375 -791.214844 721.046875 -741.734375 729.8125 -686.253906 C 738.835938 -629.125 732.851562 -574.421875 711.859375 -522.140625 C 691.609375 -471.707031 660.734375 -429.316406 619.230469 -394.972656 C 576.339844 -359.480469 526.425781 -337.238281 469.488281 -328.242188 C 427.148438 -321.550781 386.851562 -322.382812 348.597656 -330.738281 C 344.820312 -331.5625 341.828125 -332.042969 339.628906 -332.171875 C 340.164062 -332.140625 341.359375 -332.269531 343.21875 -332.566406 C 355.808594 -334.554688 367.6875 -338.996094 378.859375 -345.886719 C 389.757812 -352.609375 398.835938 -360.960938 406.089844 -370.933594 C 413.339844 -380.910156 418.484375 -392.117188 421.523438 -404.558594 C 424.632812 -417.3125 425.195312 -429.980469 423.207031 -442.570312 C 420.960938 -456.800781 415.789062 -470.085938 407.695312 -482.429688 C 400.035156 -494.113281 390.605469 -503.648438 379.402344 -511.039062 C 369.464844 -517.597656 358.523438 -522.136719 346.582031 -524.660156 C 335.128906 -527.078125 323.835938 -527.40625 312.710938 -525.648438 C 310.855469 -525.355469 309.675781 -525.113281 309.175781 -524.917969 C 311.230469 -525.71875 313.925781 -527.09375 317.269531 -529.046875 C 351.082031 -548.785156 389.160156 -562 431.5 -568.691406 C 489.835938 -577.90625 545.464844 -571.117188 598.398438 -548.324219 C 647.597656 -527.140625 689.289062 -495.582031 723.472656 -453.652344 C 759.101562 -409.949219 781.386719 -359.804688 790.328125 -303.21875 C 799.136719 -247.464844 793.042969 -193.449219 772.050781 -141.164062 C 752.148438 -91.597656 722 -49.433594 681.597656 -14.667969 C 638.410156 22.496094 587.878906 45.648438 530.003906 54.792969 L 380.703125 78.378906 C 311.847656 89.257812 244.765625 85.726562 179.460938 67.785156 C 116.398438 50.457031 58.574219 22.054688 5.988281 -17.417969 C -46.414062 -56.753906 -89.871094 -104.195312 -124.378906 -159.738281 C -159.589844 -216.417969 -182.488281 -278.238281 -193.066406 -345.207031 C -204.023438 -414.539062 -201.21875 -481.761719 -184.652344 -546.863281 C -168.335938 -610.996094 -140.730469 -669.523438 -101.832031 -722.441406 C -63.222656 -774.972656 -16.132812 -818.757812 39.433594 -853.789062 C 95.710938 -889.269531 157.777344 -912.847656 225.632812 -924.523438 Z M 414.34375 -677.296875 L 272.039062 -654.828125 C 239.894531 -649.296875 211.007812 -638.453125 185.386719 -622.296875 C 159.054688 -605.695312 136.816406 -585.054688 118.675781 -560.371094 C 100.820312 -536.078125 88.117188 -509.085938 80.558594 -479.386719 C 73.25 -450.660156 72.144531 -420.171875 77.242188 -387.910156 C 82.0625 -357.402344 92.339844 -329.484375 108.074219 -304.15625 C 124.519531 -277.691406 145.253906 -255.0625 170.277344 -236.277344 C 195.121094 -217.628906 222.351562 -204.234375 251.960938 -196.101562 C 279.328125 -188.582031 308.007812 -187.191406 338 -191.929688 L 487.296875 -215.515625 C 493.953125 -216.566406 499.21875 -218.765625 503.101562 -222.105469 C 509.773438 -227.847656 514.773438 -234.855469 518.09375 -243.132812 C 520.328125 -248.695312 520.96875 -254.488281 520.015625 -260.515625 C 518.761719 -268.457031 515.878906 -275.195312 511.367188 -280.730469 C 505.40625 -288.039062 498.335938 -293.457031 490.160156 -296.976562 C 485.714844 -298.890625 480.398438 -299.359375 474.207031 -298.382812 C 465.75 -297.046875 459.425781 -295.152344 455.238281 -292.707031 C 421.421875 -272.96875 388.148438 -260.511719 355.417969 -255.339844 C 333.3125 -251.847656 311.523438 -252.367188 290.0625 -256.898438 C 268.113281 -261.53125 247.652344 -270.105469 228.679688 -282.625 C 208.445312 -295.976562 191.835938 -312.558594 178.84375 -332.371094 C 165.421875 -352.839844 156.773438 -375.339844 152.898438 -399.863281 C 149.175781 -423.4375 150.097656 -446.632812 155.664062 -469.445312 C 161.15625 -491.949219 170.851562 -512.757812 184.753906 -531.875 C 198.652344 -550.992188 215.460938 -566.628906 235.171875 -578.792969 C 255.160156 -591.121094 276.9375 -599.148438 300.511719 -602.875 C 333.242188 -608.046875 368.734375 -606.453125 406.988281 -598.097656 C 411.726562 -597.0625 418.328125 -597.214844 426.78125 -598.550781 C 434.371094 -599.75 440.363281 -602.167969 444.761719 -605.808594 C 450.546875 -610.597656 454.929688 -616.695312 457.90625 -624.105469 C 460.136719 -629.667969 460.671875 -636.148438 459.5 -643.546875 C 458.507812 -649.847656 455.917969 -655.53125 451.738281 -660.601562 C 446.046875 -667.5 439.269531 -672.601562 431.40625 -675.898438 C 426.683594 -677.882812 420.996094 -678.347656 414.34375 -677.296875 Z M 414.34375 -677.296875 "/></g></g></g><g fill="#ffef42" fill-opacity="1"><g transform="translate(956.531722, 985.02581)"><g><path d="M 555.738281 86.003906 C 500.828125 91.1875 448.707031 82.40625 399.386719 59.652344 C 350.964844 37.3125 311.167969 4.882812 280 -37.644531 C 247.890625 -81.445312 229.21875 -131.09375 223.976562 -186.589844 L 220.644531 -221.875 C 222.078125 -206.71875 226.433594 -192.335938 233.710938 -178.726562 C 240.796875 -165.484375 250.019531 -154.164062 261.375 -144.765625 C 272.734375 -135.367188 285.582031 -128.429688 299.914062 -123.949219 C 314.644531 -119.34375 329.589844 -117.757812 344.746094 -119.191406 C 359.90625 -120.621094 374.289062 -124.976562 387.894531 -132.257812 C 401.136719 -139.34375 412.457031 -148.5625 421.855469 -159.921875 C 431.253906 -171.28125 438.195312 -184.128906 442.671875 -198.460938 C 447.277344 -213.191406 448.863281 -228.132812 447.429688 -243.292969 L 450.765625 -208.007812 C 456.023438 -152.320312 447.378906 -100.148438 424.835938 -51.492188 C 402.566406 -3.433594 369.910156 36.035156 326.867188 66.90625 C 283.292969 98.164062 233.660156 116.421875 177.976562 121.679688 C 123.964844 126.78125 72.558594 118.203125 23.761719 95.945312 C -24.511719 73.925781 -64.296875 41.570312 -95.59375 -1.125 C -127.699219 -44.925781 -146.402344 -94.921875 -151.710938 -151.109375 L -190.328125 -560.007812 C -195.660156 -616.5 -186.507812 -669.191406 -162.863281 -718.089844 C -140.082031 -765.207031 -107.164062 -804.011719 -64.109375 -834.507812 C -20.339844 -865.503906 28.546875 -883.554688 82.558594 -888.65625 C 138.246094 -893.914062 190.417969 -885.273438 239.074219 -862.726562 C 286.863281 -840.582031 326.152344 -808.324219 356.933594 -765.957031 C 388.457031 -722.574219 406.859375 -672.890625 412.148438 -616.90625 L 415.675781 -579.542969 C 414.101562 -596.199219 409.1875 -611.816406 400.929688 -626.386719 C 394.011719 -638.589844 385.320312 -649.023438 374.847656 -657.691406 C 363.488281 -667.089844 350.640625 -674.027344 336.308594 -678.507812 C 321.578125 -683.113281 306.632812 -684.699219 291.476562 -683.265625 C 276.316406 -681.835938 261.933594 -677.480469 248.328125 -670.199219 C 235.085938 -663.117188 223.765625 -653.894531 214.367188 -642.535156 C 205.703125 -632.0625 199.117188 -620.183594 194.605469 -606.902344 C 189.222656 -591.042969 187.316406 -574.785156 188.890625 -558.125 L 185.363281 -595.488281 C 180.09375 -651.289062 189.277344 -703.636719 212.921875 -752.53125 C 235.613281 -799.460938 268.53125 -838.34375 311.667969 -869.175781 C 355.859375 -900.761719 405.410156 -919.144531 460.324219 -924.332031 C 515.820312 -929.574219 568.085938 -920.523438 617.125 -897.1875 C 663.9375 -874.90625 702.707031 -843.074219 733.4375 -801.6875 C 765.816406 -758.082031 784.640625 -708.382812 789.910156 -652.582031 L 828.527344 -243.683594 C 833.769531 -188.1875 824.71875 -135.917969 801.382812 -86.882812 C 778.972656 -39.800781 746.742188 -0.84375 704.6875 29.984375 C 660.886719 62.089844 611.238281 80.761719 555.738281 86.003906 Z M 530.007812 -186.445312 C 535.398438 -186.957031 539.695312 -188.382812 542.898438 -190.734375 C 547.847656 -194.363281 551.640625 -198.945312 554.28125 -204.488281 C 555.988281 -208.078125 556.585938 -212.566406 556.078125 -217.953125 L 517.460938 -626.851562 C 516.980469 -631.9375 515.734375 -635.832031 513.726562 -638.542969 C 510.066406 -643.46875 505.328125 -647.316406 499.519531 -650.082031 C 495.929688 -651.792969 491.441406 -652.390625 486.054688 -651.882812 C 480.082031 -651.316406 474.996094 -649.535156 470.796875 -646.535156 C 465.546875 -642.78125 461.710938 -638.40625 459.292969 -633.402344 C 457.824219 -630.363281 457.332031 -626.304688 457.8125 -621.21875 L 461.339844 -583.855469 C 463.4375 -561.664062 460.902344 -540.023438 453.746094 -518.933594 C 447.460938 -500.425781 437.949219 -483.472656 425.210938 -468.078125 C 411.742188 -451.796875 395.808594 -438.738281 377.417969 -428.898438 C 358.664062 -418.863281 338.589844 -412.835938 317.207031 -410.816406 C 295.820312 -408.796875 274.976562 -410.960938 254.671875 -417.304688 C 234.765625 -423.527344 216.671875 -433.375 200.390625 -446.84375 C 184.996094 -459.582031 172.480469 -474.457031 162.839844 -491.460938 C 151.859375 -510.839844 145.320312 -531.621094 143.226562 -553.8125 L 139.699219 -591.175781 C 139.105469 -597.460938 137.71875 -602.101562 135.542969 -605.097656 C 132.628906 -609.105469 128.789062 -612.214844 124.019531 -614.425781 C 120.113281 -616.234375 114.871094 -616.828125 108.289062 -616.207031 C 102.800781 -615.6875 98.058594 -614.015625 94.0625 -611.183594 C 89.355469 -607.847656 85.835938 -603.773438 83.507812 -598.960938 C 82.039062 -595.921875 81.578125 -591.515625 82.121094 -585.738281 L 120.738281 -176.839844 C 121.3125 -170.761719 122.773438 -166.117188 125.125 -162.914062 C 128.285156 -158.601562 132.351562 -155.308594 137.328125 -153.039062 C 141.785156 -151.007812 146.753906 -150.253906 152.246094 -150.769531 C 158.828125 -151.390625 163.867188 -152.957031 167.363281 -155.464844 C 171.390625 -158.355469 174.449219 -162.050781 176.535156 -166.546875 C 178.34375 -170.453125 178.9375 -175.695312 178.3125 -182.277344 L 174.980469 -217.5625 C 172.960938 -238.949219 175.125 -259.792969 181.472656 -280.097656 C 187.691406 -300.003906 197.539062 -318.097656 211.011719 -334.378906 C 224.480469 -350.660156 240.414062 -363.71875 258.804688 -373.558594 C 277.5625 -383.59375 297.632812 -389.621094 319.015625 -391.640625 C 340.402344 -393.660156 361.246094 -391.496094 381.550781 -385.152344 C 401.457031 -378.929688 419.554688 -369.082031 435.835938 -355.613281 C 452.113281 -342.140625 465.175781 -326.210938 475.015625 -307.820312 C 485.046875 -289.0625 491.074219 -268.988281 493.09375 -247.605469 L 496.425781 -212.320312 C 496.9375 -206.933594 498.367188 -202.636719 500.714844 -199.429688 C 504 -194.949219 508.433594 -191.421875 514.023438 -188.84375 C 518.707031 -186.679688 524.039062 -185.882812 530.007812 -186.445312 Z M 530.007812 -186.445312 "/></g></g></g><g fill="#ffef42" fill-opacity="1"><g transform="translate(1659.777819, 917.372091)"><g><path d="M 34.09375 108.46875 C -15.507812 86.152344 -55.964844 53.453125 -87.273438 10.378906 C -118.417969 -32.472656 -137.019531 -80.179688 -143.074219 -132.738281 C -149.199219 -185.917969 -141.492188 -237.15625 -119.953125 -286.464844 L 64.101562 -710.058594 C 88.769531 -767.429688 126.359375 -812.066406 176.875 -843.976562 C 224.058594 -873.78125 275.265625 -889.839844 330.488281 -892.148438 C 386.34375 -894.484375 439.058594 -882.34375 488.632812 -855.726562 C 541.125 -827.542969 581.988281 -785.140625 611.226562 -728.519531 L 823.195312 -315.425781 C 848.78125 -267.976562 859.769531 -216.714844 856.152344 -161.640625 C 852.753906 -109.875 837.375 -62.050781 810.015625 -18.167969 C 781.433594 27.683594 742.234375 63.386719 692.417969 88.941406 C 643.292969 113.46875 592.097656 124.328125 538.832031 121.523438 C 485.269531 118.703125 436.210938 102.878906 391.652344 74.054688 C 347.464844 45.464844 312.792969 7.242188 287.644531 -40.609375 L 187.847656 -235.074219 L 184.96875 -242.90625 C 191.113281 -226.195312 200.277344 -211.292969 212.464844 -198.195312 C 227.074219 -182.492188 244.453125 -170.964844 264.597656 -163.609375 C 291.425781 -153.820312 318.34375 -152.738281 345.347656 -160.375 C 361.714844 -165 376.667969 -172.5625 390.210938 -183.058594 C 407.324219 -196.324219 420.429688 -212.785156 429.519531 -232.445312 C 437.058594 -248.753906 441.113281 -265.832031 441.683594 -283.675781 C 442.042969 -294.890625 440.972656 -305.871094 438.480469 -316.617188 L 305.1875 -285.699219 L 437.167969 -321.8125 L 481.417969 -160.105469 L 433.628906 -47.660156 C 410.546875 3.691406 377.46875 45.019531 334.390625 76.328125 C 291.539062 107.476562 243.835938 126.078125 191.273438 132.132812 C 139.042969 138.148438 87.925781 130.8125 37.921875 110.121094 L 35.996094 109.324219 Z M 146.378906 -141.097656 L 90.234375 -16.316406 L 142.550781 -142.75 C 148.878906 -140.132812 154.683594 -139.125 159.957031 -139.734375 C 164.902344 -140.304688 169.414062 -142.070312 173.496094 -145.035156 C 177.351562 -147.839844 180.109375 -151.058594 181.769531 -154.695312 L 210.957031 -223.378906 L 336.886719 -169.859375 L 204.910156 -133.746094 L 172.503906 -252.167969 L 171.898438 -254.777344 C 164.425781 -286.992188 167.5 -317.832031 181.125 -347.300781 C 190.707031 -368.019531 204.519531 -385.371094 222.566406 -399.359375 C 237.042969 -410.578125 253.15625 -418.699219 270.898438 -423.714844 C 300.664062 -432.128906 329.835938 -431.121094 358.425781 -420.683594 C 379.445312 -413.011719 397.578125 -400.988281 412.816406 -384.605469 C 425.632812 -370.832031 435.304688 -355.074219 441.824219 -337.332031 L 313.398438 -290.121094 L 435.136719 -352.589844 L 529.890625 -167.921875 C 532.792969 -162.398438 536.265625 -158.332031 540.304688 -155.714844 C 543.980469 -153.339844 548.285156 -152.019531 553.21875 -151.761719 C 558.453125 -151.484375 563.214844 -152.414062 567.507812 -154.550781 C 572.457031 -157.089844 575.882812 -159.886719 577.789062 -162.941406 C 580.917969 -167.960938 582.679688 -173.503906 583.078125 -179.5625 C 583.257812 -182.316406 582.136719 -185.957031 579.714844 -190.492188 L 368.066406 -602.960938 C 364.789062 -609.3125 361.824219 -613.199219 359.179688 -614.617188 C 353.617188 -617.605469 347.863281 -618.972656 341.917969 -618.726562 C 335.34375 -618.449219 329.042969 -616.410156 323.023438 -612.609375 C 320.335938 -610.910156 317.691406 -607.039062 315.09375 -601 L 130.828125 -176.921875 C 128.972656 -172.671875 128.292969 -168.382812 128.789062 -164.054688 C 129.359375 -159.109375 131.128906 -154.597656 134.09375 -150.519531 C 136.898438 -146.660156 140.992188 -143.519531 146.378906 -141.097656 Z M 146.378906 -141.097656 "/></g></g></g><g fill="#ffef42" fill-opacity="1"><g transform="translate(2375.209576, 899.943303)"><g/></g></g><g fill="#ffef42" fill-opacity="1"><g transform="translate(2618.776896, 902.65668)"><g/></g></g><g fill="#ffef42" fill-opacity="1"><g transform="translate(2862.226596, 910.699021)"><g/></g></g><g fill="#ffef42" fill-opacity="1"><g transform="translate(3101.327794, 919.506089)"><g><path d="M 571.480469 -826.140625 C 627.859375 -820.730469 678.132812 -801.648438 722.292969 -768.894531 C 764.636719 -737.492188 796.917969 -697.988281 819.136719 -650.375 C 842.105469 -601.164062 850.941406 -548.960938 845.644531 -493.765625 C 840.40625 -439.171875 821.992188 -390.210938 790.40625 -346.875 C 760.320312 -305.601562 722.222656 -273.566406 676.113281 -250.773438 C 626.808594 -226.398438 573.667969 -216.949219 516.679688 -222.417969 L 529.753906 -358.621094 L 666.011719 -346.132812 L 643.847656 -104.257812 C 638.496094 -48.476562 619.574219 1.597656 587.085938 45.960938 C 555.878906 88.570312 516.59375 121.222656 469.230469 143.910156 C 419.644531 167.664062 367.007812 176.871094 311.320312 171.527344 C 256.023438 166.21875 206.394531 147.054688 162.425781 114.03125 C 120.519531 82.554688 88.539062 42.8125 66.480469 -5.195312 C 43.804688 -54.550781 35.097656 -106.683594 40.367188 -161.585938 L 63.570312 -403.363281 L 199.777344 -390.289062 L 186.703125 -254.085938 C 130.71875 -259.457031 80.742188 -278.65625 36.777344 -311.679688 C -4.828125 -342.929688 -36.539062 -381.816406 -58.351562 -428.332031 C -81.121094 -476.882812 -89.882812 -528.453125 -84.644531 -583.046875 C -79.394531 -637.742188 -61.238281 -686.953125 -30.171875 -730.671875 C 0.273438 -773.519531 39.15625 -806.457031 86.46875 -829.480469 C 135.914062 -853.539062 188.628906 -862.882812 244.617188 -857.511719 Z M 545.335938 -553.730469 L 218.472656 -585.101562 C 213.582031 -585.570312 209.496094 -585.003906 206.210938 -583.40625 C 200.796875 -580.773438 196.363281 -577.023438 192.910156 -572.160156 C 190.074219 -568.171875 188.359375 -563.085938 187.765625 -556.902344 C 187.296875 -552.003906 187.847656 -547.878906 189.417969 -544.523438 C 191.945312 -539.136719 195.851562 -534.457031 201.132812 -530.492188 C 204.054688 -528.296875 207.957031 -526.964844 212.847656 -526.496094 L 349.054688 -513.421875 L 312.777344 -135.441406 C 312.203125 -129.472656 312.996094 -124.140625 315.148438 -119.453125 C 317.925781 -113.410156 321.804688 -108.519531 326.785156 -104.78125 C 329.707031 -102.585938 333.265625 -101.285156 337.460938 -100.882812 C 342.652344 -100.386719 347.164062 -101.054688 350.996094 -102.890625 C 357.054688 -105.792969 362.15625 -110.074219 366.300781 -115.734375 C 369.160156 -119.640625 370.835938 -124.140625 371.328125 -129.234375 L 406.035156 -507.957031 L 542.824219 -494.828125 C 548.101562 -494.320312 552.105469 -494.742188 554.839844 -496.09375 C 560.765625 -499.027344 565.574219 -503.019531 569.253906 -508.070312 C 571.4375 -511.0625 572.761719 -515.011719 573.234375 -519.910156 C 573.777344 -525.59375 573.085938 -530.503906 571.152344 -534.644531 C 568.472656 -540.390625 564.515625 -545.203125 559.28125 -549.085938 C 555.863281 -551.617188 551.21875 -553.164062 545.335938 -553.730469 Z M 545.335938 -553.730469 "/></g></g></g><g fill="#ffef42" fill-opacity="1"><g transform="translate(3747.327108, 979.90347)"><g><path d="M 451.1875 -728.0625 C 496.164062 -761.890625 545.371094 -781.578125 598.804688 -787.121094 C 651.027344 -792.539062 701.332031 -784.640625 749.722656 -763.425781 C 800.113281 -741.339844 841.253906 -706.820312 873.148438 -659.867188 L 759.964844 -582.976562 L 870.613281 -663.476562 C 902.988281 -618.972656 921.445312 -569.378906 925.984375 -514.6875 C 930.261719 -463.152344 922.429688 -413.707031 902.496094 -366.355469 C 881.996094 -317.671875 850.316406 -276.652344 807.449219 -243.300781 L 641.308594 -119.617188 L 559.617188 -229.386719 L 694.777344 -208.070312 L 672.039062 -63.910156 C 663.355469 -8.847656 641.628906 39.542969 606.859375 81.261719 C 573.285156 121.542969 531.972656 151.363281 482.917969 170.722656 C 432.402344 190.660156 379.757812 196.308594 324.988281 187.667969 C 270.902344 179.140625 222.898438 157.617188 180.96875 123.097656 C 140.253906 89.578125 110.125 48.492188 90.578125 -0.167969 C 70.339844 -50.5625 64.558594 -103.289062 73.246094 -158.355469 L 95.980469 -302.511719 L 231.140625 -281.195312 L 119.628906 -201.898438 L 1.296875 -368.308594 C -30.339844 -414.839844 -48.414062 -464.417969 -52.933594 -517.046875 C -57.328125 -568.238281 -49.558594 -617.691406 -29.628906 -665.410156 C -8.476562 -716.046875 24.351562 -757.554688 68.851562 -789.933594 L 149.351562 -679.285156 L 65.328125 -787.277344 C 110.003906 -822.039062 159.460938 -842.234375 213.699219 -847.859375 C 266.222656 -853.3125 316.449219 -845.351562 364.371094 -823.980469 C 413.722656 -801.976562 454.261719 -767.628906 485.980469 -720.933594 L 372.796875 -644.042969 L 483.949219 -723.84375 L 552.300781 -628.636719 L 441.152344 -548.835938 L 358.550781 -657.925781 L 450.832031 -727.796875 Z M 616.027344 -509.617188 L 411.855469 -355.027344 L 260.609375 -565.683594 L 259.613281 -567.152344 C 257.074219 -570.890625 254.847656 -573.183594 252.925781 -574.039062 C 249.578125 -575.53125 245.917969 -576.074219 241.9375 -575.660156 C 239.671875 -575.425781 236.816406 -573.96875 233.375 -571.292969 L 231.632812 -569.9375 L 229.851562 -568.640625 C 226.667969 -566.324219 224.347656 -563.421875 222.890625 -559.933594 C 220.214844 -553.53125 219.160156 -547.035156 219.726562 -540.457031 C 220.167969 -535.316406 221.699219 -530.796875 224.320312 -526.898438 L 374.996094 -315.007812 L 343.566406 -115.71875 C 342.722656 -110.371094 343.039062 -105.855469 344.523438 -102.167969 C 346.699219 -96.746094 350.160156 -92.082031 354.902344 -88.179688 C 358.429688 -85.273438 362.671875 -83.433594 367.621094 -82.652344 C 373.261719 -81.761719 378.207031 -82.15625 382.457031 -83.832031 C 388.171875 -86.085938 392.898438 -89.460938 396.636719 -93.949219 C 399.183594 -97 400.875 -101.199219 401.71875 -106.546875 L 433.152344 -305.832031 L 639.398438 -459.289062 C 644.648438 -463.375 648.273438 -467.792969 650.277344 -472.546875 C 652.839844 -478.636719 653.832031 -485.136719 653.257812 -492.054688 C 652.945312 -495.824219 651.632812 -499.296875 649.316406 -502.480469 L 648.019531 -504.261719 L 646.78125 -506.089844 C 644.417969 -509.566406 642.105469 -511.800781 639.851562 -512.789062 C 635.597656 -514.652344 631.332031 -515.363281 627.046875 -514.917969 C 623.976562 -514.601562 620.1875 -512.746094 615.675781 -509.351562 Z M 616.027344 -509.617188 "/></g></g></g><g fill="#d4005f" fill-opacity="1"><g transform="translate(279.253642, 1093.517272)"><g><path d="M 393 -812.453125 C 425.257812 -817.546875 455.707031 -814.085938 484.34375 -802.078125 C 512.976562 -790.066406 537.300781 -771.925781 557.3125 -747.65625 C 577.332031 -723.382812 589.785156 -695.800781 594.671875 -664.90625 C 599.765625 -632.644531 596.503906 -602.050781 584.890625 -573.125 C 573.273438 -544.207031 555.644531 -519.960938 532 -500.390625 C 508.351562 -480.816406 480.398438 -468.484375 448.140625 -463.390625 C 422.734375 -459.378906 399.285156 -459.722656 377.796875 -464.421875 C 356.304688 -469.117188 337.664062 -470.21875 321.875 -467.71875 C 310.894531 -465.988281 302.078125 -460.550781 295.421875 -451.40625 C 288.773438 -442.257812 286.320312 -432.195312 288.0625 -421.21875 C 289.6875 -410.914062 295.015625 -402.785156 304.046875 -396.828125 C 313.078125 -390.867188 323.082031 -388.753906 334.0625 -390.484375 C 349.851562 -392.984375 367.25 -399.78125 386.25 -410.875 C 405.25 -421.976562 427.453125 -429.535156 452.859375 -433.546875 C 485.117188 -438.640625 515.59375 -435.007812 544.28125 -422.65625 C 572.976562 -410.300781 597.359375 -391.8125 617.421875 -367.1875 C 637.492188 -342.570312 650.082031 -314.132812 655.1875 -281.875 C 660.0625 -250.988281 656.691406 -221.082031 645.078125 -192.15625 C 633.472656 -163.238281 615.898438 -138.648438 592.359375 -118.390625 C 568.816406 -98.128906 540.914062 -85.453125 508.65625 -80.359375 L 359.359375 -56.78125 C 309.929688 -48.96875 262.050781 -51.425781 215.71875 -64.15625 C 169.382812 -76.882812 126.859375 -97.78125 88.140625 -126.84375 C 49.429688 -155.90625 17.335938 -190.9375 -8.140625 -231.9375 C -33.617188 -272.945312 -50.207031 -317.820312 -57.90625 -366.5625 C -65.9375 -417.351562 -63.984375 -466.207031 -52.046875 -513.125 C -40.109375 -560.050781 -19.953125 -602.816406 8.421875 -641.421875 C 36.804688 -680.023438 71.46875 -712.234375 112.40625 -738.046875 C 153.351562 -763.867188 198.832031 -781.078125 248.84375 -789.671875 Z M 393 -812.453125 "/></g></g></g><g fill="#d4005f" fill-opacity="1"><g transform="translate(956.531722, 985.02581)"><g><path d="M 542.859375 -50.203125 C 512.421875 -47.328125 483.703125 -52.117188 456.703125 -64.578125 C 429.703125 -77.046875 407.585938 -95.03125 390.359375 -118.53125 C 373.128906 -142.03125 363.078125 -169 360.203125 -199.4375 L 356.875 -234.71875 C 356.28125 -240.945312 353.523438 -246.097656 348.609375 -250.171875 C 343.691406 -254.253906 338.113281 -256 331.875 -255.40625 C 325.65625 -254.820312 320.507812 -252.066406 316.4375 -247.140625 C 312.363281 -242.222656 310.625 -236.648438 311.21875 -230.421875 L 314.546875 -195.140625 C 317.484375 -164.015625 312.863281 -135.304688 300.6875 -109.015625 C 288.507812 -82.734375 270.648438 -61.148438 247.109375 -44.265625 C 223.578125 -27.378906 196.242188 -17.46875 165.109375 -14.53125 C 135.359375 -11.726562 107.171875 -16.398438 80.546875 -28.546875 C 53.921875 -40.691406 31.992188 -58.515625 14.765625 -82.015625 C -2.460938 -105.523438 -12.546875 -132.84375 -15.484375 -163.96875 L -54.09375 -572.859375 C -57.03125 -603.992188 -52.222656 -632.546875 -39.671875 -658.515625 C -27.117188 -684.484375 -8.898438 -705.925781 14.984375 -722.84375 C 38.867188 -739.757812 65.6875 -749.617188 95.4375 -752.421875 C 126.570312 -755.359375 155.273438 -750.738281 181.546875 -738.5625 C 207.828125 -726.382812 229.394531 -708.703125 246.25 -685.515625 C 263.101562 -662.328125 273 -635.164062 275.9375 -604.03125 L 279.46875 -566.671875 C 279.988281 -561.148438 282.707031 -556.347656 287.625 -552.265625 C 292.539062 -548.179688 298.109375 -546.429688 304.328125 -547.015625 C 310.566406 -547.609375 315.722656 -550.367188 319.796875 -555.296875 C 323.867188 -560.222656 325.644531 -565.445312 325.125 -570.96875 L 321.59375 -608.328125 C 318.71875 -638.773438 323.554688 -666.984375 336.109375 -692.953125 C 348.671875 -718.921875 367.046875 -740.550781 391.234375 -757.84375 C 415.429688 -775.132812 442.75 -785.21875 473.1875 -788.09375 C 503.632812 -790.96875 532.015625 -786.144531 558.328125 -773.625 C 584.648438 -761.101562 606.40625 -743.257812 623.59375 -720.09375 C 640.78125 -696.9375 650.8125 -670.132812 653.6875 -639.6875 L 692.296875 -230.796875 C 695.171875 -200.359375 690.347656 -171.984375 677.828125 -145.671875 C 665.316406 -119.367188 647.304688 -97.597656 623.796875 -80.359375 C 600.285156 -63.128906 573.304688 -53.078125 542.859375 -50.203125 Z M 542.859375 -50.203125 "/></g></g></g><g fill="#d4005f" fill-opacity="1"><g transform="translate(1659.777819, 917.372091)"><g><path d="M 90.234375 -16.3125 C 62.734375 -28.6875 40.457031 -46.601562 23.40625 -70.0625 C 6.351562 -93.53125 -3.828125 -119.640625 -7.140625 -148.390625 C -10.453125 -177.148438 -6.253906 -204.914062 5.453125 -231.6875 L 189.609375 -655.515625 C 203.234375 -687.222656 223.347656 -711.476562 249.953125 -728.28125 C 276.566406 -745.082031 305.320312 -754.128906 336.21875 -755.421875 C 367.125 -756.710938 396.351562 -749.957031 423.90625 -735.15625 C 451.46875 -720.363281 473.382812 -697.222656 489.65625 -665.734375 L 701.46875 -252.953125 C 715.457031 -226.960938 721.503906 -199.507812 719.609375 -170.59375 C 717.710938 -141.6875 709.144531 -115.003906 693.90625 -90.546875 C 678.664062 -66.097656 657.351562 -46.847656 629.96875 -32.796875 C 603.25 -19.460938 575.265625 -13.566406 546.015625 -15.109375 C 516.773438 -16.648438 490.09375 -25.21875 465.96875 -40.8125 C 441.851562 -56.414062 422.789062 -77.566406 408.78125 -104.265625 L 313.390625 -290.125 C 312.640625 -292.175781 310.882812 -292.8125 308.125 -292.03125 C 305.375 -291.25 304.398438 -289.140625 305.203125 -285.703125 L 336.890625 -169.859375 L 307.703125 -101.171875 C 295.328125 -73.671875 277.40625 -51.394531 253.9375 -34.34375 C 230.46875 -17.289062 204.359375 -7.109375 175.609375 -3.796875 C 146.859375 -0.484375 118.398438 -4.65625 90.234375 -16.3125 Z M 90.234375 -16.3125 "/></g></g></g><g fill="#d4005f" fill-opacity="1"><g transform="translate(2375.209576, 899.943303)"><g/></g></g><g fill="#d4005f" fill-opacity="1"><g transform="translate(2618.776896, 902.65668)"><g/></g></g><g fill="#d4005f" fill-opacity="1"><g transform="translate(2862.226596, 910.699021)"><g/></g></g><g fill="#d4005f" fill-opacity="1"><g transform="translate(3101.327794, 919.506089)"><g><path d="M 558.40625 -689.9375 C 589.539062 -686.945312 617 -676.632812 640.78125 -659 C 664.5625 -641.363281 682.675781 -619.207031 695.125 -592.53125 C 707.582031 -565.851562 712.351562 -537.289062 709.4375 -506.84375 C 706.582031 -477.09375 696.710938 -450.632812 679.828125 -427.46875 C 662.941406 -404.300781 641.488281 -386.289062 615.46875 -373.4375 C 589.457031 -360.582031 560.890625 -355.648438 529.765625 -358.640625 L 507.578125 -116.75 C 504.660156 -86.3125 494.363281 -59.023438 476.6875 -34.890625 C 459.019531 -10.765625 436.828125 7.695312 410.109375 20.5 C 383.398438 33.300781 354.820312 38.242188 324.375 35.328125 C 294.632812 32.472656 268.046875 22.238281 244.609375 4.625 C 221.171875 -12.988281 203.242188 -35.304688 190.828125 -62.328125 C 178.410156 -89.347656 173.660156 -118.078125 176.578125 -148.515625 L 199.78125 -390.296875 C 169.332031 -393.222656 142.382812 -403.484375 118.9375 -421.078125 C 95.5 -438.679688 77.695312 -460.457031 65.53125 -486.40625 C 53.363281 -512.363281 48.707031 -540.21875 51.5625 -569.96875 C 54.476562 -600.414062 64.410156 -627.566406 81.359375 -651.421875 C 98.304688 -675.273438 119.960938 -693.613281 146.328125 -706.4375 C 172.691406 -719.269531 201.097656 -724.222656 231.546875 -721.296875 Z M 558.40625 -689.9375 "/></g></g></g><g fill="#d4005f" fill-opacity="1"><g transform="translate(3747.327108, 979.90347)"><g><path d="M 533.421875 -618.703125 C 558.171875 -637.316406 584.671875 -648.085938 612.921875 -651.015625 C 641.171875 -653.953125 668.457031 -649.648438 694.78125 -638.109375 C 721.101562 -626.566406 742.828125 -608.191406 759.953125 -582.984375 C 777.296875 -559.128906 787.179688 -532.585938 789.609375 -503.359375 C 792.035156 -474.140625 787.625 -446.171875 776.375 -419.453125 C 765.125 -392.734375 747.472656 -370.015625 723.421875 -351.296875 L 559.625 -229.40625 L 536.875 -85.234375 C 532.113281 -55.035156 520.40625 -28.738281 501.75 -6.34375 C 483.09375 16.039062 460.070312 32.640625 432.6875 43.453125 C 405.300781 54.265625 376.507812 57.285156 346.3125 52.515625 C 316.789062 47.859375 290.664062 36.175781 267.9375 17.46875 C 245.21875 -1.238281 228.425781 -24.113281 217.5625 -51.15625 C 206.695312 -78.207031 203.644531 -106.832031 208.40625 -137.03125 L 231.15625 -281.203125 L 112.8125 -447.59375 C 95.675781 -472.8125 85.867188 -499.863281 83.390625 -528.75 C 80.910156 -557.632812 85.320312 -585.601562 96.625 -612.65625 C 107.925781 -639.71875 125.5 -661.925781 149.34375 -679.28125 C 173.40625 -698 199.5625 -708.820312 227.8125 -711.75 C 256.0625 -714.6875 283.003906 -710.441406 308.640625 -699.015625 C 334.285156 -687.585938 355.664062 -669.265625 372.78125 -644.046875 L 441.15625 -548.84375 Z M 533.421875 -618.703125 "/></g></g></g></g></g><g transform="matrix(1, 0, 0, 1, 2304, 132)"><g clip-path="url(#5de81f8515)"><g fill="#ffef42" fill-opacity="1"><g transform="translate(234.733207, 890.54563)"><g><path d="M 757.96875 -659.226562 C 811.261719 -640.046875 855.253906 -609.132812 889.949219 -566.476562 C 923.21875 -525.582031 944.730469 -479.320312 954.492188 -427.695312 C 964.578125 -374.332031 960.234375 -321.566406 941.460938 -269.394531 C 922.886719 -217.792969 892.941406 -174.898438 851.621094 -140.71875 C 812.265625 -108.160156 767.433594 -86.539062 717.121094 -75.851562 C 663.324219 -64.421875 609.492188 -68.402344 555.628906 -87.789062 L 601.964844 -216.535156 L 730.910156 -170.75 L 649.636719 58.136719 C 630.660156 110.867188 599.949219 154.710938 557.503906 189.664062 C 516.730469 223.238281 470.59375 245.164062 419.089844 255.441406 C 365.171875 266.199219 311.890625 262.105469 259.253906 243.160156 C 206.988281 224.351562 163.632812 193.511719 129.199219 150.644531 C 96.375 109.785156 75.207031 63.371094 65.703125 11.402344 C 55.929688 -42.03125 60.382812 -94.695312 79.058594 -146.59375 L 161.3125 -375.128906 L 290.058594 -328.792969 L 243.71875 -200.046875 C 190.800781 -219.09375 147.121094 -250.050781 112.683594 -292.917969 C 80.09375 -333.480469 58.984375 -378.996094 49.34375 -429.460938 C 39.285156 -482.136719 43.542969 -534.273438 62.113281 -585.875 C 80.722656 -637.578125 110.480469 -680.769531 151.386719 -715.453125 C 191.480469 -749.445312 237.296875 -771.75 288.835938 -782.359375 C 342.695312 -793.449219 396.082031 -789.472656 449.003906 -770.425781 Z M 665.296875 -401.734375 L 356.332031 -512.933594 C 351.710938 -514.597656 347.609375 -515.058594 344.03125 -514.324219 C 338.132812 -513.109375 332.910156 -510.574219 328.363281 -506.714844 C 324.628906 -503.550781 321.710938 -499.046875 319.605469 -493.203125 C 317.941406 -488.570312 317.453125 -484.4375 318.148438 -480.800781 C 319.265625 -474.953125 321.890625 -469.457031 326.03125 -464.304688 C 328.316406 -461.457031 331.773438 -459.203125 336.394531 -457.539062 L 465.140625 -411.203125 L 336.550781 -53.917969 C 334.519531 -48.273438 333.96875 -42.914062 334.898438 -37.839844 C 336.09375 -31.300781 338.644531 -25.601562 342.542969 -20.746094 C 344.832031 -17.898438 347.960938 -15.757812 351.925781 -14.332031 C 356.832031 -12.566406 361.367188 -12.097656 365.539062 -12.929688 C 372.125 -14.246094 378.125 -17.132812 383.539062 -21.589844 C 387.28125 -24.671875 390.015625 -28.617188 391.75 -33.429688 L 519 -391.816406 L 648.300781 -345.28125 C 653.285156 -343.488281 657.273438 -342.90625 660.253906 -343.539062 C 666.722656 -344.914062 672.367188 -347.59375 677.183594 -351.578125 C 680.039062 -353.941406 682.300781 -357.4375 683.964844 -362.066406 C 685.898438 -367.4375 686.441406 -372.371094 685.59375 -376.859375 C 684.414062 -383.089844 681.769531 -388.730469 677.65625 -393.785156 C 674.972656 -397.085938 670.855469 -399.734375 665.296875 -401.734375 Z M 665.296875 -401.734375 "/></g></g></g><g fill="#d4005f" fill-opacity="1"><g transform="translate(234.733207, 890.54563)"><g><path d="M 711.640625 -530.46875 C 741.054688 -519.882812 765.109375 -503.101562 783.796875 -480.125 C 802.492188 -457.15625 814.578125 -431.207031 820.046875 -402.28125 C 825.515625 -373.351562 823.066406 -344.5 812.703125 -315.71875 C 802.585938 -287.601562 786.488281 -264.410156 764.40625 -246.140625 C 742.320312 -227.867188 717.082031 -215.71875 688.6875 -209.6875 C 660.300781 -203.65625 631.394531 -205.9375 601.96875 -216.53125 L 520.6875 12.359375 C 510.332031 41.117188 493.609375 65.007812 470.515625 84.03125 C 447.429688 103.050781 421.363281 115.457031 392.3125 121.25 C 363.269531 127.050781 334.363281 124.769531 305.59375 114.40625 C 277.46875 104.289062 254.222656 87.800781 235.859375 64.9375 C 217.503906 42.082031 205.648438 16.03125 200.296875 -13.21875 C 194.953125 -42.476562 197.457031 -71.488281 207.8125 -100.25 L 290.0625 -328.78125 C 261.28125 -339.132812 237.707031 -355.738281 219.34375 -378.59375 C 200.988281 -401.457031 189.125 -426.96875 183.75 -455.125 C 178.375 -483.28125 180.742188 -511.414062 190.859375 -539.53125 C 201.222656 -568.3125 217.5625 -592.160156 239.875 -611.078125 C 262.195312 -630.003906 287.710938 -642.421875 316.421875 -648.328125 C 345.140625 -654.242188 373.890625 -652.023438 402.671875 -641.671875 Z M 711.640625 -530.46875 "/></g></g></g></g></g></svg>