<svg xmlns="http://www.w3.org/2000/svg" xmlns:xlink="http://www.w3.org/1999/xlink" width="6912" zoomAndPan="magnify" viewBox="0 0 5184 2592.000001" height="3456" preserveAspectRatio="xMidYMid meet" version="1.0"><defs><g/><clipPath id="e663dfbf4f"><rect x="0" width="3853" y="0" height="1455"/></clipPath><clipPath id="35e83b5d9e"><rect x="0" width="1212" y="0" height="1324"/></clipPath></defs><g transform="matrix(1, 0, 0, 1, 219, 794)"><g clip-path="url(#e663dfbf4f)"><g fill="#ffef42" fill-opacity="1"><g transform="translate(285.006163, 1163.324826)"><g><path d="M 380.933594 -959.980469 C 439.691406 -969.023438 495.679688 -962.257812 548.90625 -939.679688 C 598.945312 -918.457031 641.308594 -886.640625 675.984375 -844.238281 C 712.191406 -799.96875 734.625 -749.671875 743.292969 -693.34375 C 752.21875 -635.34375 745.925781 -579.863281 724.414062 -526.898438 C 703.664062 -475.808594 672.160156 -432.921875 629.910156 -398.242188 C 586.246094 -362.40625 535.511719 -340.039062 477.703125 -331.144531 C 434.714844 -324.527344 393.832031 -325.535156 355.050781 -334.167969 C 351.21875 -335.023438 348.1875 -335.519531 345.953125 -335.660156 C 346.496094 -335.625 347.710938 -335.753906 349.597656 -336.042969 C 362.382812 -338.011719 374.453125 -342.46875 385.816406 -349.414062 C 396.902344 -356.195312 406.144531 -364.628906 413.546875 -374.71875 C 420.945312 -384.8125 426.210938 -396.164062 429.34375 -408.773438 C 432.554688 -421.699219 433.175781 -434.554688 431.207031 -447.335938 C 428.984375 -461.785156 423.792969 -475.285156 415.632812 -487.839844 C 407.90625 -499.726562 398.375 -509.441406 387.039062 -516.988281 C 376.984375 -523.683594 365.902344 -528.332031 353.796875 -530.9375 C 342.179688 -533.4375 330.726562 -533.820312 319.429688 -532.082031 C 317.542969 -531.792969 316.347656 -531.546875 315.839844 -531.351562 C 317.925781 -532.15625 320.667969 -533.542969 324.066406 -535.507812 C 358.457031 -555.402344 397.148438 -568.65625 440.136719 -575.269531 C 499.363281 -584.382812 555.78125 -577.269531 609.394531 -553.929688 C 659.226562 -532.230469 701.402344 -500.042969 735.917969 -457.359375 C 771.890625 -412.871094 794.300781 -361.902344 803.140625 -304.453125 C 811.851562 -247.84375 805.453125 -193.058594 783.9375 -140.097656 C 763.542969 -89.882812 732.78125 -47.222656 691.644531 -12.113281 C 647.671875 25.417969 596.308594 48.707031 537.550781 57.75 L 385.964844 81.078125 C 316.054688 91.835938 248.003906 87.976562 181.8125 69.507812 C 117.898438 51.667969 59.34375 22.617188 6.148438 -17.648438 C -46.863281 -57.777344 -90.765625 -106.089844 -125.550781 -162.585938 C -161.050781 -220.238281 -184.03125 -283.058594 -194.492188 -351.050781 C -205.328125 -421.445312 -202.207031 -489.636719 -185.136719 -555.628906 C -168.320312 -620.632812 -140.070312 -679.90625 -100.386719 -733.445312 C -61 -786.585938 -13.042969 -830.820312 43.480469 -866.140625 C 100.726562 -901.914062 163.796875 -925.585938 232.699219 -937.15625 Z M 423.167969 -685.535156 L 278.6875 -663.316406 C 246.046875 -657.835938 216.695312 -646.949219 190.632812 -630.664062 C 163.84375 -613.925781 141.199219 -593.070312 122.691406 -568.101562 C 104.476562 -543.523438 91.476562 -516.1875 83.6875 -486.085938 C 76.15625 -456.96875 74.910156 -426.035156 79.949219 -393.28125 C 84.71875 -362.308594 95.03125 -333.9375 110.894531 -308.171875 C 127.472656 -281.253906 148.417969 -258.210938 173.734375 -239.046875 C 198.867188 -220.023438 226.4375 -206.324219 256.453125 -197.949219 C 284.1875 -190.210938 313.28125 -188.683594 343.730469 -193.367188 L 495.316406 -216.695312 C 502.070312 -217.734375 507.425781 -219.941406 511.378906 -223.316406 C 518.171875 -229.113281 523.269531 -236.207031 526.675781 -244.589844 C 528.964844 -250.222656 529.636719 -256.101562 528.695312 -262.21875 C 527.457031 -270.28125 524.558594 -277.128906 520 -282.765625 C 513.980469 -290.207031 506.832031 -295.730469 498.550781 -299.335938 C 494.050781 -301.296875 488.65625 -301.792969 482.367188 -300.828125 C 473.78125 -299.503906 467.359375 -297.613281 463.097656 -295.148438 C 428.707031 -275.253906 394.894531 -262.75 361.664062 -257.636719 C 339.21875 -254.183594 317.117188 -254.796875 295.355469 -259.484375 C 273.105469 -264.273438 252.378906 -273.058594 233.179688 -285.835938 C 212.703125 -299.46875 195.914062 -316.359375 182.816406 -336.515625 C 169.28125 -357.339844 160.597656 -380.203125 156.765625 -405.101562 C 153.082031 -429.035156 154.109375 -452.566406 159.851562 -475.691406 C 165.515625 -498.503906 175.441406 -519.578125 189.621094 -538.917969 C 203.804688 -558.257812 220.917969 -574.058594 240.972656 -586.316406 C 261.300781 -598.746094 283.433594 -606.804688 307.367188 -610.488281 C 340.597656 -615.601562 376.601562 -613.84375 415.382812 -605.210938 C 420.1875 -604.140625 426.882812 -604.265625 435.46875 -605.585938 C 443.171875 -606.773438 449.265625 -609.203125 453.742188 -612.878906 C 459.632812 -617.714844 464.101562 -623.882812 467.152344 -631.390625 C 469.441406 -637.027344 470.007812 -643.597656 468.851562 -651.109375 C 467.867188 -657.507812 465.265625 -663.285156 461.042969 -668.445312 C 455.296875 -675.46875 448.441406 -680.671875 440.476562 -684.050781 C 435.691406 -686.082031 429.921875 -686.578125 423.167969 -685.535156 Z M 423.167969 -685.535156 "/></g></g></g><g fill="#ffef42" fill-opacity="1"><g transform="translate(972.651929, 1056.007179)"><g><path d="M 563.535156 89.523438 C 507.796875 94.5625 454.949219 85.4375 404.996094 62.148438 C 355.957031 39.285156 315.710938 6.21875 284.253906 -37.058594 C 251.855469 -81.628906 233.109375 -132.082031 228.019531 -188.414062 L 224.78125 -224.230469 C 226.171875 -208.84375 230.53125 -194.234375 237.863281 -180.394531 C 244.996094 -166.933594 254.308594 -155.410156 265.796875 -145.824219 C 277.28125 -136.242188 290.289062 -129.148438 304.8125 -124.546875 C 319.742188 -119.816406 334.898438 -118.144531 350.285156 -119.535156 C 365.667969 -120.925781 380.28125 -125.289062 394.117188 -132.621094 C 407.582031 -139.753906 419.105469 -149.0625 428.6875 -160.550781 C 438.269531 -172.039062 445.363281 -185.042969 449.96875 -199.570312 C 454.699219 -214.496094 456.367188 -229.652344 454.976562 -245.039062 L 458.214844 -209.222656 C 463.324219 -152.699219 454.34375 -99.796875 431.269531 -50.523438 C 408.476562 -1.847656 375.183594 38.066406 331.386719 69.214844 C 287.046875 100.753906 236.613281 119.074219 180.089844 124.183594 C 125.265625 129.140625 73.140625 120.230469 23.722656 97.445312 C -25.171875 74.910156 -65.410156 41.917969 -96.988281 -1.53125 C -129.386719 -46.101562 -148.164062 -96.90625 -153.320312 -153.941406 L -190.839844 -568.988281 C -196.023438 -626.328125 -186.519531 -679.757812 -162.332031 -729.273438 C -139.023438 -776.988281 -105.464844 -816.230469 -61.65625 -846.996094 C -17.121094 -878.269531 32.558594 -896.386719 87.382812 -901.34375 C 143.90625 -906.453125 196.804688 -897.472656 246.082031 -874.398438 C 294.484375 -851.734375 334.214844 -818.84375 365.277344 -775.730469 C 397.085938 -731.582031 415.558594 -681.097656 420.695312 -624.269531 L 424.121094 -586.347656 C 422.59375 -603.253906 417.671875 -619.117188 409.351562 -633.9375 C 402.382812 -646.347656 393.605469 -656.96875 383.011719 -665.804688 C 371.527344 -675.386719 358.519531 -682.480469 343.992188 -687.085938 C 329.066406 -691.816406 313.910156 -693.484375 298.523438 -692.09375 C 283.136719 -690.703125 268.527344 -686.34375 254.691406 -679.011719 C 241.226562 -671.878906 229.703125 -662.566406 220.121094 -651.078125 C 211.285156 -640.488281 204.554688 -628.464844 199.925781 -615.007812 C 194.398438 -598.933594 192.398438 -582.445312 193.925781 -565.539062 L 190.5 -603.460938 C 185.378906 -660.097656 194.910156 -713.175781 219.101562 -762.695312 C 242.316406 -810.21875 275.871094 -849.535156 319.769531 -880.644531 C 364.734375 -912.515625 415.085938 -930.96875 470.824219 -936.007812 C 527.15625 -941.097656 580.152344 -931.707031 629.8125 -907.824219 C 677.222656 -885.027344 716.433594 -852.574219 747.445312 -810.457031 C 780.121094 -766.082031 799.019531 -715.574219 804.140625 -658.933594 L 841.660156 -243.886719 C 846.753906 -187.554688 837.359375 -134.558594 813.480469 -84.898438 C 790.550781 -37.214844 757.6875 2.179688 714.890625 33.285156 C 670.316406 65.683594 619.867188 84.429688 563.535156 89.523438 Z M 538.535156 -187.023438 C 544.003906 -187.519531 548.367188 -188.953125 551.628906 -191.324219 C 556.667969 -194.984375 560.535156 -199.621094 563.234375 -205.234375 C 564.980469 -208.867188 565.605469 -213.417969 565.113281 -218.886719 L 527.59375 -633.933594 C 527.125 -639.097656 525.878906 -643.054688 523.847656 -645.8125 C 520.15625 -650.828125 515.367188 -654.75 509.480469 -657.582031 C 505.847656 -659.328125 501.292969 -659.953125 495.824219 -659.460938 C 489.765625 -658.910156 484.597656 -657.125 480.324219 -654.097656 C 474.980469 -650.308594 471.074219 -645.882812 468.597656 -640.816406 C 467.097656 -637.742188 466.578125 -633.621094 467.046875 -628.460938 L 470.472656 -590.539062 C 472.507812 -568.011719 469.851562 -546.066406 462.503906 -524.695312 C 456.050781 -505.941406 446.332031 -488.777344 433.347656 -473.207031 C 419.613281 -456.746094 403.394531 -443.558594 384.695312 -433.648438 C 365.621094 -423.542969 345.230469 -417.507812 323.523438 -415.546875 C 301.816406 -413.585938 280.675781 -415.863281 260.101562 -422.386719 C 239.925781 -428.78125 221.605469 -438.84375 205.140625 -452.578125 C 189.574219 -465.566406 176.933594 -480.707031 167.222656 -498.003906 C 156.160156 -517.707031 149.613281 -538.824219 147.574219 -561.347656 L 144.148438 -599.269531 C 143.570312 -605.648438 142.183594 -610.363281 139.988281 -613.414062 C 137.046875 -617.492188 133.164062 -620.664062 128.332031 -622.925781 C 124.378906 -624.777344 119.0625 -625.398438 112.382812 -624.796875 C 106.808594 -624.292969 101.988281 -622.613281 97.925781 -619.757812 C 93.132812 -616.394531 89.546875 -612.273438 87.164062 -607.398438 C 85.664062 -604.320312 85.175781 -599.851562 85.707031 -593.988281 L 123.226562 -178.941406 C 123.785156 -172.769531 125.25 -168.054688 127.621094 -164.789062 C 130.808594 -160.402344 134.925781 -157.046875 139.964844 -154.726562 C 144.476562 -152.644531 149.515625 -151.859375 155.089844 -152.363281 C 161.769531 -152.964844 166.890625 -154.53125 170.445312 -157.0625 C 174.546875 -159.980469 177.664062 -163.714844 179.796875 -168.269531 C 181.648438 -172.226562 182.273438 -177.542969 181.667969 -184.222656 L 178.429688 -220.039062 C 176.46875 -241.746094 178.746094 -262.886719 185.269531 -283.464844 C 191.664062 -303.636719 201.726562 -321.957031 215.460938 -338.421875 C 229.195312 -354.886719 245.414062 -368.074219 264.113281 -377.980469 C 283.1875 -388.085938 303.578125 -394.121094 325.285156 -396.082031 C 346.992188 -398.046875 368.132812 -395.765625 388.707031 -389.246094 C 408.882812 -382.851562 427.203125 -372.785156 443.667969 -359.050781 C 460.132812 -345.316406 473.316406 -329.097656 483.226562 -310.398438 C 493.332031 -291.324219 499.367188 -270.9375 501.328125 -249.230469 L 504.566406 -213.414062 C 505.058594 -207.945312 506.492188 -203.578125 508.863281 -200.316406 C 512.175781 -195.757812 516.664062 -192.160156 522.324219 -189.519531 C 527.066406 -187.308594 532.472656 -186.476562 538.535156 -187.023438 Z M 538.535156 -187.023438 "/></g></g></g><g fill="#ffef42" fill-opacity="1"><g transform="translate(1686.473529, 990.211429)"><g><path d="M 34.148438 110.195312 C -16.085938 87.351562 -57.003906 54.007812 -88.59375 10.175781 C -120.023438 -33.433594 -138.699219 -81.914062 -144.628906 -135.269531 C -150.625 -189.25 -142.597656 -241.210938 -120.542969 -291.152344 L 67.941406 -720.203125 C 93.203125 -778.3125 131.527344 -823.453125 182.914062 -855.621094 C 230.910156 -885.671875 282.929688 -901.757812 338.972656 -903.871094 C 395.65625 -906.015625 449.09375 -893.480469 499.285156 -866.269531 C 552.433594 -837.460938 593.722656 -794.269531 623.15625 -736.699219 L 836.546875 -316.6875 C 862.3125 -268.4375 873.25 -216.378906 869.359375 -160.515625 C 865.699219 -108.007812 849.902344 -59.542969 821.960938 -15.125 C 792.773438 31.277344 752.851562 67.34375 702.203125 93.070312 C 652.257812 117.753906 600.265625 128.566406 546.234375 125.503906 C 491.898438 122.425781 442.183594 106.167969 397.089844 76.738281 C 352.371094 47.546875 317.347656 8.625 292.027344 -40.03125 L 191.5625 -237.753906 L 188.671875 -245.710938 C 194.835938 -228.730469 204.074219 -213.570312 216.386719 -200.230469 C 231.148438 -184.238281 248.734375 -172.46875 269.140625 -164.929688 C 296.324219 -154.882812 323.632812 -153.679688 351.0625 -161.316406 C 367.691406 -165.941406 382.894531 -173.554688 396.675781 -184.148438 C 414.097656 -197.539062 427.457031 -214.1875 436.761719 -234.101562 C 444.480469 -250.617188 448.664062 -267.925781 449.3125 -286.027344 C 449.722656 -297.40625 448.683594 -308.554688 446.199219 -319.46875 L 310.828125 -288.636719 L 444.886719 -324.742188 L 489.125 -160.488281 L 440.175781 -46.585938 C 416.546875 5.421875 382.816406 47.222656 338.980469 78.8125 C 295.375 110.242188 246.894531 128.917969 193.535156 134.847656 C 140.515625 140.738281 88.679688 133.085938 38.027344 111.890625 L 36.074219 111.074219 Z M 149.101562 -142.566406 L 91.625 -16.1875 L 145.222656 -144.261719 C 151.632812 -141.578125 157.515625 -140.53125 162.871094 -141.128906 C 167.890625 -141.6875 172.476562 -143.460938 176.628906 -146.453125 C 180.554688 -149.28125 183.367188 -152.539062 185.0625 -156.222656 L 214.960938 -225.789062 L 342.515625 -170.972656 L 208.457031 -134.867188 L 176.058594 -255.160156 L 175.457031 -257.808594 C 168.003906 -290.527344 171.253906 -321.808594 185.199219 -351.648438 C 195.003906 -372.632812 209.089844 -390.183594 227.460938 -404.304688 C 242.195312 -415.628906 258.574219 -423.800781 276.597656 -428.820312 C 306.832031 -437.234375 336.429688 -436.089844 365.394531 -425.386719 C 386.695312 -417.515625 405.039062 -405.238281 420.4375 -388.558594 C 433.382812 -374.53125 443.132812 -358.5 449.675781 -340.472656 L 319.175781 -293.09375 L 442.953125 -355.980469 L 538.339844 -168.21875 C 541.261719 -162.605469 544.769531 -158.460938 548.859375 -155.792969 C 552.578125 -153.363281 556.941406 -152.007812 561.945312 -151.726562 C 567.253906 -151.425781 572.089844 -152.347656 576.453125 -154.5 C 581.484375 -157.054688 584.972656 -159.878906 586.917969 -162.972656 C 590.113281 -168.050781 591.925781 -173.667969 592.355469 -179.816406 C 592.550781 -182.605469 591.429688 -186.304688 588.988281 -190.917969 L 375.921875 -610.296875 C 372.621094 -616.753906 369.632812 -620.707031 366.953125 -622.160156 C 361.320312 -625.210938 355.488281 -626.625 349.457031 -626.394531 C 342.78125 -626.144531 336.382812 -624.101562 330.257812 -620.269531 C 327.523438 -618.554688 324.824219 -614.640625 322.164062 -608.523438 L 133.464844 -178.980469 C 131.566406 -174.675781 130.859375 -170.328125 131.347656 -165.933594 C 131.90625 -160.914062 133.679688 -156.328125 136.671875 -152.175781 C 139.5 -148.25 143.644531 -145.046875 149.101562 -142.566406 Z M 149.101562 -142.566406 "/></g></g></g><g fill="#ffef42" fill-opacity="1"><g transform="translate(2271.429485, 971.406356)"><g><path d="M 516.550781 -878.683594 C 574.003906 -877.421875 626.300781 -861.867188 673.4375 -832.027344 C 718.632812 -803.414062 754.25 -765.847656 780.292969 -719.332031 C 807.210938 -671.25 820.050781 -619.085938 818.816406 -562.839844 C 817.59375 -507.203125 802.621094 -456.28125 773.894531 -410.070312 C 746.535156 -366.054688 710.378906 -330.792969 665.425781 -304.28125 C 617.355469 -275.933594 564.285156 -262.398438 506.210938 -263.675781 L 509.261719 -402.480469 L 648.078125 -400.023438 L 643.722656 -153.613281 C 642.472656 -96.765625 627.070312 -44.683594 597.507812 2.636719 C 569.117188 48.085938 531.800781 84.0625 485.570312 110.558594 C 437.167969 138.304688 384.59375 151.550781 327.84375 150.304688 C 271.492188 149.066406 219.839844 133.382812 172.882812 103.25 C 128.125 74.53125 92.792969 36.707031 66.886719 -10.222656 C 40.246094 -58.472656 27.542969 -110.574219 28.773438 -166.527344 L 34.1875 -412.914062 L 172.988281 -409.867188 L 169.941406 -271.0625 C 112.886719 -272.316406 60.878906 -288.007812 13.921875 -318.140625 C -30.511719 -346.652344 -65.503906 -383.628906 -91.054688 -429.070312 C -117.722656 -476.5 -130.445312 -528.03125 -129.222656 -583.664062 C -127.996094 -639.402344 -113.300781 -690.554688 -85.132812 -737.117188 C -57.527344 -782.75 -20.644531 -818.984375 25.515625 -845.820312 C 73.75 -873.859375 126.394531 -887.253906 183.449219 -886 Z M 510.449219 -601.074219 L 177.351562 -608.390625 C 172.367188 -608.5 168.273438 -607.625 165.070312 -605.761719 C 159.789062 -602.691406 155.582031 -598.566406 152.449219 -593.390625 C 149.878906 -589.140625 148.523438 -583.863281 148.386719 -577.566406 C 148.277344 -572.574219 149.140625 -568.4375 150.984375 -565.164062 C 153.941406 -559.898438 158.242188 -555.457031 163.886719 -551.835938 C 167.003906 -549.835938 171.054688 -548.78125 176.039062 -548.671875 L 314.84375 -545.621094 L 306.378906 -160.429688 C 306.246094 -154.34375 307.445312 -149.007812 309.976562 -144.425781 C 313.234375 -138.519531 317.527344 -133.859375 322.84375 -130.445312 C 325.964844 -128.445312 329.664062 -127.398438 333.941406 -127.300781 C 339.230469 -127.1875 343.746094 -128.199219 347.488281 -130.347656 C 353.398438 -133.734375 358.242188 -138.449219 362.011719 -144.484375 C 364.617188 -148.652344 365.976562 -153.332031 366.089844 -158.519531 L 372.910156 -544.34375 L 512.3125 -541.28125 C 517.6875 -541.164062 521.707031 -541.890625 524.375 -543.464844 C 530.152344 -546.871094 534.71875 -551.269531 538.066406 -556.660156 C 540.050781 -559.851562 541.097656 -563.941406 541.207031 -568.9375 C 541.335938 -574.726562 540.265625 -579.644531 538 -583.691406 C 534.859375 -589.304688 530.496094 -593.878906 524.90625 -597.414062 C 521.261719 -599.722656 516.445312 -600.941406 510.449219 -601.074219 Z M 510.449219 -601.074219 "/></g></g></g><g fill="#ffef42" fill-opacity="1"><g transform="translate(2918.828746, 984.602221)"><g><path d="M 566.035156 -847.648438 C 623.324219 -843.097656 674.644531 -824.574219 719.992188 -792.082031 C 763.476562 -760.925781 796.882812 -721.382812 820.21875 -673.453125 C 844.335938 -623.90625 854.167969 -571.089844 849.710938 -515.007812 C 845.304688 -459.535156 827.441406 -409.554688 796.113281 -365.0625 C 766.28125 -322.6875 728.160156 -289.554688 681.761719 -265.664062 C 632.148438 -240.117188 578.390625 -229.644531 520.484375 -234.242188 L 531.480469 -372.644531 L 669.929688 -362.242188 L 651.464844 -116.484375 C 646.960938 -59.800781 628.601562 -8.6875 596.378906 36.859375 C 565.425781 80.609375 526.113281 114.386719 478.441406 138.195312 C 428.527344 163.121094 375.28125 173.335938 318.695312 168.839844 C 262.507812 164.375 211.835938 145.757812 166.683594 112.984375 C 123.644531 81.746094 90.539062 41.960938 67.359375 -6.375 C 43.53125 -56.070312 33.832031 -108.816406 38.265625 -164.605469 L 57.785156 -410.277344 L 196.183594 -399.285156 L 185.1875 -260.882812 C 128.300781 -265.402344 77.277344 -284.046875 32.125 -316.820312 C -10.605469 -347.832031 -43.421875 -386.753906 -66.324219 -433.582031 C -90.230469 -482.460938 -99.980469 -534.636719 -95.574219 -590.109375 C -91.160156 -645.6875 -73.558594 -695.910156 -42.769531 -740.785156 C -12.59375 -784.761719 26.304688 -818.824219 73.925781 -842.96875 C 123.6875 -868.199219 177.011719 -878.554688 233.902344 -874.035156 Z M 544.046875 -570.847656 L 211.910156 -597.234375 C 206.945312 -597.628906 202.804688 -596.988281 199.5 -595.3125 C 194.050781 -592.546875 189.617188 -588.671875 186.191406 -583.683594 C 183.382812 -579.585938 181.726562 -574.398438 181.226562 -568.117188 C 180.832031 -563.136719 181.460938 -558.960938 183.109375 -555.585938 C 185.765625 -550.160156 189.804688 -545.480469 195.226562 -541.542969 C 198.226562 -539.367188 202.210938 -538.078125 207.179688 -537.683594 L 345.582031 -526.6875 L 315.066406 -142.613281 C 314.585938 -136.546875 315.476562 -131.152344 317.742188 -126.429688 C 320.65625 -120.347656 324.671875 -115.449219 329.789062 -111.738281 C 332.789062 -109.5625 336.421875 -108.300781 340.6875 -107.964844 C 345.957031 -107.542969 350.523438 -108.300781 354.382812 -110.226562 C 360.480469 -113.269531 365.585938 -117.699219 369.695312 -123.507812 C 372.535156 -127.523438 374.160156 -132.113281 374.570312 -137.289062 L 403.480469 -522.089844 L 542.476562 -511.046875 C 547.835938 -510.621094 551.894531 -511.117188 554.644531 -512.53125 C 560.609375 -515.605469 565.417969 -519.734375 569.070312 -524.921875 C 571.234375 -527.996094 572.515625 -532.019531 572.910156 -537 C 573.371094 -542.773438 572.582031 -547.746094 570.554688 -551.914062 C 567.738281 -557.695312 563.644531 -562.515625 558.269531 -566.367188 C 554.761719 -568.878906 550.019531 -570.371094 544.046875 -570.847656 Z M 544.046875 -570.847656 "/></g></g></g><g fill="#d4005f" fill-opacity="1"><g transform="translate(285.006163, 1163.324826)"><g><path d="M 402.0625 -822.75 C 434.8125 -827.789062 465.6875 -824.160156 494.6875 -811.859375 C 523.695312 -799.554688 548.304688 -781.046875 568.515625 -756.328125 C 588.722656 -731.617188 601.238281 -703.582031 606.0625 -672.21875 C 611.101562 -639.46875 607.675781 -608.4375 595.78125 -579.125 C 583.882812 -549.820312 565.898438 -525.296875 541.828125 -505.546875 C 517.753906 -485.796875 489.34375 -473.398438 456.59375 -468.359375 C 430.800781 -464.390625 407.003906 -464.828125 385.203125 -469.671875 C 363.410156 -474.523438 344.5 -475.722656 328.46875 -473.265625 C 317.320312 -471.546875 308.359375 -466.0625 301.578125 -456.8125 C 294.796875 -447.5625 292.265625 -437.359375 293.984375 -426.203125 C 295.585938 -415.753906 300.960938 -407.488281 310.109375 -401.40625 C 319.253906 -395.320312 329.398438 -393.140625 340.546875 -394.859375 C 356.578125 -397.316406 374.253906 -404.132812 393.578125 -415.3125 C 412.910156 -426.5 435.472656 -434.078125 461.265625 -438.046875 C 494.015625 -443.085938 524.914062 -439.28125 553.96875 -426.625 C 583.03125 -413.976562 607.691406 -395.125 627.953125 -370.0625 C 648.210938 -345 660.863281 -316.085938 665.90625 -283.328125 C 670.726562 -251.960938 667.191406 -221.628906 655.296875 -192.328125 C 643.398438 -163.035156 625.46875 -138.160156 601.5 -117.703125 C 577.539062 -97.253906 549.1875 -84.507812 516.4375 -79.46875 L 364.84375 -56.140625 C 314.664062 -48.421875 266.09375 -51.113281 219.125 -64.21875 C 172.164062 -77.332031 129.101562 -98.707031 89.9375 -128.34375 C 50.769531 -157.988281 18.347656 -193.664062 -7.328125 -235.375 C -33.003906 -277.082031 -49.648438 -322.675781 -57.265625 -372.15625 C -65.203125 -423.726562 -63.019531 -473.289062 -50.71875 -520.84375 C -38.414062 -568.394531 -17.789062 -611.703125 11.15625 -650.765625 C 40.101562 -689.828125 75.40625 -722.367188 117.0625 -748.390625 C 158.71875 -774.421875 204.929688 -791.703125 255.703125 -800.234375 Z M 402.0625 -822.75 "/></g></g></g><g fill="#d4005f" fill-opacity="1"><g transform="translate(972.651929, 1056.007179)"><g><path d="M 551.03125 -48.734375 C 520.125 -45.941406 490.992188 -50.921875 463.640625 -63.671875 C 436.296875 -76.421875 413.929688 -94.753906 396.546875 -118.671875 C 379.160156 -142.597656 369.070312 -170.007812 366.28125 -200.90625 L 363.046875 -236.71875 C 362.472656 -243.039062 359.695312 -248.28125 354.71875 -252.4375 C 349.75 -256.59375 344.101562 -258.382812 337.78125 -257.8125 C 331.46875 -257.238281 326.234375 -254.460938 322.078125 -249.484375 C 317.921875 -244.503906 316.128906 -238.851562 316.703125 -232.53125 L 319.9375 -196.71875 C 322.789062 -165.113281 317.988281 -136.003906 305.53125 -109.390625 C 293.070312 -82.773438 274.867188 -60.945312 250.921875 -43.90625 C 226.972656 -26.875 199.191406 -16.929688 167.578125 -14.078125 C 137.390625 -11.347656 108.8125 -16.195312 81.84375 -28.625 C 54.875 -41.0625 32.695312 -59.238281 15.3125 -83.15625 C -2.070312 -107.070312 -12.191406 -134.832031 -15.046875 -166.4375 L -52.5625 -581.484375 C -55.414062 -613.078125 -50.421875 -642.023438 -37.578125 -668.328125 C -24.734375 -694.628906 -6.160156 -716.3125 18.140625 -733.375 C 42.441406 -750.4375 69.6875 -760.332031 99.875 -763.0625 C 131.488281 -765.914062 160.601562 -761.113281 187.21875 -748.65625 C 213.832031 -736.195312 235.640625 -718.164062 252.640625 -694.5625 C 269.640625 -670.957031 279.566406 -643.359375 282.421875 -611.765625 L 285.84375 -573.84375 C 286.351562 -568.226562 289.097656 -563.34375 294.078125 -559.1875 C 299.054688 -555.03125 304.703125 -553.238281 311.015625 -553.8125 C 317.335938 -554.382812 322.570312 -557.160156 326.71875 -562.140625 C 330.875 -567.117188 332.695312 -572.414062 332.1875 -578.03125 L 328.765625 -615.953125 C 325.972656 -646.859375 331 -675.457031 343.84375 -701.75 C 356.6875 -728.039062 375.414062 -749.910156 400.03125 -767.359375 C 424.65625 -784.804688 452.421875 -794.925781 483.328125 -797.71875 C 514.222656 -800.507812 542.992188 -795.5 569.640625 -782.6875 C 596.285156 -769.875 618.285156 -751.6875 635.640625 -728.125 C 652.992188 -704.5625 663.066406 -677.328125 665.859375 -646.421875 L 703.375 -231.375 C 706.164062 -200.476562 701.15625 -171.703125 688.34375 -145.046875 C 675.53125 -118.398438 657.164062 -96.382812 633.25 -79 C 609.332031 -61.613281 581.925781 -51.523438 551.03125 -48.734375 Z M 551.03125 -48.734375 "/></g></g></g><g fill="#d4005f" fill-opacity="1"><g transform="translate(1686.473529, 990.211429)"><g><path d="M 91.625 -16.1875 C 63.78125 -28.84375 41.253906 -47.109375 24.046875 -70.984375 C 6.835938 -94.867188 -3.382812 -121.40625 -6.625 -150.59375 C -9.875 -179.78125 -5.507812 -207.9375 6.46875 -235.0625 L 195.046875 -664.359375 C 209.003906 -696.460938 229.515625 -720.984375 256.578125 -737.921875 C 283.648438 -754.867188 312.863281 -763.929688 344.21875 -765.109375 C 375.570312 -766.296875 405.203125 -759.320312 433.109375 -744.1875 C 461.023438 -729.0625 483.164062 -705.492188 499.53125 -673.484375 L 712.765625 -253.78125 C 726.867188 -227.351562 732.898438 -199.472656 730.859375 -170.140625 C 728.816406 -140.816406 720.007812 -113.78125 704.4375 -89.03125 C 688.875 -64.28125 667.171875 -44.835938 639.328125 -30.703125 C 612.171875 -17.296875 583.753906 -11.429688 554.078125 -13.109375 C 524.410156 -14.785156 497.375 -23.585938 472.96875 -39.515625 C 448.5625 -55.453125 429.296875 -76.988281 415.171875 -104.125 L 319.15625 -293.078125 C 318.40625 -295.179688 316.628906 -295.835938 313.828125 -295.046875 C 311.035156 -294.265625 310.039062 -292.125 310.84375 -288.625 L 342.515625 -170.96875 L 312.625 -101.40625 C 299.957031 -73.5625 281.679688 -51.03125 257.796875 -33.8125 C 233.921875 -16.601562 207.390625 -6.378906 178.203125 -3.140625 C 149.015625 0.0976562 120.15625 -4.25 91.625 -16.1875 Z M 91.625 -16.1875 "/></g></g></g><g fill="#d4005f" fill-opacity="1"><g transform="translate(2271.429485, 971.406356)"><g><path d="M 513.484375 -739.875 C 545.203125 -739.1875 573.757812 -730.800781 599.15625 -714.71875 C 624.550781 -698.644531 644.546875 -677.578125 659.140625 -651.515625 C 673.734375 -625.453125 680.691406 -596.910156 680.015625 -565.890625 C 679.347656 -535.578125 671.335938 -508.070312 655.984375 -483.375 C 640.628906 -458.675781 620.265625 -438.84375 594.890625 -423.875 C 569.515625 -408.914062 540.96875 -401.785156 509.25 -402.484375 L 504.90625 -156.0625 C 504.21875 -125.039062 495.832031 -96.660156 479.75 -70.921875 C 463.664062 -45.179688 442.585938 -24.835938 416.515625 -9.890625 C 390.453125 5.054688 361.910156 12.1875 330.890625 11.5 C 300.578125 10.832031 272.898438 2.46875 247.859375 -13.59375 C 222.816406 -29.664062 203.003906 -50.910156 188.421875 -77.328125 C 173.835938 -103.742188 166.890625 -132.460938 167.578125 -163.484375 L 172.984375 -409.875 C 141.960938 -410.550781 113.929688 -418.921875 88.890625 -434.984375 C 63.859375 -451.054688 44.210938 -471.765625 29.953125 -497.109375 C 15.703125 -522.460938 8.910156 -550.296875 9.578125 -580.609375 C 10.253906 -611.628906 18.273438 -639.84375 33.640625 -665.25 C 49.015625 -690.65625 69.5625 -710.832031 95.28125 -725.78125 C 121 -740.738281 149.367188 -747.878906 180.390625 -747.203125 Z M 513.484375 -739.875 "/></g></g></g><g fill="#d4005f" fill-opacity="1"><g transform="translate(2918.828746, 984.602221)"><g><path d="M 555.03125 -709.25 C 586.65625 -706.738281 614.679688 -696.726562 639.109375 -679.21875 C 663.546875 -661.71875 682.300781 -639.539062 695.375 -612.6875 C 708.457031 -585.832031 713.769531 -556.9375 711.3125 -526 C 708.914062 -495.769531 699.34375 -468.765625 682.59375 -444.984375 C 665.851562 -421.203125 644.390625 -402.570312 618.203125 -389.09375 C 592.015625 -375.613281 563.101562 -370.128906 531.46875 -372.640625 L 513.015625 -126.890625 C 510.554688 -95.960938 500.5625 -68.109375 483.03125 -43.328125 C 465.5 -18.546875 443.289062 0.554688 416.40625 13.984375 C 389.53125 27.410156 360.625 32.894531 329.6875 30.4375 C 299.46875 28.03125 272.316406 18.085938 248.234375 0.609375 C 224.148438 -16.859375 205.585938 -39.195312 192.546875 -66.40625 C 179.503906 -93.613281 174.210938 -122.679688 176.671875 -153.609375 L 196.1875 -399.28125 C 165.25 -401.738281 137.742188 -411.703125 113.671875 -429.171875 C 89.597656 -446.648438 71.171875 -468.453125 58.390625 -494.578125 C 45.617188 -520.703125 40.429688 -548.878906 42.828125 -579.109375 C 45.285156 -610.046875 54.910156 -637.753906 71.703125 -662.234375 C 88.503906 -686.710938 110.171875 -705.679688 136.703125 -719.140625 C 163.234375 -732.597656 191.96875 -738.097656 222.90625 -735.640625 Z M 555.03125 -709.25 "/></g></g></g></g></g><g transform="matrix(1, 0, 0, 1, 3757, 490)"><g clip-path="url(#35e83b5d9e)"><g fill="#ffef42" fill-opacity="1"><g transform="translate(203.414192, 928.361484)"><g><path d="M 452.152344 -742.210938 C 497.527344 -776.878906 547.300781 -797.234375 601.476562 -803.273438 C 654.417969 -809.175781 705.519531 -801.550781 754.785156 -780.402344 C 806.082031 -758.378906 848.09375 -723.675781 880.816406 -676.28125 L 766.570312 -597.390625 L 878.214844 -679.925781 C 911.410156 -635.023438 930.519531 -584.84375 935.550781 -529.390625 C 940.289062 -477.128906 932.726562 -426.902344 912.863281 -378.703125 C 892.445312 -329.148438 860.617188 -287.285156 817.378906 -253.113281 L 649.765625 -126.332031 L 566.03125 -237.074219 L 703.332031 -216.492188 L 681.378906 -70.046875 C 672.992188 -14.113281 651.324219 35.15625 616.367188 77.753906 C 582.617188 118.882812 540.929688 149.460938 491.304688 169.480469 C 440.203125 190.101562 386.835938 196.242188 331.195312 187.898438 C 276.253906 179.664062 227.378906 158.195312 184.570312 123.5 C 143 89.804688 112.109375 48.347656 91.902344 -0.871094 C 70.976562 -51.847656 64.703125 -105.300781 73.089844 -161.238281 L 95.042969 -307.683594 L 232.347656 -287.097656 L 119.816406 -205.777344 L -1.535156 -373.707031 C -33.992188 -420.675781 -52.71875 -470.839844 -57.710938 -524.203125 C -62.566406 -576.109375 -55.066406 -626.347656 -35.210938 -674.917969 C -14.144531 -726.460938 18.84375 -768.828125 63.746094 -802.023438 L 146.277344 -690.382812 L 60.1875 -799.304688 C 105.25 -834.921875 155.273438 -855.792969 210.261719 -861.921875 C 263.511719 -867.859375 314.535156 -860.171875 363.324219 -838.859375 C 413.570312 -816.914062 454.964844 -782.375 487.511719 -735.242188 L 373.265625 -656.351562 L 485.425781 -738.183594 L 555.515625 -642.113281 L 443.355469 -560.28125 L 358.707031 -670.328125 L 451.796875 -741.9375 Z M 621.097656 -521.84375 L 415.132812 -363.410156 L 260.042969 -575.980469 L 259.019531 -577.460938 C 256.417969 -581.234375 254.136719 -583.546875 252.183594 -584.398438 C 248.777344 -585.886719 245.054688 -586.40625 241.023438 -585.957031 C 238.722656 -585.699219 235.839844 -584.199219 232.367188 -581.457031 L 230.613281 -580.070312 L 228.8125 -578.738281 C 225.601562 -576.367188 223.269531 -573.402344 221.820312 -569.855469 C 219.152344 -563.332031 218.132812 -556.738281 218.757812 -550.066406 C 219.246094 -544.851562 220.835938 -540.28125 223.523438 -536.34375 L 378.046875 -322.519531 L 347.695312 -120.070312 C 346.882812 -114.640625 347.242188 -110.058594 348.773438 -106.328125 C 351.023438 -100.84375 354.570312 -96.140625 359.414062 -92.21875 C 363.015625 -89.296875 367.332031 -87.460938 372.363281 -86.707031 C 378.089844 -85.847656 383.105469 -86.285156 387.40625 -88.019531 C 393.183594 -90.351562 397.953125 -93.808594 401.714844 -98.394531 C 404.273438 -101.511719 405.960938 -105.785156 406.773438 -111.214844 L 437.121094 -313.664062 L 645.199219 -470.960938 C 650.496094 -475.144531 654.140625 -479.65625 656.132812 -484.496094 C 658.6875 -490.691406 659.644531 -497.296875 659.007812 -504.3125 C 658.664062 -508.132812 657.304688 -511.648438 654.929688 -514.859375 L 653.597656 -516.660156 L 652.328125 -518.5 C 649.902344 -522.011719 647.542969 -524.261719 645.246094 -525.246094 C 640.914062 -527.105469 636.578125 -527.792969 632.238281 -527.308594 C 629.125 -526.960938 625.292969 -525.050781 620.742188 -521.570312 Z M 621.097656 -521.84375 "/></g></g></g><g fill="#d4005f" fill-opacity="1"><g transform="translate(203.414192, 928.361484)"><g><path d="M 536.453125 -631.875 C 561.410156 -650.945312 588.207031 -662.082031 616.84375 -665.28125 C 645.488281 -668.476562 673.207031 -664.320312 700 -652.8125 C 726.789062 -641.300781 748.976562 -622.820312 766.5625 -597.375 C 784.34375 -573.320312 794.578125 -546.472656 797.265625 -516.828125 C 799.960938 -487.191406 795.703125 -458.773438 784.484375 -431.578125 C 773.273438 -404.390625 755.539062 -381.207031 731.28125 -362.03125 L 566.03125 -237.078125 L 544.078125 -90.625 C 539.472656 -59.9375 527.789062 -33.164062 509.03125 -10.3125 C 490.28125 12.539062 467.050781 29.554688 439.34375 40.734375 C 411.644531 51.910156 382.453125 55.195312 351.765625 50.59375 C 321.785156 46.09375 295.191406 34.441406 271.984375 15.640625 C 248.785156 -3.160156 231.566406 -26.238281 220.328125 -53.59375 C 209.097656 -80.945312 205.785156 -109.96875 210.390625 -140.65625 L 232.34375 -287.109375 L 111 -455.03125 C 93.425781 -480.476562 83.265625 -507.84375 80.515625 -537.125 C 77.773438 -566.40625 82.035156 -594.820312 93.296875 -622.375 C 104.566406 -649.925781 122.226562 -672.59375 146.28125 -690.375 C 170.550781 -709.539062 197.003906 -720.722656 225.640625 -723.921875 C 254.273438 -727.128906 281.644531 -723.03125 307.75 -711.625 C 333.851562 -700.21875 355.691406 -681.789062 373.265625 -656.34375 L 443.34375 -560.28125 Z M 536.453125 -631.875 "/></g></g></g></g></g></svg>