<svg xmlns="http://www.w3.org/2000/svg" xmlns:xlink="http://www.w3.org/1999/xlink" width="6912" zoomAndPan="magnify" viewBox="0 0 5184 2592.000001" height="3456" preserveAspectRatio="xMidYMid meet" version="1.0"><defs><g/><clipPath id="d83f17aff6"><rect x="0" width="4748" y="0" height="1409"/></clipPath><clipPath id="89e8d12d6e"><rect x="0" width="1356" y="0" height="1468"/></clipPath></defs><g transform="matrix(1, 0, 0, 1, 214, 867)"><g clip-path="url(#d83f17aff6)"><g fill="#ffef42" fill-opacity="1"><g transform="translate(283.541133, 1117.314428)"><g><path d="M 391.433594 -979.183594 C 451.449219 -988.265625 508.601562 -981.210938 562.886719 -958.023438 C 613.925781 -936.21875 657.09375 -903.625 692.394531 -860.242188 C 729.242188 -814.949219 752.019531 -763.535156 760.726562 -706 C 769.6875 -646.753906 763.121094 -590.125 741.015625 -536.101562 C 719.695312 -483.992188 687.421875 -440.285156 644.191406 -404.988281 C 599.515625 -368.507812 547.65625 -345.800781 488.609375 -336.871094 C 444.699219 -330.226562 402.960938 -331.363281 363.386719 -340.277344 C 359.476562 -341.15625 356.378906 -341.671875 354.101562 -341.820312 C 354.65625 -341.785156 355.894531 -341.914062 357.824219 -342.203125 C 370.878906 -344.179688 383.21875 -348.699219 394.839844 -355.765625 C 406.175781 -362.65625 415.632812 -371.246094 423.214844 -381.53125 C 430.796875 -391.8125 436.203125 -403.390625 439.433594 -416.257812 C 442.746094 -429.449219 443.414062 -442.570312 441.4375 -455.628906 C 439.203125 -470.382812 433.9375 -484.183594 425.640625 -497.023438 C 417.78125 -509.179688 408.074219 -519.125 396.519531 -526.855469 C 386.269531 -533.71875 374.964844 -538.496094 362.613281 -541.1875 C 350.761719 -543.769531 339.066406 -544.191406 327.53125 -542.445312 C 325.601562 -542.152344 324.378906 -541.90625 323.859375 -541.707031 C 325.992188 -542.527344 328.796875 -543.933594 332.273438 -545.933594 C 367.4375 -566.152344 406.976562 -579.585938 450.882812 -586.226562 C 511.378906 -595.378906 568.96875 -587.972656 623.648438 -564 C 674.472656 -541.71875 717.453125 -508.742188 752.582031 -465.070312 C 789.199219 -419.554688 811.945312 -367.453125 820.820312 -308.773438 C 829.570312 -250.953125 822.890625 -195.03125 800.789062 -141.011719 C 779.835938 -89.792969 748.3125 -46.316406 706.226562 -10.574219 C 661.230469 27.632812 608.722656 51.277344 548.707031 60.359375 L 393.871094 83.78125 C 322.464844 94.585938 252.992188 90.472656 185.457031 71.4375 C 120.246094 53.0625 60.53125 23.246094 6.320312 -18.003906 C -47.699219 -59.113281 -92.398438 -108.554688 -127.769531 -166.328125 C -163.867188 -225.289062 -187.167969 -289.488281 -197.675781 -358.9375 C -208.550781 -430.839844 -205.191406 -500.460938 -187.589844 -567.792969 C -170.25 -634.125 -141.253906 -694.570312 -100.597656 -749.128906 C -60.242188 -803.289062 -11.164062 -848.328125 46.640625 -884.246094 C 105.183594 -920.621094 169.644531 -944.628906 240.023438 -956.265625 Z M 433.84375 -698.859375 L 286.269531 -676.546875 C 252.929688 -671.03125 222.929688 -659.996094 196.277344 -643.433594 C 168.882812 -626.414062 145.707031 -605.179688 126.746094 -579.730469 C 108.082031 -554.6875 94.738281 -526.804688 86.710938 -496.089844 C 78.941406 -466.382812 77.589844 -434.800781 82.652344 -401.347656 C 87.4375 -369.707031 97.898438 -340.714844 114.027344 -314.367188 C 130.882812 -286.839844 152.207031 -263.257812 178.007812 -243.625 C 203.621094 -224.136719 231.738281 -210.078125 262.359375 -201.449219 C 290.660156 -193.472656 320.359375 -191.839844 351.460938 -196.542969 L 506.296875 -219.96875 C 513.195312 -221.011719 518.667969 -223.25 522.710938 -226.6875 C 529.664062 -232.589844 534.886719 -239.816406 538.386719 -248.367188 C 540.738281 -254.117188 541.441406 -260.113281 540.496094 -266.363281 C 539.25 -274.597656 536.308594 -281.597656 531.671875 -287.363281 C 525.546875 -294.980469 518.257812 -300.636719 509.8125 -304.339844 C 505.222656 -306.351562 499.714844 -306.875 493.292969 -305.902344 C 484.523438 -304.574219 477.960938 -302.660156 473.601562 -300.152344 C 438.4375 -279.933594 403.882812 -267.253906 369.941406 -262.117188 C 347.011719 -258.648438 324.445312 -259.335938 302.242188 -264.175781 C 279.535156 -269.125 258.394531 -278.148438 238.824219 -291.246094 C 217.953125 -305.214844 200.855469 -322.503906 187.53125 -343.117188 C 173.765625 -364.417969 164.960938 -387.78125 161.113281 -413.21875 C 157.414062 -437.664062 158.523438 -461.683594 164.449219 -485.28125 C 170.292969 -508.558594 180.476562 -530.050781 195.007812 -549.761719 C 209.535156 -569.472656 227.054688 -585.558594 247.558594 -598.023438 C 268.351562 -610.664062 290.96875 -618.832031 315.414062 -622.53125 C 349.355469 -627.664062 386.113281 -625.777344 425.6875 -616.863281 C 430.59375 -615.757812 437.429688 -615.867188 446.199219 -617.195312 C 454.066406 -618.386719 460.292969 -620.851562 464.875 -624.59375 C 470.902344 -629.511719 475.480469 -635.800781 478.613281 -643.460938 C 480.964844 -649.207031 481.5625 -655.917969 480.398438 -663.589844 C 479.410156 -670.121094 476.769531 -676.03125 472.472656 -681.308594 C 466.625 -688.496094 459.640625 -693.824219 451.511719 -697.296875 C 446.632812 -699.382812 440.742188 -699.902344 433.84375 -698.859375 Z M 433.84375 -698.859375 "/></g></g></g><g fill="#ffef42" fill-opacity="1"><g transform="translate(985.924988, 1009.508382)"><g><path d="M 575.15625 92.867188 C 518.230469 97.867188 464.296875 88.414062 413.351562 64.503906 C 363.339844 41.035156 322.332031 7.167969 290.328125 -37.097656 C 257.363281 -82.691406 238.355469 -134.253906 233.304688 -191.785156 L 230.089844 -228.363281 C 231.46875 -212.648438 235.886719 -197.71875 243.335938 -183.574219 C 250.582031 -169.808594 260.058594 -158.019531 271.765625 -148.203125 C 283.46875 -138.390625 296.730469 -131.113281 311.546875 -126.375 C 326.777344 -121.507812 342.246094 -119.761719 357.960938 -121.140625 C 373.675781 -122.523438 388.605469 -126.9375 402.75 -134.386719 C 416.515625 -141.636719 428.304688 -151.113281 438.121094 -162.816406 C 447.933594 -174.519531 455.210938 -187.78125 459.949219 -202.601562 C 464.816406 -217.828125 466.5625 -233.300781 465.183594 -249.011719 L 468.394531 -212.4375 C 473.464844 -154.710938 464.15625 -100.71875 440.472656 -50.464844 C 417.074219 -0.828125 382.976562 39.839844 338.175781 71.53125 C 292.820312 103.617188 241.28125 122.195312 183.554688 127.265625 C 127.566406 132.183594 74.367188 122.945312 23.96875 99.558594 C -25.894531 76.417969 -66.894531 42.628906 -99.023438 -1.8125 C -131.988281 -47.40625 -151.027344 -99.328125 -156.144531 -157.574219 L -193.378906 -581.449219 C -198.523438 -640.011719 -188.683594 -694.539062 -163.855469 -745.035156 C -139.933594 -793.691406 -105.566406 -833.671875 -60.757812 -864.96875 C -15.203125 -896.789062 35.566406 -915.15625 91.554688 -920.074219 C 149.28125 -925.144531 203.273438 -915.835938 253.527344 -892.148438 C 302.886719 -868.886719 343.367188 -835.199219 374.972656 -791.097656 C 407.335938 -745.941406 426.0625 -694.34375 431.160156 -636.308594 L 434.5625 -597.582031 C 433.046875 -614.847656 428.058594 -631.058594 419.601562 -646.210938 C 412.523438 -658.898438 403.585938 -669.765625 392.792969 -678.816406 C 381.089844 -688.628906 367.828125 -695.90625 353.011719 -700.644531 C 337.78125 -705.511719 322.3125 -707.257812 306.597656 -705.875 C 290.882812 -704.496094 275.953125 -700.082031 261.808594 -692.632812 C 248.042969 -685.382812 236.253906 -675.90625 226.4375 -664.203125 C 217.390625 -653.410156 210.484375 -641.152344 205.726562 -627.421875 C 200.039062 -611.027344 197.953125 -594.195312 199.472656 -576.929688 L 196.070312 -615.660156 C 190.988281 -673.503906 200.859375 -727.671875 225.6875 -778.167969 C 249.511719 -826.632812 283.875 -866.6875 328.777344 -898.339844 C 374.773438 -930.761719 426.230469 -949.472656 483.15625 -954.472656 C 540.683594 -959.527344 594.773438 -949.796875 645.414062 -925.285156 C 693.761719 -901.886719 733.710938 -868.648438 765.265625 -825.5625 C 798.515625 -780.167969 817.679688 -728.550781 822.761719 -670.707031 L 859.996094 -246.832031 C 865.046875 -189.304688 855.320312 -135.21875 830.808594 -84.574219 C 807.273438 -35.949219 773.617188 4.1875 729.839844 35.839844 C 684.246094 68.804688 632.683594 87.8125 575.15625 92.867188 Z M 550.347656 -189.5625 C 555.929688 -190.054688 560.390625 -191.503906 563.726562 -193.917969 C 568.878906 -197.640625 572.839844 -202.367188 575.613281 -208.089844 C 577.40625 -211.792969 578.058594 -216.441406 577.566406 -222.023438 L 540.332031 -645.898438 C 539.871094 -651.171875 538.605469 -655.21875 536.539062 -658.035156 C 532.78125 -663.167969 527.902344 -667.183594 521.902344 -670.089844 C 518.195312 -671.882812 513.550781 -672.535156 507.964844 -672.042969 C 501.773438 -671.5 496.492188 -669.6875 492.125 -666.609375 C 486.660156 -662.757812 482.65625 -658.246094 480.117188 -653.078125 C 478.574219 -649.945312 478.035156 -645.738281 478.496094 -640.46875 L 481.898438 -601.738281 C 483.921875 -578.734375 481.152344 -556.332031 473.589844 -534.53125 C 466.957031 -515.398438 456.988281 -497.898438 443.6875 -482.039062 C 429.621094 -465.261719 413.027344 -451.839844 393.910156 -441.773438 C 374.410156 -431.503906 353.574219 -425.394531 331.40625 -423.449219 C 309.238281 -421.5 287.660156 -423.882812 266.667969 -430.59375 C 246.085938 -437.175781 227.40625 -447.5 210.628906 -461.566406 C 194.769531 -474.867188 181.902344 -490.359375 172.03125 -508.042969 C 160.789062 -528.191406 154.15625 -549.765625 152.136719 -572.773438 L 148.734375 -611.5 C 148.160156 -618.015625 146.757812 -622.832031 144.523438 -625.953125 C 141.53125 -630.125 137.574219 -633.371094 132.648438 -635.695312 C 128.617188 -637.59375 123.1875 -638.246094 116.363281 -637.644531 C 110.671875 -637.144531 105.75 -635.445312 101.589844 -632.539062 C 96.691406 -629.117188 93.019531 -624.917969 90.574219 -619.945312 C 89.03125 -616.808594 88.523438 -612.246094 89.050781 -606.257812 L 126.28125 -182.382812 C 126.835938 -176.082031 128.320312 -171.261719 130.730469 -167.925781 C 133.976562 -163.4375 138.167969 -160 143.308594 -157.617188 C 147.910156 -155.480469 153.054688 -154.664062 158.746094 -155.164062 C 165.570312 -155.761719 170.800781 -157.351562 174.4375 -159.925781 C 178.632812 -162.890625 181.824219 -166.699219 184.015625 -171.34375 C 185.914062 -175.375 186.566406 -180.804688 185.964844 -187.628906 L 182.753906 -224.203125 C 180.804688 -246.375 183.1875 -267.953125 189.902344 -288.945312 C 196.480469 -309.527344 206.804688 -328.207031 220.871094 -344.980469 C 234.9375 -361.757812 251.53125 -375.179688 270.648438 -385.246094 C 290.148438 -395.515625 310.984375 -401.625 333.152344 -403.570312 C 355.320312 -405.519531 376.902344 -403.136719 397.890625 -396.421875 C 418.472656 -389.84375 437.152344 -379.519531 453.929688 -365.453125 C 470.703125 -351.386719 484.125 -334.792969 494.195312 -315.675781 C 504.460938 -296.175781 510.570312 -275.339844 512.519531 -253.171875 L 515.730469 -216.59375 C 516.222656 -211.007812 517.671875 -206.546875 520.085938 -203.210938 C 523.457031 -198.546875 528.027344 -194.863281 533.800781 -192.152344 C 538.640625 -189.882812 544.15625 -189.019531 550.347656 -189.5625 Z M 550.347656 -189.5625 "/></g></g></g><g fill="#ffef42" fill-opacity="1"><g transform="translate(1714.934319, 944.181941)"><g><path d="M 34.582031 112.601562 C -16.652344 89.144531 -58.339844 54.996094 -90.484375 10.160156 C -122.460938 -34.445312 -141.40625 -83.996094 -147.320312 -138.488281 C -153.304688 -193.621094 -144.972656 -246.652344 -122.324219 -297.589844 L 71.234375 -735.175781 C 97.179688 -794.441406 136.429688 -840.429688 188.976562 -873.144531 C 238.0625 -903.703125 291.21875 -919.988281 348.449219 -922.003906 C 406.328125 -924.042969 460.859375 -911.109375 512.035156 -883.195312 C 566.222656 -853.644531 608.269531 -809.4375 638.171875 -750.578125 L 854.960938 -321.179688 C 881.148438 -271.847656 892.179688 -218.667969 888.058594 -161.636719 C 884.1875 -108.03125 867.929688 -58.59375 839.289062 -13.3125 C 809.367188 33.992188 768.511719 70.710938 716.730469 96.847656 C 665.671875 121.921875 612.558594 132.828125 557.398438 129.558594 C 501.925781 126.273438 451.210938 109.546875 405.242188 79.378906 C 359.65625 49.460938 324 9.628906 298.269531 -40.113281 L 196.207031 -242.257812 L 193.277344 -250.390625 C 199.527344 -233.035156 208.921875 -217.535156 221.457031 -203.882812 C 236.488281 -187.515625 254.410156 -175.453125 275.230469 -167.699219 C 302.957031 -157.371094 330.835938 -156.070312 358.867188 -163.796875 C 375.851562 -168.480469 391.398438 -176.210938 405.496094 -186.992188 C 423.316406 -200.617188 437.003906 -217.585938 446.554688 -237.890625 C 454.480469 -254.734375 458.796875 -272.398438 459.507812 -290.878906 C 459.953125 -302.496094 458.921875 -313.878906 456.414062 -325.03125 L 318.113281 -293.902344 L 455.085938 -330.421875 L 499.828125 -162.59375 L 449.554688 -46.425781 C 425.292969 6.617188 390.746094 49.207031 345.90625 81.351562 C 301.300781 113.324219 251.75 132.269531 197.257812 138.1875 C 143.105469 144.0625 90.199219 136.117188 38.539062 114.339844 L 36.546875 113.503906 Z M 152.605469 -145.179688 L 93.59375 -16.289062 L 148.648438 -146.917969 C 155.1875 -144.160156 161.195312 -143.082031 166.664062 -143.675781 C 171.789062 -144.230469 176.476562 -146.03125 180.722656 -149.074219 C 184.738281 -151.953125 187.617188 -155.269531 189.359375 -159.027344 L 220.066406 -229.984375 L 350.164062 -173.679688 L 213.191406 -137.164062 L 180.425781 -260.070312 L 179.816406 -262.777344 C 172.292969 -296.203125 175.6875 -328.132812 190.003906 -358.566406 C 200.070312 -379.964844 214.5 -397.847656 233.292969 -412.21875 C 248.363281 -423.742188 265.109375 -432.042969 283.527344 -437.121094 C 314.417969 -445.636719 344.636719 -444.390625 374.183594 -433.386719 C 395.910156 -425.292969 414.609375 -412.710938 430.289062 -395.640625 C 443.472656 -381.285156 453.382812 -364.894531 460.015625 -346.46875 L 326.648438 -298.429688 L 453.191406 -362.320312 L 550.097656 -170.363281 C 553.066406 -164.621094 556.636719 -160.382812 560.804688 -157.644531 C 564.597656 -155.15625 569.046875 -153.761719 574.160156 -153.460938 C 579.578125 -153.140625 584.519531 -154.070312 588.980469 -156.253906 C 594.121094 -158.851562 597.691406 -161.722656 599.6875 -164.878906 C 602.960938 -170.058594 604.828125 -175.785156 605.28125 -182.0625 C 605.488281 -184.910156 604.351562 -188.691406 601.871094 -193.40625 L 385.410156 -622.15625 C 382.058594 -628.757812 379.015625 -632.804688 376.285156 -634.292969 C 370.542969 -637.425781 364.589844 -638.882812 358.429688 -638.664062 C 351.613281 -638.425781 345.078125 -636.355469 338.8125 -632.457031 C 336.015625 -630.714844 333.25 -626.726562 330.519531 -620.484375 L 136.738281 -182.398438 C 134.785156 -178.011719 134.054688 -173.570312 134.539062 -169.082031 C 135.097656 -163.957031 136.898438 -159.269531 139.941406 -155.023438 C 142.820312 -151.007812 147.042969 -147.726562 152.605469 -145.179688 Z M 152.605469 -145.179688 "/></g></g></g><g fill="#ffef42" fill-opacity="1"><g transform="translate(2312.253248, 926.498591)"><g><path d="M 529.675781 -895.832031 C 588.335938 -894.398438 641.691406 -878.382812 689.742188 -847.792969 C 735.816406 -818.460938 772.085938 -780.015625 798.554688 -732.453125 C 825.914062 -683.289062 838.894531 -629.992188 837.488281 -572.566406 C 836.09375 -515.765625 820.675781 -463.8125 791.226562 -416.703125 C 763.179688 -371.832031 726.171875 -335.921875 680.203125 -308.96875 C 631.050781 -280.148438 576.828125 -266.464844 517.539062 -267.917969 L 521.007812 -409.632812 L 662.738281 -406.769531 L 657.65625 -155.1875 C 656.238281 -97.144531 640.375 -44.007812 610.070312 4.230469 C 580.960938 50.5625 542.769531 87.199219 495.5 114.136719 C 446.007812 142.339844 392.292969 155.730469 334.351562 154.308594 C 276.820312 152.902344 224.121094 136.753906 176.253906 105.867188 C 130.628906 76.425781 94.648438 37.714844 68.320312 -10.265625 C 41.246094 -59.601562 28.40625 -112.828125 29.808594 -169.957031 L 35.96875 -421.511719 L 177.683594 -418.042969 L 174.210938 -276.324219 C 115.960938 -277.753906 62.902344 -293.910156 15.035156 -324.796875 C -30.261719 -354.023438 -65.894531 -391.867188 -91.863281 -438.332031 C -118.972656 -486.824219 -131.828125 -539.472656 -130.4375 -596.273438 C -129.042969 -653.183594 -113.90625 -705.371094 -85.027344 -752.839844 C -56.722656 -799.363281 -18.96875 -836.265625 28.230469 -863.542969 C 77.550781 -892.050781 131.335938 -905.589844 189.589844 -904.164062 Z M 522.734375 -612.402344 L 182.648438 -620.730469 C 177.5625 -620.855469 173.378906 -619.972656 170.101562 -618.078125 C 164.703125 -614.957031 160.394531 -610.757812 157.183594 -605.476562 C 154.546875 -601.144531 153.152344 -595.761719 152.992188 -589.332031 C 152.867188 -584.234375 153.742188 -580.011719 155.613281 -576.660156 C 158.621094 -571.28125 163 -566.734375 168.753906 -563.023438 C 171.933594 -560.96875 176.066406 -559.882812 181.15625 -559.757812 L 322.871094 -556.285156 L 313.238281 -163.015625 C 313.085938 -156.800781 314.296875 -151.351562 316.867188 -146.664062 C 320.179688 -140.625 324.550781 -135.859375 329.972656 -132.359375 C 333.152344 -130.308594 336.925781 -129.226562 341.292969 -129.121094 C 346.691406 -128.988281 351.304688 -130.011719 355.132812 -132.191406 C 361.175781 -135.636719 366.132812 -140.4375 370 -146.589844 C 372.667969 -150.839844 374.070312 -155.613281 374.199219 -160.914062 L 382.15625 -554.832031 L 524.480469 -551.347656 C 529.96875 -551.214844 534.074219 -551.945312 536.800781 -553.542969 C 542.710938 -557.007812 547.382812 -561.488281 550.816406 -566.980469 C 552.851562 -570.234375 553.929688 -574.410156 554.054688 -579.507812 C 554.199219 -585.421875 553.121094 -590.445312 550.820312 -594.582031 C 547.625 -600.320312 543.179688 -605.003906 537.484375 -608.628906 C 533.769531 -610.996094 528.851562 -612.253906 522.734375 -612.402344 Z M 522.734375 -612.402344 "/></g></g></g><g fill="#ffef42" fill-opacity="1"><g transform="translate(2977.567732, 946.290246)"><g/></g></g><g fill="#ffef42" fill-opacity="1"><g transform="translate(3229.423915, 962.156005)"><g/></g></g><g fill="#ffef42" fill-opacity="1"><g transform="translate(3480.865412, 983.528036)"><g/></g></g><g fill="#ffef42" fill-opacity="1"><g transform="translate(3727.266207, 1004.492568)"><g><path d="M 462.484375 -757.320312 C 508.851562 -792.671875 559.695312 -813.398438 615.015625 -819.503906 C 669.078125 -825.472656 721.25 -817.632812 771.527344 -795.984375 C 823.878906 -773.441406 866.734375 -737.957031 900.09375 -689.53125 L 783.359375 -609.109375 L 897.441406 -693.253906 C 931.285156 -647.371094 950.742188 -596.117188 955.816406 -539.488281 C 960.597656 -486.125 952.820312 -434.847656 932.488281 -385.660156 C 911.582031 -335.085938 879.039062 -292.375 834.851562 -257.53125 L 663.574219 -128.269531 L 578.199219 -241.433594 L 718.367188 -220.265625 L 695.789062 -70.765625 C 687.164062 -13.664062 664.984375 36.617188 629.246094 80.070312 C 594.738281 122.027344 552.140625 153.203125 501.453125 173.589844 C 449.253906 194.589844 394.753906 200.796875 337.953125 192.21875 C 281.867188 183.75 231.988281 161.777344 188.316406 126.300781 C 145.910156 91.851562 114.414062 49.488281 93.835938 -0.789062 C 72.527344 -52.859375 66.183594 -107.445312 74.804688 -164.546875 L 97.382812 -314.046875 L 237.554688 -292.878906 L 122.566406 -209.976562 L -1.152344 -381.570312 C -34.242188 -429.5625 -53.308594 -480.804688 -58.34375 -535.296875 C -63.242188 -588.296875 -55.53125 -639.582031 -35.207031 -689.152344 C -13.636719 -741.757812 20.089844 -784.980469 65.972656 -818.824219 L 150.121094 -704.742188 L 62.339844 -816.050781 C 108.386719 -852.367188 159.488281 -873.621094 215.636719 -879.820312 C 270.015625 -885.820312 322.105469 -877.917969 371.898438 -856.101562 C 423.171875 -833.640625 465.402344 -798.328125 498.582031 -750.171875 L 381.84375 -669.746094 L 496.453125 -753.171875 L 567.914062 -655.003906 L 453.304688 -571.578125 L 366.992188 -684.03125 L 462.121094 -757.042969 Z M 634.738281 -532.132812 L 424.265625 -370.59375 L 266.152344 -587.808594 L 265.109375 -589.324219 C 262.453125 -593.175781 260.128906 -595.539062 258.136719 -596.414062 C 254.660156 -597.9375 250.859375 -598.46875 246.742188 -598.015625 C 244.394531 -597.757812 241.445312 -596.226562 237.898438 -593.433594 L 236.105469 -592.015625 L 234.265625 -590.660156 C 230.984375 -588.238281 228.601562 -585.21875 227.117188 -581.59375 C 224.386719 -574.941406 223.339844 -568.207031 223.96875 -561.394531 C 224.460938 -556.070312 226.078125 -551.398438 228.820312 -547.378906 L 386.355469 -328.882812 L 355.144531 -122.210938 C 354.304688 -116.667969 354.667969 -111.992188 356.226562 -108.179688 C 358.519531 -102.578125 362.136719 -97.769531 367.074219 -93.757812 C 370.75 -90.773438 375.15625 -88.894531 380.289062 -88.117188 C 386.136719 -87.234375 391.257812 -87.675781 395.652344 -89.441406 C 401.554688 -91.816406 406.429688 -95.34375 410.273438 -100.019531 C 412.890625 -103.199219 414.617188 -107.558594 415.453125 -113.105469 L 446.664062 -319.777344 L 659.292969 -480.152344 C 664.703125 -484.417969 668.429688 -489.023438 670.472656 -493.960938 C 673.085938 -500.285156 674.070312 -507.027344 673.429688 -514.191406 C 673.082031 -518.09375 671.695312 -521.683594 669.277344 -524.964844 L 667.917969 -526.804688 L 666.621094 -528.683594 C 664.152344 -532.273438 661.742188 -534.570312 659.398438 -535.582031 C 654.980469 -537.484375 650.554688 -538.191406 646.121094 -537.699219 C 642.941406 -537.351562 639.027344 -535.402344 634.375 -531.855469 Z M 634.738281 -532.132812 "/></g></g></g><g fill="#d4005f" fill-opacity="1"><g transform="translate(283.541133, 1117.314428)"><g><path d="M 412.640625 -839.015625 C 446.097656 -844.078125 477.617188 -840.285156 507.203125 -827.640625 C 536.785156 -815.003906 561.859375 -796.046875 582.421875 -770.765625 C 602.992188 -745.484375 615.707031 -716.828125 620.5625 -684.796875 C 625.625 -651.335938 622.039062 -619.660156 609.8125 -589.765625 C 597.59375 -559.878906 579.164062 -534.878906 554.53125 -514.765625 C 529.90625 -494.660156 500.863281 -482.078125 467.40625 -477.015625 C 441.0625 -473.035156 416.769531 -473.550781 394.53125 -478.5625 C 372.289062 -483.582031 352.984375 -484.851562 336.609375 -482.375 C 325.222656 -480.65625 316.054688 -475.078125 309.109375 -465.640625 C 302.160156 -456.210938 299.546875 -445.804688 301.265625 -434.421875 C 302.890625 -423.742188 308.359375 -415.285156 317.671875 -409.046875 C 326.992188 -402.816406 337.347656 -400.5625 348.734375 -402.28125 C 365.109375 -404.757812 383.175781 -411.675781 402.9375 -423.03125 C 422.695312 -434.394531 445.75 -442.066406 472.09375 -446.046875 C 505.550781 -451.109375 537.097656 -447.144531 566.734375 -434.15625 C 596.367188 -421.164062 621.5 -401.847656 642.125 -376.203125 C 662.75 -350.566406 675.59375 -321.019531 680.65625 -287.5625 C 685.5 -255.53125 681.804688 -224.570312 669.578125 -194.6875 C 657.359375 -164.800781 638.988281 -139.445312 614.46875 -118.625 C 589.945312 -97.800781 560.957031 -84.859375 527.5 -79.796875 L 372.65625 -56.375 C 321.40625 -48.625 271.820312 -51.5 223.90625 -65 C 175.988281 -78.507812 132.070312 -100.445312 92.15625 -130.8125 C 52.25 -161.1875 19.238281 -197.695312 -6.875 -240.34375 C -32.988281 -283 -49.867188 -329.597656 -57.515625 -380.140625 C -65.484375 -432.816406 -63.125 -483.414062 -50.4375 -531.9375 C -37.757812 -580.46875 -16.59375 -624.628906 13.0625 -664.421875 C 42.726562 -704.222656 78.859375 -737.359375 121.453125 -763.828125 C 164.046875 -790.296875 211.273438 -807.820312 263.140625 -816.40625 Z M 412.640625 -839.015625 "/></g></g></g><g fill="#d4005f" fill-opacity="1"><g transform="translate(985.924988, 1009.508382)"><g><path d="M 562.75 -48.34375 C 531.195312 -45.570312 501.472656 -50.726562 473.578125 -63.8125 C 445.679688 -76.90625 422.890625 -95.679688 405.203125 -120.140625 C 387.523438 -144.609375 377.296875 -172.625 374.515625 -204.1875 L 371.3125 -240.765625 C 370.738281 -247.222656 367.914062 -252.578125 362.84375 -256.828125 C 357.769531 -261.078125 352.007812 -262.914062 345.5625 -262.34375 C 339.101562 -261.78125 333.742188 -258.960938 329.484375 -253.890625 C 325.234375 -248.828125 323.394531 -243.066406 323.96875 -236.609375 L 327.171875 -200.03125 C 330.015625 -167.75 325.039062 -138.035156 312.25 -110.890625 C 299.457031 -83.753906 280.8125 -61.519531 256.3125 -44.1875 C 231.8125 -26.863281 203.425781 -16.785156 171.15625 -13.953125 C 140.3125 -11.242188 111.140625 -16.269531 83.640625 -29.03125 C 56.140625 -41.789062 33.546875 -60.398438 15.859375 -84.859375 C -1.828125 -109.328125 -12.09375 -137.703125 -14.9375 -169.984375 L -52.15625 -593.84375 C -54.988281 -626.113281 -49.8125 -655.65625 -36.625 -682.46875 C -23.445312 -709.289062 -4.429688 -731.382812 20.421875 -748.75 C 45.273438 -766.113281 73.125 -776.148438 103.96875 -778.859375 C 136.238281 -781.691406 165.945312 -776.707031 193.09375 -763.90625 C 220.238281 -751.113281 242.457031 -732.644531 259.75 -708.5 C 277.050781 -684.363281 287.117188 -656.160156 289.953125 -623.890625 L 293.359375 -585.171875 C 293.859375 -579.429688 296.644531 -574.429688 301.71875 -570.171875 C 306.789062 -565.921875 312.554688 -564.078125 319.015625 -564.640625 C 325.460938 -565.210938 330.8125 -568.035156 335.0625 -573.109375 C 339.320312 -578.179688 341.203125 -583.585938 340.703125 -589.328125 L 337.296875 -628.046875 C 334.523438 -659.609375 339.726562 -688.796875 352.90625 -715.609375 C 366.082031 -742.429688 385.265625 -764.71875 410.453125 -782.46875 C 435.640625 -800.21875 464.007812 -810.476562 495.5625 -813.25 C 527.113281 -816.019531 556.472656 -810.828125 583.640625 -797.671875 C 610.816406 -784.523438 633.234375 -765.894531 650.890625 -741.78125 C 668.554688 -717.675781 678.773438 -689.84375 681.546875 -658.28125 L 718.765625 -234.421875 C 721.546875 -202.859375 716.359375 -173.488281 703.203125 -146.3125 C 690.046875 -119.144531 671.234375 -96.71875 646.765625 -79.03125 C 622.304688 -61.34375 594.300781 -51.113281 562.75 -48.34375 Z M 562.75 -48.34375 "/></g></g></g><g fill="#d4005f" fill-opacity="1"><g transform="translate(1714.934319, 944.181941)"><g><path d="M 93.578125 -16.296875 C 65.191406 -29.296875 42.242188 -48.007812 24.734375 -72.4375 C 7.222656 -96.863281 -3.148438 -123.976562 -6.390625 -153.78125 C -9.628906 -183.59375 -5.097656 -212.332031 7.203125 -240 L 200.890625 -677.84375 C 215.222656 -710.59375 236.222656 -735.578125 263.890625 -752.796875 C 291.566406 -770.023438 321.414062 -779.203125 353.4375 -780.328125 C 385.457031 -781.460938 415.695312 -774.269531 444.15625 -758.75 C 472.625 -743.226562 495.171875 -719.097656 511.796875 -686.359375 L 728.40625 -257.296875 C 742.738281 -230.265625 748.828125 -201.78125 746.671875 -171.84375 C 744.515625 -141.90625 735.453125 -114.320312 719.484375 -89.09375 C 703.523438 -63.863281 681.3125 -44.066406 652.84375 -29.703125 C 625.09375 -16.066406 596.070312 -10.144531 565.78125 -11.9375 C 535.488281 -13.738281 507.90625 -22.800781 483.03125 -39.125 C 458.15625 -55.457031 438.539062 -77.488281 424.1875 -105.21875 L 326.640625 -298.4375 C 325.867188 -300.570312 324.050781 -301.242188 321.1875 -300.453125 C 318.332031 -299.671875 317.3125 -297.488281 318.125 -293.90625 L 350.171875 -173.671875 L 319.453125 -102.71875 C 306.453125 -74.320312 287.738281 -51.367188 263.3125 -33.859375 C 238.894531 -16.347656 211.773438 -5.972656 181.953125 -2.734375 C 152.140625 0.503906 122.679688 -4.015625 93.578125 -16.296875 Z M 93.578125 -16.296875 "/></g></g></g><g fill="#d4005f" fill-opacity="1"><g transform="translate(2312.253248, 926.498591)"><g><path d="M 526.1875 -754.125 C 558.582031 -753.332031 587.722656 -744.695312 613.609375 -728.21875 C 639.492188 -711.738281 659.847656 -690.171875 674.671875 -663.515625 C 689.503906 -636.867188 696.535156 -607.710938 695.765625 -576.046875 C 695.003906 -545.097656 686.753906 -517.03125 671.015625 -491.84375 C 655.273438 -466.664062 634.429688 -446.472656 608.484375 -431.265625 C 582.546875 -416.054688 553.382812 -408.847656 521 -409.640625 L 515.921875 -158.0625 C 515.148438 -126.382812 506.519531 -97.425781 490.03125 -71.1875 C 473.550781 -44.945312 451.976562 -24.226562 425.3125 -9.03125 C 398.644531 6.15625 369.476562 13.359375 337.8125 12.578125 C 306.863281 11.828125 278.628906 3.21875 253.109375 -13.25 C 227.585938 -29.71875 207.414062 -51.457031 192.59375 -78.46875 C 177.769531 -105.476562 170.742188 -134.820312 171.515625 -166.5 L 177.671875 -418.046875 C 146.003906 -418.816406 117.410156 -427.4375 91.890625 -443.90625 C 66.367188 -460.375 46.363281 -481.566406 31.875 -507.484375 C 17.382812 -533.410156 10.519531 -561.847656 11.28125 -592.796875 C 12.050781 -624.460938 20.316406 -653.25 36.078125 -679.15625 C 51.835938 -705.0625 72.863281 -725.613281 99.15625 -740.8125 C 125.457031 -756.007812 154.441406 -763.222656 186.109375 -762.453125 Z M 526.1875 -754.125 "/></g></g></g><g fill="#d4005f" fill-opacity="1"><g transform="translate(2977.567732, 946.290246)"><g/></g></g><g fill="#d4005f" fill-opacity="1"><g transform="translate(3229.423915, 962.156005)"><g/></g></g><g fill="#d4005f" fill-opacity="1"><g transform="translate(3480.865412, 983.528036)"><g/></g></g><g fill="#d4005f" fill-opacity="1"><g transform="translate(3727.266207, 1004.492568)"><g><path d="M 548.4375 -644.59375 C 573.9375 -664.039062 601.3125 -675.378906 630.5625 -678.609375 C 659.820312 -681.835938 688.125 -677.5625 715.46875 -665.78125 C 742.8125 -654.007812 765.441406 -635.125 783.359375 -609.125 C 801.484375 -584.53125 811.90625 -557.101562 814.625 -526.84375 C 817.34375 -496.582031 812.960938 -467.570312 801.484375 -439.8125 C 790.003906 -412.050781 771.863281 -388.394531 747.0625 -368.84375 L 578.21875 -241.453125 L 555.640625 -91.9375 C 550.910156 -60.613281 538.953125 -33.289062 519.765625 -9.96875 C 500.578125 13.34375 476.835938 30.691406 448.546875 42.078125 C 420.253906 53.460938 390.453125 56.789062 359.140625 52.0625 C 328.523438 47.4375 301.375 35.507812 277.6875 16.28125 C 254.007812 -2.945312 236.457031 -26.53125 225.03125 -54.46875 C 213.601562 -82.414062 210.253906 -112.050781 214.984375 -143.375 L 237.5625 -292.890625 L 113.828125 -464.46875 C 95.910156 -490.476562 85.570312 -518.4375 82.8125 -548.34375 C 80.050781 -578.25 84.429688 -607.257812 95.953125 -635.375 C 107.472656 -663.488281 125.53125 -686.613281 150.125 -704.75 C 174.914062 -724.300781 201.9375 -735.691406 231.1875 -738.921875 C 260.4375 -742.148438 288.378906 -737.925781 315.015625 -726.25 C 341.648438 -714.582031 363.925781 -695.753906 381.84375 -669.765625 L 453.3125 -571.578125 Z M 548.4375 -644.59375 "/></g></g></g></g></g><g transform="matrix(1, 0, 0, 1, 2944, 167)"><g clip-path="url(#89e8d12d6e)"><g fill="#ffef42" fill-opacity="1"><g transform="translate(467.425514, 1156.712353)"><g><path d="M 164.964844 -1027.550781 C 220.078125 -1047.6875 275.589844 -1052.320312 331.507812 -1041.441406 C 385.117188 -1031.011719 432.945312 -1008.511719 474.988281 -973.941406 C 518.445312 -938.207031 550.03125 -893.363281 569.746094 -839.40625 C 589.246094 -786.039062 593.917969 -732.046875 583.757812 -677.425781 C 574.082031 -625.40625 552.789062 -578.4375 519.878906 -536.527344 C 484.6875 -491.714844 439.242188 -459.132812 383.535156 -438.78125 L 334.886719 -571.929688 L 467.824219 -621.148438 L 555.195312 -385.167969 C 575.121094 -330.636719 579.8125 -275.378906 569.269531 -219.398438 C 559.144531 -165.625 537.015625 -117.550781 502.886719 -75.179688 C 467.15625 -30.816406 422.070312 1.308594 367.632812 21.199219 C 313.578125 40.949219 258.625 45.214844 202.773438 33.996094 C 149.539062 23.300781 101.886719 0.449219 59.816406 -34.5625 C 16.5625 -70.5625 -14.867188 -115.398438 -34.480469 -169.070312 L -120.835938 -405.417969 L 12.3125 -454.070312 L 60.960938 -320.921875 C 6.230469 -300.921875 -49.058594 -296.535156 -104.910156 -307.753906 C -157.761719 -318.371094 -204.773438 -340.542969 -245.949219 -374.273438 C -288.929688 -409.476562 -320.167969 -453.765625 -339.664062 -507.132812 C -359.203125 -560.601562 -364.21875 -614.707031 -354.722656 -669.453125 C -345.414062 -723.109375 -323.789062 -771.269531 -289.855469 -813.933594 C -254.394531 -858.515625 -209.296875 -890.808594 -154.566406 -910.804688 Z M 262.261719 -761.253906 L -57.265625 -644.507812 C -62.046875 -642.761719 -65.613281 -640.40625 -67.972656 -637.445312 C -71.855469 -632.5625 -74.324219 -627.078125 -75.378906 -620.988281 C -76.246094 -615.992188 -75.578125 -610.472656 -73.367188 -604.429688 C -71.617188 -599.640625 -69.257812 -596.03125 -66.292969 -593.597656 C -61.523438 -589.691406 -55.78125 -587.0625 -49.070312 -585.714844 C -45.359375 -584.972656 -41.113281 -585.472656 -36.335938 -587.21875 L 96.8125 -635.867188 L 231.816406 -266.367188 C 233.949219 -260.53125 237.070312 -255.902344 241.179688 -252.480469 C 246.476562 -248.078125 252.285156 -245.238281 258.613281 -243.96875 C 262.324219 -243.222656 266.230469 -243.597656 270.332031 -245.097656 C 275.40625 -246.949219 279.324219 -249.59375 282.085938 -253.023438 C 286.453125 -258.441406 289.304688 -264.722656 290.652344 -271.863281 C 291.578125 -276.796875 291.136719 -281.75 289.316406 -286.730469 L 152.515625 -656.21875 L 286.238281 -705.078125 C 291.394531 -706.960938 294.945312 -709.144531 296.898438 -711.632812 C 301.128906 -717.019531 303.835938 -722.898438 305.023438 -729.265625 C 305.722656 -733.039062 305.199219 -737.320312 303.449219 -742.109375 C 301.417969 -747.664062 298.578125 -751.945312 294.917969 -754.953125 C 289.847656 -759.125 283.996094 -761.855469 277.371094 -763.144531 C 273.046875 -763.984375 268.011719 -763.355469 262.261719 -761.253906 Z M 262.261719 -761.253906 "/></g></g></g><g fill="#d4005f" fill-opacity="1"><g transform="translate(467.425514, 1156.712353)"><g><path d="M 213.609375 -894.390625 C 244.046875 -905.503906 274.320312 -908.132812 304.4375 -902.28125 C 334.550781 -896.425781 361.382812 -883.8125 384.9375 -864.4375 C 408.5 -845.0625 425.71875 -820.5 436.59375 -790.75 C 447.21875 -761.664062 449.8125 -732.523438 444.375 -703.328125 C 438.945312 -674.128906 426.945312 -647.707031 408.375 -624.0625 C 389.8125 -600.414062 365.316406 -583.03125 334.890625 -571.90625 L 422.25 -335.953125 C 433.125 -306.179688 435.691406 -276.066406 429.953125 -245.609375 C 424.222656 -215.160156 411.734375 -187.988281 392.484375 -164.09375 C 373.234375 -140.207031 348.734375 -122.828125 318.984375 -111.953125 C 289.898438 -101.328125 260.46875 -99.003906 230.6875 -104.984375 C 200.90625 -110.960938 174.171875 -123.800781 150.484375 -143.5 C 126.804688 -163.207031 109.53125 -187.945312 98.65625 -217.71875 L 12.3125 -454.046875 C -17.4375 -443.179688 -47.203125 -440.738281 -76.984375 -446.71875 C -106.765625 -452.707031 -133.140625 -465.109375 -156.109375 -483.921875 C -179.078125 -502.742188 -195.875 -526.695312 -206.5 -555.78125 C -217.375 -585.53125 -220.21875 -615.34375 -215.03125 -645.21875 C -209.851562 -675.09375 -197.8125 -701.914062 -178.90625 -725.6875 C -160 -749.457031 -135.671875 -766.773438 -105.921875 -777.640625 Z M 213.609375 -894.390625 "/></g></g></g></g></g></svg>