<svg xmlns="http://www.w3.org/2000/svg" xmlns:xlink="http://www.w3.org/1999/xlink" width="6912" zoomAndPan="magnify" viewBox="0 0 5184 2592.000001" height="3456" preserveAspectRatio="xMidYMid meet" version="1.0"><defs><g/><clipPath id="2c0fdb207b"><path d="M 14 19 L 1505 19 L 1505 1506 L 14 1506 Z M 14 19 " clip-rule="nonzero"/></clipPath><clipPath id="fa52e9f2fe"><rect x="0" width="1505" y="0" height="1584"/></clipPath><clipPath id="5158b80375"><rect x="0" width="1449" y="0" height="1538"/></clipPath><clipPath id="8c0ba1463a"><rect x="0" width="1321" y="0" height="1162"/></clipPath><clipPath id="45642a33a5"><rect x="0" width="1241" y="0" height="1400"/></clipPath><clipPath id="63ed83945c"><rect x="0" width="1548" y="0" height="1606"/></clipPath><clipPath id="5c515b9bde"><rect x="0" width="1652" y="0" height="1666"/></clipPath></defs><g transform="matrix(1, 0, 0, 1, 3678, 776)"><g clip-path="url(#fa52e9f2fe)"><g clip-path="url(#2c0fdb207b)"><g fill="#ffef42" fill-opacity="1"><g transform="translate(922.991469, 1291.321365)"><g><path d="M -553.410156 -733.089844 C -569.828125 -791.167969 -570.460938 -848 -555.320312 -903.582031 C -540.519531 -957.902344 -513.144531 -1005.15625 -473.195312 -1045.335938 C -431.59375 -1087.171875 -381.144531 -1114.953125 -321.84375 -1128.671875 L -288.769531 -985.710938 L -326.433594 -1127.53125 C -269.394531 -1142.679688 -212.652344 -1141.933594 -156.199219 -1125.300781 C -103.003906 -1109.625 -56.589844 -1082.648438 -16.957031 -1044.378906 C 23.792969 -1005.03125 52.546875 -957.46875 69.304688 -901.683594 L 128.671875 -687.652344 L -12.730469 -648.453125 L 60.917969 -775.367188 L 196.28125 -696.816406 C 247.984375 -666.8125 287.964844 -626.347656 316.222656 -575.425781 C 343.507812 -526.257812 357.332031 -473.394531 357.703125 -416.84375 C 358.082031 -358.605469 343.347656 -303.769531 313.503906 -252.34375 C 284.03125 -201.558594 243.921875 -161.882812 193.167969 -133.316406 C 143.886719 -105.578125 91.128906 -91.355469 34.902344 -90.648438 C -23.332031 -89.917969 -78.300781 -104.554688 -130.003906 -134.558594 L -265.367188 -213.109375 L -191.714844 -340.023438 L -155.589844 -197.804688 L -367.820312 -143.894531 C -426.605469 -130.273438 -483.1875 -131.390625 -537.566406 -147.25 C -590.460938 -162.671875 -636.910156 -189.589844 -676.914062 -227.996094 C -719.363281 -268.753906 -748.164062 -317.652344 -763.3125 -374.691406 L -621.492188 -412.355469 L -762.023438 -370.140625 C -779.488281 -428.277344 -780.535156 -485.554688 -765.164062 -541.972656 C -750.277344 -596.609375 -722.871094 -643.757812 -682.949219 -683.410156 C -641.832031 -724.246094 -591.789062 -751.484375 -532.808594 -765.125 L -499.738281 -622.167969 L -536.507812 -764.21875 L -414.832031 -795.714844 L -378.0625 -653.664062 L -519.136719 -613.296875 L -553.28125 -732.632812 Z M -271.136719 -813.367188 L -195.585938 -549.328125 L -464.8125 -479.636719 L -466.667969 -479.207031 C -471.386719 -478.117188 -474.542969 -476.777344 -476.140625 -475.1875 C -478.929688 -472.421875 -480.886719 -468.964844 -482.015625 -464.828125 C -482.660156 -462.46875 -482.308594 -459.050781 -480.964844 -454.574219 L -480.28125 -452.308594 L -479.675781 -450.019531 C -478.589844 -445.941406 -476.589844 -442.5 -473.664062 -439.691406 C -468.292969 -434.535156 -462.210938 -430.964844 -455.410156 -428.984375 C -450.097656 -427.433594 -444.984375 -427.21875 -440.074219 -428.332031 L -169.832031 -496.976562 L 17.292969 -388.382812 C 22.3125 -385.472656 26.953125 -384.042969 31.214844 -384.09375 C 37.480469 -384.171875 43.484375 -385.828125 49.222656 -389.058594 C 53.496094 -391.460938 56.980469 -394.988281 59.675781 -399.640625 C 62.75 -404.933594 64.269531 -410.03125 64.238281 -414.933594 C 64.195312 -421.519531 62.652344 -427.550781 59.613281 -433.03125 C 57.546875 -436.757812 54 -440.078125 48.984375 -442.988281 L -138.144531 -551.582031 L -211.753906 -817.25 C -213.808594 -824.082031 -216.824219 -829.421875 -220.804688 -833.261719 C -225.898438 -838.183594 -232.015625 -841.695312 -239.15625 -843.800781 C -243.046875 -844.945312 -247.027344 -844.976562 -251.105469 -843.894531 L -253.394531 -843.285156 L -255.699219 -842.753906 C -260.09375 -841.734375 -263.222656 -840.292969 -265.082031 -838.417969 C -268.59375 -834.886719 -270.957031 -830.894531 -272.171875 -826.4375 C -273.039062 -823.246094 -272.652344 -818.734375 -271.007812 -812.910156 Z M -271.136719 -813.367188 "/></g></g></g></g><g fill="#d4005f" fill-opacity="1"><g transform="translate(922.991469, 1291.321365)"><g><path d="M -412.203125 -772.984375 C -421.234375 -804.941406 -421.742188 -835.613281 -413.734375 -865 C -405.734375 -894.382812 -390.867188 -920.003906 -369.140625 -941.859375 C -347.410156 -963.710938 -320.617188 -978.320312 -288.765625 -985.6875 C -258.210938 -993.8125 -227.847656 -993.425781 -197.671875 -984.53125 C -167.503906 -975.644531 -141.238281 -960.40625 -118.875 -938.8125 C -96.519531 -917.21875 -80.640625 -890.765625 -71.234375 -859.453125 L -12.734375 -648.453125 L 122.625 -569.890625 C 150.988281 -553.429688 172.75 -531.539062 187.90625 -504.21875 C 203.070312 -476.894531 210.753906 -447.445312 210.953125 -415.875 C 211.160156 -384.3125 203.035156 -354.351562 186.578125 -326 C 170.492188 -298.269531 148.695312 -276.664062 121.1875 -261.1875 C 93.6875 -245.707031 64.3125 -237.765625 33.0625 -237.359375 C 1.8125 -236.960938 -27.992188 -244.992188 -56.359375 -261.453125 L -191.71875 -340.015625 L -403.953125 -286.109375 C -435.796875 -278.734375 -466.640625 -279.398438 -496.484375 -288.109375 C -526.328125 -296.816406 -552.59375 -312.054688 -575.28125 -333.828125 C -597.96875 -355.609375 -613.367188 -381.78125 -621.484375 -412.34375 C -630.890625 -443.644531 -631.585938 -473.988281 -623.578125 -503.375 C -615.578125 -532.769531 -600.898438 -558.070312 -579.546875 -579.28125 C -558.191406 -600.488281 -531.582031 -614.78125 -499.71875 -622.15625 L -378.078125 -653.65625 Z M -412.203125 -772.984375 "/></g></g></g></g></g><g transform="matrix(1, 0, 0, 1, 803, 680)"><g clip-path="url(#5158b80375)"><g fill="#ffef42" fill-opacity="1"><g transform="translate(483.229899, 1217.31766)"><g><path d="M 599.527344 -65.136719 C 544.085938 -44.527344 487.664062 -39.164062 430.257812 -49.042969 C 373.902344 -58.746094 323.679688 -81.296875 279.589844 -116.695312 C 234.175781 -153.15625 201.054688 -199.402344 180.226562 -255.433594 L 166.984375 -291.058594 C 172.671875 -275.757812 181.175781 -262.066406 192.492188 -249.992188 C 203.503906 -238.242188 216.199219 -229.074219 230.574219 -222.492188 C 244.945312 -215.90625 260.179688 -212.285156 276.269531 -211.621094 C 292.804688 -210.941406 308.726562 -213.445312 324.027344 -219.136719 C 339.332031 -224.824219 353.023438 -233.328125 365.097656 -244.644531 C 376.847656 -255.65625 386.015625 -268.351562 392.597656 -282.726562 C 399.183594 -297.097656 402.804688 -312.332031 403.46875 -328.421875 C 404.148438 -344.957031 401.644531 -360.878906 395.953125 -376.179688 L 409.199219 -340.554688 C 430.101562 -284.332031 435.625 -227.890625 425.773438 -171.234375 C 416.042969 -115.273438 393.167969 -65.328125 357.152344 -21.402344 C 320.691406 23.066406 274.347656 55.75 218.121094 76.652344 C 163.589844 96.921875 107.964844 102.304688 51.238281 92.789062 C -4.875 83.378906 -55.066406 60.902344 -99.332031 25.363281 C -144.742188 -11.097656 -177.992188 -57.695312 -199.082031 -114.425781 L -352.558594 -527.265625 C -373.761719 -584.300781 -378.902344 -641.425781 -367.980469 -698.632812 C -357.457031 -753.765625 -334.128906 -803.097656 -297.992188 -846.632812 C -261.257812 -890.886719 -215.625 -923.152344 -161.09375 -943.425781 C -104.871094 -964.324219 -48.429688 -969.851562 8.226562 -960 C 63.875 -950.324219 113.523438 -927.8125 157.167969 -892.46875 C 201.859375 -856.277344 234.710938 -809.921875 255.722656 -753.394531 L 269.746094 -715.675781 C 263.496094 -732.492188 254.070312 -747.300781 241.472656 -760.105469 C 230.921875 -770.828125 219.019531 -779.222656 205.769531 -785.292969 C 191.394531 -791.875 176.160156 -795.5 160.070312 -796.160156 C 143.535156 -796.839844 127.613281 -794.335938 112.3125 -788.648438 C 97.007812 -782.957031 83.316406 -774.457031 71.242188 -763.136719 C 59.492188 -752.125 50.324219 -739.433594 43.742188 -725.058594 C 37.671875 -711.804688 34.144531 -697.675781 33.160156 -682.664062 C 31.984375 -664.742188 34.523438 -647.371094 40.773438 -630.554688 L 26.75 -668.273438 C 5.808594 -724.613281 0.796875 -781.386719 11.71875 -838.597656 C 22.199219 -893.507812 45.507812 -942.914062 81.632812 -986.824219 C 118.644531 -1031.804688 164.871094 -1064.601562 220.3125 -1085.214844 C 276.34375 -1106.042969 332.996094 -1111.175781 390.265625 -1100.609375 C 444.941406 -1090.519531 493.9375 -1068.304688 537.253906 -1033.964844 C 582.894531 -997.78125 616.1875 -951.523438 637.128906 -895.183594 L 790.605469 -482.34375 C 811.433594 -426.3125 816.566406 -369.660156 806 -312.390625 C 795.855469 -257.398438 773.277344 -208.105469 738.269531 -164.5 C 701.808594 -119.089844 655.5625 -85.96875 599.527344 -65.136719 Z M 497.269531 -340.214844 C 502.707031 -342.238281 506.761719 -344.910156 509.429688 -348.230469 C 513.550781 -353.363281 516.207031 -359.167969 517.402344 -365.636719 C 518.175781 -369.828125 517.550781 -374.644531 515.527344 -380.085938 L 362.054688 -792.925781 C 360.144531 -798.058594 357.773438 -801.75 354.9375 -803.996094 C 349.78125 -808.085938 343.808594 -810.757812 337.019531 -812.011719 C 332.828125 -812.785156 328.011719 -812.160156 322.574219 -810.136719 C 316.542969 -807.894531 311.769531 -804.636719 308.253906 -800.363281 C 303.855469 -795.019531 301.101562 -789.421875 299.980469 -783.566406 C 299.304688 -780.015625 299.917969 -775.671875 301.828125 -770.535156 L 315.851562 -732.8125 C 324.179688 -710.410156 327.5625 -687.289062 326 -663.457031 C 324.628906 -642.539062 319.480469 -622.339844 310.558594 -602.859375 C 301.125 -582.257812 288.246094 -564.308594 271.925781 -549.011719 C 255.28125 -533.410156 236.164062 -521.597656 214.570312 -513.570312 C 192.980469 -505.546875 170.789062 -502 147.996094 -502.941406 C 125.648438 -503.859375 104.171875 -509.039062 83.570312 -518.472656 C 64.085938 -527.398438 46.996094 -539.328125 32.292969 -554.269531 C 15.539062 -571.292969 3 -591.007812 -5.328125 -613.414062 L -19.351562 -651.136719 C -21.710938 -657.480469 -24.433594 -661.902344 -27.519531 -664.402344 C -31.652344 -667.746094 -36.492188 -669.902344 -42.046875 -670.867188 C -46.589844 -671.660156 -52.1875 -670.820312 -58.832031 -668.347656 C -64.375 -666.289062 -68.824219 -663.238281 -72.175781 -659.199219 C -76.128906 -654.4375 -78.640625 -649.238281 -79.71875 -643.605469 C -80.394531 -640.050781 -79.652344 -635.359375 -77.480469 -629.527344 L 75.992188 -216.683594 C 78.273438 -210.546875 81.078125 -206.144531 84.398438 -203.476562 C 88.871094 -199.886719 93.996094 -197.609375 99.78125 -196.636719 C 104.960938 -195.769531 110.320312 -196.363281 115.863281 -198.425781 C 122.507812 -200.894531 127.292969 -203.914062 130.21875 -207.484375 C 133.589844 -211.59375 135.730469 -216.269531 136.644531 -221.507812 C 137.433594 -226.054688 136.59375 -231.648438 134.121094 -238.296875 L 120.878906 -273.921875 C 112.851562 -295.511719 109.308594 -317.703125 110.246094 -340.496094 C 111.167969 -362.847656 116.34375 -384.320312 125.78125 -404.925781 C 135.21875 -425.527344 148.09375 -443.476562 164.414062 -458.773438 C 181.058594 -474.371094 200.175781 -486.183594 221.769531 -494.210938 C 243.359375 -502.238281 265.550781 -505.78125 288.34375 -504.84375 C 310.691406 -503.921875 332.167969 -498.746094 352.773438 -489.308594 C 373.375 -479.871094 391.324219 -466.996094 406.617188 -450.675781 C 422.21875 -434.03125 434.03125 -414.910156 442.058594 -393.320312 L 455.300781 -357.695312 C 457.324219 -352.253906 459.996094 -348.203125 463.320312 -345.535156 C 467.964844 -341.804688 473.539062 -339.378906 480.042969 -338.261719 C 485.496094 -337.320312 491.238281 -337.972656 497.269531 -340.214844 Z M 497.269531 -340.214844 "/></g></g></g><g fill="#d4005f" fill-opacity="1"><g transform="translate(483.229899, 1217.31766)"><g><path d="M 548.40625 -202.671875 C 517.664062 -191.242188 486.578125 -188.234375 455.140625 -193.640625 C 423.710938 -199.054688 395.816406 -211.546875 371.453125 -231.109375 C 347.085938 -250.671875 329.191406 -275.816406 317.765625 -306.546875 L 304.53125 -342.171875 C 302.1875 -348.460938 297.898438 -353.03125 291.671875 -355.875 C 285.441406 -358.726562 279.179688 -358.988281 272.890625 -356.65625 C 266.609375 -354.320312 262.039062 -350.039062 259.1875 -343.8125 C 256.332031 -337.59375 256.078125 -331.335938 258.421875 -325.046875 L 271.65625 -289.421875 C 283.34375 -257.984375 286.523438 -226.960938 281.203125 -196.359375 C 275.878906 -165.753906 263.367188 -138.445312 243.671875 -114.4375 C 223.984375 -90.425781 198.421875 -72.578125 166.984375 -60.890625 C 136.953125 -49.722656 106.457031 -46.734375 75.5 -51.921875 C 44.550781 -57.109375 16.894531 -69.484375 -7.46875 -89.046875 C -31.832031 -108.609375 -49.859375 -134.109375 -61.546875 -165.546875 L -215.015625 -578.390625 C -226.703125 -609.828125 -229.644531 -640.734375 -223.84375 -671.109375 C -218.050781 -701.484375 -205.128906 -728.742188 -185.078125 -752.890625 C -165.035156 -777.046875 -140 -794.707031 -109.96875 -805.875 C -78.53125 -817.5625 -47.507812 -820.738281 -16.90625 -815.40625 C 13.6875 -810.082031 40.925781 -797.753906 64.8125 -778.421875 C 88.707031 -759.085938 106.5 -733.703125 118.1875 -702.265625 L 132.203125 -664.546875 C 134.285156 -658.953125 138.441406 -654.726562 144.671875 -651.875 C 150.898438 -649.019531 157.15625 -648.757812 163.4375 -651.09375 C 169.726562 -653.425781 174.300781 -657.707031 177.15625 -663.9375 C 180.007812 -670.164062 180.394531 -676.078125 178.3125 -681.671875 L 164.296875 -719.390625 C 152.867188 -750.117188 150.050781 -780.675781 155.84375 -811.0625 C 161.644531 -841.445312 174.675781 -868.953125 194.9375 -893.578125 C 215.207031 -918.203125 240.710938 -936.226562 271.453125 -947.65625 C 302.171875 -959.082031 332.894531 -961.960938 363.625 -956.296875 C 394.363281 -950.628906 421.851562 -938.1875 446.09375 -918.96875 C 470.332031 -899.75 488.164062 -874.773438 499.59375 -844.046875 L 653.0625 -431.203125 C 664.488281 -400.472656 667.363281 -369.742188 661.6875 -339.015625 C 656.019531 -308.285156 643.398438 -280.734375 623.828125 -256.359375 C 604.265625 -231.992188 579.125 -214.097656 548.40625 -202.671875 Z M 548.40625 -202.671875 "/></g></g></g></g></g><g transform="matrix(1, 0, 0, 1, 44, 613)"><g clip-path="url(#8c0ba1463a)"><g fill="#ffef42" fill-opacity="1"><g transform="translate(356.291137, 182.680763)"><g><path d="M 892.886719 627.875 C 887.714844 690.492188 866.972656 746.375 830.667969 795.519531 C 796.53125 841.726562 753.402344 877.429688 701.28125 902.636719 C 646.871094 928.949219 589.652344 939.625 529.621094 934.664062 C 467.8125 929.558594 412.335938 909.429688 363.195312 874.28125 C 315.792969 840.375 279.472656 797.4375 254.230469 745.472656 C 228.148438 691.773438 217.648438 634.121094 222.738281 572.515625 C 226.523438 526.703125 237.625 484.929688 256.046875 447.195312 C 257.867188 443.46875 259.125 440.472656 259.816406 438.214844 C 259.648438 438.761719 259.480469 440.042969 259.316406 442.054688 C 258.191406 455.675781 259.796875 469.183594 264.140625 482.574219 C 268.378906 495.636719 274.773438 507.210938 283.324219 517.300781 C 291.875 527.390625 302.246094 535.597656 314.433594 541.921875 C 326.929688 548.402344 339.988281 552.207031 353.609375 553.332031 C 369.007812 554.605469 384.160156 552.59375 399.074219 547.296875 C 413.195312 542.28125 425.527344 534.878906 436.070312 525.085938 C 445.429688 516.398438 452.9375 506.152344 458.597656 494.351562 C 464.023438 483.03125 467.238281 471.351562 468.230469 459.3125 C 468.398438 457.300781 468.441406 456.011719 468.367188 455.441406 C 468.679688 457.785156 469.429688 460.945312 470.613281 464.921875 C 482.589844 505.167969 486.6875 548.195312 482.902344 594.007812 C 477.6875 657.125 456.488281 713.359375 419.296875 762.71875 C 384.726562 808.59375 341.257812 844.015625 288.894531 868.980469 C 234.308594 895.003906 176.40625 905.484375 115.183594 900.429688 C 54.855469 895.445312 0.125 875.378906 -49.015625 840.226562 C -95.605469 806.902344 -131.875 764.78125 -157.835938 713.859375 C -185.585938 659.421875 -196.875 600.894531 -191.699219 538.277344 L -178.355469 376.734375 C -172.203125 302.234375 -151.484375 233.242188 -116.203125 169.757812 C -82.132812 108.457031 -37.855469 55.425781 16.625 10.664062 C 70.921875 -33.941406 131.382812 -67.167969 198.015625 -89.011719 C 266.011719 -111.304688 336.238281 -119.457031 408.695312 -113.472656 C 483.714844 -107.273438 553.035156 -87.28125 616.660156 -53.488281 C 679.332031 -20.199219 733.296875 23.429688 778.554688 77.394531 C 823.476562 130.964844 857.132812 191.144531 879.519531 257.9375 C 902.191406 325.582031 910.992188 396.234375 905.921875 469.898438 Z M 600.414062 603.714844 L 613.148438 449.746094 C 615.546875 414.847656 611.589844 382 601.265625 351.203125 C 590.65625 319.550781 574.796875 291.140625 553.6875 265.96875 C 532.914062 241.199219 508.019531 221.105469 478.996094 205.691406 C 450.925781 190.78125 419.4375 181.882812 384.535156 179 C 351.523438 176.273438 319.824219 179.890625 289.441406 189.851562 C 257.691406 200.261719 228.851562 216.117188 202.921875 237.417969 C 177.179688 258.566406 156.3125 283.53125 140.3125 312.316406 C 125.53125 338.917969 116.796875 368.445312 114.117188 400.894531 L 100.773438 562.4375 C 100.175781 569.636719 101.128906 575.683594 103.621094 580.578125 C 107.910156 588.988281 113.941406 595.972656 121.722656 601.539062 C 126.949219 605.277344 132.824219 607.417969 139.34375 607.957031 C 147.933594 608.664062 155.6875 607.371094 162.601562 604.078125 C 171.734375 599.722656 179.171875 593.734375 184.914062 586.109375 C 188.039062 581.964844 189.878906 576.542969 190.429688 569.84375 C 191.1875 560.695312 190.820312 553.625 189.335938 548.640625 C 177.359375 508.394531 172.832031 470.566406 175.757812 435.152344 C 177.734375 411.230469 183.808594 388.664062 193.980469 367.453125 C 204.382812 345.761719 218.515625 326.625 236.375 310.039062 C 255.425781 292.347656 276.921875 279.25 300.863281 270.75 C 325.597656 261.964844 351.234375 258.667969 377.773438 260.859375 C 403.277344 262.96875 427.207031 269.820312 449.5625 281.414062 C 471.613281 292.851562 490.832031 308.238281 507.21875 327.578125 C 523.601562 346.914062 535.628906 368.398438 543.292969 392.023438 C 551.0625 415.980469 553.894531 440.710938 551.789062 466.214844 C 548.863281 501.628906 538.191406 538.203125 519.769531 575.9375 C 517.488281 580.613281 515.96875 587.523438 515.210938 596.675781 C 514.535156 604.886719 515.53125 611.742188 518.207031 617.25 C 521.726562 624.496094 526.96875 630.609375 533.933594 635.589844 C 539.160156 639.332031 545.777344 641.53125 553.78125 642.191406 C 560.597656 642.753906 567.179688 641.503906 573.523438 638.4375 C 582.15625 634.261719 589.191406 628.496094 594.625 621.136719 C 597.890625 616.71875 599.820312 610.910156 600.414062 603.714844 Z M 600.414062 603.714844 "/></g></g></g><g fill="#d4005f" fill-opacity="1"><g transform="translate(356.291137, 182.680763)"><g><path d="M 746.65625 615.796875 C 743.769531 650.691406 732.429688 681.53125 712.640625 708.3125 C 692.847656 735.101562 667.765625 755.84375 637.390625 770.53125 C 607.015625 785.21875 575.113281 791.179688 541.6875 788.421875 C 506.789062 785.535156 475.75 774.367188 448.5625 754.921875 C 421.375 735.484375 400.585938 710.957031 386.203125 681.34375 C 371.828125 651.738281 366.082031 619.488281 368.96875 584.59375 C 371.226562 557.113281 377.535156 532.769531 387.890625 511.5625 C 398.253906 490.351562 404.140625 471.207031 405.546875 454.125 C 406.535156 442.238281 403.109375 431.671875 395.265625 422.421875 C 387.421875 413.179688 377.5625 408.070312 365.6875 407.09375 C 354.550781 406.164062 344.726562 409.648438 336.21875 417.546875 C 327.71875 425.453125 322.972656 435.347656 321.984375 447.234375 C 320.578125 464.316406 323.238281 484.164062 329.96875 506.78125 C 336.695312 529.394531 338.929688 554.441406 336.671875 581.921875 C 333.785156 616.816406 322.257812 647.640625 302.09375 674.390625 C 281.9375 701.148438 256.484375 721.859375 225.734375 736.515625 C 194.992188 751.179688 162.171875 757.070312 127.265625 754.1875 C 93.835938 751.425781 63.535156 740.320312 36.359375 720.875 C 9.179688 701.4375 -11.96875 676.878906 -27.09375 647.203125 C -42.21875 617.535156 -48.335938 585.253906 -45.453125 550.359375 L -32.109375 388.8125 C -27.691406 335.34375 -12.96875 286.082031 12.0625 241.03125 C 37.09375 195.988281 69.660156 156.988281 109.765625 124.03125 C 149.878906 91.082031 194.53125 66.546875 243.71875 50.421875 C 292.914062 34.296875 343.878906 28.410156 396.609375 32.765625 C 451.566406 37.304688 501.96875 51.75 547.8125 76.09375 C 593.664062 100.445312 633.097656 132.304688 666.109375 171.671875 C 699.128906 211.046875 723.882812 255.34375 740.375 304.5625 C 756.875 353.789062 763.257812 405.546875 759.53125 459.828125 Z M 746.65625 615.796875 "/></g></g></g></g></g><g transform="matrix(1, 0, 0, 1, 2703, 932)"><g clip-path="url(#45642a33a5)"><g fill="#ffef42" fill-opacity="1"><g transform="translate(212.810935, 969.103935)"><g><path d="M 681.007812 -834.675781 C 740.820312 -824.109375 792.941406 -799.445312 837.375 -760.683594 C 879.976562 -723.523438 911.136719 -678.550781 930.847656 -625.769531 C 951.226562 -571.210938 956.242188 -514.65625 945.898438 -456.101562 C 935.664062 -398.1875 911.828125 -347.40625 874.382812 -303.757812 C 838.71875 -262.1875 795.277344 -231.175781 744.050781 -210.71875 C 689.277344 -188.847656 631.664062 -183.253906 571.210938 -193.933594 L 596.738281 -338.429688 L 741.34375 -313.519531 L 697.128906 -56.832031 C 686.671875 2.347656 662.199219 54.269531 623.703125 98.9375 C 586.730469 141.84375 541.960938 173.414062 489.40625 193.652344 C 434.382812 214.839844 377.332031 220.214844 318.253906 209.777344 C 259.589844 199.410156 208.160156 174.714844 163.964844 135.679688 C 121.835938 98.476562 91.019531 53.277344 71.511719 0.0898438 C 51.453125 -54.601562 46.570312 -111.066406 56.863281 -169.3125 L 102.179688 -425.808594 L 246.675781 -400.277344 L 221.144531 -255.78125 C 161.75 -266.277344 109.953125 -291.039062 65.757812 -330.070312 C 23.933594 -367.007812 -6.667969 -411.265625 -26.039062 -462.84375 C -46.261719 -516.679688 -51.253906 -572.554688 -41.023438 -630.46875 C -30.769531 -688.496094 -7.1875 -739.558594 29.734375 -783.660156 C 65.914062 -826.882812 110.273438 -858.792969 162.808594 -879.394531 C 217.707031 -900.917969 274.851562 -906.433594 334.246094 -895.941406 Z M 629.949219 -545.683594 L 283.1875 -606.945312 C 278.003906 -607.863281 273.585938 -607.605469 269.9375 -606.175781 C 263.925781 -603.820312 258.867188 -600.1875 254.761719 -595.285156 C 251.394531 -591.257812 249.128906 -585.96875 247.96875 -579.410156 C 247.050781 -574.210938 247.292969 -569.753906 248.6875 -566.035156 C 250.933594 -560.0625 254.707031 -554.730469 260.019531 -550.039062 C 262.957031 -547.445312 267.019531 -545.691406 272.203125 -544.773438 L 416.703125 -519.246094 L 345.855469 -118.253906 C 344.734375 -111.921875 345.128906 -106.15625 347.035156 -100.960938 C 349.488281 -94.265625 353.21875 -88.710938 358.226562 -84.289062 C 361.164062 -81.695312 364.859375 -80.003906 369.3125 -79.21875 C 374.816406 -78.246094 379.695312 -78.578125 383.949219 -80.214844 C 390.671875 -82.804688 396.488281 -86.949219 401.398438 -92.644531 C 404.789062 -96.582031 406.964844 -101.25 407.917969 -106.652344 L 477.152344 -508.566406 L 622.269531 -482.925781 C 627.863281 -481.9375 632.183594 -482.050781 635.21875 -483.261719 C 641.804688 -485.894531 647.28125 -489.753906 651.648438 -494.84375 C 654.234375 -497.855469 655.984375 -501.960938 656.902344 -507.160156 C 657.96875 -513.1875 657.644531 -518.5 655.929688 -523.089844 C 653.550781 -529.457031 649.730469 -534.9375 644.460938 -539.53125 C 641.027344 -542.53125 636.1875 -544.578125 629.949219 -545.683594 Z M 629.949219 -545.683594 "/></g></g></g><g fill="#d4005f" fill-opacity="1"><g transform="translate(212.810935, 969.103935)"><g><path d="M 655.484375 -690.171875 C 688.503906 -684.335938 716.976562 -670.976562 740.90625 -650.09375 C 764.84375 -629.21875 782.332031 -603.992188 793.375 -574.421875 C 804.414062 -544.859375 807.085938 -513.929688 801.390625 -481.640625 C 795.804688 -450.078125 783.007812 -422.628906 763 -399.296875 C 742.988281 -375.972656 718.53125 -358.535156 689.625 -346.984375 C 660.726562 -335.441406 629.765625 -332.585938 596.734375 -338.421875 L 552.53125 -81.75 C 546.820312 -49.457031 533.492188 -21.160156 512.546875 3.140625 C 491.609375 27.441406 466.316406 45.300781 436.671875 56.71875 C 407.023438 68.132812 376.054688 70.988281 343.765625 65.28125 C 312.210938 59.707031 284.65625 46.515625 261.09375 25.703125 C 237.53125 4.890625 220.253906 -20.488281 209.265625 -50.4375 C 198.285156 -80.382812 195.648438 -111.503906 201.359375 -143.796875 L 246.671875 -400.28125 C 214.378906 -405.976562 186.445312 -419.234375 162.875 -440.046875 C 139.3125 -460.867188 122.125 -485.664062 111.3125 -514.4375 C 100.5 -543.207031 97.882812 -573.375 103.46875 -604.9375 C 109.164062 -637.226562 122.085938 -665.40625 142.234375 -689.46875 C 162.378906 -713.53125 187.085938 -731.296875 216.359375 -742.765625 C 245.640625 -754.242188 276.425781 -757.132812 308.71875 -751.4375 Z M 655.484375 -690.171875 "/></g></g></g></g></g><g transform="matrix(1, 0, 0, 1, 2484, 179)"><g clip-path="url(#63ed83945c)"><g fill="#ffef42" fill-opacity="1"><g transform="translate(887.137249, 327.69947)"><g><path d="M 74.097656 1074.695312 C 23.238281 1107.894531 -31.652344 1125.550781 -90.578125 1127.667969 C -147.074219 1129.699219 -200.5625 1118.203125 -251.046875 1093.179688 C -303.226562 1067.316406 -345.570312 1029.492188 -378.074219 979.699219 C -410.222656 930.449219 -427.566406 877.101562 -430.101562 819.652344 C -432.519531 764.933594 -422.039062 712.59375 -398.660156 662.632812 C -373.664062 609.214844 -335.460938 565.726562 -284.054688 532.167969 L -203.84375 655.042969 L -326.371094 735.777344 L -469.6875 518.28125 C -502.535156 467.957031 -520.195312 413.335938 -522.667969 354.421875 C -525.039062 297.832031 -513.976562 244.183594 -489.476562 193.472656 C -463.828125 140.378906 -425.886719 97.4375 -375.648438 64.644531 C -325.765625 32.082031 -271.355469 14.921875 -212.414062 13.167969 C -156.234375 11.496094 -102.839844 23.386719 -52.226562 48.847656 C -0.191406 75.023438 41.992188 112.878906 74.324219 162.40625 L 216.703125 380.515625 L 93.832031 460.726562 L 13.621094 337.851562 C 64.128906 304.882812 118.851562 287.519531 177.792969 285.765625 C 233.566406 284.101562 286.160156 295.460938 335.570312 319.835938 C 387.144531 345.277344 429.003906 382.621094 461.152344 431.871094 C 493.363281 481.210938 511.082031 534.59375 514.316406 592.019531 C 517.484375 648.300781 506.949219 701.917969 482.714844 752.878906 C 457.390625 806.128906 419.472656 849.238281 368.96875 882.210938 Z M -86.316406 828.949219 L 208.550781 636.464844 C 212.960938 633.585938 216.007812 630.378906 217.691406 626.839844 C 220.460938 621.007812 221.667969 614.902344 221.308594 608.515625 C 221.015625 603.273438 219.046875 597.863281 215.40625 592.289062 C 212.523438 587.867188 209.296875 584.777344 205.738281 583.023438 C 200.015625 580.199219 193.613281 578.894531 186.53125 579.105469 C 182.613281 579.21875 178.449219 580.71875 174.039062 583.597656 L 51.167969 663.804688 L -171.417969 322.824219 C -174.933594 317.4375 -179.164062 313.5 -184.109375 311.015625 C -190.476562 307.8125 -197 306.308594 -203.675781 306.507812 C -207.59375 306.625 -211.445312 307.917969 -215.230469 310.390625 C -219.914062 313.445312 -223.246094 317.027344 -225.226562 321.132812 C -228.359375 327.617188 -229.769531 334.617188 -229.453125 342.132812 C -229.238281 347.324219 -227.628906 352.214844 -224.632812 356.808594 L -0.234375 697.359375 L -123.636719 777.914062 C -128.394531 781.019531 -131.46875 784.054688 -132.855469 787.019531 C -135.859375 793.441406 -137.214844 800 -136.917969 806.699219 C -136.742188 810.667969 -135.214844 814.863281 -132.328125 819.28125 C -128.980469 824.410156 -125.113281 828.058594 -120.722656 830.238281 C -114.632812 833.253906 -108.09375 834.640625 -101.109375 834.386719 C -96.554688 834.226562 -91.621094 832.410156 -86.316406 828.949219 Z M -86.316406 828.949219 "/></g></g></g><g fill="#d4005f" fill-opacity="1"><g transform="translate(887.137249, 327.69947)"><g><path d="M -6.109375 951.796875 C -34.191406 970.128906 -64.101562 979.863281 -95.84375 981 C -127.59375 982.144531 -157.601562 975.707031 -185.875 961.6875 C -214.15625 947.664062 -237.257812 926.925781 -255.1875 899.46875 C -272.707031 872.632812 -282.144531 843.863281 -283.5 813.15625 C -284.851562 782.457031 -278.9375 753.015625 -265.75 724.828125 C -252.5625 696.640625 -231.925781 673.375 -203.84375 655.03125 L -347.15625 437.546875 C -365.082031 410.085938 -374.71875 380.332031 -376.0625 348.28125 C -377.40625 316.226562 -371.164062 285.898438 -357.34375 257.296875 C -343.519531 228.703125 -322.878906 205.441406 -295.421875 187.515625 C -268.597656 170.003906 -239.472656 160.78125 -208.046875 159.84375 C -176.617188 158.90625 -146.660156 165.597656 -118.171875 179.921875 C -89.679688 194.253906 -66.472656 215.148438 -48.546875 242.609375 L 93.828125 460.71875 C 121.285156 442.800781 150.726562 433.375 182.15625 432.4375 C 213.59375 431.5 243.09375 437.828125 270.65625 451.421875 C 298.21875 465.015625 320.757812 485.226562 338.28125 512.0625 C 356.207031 539.519531 366.050781 568.914062 367.8125 600.25 C 369.570312 631.582031 363.695312 661.445312 350.1875 689.84375 C 336.6875 718.238281 316.207031 741.394531 288.75 759.3125 Z M -6.109375 951.796875 "/></g></g></g></g></g><g transform="matrix(1, 0, 0, 1, 1592, 769)"><g clip-path="url(#5c515b9bde)"><g fill="#ffef42" fill-opacity="1"><g transform="translate(903.879546, 327.493544)"><g><path d="M -100.90625 -68.441406 C -44.355469 -82.730469 11.421875 -82.203125 66.425781 -66.859375 C 121.148438 -51.597656 168.558594 -23.898438 208.660156 16.242188 C 249.234375 56.847656 276.890625 105.042969 291.636719 160.828125 L 419.144531 639.417969 C 436.632812 704.058594 434.777344 766.613281 413.582031 827.082031 C 393.785156 883.5625 361.449219 931.167969 316.578125 969.894531 C 271.195312 1009.066406 218.808594 1033.980469 159.417969 1044.636719 C 96.53125 1055.917969 33.941406 1047.507812 -28.347656 1019.402344 L -481.664062 813.457031 C -534.777344 790.625 -578.160156 754.863281 -611.808594 706.171875 C -643.4375 660.410156 -662.371094 609.972656 -668.613281 554.867188 C -675.136719 497.296875 -665.976562 441.179688 -641.136719 386.519531 C -616.191406 333.183594 -580.40625 289.949219 -533.773438 256.824219 C -486.882812 223.511719 -435.113281 204.128906 -378.464844 198.671875 C -322.285156 193.261719 -267.6875 202.285156 -214.675781 225.746094 L -1.265625 322.6875 L 6.371094 327.351562 C -9.921875 317.402344 -27.554688 310.980469 -46.519531 308.09375 C -69.261719 304.628906 -91.542969 306.515625 -113.367188 313.757812 C -142.4375 323.402344 -165.777344 340.425781 -183.386719 364.832031 C -194.058594 379.621094 -201.589844 395.9375 -205.976562 413.78125 C -211.523438 436.328125 -211.566406 458.890625 -206.109375 481.46875 C -201.582031 500.199219 -193.613281 517.25 -182.207031 532.625 C -175.035156 542.289062 -166.824219 550.804688 -157.570312 558.175781 L -66.152344 443.398438 L -153.003906 561.667969 L -297.914062 455.25 L -332.660156 328.917969 C -347.472656 270.386719 -347.203125 213.621094 -331.863281 158.613281 C -316.597656 103.890625 -288.898438 56.480469 -248.761719 16.378906 C -208.875 -23.46875 -161.03125 -51.355469 -105.226562 -67.28125 L -103.074219 -67.894531 Z M -29.019531 216.085938 L -64.964844 73.820312 L -24.699219 214.925781 C -31.765625 216.941406 -37.3125 219.960938 -41.339844 223.984375 C -45.117188 227.757812 -47.730469 232.25 -49.183594 237.460938 C -50.558594 242.386719 -50.730469 246.929688 -49.699219 251.089844 L -28.476562 328.253906 L -169.957031 367.164062 L -83.105469 248.898438 L 23.015625 326.828125 L 25.265625 328.621094 C 53.003906 350.714844 70.964844 378.679688 79.144531 412.519531 C 84.894531 436.3125 84.847656 460.097656 79 483.878906 C 74.308594 502.949219 66.175781 520.503906 54.605469 536.539062 C 35.199219 563.4375 10.007812 582.023438 -20.964844 592.300781 C -43.746094 599.855469 -66.992188 601.828125 -90.710938 598.214844 C -110.65625 595.175781 -129.28125 588.375 -146.578125 577.8125 L -70.105469 452.582031 L -130.796875 586.175781 L -333.441406 494.109375 C -339.558594 491.398438 -345.1875 490.292969 -350.324219 490.789062 C -354.996094 491.238281 -359.492188 493 -363.816406 496.066406 C -368.394531 499.324219 -371.777344 503.277344 -373.960938 507.929688 C -376.429688 513.359375 -377.445312 517.992188 -377.011719 521.832031 C -376.296875 528.132812 -374.085938 533.964844 -370.382812 539.324219 C -368.703125 541.753906 -365.335938 544.070312 -360.28125 546.265625 L 92.355469 751.902344 C 99.34375 755.054688 104.417969 756.347656 107.589844 755.78125 C 114.253906 754.585938 120 751.902344 124.832031 747.730469 C 130.171875 743.121094 134.109375 737.210938 136.632812 730.003906 C 137.761719 726.785156 137.40625 721.773438 135.566406 714.96875 L 7.914062 235.832031 C 6.644531 231.023438 4.359375 226.96875 1.054688 223.664062 C -2.71875 219.886719 -7.210938 217.273438 -12.417969 215.820312 C -17.34375 214.445312 -22.878906 214.535156 -29.019531 216.085938 Z M -29.019531 216.085938 "/></g></g></g><g fill="#d4005f" fill-opacity="1"><g transform="translate(903.879546, 327.493544)"><g><path d="M -64.953125 73.8125 C -33.617188 65.894531 -2.96875 66.113281 27 74.46875 C 56.96875 82.832031 82.921875 97.988281 104.859375 119.9375 C 126.796875 141.894531 141.765625 168.03125 149.765625 198.34375 L 277.359375 677.1875 C 287.003906 712.90625 286.25 746.6875 275.09375 778.53125 C 263.945312 810.375 245.816406 837.128906 220.703125 858.796875 C 195.585938 880.472656 166.519531 894.273438 133.5 900.203125 C 100.476562 906.128906 66.644531 901.273438 32 885.640625 L -420.96875 679.859375 C -450.050781 667.335938 -473.421875 648.296875 -491.078125 622.734375 C -508.742188 597.179688 -519.316406 569.050781 -522.796875 538.34375 C -526.285156 507.644531 -521.203125 477.269531 -507.546875 447.21875 C -493.984375 418.21875 -474.398438 394.625 -448.796875 376.4375 C -423.191406 358.25 -395.054688 347.675781 -364.390625 344.71875 C -333.722656 341.769531 -303.609375 346.835938 -274.046875 359.921875 L -70.109375 452.5625 C -68.085938 453.8125 -66.175781 453.1875 -64.375 450.6875 C -62.582031 448.1875 -63.175781 445.757812 -66.15625 443.40625 L -169.953125 367.15625 L -191.171875 290 C -199.085938 258.664062 -198.867188 228.007812 -190.515625 198.03125 C -182.160156 168.0625 -167.003906 142.109375 -145.046875 120.171875 C -123.097656 98.234375 -96.398438 82.78125 -64.953125 73.8125 Z M -64.953125 73.8125 "/></g></g></g></g></g></svg>