<svg xmlns="http://www.w3.org/2000/svg" xmlns:xlink="http://www.w3.org/1999/xlink" width="6912" zoomAndPan="magnify" viewBox="0 0 5184 2592.000001" height="3456" preserveAspectRatio="xMidYMid meet" version="1.0"><defs><g/><clipPath id="af541aa953"><rect x="0" width="1128" y="0" height="1266"/></clipPath><clipPath id="3460b7ebf9"><rect x="0" width="1279" y="0" height="1402"/></clipPath><clipPath id="b0013d0cb2"><rect x="0" width="1473" y="0" height="1597"/></clipPath><clipPath id="b11d880523"><rect x="0" width="1239" y="0" height="1396"/></clipPath><clipPath id="d1b997fb13"><rect x="0" width="1608" y="0" height="1608"/></clipPath><clipPath id="55a525b3b9"><rect x="0" width="1411" y="0" height="1314"/></clipPath></defs><g transform="matrix(1, 0, 0, 1, 3965, 828)"><g clip-path="url(#af541aa953)"><g fill="#ffef42" fill-opacity="1"><g transform="translate(179.725096, 966.769609)"><g><path d="M 370.863281 -838.03125 C 413.542969 -880.507812 462.789062 -908.617188 518.597656 -922.367188 C 573.140625 -935.804688 627.617188 -934.84375 682.023438 -919.496094 C 738.675781 -903.511719 787.359375 -872.992188 828.078125 -827.933594 L 719.464844 -729.777344 L 824.859375 -831.386719 C 865.726562 -788.996094 892.59375 -739.15625 905.460938 -681.871094 C 917.585938 -627.882812 916.574219 -574.332031 902.425781 -521.214844 C 887.875 -466.601562 860.34375 -418.464844 819.832031 -376.804688 L 661.992188 -221.253906 L 559.246094 -325.542969 L 705.621094 -322.867188 L 702.765625 -166.746094 C 701.675781 -107.113281 685.78125 -52.632812 655.082031 -3.300781 C 625.4375 44.332031 586.050781 82.023438 536.917969 109.765625 C 486.320312 138.335938 431.367188 152.082031 372.050781 150.996094 C 313.480469 149.925781 259.433594 134.1875 209.914062 103.785156 C 161.832031 74.265625 123.847656 35.160156 95.964844 -13.523438 C 67.089844 -63.945312 53.199219 -118.972656 54.289062 -178.605469 L 57.140625 -334.722656 L 203.515625 -332.046875 L 97.027344 -231.585938 L -52.890625 -390.5 C -93.273438 -435.148438 -119.734375 -485.027344 -132.277344 -540.132812 C -144.476562 -593.734375 -143.53125 -647.285156 -129.441406 -700.792969 C -114.484375 -757.570312 -85.816406 -806.394531 -43.425781 -847.261719 L 58.1875 -741.867188 L -46.769531 -843.929688 C -4.546875 -887.351562 44.890625 -916.039062 101.539062 -929.992188 C 156.398438 -943.507812 210.796875 -942.472656 264.730469 -926.890625 C 320.273438 -910.839844 368.292969 -880.410156 408.789062 -835.601562 L 300.171875 -737.441406 L 406.203125 -838.386719 L 492.667969 -747.566406 L 386.636719 -646.621094 L 283.03125 -750.054688 L 370.527344 -837.695312 Z M 577.738281 -630.828125 L 384.144531 -436.914062 L 192.828125 -637.875 L 191.554688 -639.285156 C 188.316406 -642.867188 185.613281 -644.972656 183.453125 -645.597656 C 179.6875 -646.683594 175.726562 -646.71875 171.570312 -645.695312 C 169.203125 -645.109375 166.390625 -643.148438 163.140625 -639.804688 L 161.496094 -638.109375 L 159.796875 -636.472656 C 156.765625 -633.550781 154.734375 -630.132812 153.703125 -626.222656 C 151.8125 -619.039062 151.652344 -612.003906 153.21875 -605.113281 C 154.445312 -599.730469 156.734375 -595.167969 160.085938 -591.421875 L 350.984375 -389.074219 L 347.039062 -173.25 C 346.929688 -167.460938 347.933594 -162.722656 350.046875 -159.035156 C 353.15625 -153.609375 357.507812 -149.175781 363.109375 -145.738281 C 367.277344 -143.179688 372.039062 -141.851562 377.402344 -141.753906 C 383.511719 -141.640625 388.691406 -142.789062 392.949219 -145.191406 C 398.671875 -148.421875 403.183594 -152.691406 406.488281 -158 C 408.734375 -161.613281 409.910156 -166.3125 410.015625 -172.101562 L 413.964844 -387.921875 L 609.921875 -580.933594 C 614.882812 -586.035156 618.074219 -591.253906 619.492188 -596.585938 C 621.3125 -603.417969 621.410156 -610.453125 619.78125 -617.699219 C 618.894531 -621.644531 616.992188 -625.132812 614.066406 -628.164062 L 612.429688 -629.863281 L 610.847656 -631.617188 C 607.828125 -634.953125 605.054688 -636.980469 602.515625 -637.699219 C 597.734375 -639.046875 593.109375 -639.171875 588.632812 -638.066406 C 585.425781 -637.277344 581.683594 -634.753906 577.402344 -630.492188 Z M 577.738281 -630.828125 "/></g></g></g><g fill="#d4005f" fill-opacity="1"><g transform="translate(179.725096, 966.769609)"><g><path d="M 474.125 -734.265625 C 497.613281 -757.640625 524.109375 -772.957031 553.609375 -780.21875 C 583.117188 -787.488281 612.671875 -786.945312 642.265625 -778.59375 C 671.867188 -770.25 697.597656 -753.976562 719.453125 -729.78125 C 741.359375 -707.0625 755.75 -680.394531 762.625 -649.78125 C 769.5 -619.164062 768.941406 -588.867188 760.953125 -558.890625 C 752.972656 -528.921875 737.609375 -502.25 714.859375 -478.875 L 559.25 -325.546875 L 556.390625 -169.421875 C 555.796875 -136.722656 547.265625 -107.132812 530.796875 -80.65625 C 514.328125 -54.175781 492.375 -33.191406 464.9375 -17.703125 C 437.507812 -2.222656 407.441406 5.210938 374.734375 4.609375 C 342.765625 4.023438 313.359375 -4.5 286.515625 -20.96875 C 259.671875 -37.445312 238.5 -59.21875 223 -86.28125 C 207.507812 -113.34375 200.0625 -143.222656 200.65625 -175.921875 L 203.515625 -332.046875 L 53.59375 -490.96875 C 31.726562 -515.15625 17.351562 -542.367188 10.46875 -572.609375 C 3.582031 -602.859375 4.132812 -633.15625 12.125 -663.5 C 20.125 -693.84375 35.476562 -719.96875 58.1875 -741.875 C 80.925781 -765.257812 107.046875 -780.582031 136.546875 -787.84375 C 166.054688 -795.113281 195.234375 -794.582031 224.078125 -786.25 C 252.929688 -777.914062 278.296875 -761.648438 300.171875 -737.453125 L 386.640625 -646.625 Z M 474.125 -734.265625 "/></g></g></g></g></g><g transform="matrix(1, 0, 0, 1, 890, 702)"><g clip-path="url(#3460b7ebf9)"><g fill="#ffef42" fill-opacity="1"><g transform="translate(206.349394, 966.077456)"><g><path d="M 549.214844 245.722656 C 491.082031 235.5625 439.78125 211.777344 395.308594 174.363281 C 351.648438 137.636719 319.738281 92.929688 299.582031 40.238281 C 278.820312 -14.03125 273.574219 -70.539062 283.839844 -129.292969 L 290.367188 -166.648438 C 287.566406 -150.601562 287.996094 -134.527344 291.667969 -118.429688 C 295.238281 -102.761719 301.554688 -88.476562 310.621094 -75.570312 C 319.691406 -62.660156 330.988281 -51.871094 344.515625 -43.199219 C 358.414062 -34.289062 373.386719 -28.433594 389.433594 -25.628906 C 405.480469 -22.824219 421.554688 -23.257812 437.652344 -26.925781 C 453.320312 -30.496094 467.605469 -36.816406 480.511719 -45.882812 C 493.421875 -54.949219 504.210938 -66.246094 512.882812 -79.773438 C 521.792969 -93.671875 527.652344 -108.648438 530.453125 -124.695312 L 523.925781 -87.339844 C 513.625 -28.386719 489.96875 23.011719 452.960938 66.855469 C 416.40625 110.160156 371.558594 141.667969 318.421875 161.371094 C 264.625 181.316406 208.25 186.140625 149.296875 175.839844 C 92.117188 165.847656 41.492188 142.476562 -2.578125 105.722656 C -46.175781 69.363281 -78.09375 24.738281 -98.332031 -28.160156 C -119.089844 -82.429688 -124.273438 -139.308594 -113.878906 -198.792969 L -38.238281 -631.671875 C -27.789062 -691.476562 -3.457031 -743.269531 34.753906 -787.050781 C 71.574219 -829.238281 116.503906 -859.988281 169.546875 -879.292969 C 223.46875 -898.921875 279.019531 -903.742188 336.199219 -893.75 C 395.152344 -883.449219 446.550781 -859.792969 490.394531 -822.785156 C 533.457031 -786.433594 564.890625 -742.046875 584.691406 -689.628906 C 604.96875 -635.957031 609.925781 -579.484375 599.570312 -520.21875 L 592.65625 -480.664062 C 595.738281 -498.300781 595.078125 -515.800781 590.671875 -533.171875 C 586.980469 -547.71875 580.957031 -560.941406 572.597656 -572.84375 C 563.527344 -585.75 552.230469 -596.539062 538.703125 -605.210938 C 524.804688 -614.121094 509.832031 -619.980469 493.785156 -622.785156 C 477.738281 -625.589844 461.664062 -625.15625 445.566406 -621.488281 C 429.898438 -617.917969 415.613281 -611.597656 402.707031 -602.53125 C 390.804688 -594.171875 380.652344 -583.773438 372.25 -571.339844 C 362.210938 -556.492188 355.652344 -540.253906 352.570312 -522.621094 L 359.484375 -562.171875 C 369.804688 -621.242188 394.070312 -672.671875 432.28125 -716.453125 C 468.953125 -758.472656 513.90625 -789.300781 567.132812 -808.933594 C 621.65625 -829.046875 677.984375 -834.023438 736.117188 -823.867188 C 794.871094 -813.601562 846.253906 -789.5 890.265625 -751.566406 C 932.28125 -715.351562 963.300781 -671.546875 983.324219 -620.160156 C 1004.421875 -566.015625 1009.8125 -509.40625 999.488281 -450.335938 L 923.847656 -17.457031 C 913.578125 41.296875 889.480469 92.675781 851.542969 136.691406 C 815.121094 178.949219 770.855469 210.046875 718.746094 229.980469 C 664.480469 250.742188 607.96875 255.988281 549.214844 245.722656 Z M 599.617188 -42.707031 C 605.320312 -41.710938 610.15625 -41.972656 614.128906 -43.492188 C 620.261719 -45.835938 625.472656 -49.496094 629.757812 -54.46875 C 632.535156 -57.691406 634.421875 -62.152344 635.417969 -67.855469 L 711.058594 -500.734375 C 712 -506.121094 711.816406 -510.492188 710.507812 -513.855469 C 708.121094 -519.976562 704.320312 -525.285156 699.105469 -529.78125 C 695.882812 -532.554688 691.421875 -534.441406 685.71875 -535.4375 C 679.394531 -536.542969 673.644531 -536.140625 668.464844 -534.230469 C 661.984375 -531.839844 656.792969 -528.40625 652.882812 -523.925781 C 650.507812 -521.207031 648.851562 -517.15625 647.910156 -511.769531 L 641 -472.21875 C 636.894531 -448.726562 628.167969 -427.109375 614.824219 -407.367188 C 603.113281 -390.039062 588.507812 -375.230469 571.015625 -362.941406 C 552.515625 -349.945312 532.386719 -340.96875 510.628906 -336.007812 C 488.4375 -330.949219 466.023438 -330.398438 443.382812 -334.355469 C 420.742188 -338.3125 399.84375 -346.433594 380.683594 -358.714844 C 361.894531 -370.757812 346.003906 -386.03125 333.007812 -404.53125 C 320.71875 -422.023438 312.003906 -440.90625 306.859375 -461.179688 C 301 -484.277344 300.125 -507.574219 304.230469 -531.066406 L 311.140625 -570.617188 C 312.304688 -577.273438 312.183594 -582.453125 310.785156 -586.160156 C 308.910156 -591.121094 305.824219 -595.414062 301.527344 -599.039062 C 298.011719 -602.011719 292.769531 -604.105469 285.800781 -605.320312 C 279.988281 -606.335938 274.621094 -605.949219 269.699219 -604.15625 C 263.898438 -602.046875 259.117188 -598.835938 255.351562 -594.523438 C 252.980469 -591.804688 251.257812 -587.386719 250.191406 -581.269531 L 174.546875 -148.390625 C 173.421875 -141.953125 173.621094 -136.75 175.140625 -132.78125 C 177.183594 -127.4375 180.453125 -122.894531 184.945312 -119.144531 C 188.96875 -115.789062 193.886719 -113.605469 199.699219 -112.589844 C 206.667969 -111.371094 212.308594 -111.5625 216.625 -113.164062 C 221.597656 -115.007812 225.796875 -117.957031 229.21875 -122.011719 C 232.1875 -125.527344 234.28125 -130.773438 235.5 -137.738281 L 242.027344 -175.09375 C 245.984375 -197.734375 254.101562 -218.632812 266.386719 -237.796875 C 278.429688 -256.582031 293.703125 -272.472656 312.203125 -285.46875 C 330.703125 -298.464844 350.832031 -307.445312 372.589844 -312.402344 C 394.78125 -317.460938 417.195312 -318.011719 439.835938 -314.054688 C 462.476562 -310.101562 483.375 -301.980469 502.535156 -289.695312 C 521.324219 -277.652344 537.214844 -262.378906 550.210938 -243.878906 C 563.207031 -225.378906 572.183594 -205.25 577.144531 -183.492188 C 582.203125 -161.300781 582.753906 -138.886719 578.796875 -116.246094 L 572.269531 -78.890625 C 571.273438 -73.1875 571.535156 -68.351562 573.054688 -64.378906 C 575.175781 -58.828125 578.757812 -53.933594 583.796875 -49.695312 C 588.019531 -46.140625 593.292969 -43.8125 599.617188 -42.707031 Z M 599.617188 -42.707031 "/></g></g></g><g fill="#d4005f" fill-opacity="1"><g transform="translate(206.349394, 966.077456)"><g><path d="M 574.40625 101.5 C 542.175781 95.863281 513.882812 82.804688 489.53125 62.328125 C 465.1875 41.847656 447.445312 17.050781 436.3125 -12.0625 C 425.175781 -41.175781 422.421875 -71.851562 428.046875 -104.09375 L 434.578125 -141.4375 C 435.734375 -148.039062 434.34375 -154.140625 430.40625 -159.734375 C 426.476562 -165.328125 421.21875 -168.703125 414.625 -169.859375 C 408.03125 -171.003906 401.9375 -169.613281 396.34375 -165.6875 C 390.757812 -161.757812 387.390625 -156.492188 386.234375 -149.890625 L 379.703125 -112.546875 C 373.941406 -79.585938 361.066406 -51.265625 341.078125 -27.578125 C 321.097656 -3.898438 296.578125 13.320312 267.515625 24.09375 C 238.460938 34.863281 207.457031 37.375 174.5 31.625 C 143 26.113281 115.222656 13.332031 91.171875 -6.71875 C 67.128906 -26.769531 49.535156 -51.351562 38.390625 -80.46875 C 27.253906 -109.59375 24.566406 -140.632812 30.328125 -173.59375 L 105.96875 -606.453125 C 111.726562 -639.410156 124.75 -667.519531 145.03125 -690.78125 C 165.320312 -714.039062 190.175781 -731.023438 219.59375 -741.734375 C 249.019531 -752.441406 279.484375 -755.039062 310.984375 -749.53125 C 343.941406 -743.78125 372.257812 -730.910156 395.9375 -710.921875 C 419.625 -690.929688 436.882812 -666.585938 447.71875 -637.890625 C 458.5625 -609.191406 461.101562 -578.363281 455.34375 -545.40625 L 448.4375 -505.875 C 447.40625 -500.007812 448.851562 -494.28125 452.78125 -488.6875 C 456.71875 -483.09375 461.984375 -479.722656 468.578125 -478.578125 C 475.171875 -477.421875 481.257812 -478.804688 486.84375 -482.734375 C 492.4375 -486.660156 495.75 -491.554688 496.78125 -497.421875 L 503.6875 -536.953125 C 509.3125 -569.179688 522.269531 -596.921875 542.5625 -620.171875 C 562.851562 -643.429688 587.921875 -660.566406 617.765625 -671.578125 C 647.617188 -682.597656 678.660156 -685.289062 710.890625 -679.65625 C 743.117188 -674.03125 771.039062 -661.035156 794.65625 -640.671875 C 818.28125 -620.316406 835.691406 -595.757812 846.890625 -567 C 858.097656 -538.25 860.890625 -507.757812 855.265625 -475.53125 L 779.625 -42.671875 C 774 -10.429688 761.003906 17.492188 740.640625 41.109375 C 720.285156 64.722656 695.546875 82.097656 666.421875 93.234375 C 637.304688 104.367188 606.632812 107.125 574.40625 101.5 Z M 574.40625 101.5 "/></g></g></g></g></g><g transform="matrix(1, 0, 0, 1, 1, 444)"><g clip-path="url(#b0013d0cb2)"><g fill="#ffef42" fill-opacity="1"><g transform="translate(219.268837, 907.492465)"><g><path d="M 942.621094 -545.4375 C 997.152344 -514.519531 1039.0625 -472.328125 1068.351562 -418.859375 C 1095.890625 -368.59375 1110.148438 -314.582031 1111.136719 -256.828125 C 1112.164062 -196.535156 1097.859375 -140.25 1068.21875 -87.972656 C 1037.699219 -34.140625 996.230469 7.65625 943.8125 37.425781 C 893.253906 66.140625 839.15625 81.042969 781.53125 82.125 C 721.976562 83.246094 665.375 68.597656 611.722656 38.175781 C 571.828125 15.558594 538.652344 -11.996094 512.203125 -44.484375 C 509.589844 -47.695312 507.40625 -50.089844 505.648438 -51.664062 C 506.078125 -51.28125 507.167969 -50.59375 508.917969 -49.601562 C 520.78125 -42.875 533.683594 -38.671875 547.628906 -36.996094 C 561.230469 -35.359375 574.394531 -36.296875 587.113281 -39.8125 C 599.832031 -43.328125 611.605469 -49.28125 622.441406 -57.667969 C 633.542969 -66.269531 642.460938 -76.5 649.183594 -88.363281 C 656.789062 -101.769531 661.316406 -116.335938 662.765625 -132.058594 C 664.140625 -146.941406 662.605469 -161.210938 658.15625 -174.863281 C 654.207031 -186.976562 648.078125 -198.066406 639.761719 -208.136719 C 631.785156 -217.792969 622.558594 -225.597656 612.074219 -231.539062 C 610.324219 -232.53125 609.171875 -233.113281 608.625 -233.285156 C 610.878906 -232.585938 614.054688 -231.941406 618.148438 -231.347656 C 659.609375 -225.332031 700.289062 -211.011719 740.183594 -188.394531 C 795.148438 -157.226562 837.1875 -114.46875 866.300781 -60.113281 C 893.359375 -9.589844 907.21875 44.609375 907.886719 102.484375 C 908.578125 162.8125 893.8125 219.636719 863.582031 272.953125 C 833.792969 325.488281 792.695312 366.640625 740.277344 396.410156 C 690.582031 424.632812 637.246094 439.828125 580.261719 442 C 519.34375 444.320312 461.617188 430.019531 407.085938 399.101562 L 266.402344 319.335938 C 201.519531 282.550781 147.730469 234.886719 105.027344 176.339844 C 63.792969 119.808594 34.324219 57.5 16.621094 -10.585938 C -1.019531 -78.4375 -5.773438 -147.105469 2.363281 -216.59375 C 10.664062 -287.503906 32.703125 -354.507812 68.480469 -417.609375 C 105.523438 -482.941406 152.671875 -537.332031 209.925781 -580.785156 C 266.328125 -623.585938 328.441406 -654.171875 396.269531 -672.542969 C 463.59375 -690.777344 532.1875 -696.035156 602.046875 -688.324219 C 672.796875 -680.515625 740.460938 -658.882812 805.035156 -623.429688 Z M 798.207031 -290.730469 L 664.125 -366.765625 C 633.535156 -383.5625 602.128906 -393.738281 569.917969 -397.292969 C 536.8125 -400.949219 504.445312 -398.492188 472.808594 -389.925781 C 441.675781 -381.492188 413.050781 -367.367188 386.933594 -347.546875 C 361.671875 -328.375 340.421875 -303.589844 323.1875 -273.195312 C 306.890625 -244.445312 296.882812 -214.230469 293.171875 -182.542969 C 289.296875 -149.433594 291.570312 -116.675781 299.996094 -84.269531 C 308.359375 -52.105469 322.222656 -22.746094 341.585938 3.796875 C 359.480469 28.332031 382.554688 48.609375 410.816406 64.628906 L 551.5 144.394531 C 557.769531 147.949219 563.640625 149.621094 569.117188 149.414062 C 578.527344 149.054688 587.382812 146.519531 595.679688 141.808594 C 601.257812 138.640625 605.65625 134.21875 608.875 128.539062 C 613.117188 121.058594 615.195312 113.496094 615.105469 105.851562 C 614.992188 95.761719 612.683594 86.519531 608.1875 78.121094 C 605.742188 73.558594 601.605469 69.621094 595.769531 66.3125 C 587.800781 61.796875 581.25 59.164062 576.109375 58.417969 C 534.652344 52.402344 498.5 40.652344 467.660156 23.167969 C 446.828125 11.355469 428.941406 -3.597656 413.996094 -21.695312 C 398.710938 -40.203125 387.304688 -61.015625 379.769531 -84.140625 C 371.730469 -108.800781 368.878906 -133.75 371.210938 -158.992188 C 373.617188 -185.070312 381.375 -209.664062 394.476562 -232.773438 C 407.070312 -254.988281 423.300781 -273.785156 443.167969 -289.167969 C 462.761719 -304.34375 484.746094 -315.296875 509.121094 -322.035156 C 533.496094 -328.769531 557.988281 -330.65625 582.59375 -327.699219 C 607.539062 -324.699219 631.121094 -316.902344 653.332031 -304.308594 C 684.171875 -286.820312 712.816406 -261.835938 739.265625 -229.347656 C 742.542969 -225.320312 748.167969 -221.046875 756.136719 -216.53125 C 763.285156 -212.476562 769.914062 -210.507812 776.023438 -210.621094 C 784.054688 -210.773438 791.789062 -212.957031 799.21875 -217.179688 C 804.792969 -220.34375 809.558594 -225.414062 813.511719 -232.386719 C 816.875 -238.320312 818.5 -244.804688 818.378906 -251.832031 C 818.214844 -261.402344 815.941406 -270.1875 811.558594 -278.1875 C 808.925781 -282.996094 804.476562 -287.175781 798.207031 -290.730469 Z M 798.207031 -290.730469 "/></g></g></g><g fill="#d4005f" fill-opacity="1"><g transform="translate(219.268837, 907.492465)"><g><path d="M 870.40625 -418.078125 C 900.800781 -400.847656 923.976562 -377.664062 939.9375 -348.53125 C 955.90625 -319.394531 964.175781 -287.992188 964.75 -254.328125 C 965.320312 -220.660156 957.359375 -189.273438 940.859375 -160.171875 C 923.628906 -129.773438 900.515625 -106.34375 871.515625 -89.875 C 842.515625 -73.414062 811.597656 -64.875 778.765625 -64.25 C 745.941406 -63.632812 714.332031 -71.941406 683.9375 -89.171875 C 660 -102.742188 640.597656 -118.65625 625.734375 -136.90625 C 610.867188 -155.164062 596 -168.515625 581.125 -176.953125 C 570.769531 -182.816406 559.765625 -184.140625 548.109375 -180.921875 C 536.460938 -177.703125 527.703125 -170.921875 521.828125 -160.578125 C 516.328125 -150.867188 515.367188 -140.507812 518.953125 -129.5 C 522.546875 -118.488281 529.519531 -110.050781 539.875 -104.1875 C 554.75 -95.75 573.832031 -89.84375 597.125 -86.46875 C 620.425781 -83.09375 644.046875 -74.617188 667.984375 -61.046875 C 698.378906 -43.816406 721.460938 -20.472656 737.234375 8.984375 C 753.015625 38.453125 761.097656 70.179688 761.484375 104.171875 C 761.878906 138.160156 753.460938 170.351562 736.234375 200.75 C 719.722656 229.851562 696.96875 252.632812 667.96875 269.09375 C 638.976562 285.5625 607.882812 294.425781 574.6875 295.6875 C 541.488281 296.957031 509.691406 288.976562 479.296875 271.75 L 338.609375 191.984375 C 292.046875 165.578125 253.613281 131.601562 223.3125 90.0625 C 193.019531 48.519531 171.351562 2.6875 158.3125 -47.4375 C 145.269531 -97.5625 141.753906 -148.269531 147.765625 -199.5625 C 153.773438 -250.863281 169.796875 -299.476562 195.828125 -345.40625 C 222.972656 -393.269531 257.171875 -432.859375 298.421875 -464.171875 C 339.679688 -495.484375 385.050781 -517.835938 434.53125 -531.234375 C 484.007812 -544.640625 534.488281 -548.5 585.96875 -542.8125 C 637.457031 -537.132812 686.992188 -521.226562 734.578125 -495.09375 Z M 870.40625 -418.078125 "/></g></g></g></g></g><g transform="matrix(1, 0, 0, 1, 3166, 701)"><g clip-path="url(#b11d880523)"><g fill="#ffef42" fill-opacity="1"><g transform="translate(212.253654, 966.742327)"><g><path d="M 679.453125 -832.769531 C 739.128906 -822.222656 791.132812 -797.617188 835.460938 -758.945312 C 877.96875 -721.871094 909.054688 -677 928.722656 -624.339844 C 949.054688 -569.90625 954.058594 -513.480469 943.734375 -455.058594 C 933.527344 -397.277344 909.742188 -346.609375 872.386719 -303.066406 C 836.804688 -261.589844 793.460938 -230.648438 742.351562 -210.238281 C 687.703125 -188.417969 630.222656 -182.832031 569.90625 -193.488281 L 595.375 -337.65625 L 739.652344 -312.804688 L 695.535156 -56.703125 C 685.105469 2.34375 660.6875 54.148438 622.277344 98.710938 C 585.386719 141.519531 540.722656 173.019531 488.285156 193.210938 C 433.386719 214.347656 376.46875 219.710938 317.527344 209.296875 C 259 198.957031 207.6875 174.3125 163.589844 135.371094 C 121.558594 98.25 90.808594 53.15625 71.347656 0.0898438 C 51.335938 -54.476562 46.464844 -110.8125 56.730469 -168.925781 L 101.945312 -424.835938 L 246.113281 -399.363281 L 220.640625 -255.199219 C 161.382812 -265.667969 109.703125 -290.375 65.605469 -329.316406 C 23.878906 -366.171875 -6.652344 -410.328125 -25.980469 -461.785156 C -46.15625 -515.496094 -51.136719 -571.246094 -40.929688 -629.027344 C -30.699219 -686.921875 -7.167969 -737.867188 29.664062 -781.871094 C 65.765625 -824.992188 110.023438 -856.832031 162.4375 -877.382812 C 217.207031 -898.859375 274.222656 -904.363281 333.484375 -893.894531 Z M 628.511719 -544.433594 L 282.542969 -605.558594 C 277.367188 -606.472656 272.960938 -606.21875 269.320312 -604.789062 C 263.324219 -602.441406 258.277344 -598.816406 254.179688 -593.925781 C 250.820312 -589.90625 248.558594 -584.628906 247.402344 -578.085938 C 246.488281 -572.898438 246.726562 -568.453125 248.121094 -564.742188 C 250.359375 -558.78125 254.125 -553.460938 259.425781 -548.785156 C 262.355469 -546.195312 266.40625 -544.445312 271.582031 -543.53125 L 415.75 -518.058594 L 345.066406 -117.984375 C 343.949219 -111.664062 344.339844 -105.914062 346.242188 -100.730469 C 348.691406 -94.050781 352.414062 -88.507812 357.410156 -84.09375 C 360.339844 -81.507812 364.023438 -79.820312 368.46875 -79.035156 C 373.960938 -78.066406 378.828125 -78.398438 383.074219 -80.03125 C 389.777344 -82.613281 395.582031 -86.75 400.480469 -92.433594 C 403.863281 -96.359375 406.035156 -101.019531 406.988281 -106.40625 L 476.058594 -507.402344 L 620.847656 -481.824219 C 626.429688 -480.835938 630.738281 -480.949219 633.769531 -482.160156 C 640.339844 -484.78125 645.800781 -488.632812 650.160156 -493.710938 C 652.738281 -496.71875 654.488281 -500.816406 655.402344 -506 C 656.464844 -512.015625 656.140625 -517.3125 654.429688 -521.894531 C 652.058594 -528.246094 648.242188 -533.714844 642.988281 -538.300781 C 639.5625 -541.289062 634.734375 -543.335938 628.511719 -544.433594 Z M 628.511719 -544.433594 "/></g></g></g><g fill="#d4005f" fill-opacity="1"><g transform="translate(212.253654, 966.742327)"><g><path d="M 653.984375 -688.609375 C 686.929688 -682.785156 715.34375 -669.457031 739.21875 -648.625 C 763.101562 -627.800781 780.550781 -602.632812 791.5625 -573.125 C 802.582031 -543.613281 805.25 -512.75 799.5625 -480.53125 C 794 -449.050781 781.226562 -421.671875 761.25 -398.390625 C 741.28125 -375.109375 716.878906 -357.707031 688.046875 -346.1875 C 659.210938 -334.675781 628.320312 -331.832031 595.375 -337.65625 L 551.265625 -81.546875 C 545.578125 -49.328125 532.285156 -21.097656 511.390625 3.140625 C 490.492188 27.390625 465.253906 45.207031 435.671875 56.59375 C 406.097656 67.988281 375.203125 70.835938 342.984375 65.140625 C 311.503906 59.578125 284.003906 46.410156 260.484375 25.640625 C 236.972656 4.878906 219.738281 -20.4375 208.78125 -50.3125 C 197.832031 -80.1875 195.203125 -111.234375 200.890625 -143.453125 L 246.109375 -399.359375 C 213.890625 -405.054688 186.023438 -418.285156 162.515625 -439.046875 C 139.003906 -459.816406 121.851562 -484.554688 111.0625 -513.265625 C 100.28125 -541.972656 97.671875 -572.066406 103.234375 -603.546875 C 108.921875 -635.765625 121.816406 -663.878906 141.921875 -687.890625 C 162.023438 -711.910156 186.675781 -729.644531 215.875 -741.09375 C 245.082031 -752.550781 275.796875 -755.429688 308.015625 -749.734375 Z M 653.984375 -688.609375 "/></g></g></g></g></g><g transform="matrix(1, 0, 0, 1, 2208, 267)"><g clip-path="url(#d1b997fb13)"><g fill="#ffef42" fill-opacity="1"><g transform="translate(316.343189, 791.173816)"><g><path d="M 1034.132812 -292.796875 C 1076.980469 -249.945312 1105.484375 -199.972656 1119.636719 -142.871094 C 1133.207031 -88.125 1132.953125 -33.539062 1118.878906 20.882812 C 1104.328125 77.136719 1076.082031 126.242188 1034.132812 168.191406 C 992.640625 209.683594 944.105469 237.558594 888.53125 251.820312 C 835.601562 265.40625 782.347656 265.910156 728.773438 253.328125 C 671.484375 239.878906 621.1875 211.5 577.878906 168.191406 L 681.398438 64.667969 L 785.359375 167.746094 L 602.394531 352.289062 C 559.996094 394.6875 510.289062 423.136719 453.269531 437.632812 C 398.503906 451.554688 343.851562 451.757812 289.308594 438.238281 C 232.210938 424.085938 182.5 395.847656 140.175781 353.523438 C 98.148438 311.496094 70.234375 261.890625 56.429688 204.699219 C 43.269531 150.191406 43.929688 95.613281 58.40625 40.976562 C 73.292969 -15.203125 101.601562 -64.15625 143.328125 -105.886719 L 327.085938 -289.640625 L 430.605469 -186.121094 L 327.085938 -82.601562 C 284.535156 -125.15625 256.355469 -175.023438 242.550781 -232.214844 C 229.488281 -286.332031 229.789062 -340.011719 243.453125 -393.257812 C 257.714844 -448.832031 285.59375 -497.363281 327.085938 -538.855469 C 368.65625 -580.425781 417.144531 -608.679688 472.550781 -623.617188 C 526.851562 -638.253906 581.367188 -638.96875 636.09375 -625.757812 C 693.285156 -611.953125 743.152344 -583.773438 785.707031 -541.222656 Z M 827.09375 -85.757812 L 578.664062 -334.183594 C 574.949219 -337.898438 571.191406 -340.214844 567.390625 -341.132812 C 561.128906 -342.644531 554.917969 -342.570312 548.757812 -340.910156 C 543.699219 -339.546875 538.824219 -336.515625 534.125 -331.816406 C 530.402344 -328.09375 528.046875 -324.3125 527.0625 -320.472656 C 525.480469 -314.308594 525.515625 -307.789062 527.175781 -300.917969 C 528.09375 -297.117188 530.410156 -293.359375 534.125 -289.640625 L 637.644531 -186.121094 L 350.367188 101.152344 C 345.832031 105.691406 342.855469 110.628906 341.441406 115.96875 C 339.617188 122.84375 339.488281 129.519531 341.054688 136 C 341.96875 139.796875 344.023438 143.292969 347.214844 146.484375 C 351.15625 150.425781 355.335938 152.945312 359.753906 154.039062 C 366.726562 155.769531 373.851562 155.710938 381.125 153.859375 C 386.148438 152.582031 390.59375 150.007812 394.464844 146.140625 L 680.953125 -142.816406 L 784.917969 -38.851562 C 788.925781 -34.839844 792.519531 -32.464844 795.695312 -31.71875 C 802.585938 -30.101562 809.269531 -30.125 815.75 -31.785156 C 819.585938 -32.773438 823.367188 -35.125 827.09375 -38.851562 C 831.410156 -43.167969 834.183594 -47.695312 835.40625 -52.429688 C 837.105469 -58.996094 837.113281 -65.664062 835.4375 -72.429688 C 834.34375 -76.84375 831.5625 -81.289062 827.09375 -85.757812 Z M 827.09375 -85.757812 "/></g></g></g><g fill="#d4005f" fill-opacity="1"><g transform="translate(316.343189, 791.173816)"><g><path d="M 930.59375 -189.28125 C 954.25 -165.625 969.890625 -138.414062 977.515625 -107.65625 C 985.140625 -76.894531 985.007812 -46.269531 977.125 -15.78125 C 969.238281 14.707031 953.726562 41.519531 930.59375 64.65625 C 907.976562 87.269531 881.816406 102.382812 852.109375 110 C 822.410156 117.625 792.445312 117.890625 762.21875 110.796875 C 731.988281 103.703125 705.046875 88.328125 681.390625 64.671875 L 498.421875 249.203125 C 475.285156 272.335938 448.207031 287.847656 417.1875 295.734375 C 386.164062 303.617188 355.273438 303.75 324.515625 296.125 C 293.765625 288.507812 266.820312 273.132812 243.6875 250 C 221.082031 227.394531 206.097656 200.84375 198.734375 170.34375 C 191.367188 139.84375 191.757812 109.210938 199.90625 78.453125 C 208.0625 47.703125 223.707031 20.757812 246.84375 -2.375 L 430.59375 -186.125 C 407.457031 -209.257812 392.210938 -236.070312 384.859375 -266.5625 C 377.503906 -297.050781 377.632812 -327.144531 385.25 -356.84375 C 392.875 -386.550781 407.992188 -412.710938 430.609375 -435.328125 C 453.742188 -458.460938 480.425781 -474.101562 510.65625 -482.25 C 540.882812 -490.394531 571.242188 -490.789062 601.734375 -483.4375 C 632.222656 -476.082031 659.035156 -460.835938 682.171875 -437.703125 Z M 930.59375 -189.28125 "/></g></g></g></g></g><g transform="matrix(1, 0, 0, 1, 1688, 587)"><g clip-path="url(#55a525b3b9)"><g fill="#ffef42" fill-opacity="1"><g transform="translate(1102.982561, 977.038297)"><g><path d="M 109.578125 -52.832031 C 93.605469 3.125 65.230469 51 24.457031 90.796875 C -16.105469 130.386719 -63.742188 157.441406 -118.457031 171.960938 C -173.8125 186.652344 -229.253906 186.402344 -284.78125 171.210938 L -761.660156 41.710938 C -826.207031 24.449219 -879.269531 -8.460938 -920.847656 -57.019531 C -959.6875 -102.375 -984.589844 -154.109375 -995.554688 -212.222656 C -1006.648438 -270.996094 -1001.929688 -328.683594 -981.398438 -385.277344 C -959.660156 -445.199219 -921.074219 -495.007812 -865.640625 -534.699219 L -460.992188 -822.871094 C -414.703125 -857.28125 -362.125 -876.824219 -303.261719 -881.496094 C -247.933594 -885.886719 -194.925781 -876.988281 -144.238281 -854.792969 C -91.285156 -831.605469 -47.4375 -795.613281 -12.691406 -746.816406 C 20.855469 -698.589844 40.253906 -646.0625 45.507812 -589.238281 C 50.785156 -532.09375 41.605469 -477.710938 17.960938 -426.085938 C -5.488281 -374.890625 -40.605469 -332.285156 -87.386719 -298.273438 L -277.871094 -162.605469 L -285.71875 -158.347656 C -268.976562 -167.429688 -254.609375 -179.433594 -242.625 -194.359375 C -228.253906 -212.25 -218.730469 -232.429688 -214.054688 -254.890625 C -207.828125 -284.804688 -210.839844 -313.472656 -223.089844 -340.882812 C -230.515625 -357.5 -240.828125 -372.164062 -254.03125 -384.882812 C -270.714844 -400.953125 -290.167969 -412.285156 -312.386719 -418.875 C -330.816406 -424.34375 -349.519531 -426 -368.5 -423.851562 C -380.429688 -422.496094 -391.890625 -419.671875 -402.882812 -415.375 L -349.578125 -279.027344 L -408.179688 -413.183594 L -243.804688 -484.988281 L -117.378906 -451.746094 C -59.449219 -435.230469 -10.585938 -406.585938 29.207031 -365.8125 C 68.796875 -325.25 95.851562 -277.613281 110.375 -222.898438 C 124.804688 -168.53125 124.925781 -113.277344 110.738281 -57.144531 L 110.191406 -54.980469 Z M -171.976562 -133.203125 L -31.199219 -93.019531 L -173.132812 -128.890625 C -171.339844 -136 -171.167969 -142.296875 -172.625 -147.789062 C -173.992188 -152.9375 -176.558594 -157.441406 -180.328125 -161.304688 C -183.894531 -164.953125 -187.726562 -167.375 -191.835938 -168.570312 L -269.054688 -188.875 L -231.828125 -330.460938 L -173.222656 -196.304688 L -293.601562 -143.71875 L -296.269531 -142.675781 C -329.226562 -129.792969 -362.351562 -128.289062 -395.652344 -138.167969 C -419.066406 -145.113281 -439.570312 -157.058594 -457.167969 -174.011719 C -471.277344 -187.605469 -482.359375 -203.410156 -490.410156 -221.421875 C -503.910156 -251.632812 -507.34375 -282.679688 -500.710938 -314.554688 C -495.832031 -337.996094 -485.894531 -359.050781 -470.90625 -377.710938 C -458.300781 -393.40625 -443.109375 -406.074219 -425.332031 -415.71875 L -355.527344 -287.035156 L -440.453125 -406.28125 L -259.5625 -535.101562 C -254.160156 -539.023438 -250.390625 -543.328125 -248.246094 -548.011719 C -246.292969 -552.269531 -245.5625 -557.03125 -246.050781 -562.296875 C -246.566406 -567.878906 -248.285156 -572.777344 -251.210938 -576.992188 C -254.660156 -581.839844 -258.152344 -585.035156 -261.679688 -586.578125 C -267.476562 -589.117188 -273.617188 -590.128906 -280.09375 -589.617188 C -283.035156 -589.382812 -286.71875 -587.632812 -291.144531 -584.371094 L -695.179688 -296.636719 C -701.398438 -292.183594 -705.054688 -288.449219 -706.152344 -285.429688 C -708.453125 -279.078125 -709.015625 -272.773438 -707.835938 -266.519531 C -706.527344 -259.597656 -703.398438 -253.246094 -698.445312 -247.457031 C -696.230469 -244.875 -691.726562 -242.671875 -684.929688 -240.851562 L -207.503906 -111.207031 C -202.71875 -109.898438 -198.074219 -109.84375 -193.566406 -111.039062 C -188.421875 -112.40625 -183.914062 -114.972656 -180.054688 -118.742188 C -176.402344 -122.304688 -173.710938 -127.125 -171.976562 -133.203125 Z M -171.976562 -133.203125 "/></g></g></g><g fill="#d4005f" fill-opacity="1"><g transform="translate(1102.982561, 977.038297)"><g><path d="M -31.203125 -93.015625 C -40.046875 -61.992188 -55.570312 -35.644531 -77.78125 -13.96875 C -99.988281 7.707031 -126.0625 22.515625 -156 30.453125 C -185.9375 38.390625 -215.984375 38.234375 -246.140625 29.984375 L -723.28125 -99.578125 C -758.957031 -109.117188 -787.738281 -126.675781 -809.625 -152.25 C -831.519531 -177.820312 -845.535156 -206.863281 -851.671875 -239.375 C -857.804688 -271.882812 -855.164062 -303.875 -843.75 -335.34375 C -832.34375 -366.820312 -811.226562 -393.597656 -780.40625 -415.671875 L -376.0625 -703.625 C -350.707031 -722.457031 -322.570312 -733.097656 -291.65625 -735.546875 C -260.75 -738.003906 -231.175781 -733.050781 -202.9375 -720.6875 C -174.707031 -708.320312 -151.046875 -688.726562 -131.953125 -661.90625 C -113.703125 -635.675781 -103.140625 -606.957031 -100.265625 -575.75 C -97.390625 -544.550781 -102.347656 -514.984375 -115.140625 -487.046875 C -127.929688 -459.109375 -147.378906 -435.65625 -173.484375 -416.6875 L -355.515625 -287.046875 C -357.585938 -285.910156 -357.992188 -283.941406 -356.734375 -281.140625 C -355.484375 -278.347656 -353.097656 -277.644531 -349.578125 -279.03125 L -231.828125 -330.46875 L -154.609375 -310.171875 C -123.585938 -301.304688 -97.238281 -285.765625 -75.5625 -263.546875 C -53.882812 -241.335938 -39.070312 -215.265625 -31.125 -185.328125 C -23.175781 -155.398438 -23.203125 -124.628906 -31.203125 -93.015625 Z M -31.203125 -93.015625 "/></g></g></g></g></g></svg>